<?xml version="1.0" encoding="utf-8"?>
<!-- Generator: Adobe Illustrator 22.0.1, SVG Export Plug-In . SVG Version: 6.00 Build 0)  -->
<svg version="1.1" id="Layer_1" xmlns="http://www.w3.org/2000/svg" xmlns:xlink="http://www.w3.org/1999/xlink" x="0px" y="0px"
	 viewBox="0 0 300 250" style="enable-background:new 0 0 300 250;" xml:space="preserve">
<style type="text/css">
	.st0{fill:#326BB4;}
	.st1{fill:#FFFFFF;}
</style>
<rect y="0" class="st0" width="300" height="250"/>
<g>
	<g>
		<g>
			<path class="st1" d="M99.6,174.9v-9.7h2.6v7.5h3.3v2.3H99.6z"/>
		</g>
		<g>
			<path class="st1" d="M107.1,174.9l3.4-9.7h3.3l3.4,9.7h-2.6l-0.5-1.7h-3.8l-0.5,1.7H107.1z M110.8,171.2h2.6l-1-3.2
				c0-0.1-0.1-0.3-0.1-0.5c-0.1-0.2-0.1-0.5-0.2-0.8c-0.1,0.2-0.1,0.5-0.2,0.7c-0.1,0.2-0.1,0.4-0.2,0.6L110.8,171.2z"/>
		</g>
		<g>
			<path class="st1" d="M123.8,171.3v-2h5.2c0,0.1,0,0.1,0,0.2c0,0.1,0,0.2,0,0.4c0,1.7-0.4,3-1.3,3.9c-0.9,0.9-2.1,1.4-3.7,1.4
				c-0.8,0-1.5-0.1-2.1-0.4c-0.6-0.2-1.2-0.6-1.6-1.1c-0.5-0.5-0.8-1-1.1-1.7c-0.3-0.6-0.4-1.3-0.4-2c0-0.7,0.1-1.4,0.4-2
				c0.2-0.6,0.6-1.2,1.1-1.6c0.5-0.5,1-0.8,1.7-1.1c0.6-0.2,1.3-0.4,2-0.4c1,0,1.8,0.2,2.5,0.6c0.7,0.4,1.3,0.9,1.8,1.7l-2.3,1.1
				c-0.3-0.4-0.6-0.7-0.9-0.8c-0.3-0.2-0.7-0.3-1.2-0.3c-0.8,0-1.4,0.3-1.9,0.8c-0.5,0.5-0.7,1.3-0.7,2.2c0,0.9,0.2,1.7,0.7,2.2
				c0.5,0.5,1.1,0.8,1.9,0.8c0.7,0,1.2-0.2,1.7-0.5c0.4-0.3,0.7-0.8,0.8-1.3H123.8z"/>
		</g>
		<g>
			<path class="st1" d="M132,174.9v-9.7h6v2.1h-3.4v1.7h3.2v2.1h-3.2v1.6h3.4v2.2H132z"/>
		</g>
		<g>
			<path class="st1" d="M141,174.9v-9.7h2.8c1.1,0,1.8,0,2.3,0.1c0.4,0.1,0.8,0.3,1.1,0.5c0.3,0.3,0.6,0.6,0.8,1
				c0.2,0.4,0.3,0.9,0.3,1.4c0,0.8-0.2,1.4-0.6,1.8c-0.4,0.5-0.9,0.8-1.6,0.9l2.6,3.9h-3l-2.2-3.8v3.8H141z M143.5,169.8h0.5
				c0.6,0,1-0.1,1.3-0.3c0.3-0.2,0.4-0.5,0.4-0.9c0-0.5-0.1-0.8-0.4-1c-0.2-0.2-0.7-0.3-1.2-0.3h-0.5V169.8z"/>
		</g>
		<g>
			<path class="st1" d="M163.4,174.9l-0.9-1c-0.5,0.4-1,0.8-1.5,1c-0.5,0.2-1.1,0.3-1.7,0.3c-0.9,0-1.6-0.3-2.1-0.8
				c-0.5-0.5-0.8-1.2-0.8-1.9c0-0.6,0.2-1.2,0.5-1.6c0.4-0.5,0.9-0.9,1.7-1.3c-0.3-0.3-0.5-0.7-0.7-1c-0.1-0.3-0.2-0.7-0.2-1
				c0-0.7,0.3-1.2,0.8-1.6c0.5-0.4,1.2-0.7,1.9-0.7c0.9,0,1.6,0.2,2.1,0.6c0.5,0.4,0.8,1,0.8,1.7c0,0.5-0.1,0.9-0.4,1.3
				c-0.3,0.4-0.7,0.8-1.2,1.1l1.1,1.2c0.2-0.2,0.5-0.4,0.7-0.6c0.2-0.2,0.5-0.5,0.7-0.7l1.4,1.4c-0.2,0.3-0.5,0.5-0.7,0.8
				c-0.2,0.2-0.4,0.4-0.7,0.6l2.1,2.2H163.4z M161.2,172.6l-1.6-1.7c-0.3,0.3-0.5,0.5-0.7,0.7c-0.1,0.2-0.2,0.4-0.2,0.7
				c0,0.3,0.1,0.5,0.3,0.7c0.2,0.2,0.4,0.3,0.7,0.3c0.2,0,0.4-0.1,0.7-0.2C160.7,173,161,172.8,161.2,172.6z M160.6,168.9l0.3-0.3
				c0.2-0.2,0.4-0.4,0.5-0.6c0.1-0.2,0.2-0.4,0.2-0.5c0-0.2-0.1-0.4-0.2-0.6c-0.2-0.1-0.4-0.2-0.6-0.2c-0.3,0-0.5,0.1-0.7,0.2
				c-0.2,0.2-0.2,0.4-0.2,0.6c0,0.1,0,0.2,0.1,0.4c0.1,0.2,0.2,0.3,0.3,0.4L160.6,168.9z"/>
		</g>
		<g>
			<path class="st1" d="M173.5,174.9l3.4-9.7h3.3l3.4,9.7h-2.6l-0.5-1.7h-3.8l-0.5,1.7H173.5z M177.2,171.2h2.6l-1-3.2
				c0-0.1-0.1-0.3-0.1-0.5c-0.1-0.2-0.1-0.5-0.2-0.8c-0.1,0.2-0.1,0.5-0.2,0.7c-0.1,0.2-0.1,0.4-0.2,0.6L177.2,171.2z"/>
		</g>
		<g>
			<path class="st1" d="M185.8,174.9v-9.7h2.6v7.5h3.3v2.3H185.8z"/>
		</g>
		<g>
			<path class="st1" d="M194.4,174.9v-9.7h6v2.1H197v1.7h3.2v2.1H197v1.6h3.4v2.2H194.4z"/>
		</g>
	</g>
	<g>
		<g>
			<g>
				<path class="st1" d="M64.6,92.1c0,0,14.9,34.6,15.7,36.1H85v7.9H66.9v-7.8h2.3c-0.8-1.6-1.4-3.1-2.2-4.8H54.5l-1.8,4.8h2.3v7.8
					H39.4v-7.9h4.7C45.7,123.5,59,92.1,59,92.1h5.8H64.6z M64.2,115.6l-3.7-8.7l-3.5,8.7H64.2z"/>
			</g>
			<g>
				<path class="st1" d="M117.4,119.6h7.9l-2.4,16.5h-37v-7.9h4.7V99.9h-4.7V92h18.9v7.9h-4.8v28.3h11.8c4.5,0,5-5.5,5-5.5
					L117.4,119.6z"/>
			</g>
			<g>
				<path class="st1" d="M157.9,104.3c0,4.8-4,12.7-14.2,12.7h-4v11.1h4v7.9h-19.1v-7.9h4.7V99.6h-4.7v-7.9h19.8
					C153.1,91.7,157.9,98,157.9,104.3z M146.8,104.3c0-2.3-1.6-4.7-4.8-4.7h-2.4v9.6h2.4C145.2,109.2,146.8,106.7,146.8,104.3z"/>
			</g>
			<g>
				<path class="st1" d="M158.2,92.1h18.1v7.9h-4v28.3h4v7.8h-18.1v-7.8h4V100h-4V92.1z"/>
			</g>
			<g>
				<path class="st1" d="M203.8,92h16.5v7.9h-4v36.2h-6.3l-20.5-27.6v19.7c0.8,0,4.8,0,4.8,0v7.9h-16.5v-7.9h4.7V99.9h-4.7V92h14.1
					l16.6,23.6V99.9h-4.7V92z"/>
			</g>
			<g>
				<path class="st1" d="M260.6,117.9l-2.3,18.1h-37.1v-7.9h4V99.8h-4v-7.9h34.7l4,15h-7.9c-0.8-3.1-1.6-7.1-6.3-7.1h-10.3v9.5h5.5
					v-3.2h7.9v14.2h-7.9v-3.1h-5.5v11H248c2.3,0,3.9-5.5,4.7-10.3H260.6z"/>
			</g>
		</g>
		<g>
			<g>
				<path class="st1" d="M75.8,152.5c0,2.7-1.8,5.4-6,5.4h-7.3v-3H64v-10.9h-1.5v-3h6.7c3.9,0,5.8,2.5,5.8,4.9
					c0,1.2-0.3,2.1-0.9,2.7C74.9,149.5,75.8,150.7,75.8,152.5z M67.9,144.1v3.6h1.2c1.2,0,1.8-0.9,1.8-1.8c0-0.9-0.6-1.8-1.8-1.8
					H67.9z M71.9,152.8c0-1.2-0.9-2.1-2.1-2.1h-1.8v4.2c0.5,0,1,0,1.8,0C70.9,155,71.9,154,71.9,152.8z"/>
			</g>
			<g>
				<path class="st1" d="M93.4,155v3.1h-4.2c-0.6-0.3-1.9-1.2-1.9-3.4c0-1.2-0.9-3.6-3.4-4v4.2h1.6v3.1h-7V155h1.8v-11h-1.8v-3h7.3
					c3.9,0,5.1,2.7,5.1,4.9c0,1.8-0.6,3-1.5,3.9c0.9,1.2,1.5,2.8,1.5,4.6c0,0.6,0.6,0.6,0.6,0.6H93.4z M85.1,147.7
					c1.4,0,2.1-0.9,2.1-1.8c0-0.9-0.6-1.8-1.8-1.8h-1.6v3.7H85.1z"/>
			</g>
			<g>
				<path class="st1" d="M112,151l-0.9,7H96.7v-3h1.5v-11h-1.5v-3h13.4l1.5,5.8h-3.1c-0.3-1.2-0.6-2.7-2.4-2.7h-4v3.7h2.1v-1.2h3
					v5.5h-3v-1.2h-2.1v4.2h4.9c0.9,0,1.5-2.1,1.8-4H112z"/>
			</g>
			<g>
				<path class="st1" d="M132.4,141h6.1v3.1H137c-0.3,0-0.3,0.3-0.3,0.3l-4.6,13.7h-2.5l-2.7-8.8l-3,8.8h-2.1l-4.3-13.4
					c0-0.3-0.3-0.6-0.6-0.6h-1.5V141h7.3v3.1h-1.2l1.8,6.1l3.1-9.1h2.1l3.1,9.1l1.8-6.1h-0.9V141z"/>
			</g>
			<g>
				<path class="st1" d="M141.9,141.1h7v3h-1.5V155h1.5v3h-7v-3h1.5v-10.9h-1.5V141.1z"/>
			</g>
			<g>
				<path class="st1" d="M162.5,141h6.4v3h-1.5v14H165l-7.9-10.6v7.6c0.3,0,1.8,0,1.8,0v3h-6.4v-3h1.8v-11h-1.8v-3h5.4l6.4,9.1V144
					h-1.8V141z"/>
			</g>
			<g>
				<path class="st1" d="M180.7,149.5h7.2v3.2h-1.6v5h-1.3c-0.7,0.1-1.7,0.6-4.1,0.6h-1.6c-5.6,0-8.8-3.2-8.8-8.8
					c0-5.9,4.4-8.8,8.8-8.8c1.6,0,2.8,0.3,3.7,0.6v-0.6h3.2v7.2h-3.2v-1.3c0-0.3-0.6-2.8-3.7-2.8c-3.7,0-4.7,4.1-4.7,5.6
					c0,2.8,1.6,5.6,4.7,5.6c1.6,0,2.8-0.6,2.8-1.6v-0.9h-1.6V149.5z"/>
			</g>
			<g>
				<path class="st1" d="M211.8,153.2c-0.6,2.2-2.1,4.9-6.8,4.9c-4.6,0-8-3.7-8-8.6c0-5.3,3.4-8.6,8-8.6c1.6,0,2.8,0.3,3.4,0.7v-0.9
					h3.1v6.8h-3.1v-0.9c0-1.2-1.2-2.5-3.4-2.5c-1.5,0-3.7,1.2-3.7,5.5c0,4,2.1,5.5,3.7,5.5c2.5,0,3.7-2.2,3.7-2.5L211.8,153.2z"/>
			</g>
			<g>
				<path class="st1" d="M230.5,149.6c0,6.5-4.3,8.7-8.1,8.7c-4,0-8.1-2.5-8.1-8.7c0-5.9,4.1-8.8,8.1-8.8
					C226.1,140.8,230.5,143.3,230.5,149.6z M226.1,149.6c0-3.4-1.6-5.6-3.8-5.6c-2.5,0-4,2.2-4,5.6c0,3.4,1.6,5.6,4,5.6
					C224.5,155.1,226.1,153,226.1,149.6z"/>
			</g>
			<g>
				<path class="st1" d="M237.5,155.9c0,1.2-0.9,2.1-2.2,2.1c-1.2,0-2.1-0.9-2.1-2.1c0-1.2,0.9-2.1,2.1-2.1
					C236.6,153.8,237.5,154.7,237.5,155.9z"/>
			</g>
		</g>
	</g>
	<g>
		<path class="st1" d="M150,194.3L37.3,175.8l-18-50.8l18-50.8L150,55.7l112.7,18.6l18,50.8l-18,50.8L150,194.3z M42.5,169.5
			L150,187.3l107.4-17.7l15.8-44.5l-15.8-44.5L150,62.7L42.5,80.5L26.8,125L42.5,169.5z"/>
	</g>
	<g>
		<g>
			<path class="st1" d="M103,80.4v-2h5.2c0,0.1,0,0.1,0,0.2c0,0.1,0,0.2,0,0.4c0,1.7-0.4,3-1.3,3.9c-0.9,0.9-2.1,1.4-3.7,1.4
				c-0.8,0-1.5-0.1-2.1-0.4c-0.6-0.2-1.2-0.6-1.6-1.1c-0.5-0.5-0.8-1-1.1-1.7c-0.3-0.6-0.4-1.3-0.4-2c0-0.7,0.1-1.4,0.4-2
				c0.2-0.6,0.6-1.2,1.1-1.6c0.5-0.5,1-0.8,1.7-1.1c0.6-0.2,1.3-0.4,2-0.4c1,0,1.8,0.2,2.5,0.6c0.7,0.4,1.4,0.9,1.9,1.7l-2.3,1.1
				c-0.3-0.4-0.6-0.7-0.9-0.8c-0.3-0.2-0.7-0.3-1.2-0.3c-0.8,0-1.4,0.3-1.9,0.8c-0.5,0.5-0.7,1.3-0.7,2.2c0,0.9,0.2,1.7,0.7,2.2
				c0.5,0.5,1.1,0.8,1.9,0.8c0.7,0,1.2-0.2,1.7-0.5c0.4-0.3,0.7-0.8,0.8-1.3H103z"/>
		</g>
		<g>
			<path class="st1" d="M110.1,84l3.4-9.7h3.3l3.4,9.7h-2.6l-0.5-1.7h-3.8l-0.5,1.7H110.1z M113.8,80.4h2.6l-1-3.2
				c0-0.1-0.1-0.3-0.1-0.5c-0.1-0.2-0.1-0.5-0.2-0.8c-0.1,0.2-0.1,0.5-0.2,0.7c-0.1,0.2-0.1,0.4-0.2,0.6L113.8,80.4z"/>
		</g>
		<g>
			<path class="st1" d="M123.7,84v-4.4l-3.4-5.3h3l1.3,2.5c0,0,0,0,0,0.1c0.1,0.3,0.2,0.5,0.3,0.8c0-0.2,0.1-0.5,0.3-0.7
				c0,0,0-0.1,0.1-0.1l1.3-2.5h3l-3.4,5.3V84H123.7z"/>
		</g>
		<g>
			<path class="st1" d="M131.4,84v-9.7h2.6v7.5h3.3V84H131.4z"/>
		</g>
		<g>
			<path class="st1" d="M149.8,79.2c0,0.7-0.1,1.4-0.4,2c-0.3,0.6-0.6,1.2-1.1,1.6c-0.5,0.5-1.1,0.8-1.7,1.1c-0.6,0.3-1.3,0.4-2,0.4
				c-0.7,0-1.4-0.1-2-0.4c-0.6-0.3-1.2-0.6-1.7-1.1c-0.5-0.5-0.9-1-1.1-1.6c-0.3-0.6-0.4-1.3-0.4-2c0-0.7,0.1-1.3,0.4-2
				c0.3-0.6,0.6-1.2,1.1-1.6c0.5-0.5,1-0.8,1.7-1.1c0.6-0.3,1.3-0.4,2-0.4c0.7,0,1.4,0.1,2,0.4c0.6,0.3,1.2,0.6,1.7,1.1
				c0.5,0.5,0.9,1,1.1,1.6C149.6,77.8,149.8,78.5,149.8,79.2z M144.6,82c0.7,0,1.3-0.3,1.8-0.8c0.5-0.5,0.7-1.2,0.7-2
				c0-0.8-0.2-1.5-0.7-2c-0.5-0.5-1.1-0.8-1.8-0.8c-0.7,0-1.3,0.3-1.8,0.8c-0.5,0.5-0.7,1.2-0.7,2c0,0.8,0.2,1.5,0.7,2.1
				C143.2,81.7,143.8,82,144.6,82z"/>
		</g>
		<g>
			<path class="st1" d="M152.8,84v-9.7h2.8c1.1,0,1.8,0,2.3,0.1c0.4,0.1,0.8,0.3,1.1,0.5c0.3,0.3,0.6,0.6,0.8,1
				c0.2,0.4,0.3,0.9,0.3,1.4c0,0.8-0.2,1.4-0.6,1.8c-0.4,0.5-0.9,0.8-1.6,0.9l2.6,3.9h-3l-2.2-3.8V84H152.8z M155.3,78.9h0.5
				c0.6,0,1-0.1,1.3-0.3c0.3-0.2,0.4-0.5,0.4-0.9c0-0.5-0.1-0.8-0.4-1c-0.2-0.2-0.7-0.3-1.2-0.3h-0.5V78.9z"/>
		</g>
		<g>
			<path class="st1" d="M162.9,84v-9.7h2c1.5,0,2.6,0.1,3.2,0.2s1.2,0.4,1.7,0.7c0.6,0.4,1.1,1,1.4,1.7c0.3,0.7,0.5,1.4,0.5,2.3
				c0,0.9-0.2,1.6-0.5,2.3c-0.3,0.7-0.8,1.2-1.4,1.7c-0.5,0.3-1,0.6-1.6,0.7c-0.6,0.1-1.5,0.2-2.8,0.2h-0.4H162.9z M165.5,81.8h0.4
				c1,0,1.8-0.2,2.3-0.6c0.5-0.4,0.7-1.1,0.7-2c0-0.9-0.2-1.6-0.7-2c-0.5-0.4-1.2-0.7-2.3-0.7h-0.4V81.8z"/>
		</g>
		<g>
			<path class="st1" d="M174.6,81.8h2.5l-2.1,4.2h-1.8L174.6,81.8z"/>
		</g>
		<g>
			<path class="st1" d="M196.5,84H194l-0.6-4.2c0-0.3-0.1-0.6-0.1-1c0-0.4-0.1-0.8-0.1-1.2c-0.1,0.4-0.2,0.9-0.4,1.5
				c0,0.1-0.1,0.2-0.1,0.3l-1.3,4.6h-1.8l-1.3-4.6c0-0.1,0-0.2-0.1-0.3c-0.2-0.6-0.3-1.1-0.4-1.5c0,0.4-0.1,0.7-0.1,1.1
				c0,0.4-0.1,0.7-0.1,1.1l-0.6,4.2h-2.5l1.5-9.7h2.6l1.5,5c0,0,0,0.1,0.1,0.2c0.1,0.4,0.2,0.8,0.3,1.1c0-0.2,0.1-0.4,0.1-0.6
				c0-0.2,0.1-0.5,0.2-0.8l1.5-5h2.6L196.5,84z"/>
		</g>
		<g>
			<path class="st1" d="M199.3,84v-9.7h2.7V84H199.3z"/>
		</g>
	</g>
</g>
</svg>
