<?xml version="1.0" encoding="utf-8"?>
<!-- Generator: Adobe Illustrator 22.0.1, SVG Export Plug-In . SVG Version: 6.00 Build 0)  -->
<svg version="1.1" id="Layer_1" xmlns="http://www.w3.org/2000/svg" xmlns:xlink="http://www.w3.org/1999/xlink" x="0px" y="0px"
	 viewBox="0 0 300 250" style="enable-background:new 0 0 300 250;" xml:space="preserve">
<style type="text/css">
	.st0{fill:#D3D5D6;}
	.st1{fill:#4F82B7;}
	.st2{fill:#C35651;}
	.st3{fill:#1A1A1A;}
	.st4{fill:#FFFFFF;}
</style>
<rect x="0" class="st0" width="300" height="250"/>
<g>
	<g>
		<path class="st1" d="M36.9,167.4c0,10.1,8.2,18.3,18.3,18.3h76.8c-10.1,0-95.1-78.9-95.1-78.9L36.9,167.4L36.9,167.4z"/>
		<path class="st2" d="M131.9,27.9H55.2c-10.1,0-18.3,8.2-18.3,18.3v60.6C36.9,96.7,121.8,27.9,131.9,27.9z"/>
		<path class="st1" d="M168.3,185.7H245c10.1,0,18.3-8.2,18.3-18.3v-60.6c0,0,0,0-0.1,0.1C260.7,109.3,178.2,185.7,168.3,185.7z"/>
		<path class="st2" d="M245,27.9h-76.7c10,0,92.4,66.6,95,78.4c0,0.2,0.1,0.4,0.1,0.5V46.3C263.3,36.1,255.1,27.9,245,27.9z"/>
		<path class="st3" d="M168.2,27.9H132c-10.1,0-95.1,68.8-95.1,78.9c0,0,85,78.9,95.1,78.9h36.3c10,0,92.4-76.4,95-78.8
			c0,0,0.1-0.1,0.1-0.1c0-0.2,0-0.3-0.1-0.5C260.7,94.6,178.2,27.9,168.2,27.9z"/>
		<path class="st3" d="M263.3,106.3c-2.6-11.7-85-78.4-95-78.4h0C178.2,27.9,260.7,94.6,263.3,106.3z"/>
		<path class="st3" d="M168.2,185.7L168.2,185.7c10,0,92.4-76.4,95-78.8C260.7,109.3,178.2,185.7,168.2,185.7z"/>
		<g>
			<g>
				<path class="st4" d="M84.8,115c-0.1,0.7-0.5,1.1-1.1,1.2c-0.3,0-1.1,0.1-2.5,0.1c-2.2,0-4.6,0-7,0c-1.1,0-1.8-0.1-2.1-0.2
					c-0.5-0.2-0.8-0.5-0.9-1.1c-0.1-0.4,0.2-0.8,0.7-1.2c0.8-0.6,1.3-1.1,1.4-1.3c0.1-0.3,0.1-1-0.2-2c-0.3-1.3-0.7-2.2-1.2-2.6
					c-0.5-0.4-1.5-0.6-2.8-0.6c-1.4,0-2.9,0.1-4.5,0.2c-0.8,0-1.2,0.4-1.4,1.2c-0.1,0.2-0.2,0.7-0.4,1.4c-0.2,0.6-0.3,1-0.4,1.4
					c-0.1,0.7-0.1,1.2,0.2,1.5c0.2,0.3,0.7,0.5,1.5,0.7c0,0,0.2,0.1,0.5,0.3c0.3,0.3,0.4,0.6,0.3,1c-0.1,0.5-0.4,0.8-0.9,0.9
					c-0.3,0.1-0.7,0.2-1.2,0.2c-3.3,0-5.8,0-7.4-0.1c-0.7,0-1.1-0.3-1.2-0.9c-0.1-0.6,0.1-1.1,0.7-1.3c1.1-0.5,2-1.7,2.7-3.4
					c0.5-1.3,2.1-5.2,4.6-11.6c0.2-0.4,0.8-2,1.9-4.8c0.8-1.9,1.4-3.5,1.9-4.8c0.9-2.2,2.5-3.2,4.8-3.2c2.1,0.1,3.5,1.2,4.2,3.4
					c3.9,12.5,6.1,19.6,6.6,21.3c0.3,0.9,0.6,1.5,0.9,1.9c0.4,0.5,1.1,0.9,1.9,0.9C84.8,113.9,85,114.3,84.8,115z M68.3,94.8
					c-1.6,4.4-2.5,6.8-2.8,7.4c-0.1,0.4-0.1,0.7,0.1,1c0.2,0.3,0.5,0.4,0.9,0.4c1,0.1,2,0.1,3,0c0.4,0,0.8-0.2,1-0.4
					c0.2-0.3,0.3-0.6,0.2-1.1c-0.2-0.6-0.9-3-2.2-7.4L68.3,94.8z"/>
				<path class="st4" d="M109.1,107.4c0.7,1.5,1.5,2.9,2.2,4.2c0.6,1.2,1.5,1.9,2.6,2c0.6,0.1,0.7,0.4,0.5,1
					c-0.4,0.9-1.1,1.4-2.1,1.4c-2.2,0.1-3.9,0.1-5,0c-1.8-0.2-3.1-1.2-4-2.8c-0.5-0.9-1.1-2.1-1.8-3.5c-0.9-1.8-1.5-3-1.8-3.5
					c-0.6-1.1-1.3-1.7-2.2-1.8c-0.3,0-0.6,0.1-0.9,0.3c-0.2,0.2-0.4,0.5-0.4,0.9c0,0.6-0.1,1.9-0.2,3.9c0,0.2,0,0.5,0,0.8
					c0,0.4,0,0.7,0,0.8c0,0.9,0.1,1.5,0.3,1.7c0.2,0.2,0.7,0.5,1.5,0.9c0.4,0.2,0.6,0.5,0.6,1c-0.1,1.1-0.6,1.6-1.6,1.7
					c-3.1,0-6.2,0-9.1,0c-1.2,0-1.8-0.5-1.9-1.3c-0.1-0.7,0.3-1.2,1.1-1.5c0.7-0.3,1.1-0.8,1.1-1.7c0-1.1,0.1-1.8,0.1-2
					c0-5.3,0-11.1,0-17.4c0-0.2,0-0.4,0-0.7c0-0.3,0-0.6,0-0.7c0-0.9-0.5-1.4-1.4-1.7c-0.5-0.1-0.9-0.5-1.1-1.2
					c-0.2-0.6-0.1-1.1,0.4-1.5c0.3-0.2,1.1-0.3,2.5-0.3c0.1,0,2.3,0,6.7,0c3.6,0,6,0.1,7.3,0.2c2.5,0.1,4.6,1.2,6.3,3.2
					c1.5,1.8,2.1,3.9,1.8,6.3c-0.4,2.4-1.5,4.3-3.5,5.6c-0.1,0-0.7,0.4-1.9,1.1C106.7,103.7,108,105.2,109.1,107.4z M96,99
					c0,0.7,0.1,1.2,0.3,1.4c0.2,0.2,0.7,0.2,1.4,0.2c-0.1,0,0.1,0,0.7,0c2.2-0.1,3.6-1.1,4-3c0.4-1.4,0.4-2.7,0.1-3.9
					c-0.3-1.2-0.9-2.1-1.7-2.6c-0.5-0.3-0.9-0.5-1.2-0.5c-0.5-0.2-1.2-0.2-2.1-0.2c-0.9,0-1.5,0.2-1.6,0.4C96,95.7,96,98.5,96,99z"
					/>
				<path class="st4" d="M136.9,88.2c0.5,0.5,0.8,1.1,0.8,1.7c0,0.2,0,1-0.1,2.2c-0.1,1.3-0.6,2.1-1.7,2.3c-0.8,0.2-1.6-0.3-2.4-1.4
					c-0.1-0.2-0.3-0.4-0.4-0.7c-0.7-1.3-1.7-2.1-3.1-2.4c-1.4-0.2-2.6,0.2-3.8,1.2c-1.1,1-1.9,2.5-2.3,4.4c-0.9,4.1-0.9,8.1,0,12
					c0.2,0.9,0.5,1.7,1,2.6c0.6,1.1,1.4,1.9,2.5,2.3c1,0.4,2.2,0.4,3.4,0c1.2-0.4,2-1.4,2.6-3.2c0.2-0.8,0.6-1.3,1.3-1.6
					c0.6-0.3,1.3-0.2,2,0.2c0.7,0.4,1.1,1.1,1.2,2c0,0.3,0,1.1-0.1,2.5c-0.1,1.5-1.1,2.6-2.8,3.3c-1.4,0.6-3.2,0.8-5.5,0.8
					c-2.3,0-4.4-0.3-6.4-0.9c-3.5-1.1-5.8-3.4-6.8-7c-1.2-4.1-1.3-8.2-0.3-12.2c0.8-3,2.3-5.3,4.4-7c2.1-1.7,4.8-2.6,8-2.8
					c0,0,0.6,0,1.7-0.1C133.4,86.2,135.7,86.9,136.9,88.2z"/>
				<path class="st4" d="M169.9,115c-0.1,0.7-0.5,1.1-1.1,1.2c-0.3,0-1.1,0.1-2.5,0.1c-2.2,0-4.6,0-7,0c-1.1,0-1.8-0.1-2.1-0.2
					c-0.5-0.2-0.8-0.5-0.9-1.1c-0.1-0.4,0.2-0.8,0.7-1.2c0.8-0.6,1.3-1.1,1.4-1.3c0.1-0.3,0.1-1-0.2-2c-0.3-1.3-0.7-2.2-1.2-2.6
					c-0.5-0.4-1.5-0.6-2.8-0.6c-1.4,0-2.9,0.1-4.5,0.2c-0.8,0-1.2,0.4-1.4,1.2c-0.1,0.2-0.2,0.7-0.4,1.4c-0.2,0.6-0.3,1-0.4,1.4
					c-0.1,0.7-0.1,1.2,0.2,1.5c0.2,0.3,0.7,0.5,1.5,0.7c0,0,0.2,0.1,0.5,0.3c0.3,0.3,0.4,0.6,0.3,1c-0.1,0.5-0.4,0.8-0.9,0.9
					c-0.3,0.1-0.7,0.2-1.2,0.2c-3.3,0-5.8,0-7.4-0.1c-0.7,0-1.1-0.3-1.2-0.9c-0.1-0.6,0.1-1.1,0.7-1.3c1.1-0.5,2-1.7,2.7-3.4
					c0.5-1.3,2.1-5.2,4.6-11.6c0.2-0.4,0.8-2,1.9-4.8c0.8-1.9,1.4-3.5,1.9-4.8c0.9-2.2,2.5-3.2,4.8-3.2c2.1,0.1,3.5,1.2,4.2,3.4
					c3.9,12.5,6.1,19.6,6.6,21.3c0.3,0.9,0.6,1.5,0.9,1.9c0.4,0.5,1.1,0.9,1.9,0.9C169.9,113.9,170.1,114.3,169.9,115z M153.4,94.8
					c-1.6,4.4-2.5,6.8-2.8,7.4c-0.1,0.4-0.1,0.7,0.1,1c0.2,0.3,0.5,0.4,0.9,0.4c1,0.1,2,0.1,3,0c0.4,0,0.8-0.2,1-0.4
					c0.2-0.3,0.3-0.6,0.2-1.1c-0.2-0.6-0.9-3-2.2-7.4L153.4,94.8z"/>
				<path class="st4" d="M170.6,87.9c0-0.4,0.1-0.8,0.5-1c0.5-0.3,1.7-0.5,3.7-0.5c5.9,0,10.1,0.1,12.5,0.3c1.7,0.1,3.5,0.6,5.5,1.4
					c3.8,1.6,6.1,4.5,6.9,8.7c0.7,3.9,0.5,7.4-0.6,10.6c-1.8,5.2-5.3,8.1-10.6,8.7c-2.4,0.3-7.2,0.4-14.4,0.4c-1.3,0-2,0-2.2-0.1
					c-0.4-0.1-0.6-0.5-0.6-1.2c0-0.2,0.1-0.5,0.2-0.7c0.2-0.3,0.3-0.4,0.5-0.5c0.7-0.3,1.2-0.7,1.4-1.2c0.2-0.3,0.2-0.9,0.2-1.7
					c0-1.8,0-8,0-18.7c0-1.2-0.2-2-0.5-2.4c-0.2-0.3-0.8-0.6-1.8-1.1C170.8,88.6,170.6,88.3,170.6,87.9z M181.6,90.8
					c0,9.7,0,16.2,0,19.5c0,0.7,0.1,1.3,0.3,1.9c0.1,0.4,0.3,0.6,0.7,0.6c2.2,0.1,3.9-0.3,5.1-0.9c1.4-0.8,2.4-2.2,3.1-4.2
					c1.3-4.1,1.4-8.1,0.1-12.1c-0.7-2-1.8-3.5-3.5-4.5c-1.7-1-3.5-1.3-5.7-0.9C181.6,90.6,181.6,90.8,181.6,90.8z"/>
				<path class="st4" d="M212.9,113.8c0.5,0.2,0.7,0.6,0.6,1.3c-0.1,0.5-0.3,0.8-0.8,1c-0.4,0.2-0.9,0.3-1.5,0.3c0,0,0,0,0,0h-2.9
					c-1.8,0-3.4,0-4.7,0c-0.9,0-1.5-0.1-1.9-0.3c-0.4-0.2-0.7-0.5-0.7-0.9c0-0.9,0.2-1.5,0.7-1.7c0.7-0.3,1.2-0.7,1.4-1.3
					c0.1-0.3,0.2-1,0.2-1.9c0-7.6,0-13.9,0-18.9c0-0.7-0.2-1.2-0.6-1.5c-0.3-0.2-0.7-0.4-1.4-0.6c-0.4-0.1-0.6-0.5-0.6-1
					c0-0.5,0.1-0.9,0.5-1.2c0.3-0.2,1.1-0.3,2.4-0.3c1.8,0,4.3,0,7.6,0c0.8,0,1.3,0.1,1.5,0.2c0.4,0.2,0.6,0.6,0.7,1.2
					c0.1,0.6-0.1,1.1-0.6,1.3c-0.7,0.3-1.2,0.7-1.4,1.3c-0.1,0.4-0.2,1-0.2,1.9v17.7c0,0.8,0,1.5,0.1,1.8
					C211.5,112.9,212,113.5,212.9,113.8z"/>
				<path class="st4" d="M244.2,115c-0.1,0.7-0.5,1.1-1.1,1.2c-0.3,0-1.1,0.1-2.5,0.1c-2.2,0-4.6,0-7,0c-1.1,0-1.8-0.1-2.1-0.2
					c-0.5-0.2-0.8-0.5-0.9-1.1c-0.1-0.4,0.2-0.8,0.7-1.2c0.8-0.6,1.3-1.1,1.4-1.3c0.1-0.3,0.1-1-0.2-2c-0.3-1.3-0.7-2.2-1.2-2.6
					c-0.5-0.4-1.5-0.6-2.8-0.6c-1.4,0-2.9,0.1-4.5,0.2c-0.8,0-1.2,0.4-1.4,1.2c-0.1,0.2-0.2,0.7-0.4,1.4c-0.2,0.6-0.3,1-0.4,1.4
					c-0.1,0.7-0.1,1.2,0.2,1.5c0.2,0.3,0.7,0.5,1.5,0.7c0,0,0.2,0.1,0.5,0.3c0.3,0.3,0.4,0.6,0.3,1c-0.1,0.5-0.4,0.8-0.9,0.9
					c-0.3,0.1-0.7,0.2-1.2,0.2c-3.3,0-5.8,0-7.4-0.1c-0.7,0-1.1-0.3-1.2-0.9c-0.1-0.6,0.1-1.1,0.7-1.3c1.1-0.5,2-1.7,2.7-3.4
					c0.5-1.3,2.1-5.2,4.6-11.6c0.2-0.4,0.8-2,1.9-4.8c0.8-1.9,1.4-3.5,1.9-4.8c0.9-2.2,2.5-3.2,4.8-3.2c2.1,0.1,3.5,1.2,4.2,3.4
					c3.9,12.5,6.1,19.6,6.6,21.3c0.3,0.9,0.6,1.5,0.9,1.9c0.4,0.5,1.1,0.9,1.9,0.9C244.2,113.9,244.4,114.3,244.2,115z M227.7,94.8
					c-1.6,4.4-2.5,6.8-2.8,7.4c-0.1,0.4-0.1,0.7,0.1,1c0.2,0.3,0.5,0.4,0.9,0.4c1,0.1,2,0.1,3,0c0.4,0,0.8-0.2,1-0.4
					c0.2-0.3,0.3-0.6,0.2-1.1c-0.2-0.6-0.9-3-2.2-7.4L227.7,94.8z"/>
			</g>
		</g>
		<g>
			<g>
				<path class="st4" d="M129.5,148c0.4,0.1,0.5,0.4,0.4,0.9c0,0.3-0.2,0.5-0.5,0.7c-0.3,0.1-0.6,0.2-1,0.2c0,0,0,0,0,0h-2
					c-1.2,0-2.3,0-3.2,0c-0.6,0-1-0.1-1.3-0.2c-0.3-0.1-0.5-0.3-0.5-0.6c0-0.6,0.1-1,0.5-1.2c0.5-0.2,0.8-0.5,0.9-0.9
					c0.1-0.2,0.1-0.7,0.1-1.3c0-1.1,0-2.1,0-3c-0.1-1-0.7-1.5-1.7-1.5c-1.2,0-2.2,0-3,0c-1.1,0-1.6,0.5-1.7,1.5c0,0,0,0,0,0
					c0,0,0,0,0,0v2.9c0,0.6,0,1,0.1,1.3c0.1,0.6,0.5,1,1.1,1.3c0.3,0.1,0.5,0.4,0.4,0.9c0,0.3-0.2,0.5-0.5,0.7
					c-0.3,0.1-0.6,0.2-1,0.2c0,0,0,0,0,0h-2c-1.2,0-2.3,0-3.2,0c-0.6,0-1-0.1-1.3-0.2c-0.3-0.1-0.5-0.3-0.5-0.6c0-0.6,0.1-1,0.5-1.2
					c0.5-0.2,0.8-0.5,0.9-0.9c0.1-0.2,0.1-0.7,0.1-1.3c0-5.1,0-9.4,0-12.9c0-0.5-0.1-0.8-0.4-1.1c-0.2-0.1-0.5-0.3-0.9-0.4
					c-0.3-0.1-0.4-0.3-0.4-0.7c0-0.4,0.1-0.6,0.3-0.8c0.2-0.1,0.7-0.2,1.7-0.2c1.2,0,3,0,5.2,0c0.5,0,0.9,0,1.1,0.1
					c0.3,0.1,0.4,0.4,0.5,0.8c0.1,0.4-0.1,0.7-0.4,0.9c-0.5,0.2-0.8,0.5-1,0.9c-0.1,0.3-0.1,0.7-0.1,1.3v3.4c0,0,0,0,0,0l0,0v0.1
					c0,0.4,0.1,0.7,0.4,1c0.3,0.3,0.6,0.4,1,0.4c1.2,0,2.3,0,3.5,0c0.9,0,1.4-0.5,1.5-1.3c0-1.5,0-2.9,0-4.3c0-0.5-0.1-0.8-0.4-1.1
					c-0.2-0.1-0.5-0.3-0.9-0.4c-0.2-0.1-0.4-0.3-0.4-0.7c0-0.4,0.1-0.6,0.3-0.8c0.2-0.1,0.7-0.2,1.7-0.2c1.2,0,3,0,5.2,0
					c0.5,0,0.9,0,1.1,0.1c0.3,0.1,0.4,0.4,0.5,0.8c0.1,0.4-0.1,0.7-0.4,0.9c-0.5,0.2-0.8,0.5-1,0.9c-0.1,0.3-0.1,0.7-0.1,1.3
					c0,1.4,0,3.5,0,6v6c0,0.6,0,1,0.1,1.3c0.1,0.6,0.2,0.9,0.2,0.9S128.9,147.8,129.5,148z"/>
				<path class="st4" d="M132.5,130.2c0.1-0.3,0.3-0.6,0.6-0.7c0.2-0.1,0.7-0.1,1.6-0.1c1,0,2.7,0,5.1,0c0.6,0,1.1,0.1,1.4,0.2
					c0.2,0.1,0.3,0.3,0.3,0.6c0,0.3-0.1,0.6-0.4,0.8c-0.6,0.5-1,0.8-1.1,1c-0.1,0.2,0,0.7,0.2,1.4c0.3,0.9,1.1,4,2.7,9.3
					c0,0,0.1,0.2,0.2,0.5c0.3-0.8,0.4-1.2,0.5-1.2c1.4-3.7,2.3-6.4,2.9-7.9c0.2-0.4,0.3-0.8,0.3-1.1c0.1-0.6,0-1.1-0.2-1.4
					c-0.2-0.2-0.6-0.4-1.2-0.6c-0.3-0.2-0.4-0.4-0.4-0.8c0-0.3,0.2-0.6,0.5-0.7c0.2-0.1,0.7-0.1,1.5-0.2c0.8,0,2.3,0,4.4,0
					c0.4,0,0.6,0.1,0.8,0.2c0.3,0.2,0.4,0.4,0.4,0.6c0,0.1,0,0.3-0.1,0.5c-0.1,0.2-0.2,0.3-0.3,0.3c-0.6,0.3-1,0.6-1.4,1.2
					c-0.2,0.3-0.4,0.8-0.7,1.6c-0.4,1.1-1.4,3.4-2.7,6.9c-1.1,2.9-2,5.2-2.7,6.9c-0.3,0.7-0.7,1.2-1.2,1.6c-0.5,0.4-1.1,0.6-1.8,0.6
					c-1.3,0-2.2-0.8-2.7-2.4c-2.1-6.6-3.6-11.4-4.5-14.4c-0.2-0.7-0.4-1.1-0.5-1.3c-0.2-0.4-0.6-0.6-1-0.6
					C132.5,130.8,132.4,130.5,132.5,130.2z"/>
				<path class="st4" d="M170,148.8c-0.1,0.5-0.4,0.8-0.8,0.8c-0.2,0-0.7,0-1.7,0.1c-1.5,0-3.1,0-4.8,0c-0.8,0-1.2-0.1-1.4-0.1
					c-0.4-0.1-0.6-0.4-0.6-0.7c0-0.3,0.1-0.6,0.5-0.8c0.6-0.4,0.9-0.7,1-0.9c0.1-0.2,0-0.7-0.1-1.3c-0.2-0.9-0.5-1.5-0.8-1.8
					c-0.3-0.3-1-0.4-1.9-0.4s-2,0.1-3.1,0.1c-0.5,0-0.8,0.3-0.9,0.8c0,0.2-0.1,0.5-0.3,0.9c-0.1,0.4-0.2,0.7-0.2,0.9
					c-0.1,0.5,0,0.8,0.1,1.1c0.2,0.2,0.5,0.4,1,0.5c0,0,0.1,0.1,0.4,0.2c0.2,0.2,0.3,0.4,0.2,0.7c-0.1,0.3-0.3,0.5-0.6,0.6
					c-0.2,0.1-0.5,0.1-0.8,0.1c-2.2,0-3.9,0-5.1,0c-0.5,0-0.7-0.2-0.8-0.6c-0.1-0.4,0.1-0.7,0.5-0.9c0.8-0.4,1.4-1.1,1.8-2.3
					c0.4-0.9,1.4-3.5,3.1-7.9c0.1-0.3,0.6-1.4,1.3-3.3c0.5-1.3,0.9-2.4,1.3-3.3c0.6-1.5,1.7-2.2,3.3-2.2c1.4,0,2.4,0.8,2.9,2.3
					c2.6,8.5,4.1,13.4,4.5,14.5c0.2,0.6,0.4,1,0.6,1.3c0.3,0.4,0.7,0.6,1.3,0.6C170,148.1,170.1,148.4,170,148.8z M158.8,135
					c-1.1,3-1.7,4.7-1.9,5.1c-0.1,0.3-0.1,0.5,0,0.7c0.1,0.2,0.3,0.3,0.6,0.3c0.7,0.1,1.4,0.1,2.1,0c0.3,0,0.5-0.1,0.7-0.3
					c0.2-0.2,0.2-0.4,0.1-0.7c-0.1-0.4-0.6-2.1-1.5-5L158.8,135z"/>
				<path class="st4" d="M186.7,130.5c0.3,0.3,0.5,0.7,0.5,1.1c0,0.2,0,0.7-0.1,1.5c-0.1,0.9-0.4,1.4-1.1,1.6
					c-0.5,0.1-1.1-0.2-1.7-0.9c-0.1-0.1-0.2-0.3-0.3-0.5c-0.5-0.9-1.2-1.4-2.1-1.6s-1.8,0.1-2.6,0.8c-0.8,0.7-1.3,1.7-1.6,3
					c-0.6,2.8-0.6,5.5,0,8.2c0.1,0.6,0.3,1.2,0.7,1.8c0.4,0.8,1,1.3,1.7,1.6c0.7,0.3,1.5,0.3,2.3,0c0.8-0.3,1.4-1,1.8-2.2
					c0.2-0.5,0.4-0.9,0.9-1.1c0.4-0.2,0.9-0.2,1.4,0.1c0.5,0.3,0.8,0.7,0.8,1.3c0,0.2,0,0.8-0.1,1.7c-0.1,1-0.7,1.8-1.9,2.2
					c-0.9,0.4-2.2,0.6-3.7,0.6c-1.6,0-3-0.2-4.4-0.6c-2.4-0.7-3.9-2.3-4.7-4.8c-0.8-2.8-0.9-5.6-0.2-8.3c0.5-2,1.5-3.6,3-4.8
					c1.4-1.1,3.3-1.8,5.4-1.9c0,0,0.4,0,1.2-0.1C184.3,129.2,185.8,129.6,186.7,130.5z"/>
			</g>
		</g>
		<g>
			<g>
				<path class="st4" d="M109.6,64.7c0,0.2-0.1,0.3-0.1,0.5c-0.1,0.2-0.3,0.3-0.4,0.4c-0.2,0-0.4,0-0.6-0.1
					c-0.2-0.1-0.3-0.3-0.5-0.6c-0.2-0.4-0.5-0.7-1-0.8c-0.4-0.1-0.8-0.1-1.2,0.2c-0.3,0.2-0.4,0.4-0.5,0.8c0,0.4,0.1,0.7,0.4,0.9
					c0.1,0.1,0.5,0.4,1.2,0.8c1.2,0.8,1.8,1.1,1.7,1.1c0.4,0.3,0.7,0.7,0.9,1.2c0.2,0.5,0.2,1,0.2,1.5c-0.1,0.5-0.3,1-0.6,1.4
					c-0.3,0.5-0.8,0.8-1.4,1c-0.7,0.3-1.6,0.3-2.6,0.3c-0.7,0-1.1-0.1-1.5-0.2c-0.5-0.2-0.8-0.5-1-0.9c-0.1-0.3-0.1-0.6-0.1-1
					c0-0.4,0.2-0.7,0.5-0.8c0.3-0.1,0.6,0,0.8,0.4c0.1,0.1,0.2,0.3,0.2,0.4c0.2,0.4,0.6,0.7,1.1,0.8c0.5,0.1,1,0.1,1.3-0.2
					c0.3-0.2,0.4-0.5,0.4-0.9c0-0.4-0.1-0.7-0.4-1c-0.1-0.1-0.5-0.4-1.2-0.8c-1.2-0.8-1.8-1.2-1.8-1.2c-0.8-0.7-1.1-1.5-1-2.5
					c0.2-1,0.8-1.7,1.8-2.1c0.8-0.3,1.8-0.5,2.9-0.4c1.3,0.1,2,0.4,2.1,0.9C109.6,63.9,109.6,64.2,109.6,64.7z"/>
				<path class="st4" d="M116.4,72.3c0.2,0.1,0.3,0.2,0.2,0.4c0,0.2-0.1,0.3-0.3,0.3c-0.1,0.1-0.3,0.1-0.5,0.1c0,0,0,0,0,0h-1
					c-0.6,0-1.2,0-1.6,0c-0.3,0-0.5,0-0.7-0.1c-0.2-0.1-0.2-0.2-0.2-0.3c0-0.3,0.1-0.5,0.2-0.6c0.2-0.1,0.4-0.2,0.5-0.5
					c0-0.1,0.1-0.3,0.1-0.7c0-2.6,0-4.8,0-6.6c0-0.2-0.1-0.4-0.2-0.5c-0.1-0.1-0.2-0.1-0.5-0.2c-0.1,0-0.2-0.2-0.2-0.4
					s0.1-0.3,0.2-0.4c0.1-0.1,0.4-0.1,0.8-0.1c0.6,0,1.5,0,2.6,0c0.3,0,0.4,0,0.5,0.1c0.1,0.1,0.2,0.2,0.3,0.4c0,0.2,0,0.4-0.2,0.4
					c-0.3,0.1-0.4,0.2-0.5,0.5c0,0.1-0.1,0.4-0.1,0.7V71c0,0.3,0,0.5,0,0.6C115.9,72,116.1,72.2,116.4,72.3z"/>
				<path class="st4" d="M121.3,70.8c0,0,0,0.3,0,0.7c0,0.4,0.2,0.6,0.5,0.7c0.2,0,0.2,0.1,0.3,0.3c0,0.1,0,0.3-0.1,0.4
					c-0.1,0.1-0.3,0.2-0.6,0.2c-0.7,0-1.4,0-2.1,0c-0.3,0-0.5-0.1-0.5-0.4c0-0.2,0.1-0.4,0.4-0.5c0.2-0.1,0.4-0.3,0.4-0.6
					c0-0.3,0-0.5,0-0.4c0-2,0-4.1,0-6.3c0,0,0-0.1,0-0.3c0-0.1,0-0.2,0-0.3c0-0.4-0.2-0.6-0.5-0.7c-0.2,0-0.3-0.2-0.3-0.3
					c0-0.2,0-0.3,0.2-0.4c0.1-0.1,0.4-0.2,0.7-0.2c0.8,0,1.4,0,1.7,0c0.5,0,1,0.4,1.3,1c0,0,1,1.7,3,5.2l0.1,0.2v-0.9
					c0-0.3,0-0.9,0-1.8c0-0.8,0-1.4,0-1.8c0-0.3,0-0.5-0.1-0.6c-0.1-0.1-0.2-0.2-0.5-0.3c-0.1-0.1-0.2-0.2-0.2-0.3
					c0-0.1,0-0.2,0.1-0.3c0.1-0.2,0.3-0.2,0.7-0.3c0.9,0,1.5,0,1.9,0c0.1,0,0.2,0,0.3,0c0.2,0.1,0.4,0.2,0.4,0.4
					c0,0.2-0.1,0.4-0.3,0.5c-0.2,0.1-0.4,0.2-0.5,0.4c-0.1,0.1-0.1,0.3-0.1,0.6c0,1.1,0,3.5,0,7c0,0.5-0.2,0.9-0.5,1.2
					c-0.3,0.2-0.8,0.3-1.3,0.1c-0.5-0.2-0.8-0.4-1.1-0.9c-0.4-0.6-1.5-2.5-3.3-5.5c0,0-0.1-0.1-0.2-0.2
					C121.3,69.3,121.3,70.8,121.3,70.8z"/>
				<path class="st4" d="M138.7,63.4c0.2,0.2,0.3,0.4,0.3,0.6c0,0.1,0,0.3,0,0.8c0,0.5-0.2,0.7-0.6,0.8c-0.3,0.1-0.6-0.1-0.8-0.5
					c0-0.1-0.1-0.1-0.1-0.2c-0.2-0.5-0.6-0.7-1.1-0.8c-0.5-0.1-0.9,0.1-1.3,0.4c-0.4,0.4-0.7,0.9-0.8,1.5c-0.3,1.4-0.3,2.8,0,4.2
					c0.1,0.3,0.2,0.6,0.3,0.9c0.2,0.4,0.5,0.7,0.9,0.8c0.4,0.1,0.8,0.2,1.2,0c0.4-0.1,0.7-0.5,0.9-1.1c0.1-0.3,0.2-0.4,0.4-0.5
					c0.2-0.1,0.5-0.1,0.7,0.1c0.3,0.1,0.4,0.4,0.4,0.7c0,0.1,0,0.4,0,0.9c0,0.5-0.4,0.9-1,1.1c-0.5,0.2-1.1,0.3-1.9,0.3
					c-0.8,0-1.5-0.1-2.2-0.3c-1.2-0.4-2-1.2-2.4-2.4c-0.4-1.4-0.5-2.8-0.1-4.2c0.3-1,0.8-1.8,1.5-2.4c0.7-0.6,1.7-0.9,2.8-1
					c0,0,0.2,0,0.6,0C137.5,62.7,138.3,63,138.7,63.4z"/>
				<path class="st4" d="M148.7,62.8c0.3,0,0.6,0.1,0.8,0.3c0.2,0.2,0.3,0.5,0.3,0.8c0,0.4,0,0.8-0.1,1.2c-0.1,0.3-0.2,0.4-0.4,0.5
					c-0.2,0.1-0.4,0-0.6-0.2c-0.2-0.2-0.4-0.3-0.5-0.6c-0.3-0.5-0.6-0.7-1.1-0.7c-0.1,0-0.2,0-0.5,0c-0.2,0-0.3,0-0.5,0
					c-0.4,0-0.7,0.3-0.7,0.7c0,0.6,0,1.2,0,1.7c0,0.4,0.1,0.6,0.3,0.7c0.2,0.1,0.5,0.1,0.7,0c0.2-0.1,0.4-0.2,0.5-0.3
					c0.1-0.2,0.1-0.3,0.1-0.3c0-0.2,0.1-0.3,0.3-0.4c0.2-0.1,0.3-0.1,0.5,0c0.3,0.1,0.5,0.4,0.5,1c0,0.5,0,1.1,0,1.7
					c0,0.4-0.2,0.7-0.5,0.7c-0.3,0-0.6-0.1-0.8-0.5c-0.1-0.2-0.2-0.4-0.4-0.4c-0.1-0.1-0.3-0.1-0.6-0.1c-0.2,0-0.3,0.1-0.4,0.2
					c-0.1,0.1-0.2,0.3-0.2,0.5c0,0.5,0,1.2,0,2.1c0,0.4,0.2,0.7,0.7,0.7c0.2,0,0.4,0,0.7,0c0.3,0,0.6-0.1,0.8-0.2
					c0.2-0.1,0.3-0.3,0.5-0.6c0.1-0.3,0.2-0.6,0.3-0.7c0-0.2,0.2-0.3,0.4-0.3c0.3,0,0.6,0.2,0.8,0.4c0.2,0.2,0.3,0.5,0.3,0.8
					c0,0.3,0,0.6-0.1,0.9c0,0.3-0.2,0.6-0.4,0.8c-0.2,0.2-0.5,0.3-0.8,0.3c-1.5,0-3.5,0-5.8,0c-0.2,0-0.4,0-0.6-0.1
					c-0.2-0.1-0.3-0.2-0.3-0.3c0-0.1,0-0.2,0.1-0.3c0-0.1,0.1-0.2,0.2-0.2c0.3-0.1,0.4-0.3,0.5-0.5c0-0.1,0.1-0.4,0.1-0.7
					c0-2.9,0-5.1,0-6.4c0-0.3,0-0.5-0.1-0.7c-0.1-0.2-0.3-0.3-0.6-0.4c-0.1,0-0.2-0.1-0.2-0.2c0-0.1,0-0.2,0.1-0.3
					c0.1-0.2,0.5-0.3,1.1-0.3L148.7,62.8L148.7,62.8z"/>
				<path class="st4" d="M164.4,72.1c0.2,0.1,0.3,0.2,0.3,0.5c0,0.2-0.2,0.4-0.4,0.5c-0.2,0-0.4,0-0.7,0c-0.5,0-1,0-1.6,0
					c-1,0-2,0-3,0c-0.3,0-0.5,0-0.7,0c-0.2-0.1-0.3-0.3-0.4-0.5c0-0.3,0.1-0.4,0.3-0.5c0,0,0.3-0.1,1-0.2c0.3-0.1,0.5-0.1,0.6-0.2
					c0.1-0.1,0.2-0.3,0.2-0.6c0-1.2,0-3,0-5.4c0-0.2,0-0.3-0.1-0.4c-0.1-0.1-0.2,0-0.3,0.1c0,0-0.2,0.1-0.4,0.3
					c-0.2,0.1-0.3,0.2-0.4,0.3c-0.3,0.2-0.5,0.3-0.7,0.2c-0.3-0.1-0.4-0.3-0.3-0.8c0.1-0.4,0.3-0.7,0.6-0.9c0.8-0.5,1.6-1,2.7-1.5
					c0.2-0.1,0.5-0.2,0.8-0.3c0.4-0.1,0.6,0,0.8,0.4c0.1,0.2,0.1,0.4,0.1,0.7c0,0.8,0,3.2,0,7.1c0,0.3,0,0.5,0.1,0.6
					c0.1,0.1,0.3,0.2,0.7,0.2C164.1,72.1,164.4,72.1,164.4,72.1C164.4,72.1,164.4,72.1,164.4,72.1z"/>
				<path class="st4" d="M169.5,69.4c-0.7-0.1-1.2-0.3-1.7-0.8c-0.4-0.4-0.7-1-0.7-1.7c-0.1-1.1,0.2-2,0.8-2.7
					c0.6-0.7,1.5-1.1,2.6-1.2c0.9-0.1,1.6,0,2.2,0.3c1.1,0.4,1.7,1.3,1.9,2.6c0.3,1.5,0.2,2.8-0.3,4.1c-0.7,1.7-2,2.7-3.9,3.1
					c-0.1,0-0.3,0.1-0.6,0.1c-0.2,0-0.4,0-0.6-0.2c-0.2-0.1-0.3-0.3-0.3-0.6c0-0.2,0.1-0.3,0.2-0.4c0.1-0.1,0.2-0.1,0.4-0.2
					c1.4-0.2,2.3-1.1,2.6-2.6c0,0,0-0.1,0.1-0.4C171.3,69.3,170.4,69.5,169.5,69.4z M169.7,67.3c0.1,0.4,0.4,0.6,0.8,0.7
					c0.5,0.1,1-0.1,1.4-0.4c0.2-0.2,0.3-0.3,0.3-0.5c0.1-0.8,0-1.6-0.3-2.3c-0.2-0.5-0.6-0.8-1.1-0.7c-0.5,0-0.9,0.3-1,0.8
					c0,0.1-0.1,0.5-0.2,1.2C169.7,66.9,169.7,67.3,169.7,67.3z"/>
				<path class="st4" d="M178.9,65.3c-0.2,0-0.4,0.1-0.5,0.2c-0.1,0.1-0.2,0.3-0.2,0.6c0,0.2-0.1,0.3-0.2,0.3c-0.1,0-0.2,0-0.3,0
					c-0.2-0.1-0.4-0.2-0.5-0.4c-0.1-0.2-0.2-0.4-0.2-0.6c0-0.4,0-0.8,0.1-1.3c0-0.3,0.1-0.5,0.3-0.7c0.2-0.2,0.4-0.3,0.7-0.3
					c0.5,0,2.3,0,5.5,0c0,0,0,0,0.1,0c0.4,0,0.6,0.1,0.7,0.3s0,0.4-0.1,0.8c-0.2,0.6-1.1,2.7-2.7,6.3c-0.5,1-0.7,1.7-0.8,1.8
					c-0.3,0.8-0.9,1.1-1.7,0.9c-0.5-0.1-0.6-0.3-0.4-0.8c0.3-0.7,0.8-1.7,1.4-3c-0.1,0.2,0.5-1.1,1.9-3.8c0,0,0-0.1,0.1-0.3
					C180.2,65.3,179.1,65.3,178.9,65.3z"/>
				<path class="st4" d="M194,69.4c0,0.2,0,0.3,0,0.6c0,0.2-0.1,0.3-0.2,0.3c-0.1,0.1-0.3,0.1-0.6,0.1c-0.3,0-0.6,0-1.1,0v0.5
					c0,0.1,0,0.3,0,0.5c0,0.5,0.2,0.8,0.6,0.9c0.1,0,0.2,0.1,0.2,0.3c0,0.2,0,0.3-0.1,0.3c-0.1,0.1-0.4,0.2-0.7,0.2
					c-0.4,0-1.3,0-2.7,0c-0.2,0-0.3,0-0.4-0.1c-0.1-0.1-0.2-0.2-0.2-0.3c0-0.1,0-0.2,0.1-0.3c0-0.1,0.1-0.2,0.2-0.2
					c0.4-0.1,0.6-0.6,0.6-1.4c0-0.2,0-0.3-0.1-0.4c-0.1-0.1-0.2-0.2-0.4-0.2c-1.5,0-2.3,0-2.3,0c-0.5,0-0.8-0.1-1-0.1
					c-0.1,0-0.2-0.2-0.3-0.3c0-0.2,0-0.3,0-0.5c0.1-0.2,0.3-0.5,0.6-0.9c0.5-0.7,1.6-2.3,3.4-4.7c0.4-0.6,1-0.9,1.6-0.9
					c0.3,0,0.5,0.1,0.7,0.2c0.2,0.2,0.3,0.4,0.3,0.6c0,0.1,0,0.3,0,0.5c0,0.6,0,1.3,0,2.3c0,1.2,0,1.9,0,2.3v0.1c0.8,0,1.2,0,1.3,0
					c0,0,0,0,0,0c0.3,0,0.5,0.1,0.6,0.3C194,69.2,194,69.3,194,69.4L194,69.4c0-0.1,0-0.1,0-0.1C194,69.3,194,69.4,194,69.4
					L194,69.4z M189.4,68.4c0-0.2,0-1,0-2.4c-0.4,0.5-1,1.5-2,3c0.9,0,1.3,0,1.4,0c0.2,0,0.3-0.1,0.4-0.2
					C189.3,68.7,189.4,68.6,189.4,68.4z"/>
			</g>
		</g>
	</g>
	<polygon class="st2" points="100.8,198.8 101.1,199.2 101.4,199.5 101.8,199.7 102.2,199.9 102.6,199.9 103.1,199.9 103.5,199.8 
		103.9,199.7 104.3,199.5 104.6,199.2 104.9,198.9 105.2,198.6 105.4,198.2 105.5,197.8 105.6,197.4 105.7,196.9 105.7,196.5 
		105.6,196 105.3,195.6 105,195.3 104.6,195.1 104.1,194.9 103.6,194.9 103.2,194.9 102.8,195 102.4,195.2 102.1,195.4 101.7,195.6 
		101.4,195.9 101.1,196.2 100.9,196.6 100.7,197 100.6,197.4 100.6,197.9 100.7,198.3 	"/>
	<polygon class="st1" points="227.7,198.8 227.9,199.2 228.3,199.5 228.7,199.7 229.1,199.9 229.5,199.9 230,199.9 230.4,199.8 
		230.8,199.7 231.2,199.5 231.5,199.2 231.8,198.9 232.1,198.6 232.3,198.2 232.4,197.8 232.5,197.4 232.6,196.9 232.6,196.5 
		232.5,196 232.2,195.6 231.8,195.3 231.4,195.1 231,194.9 230.5,194.9 230.1,194.9 229.7,195 229.3,195.2 228.9,195.4 228.6,195.6 
		228.3,195.9 228,196.2 227.7,196.6 227.6,197 227.5,197.4 227.5,197.9 227.5,198.3 	"/>
	<g>
		<path class="st2" d="M124.3,221.7l-0.5,0l-0.5-0.1l-0.5-0.1l-0.5-0.2l-0.4-0.2l-0.4-0.3l-0.4-0.4l-0.3-0.4l-0.2-0.4l-0.2-0.5
			l-0.1-0.5l0.1-0.5l0.1-0.5l0.2-0.5l0.2-0.4l0.2-0.4l0.3-0.4l0.3-0.4l0.4-0.3l0.4-0.3l0.4-0.2l0.5-0.2l0.4-0.2l0.5-0.2l0.5-0.1
			l0.5-0.1l0.5-0.1l0.3-0.1l0.4-0.1l0.4-0.2l0.1-0.1l0.3-0.4l0.1-0.2l0.2-0.6l0.1-0.2l0-0.3l0,0.1l-0.2,0.3l-0.4,0.3l-0.4,0.3
			l-0.4,0.3l-0.4,0.2l-0.5,0.2l-0.5,0.1l-0.4,0.1l-0.5,0h-0.5l-0.5-0.1l-0.5-0.1l-0.5-0.2l-0.5-0.2l-0.4-0.3l-0.3-0.4l-0.5-0.9
			l-0.2-0.4l0,0l-0.4,0.4l-0.4,0.3l-0.4,0.3l-0.4,0.3l-0.4,0.3l-0.4,0.2l-0.5,0.2l-0.5,0.2l-0.5,0.1l-0.5,0.1l-0.5,0.1l-0.5,0
			l-0.5,0l-0.5-0.1l-0.5-0.2l-0.4-0.3l-0.3-0.4l-0.3-0.5l-0.2-0.5l0-0.5l0-0.5l0-0.5l0.1-0.5l0.1-0.4l0.1-0.5l0.1-0.4l0.1-0.5
			l0.3-0.9l0.1-0.5l0.1-0.4l0.1-0.6l0.1-0.3l0.1-0.5l0-0.3l-0.2-0.2l-0.4,0l-0.4,0.1l-0.3,0.1l-0.2,0.1l-0.3,0.2l-0.2,0.1l-0.2,0.2
			l-0.2,0.3l0,0.1l-0.1,0.4l-0.1,0.5l-0.1,0.4l-0.1,0.5l-0.1,0.4l-0.2,0.9l-0.1,0.4l-0.1,0.5l-0.1,0.5l-0.1,0.4l-0.1,0.5l-0.2,0.9
			l-0.1,0.4l-0.2,1l-0.3,0.3l-0.6,0.2l-0.4,0.1l-0.5,0.1l-0.4,0h-0.9l-0.4,0l-0.5-0.1l-0.4-0.2l-0.5-0.2l-0.1-0.5l0.1-0.5l0.1-0.4
			l-0.1,0.1l-0.4,0.3l-0.4,0.3l-0.4,0.3l-0.4,0.3l-0.9,0.3l-0.5,0.1l-0.5,0.1l-0.5,0h-0.5l-0.5-0.1l-0.4-0.1l-0.5-0.2l-0.4-0.3
			l-0.4-0.3l-0.3-0.4l-0.2-0.5l-0.1-0.3l-0.5,0.5l-0.3,0.3l-0.3,0.3l-0.4,0.3l-0.4,0.2l-0.4,0.2l-0.9,0.2l-0.5,0.1h-1.4l-0.5-0.1
			l-0.4-0.1l-0.5-0.1l-0.5-0.2l-0.4-0.3l-0.4-0.4l-0.3-0.4l-0.4-0.9l-0.2-0.5l0-0.2l-0.7,0.9l-0.3,0.3l-0.3,0.3l-1.5,1.1l-0.4,0.2
			l-0.8,0.3l-0.5,0.1l-0.5,0.1h-0.5l-0.5-0.1l-0.4-0.2l-0.5-0.2l-0.4-0.4l-0.2-0.4l-0.1-0.5l-0.1-0.5v-0.5l-0.3,0.4l-0.3,0.4
			l-0.3,0.3l-0.3,0.3l-0.4,0.3l-0.3,0.3l-0.4,0.2l-0.4,0.2l-0.5,0.1l-0.4,0.1l-0.4,0.1l-0.5,0h-0.5l-0.5,0l-0.5-0.2l-0.5-0.2
			l-0.4-0.2l-0.4-0.3l-0.3-0.4l-0.3-0.5l-0.2-0.4l-0.2-0.5l0-0.4l-0.7,0.8l-0.4,0.4l-0.4,0.3l-0.4,0.3l-0.4,0.3l-0.9,0.5l-0.9,0.3
			l-0.5,0.1l-0.5,0.1l-1,0.1l-0.5,0h-0.5l-0.5,0l-0.4-0.1l-0.5-0.1l-0.5-0.1l-0.5-0.2l-0.4-0.2l-0.4-0.2l-0.4-0.2l-0.4-0.3l-0.3-0.3
			l-0.3-0.3l-0.3-0.4l-0.2-0.5l-0.1-0.4l-0.2-0.5l-0.1-0.4l-0.1-0.5V208l-0.1-0.4l0-0.1l-0.1-0.1l-0.3-0.1l-0.2,0l-0.1,0l-0.9-0.2
			h-0.2l-0.3,0l-0.2,0l0,0l-0.1,0.1l0,0.1l-0.1,0.2l-0.1,0.3l-0.1,0.3l0,0.1l-0.1,0.5l-0.1,0.5l-0.1,0.5l-0.1,0.5l-0.1,0.4l-0.2,1
			l-0.3,1L55,213l-0.5,0.3l-0.4,0.1l-0.5,0.1l-0.5,0.1h-0.4l-0.5,0l-0.4-0.1l-0.5-0.1l-0.4-0.1l-0.5-0.4l-0.1-0.5l0.2-0.5l0.2-0.5
			l0.1-0.5l0.1-0.5l0.1-0.5l0.3-1l0.1-0.5l0.2-1l0-0.1l0-0.1l0-0.3l-0.1-0.1l-0.1-0.1l-0.4-0.1l-0.1,0l-0.3,0h-0.2l-0.3,0l-0.4,0.1
			l-0.1,0l-0.2,0.1l-0.1,0.1l-0.2,0.3l-0.1,0.2l-0.3,0.9l-0.2,0.4l-0.2,0.4l-0.2,0.4l-0.2,0.4l-0.2,0.4l-0.2,0.4l-0.3,0.4l-0.3,0.4
			l-0.4,0.3l-0.4,0.3l-0.4,0.3l-0.4,0.2l-0.4,0.2l-0.5,0.2l-0.4,0.1l-0.5,0.1l-0.4,0.1l-0.5,0l-0.5,0.1l-0.5,0h-0.5l-0.4,0l-0.5-0.1
			l-0.4-0.1l-0.5-0.1l-0.4-0.1l-0.4-0.1l-0.4-0.2l-0.4-0.3l-0.7-0.7l-0.3-0.4l-0.2-0.4l-0.2-0.4l-0.1-0.5l0-0.5l0-0.5l0.1-0.5
			l0.1-0.4l0.2-0.4l0.1-0.4l0.2-0.4l0.3-0.4l0.3-0.4l0.3-0.4l0.4-0.3l0.4-0.3l0.4-0.2l0.4-0.3l0.4-0.3l1.3-0.4l0.5-0.1l0.4-0.1
			l0.5-0.1l0.9-0.1l0.9-0.1l0.4-0.1l0.3-0.1l0.1-0.1L45,203l0.1-0.3l0.1-0.2l0.2-0.5l0.2-0.4l0.3-0.9l0.1-0.5l0.1-0.4l0.2-0.4
			l0.1-0.5l0.1-0.4l0.3-0.9l0-0.1l0.1-0.2l0.1-0.1l0-0.1l-0.1,0l-0.1,0l-0.2,0.1l-0.2,0.1l-0.3,0.1l-0.2,0.1l-0.5,0.1h-0.5l-0.4,0
			l-0.5-0.1l-0.5,0l-0.9-0.1l-0.4,0l-0.4,0l-0.4,0.1l-0.4,0.2l-0.4,0.2l-0.3,0.3l-0.2,0.3l-0.1,0.4l0.1,0.3l0.3,0.2l0.4,0.1l0.3-0.1
			l0.5-0.2l0.4-0.1l0.5,0.2l0.3,0.3l0.3,0.3l0.2,0.5l0,0.4l-0.3,0.4l-0.4,0.3l-0.4,0.2l-0.4,0.2l-0.4,0.2l-0.9,0.2l-0.5,0.1h-0.5
			l-0.9-0.1l-0.4-0.1l-0.4-0.2l-0.4-0.2l-0.4-0.2l-0.4-0.2l-0.4-0.3l-0.3-0.4l-0.2-0.4l-0.2-0.4l-0.2-0.5l-0.1-0.5l0-0.5v-0.5
			l0.1-0.5l0.2-0.4l0.2-0.4l0.2-0.4l0.2-0.4l0.3-0.4l0.4-0.3l0.8-0.5l0.4-0.2l0.5-0.2l0.5-0.2l0.5-0.1l0.5,0l0.5-0.1l0.5,0l1,0.1
			l1,0.1l0.5,0.1l0.5,0.1l0.9,0.1l0.5,0l0.4,0l0.5-0.1l0.4-0.1l0.4-0.2l0.8-0.6l0.4-0.3l0.4-0.3l0.6-0.2l0.5-0.1l0.5-0.1l1,0.1
			l0.6,0.1l0.5,0.2l0.6,0.3l0.2,0.4l-0.4,1l-0.2,0.4l-0.5,1.4l-0.1,0.4l-0.2,0.5l-0.1,0.5l-0.4,1.4l-0.3,0.9l-0.1,0.4l-0.1,0.5
			l-0.1,0.4l-0.1,0.5l-0.2,0.4l-0.2,0.4l-0.1,0.3l0,0.3l0,0.1l0.1,0.1l0.1,0.1l0.3,0.1l0.2,0H51l0.1,0l0.2,0l0.5,0l0.2,0h0.2l0.3,0
			h0.1l0,0l0.1-0.1l0.2-0.7l0.1-0.5l0.2-0.5l0.1-0.5l0.9-2.8l0.1-0.5l0.2-0.5l0.2-0.4l0.1-0.5l0.1-0.5l0.2-0.5l0.2-0.4l0.5-1.4
			L56,194l0.3-0.3l0.7-0.2h0.5l0.5,0h0.5l0.5,0.1l0.5,0.1l0.5,0.1l0.6,0.3l0.2,0.5l-0.2,0.5l-0.2,0.4l-0.1,0.4l-0.3,0.9l-0.2,0.4
			l-0.4,1.3l-0.2,0.9l-0.4,1.3l-0.1,0.4l-0.4,1.3l-0.1,0.4l-0.1,0.5l-0.2,0.9l-0.1,0.2l0,0.2l0,0.2l0.2,0.1l0.4,0.1l0.4,0.1h0.1
			l0.3,0.1l0.3,0l0.2-0.1l0.1-0.1l0.1-0.1l0.2-0.1l0.1-0.1l0-0.1l0.2-0.4l0.3-0.4l0.3-0.4l0.3-0.4l0.3-0.3l0.4-0.3l0.3-0.3l0.4-0.3
			l0.8-0.4l0.4-0.2l0.4-0.2l0.4-0.1l0.5-0.1l0.5-0.1l0.5,0l0.5-0.1h1l0.5,0l0.5,0.1l0.4,0.2l0.5,0.2l0.5,0.2l0.4,0.3l0.3,0.4
			l0.3,0.4l0.2,0.4l0.1,0.5l0.1,0.5v0.5l-0.1,0.5l-0.1,0.5l-0.2,0.5l-0.2,0.4l-0.3,0.4l-0.4,0.4l-0.4,0.3l-0.4,0.3l-0.5,0.2
			l-0.4,0.2l-0.5,0.2l-0.5,0.1l-0.5,0.1l-1,0.2h-0.9l-0.1,0h-0.2l-0.3,0l-0.1,0l-0.1,0.1l0,0.1l0,0.2l0.1,0.1l0.1,0.2l0.1,0.2
			L65,210l0.3,0.2l0.4,0.2l0.4,0.1l0.4,0.1l0.4,0.1h0.4l0.4-0.1l0.4-0.1l1.2-0.5l0.4-0.2l0.4-0.3l0.3-0.3l0.3-0.3l0.3-0.3l0.5-0.7
			l0.3-0.4l0.3-0.4l0.4-0.2l0,0l0.2-0.4l0.6-1.2l0.3-0.4l0.8-1.1l0.3-0.3l0.3-0.3l0.4-0.3l1.1-0.8l1.3-0.6l1.3-0.6l0.5-0.1l1.4-0.2
			h0.5l0.5,0.1h0.5l1,0.1l0.5,0.1l0.5,0.1l0.5,0.2l0.5,0.2l0.9,0.4l0.4,0.2l0.6,0.4l0.2,0.2l0.1,0.2v0.3l-0.2,0.4l-0.1,0.2L87,204
			l-0.1,0.2l-0.2,0.3l-0.2,0.2l-0.4,0.3L86,205l-0.3,0l-0.2-0.1l-0.2-0.2l-0.2-0.1l-0.8-0.4l-0.8-0.3l-0.4-0.1l-0.4-0.1l-0.4,0h-0.4
			l-0.4,0l-0.5,0.1l-0.4,0.1l-0.4,0.1l-0.4,0.2l-0.4,0.3l-0.7,0.7l-0.3,0.3l-0.3,0.4l-0.5,0.8l-0.2,0.4l-0.2,0.9l-0.1,0.4l-0.1,0.4
			l-0.1,0.4v0.4l0.1,0.4l0.1,0.2l0.1,0.1l0.2,0.2l0.1,0h0.2l0.1,0l0.3-0.2l0.3-0.4l0.3-0.3l0.3-0.4l0.2-0.4l0.2-0.4l0.4-0.8l0.4-0.8
			l0.7-1.7l0.1-0.2l0.2-0.1l0.2-0.1l0.2,0l0.1,0l0.4,0h0.2l0.5,0l0.4,0.1l1.1,0.3l0.6,0.2l0.3,0.2l0.2,0.2v0.2l-0.3,1l-0.3,0.9
			l-0.3,1.4l-0.1,0.4v0.5l0.1,0.4l0,0.1l0.1,0.2l0.1,0.1h0.1l0.2,0l0.2-0.1l0.1-0.1l0.3-0.2l0.4-0.3l0.1-0.1l0.2-0.2l0.3-0.4
			l0.6-0.8l0.3-0.4l0.4-0.7l0.1-0.2L88,207l0.1-0.5l0.1-0.5l0.1-0.5l0.1-0.5l0.1-0.5l0.2-0.9l0-0.2l0.1-0.3v-0.3l-0.1,0l-0.1,0
			l-0.2,0h-0.2l-0.2,0l-0.3-0.3l-0.1-0.5v-0.4l0.1-0.5l0.1-0.5l0.2-0.4l0.3-0.4l0.4-0.1l0.2,0h0.6l0.1,0l0.1,0l0.2-0.2l0.1-0.1
			l0.1-0.3l0.1-0.4l0.1-0.5l0.1-0.4l0.1-0.5l0.2-0.5l0.1-0.4l0.1-0.5l0.2-0.4l0.2-0.5l0.2-0.4l0.2-0.5l0.2-0.4l0.4-0.3l0.7-0.2
			l0.5-0.1l0.5,0l1.1,0.1l0.6,0.1l0.5,0.1l0.7,0.3l0.2,0.5l-0.3,0.9l-0.2,0.4l-0.1,0.4l-0.2,0.4l-0.2,0.4l-0.3,0.9l-0.2,0.4
			l-0.2,0.4l-0.3,0.8l-0.1,0.4l0,0.1l0.1,0.1l0.1,0l0.3,0h0.3l0.1,0h0.5l0.4-0.1l0.5,0l0.3,0.1l0.2,0.3l0.1,0.7l-0.1,0.6l-0.2,0.6
			l-0.1,0.3l-0.2,0.3l-0.4,0.4h-0.9l-0.4,0.1l-0.4,0.1h-1.1l-0.3,0l-0.2,0.1l-0.1,0.2l-0.1,0.3l-0.1,0.3l-0.1,0.5l-0.1,0.4l-0.3,1.4
			l-0.1,0.5l-0.1,0.5l-0.1,0.4l-0.1,0.4l-0.1,0.4l0,0.5v0.4l0.1,0.5l0.2,0.3l0.3,0.2l0.4,0.1h0.4l0.5-0.1l0.4-0.1l0.5-0.2l0.4-0.3
			l0.7-0.7l0.3-0.4l0.3-0.4l0.3-0.4l0.3-0.4l0.1-0.2l0.1-0.2l0.2-0.6l0.2-0.9l0.2-0.4l0.1-0.5l0.2-0.4l0.2-0.5l0.1-0.4l0.2-0.5
			l0.2-0.9l0.2-0.4l0.2-0.5l0.4-0.3l0.7-0.2l0.5-0.1l1.1-0.1h0.5l0.6,0.1l0.5,0.1l0.7,0.3l0.2,0.5l-0.2,0.5l-0.2,0.5l-0.5,1.3
			l-0.2,0.4l-0.1,0.4l-0.1,0.5l-0.1,0.4l-0.2,0.4l-0.1,0.4l-0.1,0.5l-0.3,0.9l-0.2,0.5l-0.1,0.4l-0.1,0.4l-0.1,0.4l-0.1,0.4v0.3
			l0.1,0.3l0.3,0.1l0.3-0.1l0.4-0.3l0.3-0.3l0.3-0.4l0.3-0.3l0.3-0.4l0.3-0.4l0.6-0.8l0.3-0.3l0.4-1.2l0.1-0.4l0.1-0.5l0.2-0.4
			l0.2-0.4l0.2-0.4l0.3-0.8l0.1-0.5l0.4-1.3l0.3-0.3l0.4-0.1l0.3-0.1l1-0.1l0.5-0.1l0.5,0l0.6,0.1l0.5,0.1l0.7,0.3l0.2,0.4l0,0.1
			l0.1,0l0.2-0.1l0.5-0.2l0.5-0.2l1-0.3l0.5-0.1l0.5-0.1l0.5,0l0.5,0.1l0.5,0.2l0.4,0.2l0.4,0.3l0.3,0.4l0.3,0.4l0.2,0.5v0.5
			l-0.1,0.5l-0.1,0.5l-0.1,0.5l-0.1,0.4l-0.1,0.4l-0.1,0.4l-0.1,0.4l-0.1,0.4l-0.1,0.4l-0.1,0.4l-0.1,0.4l-0.2,0.8l-0.1,0.5v0.5
			l0.1,0.5l0.1,0.1l0.3-0.1l0.4-0.3l0.4-0.3l0.4-0.3l0.3-0.4l0.3-0.4l0.3-0.4l0.3-0.4l0.3-0.4l0.1-0.2l0-0.1l0.2-0.5l0.3-0.9
			l0.2-0.4l0.2-0.4l0.3-0.4l0.3-0.4l0.3-0.4l0.3-0.4l0.3-0.3l0.3-0.3l0.7-0.6l1.1-0.7l0.4-0.2l0.4-0.2l0.4-0.2l0.4-0.2l0.4-0.1
			l0.4-0.1l0.9-0.1l1-0.1h0.5l0.5,0l0.5,0.1l0.5,0.1l0.5,0.1l0.5,0.1l0.5,0.1l0.5,0.2l0.9,0.4l0.4,0.3l0.2,0.1l0.2,0.2l0.2,0.2
			l0.2,0.1l0.1,0.3v0.3l-0.1,0.3l-0.1,0.3l-0.5,0.7l-0.2,0.2l-0.3,0.3l-0.3,0.1l-0.2,0l-0.3-0.1l-0.2-0.2l-0.2-0.1l-0.1-0.1
			l-0.3-0.2l-0.4-0.2l-0.5-0.2l-0.4-0.1l-0.4-0.1l-0.5-0.1l-0.4-0.1l-0.4,0l-0.4,0l-0.4,0.1l-0.4,0.1l-0.4,0.2l-0.4,0.2l-0.4,0.3
			l-0.4,0.3l-0.3,0.3l-0.6,0.7l-0.3,0.4l-0.2,0.4l-0.3,0.8l-0.1,0.4l-0.1,0.5l-0.1,0.4l-0.1,0.4v0.4l0.1,0.5l0.2,0.2l0.3,0.1
			l0.5-0.2l0.3-0.3l0.4-0.4l0.3-0.4l0.3-0.4l0.2-0.4l0.3-0.5l0.2-0.5l0.2-0.5l0.5-1.5l0.1-0.2l0.1-0.2l0.1-0.2l0.2-0.2l0.2-0.1
			l0.3-0.1l0.3-0.1h0.5l0.2,0l0.3,0l0.5,0.1l0.7,0.2l0.3,0.1l0.2,0.1l0.2,0.1l0.3,0.2l0.2,0.2l0.2,0.2v0.3l-0.2,0.6l-0.1,0.2
			l-0.2,0.9l-0.1,0.4l-0.2,0.8l-0.1,0.4l-0.1,0.4l-0.1,0.4l-0.1,0.4l-0.1,0.4l-0.1,0.2l0,0.2l-0.1,0.3l-0.1,0.3v0.1l0,0.1l0.1,0
			l0.1,0l0.1-0.1l0.2-0.1l0.2-0.2l0.2-0.1l0.2-0.1l0.1-0.1l0.2-0.2l0.3-0.3l0.3-0.3l0.3-0.4l0.5-0.7l0.3-0.4l0.2-0.4l0.2-0.4
			l0.3-0.4l0.2-0.4l0.1-0.2l0.1-0.1l0.1-0.2l0.2-0.1h0.3l0.3,0.1l0.2,0.1l0.3,0.2l0.1,0.1l0.2,0.3l-0.1,0.2l-0.1,0.3l-0.1,0.2
			l-0.3,0.4l-0.2,0.4l-0.3,0.4l-0.2,0.4l-0.3,0.4l-0.3,0.4l-0.3,0.4l-0.3,0.4l-0.6,0.8l-0.4,0.4l-0.4,0.3l-0.4,0.3l-0.4,0.3
			l-0.4,0.3l-0.2,0.1l-0.5,0.3l-0.2,0.1l-0.2,0.1l-0.3,0.2l-0.2,0.2l-0.1,0.1l-0.1,0.2l-0.2,0.4l0,0.1l-0.1,0.2l-0.1,0.3l-0.1,0.5
			l-0.2,0.5l-0.1,0.5l-0.4,0.9l-0.5,0.9l-0.3,0.4l-0.3,0.4l-0.4,0.3l-0.4,0.3l-0.4,0.3l-0.5,0.2l-0.5,0.2l-0.5,0.1l-0.5,0.1
			l-0.5,0.1l-0.5,0.1L124.3,221.7L124.3,221.7z M124.9,218.6l0.2,0l0.3-0.1l0,0l0.4-0.3l0.2-0.3l0.2-0.4l0.2-0.8l0-0.2l0,0l0-0.1
			l0,0h-0.1l-0.1,0l-0.1,0l-0.1,0.1l-0.2,0.1l-0.2,0.2l-0.4,0.3l-0.3,0.2l-0.3,0.3l-0.1,0.2l-0.1,0.2l0,0.1l0,0.2l0,0.2l0.1,0.2
			l0.1,0.1l0.1,0.1L124.9,218.6z M41.7,210.5l0.4,0l0.3-0.2l0.3-0.3l0.2-0.4l0.2-0.4l0.1-0.2l0.1-0.2l0.2-0.4l0.2-0.4l0.1-0.4
			l0.2-0.4l-0.1-0.2l-0.1-0.1l-0.1-0.1l0,0l-0.2,0l-0.3,0.1l-0.1,0l-0.4,0.1l-0.1,0.1l0,0l-0.2,0.1l-0.3,0.2l-0.3,0.3l-0.3,0.3
			l-0.2,0.3l-0.2,0.4l-0.1,0.4l-0.1,0.4l0.1,0.4l0.1,0.3l0.3,0.2L41.7,210.5z M64.9,206.4l0.3,0l0.4-0.1l0.2-0.1l0.1-0.1l0.3-0.2
			l0.3-0.3l0.3-0.3L67,205l0.2-0.4l0.1-0.4l-0.1-0.3l-0.3-0.2l-0.3,0l-0.4,0.2l-0.3,0.2l-0.3,0.3l-0.3,0.3l-0.1,0.2L65,205l-0.2,0.4
			l-0.1,0.4l-0.1,0.3v0.1l0,0.1L64.9,206.4z"/>
		<path class="st4" d="M50.5,193l1,0.1l0.5,0.1l0.5,0.1l0.6,0.3l0.2,0.3l-0.3,0.9l-0.2,0.4l-0.5,1.4L52,197l-0.2,0.5l-0.1,0.5
			l-0.4,1.4l-0.3,0.9l-0.1,0.4l-0.1,0.5l-0.1,0.4l-0.1,0.5l-0.2,0.4l-0.2,0.5l-0.1,0.3l0,0.3l0.1,0.1l0.1,0.1l0.1,0.1l0.3,0.1l0.2,0
			H51l0.1,0l0.2,0l0.5,0l0.2,0h0.2l0.3,0h0.2l0.1-0.1l0.1-0.1l0.2-0.7l0.1-0.5l0.2-0.5l0.1-0.5l0.9-2.8l0.1-0.5l0.2-0.5l0.2-0.4
			l0.1-0.5l0.1-0.5l0.2-0.5l0.2-0.4l0.5-1.4l0.2-0.4l0.3-0.2l0.6-0.1h0.5l0.5,0h0.5l0.5,0.1l0.5,0.1l0.5,0.1l0.5,0.3l0.1,0.3
			l-0.2,0.4l-0.2,0.4l-0.1,0.4l-0.3,0.9l-0.2,0.4l-0.4,1.3l-0.2,0.9l-0.4,1.3l-0.1,0.4l-0.4,1.3l-0.1,0.4l-0.1,0.5l-0.2,0.9
			l-0.1,0.2l0,0.2l0.1,0.3l0.3,0.2l0.4,0.1l0.4,0.1h0.1l0.3,0.1l0.4,0l0.3-0.1l0.1-0.1l0.1-0.1l0.2-0.1l0.1-0.1l0.1-0.1l0.2-0.4
			l0.3-0.4l0.3-0.4l0.3-0.4l0.3-0.3l0.4-0.3l0.3-0.3l0.4-0.3l0.8-0.4l0.4-0.2l0.4-0.1L65,201l0.5-0.1l0.5-0.1l0.5,0l0.5-0.1h0.9
			l0.5,0l0.5,0.1l0.4,0.2l0.5,0.2l0.4,0.2l0.4,0.3l0.3,0.3l0.3,0.4l0.2,0.4l0.1,0.5l0.1,0.5v0.5l-0.1,0.5l-0.1,0.5l-0.2,0.5
			l-0.2,0.4l-0.3,0.4l-0.3,0.3l-0.4,0.3l-0.4,0.3l-0.5,0.2l-0.4,0.2l-0.5,0.1l-0.5,0.1l-0.5,0.1l-1,0.2h-0.8l-0.1,0h-0.2l-0.4,0
			l-0.1,0l-0.2,0.1l0,0.2l0.1,0.2l0.1,0.1l0.1,0.2l0.1,0.2l0.3,0.3l0.3,0.2l0.4,0.2l0.4,0.1l0.4,0.1l0.4,0.1h0.4l0.4-0.1l0.4-0.1
			l1.2-0.5l0.4-0.2l0.4-0.3l0.3-0.3l0.3-0.3l0.3-0.3l0.5-0.7l0.3-0.4l0.2-0.4l0.3-0.1l0.1,0l0-0.2l0.2-0.4l0.6-1.2l0.3-0.4l0.8-1.1
			l0.3-0.3l0.3-0.3l0.3-0.3l1.1-0.8l1.2-0.6L79,201l0.4-0.1l1.4-0.2h0.5l0.5,0.1h0.5l0.9,0.1l0.5,0.1l0.5,0.1l0.5,0.1l0.5,0.2
			l0.9,0.4l0.4,0.2l0.6,0.4l0.2,0.2l0.1,0.2v0.2l-0.1,0.4l-0.1,0.2l-0.2,0.3l-0.1,0.2l-0.2,0.2l-0.1,0.2l-0.3,0.2l-0.2,0.1l-0.3,0
			l-0.1-0.1l-0.2-0.1l-0.2-0.1l-0.8-0.4l-0.8-0.3l-0.5-0.1l-0.4-0.1l-0.5,0h-0.5l-0.5,0l-0.5,0.1l-0.5,0.1l-0.4,0.1l-0.4,0.2
			l-0.4,0.3l-0.7,0.7l-0.3,0.3l-0.3,0.4l-0.5,0.8L77,207l-0.2,0.9l-0.1,0.4l-0.1,0.4l-0.1,0.5v0.4l0.1,0.5l0.1,0.2l0.1,0.1l0.3,0.2
			l0.1,0.1h0.2l0.2-0.1l0.3-0.3l0.3-0.4l0.3-0.3l0.3-0.4l0.2-0.4l0.2-0.4l0.4-0.8l0.4-0.8l0.7-1.7l0.1-0.1l0.2-0.1l0.1-0.1l0.2,0
			l0.1,0l0.3,0h0.2l0.5,0l0.4,0.1l1.1,0.3l0.6,0.2l0.2,0.1l0.1,0.1v0.1l-0.3,0.9l-0.3,0.9l-0.3,1.4l-0.1,0.4v0.5l0.1,0.4l0.1,0.2
			l0.2,0.2l0.2,0.1h0.2l0.2,0l0.2-0.1l0.2-0.1l0.3-0.2l0.4-0.3l0.1-0.1l0.2-0.2l0.3-0.4l0.6-0.8l0.3-0.4l0.4-0.7l0.1-0.2l0.1-0.1
			h0.1l0-0.1l0.1-0.5l0.1-0.5l0.1-0.5l0.1-0.5l0.1-0.5l0.2-0.9l0-0.2l0.1-0.3v-0.4l-0.2-0.1l-0.1,0l-0.2,0h-0.2l-0.2,0l-0.3-0.2
			l-0.1-0.5v-0.4l0.1-0.4l0.1-0.4l0.1-0.4l0.3-0.4l0.3-0.1l0.2,0h0.6l0.1,0l0.2-0.1l0.3-0.2l0.1-0.2l0.1-0.3l0.1-0.4l0.1-0.5
			l0.1-0.4l0.1-0.5l0.2-0.5l0.1-0.4l0.1-0.5l0.1-0.4l0.2-0.5l0.2-0.4l0.2-0.5l0.2-0.4l0.3-0.3l0.6-0.1l0.5-0.1l0.5,0l1,0.1l0.5,0.1
			l0.5,0.1l0.6,0.3l0.2,0.3l-0.3,0.9l-0.2,0.4l-0.1,0.4l-0.2,0.4l-0.2,0.4l-0.3,0.9l-0.2,0.4l-0.2,0.4l-0.3,0.9l-0.1,0.5l0.1,0.2
			l0.2,0.1l0.1,0l0.3,0h0.3l0.1,0h0.5l0.4-0.1l0.5,0l0.2,0.1l0.2,0.2l0.1,0.6l-0.1,0.5l-0.2,0.5l-0.1,0.3l-0.1,0.3l-0.3,0.3h-0.9
			l-0.5,0.1l-0.4,0.1h-1.1l-0.3,0l-0.2,0.1l-0.2,0.2l-0.1,0.3l-0.1,0.3l-0.1,0.5l-0.1,0.4l-0.3,1.4l-0.1,0.5l-0.1,0.5l-0.1,0.5
			l-0.1,0.5l-0.1,0.5l0,0.5v0.5l0.1,0.5l0.2,0.4l0.3,0.3l0.5,0.1h0.4l0.5-0.1l0.4-0.1l0.5-0.3l0.4-0.3l0.7-0.7l0.3-0.4l0.3-0.4
			l0.3-0.4l0.3-0.4l0.1-0.2l0.1-0.2l0.2-0.6l0.2-0.9l0.2-0.4l0.1-0.5l0.2-0.4l0.2-0.5l0.1-0.4l0.2-0.5l0.2-0.9l0.2-0.4l0.2-0.5
			l0.3-0.2l0.6-0.2l0.5-0.1l1-0.1h0.5l0.5,0.1l0.5,0.1l0.6,0.2l0.2,0.3l-0.2,0.4l-0.2,0.5l-0.5,1.3l-0.2,0.5l-0.1,0.4l-0.1,0.5
			l-0.1,0.4l-0.2,0.4l-0.1,0.5l-0.1,0.5l-0.3,0.9l-0.2,0.5l-0.1,0.4l-0.1,0.4l-0.1,0.4l-0.1,0.5v0.4l0.2,0.4l0.4,0.1l0.4-0.1
			l0.5-0.3l0.3-0.3l0.3-0.4l0.3-0.3l0.3-0.4l0.3-0.4l0.6-0.8l0.3-0.3l0.4-1.2l0.1-0.4l0.1-0.5l0.1-0.4l0.2-0.4l0.2-0.4l0.3-0.9
			l0.1-0.5l0.4-1.3l0.3-0.3l0.4-0.1l0.3-0.1l1-0.1l0.5-0.1l0.5,0l0.5,0.1l0.5,0.1l0.6,0.3l0.1,0.4l0.1,0.2l0.3-0.1l0.2-0.1l0.5-0.2
			l0.5-0.2l1-0.3l0.5-0.1l0.5-0.1l0.5,0l0.5,0.1l0.5,0.2l0.4,0.2l0.4,0.3l0.3,0.3l0.2,0.4l0.1,0.5v0.5l-0.1,0.5l-0.1,0.5l-0.1,0.5
			l-0.1,0.4l-0.1,0.4l-0.1,0.4l-0.1,0.4l-0.1,0.4l-0.1,0.4l-0.1,0.4l-0.1,0.4l-0.2,0.9l-0.1,0.5v0.5l0.1,0.6l0.3,0.2l0.4-0.1
			l0.5-0.3l0.4-0.3l0.4-0.3l0.3-0.4l0.3-0.4l0.3-0.4l0.3-0.4l0.3-0.4l0.1-0.2l0-0.1l0.2-0.5l0.3-0.9l0.2-0.4l0.2-0.4l0.3-0.4
			l0.3-0.4l0.3-0.4l0.3-0.3l0.3-0.3l0.3-0.3l0.7-0.6l1.1-0.7l0.4-0.2l0.4-0.2l0.4-0.2l0.4-0.2l0.4-0.1l0.4-0.1l0.9-0.1l1-0.1h0.5
			l0.5,0l0.5,0.1l0.5,0.1l0.5,0.1l0.5,0.1l0.5,0.1l0.5,0.2l0.9,0.4l0.4,0.3l0.2,0.1l0.2,0.1l0.2,0.2l0.1,0.1l0.1,0.2v0.2l-0.1,0.3
			l-0.1,0.3l-0.5,0.7l-0.1,0.1l-0.3,0.2l-0.3,0.1l-0.1,0l-0.3-0.1l-0.2-0.1l-0.2-0.1l-0.1-0.1l-0.3-0.2l-0.4-0.2l-0.5-0.2l-0.4-0.1
			l-0.4-0.1l-0.5-0.1l-0.5-0.1l-0.5,0l-0.5,0l-0.5,0.1l-0.5,0.1l-0.4,0.2l-0.4,0.2l-0.4,0.3l-0.4,0.3l-0.3,0.3l-0.6,0.8l-0.3,0.4
			l-0.2,0.4l-0.3,0.9l-0.1,0.4l-0.1,0.5l-0.1,0.4l-0.1,0.5v0.4l0.1,0.5l0.2,0.3l0.4,0.1l0.5-0.2l0.4-0.3l0.4-0.4l0.3-0.4l0.3-0.5
			l0.2-0.4l0.3-0.5l0.2-0.5l0.2-0.5l0.5-1.6l0.1-0.2l0.1-0.1l0.1-0.2l0.1-0.2l0.1-0.1l0.3-0.1l0.3-0.1h0.5l0.2,0l0.3,0l0.5,0.1
			l0.7,0.2l0.3,0.1l0.2,0.1l0.2,0.1l0.3,0.2l0.2,0.1l0.1,0.2v0.2l-0.2,0.6l-0.1,0.2l-0.2,0.9l-0.1,0.4l-0.2,0.9l-0.1,0.4l-0.1,0.4
			l-0.1,0.4l-0.1,0.4l-0.1,0.4l-0.1,0.2l0,0.2l-0.1,0.3l-0.1,0.3v0.2l0.1,0.2l0.2,0.1l0.2-0.1l0.1-0.1l0.2-0.1l0.2-0.2l0.2-0.1
			l0.2-0.1l0.1-0.1l0.2-0.2l0.3-0.3l0.3-0.3l0.3-0.4l0.5-0.8l0.3-0.4l0.2-0.4l0.2-0.4l0.3-0.4l0.2-0.4l0.1-0.1l0.1-0.1l0.1-0.1
			l0.1-0.1h0.2l0.3,0.1l0.2,0.1l0.3,0.2l0.1,0.1l0.1,0.2l0,0.1l-0.1,0.3l-0.1,0.2l-0.3,0.4l-0.2,0.4l-0.3,0.4l-0.2,0.4l-0.3,0.4
			l-0.3,0.4l-0.3,0.4l-0.3,0.4l-0.6,0.8l-0.3,0.3L134,213l-0.4,0.3l-0.4,0.3l-0.4,0.3l-0.2,0.1l-0.5,0.3l-0.2,0.1l-0.2,0.1l-0.3,0.2
			l-0.2,0.2l-0.1,0.1l-0.1,0.2l-0.2,0.4l0,0.1l-0.1,0.2l-0.1,0.3l-0.1,0.5l-0.2,0.5l-0.1,0.5l-0.4,0.9l-0.5,0.9l-0.3,0.4l-0.3,0.4
			l-0.3,0.3l-0.4,0.3l-0.4,0.3l-0.4,0.2l-0.4,0.1l-0.5,0.1l-0.5,0.1l-0.5,0.1l-0.5,0.1h-0.5l-0.5,0l-0.5-0.1l-0.5-0.1l-0.5-0.2
			l-0.4-0.2l-0.4-0.2l-0.3-0.3l-0.3-0.4l-0.2-0.4l-0.1-0.5l-0.1-0.5l0.1-0.5l0.1-0.5l0.1-0.5l0.2-0.4l0.2-0.4l0.3-0.4l0.3-0.4
			l0.4-0.3l0.4-0.3l0.4-0.2l0.5-0.2l0.4-0.2l0.5-0.2l0.5-0.1l0.5-0.1l0.5-0.1l0.3-0.1l0.5-0.1l0.4-0.2l0.1-0.1l0.4-0.5l0.1-0.2
			l0.2-0.6l0.1-0.2l0.1-0.3v-0.2l-0.1-0.1l-0.1,0.1l-0.2,0.3l-0.2,0.2l-0.3,0.3l-0.4,0.3l-0.4,0.3l-0.4,0.2l-0.5,0.1l-0.5,0.1
			l-0.4,0.1l-0.5,0h-0.5l-0.5-0.1l-0.5-0.1l-0.4-0.2l-0.4-0.2l-0.4-0.3l-0.3-0.4l-0.5-0.9l-0.2-0.4l0-0.3l-0.3,0.3l-0.3,0.4
			l-0.3,0.3l-0.4,0.3l-0.4,0.3l-0.4,0.3l-0.4,0.2l-0.5,0.2l-0.5,0.2l-0.5,0.1l-0.5,0.1l-0.5,0.1l-0.5,0l-0.5,0l-0.5-0.1l-0.5-0.1
			l-0.4-0.3l-0.3-0.3l-0.3-0.4l-0.2-0.5l0-0.5l0-0.5l0-0.5l0.1-0.5l0.1-0.4l0.1-0.5l0.1-0.4l0.1-0.5l0.3-0.9l0.1-0.5l0.1-0.4
			l0.1-0.5l0.1-0.3l0.1-0.5l0-0.4l-0.2-0.3l-0.5-0.1l-0.5,0.1l-0.3,0.1l-0.2,0.1l-0.3,0.2l-0.2,0.1l-0.3,0.2l-0.3,0.3l-0.1,0.2
			l-0.1,0.4l-0.1,0.5l-0.1,0.4l-0.1,0.5l-0.1,0.4l-0.2,0.9l-0.1,0.4l-0.1,0.5l-0.1,0.5l-0.1,0.4l-0.1,0.5l-0.2,0.9l-0.1,0.4
			l-0.2,0.9l-0.2,0.3l-0.5,0.2l-0.4,0.1l-0.5,0.1l-0.4,0h-0.9l-0.4,0l-0.5-0.1l-0.4-0.1l-0.4-0.2l-0.1-0.3l0.1-0.4l0.1-0.5l0.3-0.8
			l0,0l-0.3,0.4l-0.3,0.4l-0.4,0.3l-0.4,0.3l-0.4,0.3l-0.4,0.3l-0.9,0.3l-0.5,0.1l-0.5,0.1l-0.5,0h-0.4l-0.5-0.1l-0.4-0.1l-0.4-0.2
			l-0.3-0.3l-0.3-0.3l-0.3-0.4l-0.1-0.4l-0.1-0.4l0-0.3l-0.2,0.2l-0.6,0.6l-0.3,0.3l-0.3,0.3l-0.3,0.3l-0.4,0.2l-0.4,0.2l-0.9,0.2
			l-0.5,0.1h-1.4l-0.5-0.1l-0.4-0.1l-0.5-0.1l-0.4-0.2l-0.4-0.3l-0.3-0.3l-0.3-0.4l-0.4-0.9l-0.1-0.5l-0.1-0.5l0-0.1l-0.9,1.2
			l-0.3,0.3l-0.3,0.3l-1.5,1l-0.4,0.2l-0.8,0.3l-0.5,0.1l-0.4,0.1h-0.5l-0.5-0.1l-0.4-0.1l-0.4-0.2l-0.3-0.3l-0.2-0.4l-0.1-0.5
			l-0.1-0.4v-0.7l-0.1-0.1h-0.1l-0.1,0.1l-0.3,0.4l-0.3,0.3l-0.3,0.3L79,212l-0.3,0.3l-0.3,0.3l-0.4,0.2l-0.4,0.2l-0.4,0.1l-0.4,0.1
			l-0.4,0.1l-0.5,0h-0.5l-0.5,0l-0.5-0.1l-0.4-0.2l-0.4-0.2l-0.4-0.3l-0.3-0.3l-0.3-0.4l-0.2-0.4l-0.2-0.5l-0.1-0.5l0-0.3l0,0
			l-1,1.1l-0.3,0.3l-0.4,0.3l-0.4,0.3l-0.4,0.3l-0.9,0.5l-0.9,0.3l-0.5,0.1l-0.5,0.1l-0.9,0.1l-0.5,0h-0.5l-0.5,0l-0.4-0.1l-0.5-0.1
			l-0.4-0.1l-0.5-0.2l-0.4-0.2l-0.4-0.2l-0.4-0.2l-0.3-0.3l-0.3-0.3l-0.3-0.3L60,211l-0.2-0.4l-0.1-0.4l-0.1-0.5l-0.1-0.4l-0.1-0.5
			v-0.7l-0.1-0.4l-0.1-0.1l-0.1-0.1l-0.3-0.1l-0.2,0l-0.1,0l-0.9-0.2h-0.2l-0.3,0l-0.2,0l-0.1,0.1l-0.2,0.2l-0.1,0.1l-0.1,0.3
			l-0.1,0.3l-0.1,0.3l0,0.1l-0.1,0.5l-0.1,0.5l-0.1,0.5l-0.1,0.5l-0.1,0.5l-0.2,1l-0.3,0.9l-0.2,0.3l-0.5,0.3l-0.4,0.1l-0.5,0.1
			l-0.5,0.1h-0.5l-0.5,0l-0.4-0.1l-0.5-0.1l-0.4-0.1l-0.4-0.3l-0.1-0.4l0.1-0.5l0.2-0.5l0.1-0.5l0.1-0.5l0.1-0.5l0.3-1l0.1-0.5
			l0.2-1l0-0.1l0-0.2l0-0.4l-0.2-0.2l-0.1-0.1l-0.4-0.1l-0.1,0l-0.3,0h-0.2l-0.3,0l-0.5,0.1l-0.2,0l-0.2,0.1l-0.1,0.1l-0.2,0.3
			l-0.1,0.3l-0.3,0.9l-0.2,0.4l-0.2,0.4l-0.2,0.4l-0.2,0.4l-0.2,0.4l-0.2,0.4l-0.3,0.4l-0.3,0.4l-0.3,0.3l-0.4,0.3l-0.4,0.3
			l-0.4,0.2l-0.4,0.2l-0.5,0.2l-0.4,0.1l-0.5,0.1l-0.4,0.1l-0.5,0l-0.5,0.1l-0.5,0h-0.5l-0.4,0l-0.5-0.1l-0.4-0.1l-0.5-0.1l-0.4-0.1
			l-0.4-0.1l-0.4-0.2l-0.3-0.3l-0.6-0.6l-0.3-0.4l-0.2-0.4l-0.2-0.4l-0.1-0.5l0-0.5l0-0.4l0.1-0.5l0.1-0.4l0.2-0.4l0.1-0.4l0.2-0.4
			l0.3-0.4l0.3-0.4l0.3-0.3l0.3-0.3l0.3-0.3l0.4-0.2l0.4-0.3l0.4-0.3l1.3-0.4l0.5-0.1l0.4-0.1l0.5-0.1l0.9-0.1l0.9-0.1l0.5-0.1
			l0.3-0.1l0.1-0.1l0.1-0.1l0.1-0.3l0.1-0.2l0.2-0.5l0.2-0.4l0.3-0.9l0.1-0.5l0.1-0.4l0.2-0.4l0.1-0.5l0.1-0.4l0.3-0.9l0-0.1
			l0.1-0.2l0.1-0.2l-0.1-0.3l-0.1,0l-0.2,0l-0.1,0.1l-0.2,0.1l-0.1,0.1l-0.2,0.1l-0.2,0.1l-0.4,0.1h-0.5l-0.4,0l-0.5-0.1l-0.5,0
			l-0.9-0.1l-0.4,0l-0.5,0l-0.4,0.1l-0.4,0.2l-0.4,0.3l-0.4,0.3l-0.3,0.4L40,199l0.1,0.4l0.3,0.3l0.5,0.1l0.4-0.1l0.5-0.2l0.4-0.1
			l0.4,0.2l0.3,0.3l0.3,0.3l0.2,0.5l0,0.3l-0.3,0.3l-0.3,0.3l-0.4,0.2L42,202l-0.4,0.2l-0.9,0.2l-0.5,0.1h-0.5l-0.9-0.1l-0.4-0.1
			L38,202l-0.4-0.2l-0.4-0.2l-0.4-0.2l-0.3-0.3l-0.3-0.3l-0.2-0.4l-0.2-0.4l-0.1-0.4l-0.1-0.4l0-0.5v-0.5l0.1-0.4l0.2-0.4l0.2-0.4
			l0.2-0.4l0.2-0.4l0.3-0.3l0.3-0.3l0.8-0.5l0.4-0.2l0.5-0.2l0.5-0.1l0.5-0.1l0.5,0l0.5-0.1l0.5,0l0.9,0.1l1,0.1l0.5,0.1l0.5,0.1
			l0.9,0.1l0.5,0l0.5,0l0.5-0.1l0.5-0.1l0.4-0.2l0.8-0.6l0.4-0.3l0.4-0.2l0.5-0.2l0.5-0.1L50.5,193 M64.8,206.5l0.3,0l0.4-0.1
			l0.2-0.1l0.1-0.1l0.3-0.3l0.3-0.3l0.3-0.3l0.2-0.3l0.2-0.5l0.1-0.4l-0.1-0.5l-0.4-0.2l-0.4,0l-0.4,0.2l-0.3,0.2l-0.3,0.3l-0.3,0.3
			l-0.1,0.2l-0.1,0.1l-0.2,0.4l-0.1,0.4l-0.1,0.4v0.1l0.1,0.2L64.8,206.5 M41.7,210.6l0.4-0.1l0.4-0.3l0.3-0.3l0.3-0.4l0.2-0.4
			l0.1-0.2l0.1-0.2l0.2-0.4l0.2-0.4l0.1-0.4l0.2-0.4l-0.1-0.3l-0.1-0.2l-0.1-0.1l-0.1,0l-0.2-0.1l-0.3,0.1l-0.1,0l-0.4,0.1l-0.1,0.1
			l-0.1,0l-0.2,0.1l-0.3,0.2l-0.3,0.3l-0.3,0.3l-0.2,0.4l-0.2,0.4l-0.1,0.4l-0.1,0.4l0.1,0.5l0.2,0.4l0.3,0.3L41.7,210.6
			 M124.9,218.8l0.2,0l0.3-0.1l0.1,0l0.4-0.3l0.3-0.4l0.2-0.5l0.2-0.8l0-0.3l0-0.1l-0.1-0.2l-0.1,0h-0.2l-0.2,0l-0.1,0.1l-0.1,0.1
			l-0.2,0.1l-0.3,0.2l-0.4,0.3l-0.3,0.2l-0.3,0.3l-0.1,0.2l-0.1,0.3l0,0.1l0,0.2l0,0.2l0.1,0.2l0.2,0.2l0.2,0.1L124.9,218.8
			 M50.5,192.6L50.5,192.6l-0.5,0.1h0h0l-0.5,0.1l0,0l0,0l-0.5,0.2l0,0l0,0l-0.4,0.2l0,0l0,0l-0.4,0.3l-0.8,0.5l-0.4,0.2l-0.4,0.1
			l-0.5,0.1l-0.4,0l-0.5,0l-0.9-0.1l-0.5-0.1h0h0l-0.5-0.1h0h0l-1-0.1h0h0l-0.9-0.1h0h0l-0.5,0h0h0l-0.5,0.1l-0.4,0h0h0l-0.5,0.1h0
			l0,0l-0.5,0.1l0,0l0,0l-0.5,0.2h0h0l-0.4,0.2h0l0,0l-0.8,0.5l0,0l0,0l-0.3,0.3l0,0l0,0l-0.3,0.3l0,0l0,0l-0.2,0.4v0v0l-0.2,0.4
			l0,0l0,0l-0.2,0.4l0,0l0,0l-0.2,0.4l0,0l0,0l-0.1,0.4l0,0v0v0.5v0v0l0,0.5v0v0l0.1,0.4l0,0l0,0l0.1,0.4v0v0l0.2,0.4l0,0l0,0
			l0.2,0.4l0,0l0,0l0.3,0.3l0,0l0,0l0.3,0.3l0,0l0,0l0.4,0.2l0,0l0,0l0.4,0.2h0h0l0.4,0.2l0,0l0,0l0.4,0.1h0h0l0.4,0.1l0,0h0
			l0.9,0.1h0h0h0.5h0h0l0.5-0.1h0h0l0.9-0.2l0,0l0,0l0.4-0.2l0,0l0,0l0.4-0.2l0,0l0,0l0.4-0.2l0,0l0,0l0.3-0.3l0,0l0,0l0.3-0.3
			l0.1-0.1l0-0.1l0-0.3l0-0.1l0-0.1l-0.2-0.5l0-0.1l0,0l-0.3-0.3l0,0l0,0l-0.3-0.3l0,0l0,0l-0.4-0.2l-0.1,0l-0.1,0l-0.4,0.1l0,0l0,0
			l-0.5,0.2l-0.3,0.1l-0.4-0.1l-0.2-0.2l0-0.2l0.1-0.4l0.2-0.3L41,198l0.3-0.2l0.3-0.1l0.4-0.1l0.4,0l0.4,0l0.9,0.1h0h0l0.4,0
			l0.4,0.1h0h0l0.4,0h0h0h0.5h0h0l0.4-0.1h0l0,0l0.2-0.1h0l0,0l0.2-0.1l0,0l0,0l0.1-0.1l0,0.1l0,0.1l-0.3,0.9v0v0l-0.1,0.4l0,0l0,0
			l-0.1,0.4l-0.2,0.4v0v0l-0.1,0.4l0,0l0,0l-0.1,0.5l-0.3,0.8l-0.2,0.4l0,0l0,0l-0.2,0.5v0v0l-0.1,0.2l-0.1,0.2l0,0l-0.1,0l-0.2,0.1
			l-0.4,0.1l-0.9,0.1h0h0l-0.9,0.1h0l0,0l-0.5,0.1h0h0l-0.4,0.1l-0.4,0.1l0,0l0,0l-1.3,0.4l0,0l0,0l-0.4,0.3h0h0l-0.4,0.3l-0.4,0.2
			l0,0l0,0l-0.3,0.3l0,0l0,0l-0.3,0.3l0,0l0,0l-0.3,0.3l0,0l0,0l-0.3,0.4v0v0l-0.3,0.4l0,0l0,0l-0.2,0.4l0,0l0,0l-0.1,0.4l-0.2,0.4
			l0,0l0,0l-0.1,0.4v0v0l-0.1,0.5v0v0l0,0.4v0v0l0,0.5v0v0l0.1,0.5l0,0.1l0,0l0.2,0.4v0l0,0l0.2,0.4l0,0l0,0l0.3,0.4l0,0l0,0
			l0.6,0.6l0,0l0,0l0.3,0.3l0,0l0,0l0.4,0.2l0,0l0,0l0.4,0.1l0.4,0.1l0,0h0l0.5,0.1l0.4,0.1l0,0h0l0.5,0.1h0h0l0.4,0h0h0h0.5h0h0
			l0.5,0h0h0l0.4-0.1l0.5,0h0l0,0l0.4-0.1l0.5-0.1h0h0l0.4-0.1l0,0l0,0l0.5-0.2h0h0l0.4-0.2l0,0l0,0l0.4-0.2l0,0l0,0l0.4-0.3l0,0
			l0,0l0.4-0.3h0l0,0l0.3-0.3l0,0l0,0l0.3-0.4l0,0l0,0l0.3-0.4l0,0l0,0l0.2-0.4l0,0l0,0l0.2-0.4l0.2-0.4l0,0l0,0l0.2-0.4l0.2-0.4
			l0,0l0,0l0.2-0.4v0v0l0.3-0.9l0.1-0.2l0.2-0.3l0.1-0.1l0.1-0.1l0.1,0l0.4-0.1l0.3,0h0h0h0.2l0.3,0l0.1,0h0h0l0.4,0l0,0l0.1,0.1
			l0,0.2l0,0.1l0,0.1l0,0v0l-0.2,1l-0.1,0.4l0,0l0,0l-0.3,1v0v0l-0.1,0.5l-0.1,0.5v0v0l-0.1,0.4l-0.2,0.5v0v0l-0.1,0.5l0,0.1l0,0.1
			l0.1,0.4l0,0.1l0.1,0.1l0.4,0.3l0.1,0l0.1,0l0.4,0.1l0,0h0l0.5,0.1l0.4,0.1l0,0h0l0.5,0h0h0h0.5h0h0l0.5-0.1h0h0l0.5-0.1h0l0,0
			l0.4-0.1l0,0l0,0l0.5-0.3l0.1,0l0-0.1l0.2-0.3l0,0l0-0.1l0.3-0.9l0,0v0l0.2-1l0.1-0.4l0.1-0.4l0,0l0,0l0.1-0.5v0v0l0.1-0.4
			l0.1-0.4l0,0v0l0-0.1l0.1-0.3l0,0l0,0l0.1-0.2l0.1-0.2l0-0.1l0.1-0.1l0.1,0l0.3,0h0h0h0.2l0.9,0.2l0.1,0h0h0l0.1,0l0.2,0.1l0,0
			l0,0l0,0.3v0.7v0v0l0.1,0.5v0v0l0.1,0.4v0l0,0l0.1,0.5l0,0l0,0l0.1,0.4l0,0l0,0l0.2,0.4l0,0l0,0l0.3,0.4l0,0l0,0l0.3,0.3l0.3,0.3
			l0,0l0,0l0.3,0.3l0,0l0,0l0.4,0.2l0,0l0,0l0.4,0.2h0h0l0.4,0.2h0h0l0.5,0.2l0,0l0,0l0.4,0.1l0,0l0,0l0.5,0.1l0.4,0.1h0h0l0.5,0h0
			h0h0.5h0h0l0.5,0h0h0l0.9-0.1h0l0,0l0.5-0.1h0h0l0.5-0.1l0,0l0,0l0.9-0.3l0,0l0,0l0.9-0.5l0,0l0,0l0.4-0.3l0,0l0,0l0.4-0.3h0h0
			l0.4-0.3l0,0l0,0l0.3-0.3l0,0l0,0l0.4-0.5v0l0,0l0.2,0.5l0,0l0,0l0.2,0.4l0,0l0,0l0.3,0.4l0,0l0,0l0.3,0.3l0,0l0,0l0.4,0.3l0,0
			l0,0l0.4,0.2l0,0h0l0.4,0.2l0,0l0,0l0.5,0.1l0,0h0l0.5,0h0h0h0.5h0h0l0.5,0h0h0l0.4-0.1h0h0l0.4-0.1h0h0l0.4-0.1l0,0l0,0l0.4-0.2
			l0,0l0,0l0.4-0.2l0,0l0,0l0.3-0.3l0,0l0,0l0.3-0.3l0,0l0,0l0.3-0.3l0,0l0,0l0.3-0.3l0,0l0,0l0.2-0.3v0l0.1,0.4v0v0l0.1,0.5l0,0
			l0,0l0.2,0.4l0,0.1l0,0l0.3,0.3l0,0.1l0.1,0l0.4,0.2l0,0l0,0l0.4,0.1l0,0l0,0l0.5,0.1h0h0h0.5h0h0l0.4-0.1h0l0,0l0.5-0.1l0,0l0,0
			l0.8-0.3l0.4-0.2l0,0l0,0l1.5-1l0,0l0,0l0.3-0.3l0,0l0,0l0.3-0.3l0,0l0,0l0.4-0.6l0.1,0.4l0,0l0,0l0.4,0.9l0,0l0,0l0.3,0.4l0,0
			l0,0l0.3,0.3l0,0l0,0l0.4,0.3l0,0l0,0l0.4,0.2l0,0l0,0l0.5,0.1l0.4,0.1l0,0h0l0.5,0.1l0,0h0h1.4h0h0l0.5-0.1h0l0,0l0.9-0.2l0,0
			l0,0l0.4-0.2h0h0l0.4-0.2l0,0l0,0l0.3-0.3l0,0l0,0l0.3-0.3l0.3-0.3l0,0l0,0l0.3-0.3v0l0,0l0.1,0.4l0,0l0,0l0.3,0.4l0,0l0,0
			l0.3,0.3l0,0l0,0l0.3,0.3l0,0l0,0l0.4,0.2l0,0l0,0l0.4,0.1h0h0l0.5,0.1l0,0h0h0.4h0h0l0.5,0h0h0l0.5-0.1h0h0l0.5-0.1h0h0l0.9-0.3
			l0,0l0,0l0.4-0.3l0,0l0,0l0.4-0.3l0.4-0.3l0,0l0,0l0.1-0.1l-0.1,0.4l0,0.1l0,0.1l0.1,0.3l0,0.2l0.2,0.1l0.4,0.2l0,0h0l0.4,0.1l0,0
			l0,0l0.5,0.1h0h0l0.4,0h0h0h0.9h0h0l0.4,0h0h0l0.5-0.1h0h0l0.4-0.1l0,0l0,0l0.5-0.2l0.1,0l0.1-0.1l0.2-0.3l0.1-0.1l0-0.1l0.2-0.9
			l0.1-0.4v0v0l0.2-0.9v0v0l0.1-0.4l0.1-0.4l0,0l0,0l0.1-0.4l0.1-0.4l0.1-0.4v0v0l0.2-0.9l0.1-0.4l0,0l0,0l0.1-0.5v0v0l0.1-0.4
			l0.1-0.4l0.1-0.4v0v0l0-0.1l0.2-0.3l0.2-0.2l0.1-0.1l0.3-0.2l0.2-0.1l0.3-0.1l0.4-0.1l0.3,0l0.1,0.1l0,0.2l-0.1,0.4l-0.1,0.3l0,0
			v0l-0.1,0.5l-0.1,0.4l-0.1,0.5l-0.3,0.9v0v0l-0.1,0.5l-0.1,0.4l-0.1,0.5v0v0l-0.1,0.4v0v0L112,210v0v0l0,0.5l0,0.5v0v0l0,0.5v0.1
			l0,0.1l0.2,0.5l0,0l0,0l0.3,0.4l0,0l0,0l0.3,0.3l0,0l0,0l0.4,0.3l0,0l0.1,0l0.5,0.1l0,0h0l0.5,0.1h0h0l0.5,0h0h0l0.5,0h0h0
			l0.5-0.1h0h0l0.5-0.1h0l0,0l0.5-0.1h0h0l0.5-0.2l0,0l0,0l0.5-0.2l0,0l0,0l0.4-0.2l0,0l0,0l0.4-0.3l0,0l0,0l0.4-0.3l0.4-0.3l0,0
			l0,0l0.3-0.3l0,0l0,0l0.2-0.2l0,0.1l0,0l0,0l0.5,0.9l0,0l0,0l0.3,0.4l0,0l0,0l0.4,0.3l0,0l0,0l0.4,0.2l0,0l0,0l0.4,0.2l0,0l0,0
			l0.5,0.1l0,0h0l0.5,0.1h0h0h0.5h0h0l0.5,0h0h0l0.4-0.1h0h0l0.5-0.1h0l0,0l0.5-0.1l0,0l0,0l0.4-0.2l0,0l0,0l0.4-0.3l0,0l0,0
			l0.4-0.3h0h0l0.1-0.1l-0.1,0.4l-0.1,0.2l-0.3,0.4l-0.1,0l-0.4,0.2l-0.4,0.1l-0.3,0.1h0h0l-0.5,0.1l-0.5,0.1l0,0l0,0l-0.5,0.1l0,0
			l0,0l-0.5,0.2l0,0l0,0l-0.4,0.2l-0.4,0.2l0,0l0,0l-0.4,0.2l0,0l0,0l-0.4,0.3l0,0l0,0l-0.4,0.3l0,0l0,0l-0.3,0.4l0,0l0,0l-0.3,0.4
			l0,0l0,0l-0.2,0.4l0,0l0,0l-0.2,0.4l0,0l0,0l-0.1,0.5l0,0v0l-0.1,0.5v0v0l-0.1,0.5l0,0l0,0l0.1,0.5v0l0,0l0.1,0.5l0,0l0,0l0.2,0.4
			l0,0l0,0l0.3,0.4l0,0l0,0l0.3,0.3l0,0l0,0l0.4,0.2l0,0l0,0l0.4,0.2l0,0l0,0l0.5,0.2l0,0l0,0l0.5,0.1h0h0l0.5,0.1h0h0l0.5,0h0h0
			h0.5h0h0l0.5-0.1h0h0l0.5-0.1h0h0l0.5-0.1l0.5-0.1h0l0,0l0.4-0.1l0,0l0,0l0.4-0.2l0,0l0,0l0.4-0.3l0,0l0,0l0.4-0.3l0,0l0,0
			l0.3-0.3l0,0l0,0l0.3-0.4v0v0l0.3-0.4l0,0l0,0l0.5-0.9l0,0v0l0.4-0.9l0,0l0,0l0.1-0.4l0.2-0.5v0v0l0.1-0.4l0.1-0.3v0v0l0.1-0.2v0
			v0l0-0.1l0.2-0.3l0.1-0.1l0.1-0.1l0.2-0.2l0.3-0.2l0.2-0.1l0.2-0.1h0h0l0.5-0.3l0.2-0.1l0,0l0,0l0.4-0.3l0,0l0,0l0.4-0.3l0.4-0.3
			h0h0l0.4-0.3l0,0l0,0l0.3-0.3l0,0l0,0l0.6-0.8l0,0l0,0l0.3-0.4l0.3-0.4l0.3-0.4l0,0l0,0l0.3-0.4l0,0v0l0.2-0.4l0.3-0.4l0,0l0,0
			l0.2-0.4l0.3-0.4l0.1-0.2l0,0l0,0l0.1-0.3l0,0l0,0l0-0.1l0-0.1l-0.1-0.1l-0.1-0.2l0,0l0,0l-0.1-0.1l0,0l0,0l-0.3-0.2l0,0l0,0
			l-0.2-0.1l0,0l0,0l-0.3-0.1l-0.1,0h-0.1h-0.2h-0.1l-0.1,0.1l-0.1,0.1l-0.1,0.1l0,0.1l0,0.1l-0.1,0.1l0,0l0,0l-0.1,0.1l0,0l0,0
			l-0.2,0.4l-0.3,0.4l-0.2,0.4v0v0l-0.2,0.4l-0.3,0.4l-0.5,0.7l-0.3,0.4l-0.3,0.3l-0.3,0.3l-0.2,0.2l0,0l0,0l-0.1,0.1l-0.2,0.1
			l-0.2,0.1l0,0l0,0l-0.2,0.2l-0.1,0.1l0,0l0,0l0,0l0.1-0.3l0.1-0.3v0v0l0-0.2l0.1-0.2l0,0l0,0l0.1-0.4l0.1-0.4v0v0l0.1-0.4l0,0l0,0
			l0.1-0.4v0v0l0.1-0.4l0.2-0.8l0.1-0.4v0v0l0.2-0.8l0.1-0.2v0v0l0.2-0.6l0-0.1v-0.1v-0.2v-0.1l-0.1-0.1l-0.1-0.2l0,0l0,0l-0.2-0.1
			l0,0l0,0l-0.3-0.2l0,0l0,0l-0.2-0.1l-0.2-0.1l0,0l0,0l-0.3-0.1h0h0l-0.7-0.2l0,0h0l-0.5-0.1l0,0l0,0l-0.3,0l-0.2,0h0h0H130h0l0,0
			l-0.3,0.1h0l0,0l-0.3,0.1l0,0l0,0l-0.1,0.1l-0.1,0l0,0l-0.1,0.2l0,0.1l0,0.1l-0.1,0.2l-0.1,0.1l0,0l0,0l-0.1,0.2l-0.5,1.5
			l-0.2,0.5l-0.2,0.4l-0.3,0.5l-0.2,0.4l-0.3,0.4l-0.3,0.4l-0.3,0.4l-0.3,0.2l-0.4,0.1l-0.2-0.1l-0.1-0.2l-0.1-0.4v-0.3l0.1-0.4
			l0.1-0.4l0.1-0.4l0.1-0.4l0.3-0.8l0.2-0.4l0.3-0.4l0.6-0.7l0.3-0.3l0.3-0.3l0.4-0.2l0.4-0.2l0.4-0.2l0.4-0.1l0.4-0.1l0.4,0l0.4,0
			l0.4,0.1l0.4,0.1h0h0l0.4,0.1l0.4,0.1l0.4,0.2l0.4,0.2l0.3,0.1l0.1,0.1l0,0l0,0l0.2,0.1l0.2,0.1l0.1,0.1l0.1,0l0.3,0.1l0.1,0
			l0.1,0l0.1,0l0,0l0,0l0.3-0.1l0.1,0l0,0l0.3-0.2l0,0l0,0l0.1-0.1l0,0l0,0l0.5-0.7l0,0l0,0l0.1-0.3l0,0l0,0l0.1-0.3l0-0.1v-0.1V203
			v-0.1l0-0.1l-0.1-0.2l0-0.1l-0.1-0.1l-0.1-0.1l-0.2-0.2l0,0l0,0l-0.2-0.1l-0.2-0.1l0,0h0l-0.4-0.3l0,0l0,0l-0.9-0.4l0,0l0,0
			l-0.5-0.2l0,0l0,0l-0.5-0.1l0,0l0,0l-0.5-0.1h0h0l-0.5-0.1l-0.5-0.1h0h0l-0.5-0.1h0h0l-0.5,0h0h0h-0.5h0h0l-1,0.1h0h0l-0.9,0.1h0
			h0l-0.4,0.1h0h0l-0.4,0.1l0,0l0,0l-0.4,0.2l0,0l0,0l-0.4,0.2l0,0l0,0l-0.4,0.2l-0.4,0.2l0,0l0,0l-1.1,0.7l0,0l0,0l-0.7,0.6l0,0
			l0,0l-0.3,0.3l-0.3,0.3l0,0l0,0l-0.3,0.3l0,0l0,0l-0.3,0.4l-0.3,0.4v0v0l-0.3,0.4l0,0l0,0l-0.2,0.4v0v0l-0.2,0.4l0,0l0,0l-0.3,0.9
			l0,0l0,0l-0.2,0.5l0,0l0,0l0,0l-0.1,0.1l-0.2,0.4l-0.3,0.4l-0.3,0.4l-0.3,0.4l0,0l0,0l-0.3,0.4l-0.3,0.3l-0.3,0.3l-0.4,0.2l-0.2,0
			l0,0l0-0.4v-0.4l0.1-0.5l0.2-0.8l0.1-0.4l0,0l0,0l0.1-0.4v0v0l0.1-0.4l0.1-0.4l0.1-0.4l0.1-0.4l0,0v0l0.1-0.4l0.1-0.4v0v0l0.1-0.5
			v0v0l0.1-0.5l0.1-0.5v0v0v-0.5v-0.1l0-0.1l-0.1-0.5l0,0l0,0l-0.2-0.4l0,0l0,0l-0.3-0.3l0,0l0,0l-0.4-0.3l0,0l0,0l-0.4-0.2l0,0l0,0
			l-0.5-0.2l0,0l0,0l-0.5-0.1h0h0l-0.5,0h0h0l-0.5,0.1h0h0l-0.5,0.1h0l0,0l-1,0.3l0,0l0,0l-0.5,0.2l0,0l0,0l-0.5,0.2h0h0l-0.1,0.1
			l-0.1-0.3l-0.1-0.1l-0.1-0.1l-0.6-0.3l0,0l0,0l-0.5-0.1h0h0l-0.5-0.1h0h0l-0.5,0h0h0l-0.5,0.1l-1,0.1h0l0,0l-0.3,0.1h0h0l-0.4,0.1
			l-0.1,0l-0.1,0.1l-0.3,0.3l-0.1,0.1l0,0.1l-0.4,1.3v0v0l-0.1,0.4l-0.3,0.8l-0.2,0.4l0,0l0,0l-0.2,0.4v0v0l-0.1,0.4v0v0l-0.1,0.5
			l-0.1,0.4l-0.4,1.1l-0.2,0.3l0,0l0,0l-0.6,0.8l0,0l0,0l-0.3,0.4l-0.3,0.4l-0.3,0.3l0,0v0l-0.3,0.4l-0.3,0.3l-0.4,0.3l-0.3,0.1
			l-0.1,0l-0.1-0.2V210l0.1-0.4l0.1-0.4l0,0l0,0l0.1-0.4l0.1-0.4l0.2-0.4l0.3-0.9l0,0l0,0l0.1-0.4l0.1-0.4l0.2-0.4v0v0l0.1-0.4l0,0
			l0,0l0.1-0.5v0v0l0.1-0.4l0.2-0.4l0.5-1.3l0,0l0,0l0.2-0.5l0.2-0.4l0.1-0.2l-0.1-0.2l-0.2-0.3l-0.1-0.1l-0.1-0.1l-0.6-0.2l0,0l0,0
			l-0.5-0.1h0h0l-0.5-0.1h0h0h-0.5h0h0l-1,0.1h0h0l-0.5,0.1h0l0,0l-0.6,0.2l-0.1,0l-0.1,0l-0.3,0.2l-0.1,0.1l0,0.1l-0.2,0.4
			l-0.2,0.4l0,0l0,0l-0.2,0.9l-0.2,0.4v0v0l-0.1,0.4l-0.2,0.5l-0.2,0.4l0,0v0l-0.1,0.4l-0.2,0.4l0,0l0,0l-0.2,0.9l-0.2,0.6l-0.1,0.1
			l-0.1,0.2L97,208l-0.3,0.4l-0.3,0.4l-0.3,0.4l-0.7,0.6l-0.3,0.3l-0.4,0.2l-0.4,0.1l-0.5,0.1h-0.3l-0.4-0.1l-0.2-0.2l-0.1-0.3
			l-0.1-0.4V209l0-0.5l0.1-0.4l0.1-0.4l0.1-0.4l0.1-0.4l0,0v0l0.1-0.4l0.3-1.4l0.1-0.4l0.1-0.4l0.1-0.2l0.1-0.2l0.1-0.1l0.1-0.1
			l0.2,0h1h0h0l0.4-0.1h0h0l0.4-0.1h0.8h0.1l0.1-0.1l0.3-0.3l0.1,0l0-0.1l0.1-0.3l0,0l0,0l0.1-0.3v0v0l0.2-0.5l0,0v0l0.1-0.5l0-0.1
			l0-0.1l-0.1-0.6l0-0.1l-0.1-0.1l-0.2-0.2l-0.1-0.1l-0.1,0l-0.2-0.1l-0.1,0h-0.1l-0.5,0h0h0l-0.4,0.1H96h0l0,0l-0.1,0h-0.3l-0.3,0
			l0,0l0,0v0l0.1-0.3l0.3-0.8l0.2-0.4l0,0l0,0l0.2-0.4v0v0l0.3-0.9l0.2-0.4l0.2-0.4l0,0l0,0l0.1-0.4l0.2-0.4v0v0l0.3-0.9l0-0.1
			l-0.1-0.1l-0.2-0.3l-0.1-0.1l-0.1-0.1l-0.6-0.3l0,0l0,0l-0.5-0.1l0,0l0,0l-0.5-0.1l0,0h0l-1-0.1h0h0l-0.5,0h0h0L93,193h0l0,0
			l-0.6,0.1l-0.1,0l-0.1,0.1l-0.3,0.3l-0.1,0.1l0,0.1l-0.2,0.4v0v0l-0.2,0.5l-0.2,0.4l-0.2,0.5l0,0l0,0l-0.1,0.4l0,0l0,0l-0.1,0.5
			l-0.1,0.4l-0.2,0.5l0,0l0,0l-0.1,0.4l-0.1,0.4l0,0l0,0l-0.1,0.5l-0.1,0.4l-0.1,0.3l-0.1,0.1l-0.2,0.2l-0.1,0l-0.1,0h-0.5l-0.2,0
			l-0.1,0l-0.1,0l-0.3,0.1l-0.1,0l-0.1,0.1l-0.3,0.4l0,0l0,0l-0.1,0.4l0,0l0,0l-0.1,0.4l0,0v0l-0.1,0.4v0v0v0.4v0l0,0l0.1,0.5v0l0,0
			l-0.2-0.2l0,0l0,0l-0.6-0.4l0,0l0,0l-0.4-0.2l0,0l0,0l-0.9-0.4l0,0h0l-0.5-0.2h0h0l-0.5-0.1h0h0l-0.5-0.1h0h0l-0.5-0.1h0h0
			l-0.9-0.1h0h0h-0.5l-0.5-0.1h0h0h-0.5h0h0l-1.4,0.2h0h0l-0.4,0.1l0,0l0,0l-1.3,0.5h0h0l-1.2,0.6l0,0l0,0l-1.1,0.8l0,0l0,0
			l-0.3,0.3l0,0l0,0l-0.3,0.3l0,0l0,0l-0.3,0.3l0,0l0,0l-0.8,1.1l0,0l0,0l-0.3,0.4l0,0l0,0l-0.6,1.2l0,0l0,0l-0.2,0.4l-0.3,0.1
			l-0.1,0l-0.1,0.1l-0.2,0.4l-0.3,0.4l-0.5,0.7l-0.3,0.3l-0.3,0.3l-0.3,0.3l-0.4,0.2l-0.3,0.2l-1.2,0.5l-0.4,0.1l-0.4,0.1h-0.4
			l-0.4-0.1l-0.4-0.1l-0.4-0.1l-0.3-0.2l-0.3-0.2l-0.2-0.3l-0.1-0.2l-0.1-0.2l-0.1-0.1l0-0.1l0.3,0h0h0h0.2l0.1,0l0,0h0h0.8h0l0,0
			l1-0.2l0.5-0.1h0l0,0l0.5-0.1h0h0l0.5-0.1l0,0l0,0l0.4-0.2l0,0l0,0l0.5-0.2l0,0l0,0l0.4-0.3l0,0l0,0l0.4-0.3l0,0l0,0l0.3-0.3l0,0
			l0,0l0.3-0.4l0,0l0,0l0.2-0.4l0,0l0,0l0.2-0.5l0,0l0,0l0.1-0.5v0v0l0.1-0.5v0v0v-0.5v0v0l-0.1-0.5v0v0l-0.1-0.5l0,0l0,0l-0.2-0.4
			l0,0l0,0l-0.3-0.4l0,0l0,0l-0.3-0.3l0,0l0,0l-0.4-0.3l0,0l0,0l-0.4-0.2l0,0l0,0l-0.5-0.2h0h0l-0.4-0.2l0,0l0,0l-0.5-0.1l0,0h0
			l-0.5,0h0h0h-0.9h0h0l-0.4,0.1l-0.4,0h0h0l-0.5,0.1h0l0,0l-0.5,0.1l0,0l0,0l-0.4,0.1h0h0l-0.4,0.1l0,0l0,0l-0.4,0.2l0,0l0,0
			l-0.8,0.4l0,0l0,0l-0.4,0.3l0,0l0,0l-0.3,0.3l-0.4,0.3l0,0l0,0l-0.3,0.3l0,0l0,0l-0.3,0.4l0,0l0,0l-0.3,0.4l-0.3,0.4l0,0l0,0
			l-0.2,0.4l0,0.1l-0.1,0.1l-0.1,0.1l-0.1,0.1l0,0l0,0l-0.1,0.1l-0.2,0.1l-0.3,0l-0.3-0.1l0,0h0h-0.1l-0.4-0.1l-0.3-0.1l-0.1-0.1
			l0-0.1l0-0.1l0.1-0.2l0,0l0,0l0.2-0.9l0,0l0,0l0.1-0.5l0.1-0.4l0.4-1.3l0.1-0.4l0,0l0,0l0.4-1.3v0v0l0.2-0.8l0.4-1.3l0.2-0.4v0v0
			l0.3-0.9v0v0l0.1-0.4l0.2-0.4l0.2-0.4l0.1-0.1l0-0.1l-0.1-0.3l0-0.1l-0.1-0.1l-0.5-0.3l0,0l0,0l-0.5-0.1h0h0l-0.5-0.1h0h0
			l-0.5-0.1h0h0H58l-0.5,0h0h0H57h0l0,0l-0.6,0.1l-0.1,0l-0.1,0.1l-0.3,0.2l-0.1,0.1l0,0.1l-0.2,0.4l0,0l0,0l-0.5,1.4l-0.2,0.4l0,0
			l0,0l-0.2,0.5l0,0l0,0l-0.1,0.5l-0.1,0.5l-0.2,0.4l0,0l0,0l-0.2,0.5l0,0l0,0l-0.1,0.5l-0.9,2.8v0v0l-0.1,0.5l-0.2,0.4v0v0
			l-0.1,0.5l-0.2,0.6l0,0h0l-0.2,0h0h0H52l-0.1,0h0h0l-0.5,0l-0.2,0l-0.1,0l0,0h0h-0.2l-0.2,0l-0.2,0l0,0l0,0l0-0.2l0-0.2l0.2-0.4
			l0.2-0.4l0,0l0,0l0.1-0.5l0.1-0.4v0v0l0.1-0.5l0.1-0.4l0.3-0.9v0v0l0.4-1.4v0v0l0.1-0.4l0.2-0.4v0v0l0.1-0.4l0.5-1.4l0.2-0.4l0,0
			l0,0l0.3-0.9l0.1-0.2l-0.1-0.1l-0.2-0.3l-0.1-0.1l-0.1-0.1l-0.6-0.3l0,0l0,0l-0.5-0.1l0,0h0l-0.5-0.1h0h0l-1-0.1L50.5,192.6
			L50.5,192.6z M87.2,204l0.2-0.3l0,0l0,0l0.1-0.2l0,0l0,0l0.1-0.4l0-0.1V203v-0.2v-0.1l0-0.1l0-0.1l0.1,0l0.3,0.2l0.1,0.1l0.1,0
			l0.2,0l0,0h0h0.1l0.1,0l0,0v0.2l-0.1,0.2l0,0v0l0,0.2l-0.2,0.9l0,0l0,0l-0.1,0.5v0v0l-0.1,0.5v0v0L88,206l-0.1,0.4l-0.1,0.4l0,0
			l-0.1,0.1l0,0l0,0l-0.1,0.2l0,0l0,0l-0.4,0.7l-0.3,0.4l-0.6,0.8l-0.3,0.3l-0.2,0.2l0,0l0,0l-0.1,0.1l-0.4,0.2h0h0l-0.3,0.2
			l-0.1,0.1l-0.2,0l-0.1,0h0l-0.1,0l-0.1-0.1l0-0.1l-0.1-0.3v-0.4l0.1-0.4l0.3-1.4l0.3-0.9v0v0l0.3-0.9l0-0.1v-0.1v-0.1v-0.2
			l-0.1-0.1l-0.1-0.1l0,0l0,0l-0.2-0.1l0,0l0,0l-0.6-0.2l0,0l0,0l-1.1-0.3l0,0h0l-0.4-0.1h0h0l-0.5,0h0h0h-0.2h0h0l-0.3,0h0l0,0
			l-0.1,0l-0.2,0l-0.1,0l-0.1,0l-0.1,0.1l0,0l0,0l-0.2,0.1l-0.1,0l0,0.1l-0.1,0.1l0,0l0,0l-0.7,1.7l-0.4,0.8l-0.4,0.8l0,0l0,0
			l-0.2,0.4l-0.2,0.4l-0.2,0.4l-0.3,0.3l-0.3,0.3l-0.3,0.2l-0.1,0h-0.1l0,0l-0.2-0.1l0,0l-0.1-0.2l-0.1-0.4v-0.3l0.1-0.4l0.1-0.4
			l0.1-0.4l0,0v0l0.2-0.8l0.2-0.4l0.5-0.8l0.2-0.4l0.3-0.3l0.7-0.6l0.3-0.3l0.4-0.2l0.4-0.1l0.4-0.1l0.5-0.1l0.4,0h0.4l0.4,0
			l0.4,0.1l0.4,0.1l0.8,0.3l0.8,0.4l0.2,0.1l0.2,0.1l0,0l0.1,0l0.1,0.1l0.1,0l0.1,0l0.3,0l0.1,0l0.1,0l0.2-0.1l0,0l0,0l0.3-0.2l0,0
			l0,0l0.1-0.2l0,0l0,0l0.2-0.2l0,0l0,0L87.2,204L87.2,204z M66.5,203.9l0.3,0L67,204l0.1,0.2l-0.1,0.3l-0.2,0.4l-0.2,0.3l-0.3,0.3
			l-0.3,0.2l-0.3,0.2l-0.1,0l0,0l0,0l-0.2,0.1l-0.3,0.1l-0.2,0l0,0l0.1-0.3l0.1-0.4l0.2-0.3l0.1-0.1l0.1-0.2l0.2-0.3l0.3-0.3
			l0.3-0.2L66.5,203.9L66.5,203.9z M43.2,206.9l0.2-0.1l0.1,0l0.1,0.1l0.1,0.1l0,0.1l-0.1,0.3v0v0l-0.1,0.4l-0.2,0.4l-0.2,0.4l0,0
			l0,0l0,0.2l-0.1,0.2v0v0l-0.2,0.3l-0.2,0.3l-0.2,0.2l-0.3,0.2l-0.3,0l-0.3-0.1l-0.2-0.2l-0.1-0.3l-0.1-0.4l0-0.3l0.1-0.4l0.2-0.4
			l0.2-0.3l0.3-0.3l0.3-0.3l0.3-0.2l0.2-0.1l0,0l0.1-0.1L43.2,206.9L43.2,206.9L43.2,206.9z M126.2,216.4L126.2,216.4l0,0.2
			l-0.2,0.7l-0.2,0.4l-0.2,0.3l-0.3,0.3l-0.3,0.1l-0.1,0l-0.2,0l-0.1,0l-0.1-0.1l0-0.1l0-0.1l0-0.2l0-0.1l0.1-0.2l0.1-0.1l0.3-0.3
			l0.2-0.2l0.4-0.3l0.2-0.1l0.2-0.1l0,0l0,0l0.1-0.1l0,0L126.2,216.4L126.2,216.4L126.2,216.4L126.2,216.4z"/>
	</g>
	<path d="M159.1,211.3l-0.3-0.3l-0.3-0.3l-0.3-0.3l-0.1-0.1l-0.2-0.2L158,210l-0.2-0.3l0-0.2l0.1-0.5l0.1-0.3l0.1-0.1l0.1-0.2
		l0.1-0.1l0.4-0.9l0.1-0.5l0.1-0.5l0.1-1l0-0.5l-0.2-0.3l-0.5-0.2l-0.5-0.1h-0.4l-0.5,0.1l-0.2,0.3l-0.1,0.5l-0.1,0.5l-0.1,0.5
		l-0.1,0.3l-0.1,0.2l-0.1,0.1l-0.2,0.2l-0.1,0.1h-0.2l-0.1,0l-0.2-0.1l-0.2-0.2l-0.3-0.4l-0.3-0.4l-0.6-0.8l-0.3-0.4l-0.1-0.3
		l-0.1-0.1l-0.1-0.2l-0.1-0.3l0-0.2l0.1-0.2l0.2-0.2l0.1-0.1l0.2-0.1l0.2-0.1l0.2-0.1l0.3-0.3l0.4-0.3l0.3-0.3l0.3-0.3l0.3-0.3
		l0.3-0.3l0.3-0.3l0.3-0.3l0.3-0.3l0.3-0.4l0.2-0.4l0.2-0.4l0.1-0.4l0.1-0.5l0.1-0.4l0-0.5l0-0.5L158,196l-0.2-0.4l-0.2-0.4
		l-0.3-0.3l-0.4-0.3l-0.4-0.2l-0.4-0.2l-0.4-0.1l-0.5-0.1l-0.4-0.1h-0.5l-0.9,0.1l-0.5,0.1l-0.4,0.1l-0.9,0.3l-0.4,0.2l-0.4,0.2
		l-0.4,0.2l-0.3,0.3l-0.6,0.7l-0.3,0.4l-0.2,0.4l-0.1,0.5l-0.1,0.4l-0.1,0.5l-0.1,0.4l-0.1,0.5l0.1,0.9l0.1,0.4l0.2,0.9l0,0.2v0.1
		l0.1,0.1l0.1,0.2l0,0.1v0.3l0,0.1l-0.1,0.2l-0.2,0.2l-0.1,0.1l-0.5,0.3l-0.4,0.3l-0.4,0.3l-0.3,0.3l-0.6,0.7l-0.3,0.4l-0.3,0.4
		l-0.2,0.4l-0.2,0.4l-0.2,0.5l-0.1,0.4l-0.1,0.5l-0.1,0.5v0.5l0.1,0.5l0,0.5l0.1,0.5l0.2,0.4l0.2,0.4l0.3,0.4l0.3,0.4l0.3,0.3
		l0.4,0.3l0.8,0.5l0.4,0.1l0.5,0.1l0.4,0.1l0.5,0.1h1.4l0.4,0l0.8-0.1l0.9-0.2l0.8-0.3l0.8-0.3l0.2-0.1l0.2-0.1l0.3,0l0.1,0l0.2,0.1
		l0.3,0.2l0.5,0.4l0.4,0.2l0.5,0.1l0.5,0l0.5-0.1l0.4-0.1l0.4-0.2l0.4-0.3l0.2-0.3l0-0.4L159.1,211.3z M152.9,209.6l-0.2,0.3
		l-0.2,0.1l-0.1,0.1l-0.3,0.1l-0.2,0.1l-0.3,0.1l-0.5,0.1h-0.5l-0.5-0.1l-0.4-0.1l-0.4-0.2l-0.3-0.3l-0.2-0.3l-0.1-0.4l-0.1-0.4
		l0-0.4l0.1-0.4l0.1-0.4l0.2-0.4l0.2-0.4l0.2-0.3l0.3-0.3l0.2-0.1l0.2-0.1l0.2,0l0.1,0.1l0.3,0.3l0.2,0.3l0.3,0.4l0.3,0.4l0.3,0.4
		l0.3,0.4l0.3,0.4l0.1,0.2l0.2,0.2l0.2,0.3l0.1,0.5L152.9,209.6z M152.8,200.6l-0.2,0l-0.1,0l-0.1-0.1l-0.3-0.3l0-0.1l0-0.1v-0.2
		l0-0.3l0-0.1l0-0.2v-0.1l0-0.2l0.1-0.6l0.2-0.5l0.2-0.4l0.2-0.3l0.3-0.3l0.3-0.2l0.4-0.1l0.3,0.2l0.2,0.3l0.1,0.5l-0.1,0.4
		l-0.1,0.5l-0.1,0.4l-0.2,0.4l-0.2,0.4l-0.1,0.2l-0.1,0.1l-0.1,0.2l-0.3,0.3L152.8,200.6z"/>
	<g>
		<path class="st1" d="M251.2,221.7l-0.5,0l-0.5-0.1l-0.5-0.1l-0.5-0.2l-0.4-0.2l-0.4-0.3l-0.4-0.4l-0.3-0.4l-0.2-0.4l-0.2-0.5
			l-0.1-0.5l0.1-0.5l0.1-0.5l0.2-0.5l0.2-0.4l0.2-0.4l0.3-0.4l0.3-0.4l0.4-0.3l0.4-0.3l0.4-0.2l0.5-0.2l0.4-0.2l0.5-0.2l0.5-0.1
			l0.5-0.1l0.5-0.1l0.3-0.1l0.4-0.1l0.4-0.2l0.1-0.1l0.3-0.4l0.1-0.2l0.2-0.6l0.1-0.2l0-0.3l0,0.1l-0.2,0.3l-0.4,0.3l-0.4,0.3
			l-0.4,0.3l-0.4,0.2l-0.5,0.2l-0.5,0.1l-0.4,0.1l-0.5,0h-0.5l-0.5-0.1l-0.5-0.1l-0.5-0.2l-0.5-0.2l-0.4-0.3l-0.3-0.4l-0.5-0.9
			l-0.2-0.4l0,0l-0.4,0.4l-0.4,0.3l-0.4,0.3l-0.4,0.3l-0.4,0.3l-0.4,0.2l-0.5,0.2l-0.5,0.2l-0.5,0.1l-0.5,0.1l-0.5,0.1l-0.5,0
			l-0.5,0l-0.5-0.1l-0.5-0.2l-0.4-0.3l-0.3-0.4l-0.3-0.5l-0.2-0.5l0-0.5l0-0.5l0-0.5l0.1-0.5l0.1-0.4l0.1-0.5l0.1-0.4l0.1-0.5
			l0.3-0.9l0.1-0.5l0.1-0.4l0.1-0.6l0.1-0.3l0.1-0.5l0-0.3l-0.2-0.2l-0.4,0l-0.4,0.1l-0.3,0.1l-0.2,0.1l-0.3,0.2l-0.2,0.1l-0.2,0.2
			l-0.2,0.3l0,0.1l-0.1,0.4l-0.1,0.5l-0.1,0.4l-0.1,0.5l-0.1,0.4l-0.2,0.9l-0.1,0.4l-0.1,0.5l-0.1,0.5l-0.1,0.4l-0.1,0.5l-0.2,0.9
			l-0.1,0.4l-0.2,1l-0.3,0.3l-0.6,0.2l-0.4,0.1l-0.5,0.1l-0.4,0h-0.9l-0.4,0l-0.5-0.1l-0.4-0.2l-0.5-0.2l-0.1-0.5l0.1-0.5l0.1-0.4
			l-0.1,0.1l-0.4,0.3l-0.4,0.3l-0.4,0.3l-0.4,0.3l-0.9,0.3l-0.5,0.1l-0.5,0.1l-0.5,0h-0.5l-0.5-0.1l-0.4-0.1l-0.5-0.2l-0.4-0.3
			l-0.4-0.3l-0.3-0.4l-0.2-0.5l-0.1-0.4l-0.2,0.2l-0.3,0.4l-0.4,0.3l-0.4,0.3l-0.4,0.2l-0.5,0.2l-0.4,0.2l-0.9,0.3l-0.5,0.1
			l-0.5,0.1l-0.5,0l-0.3,0l-0.2,0l-0.5,0l-0.5-0.1l-0.5-0.1l-0.5-0.1l-0.4-0.2l-0.5-0.2l-0.4-0.3l-0.3-0.4l-0.5-0.8l-0.2-0.5
			l-0.1-0.5l-0.2,0.2l-0.4,0.3l-0.4,0.3l-0.4,0.2l-0.5,0.2l-0.5,0.2l-0.4,0.1h-0.1l-0.3,0h-0.2l-0.2,0h-0.5l-0.2,0h-0.1l-0.2,0
			l-0.1,0l-0.1,0l0,0L209,212l-0.2,0.1l-0.2,0.1l-0.1,0.1l-0.6,0.3L207,213l-0.5,0.1l-0.5,0.1l-0.4,0.1l-0.5,0l-0.5,0.1l-0.5,0h-0.5
			l-0.5,0l-0.5-0.1l-0.5-0.1l-0.5-0.2l-0.9-0.4l-0.4-0.3l-0.4-0.3l-0.3-0.4l-0.3-0.4l-0.2-0.5l-0.2-0.4l0-0.1l0,0l-0.4,0.4l-0.4,0.3
			l-0.4,0.3l-0.4,0.2l-0.5,0.2l-0.5,0.2l-0.4,0.1H196l-0.3,0h-0.2l-0.2,0h-0.5l-0.2,0h-0.1l-0.2,0l-0.1,0l-0.1,0l0,0l-0.2,0.1
			l-0.2,0.1l-0.2,0.1l-0.1,0.1l-0.6,0.3l-0.9,0.4l-0.5,0.1l-0.5,0.1l-0.4,0.1l-0.5,0l-0.5,0.1l-0.5,0h-0.5l-0.5,0l-0.5-0.1l-0.5-0.1
			l-0.5-0.2l-0.9-0.4l-0.4-0.3l-0.4-0.3l-0.3-0.4l-0.3-0.4l-0.2-0.5l-0.2-0.4l0-0.2l0,0l-0.3,0.4l-0.4,0.3l-0.3,0.3l-0.3,0.3
			l-0.4,0.3l-0.4,0.2l-0.8,0.5l-0.4,0.2l-0.4,0.2l-0.9,0.3l-0.5,0.1l-0.4,0.1l-0.5,0.1l-0.4,0.1l-0.5,0.1h-0.9l-1.4-0.1l-0.5-0.1
			l-0.4-0.1l-0.5-0.2l-0.4-0.2l-0.4-0.2l-0.4-0.2l-0.4-0.3l-0.4-0.3l-0.4-0.3l-0.4-0.3l-0.3-0.4l-0.3-0.3l-0.3-0.4l-0.5-0.8
			l-0.3-0.9l-0.2-0.5l-0.1-0.5l-0.1-0.4l-0.1-0.5v-0.5l0-0.9l0-0.5l0-0.5l0-0.5l0.2-1l0.1-0.5l0.1-0.5l0.2-0.5l0.4-0.9l0.2-0.5
			l0.2-0.5l0.2-0.5l0.6-0.8l0.3-0.4l0.1-0.2l0-0.1v-0.1l0-0.1l0-0.1l-0.1-0.1l-0.1-0.2l-0.1-0.2l-0.2-0.4l-0.3-1l-0.1-0.5l-0.1-0.5
			l-0.1-0.5l0-0.3l0.1-0.2l0.2-0.2l0.2-0.1l0.2-0.1l0.3,0l0.2,0l0.5,0.1l0.2,0.1l0.2,0.2l0.1,0.2l0.1,0.4l0.1,0.4l0.1,0.4l0.2,0.4
			l0.1,0.1l0.1,0.1l0,0l0.1,0h0l0.2,0l0.1,0l0.2-0.1l0.1-0.1l0.2-0.1l0.7-0.3l0.4-0.3l0.4-0.2l0.4-0.2l0.9-0.3l0.5-0.1l0.5-0.1
			l0.9-0.2l0.5-0.1l0.5,0l1,0l1,0.1l0.5,0.1l0.5,0.1l0.5,0.1l0.5,0.2l0.4,0.2l0.4,0.3l0.4,0.3l0.3,0.4l0.3,0.4l0.3,0.4l0.2,0.5
			l0.1,0.5l0.1,0.5v0.5l-0.1,0.5l-0.1,0.5l-0.2,0.5l-0.2,0.5l-0.5,0.8l-0.3,0.4l-0.4,0.3l-0.8,0.6l-0.4,0.3l-0.4,0.2l-0.5,0.2
			l-0.9,0.2l-0.4,0.1l-0.5,0.1h-0.5l-1.4-0.1l-0.5-0.1l-0.4-0.1l-0.5-0.1l-0.9-0.3l-0.4-0.2l-0.7-0.4l-0.1-0.1l-0.2-0.1l-0.2,0h-0.1
			l-0.1,0l-0.1,0l-0.1,0.1l-0.1,0.1l-0.1,0.2l0,0.1l-0.1,0.3l-0.1,0.6l-0.1,0.5l-0.1,0.5l-0.1,0.5l-0.1,1v0.5l0.1,1l0.1,0.5l0.1,0.4
			l0.2,0.5l0.2,0.4l0.2,0.4l0.2,0.4l0.3,0.4l0.4,0.3l0.4,0.3l0.4,0.2l0.4,0.2l0.5,0.1l0.4,0.1l0.5,0l0.4,0l0.9-0.1l0.4-0.1l0.4-0.1
			l0.4-0.1l0.4-0.1l0.4-0.2l0.4-0.2l0.4-0.2l0.7-0.6l0.6-0.6l0.4-0.5l0.1-0.2l0.2-0.2l0.1,0l0.1,0l0.1-0.3l0.2-1l0.2-0.5l0.2-0.4
			l0.2-0.5l0.5-0.8l0.3-0.4l0.3-0.4l0.4-0.4l0.4-0.3l0.4-0.3l0.9-0.5l0.4-0.2l0.9-0.3l0.5-0.1l0.5-0.1l0.5-0.1h2l0.5,0.1l0.5,0.1
			l0.5,0.2l0.4,0.2l0.5,0.2l0.4,0.3l0.4,0.3l0.3,0.4l0.2,0.4l0.2,0.5l0.2,0.4l0.2,0.5l0,0.5v0.5l0,0.5l-0.1,0.5l-0.1,0.5l-0.1,0.5
			l-0.2,1l-0.2,0.5l-0.1,0.3l0,0.1l-0.1,0.1l-0.1,0.2l-0.1,0.1l0,0.1v0.1l0,0l0,0l0,0l0.1,0l0.2,0l0.3-0.1l0.1,0l0.2-0.1l0.1-0.1
			l0.1-0.1l0.3-0.3l0.3-0.3l0.3-0.3l0.3-0.4l0.2-0.4l0.2-0.3l0.1-0.1l0.1-0.3l0.2-1l0.2-0.5l0.2-0.4l0.2-0.5l0.5-0.8l0.3-0.4
			l0.3-0.4l0.3-0.4l0.4-0.3l0.4-0.3l0.9-0.5l0.4-0.2l0.9-0.3l0.5-0.1l0.5-0.1l0.5-0.1h2l0.5,0.1l0.5,0.1l0.5,0.1l0.4,0.2l0.5,0.2
			l0.4,0.3l0.4,0.3l0.3,0.4l0.2,0.4l0.2,0.5l0.2,0.4l0.2,0.5l0,0.5v0.5l0,0.5l-0.1,0.5l-0.1,0.5l-0.1,0.5l-0.2,1l-0.2,0.5l-0.1,0.3
			l0,0.1l-0.1,0.1l-0.1,0.2l-0.1,0.1l0,0.1v0.1l0,0l0,0l0,0l0.1,0l0.2,0l0.3-0.1l0.1,0l0.2-0.1l0.1-0.1l0.1-0.1l0.3-0.3l0.3-0.3
			l0.3-0.3l0.3-0.4l0.2-0.3v-0.1l0.1-0.5l0.1-0.5l0.2-0.9l0.1-0.5l0.1-0.4l0.1-0.5l0.1-0.4l0.2-0.9l0.1-0.5l0.1-0.4l0.1-0.5l0.1-0.4
			l0.1-0.5l0.2-0.4l0.2-0.4l0.2-0.4l0.2-0.4l0.4-0.9l0.9-1.6l0.3-0.4l0.6-0.8l0.3-0.4l0.4-0.3l0.3-0.3l0.4-0.3l0.4-0.3l0.4-0.2
			l0.4-0.2l0.4-0.2l0.5-0.1l0.5-0.1h0.5l0.5,0.1l0.5,0.1l0.4,0.2l0.4,0.2l0.4,0.3l0.4,0.3l0.3,0.4l0.5,0.8l0.2,0.5l0.1,0.5l0.1,0.5
			l0,0.5v0.5l-0.2,0.9l-0.1,0.5l-0.2,0.5l-0.2,0.4l-0.2,0.5l-0.2,0.4l-0.3,0.4l-0.3,0.4l-0.3,0.4l-0.3,0.4l-0.7,0.7l-0.3,0.3
			l-0.7,0.7l-0.4,0.3l-1.6,1l-0.4,0.2l-0.4,0.2l-0.5,0.2l-0.2,0.1l-0.2,0.1l-0.2,0.1l-0.2,0.1l-0.1,0.1l-0.1,0.1l0,0.1l-0.1,0.3
			l0,0.2l0,0.2l0,0.4l-0.1,0.7v0.3l0,0.3l0.1,0.4l0,0.2l0.1,0.1l0.1,0.1l0.1,0.1l0.1,0.1l0.1,0.1l0.1,0.1l0.2,0.1l0.2,0l0.3,0.1h0.2
			l0.3,0l0.2,0l0.3,0l0.4-0.1l0.5-0.1l0.4-0.2l0.5-0.2l0.4-0.2l0.4-0.3l0.7-0.7l0.3-0.4l0.3-0.3l0.1-0.1l0.2-0.3l0.2-0.3l0.3-0.8
			l0.2-0.9l0.2-0.4l0.1-0.5l0.2-0.4l0.2-0.5l0.1-0.4l0.2-0.5l0.2-0.9l0.2-0.4l0.2-0.5l0.4-0.3l0.7-0.2l0.5-0.1l1.1-0.1h0.5l0.6,0.1
			l0.5,0.1l0.7,0.3l0.2,0.5l-0.2,0.5l-0.2,0.5l-0.5,1.3l-0.2,0.4l-0.1,0.4l-0.1,0.5l-0.1,0.4l-0.2,0.4l-0.1,0.4l-0.1,0.5l-0.3,0.9
			L229,208l-0.1,0.4l-0.1,0.4l-0.1,0.4l-0.1,0.4v0.3l0.1,0.3l0.3,0.1l0.3-0.1l0.4-0.3l0.3-0.3l0.3-0.4l0.3-0.3l0.3-0.4l0.3-0.4
			l0.6-0.8l0.3-0.3l0.4-1.2l0.1-0.4l0.1-0.5l0.2-0.4l0.2-0.4l0.2-0.4l0.3-0.8l0.1-0.5l0.4-1.3l0.3-0.3l0.4-0.1l0.3-0.1l1-0.1
			l0.5-0.1l0.5,0l0.6,0.1l0.5,0.1l0.7,0.3l0.2,0.4l0,0.1l0.1,0l0.2-0.1l0.5-0.2l0.5-0.2l1-0.3l0.5-0.1l0.5-0.1l0.5,0l0.5,0.1
			l0.5,0.2l0.4,0.2l0.4,0.3l0.3,0.4l0.3,0.4l0.2,0.5v0.5l-0.1,0.5l-0.1,0.5l-0.1,0.5l-0.1,0.4l-0.1,0.4l-0.1,0.4l-0.1,0.4l-0.1,0.4
			l-0.1,0.4l-0.1,0.4l-0.1,0.4l-0.2,0.8l-0.1,0.5v0.5l0.1,0.5l0.1,0.1l0.3-0.1l0.4-0.3l0.4-0.3l0.4-0.3l0.3-0.4l0.3-0.4l0.3-0.4
			l0.3-0.4l0.3-0.4l0.1-0.2l0-0.1l0.2-0.5l0.3-0.9l0.2-0.4l0.2-0.4l0.3-0.4l0.3-0.4l0.3-0.4l0.3-0.4l0.3-0.3l0.3-0.3l0.7-0.6
			l1.1-0.7l0.4-0.2l0.4-0.2l0.4-0.2l0.4-0.2l0.4-0.1l0.4-0.1l0.9-0.1l1-0.1h0.5l0.5,0l0.5,0.1l0.5,0.1l0.5,0.1l0.5,0.1l0.5,0.1
			l0.5,0.2l0.9,0.4l0.4,0.3l0.2,0.1l0.2,0.2l0.2,0.2l0.2,0.1l0.1,0.3v0.3l-0.1,0.3l-0.1,0.3l-0.5,0.7l-0.2,0.2l-0.3,0.3l-0.3,0.1
			l-0.2,0l-0.3-0.1l-0.2-0.2l-0.2-0.1l-0.1-0.1l-0.3-0.2l-0.4-0.2l-0.5-0.2l-0.4-0.1l-0.4-0.1l-0.5-0.1l-0.4-0.1l-0.4,0l-0.4,0
			l-0.4,0.1l-0.4,0.1l-0.4,0.2l-0.4,0.2l-0.4,0.3l-0.4,0.3l-0.3,0.3l-0.6,0.7l-0.3,0.4l-0.2,0.4l-0.3,0.8l-0.1,0.4l-0.1,0.5
			l-0.1,0.4l-0.1,0.4v0.4l0.1,0.5l0.2,0.2l0.3,0.1l0.5-0.2l0.3-0.3l0.4-0.4l0.3-0.4l0.3-0.4l0.2-0.4l0.3-0.5l0.2-0.5l0.2-0.5
			l0.5-1.5l0.1-0.2l0.1-0.2l0.1-0.2l0.2-0.2l0.2-0.1l0.3-0.1l0.3-0.1h0.5l0.2,0l0.3,0l0.5,0.1l0.7,0.2l0.3,0.1l0.2,0.1l0.2,0.1
			l0.3,0.2l0.2,0.2l0.2,0.2v0.3l-0.2,0.6l-0.1,0.2l-0.2,0.9l-0.1,0.4l-0.2,0.8l-0.1,0.4l-0.1,0.4l-0.1,0.4l-0.1,0.4l-0.1,0.4
			l-0.1,0.2l0,0.2l-0.1,0.3l-0.1,0.3v0.1l0,0.1l0.1,0l0.1,0l0.1-0.1l0.2-0.1l0.2-0.2l0.2-0.1l0.2-0.1l0.1-0.1l0.2-0.2l0.3-0.3
			l0.3-0.3l0.3-0.4l0.5-0.7l0.3-0.4l0.2-0.4l0.2-0.4l0.3-0.4l0.2-0.4l0.1-0.2l0.1-0.1l0.1-0.2l0.2-0.1h0.3l0.3,0.1l0.2,0.1l0.3,0.2
			l0.1,0.1l0.2,0.3l-0.1,0.2l-0.1,0.3l-0.1,0.2l-0.3,0.4l-0.2,0.4l-0.3,0.4l-0.2,0.4l-0.3,0.4l-0.3,0.4l-0.3,0.4l-0.3,0.4l-0.6,0.8
			l-0.4,0.4l-0.4,0.3l-0.4,0.3l-0.4,0.3l-0.4,0.3l-0.2,0.1l-0.5,0.3l-0.2,0.1l-0.2,0.1l-0.3,0.2l-0.2,0.2l-0.1,0.1l-0.1,0.2
			l-0.2,0.4l0,0.1l-0.1,0.2l-0.1,0.3l-0.1,0.5l-0.2,0.5l-0.1,0.5l-0.4,0.9l-0.5,0.9l-0.3,0.4l-0.3,0.4l-0.4,0.3l-0.4,0.3l-0.4,0.3
			l-0.5,0.2l-0.5,0.2l-0.5,0.1l-0.5,0.1l-0.5,0.1l-0.5,0.1h-0.3V221.7z M251.7,218.6l0.2,0l0.3-0.1l0,0l0.4-0.3l0.2-0.3l0.2-0.4
			l0.2-0.8l0-0.2l0,0l0-0.1l0,0h-0.1l-0.1,0l-0.1,0l-0.1,0.1l-0.2,0.1l-0.2,0.2l-0.4,0.3l-0.3,0.2l-0.3,0.3l-0.1,0.2l-0.1,0.2l0,0.1
			l0,0.2l0,0.2l0.1,0.2l0.1,0.1l0.1,0.1L251.7,218.6z M205.2,210.4l0.3-0.1l0,0l0.1-0.2l0-0.1l0-0.3v-0.2l0-0.3l0.1-0.2l0-0.1
			l0.1-0.2l0.1-0.2l0-0.1l0.2-0.2l0.2-0.2l0.1,0l0.3-0.1l0.2-0.1l0,0l0.1-0.1l0.1-0.2l0.1-0.2l0.1-0.4l0.1-0.5l0.1-0.4l0.1-0.4v-0.4
			l0-0.4l-0.1-0.5l-0.2-0.3l-0.3-0.2l-0.4-0.1l-0.3,0.1l-0.3,0.2l-0.3,0.2l-0.3,0.3l-0.2,0.4l-0.2,0.4l-0.2,0.4l-0.1,0.4l-0.2,0.9
			l-0.3,0.9l-0.1,0.5l-0.1,0.4l0,0.5v0.4l0.1,0.4l0.1,0.1l0,0.1l0.1,0.1l0,0l0.1,0.1l0.1,0l0.1,0l0.1,0L205.2,210.4L205.2,210.4z
			 M190.3,210.4l0.3-0.1l0,0l0.1-0.2l0-0.1l0-0.3v-0.2l0-0.3l0.1-0.2l0-0.1l0.1-0.2l0.1-0.2l0-0.1l0.2-0.2l0.2-0.2l0.1,0l0.3-0.1
			l0.2-0.1l0,0l0.1-0.1l0.1-0.2l0.1-0.2l0.1-0.4l0.1-0.5l0.1-0.4l0.1-0.4v-0.4l0-0.4l-0.1-0.5l-0.2-0.3l-0.3-0.2l-0.4-0.1l-0.3,0.1
			l-0.3,0.2l-0.3,0.2l-0.3,0.3l-0.2,0.4l-0.2,0.4l-0.2,0.4l-0.1,0.4l-0.2,0.9l-0.3,0.9l-0.1,0.5l-0.1,0.4l0,0.5v0.4l0.1,0.4l0.1,0.1
			l0,0.1l0.1,0.1l0,0l0.1,0.1l0.1,0l0.1,0l0.1,0L190.3,210.4L190.3,210.4z M219.2,203.4L219.2,203.4l0.2-0.1l0.1-0.1l0.2-0.2
			l0.2-0.1l0.3-0.3l0.3-0.3l0.6-0.7l0.3-0.4l0.5-0.8l0.2-0.4l0.2-0.4l0.1-0.5l0.2-0.5l0.1-0.4l0.1-0.4l0.1-0.5v-0.4l-0.1-0.3l0-0.1
			l-0.2-0.1l-0.1,0l-0.1,0l-0.1,0.1l-0.2,0.2l-0.4,0.6l-0.2,0.4l-0.2,0.4l-0.2,0.4l-0.2,0.4l-0.3,0.9l-0.2,0.5l-0.1,0.5l-0.5,1.4
			l-0.1,0.5l-0.1,0.3l-0.1,0.1l0,0.1l0,0.1l0,0.1L219.2,203.4L219.2,203.4z M179.1,199.2l0.4-0.1l0.4-0.1l0.4-0.2l0.4-0.2l0.3-0.3
			l0.2-0.4l0.2-0.4l0.1-0.4l-0.1-0.4l-0.2-0.3l-0.3-0.2l-0.5-0.1h-0.5l-0.9,0.1l-0.5,0.1l-0.4,0.2l-0.4,0.2l-0.4,0.3l-0.4,0.3
			l-0.3,0.3l-0.3,0.3l-0.2,0.3l0,0.1l0,0.1l0,0.1v0.1l0,0.1l0.1,0.1l0.2,0.1l0.6,0.3l0.4,0.1l0.4,0.1l0.9,0.1L179.1,199.2
			L179.1,199.2z"/>
		<path class="st4" d="M222.9,193.1l0.5,0.1l0.4,0.1l0.4,0.2l0.4,0.2l0.4,0.3l0.3,0.3l0.3,0.4l0.5,0.8l0.2,0.4l0.1,0.4l0.1,0.5
			l0,0.5v0.5l-0.2,0.9l-0.1,0.5l-0.2,0.5l-0.2,0.4l-0.2,0.5l-0.2,0.4l-0.3,0.4l-0.3,0.4l-0.3,0.4l-0.3,0.4l-0.7,0.7l-0.3,0.3
			l-0.7,0.7l-0.4,0.3l-1.6,1l-0.4,0.2l-0.4,0.2l-0.5,0.2l-0.2,0.1l-0.2,0.1l-0.2,0.1l-0.2,0.1l-0.1,0.1l-0.1,0.1l-0.1,0.1l-0.1,0.3
			l0,0.3l0,0.2l0,0.4l-0.1,0.7v0.3l0,0.3l0.1,0.4l0.1,0.2l0.1,0.1l0.1,0.1l0.1,0.1l0.1,0.1l0.1,0.1l0.1,0.1l0.2,0.1l0.2,0l0.3,0.1
			h0.2l0.3,0l0.2,0l0.3,0l0.5-0.1l0.5-0.1l0.4-0.2l0.5-0.2l0.4-0.2l0.4-0.3l0.7-0.7l0.3-0.4l0.3-0.3l0.1-0.1l0.2-0.3l0.2-0.3
			l0.3-0.9l0.2-0.9l0.2-0.4l0.1-0.5l0.2-0.4l0.2-0.5l0.1-0.4l0.2-0.5l0.2-0.9l0.2-0.4l0.2-0.5l0.3-0.2l0.6-0.2l0.5-0.1l1-0.1h0.5
			l0.5,0.1l0.5,0.1l0.6,0.2l0.2,0.3l-0.2,0.4l-0.2,0.5l-0.5,1.3l-0.2,0.5l-0.1,0.4l-0.1,0.5l-0.1,0.4l-0.2,0.4l-0.1,0.5l-0.1,0.5
			l-0.3,0.9l-0.2,0.5l-0.1,0.4l-0.1,0.4l-0.1,0.4l-0.1,0.5v0.4l0.2,0.4l0.4,0.1l0.4-0.1l0.5-0.3l0.3-0.3l0.3-0.4l0.3-0.3l0.3-0.4
			l0.3-0.4l0.6-0.8l0.3-0.3l0.4-1.2l0.1-0.4l0.1-0.5l0.1-0.4l0.2-0.4l0.2-0.4l0.3-0.9l0.1-0.5l0.4-1.3l0.3-0.3l0.4-0.1l0.3-0.1
			l1-0.1l0.5-0.1l0.5,0l0.5,0.1l0.5,0.1l0.6,0.3l0.1,0.4l0.1,0.2l0.3-0.1l0.2-0.1l0.5-0.2l0.5-0.2l1-0.3l0.5-0.1l0.5-0.1l0.5,0
			l0.5,0.1l0.5,0.2l0.4,0.2l0.4,0.3l0.3,0.3l0.2,0.4l0.1,0.5v0.5l-0.1,0.5l-0.1,0.5l-0.1,0.5l-0.1,0.4l-0.1,0.4l-0.1,0.4l-0.1,0.4
			l-0.1,0.4l-0.1,0.4l-0.1,0.4l-0.1,0.4l-0.2,0.9l-0.1,0.5v0.5l0.1,0.6l0.3,0.2l0.4-0.1l0.5-0.3l0.4-0.3l0.4-0.3l0.3-0.4l0.3-0.4
			l0.3-0.4l0.3-0.4l0.3-0.4l0.1-0.2l0-0.1l0.2-0.5l0.3-0.9l0.2-0.4l0.2-0.4l0.3-0.4l0.3-0.4l0.3-0.4l0.3-0.3l0.3-0.3l0.3-0.3
			l0.7-0.6l1.1-0.7l0.4-0.2l0.4-0.2l0.4-0.2l0.4-0.2l0.4-0.1l0.4-0.1l0.9-0.1l1-0.1h0.5l0.5,0l0.5,0.1l0.5,0.1l0.5,0.1l0.5,0.1
			l0.5,0.1l0.5,0.2l0.9,0.4l0.4,0.3l0.2,0.1l0.2,0.1l0.2,0.2l0.1,0.1l0.1,0.2v0.2l-0.1,0.3l-0.1,0.3l-0.5,0.7l-0.1,0.1l-0.3,0.2
			l-0.3,0.1l-0.1,0l-0.3-0.1l-0.2-0.1l-0.2-0.1l-0.1-0.1l-0.3-0.2l-0.4-0.2l-0.5-0.2l-0.4-0.1l-0.4-0.1l-0.5-0.1l-0.5-0.1l-0.5,0
			l-0.5,0l-0.5,0.1l-0.5,0.1l-0.4,0.2l-0.4,0.2l-0.4,0.3l-0.4,0.3l-0.3,0.3l-0.6,0.8l-0.3,0.4l-0.2,0.4l-0.3,0.9l-0.1,0.4l-0.1,0.5
			l-0.1,0.4l-0.1,0.5v0.4l0.1,0.5l0.2,0.3l0.4,0.1l0.5-0.2l0.4-0.3l0.4-0.4l0.3-0.4l0.3-0.5l0.2-0.4l0.3-0.5l0.2-0.5l0.2-0.5
			l0.5-1.6l0.1-0.2l0.1-0.1l0.1-0.2l0.1-0.2l0.1-0.1l0.3-0.1l0.3-0.1h0.5l0.2,0l0.3,0l0.5,0.1l0.7,0.2l0.3,0.1l0.2,0.1l0.2,0.1
			l0.3,0.2l0.2,0.1l0.1,0.2v0.2l-0.2,0.6l-0.1,0.2l-0.2,0.9l-0.1,0.4l-0.2,0.9l-0.1,0.4l-0.1,0.4l-0.1,0.4l-0.1,0.4l-0.1,0.4
			l-0.1,0.2l0,0.2l-0.1,0.3l-0.1,0.3v0.2l0.1,0.2l0.2,0.1l0.2-0.1l0.1-0.1l0.2-0.1l0.2-0.2l0.2-0.1l0.2-0.1l0.1-0.1l0.2-0.2l0.3-0.3
			l0.3-0.3l0.3-0.4l0.5-0.8l0.3-0.4l0.2-0.4l0.2-0.4l0.3-0.4l0.2-0.4l0.1-0.1l0.1-0.1l0.1-0.1l0.1-0.1h0.2l0.3,0.1l0.2,0.1l0.3,0.2
			l0.1,0.1l0.1,0.2l0,0.1l-0.1,0.3l-0.1,0.2l-0.3,0.4l-0.2,0.4l-0.3,0.4l-0.2,0.4l-0.3,0.4l-0.3,0.4l-0.3,0.4l-0.3,0.4l-0.6,0.8
			l-0.3,0.3l-0.4,0.3l-0.4,0.3l-0.4,0.3l-0.4,0.3l-0.2,0.1l-0.5,0.3l-0.2,0.1l-0.2,0.1l-0.3,0.2l-0.2,0.2L258,215l-0.1,0.2l-0.2,0.4
			l0,0.1l-0.1,0.2l-0.1,0.3l-0.1,0.5l-0.2,0.5l-0.1,0.5l-0.4,0.9l-0.5,0.9l-0.3,0.4l-0.3,0.4l-0.3,0.3l-0.4,0.3l-0.4,0.3l-0.4,0.2
			l-0.4,0.1l-0.5,0.1l-0.5,0.1l-0.5,0.1l-0.5,0.1h-0.5l-0.5,0l-0.5-0.1l-0.5-0.1l-0.5-0.2l-0.4-0.2l-0.4-0.2l-0.3-0.3l-0.3-0.4
			l-0.2-0.4l-0.1-0.5l-0.1-0.5l0.1-0.5l0.1-0.5l0.1-0.5l0.2-0.4l0.2-0.4l0.3-0.4l0.3-0.4l0.4-0.3l0.4-0.3l0.4-0.2l0.5-0.2l0.4-0.2
			l0.5-0.2l0.5-0.1l0.5-0.1l0.5-0.1l0.3-0.1l0.5-0.1l0.4-0.2l0.1-0.1l0.4-0.5l0.1-0.2l0.2-0.6l0.1-0.2l0.1-0.3v-0.2l-0.1-0.1
			l-0.1,0.1l-0.2,0.3l-0.2,0.2l-0.3,0.3l-0.4,0.3l-0.4,0.3l-0.4,0.2l-0.5,0.1l-0.5,0.1l-0.4,0.1l-0.5,0h-0.5l-0.5-0.1l-0.5-0.1
			l-0.4-0.2l-0.4-0.2l-0.4-0.3l-0.3-0.4l-0.5-0.9l-0.2-0.4l0-0.3l-0.3,0.3l-0.3,0.4l-0.3,0.3l-0.4,0.3l-0.4,0.3l-0.4,0.3l-0.4,0.2
			l-0.5,0.2l-0.5,0.2l-0.5,0.1l-0.5,0.1l-0.5,0.1l-0.5,0l-0.5,0l-0.5-0.1l-0.5-0.1l-0.4-0.3l-0.3-0.3l-0.3-0.4l-0.2-0.5l0-0.5l0-0.5
			l0-0.5l0.1-0.5l0.1-0.4l0.1-0.5l0.1-0.4l0.1-0.5l0.3-0.9l0.1-0.5l0.1-0.4l0.1-0.5l0.1-0.3l0.1-0.5l0-0.4l-0.2-0.3l-0.5-0.1
			l-0.5,0.1l-0.3,0.1l-0.2,0.1l-0.3,0.2l-0.2,0.1l-0.3,0.2l-0.3,0.3l-0.1,0.2l-0.1,0.4l-0.1,0.5l-0.1,0.4l-0.1,0.5l-0.1,0.4
			l-0.2,0.9l-0.1,0.4l-0.1,0.5l-0.1,0.5l-0.1,0.4l-0.1,0.5l-0.2,0.9l-0.1,0.4l-0.2,0.9l-0.2,0.3l-0.5,0.2l-0.4,0.1l-0.5,0.1l-0.4,0
			h-0.9l-0.4,0l-0.5-0.1l-0.4-0.1L231,213l-0.1-0.3l0.1-0.4l0.1-0.5l0.3-0.8l0,0l-0.3,0.4l-0.3,0.4l-0.4,0.3l-0.4,0.3l-0.4,0.3
			l-0.4,0.3l-0.9,0.3l-0.5,0.1l-0.5,0.1l-0.5,0h-0.4l-0.5-0.1l-0.4-0.1L225,213l-0.3-0.3l-0.3-0.3l-0.3-0.4l-0.1-0.4l-0.1-0.4l0-0.4
			l-0.1,0.2l-0.3,0.3l-0.3,0.3l-0.4,0.3l-0.4,0.3l-0.4,0.2l-0.5,0.2l-0.4,0.2l-0.9,0.3l-0.5,0.1l-0.5,0.1l-0.5,0l-0.3,0l-0.2,0
			l-0.5,0l-0.5-0.1l-0.5-0.1l-0.5-0.1l-0.4-0.1l-0.4-0.2l-0.4-0.3l-0.3-0.4l-0.5-0.8l-0.2-0.4l-0.1-0.5l0-0.3l-0.1,0.1l-0.4,0.3
			l-0.4,0.3l-0.4,0.3l-0.4,0.2l-0.5,0.2l-0.5,0.1l-0.4,0.1h-0.1l-0.3,0h-0.2l-0.2,0h-0.5l-0.2,0h-0.1l-0.2,0.1l-0.1,0l-0.1,0l0,0
			l-0.1,0.1l-0.2,0.1l-0.2,0.1l-0.1,0.1l-0.6,0.3l-0.9,0.3l-0.5,0.1L206,213l-0.4,0.1l-0.5,0l-0.5,0.1l-0.5,0h-0.5l-0.5,0l-0.5-0.1
			l-0.5-0.1l-0.5-0.2l-0.9-0.4l-0.4-0.3l-0.4-0.3l-0.3-0.4l-0.3-0.4l-0.2-0.5l-0.2-0.4l-0.1-0.4l-0.2,0.2l-0.4,0.3l-0.4,0.3
			l-0.4,0.3l-0.4,0.2l-0.5,0.2l-0.5,0.1l-0.4,0.1H196l-0.3,0h-0.2l-0.2,0h-0.5l-0.2,0h-0.1l-0.2,0.1l-0.1,0l-0.1,0l0,0l-0.1,0.1
			l-0.2,0.1l-0.2,0.1l-0.1,0.1l-0.6,0.3l-0.9,0.3l-0.5,0.1l-0.5,0.1l-0.4,0.1l-0.5,0l-0.5,0.1l-0.5,0h-0.5l-0.5,0l-0.5-0.1l-0.5-0.1
			l-0.5-0.2l-0.9-0.4l-0.4-0.3l-0.4-0.3l-0.3-0.4l-0.3-0.4l-0.2-0.5l-0.2-0.4l-0.1-0.5v0l-0.3,0.3l-0.3,0.3l-0.3,0.3L183,211
			l-0.3,0.3l-0.4,0.3l-0.4,0.2l-0.8,0.5l-0.4,0.2l-0.4,0.1l-0.9,0.3L179,213l-0.4,0.1l-0.5,0.1l-0.4,0.1l-0.5,0.1h-0.9l-1.4-0.1
			l-0.5-0.1L174,213l-0.5-0.1l-0.4-0.2l-0.4-0.2l-0.4-0.2l-0.4-0.3l-0.4-0.3l-0.3-0.3l-0.3-0.3l-0.3-0.4l-0.3-0.3l-0.3-0.3l-0.5-0.8
			l-0.3-0.9L169,208l-0.1-0.5l-0.1-0.4l-0.1-0.5v-0.5l0-0.9l0-0.5l0-0.5l0-0.5l0.2-1l0.1-0.5l0.1-0.5l0.2-0.5l0.4-0.9l0.2-0.5
			l0.2-0.5l0.2-0.4l0.6-0.8l0.3-0.4l0.1-0.2l0-0.1v-0.1l0-0.1l0-0.1l-0.1-0.1l-0.1-0.2l-0.1-0.2l-0.2-0.4l-0.3-0.9l-0.1-0.5
			l-0.1-0.5l-0.1-0.5l0-0.2l0.1-0.1l0.2-0.1l0.2-0.1l0.1-0.1l0.2,0l0.2,0l0.5,0.1l0.2,0.1l0.2,0.1l0.1,0.1l0.1,0.4l0.1,0.4l0.1,0.4
			l0.2,0.4l0.1,0.1l0.1,0.2l0.1,0l0.1,0.1h0.1l0.2,0l0.1,0l0.2-0.1l0.1-0.1l0.2-0.1l0.7-0.3l0.4-0.3l0.4-0.2l0.4-0.2l0.9-0.3
			l0.5-0.1l0.5-0.1l0.9-0.2l0.5-0.1l0.5,0l0.9,0l1,0.1l0.5,0.1l0.5,0.1l0.5,0.1l0.5,0.2l0.4,0.2l0.4,0.3l0.4,0.3l0.3,0.4l0.3,0.4
			l0.3,0.4l0.2,0.4l0.1,0.5l0.1,0.5v0.5l-0.1,0.5l-0.1,0.5l-0.1,0.4l-0.2,0.4l-0.5,0.8l-0.3,0.4l-0.4,0.3l-0.8,0.5l-0.4,0.3
			l-0.4,0.2l-0.5,0.2l-0.9,0.2l-0.4,0.1l-0.5,0.1h-0.5l-1.4-0.1l-0.5-0.1l-0.4-0.1l-0.5-0.1l-0.9-0.3l-0.4-0.2l-0.7-0.3l-0.1-0.1
			l-0.2-0.1l-0.2-0.1h-0.2l-0.1,0l-0.1,0.1l-0.1,0.1l-0.1,0.1l-0.1,0.2l0,0.1l-0.1,0.3l-0.1,0.6l-0.1,0.5l-0.1,0.5l-0.1,0.5l-0.1,1
			v0.5l0.1,1l0.1,0.5l0.1,0.5l0.2,0.5l0.2,0.4l0.2,0.5l0.3,0.4l0.3,0.4l0.4,0.3l0.4,0.3l0.4,0.2l0.5,0.2l0.5,0.1l0.5,0.1l0.5,0
			l0.5,0l0.9-0.1l0.4-0.1l0.4-0.1l0.4-0.1l0.4-0.1l0.4-0.2l0.4-0.2l0.4-0.2l0.7-0.6l0.6-0.6l0.4-0.5l0.1-0.2l0.2-0.1l0.1,0l0.1,0
			l0,0l0.1-0.4l0.2-1l0.2-0.4l0.2-0.4l0.2-0.5l0.5-0.8l0.3-0.4l0.3-0.4l0.3-0.3l0.3-0.3l0.4-0.3l0.9-0.5l0.4-0.2l0.9-0.3l0.5-0.1
			l0.5-0.1l0.5-0.1h2l0.5,0.1l0.5,0.1l0.5,0.1l0.4,0.2l0.4,0.2l0.4,0.3l0.4,0.3l0.3,0.4l0.2,0.4l0.2,0.5l0.2,0.4l0.1,0.5l0,0.5v0.5
			l0,0.5l-0.1,0.5l-0.1,0.5l-0.1,0.5l-0.2,1l-0.2,0.5l-0.1,0.3l0,0.1l-0.1,0.1l-0.1,0.2l-0.1,0.1l0,0.1v0.1l0.1,0.1l0.1,0l0.1,0
			l0.1,0l0.2,0l0.3-0.1l0.1,0l0.2-0.1l0.1-0.1l0.1-0.1l0.3-0.3l0.3-0.3l0.3-0.3l0.3-0.4l0.2-0.4l0.2-0.3l0.1-0.1l0,0l0.1-0.3l0.2-1
			l0.2-0.4l0.2-0.4l0.2-0.5l0.5-0.8l0.3-0.4l0.3-0.4l0.3-0.3l0.3-0.3l0.4-0.3l0.9-0.5l0.4-0.2l0.9-0.3l0.5-0.1l0.5-0.1l0.5-0.1h2
			l0.5,0.1l0.5,0.1l0.5,0.1l0.4,0.2l0.4,0.2l0.4,0.3l0.4,0.3l0.3,0.4l0.2,0.4l0.2,0.5l0.2,0.4l0.1,0.5l0,0.5v0.5l0,0.5l-0.1,0.5
			l-0.1,0.5l-0.1,0.5l-0.2,1l-0.2,0.5l-0.1,0.3l0,0.1l-0.1,0.1l-0.1,0.2l-0.1,0.1l0,0.1v0.1l0.1,0.1l0.1,0l0.1,0l0.1,0l0.2,0
			l0.3-0.1l0.1,0l0.2-0.1l0.1-0.1l0.1-0.1l0.3-0.3l0.3-0.3l0.3-0.3l0.3-0.4l0.2-0.4l0-0.1l0.1-0.5l0.1-0.5l0.2-0.9l0.1-0.5l0.1-0.4
			l0.1-0.5l0.1-0.4l0.2-0.9l0.1-0.5l0.1-0.4l0.1-0.5l0.1-0.4l0.1-0.5l0.2-0.4l0.2-0.4l0.2-0.4l0.2-0.4l0.4-0.9l0.9-1.6l0.3-0.4
			l0.6-0.8l0.3-0.3l0.3-0.3l0.3-0.3l0.4-0.3l0.4-0.3l0.4-0.2l0.4-0.2l0.4-0.1l0.5-0.1l0.5-0.1L222.9,193.1 M178.7,199.4h0.5l0.5-0.1
			l0.5-0.1l0.4-0.2l0.4-0.3l0.3-0.3l0.3-0.4l0.2-0.4l0.1-0.5l-0.1-0.5l-0.3-0.4l-0.4-0.2l-0.5-0.1h-0.5l-0.9,0.1l-0.5,0.1l-0.4,0.2
			l-0.4,0.2l-0.4,0.3l-0.4,0.3l-0.3,0.3l-0.3,0.3L176,198l-0.1,0.1l0,0.1l0,0.1v0.2l0.1,0.1l0.1,0.1l0.2,0.1l0.6,0.3l0.4,0.1
			l0.5,0.1L178.7,199.4 M219.1,203.6l0.1,0l0.2-0.1l0.1-0.1l0.2-0.2l0.2-0.1l0.3-0.3l0.3-0.3l0.6-0.8l0.3-0.4l0.5-0.8l0.2-0.4
			l0.2-0.4l0.1-0.5l0.2-0.5l0.1-0.5l0.1-0.5l0.1-0.5v-0.4l-0.1-0.3l-0.1-0.1l-0.2-0.2l-0.2,0l-0.2,0.1l-0.2,0.1l-0.2,0.2l-0.4,0.6
			l-0.2,0.4l-0.2,0.4l-0.2,0.4l-0.2,0.4l-0.3,0.9l-0.2,0.5l-0.1,0.5l-0.5,1.4l-0.1,0.5l-0.1,0.3l-0.1,0.1l0,0.1l0,0.1l0,0.1v0.1
			L219.1,203.6L219.1,203.6 M204.7,210.6h0.5l0.3-0.1l0.1-0.1l0.1-0.2l0-0.1l0-0.3v-0.2l0-0.2l0.1-0.2l0-0.1l0.1-0.1l0.1-0.2l0-0.1
			l0.1-0.1l0.2-0.1l0.1,0l0.3-0.1l0.2-0.1l0.1,0l0.2-0.2l0.1-0.3l0.1-0.2l0.1-0.5l0.1-0.5l0.1-0.4l0.1-0.5v-0.5l0-0.5l-0.1-0.5
			l-0.2-0.4l-0.3-0.3l-0.5-0.1l-0.4,0.1l-0.4,0.3l-0.3,0.3l-0.3,0.3l-0.2,0.4l-0.2,0.4l-0.2,0.4l-0.1,0.4l-0.2,0.9l-0.3,0.9
			l-0.1,0.5l-0.1,0.4l0,0.5v0.4l0.1,0.5l0.1,0.2l0.1,0.1l0.1,0.1l0.1,0.1l0.1,0.1l0.1,0.1l0.1,0L204.7,210.6 M189.8,210.6h0.5
			l0.3-0.1l0.1-0.1l0.1-0.2l0-0.1l0-0.3v-0.2l0-0.2l0.1-0.2l0-0.1l0.1-0.1l0.1-0.2l0-0.1l0.1-0.1l0.2-0.1l0.1,0l0.3-0.1l0.2-0.1
			l0.1,0l0.2-0.2l0.1-0.3l0.1-0.2l0.1-0.5l0.1-0.5l0.1-0.4l0.1-0.5v-0.5l0-0.5l-0.1-0.5l-0.2-0.4l-0.3-0.3l-0.5-0.1l-0.4,0.1
			l-0.4,0.3l-0.3,0.3l-0.3,0.3l-0.2,0.4l-0.2,0.4l-0.2,0.4l-0.1,0.4l-0.2,0.9l-0.3,0.9l-0.1,0.5l-0.1,0.4l0,0.5v0.4l0.1,0.5l0.1,0.2
			l0.1,0.1l0.1,0.1l0.1,0.1l0.1,0.1l0.1,0.1l0.1,0L189.8,210.6 M251.7,218.8l0.2,0l0.3-0.1l0.1,0l0.4-0.3l0.3-0.4l0.2-0.5l0.2-0.8
			l0-0.3l0-0.1l-0.1-0.2l-0.1,0h-0.2l-0.2,0l-0.1,0.1l-0.1,0.1l-0.2,0.1l-0.3,0.2l-0.4,0.3l-0.3,0.2l-0.3,0.3l-0.1,0.2l-0.1,0.3
			l0,0.1l0,0.2l0,0.2l0.1,0.2l0.2,0.2l0.2,0.1L251.7,218.8 M222.9,192.8L222.9,192.8h-0.5h0h0l-0.5,0.1h0l0,0l-0.5,0.1h0h0l-0.4,0.1
			l0,0l0,0l-0.4,0.2l0,0l0,0l-0.4,0.2l0,0l0,0l-0.4,0.3l0,0l0,0l-0.4,0.3l-0.3,0.3l0,0l0,0l-0.3,0.3l0,0l0,0l-0.3,0.3l0,0v0
			l-0.6,0.8l0,0l0,0l-0.3,0.4l0,0l0,0l-0.9,1.6l0,0l0,0l-0.4,0.9l-0.2,0.4l0,0l0,0l-0.2,0.4l-0.2,0.4v0v0l-0.2,0.4l0,0v0l-0.1,0.5
			l-0.1,0.4l0,0l0,0l-0.1,0.5v0v0l-0.1,0.4l-0.1,0.5v0v0l-0.2,0.9v0v0l-0.1,0.4l-0.1,0.5v0v0l-0.1,0.4l-0.1,0.5v0v0l-0.2,0.9v0v0
			l-0.1,0.5l-0.1,0.5v0v0v0l-0.2,0.3l-0.2,0.4l-0.3,0.3l-0.3,0.3l-0.3,0.2l-0.1,0.1l0,0l0,0l-0.1,0.1l-0.2,0.1l-0.1,0l0,0l0,0
			l-0.2,0.1h0l0,0l0.1-0.2l0.1-0.1l0,0l0,0l0-0.1v0v0l0.1-0.3l0,0l0,0l0.2-0.5l0,0l0,0l0.2-1l0.1-0.5v0v0l0.1-0.5l0.1-0.5v0v0l0-0.5
			v0v0v-0.5v0v0l0-0.5v0l0,0l-0.1-0.5l0,0l0,0l-0.2-0.4v0v0l-0.2-0.5l0,0l0,0l-0.2-0.4l0,0l0,0l-0.3-0.4l0,0l0,0l-0.4-0.3l0,0l0,0
			l-0.4-0.3l0,0l0,0l-0.4-0.2l0,0l0,0l-0.4-0.2l0,0h0l-0.5-0.1h0h0l-0.5-0.1l0,0l0,0l-0.5-0.1l0,0h0h-2h0h0l-0.5,0.1h0l0,0l-0.5,0.1
			l-0.5,0.1l0,0l0,0l-0.9,0.3l0,0l0,0l-0.4,0.2h0l0,0l-0.9,0.5l0,0l0,0l-0.4,0.3l0,0l0,0l-0.3,0.3l0,0l0,0l-0.3,0.3l0,0l0,0
			l-0.3,0.4l-0.3,0.4l0,0l0,0l-0.5,0.8l0,0l0,0l-0.2,0.5l-0.2,0.4l0,0v0l-0.2,0.4l0,0l0,0l-0.2,1l-0.1,0.2l0,0.1l0,0l0,0l-0.2,0.3
			l-0.2,0.4l-0.2,0.4l-0.3,0.3l-0.3,0.3l-0.3,0.2l-0.1,0.1l0,0l0,0l-0.1,0.1l-0.2,0.1l-0.1,0l0,0l0,0l-0.2,0.1h0l0,0l0.1-0.2
			l0.1-0.1l0,0l0,0l0-0.1v0v0l0.1-0.3v0v0l0.2-0.5l0,0l0,0l0.2-1l0.1-0.5v0v0l0.1-0.5l0.1-0.5v0v0l0-0.5v0v0v-0.5v0v0l0-0.5v0l0,0
			l-0.1-0.5l0,0l0,0l-0.2-0.4v0v0l-0.2-0.5l0,0l0,0l-0.2-0.4l0,0l0,0l-0.3-0.4l0,0l0,0l-0.4-0.3l0,0l0,0l-0.4-0.3l0,0l0,0l-0.4-0.2
			l0,0l0,0l-0.4-0.2l0,0h0l-0.5-0.1h0h0l-0.5-0.1l0,0l0,0l-0.5-0.1l0,0h0h-2h0h0l-0.5,0.1h0l0,0l-0.5,0.1l-0.5,0.1l0,0l0,0l-0.9,0.3
			l0,0l0,0l-0.4,0.2h0l0,0l-0.9,0.5l0,0l0,0l-0.4,0.3l0,0l0,0l-0.3,0.3l0,0l0,0l-0.3,0.3l0,0l0,0l-0.3,0.4l-0.3,0.4l0,0l0,0
			l-0.5,0.8l0,0l0,0l-0.2,0.5l-0.2,0.4v0v0l-0.2,0.4l0,0l0,0l-0.2,1l-0.1,0.2h0l0,0l-0.1,0l0,0l0,0l-0.2,0.1l-0.1,0l0,0.1l-0.1,0.2
			l-0.4,0.5l-0.6,0.6l-0.7,0.5l-0.4,0.2h0h0l-0.3,0.2l-0.4,0.2l-0.4,0.1h0h0l-0.4,0.1l-0.4,0.1l-0.4,0.1l-0.9,0.1l-0.4,0l-0.5,0
			l-0.4-0.1l-0.5-0.1l-0.4-0.2l-0.4-0.2l-0.3-0.3l-0.3-0.3l-0.3-0.3l-0.2-0.4l-0.2-0.4l-0.2-0.4l-0.2-0.5l-0.1-0.4l-0.1-0.5
			l-0.1-0.9v-0.5l0.1-1l0.1-0.5l0.1-0.5l0.1-0.4l0,0v0l0.1-0.6l0.1-0.3v0v0l0-0.1l0.1-0.1l0.1-0.1l0,0l0,0l0.1,0h0.1l0.1,0l0.1,0.1
			l0.1,0.1l0,0l0,0l0.7,0.3l0,0l0,0l0.4,0.2h0h0l0.9,0.3h0h0l0.5,0.1h0h0l0.4,0.1h0h0l0.5,0.1h0h0l1.4,0.1h0h0h0.5h0l0,0l0.5-0.1
			l0.4-0.1l0.9-0.2l0,0l0,0l0.5-0.2h0h0l0.4-0.2l0,0l0,0l0.4-0.3l0,0l0,0l0.8-0.5l0,0l0,0l0.4-0.3l0,0l0,0l0.3-0.4l0,0l0,0l0.5-0.8
			l0,0l0,0l0.2-0.4l0,0l0,0l0.1-0.4l0,0l0,0l0.1-0.5v0v0l0.1-0.5v0v0v-0.5v0v0l-0.1-0.5v0l0,0l-0.1-0.5l0,0l0,0l-0.2-0.4l0,0l0,0
			l-0.3-0.4l0,0l0,0l-0.3-0.4l0,0l0,0l-0.3-0.4l0,0l0,0l-0.4-0.3l0,0l0,0l-0.4-0.3l0,0l0,0l-0.4-0.2l0,0h0l-0.5-0.2l0,0l0,0
			l-0.5-0.1h0h0l-0.5-0.1h0h0l-0.5-0.1h0h0l-1-0.1h0h0l-0.9,0h0h0l-0.5,0h0h0l-0.5,0.1h0h0l-0.9,0.2h0l0,0l-0.4,0.1l-0.4,0.1l0,0
			l0,0l-0.9,0.3h0h0l-0.4,0.2h0l0,0l-0.4,0.2l0,0l0,0l-0.4,0.3l-0.6,0.3l0,0l0,0l-0.2,0.1l0,0l0,0l-0.1,0.1l-0.1,0.1l-0.1,0l-0.1,0
			l0,0l0,0l0-0.1l0,0l0,0l-0.1-0.1l-0.2-0.4l-0.1-0.4l-0.1-0.4l-0.1-0.4l0,0l0,0l-0.1-0.1l0-0.1l-0.1-0.1l-0.2-0.1l0,0l-0.1,0
			l-0.2-0.1l0,0h0l-0.5-0.1l-0.1,0l-0.1,0l-0.2,0l-0.2,0l0,0l0,0l-0.1,0.1l0,0l0,0l-0.2,0.1l0,0l0,0l-0.2,0.1l-0.1,0.1l0,0.1
			l-0.1,0.1l0,0.1l0,0.1l0,0.2l0,0l0,0l0.1,0.5v0v0l0.1,0.5v0v0l0.1,0.5l0,0l0,0l0.3,0.9v0v0l0.2,0.4l0.1,0.2v0v0l0.1,0.2v0l0,0
			l0,0.1l0,0.1v0l0,0l0,0v0l0,0l-0.1,0.1l-0.3,0.4l-0.6,0.8l0,0l0,0l-0.2,0.4l0,0l0,0l-0.2,0.4l-0.2,0.4l0,0l0,0l-0.4,0.9v0v0
			l-0.2,0.5l0,0v0l-0.1,0.5l-0.1,0.5l0,0v0l-0.2,1v0v0l0,0.5l0,0.5l0,0.5v0v0l0,0.9v0v0v0.5v0l0,0l0.1,0.5l0,0l0,0l0.1,0.4l0.1,0.5
			v0l0,0l0.1,0.5v0l0,0l0.3,0.9l0,0l0,0l0.5,0.8l0,0l0,0l0.3,0.3l0,0l0,0l0.3,0.3l0.3,0.4l0,0l0,0l0.3,0.3l0,0l0,0l0.3,0.3l0,0l0,0
			l0.4,0.3l0.4,0.3l0,0l0,0l0.4,0.2l0.4,0.2l0,0l0,0l0.4,0.2l0,0h0l0.5,0.1h0h0l0.4,0.1h0h0l0.5,0.1h0h0l1.4,0.1h0h0h0.9h0h0
			l0.5-0.1h0h0l0.4-0.1l0.4-0.1h0h0l0.4-0.1l0.5-0.1l0,0l0,0l0.9-0.3l0,0l0,0l0.4-0.1l0,0l0,0l0.4-0.2h0l0,0l0.8-0.5h0h0l0.4-0.2
			l0,0l0,0l0.4-0.3l0,0l0,0l0.3-0.3l0.3-0.3l0,0l0,0l0.3-0.3l0,0l0,0l0.1-0.1l0.1,0.3l0.2,0.5l0,0l0,0l0.3,0.4l0,0l0,0l0.3,0.4l0,0
			l0,0l0.4,0.3l0,0l0,0l0.4,0.3l0,0l0,0l0.9,0.4l0,0l0,0l0.5,0.2l0,0l0,0l0.5,0.1h0h0l0.5,0.1h0h0l0.5,0h0h0h0.5h0h0l0.5,0h0h0
			l0.4-0.1l0.4,0h0l0,0l0.4-0.1l0.5-0.1h0h0l0.5-0.1l0,0l0,0l0.9-0.3l0,0l0,0l0.6-0.3l0.1-0.1l0,0l0,0l0.2-0.1l0.2-0.1l0.1,0l0.1,0
			l0,0h0l0,0l0,0l0,0l0.2,0h0h0l0,0l0.1,0h0.4h0h0l0.2,0h0.2h0h0l0.2,0h0h0h0l0.4-0.1h0l0,0l0.5-0.1l0,0l0,0l0.5-0.2h0h0l0.4-0.2
			l0,0l0,0l0.4-0.3l0,0l0,0l0.4-0.3l0,0l0,0l0.2-0.2l0.1,0.3l0.2,0.5l0,0l0,0l0.3,0.4l0,0l0,0l0.3,0.4l0,0l0,0l0.4,0.3l0,0l0,0
			l0.4,0.3l0,0l0,0l0.9,0.4l0,0l0,0l0.5,0.2l0,0l0,0l0.5,0.1h0h0l0.5,0.1h0h0l0.5,0h0h0h0.5h0h0l0.5,0h0h0l0.4-0.1l0.4,0h0l0,0
			l0.4-0.1l0.5-0.1h0h0l0.5-0.1l0,0l0,0l0.9-0.3l0,0l0,0l0.6-0.3l0.1-0.1l0,0l0,0l0.2-0.1l0.2-0.1l0.1,0l0.1,0l0,0h0l0,0l0,0l0,0
			l0.2,0h0h0l0,0l0.1,0h0.4h0h0l0.2,0h0.2h0h0l0.2,0h0h0h0l0.4-0.1h0l0,0l0.5-0.1l0,0l0,0l0.5-0.2h0h0l0.4-0.2l0,0l0,0l0.4-0.3l0,0
			l0,0l0.4-0.3l0,0l0,0l0,0.2l0,0l0,0l0.2,0.4l0,0l0,0l0.5,0.8l0,0l0,0l0.3,0.4l0,0l0,0l0.4,0.3l0,0l0,0l0.4,0.2l0,0l0,0l0.4,0.1h0
			h0l0.5,0.1h0h0l0.5,0.1h0h0l0.5,0.1h0h0l0.5,0h0h0l0.2,0l0.3,0l0.5,0h0h0l0.5-0.1h0h0l0.5-0.1h0l0,0l0.9-0.3h0l0,0l0.4-0.2h0h0
			l0.5-0.2l0,0l0,0l0.4-0.2l0,0l0,0l0.4-0.3l0,0l0,0l0.4-0.3l0,0l0,0l0.2-0.3l0,0.1v0l0,0l0.1,0.4l0,0l0,0l0.3,0.4l0,0l0,0l0.3,0.3
			l0,0l0,0l0.3,0.3l0,0l0,0l0.4,0.2l0,0l0,0l0.4,0.1l0,0h0l0.5,0.1l0,0h0h0.4h0h0l0.5,0h0h0l0.5-0.1h0h0l0.5-0.1h0h0l0.9-0.3l0,0
			l0,0l0.4-0.3l0,0l0,0l0.4-0.3l0.4-0.3l0,0l0,0l0.1-0.1l-0.1,0.4l0,0.1l0,0.1l0.1,0.3l0,0.2l0.2,0.1l0.4,0.2l0,0l0,0l0.4,0.1l0,0
			l0,0l0.5,0.1h0h0l0.4,0h0h0h0.9h0h0l0.4,0h0h0l0.5-0.1h0h0l0.4-0.1l0,0l0,0l0.5-0.2l0.1,0l0.1-0.1l0.2-0.3l0.1-0.1l0-0.1l0.2-0.9
			l0.1-0.4v0v0l0.2-0.9v0v0l0.1-0.4l0.1-0.4l0,0l0,0l0.1-0.4l0.1-0.4l0.1-0.4v0v0l0.2-0.9l0.1-0.4l0,0l0,0l0.1-0.5v0v0l0.1-0.4
			l0.1-0.4l0.1-0.4v0v0l0-0.1l0.2-0.3l0.2-0.2l0.1-0.1l0.3-0.2l0.2-0.1l0.3-0.1l0.4-0.1l0.3,0l0.1,0.1l0,0.2l-0.1,0.4l-0.1,0.3l0,0
			v0l-0.1,0.5l-0.1,0.4l-0.1,0.5l-0.3,0.9v0v0l-0.1,0.5l-0.1,0.4l-0.1,0.5v0v0l-0.1,0.4v0v0l-0.1,0.5v0v0l0,0.5l0,0.5v0v0l0,0.5v0.1
			l0,0.1l0.2,0.5l0,0l0,0l0.3,0.4l0,0l0,0l0.3,0.3l0,0l0,0l0.4,0.3l0,0l0.1,0l0.5,0.1l0,0h0l0.5,0.1h0h0l0.5,0h0h0l0.5,0h0h0
			l0.5-0.1h0h0l0.5-0.1h0l0,0l0.5-0.1h0h0l0.5-0.2l0,0l0,0l0.5-0.2l0,0l0,0l0.4-0.2l0,0l0,0l0.4-0.3l0,0l0,0l0.4-0.3l0.4-0.3l0,0
			l0,0l0.3-0.3l0,0l0,0l0.2-0.2l0,0.1l0,0l0,0l0.5,0.9l0,0l0,0l0.3,0.4l0,0l0,0l0.4,0.3l0,0l0,0l0.4,0.2l0,0l0,0l0.4,0.2l0,0l0,0
			l0.5,0.1l0,0h0l0.5,0.1h0h0h0.5h0h0l0.5,0h0h0l0.4-0.1h0h0l0.5-0.1h0l0,0l0.5-0.1l0,0l0,0l0.4-0.2l0,0l0,0l0.4-0.3l0,0l0,0
			l0.4-0.3h0h0l0.1-0.1l-0.1,0.4l-0.1,0.2l-0.3,0.4l-0.1,0l-0.4,0.2l-0.4,0.1l-0.3,0.1h0h0l-0.5,0.1l-0.5,0.1l0,0l0,0l-0.5,0.1l0,0
			l0,0l-0.5,0.2l0,0l0,0l-0.4,0.2l-0.4,0.2l0,0l0,0l-0.4,0.2l0,0l0,0l-0.4,0.3l0,0l0,0l-0.4,0.3l0,0l0,0l-0.3,0.4l0,0l0,0l-0.3,0.4
			l0,0l0,0l-0.2,0.4l0,0l0,0l-0.2,0.4l0,0l0,0l-0.1,0.5l0,0v0l-0.1,0.5v0v0l-0.1,0.5l0,0l0,0l0.1,0.5v0l0,0l0.1,0.5l0,0l0,0l0.2,0.4
			l0,0l0,0l0.3,0.4l0,0l0,0l0.3,0.3l0,0l0,0l0.4,0.2l0,0l0,0l0.4,0.2l0,0l0,0l0.5,0.2l0,0l0,0l0.5,0.1h0h0l0.5,0.1h0h0l0.5,0h0h0
			h0.5h0h0l0.5-0.1h0h0l0.5-0.1h0h0l0.5-0.1l0.5-0.1h0l0,0l0.4-0.1l0,0l0,0l0.4-0.2l0,0l0,0l0.4-0.3l0,0l0,0l0.4-0.3l0,0l0,0
			l0.3-0.3l0,0l0,0l0.3-0.4v0v0l0.3-0.4l0,0l0,0l0.5-0.9l0,0v0l0.4-0.9l0,0l0,0l0.1-0.4l0.2-0.5v0v0l0.1-0.4l0.1-0.3v0v0l0.1-0.2v0
			v0l0-0.1l0.2-0.3l0.1-0.1l0.1-0.1l0.2-0.2l0.3-0.2l0.2-0.1l0.2-0.1h0h0l0.5-0.3l0.2-0.1l0,0l0,0l0.4-0.3l0,0l0,0l0.4-0.3l0.4-0.3
			h0h0l0.4-0.3l0,0l0,0l0.3-0.3l0,0l0,0l0.6-0.8l0,0l0,0l0.3-0.4l0.3-0.4l0.3-0.4l0,0l0,0l0.3-0.4l0,0v0l0.2-0.4l0.3-0.4l0,0l0,0
			l0.2-0.4l0.3-0.4l0.1-0.2l0,0l0,0l0.1-0.3l0,0l0,0l0-0.1l0-0.1l-0.1-0.1l-0.1-0.2l0,0l0,0l-0.1-0.1l0,0l0,0l-0.3-0.2l0,0l0,0
			l-0.2-0.1l0,0l0,0l-0.3-0.1l-0.1,0h-0.1h-0.2h-0.1l-0.1,0.1l-0.1,0.1l-0.1,0.1l0,0.1l0,0.1l-0.1,0.1l0,0l0,0l-0.1,0.1l0,0l0,0
			l-0.2,0.4l-0.3,0.4l-0.2,0.4v0v0l-0.2,0.4l-0.3,0.4l-0.5,0.7l-0.3,0.4l-0.3,0.3l-0.3,0.3l-0.2,0.2l0,0l0,0l-0.1,0.1l-0.2,0.1
			l-0.2,0.1l0,0l0,0l-0.2,0.2L259,212l0,0l0,0l0,0l0.1-0.3l0.1-0.3v0v0l0-0.2l0.1-0.2l0,0l0,0l0.1-0.4l0.1-0.4v0v0l0.1-0.4l0,0l0,0
			l0.1-0.4v0v0l0.1-0.4l0.2-0.8l0.1-0.4v0v0l0.2-0.8l0.1-0.2v0v0l0.2-0.6l0-0.1v-0.1v-0.2v-0.1l-0.1-0.1l-0.1-0.2l0,0l0,0l-0.2-0.1
			l0,0l0,0l-0.3-0.2l0,0l0,0l-0.2-0.1l-0.2-0.1l0,0l0,0l-0.3-0.1h0h0l-0.7-0.2l0,0h0l-0.5-0.1l0,0l0,0l-0.3,0l-0.2,0h0h0h-0.5h0l0,0
			l-0.3,0.1h0l0,0l-0.3,0.1l0,0l0,0l-0.1,0.1l-0.1,0l0,0l-0.1,0.2l0,0.1l0,0.1l-0.1,0.2l-0.1,0.1l0,0l0,0l-0.1,0.2l-0.5,1.5
			l-0.2,0.5l-0.2,0.4l-0.3,0.5l-0.2,0.4l-0.3,0.4l-0.3,0.4L253,210l-0.3,0.2l-0.4,0.1l-0.2-0.1l-0.1-0.2l-0.1-0.4v-0.3l0.1-0.4
			l0.1-0.4l0.1-0.4l0.1-0.4l0.3-0.8l0.2-0.4l0.3-0.4l0.6-0.7l0.3-0.3l0.3-0.3l0.4-0.2l0.4-0.2l0.4-0.2l0.4-0.1l0.4-0.1l0.4,0l0.4,0
			l0.4,0.1l0.4,0.1h0h0l0.4,0.1l0.4,0.1l0.4,0.2l0.4,0.2l0.3,0.1l0.1,0.1l0,0l0,0l0.2,0.1l0.2,0.1l0.1,0.1l0.1,0l0.3,0.1l0.1,0
			l0.1,0l0.1,0l0,0l0,0l0.3-0.1l0.1,0l0,0l0.3-0.2l0,0l0,0l0.1-0.1l0,0l0,0l0.5-0.7l0,0l0,0l0.1-0.3l0,0l0,0l0.1-0.3l0-0.1v-0.1V203
			v-0.1l0-0.1l-0.1-0.2l0-0.1l-0.1-0.1l-0.1-0.1l-0.2-0.2l0,0l0,0l-0.2-0.1l-0.2-0.1l0,0h0l-0.4-0.3l0,0l0,0l-0.9-0.4l0,0l0,0
			l-0.5-0.2l0,0l0,0l-0.5-0.1l0,0l0,0l-0.5-0.1h0h0l-0.5-0.1l-0.5-0.1h0h0l-0.5-0.1h0h0l-0.5,0h0h0h-0.5h0h0l-1,0.1h0h0l-0.9,0.1h0
			h0l-0.4,0.1h0h0l-0.4,0.1l0,0l0,0l-0.4,0.2l0,0l0,0l-0.4,0.2l0,0l0,0l-0.4,0.2l-0.4,0.2l0,0l0,0l-1.1,0.7l0,0l0,0l-0.7,0.6l0,0
			l0,0l-0.3,0.3l-0.3,0.3l0,0l0,0L249,204l0,0l0,0l-0.3,0.4l-0.3,0.4v0v0l-0.3,0.4l0,0l0,0l-0.2,0.4v0v0l-0.2,0.4l0,0l0,0l-0.3,0.9
			l0,0l0,0l-0.2,0.5l0,0l0,0l0,0l-0.1,0.1l-0.2,0.4l-0.3,0.4l-0.3,0.4l-0.3,0.4l0,0l0,0l-0.3,0.4l-0.3,0.3l-0.3,0.3l-0.4,0.2l-0.2,0
			l0,0l0-0.4v-0.4l0.1-0.5l0.2-0.8l0.1-0.4l0,0l0,0l0.1-0.4v0v0l0.1-0.4l0.1-0.4l0.1-0.4l0.1-0.4l0,0v0l0.1-0.4l0.1-0.4v0v0l0.1-0.5
			v0v0l0.1-0.5l0.1-0.5v0v0v-0.5v-0.1l0-0.1l-0.1-0.5l0,0l0,0l-0.2-0.4l0,0l0,0l-0.3-0.3l0,0l0,0l-0.4-0.3l0,0l0,0l-0.4-0.2l0,0l0,0
			l-0.5-0.2l0,0l0,0l-0.5-0.1h0h0l-0.5,0h0h0l-0.5,0.1h0h0l-0.5,0.1h0l0,0l-1,0.3l0,0l0,0l-0.5,0.2l0,0l0,0l-0.5,0.2h0h0l-0.1,0.1
			l-0.1-0.3l-0.1-0.1L239,201l-0.6-0.3l0,0l0,0l-0.5-0.1h0h0l-0.5-0.1h0h0l-0.5,0h0h0l-0.5,0.1l-1,0.1h0l0,0l-0.3,0.1h0h0l-0.4,0.1
			l-0.1,0l-0.1,0.1l-0.3,0.3l-0.1,0.1l0,0.1l-0.4,1.3v0v0l-0.1,0.4l-0.3,0.8l-0.2,0.4l0,0l0,0l-0.2,0.4v0v0l-0.1,0.4v0v0l-0.1,0.5
			l-0.1,0.4l-0.4,1.1l-0.2,0.3l0,0l0,0l-0.6,0.8l0,0l0,0l-0.2,0.4l-0.3,0.4l-0.3,0.3l0,0v0l-0.3,0.4l-0.3,0.3l-0.4,0.3l-0.3,0.1
			l-0.1,0l-0.1-0.2V210l0.1-0.4l0.1-0.4l0,0l0,0l0.1-0.4l0.1-0.4l0.2-0.4l0.3-0.9l0,0l0,0l0.1-0.4l0.1-0.4l0.2-0.4v0v0l0.1-0.4l0,0
			l0,0l0.1-0.5v0v0l0.1-0.4l0.2-0.4l0.5-1.3l0,0l0,0l0.2-0.5l0.2-0.4l0.1-0.2l-0.1-0.2l-0.2-0.3l-0.1-0.1l-0.1-0.1l-0.6-0.2l0,0l0,0
			l-0.5-0.1h0h0l-0.5-0.1h0h0H229h0h0l-1,0.1h0h0l-0.5,0.1h0l0,0l-0.6,0.2l-0.1,0l-0.1,0l-0.3,0.2l-0.1,0.1l0,0.1l-0.2,0.4l-0.2,0.4
			l0,0l0,0l-0.2,0.9l-0.2,0.4v0v0l-0.1,0.4l-0.2,0.4l-0.2,0.4l0,0v0l-0.1,0.4l-0.2,0.4l0,0l0,0l-0.2,0.9l-0.3,0.8l-0.2,0.2l-0.2,0.3
			l0,0l0,0l0,0.1l-0.2,0.3l0,0l0,0l-0.3,0.4l-0.7,0.7l-0.4,0.3l-0.4,0.2l-0.4,0.2l-0.4,0.2l-0.5,0.1l-0.4,0.1l-0.3,0l0,0l0,0l-0.2,0
			l-0.2,0h-0.1l-0.3-0.1h0h0l-0.1,0l-0.2-0.1l-0.1,0l-0.1-0.1l0,0l0,0l0,0l0-0.1l0-0.1l0,0l0,0l0,0l0-0.1l0-0.3l0-0.2v0v0v-0.3
			l0.1-0.7v0v0l0-0.4l0-0.2v0v0l0-0.2l0.1-0.2l0-0.1l0.1-0.1l0.1-0.1l0.1-0.1l0.1-0.1l0.2-0.1l0,0l0,0l0.2-0.1l0.4-0.2l0,0l0,0
			l0.4-0.2h0l0,0l0.4-0.2l0,0l0,0l1.6-1l0,0l0,0l0.4-0.3l0,0l0,0l0.7-0.7l0.3-0.3l0,0l0,0l0.7-0.7l0,0l0,0l0.3-0.4l0.3-0.4l0,0l0,0
			l0.3-0.4l0,0l0,0l0.3-0.4l0,0l0,0l0.2-0.4l0,0l0,0l0.2-0.5v0v0l0.2-0.4l0,0l0,0l0.2-0.5l0,0l0,0l0.1-0.5v0v0l0.2-0.9l0,0v0v-0.5v0
			v0l0-0.5v0v0l-0.1-0.5v0v0l-0.1-0.4l0,0l0,0l-0.2-0.4l0,0l0,0l-0.5-0.8l0,0l0,0l-0.3-0.4l0,0l0,0l-0.3-0.3l0,0l0,0l-0.4-0.3l0,0
			l0,0l-0.4-0.2l0,0l0,0l-0.4-0.2l0,0l0,0l-0.4-0.1l0,0h0l-0.5-0.1L222.9,192.8L222.9,192.8z M180.1,196.2h0.4l0.4,0.1l0.3,0.2
			l0.2,0.3l0,0.4l-0.1,0.4l-0.1,0.3l-0.2,0.3l-0.3,0.3l-0.3,0.2l-0.4,0.2l-0.4,0.1l-0.4,0.1h-0.4l-0.9-0.1l-0.4-0.1l-0.4-0.1
			l-0.6-0.3l-0.2-0.1l0,0v0l0-0.1l0,0l0,0l0.2-0.3l0.3-0.3l0.3-0.3l0.4-0.3l0.4-0.3l0.4-0.2l0.4-0.2l0.4-0.1L180.1,196.2
			L180.1,196.2z M222.3,196.5L222.3,196.5l0.1,0l0,0l0.1,0.3v0.4l-0.1,0.5l-0.1,0.4l-0.1,0.4l-0.2,0.4v0v0l-0.1,0.4l-0.2,0.4
			l-0.2,0.4l-0.4,0.8l-0.2,0.4l-0.6,0.7l-0.3,0.3l-0.3,0.3l-0.2,0.1l0,0l0,0l-0.2,0.1l0,0l0-0.1l0,0l0,0l0.1-0.3l0.1-0.4l0.5-1.4v0
			v0l0.1-0.5l0.2-0.5l0.3-0.8l0.2-0.4v0v0l0.2-0.4l0.2-0.4l0.2-0.4l0.4-0.5L222.3,196.5L222.3,196.5L222.3,196.5z M206.4,203.8
			l0.3-0.1l0.3,0.1l0.2,0.2l0.1,0.3l0.1,0.4l0,0.4v0.4l-0.1,0.4l-0.1,0.4l0,0v0l-0.1,0.4l-0.1,0.4l-0.1,0.2l0,0l0,0l-0.1,0.2
			l-0.1,0.1h0l0,0l-0.2,0.1l0,0l0,0l-0.3,0.1l-0.1,0l0,0l0,0l-0.2,0.1l0,0l0,0l-0.1,0.1l-0.1,0.1l0,0.1l0,0l-0.1,0.1l0,0l0,0
			l-0.1,0.1l0,0l0,0l0,0.1l-0.1,0.2l0,0v0l0,0.2v0v0v0.2l0,0.3l0,0l-0.1,0.1l-0.2,0.1h-0.4l-0.1,0l0,0l-0.1,0l-0.1-0.1l0,0l-0.1-0.1
			l0-0.1l-0.1-0.1l-0.1-0.4v-0.4l0-0.5l0.1-0.4l0.1-0.4l0.3-0.8v0v0l0.2-0.8l0.1-0.4l0.2-0.4l0.2-0.4l0.2-0.3l0.2-0.3l0.3-0.2
			L206.4,203.8L206.4,203.8z M191.6,203.8l0.3-0.1l0.3,0.1l0.2,0.2l0.1,0.3l0.1,0.4l0,0.4v0.4l-0.1,0.4l-0.1,0.4l0,0v0l-0.1,0.4
			l-0.1,0.4l-0.1,0.2l0,0l0,0l-0.1,0.2l-0.1,0.1h0l0,0l-0.2,0.1l0,0l0,0l-0.3,0.1l-0.1,0l0,0l0,0l-0.2,0.1l0,0l0,0l-0.1,0.1
			l-0.1,0.1l0,0.1l0,0l-0.1,0.1l0,0l0,0l-0.1,0.1l0,0l0,0l0,0.1l-0.1,0.2l0,0v0l0,0.2v0v0v0.2l0,0.3l0,0l-0.1,0.1l-0.2,0.1h-0.4
			l-0.1,0l0,0l-0.1,0l-0.1-0.1l0,0l-0.1-0.1l0-0.1l-0.1-0.1l-0.1-0.4v-0.4l0-0.5l0.1-0.4l0.1-0.4l0.3-0.8v0v0l0.2-0.8l0.1-0.4
			l0.2-0.4l0.2-0.4l0.2-0.3l0.2-0.3l0.3-0.2L191.6,203.8L191.6,203.8z M253.1,216.4L253.1,216.4l0,0.2l-0.2,0.7l-0.2,0.4l-0.2,0.3
			l-0.3,0.3l-0.3,0.1l-0.1,0l-0.2,0l-0.1,0l-0.1-0.1l0-0.1l0-0.1l0-0.2l0-0.1l0.1-0.2l0.1-0.1l0.3-0.3l0.2-0.2l0.4-0.3l0.2-0.1
			l0.2-0.1l0,0l0,0l0.1-0.1l0,0L253.1,216.4L253.1,216.4L253.1,216.4L253.1,216.4z"/>
	</g>
</g>
</svg>
