<?xml version="1.0" encoding="utf-8"?>
<!-- Generator: Adobe Illustrator 21.1.0, SVG Export Plug-In . SVG Version: 6.00 Build 0)  -->
<svg version="1.1" id="Layer_1" xmlns="http://www.w3.org/2000/svg" xmlns:xlink="http://www.w3.org/1999/xlink" x="0px" y="0px"
	 viewBox="0 0 2564.2 2954.1" style="enable-background:new 0 0 2564.2 2954.1;" xml:space="preserve">
<style type="text/css">
	.st0{fill:#CB2127;}
	.st1{fill:#2084C6;}
	.st2{fill:#231F20;}
	.st3{fill:#4F81B6;}
	.st4{fill:#C25751;}
	.st5{fill:#404041;}
	.st6{fill:#FFFFFF;}
</style>
<g>
	<g>
		<path class="st0" d="M368.3,227l-33.4-59l16.1-9.1l13,22.9l21.4-12.1l-13-22.9l16.1-9.1l33.4,59l-16.1,9.1l-13.6-24l-21.4,12.1
			l13.6,24L368.3,227z"/>
		<path class="st0" d="M436.5,191.1l-22.3-64l39.2-13.7l4.9,14l-22.2,7.8l3.9,11.1l20.9-7.3l4.8,13.7l-20.9,7.3l3.8,10.8l22.2-7.8
			l5,14.3L436.5,191.1z"/>
		<path class="st0" d="M481,174.9l11.9-70.7l22.8-3.8l34.3,63l-18.1,3l-5.4-11.4l-25.9,4.3l-1.5,12.5L481,174.9z M502.3,145.7
			l18.1-3l-10.5-20.9c-0.3-0.6-0.8-1.7-1.4-3.1c-0.6-1.4-1.4-3.3-2.4-5.5c-0.1,1.7-0.2,3.3-0.4,4.9c-0.1,1.6-0.3,3.1-0.5,4.5
			L502.3,145.7z"/>
		<path class="st0" d="M564.6,164.3l-0.8-51.8l-15.2,0.2l-0.3-16l48.8-0.8l0.3,16l-15.2,0.2l0.8,51.8L564.6,164.3z"/>
		<path class="st0" d="M610.4,165.5l7.8-67.3l18.5,2.1l-7.8,67.3L610.4,165.5z"/>
		<path class="st0" d="M645.7,169l18.5-65.2l17.2,4.9l15.1,40.5c0.3,0.8,0.7,2.4,1.2,4.8c0.5,2.4,1,5.2,1.5,8.4
			c0.4-2.8,0.8-5.3,1.3-7.4c0.4-2.2,0.9-4.1,1.3-5.7l9.1-32.2l17.1,4.8L709.4,187l-17.1-4.8l-15.1-40.7c-0.3-0.8-0.7-2.4-1.2-4.8
			c-0.5-2.4-1-5.1-1.5-8.3c-0.4,2.8-0.8,5.3-1.3,7.5c-0.4,2.2-0.9,4-1.3,5.7l-9.1,32.2L645.7,169z"/>
		<path class="st0" d="M763,185.8l6.7-12.5l32,17.2c-0.2,0.4-0.4,0.9-0.7,1.4c-0.3,0.5-0.6,1.2-1.1,2.2c-5.5,10.3-12.5,16.8-21,19.5
			c-8.5,2.7-17.6,1.5-27.5-3.8c-4.8-2.6-8.7-5.7-11.7-9.1c-3-3.5-5.1-7.5-6.5-12.1c-1.3-4.4-1.7-8.9-1.1-13.7
			c0.5-4.7,2-9.2,4.3-13.5c2.4-4.5,5.4-8.1,8.9-11.1c3.5-2.9,7.6-5.1,12.2-6.4c4.6-1.3,9.2-1.7,13.9-1.1c4.7,0.6,9.3,2.1,13.7,4.5
			c5.8,3.1,10.4,7.1,13.6,11.8c3.2,4.7,5.2,10.2,5.8,16.4l-17.7-0.8c-0.4-3.2-1.4-6-2.9-8.2c-1.5-2.3-3.6-4.1-6.2-5.5
			c-4.9-2.6-9.6-3.1-14.1-1.3c-4.5,1.7-8.3,5.4-11.4,11c-3.1,5.7-4.1,10.9-3,15.7c1,4.8,4,8.5,8.9,11.1c4.1,2.2,8.1,3.1,12,2.5
			c3.8-0.5,6.9-2.4,9.2-5.5L763,185.8z"/>
	</g>
	<g>
		<path class="st1" d="M405,864.1l-10.6,17.2c-0.7-3.7-1.8-6.8-3.2-9.2c-1.5-2.4-3.4-4.4-5.9-5.9c-4.5-2.8-9.1-3.5-13.8-2.1
			c-4.7,1.4-8.6,4.5-11.6,9.5c-2.8,4.6-3.8,9.3-2.8,14.1c1,4.8,3.7,8.6,8.1,11.3c2.4,1.5,5.1,2.4,7.9,2.6c2.8,0.2,6.1-0.2,9.7-1.3
			l-10.6,17.2c-3.2-0.3-6.3-1-9.1-1.9c-2.8-0.9-5.5-2.1-8.1-3.7c-3.2-1.9-5.8-4.1-8-6.5c-2.2-2.4-4-5-5.3-7.9
			c-2.5-5.5-3.6-11.2-3.1-17c0.4-5.8,2.3-11.4,5.7-16.9c2.7-4.4,5.9-8,9.6-10.7c3.7-2.7,7.8-4.7,12.5-5.9c4.5-1.1,8.8-1.3,13.1-0.6
			c4.3,0.7,8.5,2.4,12.7,5c2.5,1.6,4.8,3.4,6.9,5.5C401.3,858.9,403.2,861.3,405,864.1z"/>
		<path class="st1" d="M469.4,923.6c-1.7,4.6-4.2,8.5-7.3,11.9c-3.2,3.4-6.9,6-11.3,8c-4.4,1.9-9,2.9-13.8,3.1
			c-4.8,0.1-9.4-0.6-13.9-2.3c-4.5-1.7-8.6-4.2-12.1-7.4c-3.5-3.2-6.3-7-8.3-11.3c-2.1-4.4-3.2-8.9-3.4-13.5
			c-0.2-4.7,0.6-9.2,2.3-13.7c1.7-4.5,4.1-8.5,7.3-11.9c3.2-3.4,7-6,11.5-7.9c4.3-1.9,8.9-3,13.7-3.1c4.8-0.1,9.4,0.6,14,2.3
			c4.5,1.7,8.5,4.2,12.1,7.4c3.5,3.3,6.3,7,8.3,11.4c2,4.3,3.1,8.8,3.3,13.4C471.9,914.5,471.1,919.1,469.4,923.6z M428.5,929.6
			c4.8,1.8,9.4,1.5,13.9-0.8c4.5-2.4,7.7-6.2,9.7-11.6c2-5.3,2.1-10.4,0.2-15.1c-1.8-4.7-5.1-8-9.8-9.8c-4.8-1.8-9.4-1.5-13.9,0.9
			c-4.5,2.4-7.7,6.2-9.7,11.6c-2,5.4-2.2,10.5-0.4,15.1C420.3,924.5,423.6,927.8,428.5,929.6z"/>
		<path class="st1" d="M556.8,937.5c-0.7,4.8-2.2,9.2-4.5,13.2c-2.4,4-5.5,7.4-9.3,10.3c-3.9,2.8-8.2,4.8-12.8,6
			c-4.7,1.2-9.3,1.4-14.1,0.8c-4.8-0.7-9.3-2.2-13.4-4.6c-4.1-2.4-7.6-5.5-10.5-9.2c-3-3.8-5.1-8-6.3-12.5
			c-1.2-4.5-1.5-9.1-0.8-13.9c0.7-4.8,2.2-9.2,4.6-13.2c2.4-4,5.5-7.4,9.4-10.3c3.8-2.8,8-4.8,12.6-6c4.6-1.2,9.4-1.4,14.2-0.8
			c4.8,0.7,9.2,2.2,13.4,4.6c4.2,2.4,7.7,5.5,10.6,9.3c2.9,3.8,5,7.9,6.2,12.4C557.2,928.1,557.4,932.7,556.8,937.5z M518.2,952.3
			c5.1,0.7,9.5-0.6,13.4-3.9c3.8-3.3,6.1-7.7,6.9-13.4c0.8-5.6-0.2-10.6-3.1-14.8c-2.8-4.2-6.8-6.7-11.7-7.4
			c-5.1-0.7-9.5,0.6-13.4,3.9c-3.8,3.3-6.1,7.8-6.9,13.4c-0.8,5.8,0.2,10.7,2.9,14.9C509,949.1,513,951.5,518.2,952.3z"/>
		<path class="st1" d="M577.1,970.5l-2.8-67.7l18.5-0.8l2.1,51.9l22.9-0.9l0.6,15.8L577.1,970.5z"/>
		<path class="st1" d="M639.1,965.8l-11-66.9l18.4-3l11,66.9L639.1,965.8z"/>
		<path class="st1" d="M684.7,958l-21.6-64.3l16.9-5.7l35.4,24.9c0.7,0.5,1.9,1.6,3.7,3.3c1.8,1.7,3.7,3.7,6,6.1
			c-1.2-2.5-2.3-4.8-3.2-6.9c-0.9-2-1.6-3.8-2.1-5.5l-10.7-31.7l16.8-5.7l21.6,64.3l-16.8,5.6l-35.4-25c-0.7-0.5-2-1.6-3.7-3.3
			c-1.8-1.7-3.7-3.7-5.9-6c1.3,2.6,2.3,4.9,3.2,6.9c0.9,2,1.6,3.8,2.1,5.4l10.7,31.7L684.7,958z"/>
		<path class="st1" d="M788.7,886.6l-7.3-12.2l31.1-18.7c0.3,0.4,0.5,0.8,0.9,1.3c0.3,0.5,0.7,1.2,1.3,2.1c6,10,8.1,19.3,6.1,28
			c-2,8.7-7.7,15.9-17.3,21.7c-4.7,2.8-9.3,4.7-13.8,5.4c-4.5,0.8-9.1,0.6-13.7-0.6c-4.4-1.1-8.5-3.1-12.3-6
			c-3.8-2.9-7-6.4-9.5-10.5c-2.6-4.3-4.3-8.8-5-13.3c-0.7-4.5-0.5-9.1,0.7-13.8c1.2-4.6,3.2-8.7,6.1-12.5c2.9-3.7,6.5-6.9,10.9-9.5
			c5.7-3.4,11.4-5.3,17.1-5.7c5.7-0.4,11.4,0.7,17.1,3.4l-9.8,14.9c-3-1.3-5.8-1.8-8.6-1.7c-2.7,0.1-5.3,1-7.9,2.5
			c-4.7,2.9-7.5,6.7-8.3,11.5c-0.8,4.8,0.4,9.9,3.7,15.4c3.3,5.5,7.3,9.1,12,10.6c4.6,1.5,9.3,0.9,14.1-2c4-2.4,6.8-5.4,8.3-9
			c1.5-3.6,1.5-7.2,0-10.7L788.7,886.6z"/>
	</g>
	<g>
		<path class="st2" d="M420.1,312.8c5.4-5.1,15.3-14.1,23.4-21.6c-0.9-4.5-1.7-9.1-1.7-13.1c0-10.4,5.5-16.8,13.7-16.8
			c7.4,0,10.6,5.4,10.6,10.4c0,7-6.1,13.4-12.8,19.9c0.9,4.7,1.6,9.6,1.6,13.5c0,14.1-9.7,23.1-22.9,23.1c-5.1,0-9.6-1.4-13.3-3.8
			c-3.4,4.3-5.1,8.6-4.1,14.3H408c-1.1-6.1,0.9-12.6,5.7-18.9c-2.6-3.5-4.1-7.8-4.1-12.9c0-16.1,15.1-24.4,27.2-18.2l-3.1,7.6
			c-8-3.8-15.3,1.9-15.3,10.2C418.5,308.8,419.1,311,420.1,312.8z M445,299.4c-6.8,6.3-13.7,12.7-19.7,18.3c1.9,1.1,4,1.6,6.5,1.6
			c8.1,0,13.7-6.1,13.7-14.7C445.5,303.2,445.2,301.4,445,299.4z M451.7,283.2c4.4-4.4,6.6-7.5,6.6-10.4c0-1.6-0.7-3.1-2.7-3.1
			c-3.3,0-4.4,4.3-4.4,7.6C451.1,279,451.4,281,451.7,283.2z"/>
		<path class="st2" d="M486.1,304.8c-5.6,9.7-12.5,17.9-20.3,17.9c-6.3,0-10.5-4.8-5.3-17.6l8.3-20.3h10.1l-9.1,22.6
			c-3.2,8-1.9,9.1-0.6,9.1c3.1,0,8.3-5.6,13.3-14.3C483.9,302.2,485.7,303.6,486.1,304.8z M471.8,275.6c0-3.1,2.5-5.6,5.6-5.6
			s5.7,2.5,5.7,5.6c0,3.1-2.6,5.7-5.7,5.7S471.8,278.7,471.8,275.6z"/>
		<path class="st2" d="M525.9,304.8c-5.7,9.9-12.3,17.9-20.5,17.9c-6.9,0-10.1-5.2-5-17.8l1.6-4.1c1.4-3.4,2.5-6.1,2.5-7.2
			c0-0.9-0.8-1.5-1.9-1.5c-1.9,0-5.1,1.6-8.2,5.1l-10,24.7h-10.1l15-37h10.1l-1.5,3.8c1.4-1.4,6.1-4.7,11.1-4.7c4.1,0,6.4,2.2,6.4,6
			c0,2-0.7,4.6-2.2,8.3l-3.7,9.3c-3.4,8.2-1.8,9.1-0.6,9.1c3.1,0,8.2-5.6,13.3-14.3C523.6,302.2,525.4,303.6,525.9,304.8z"/>
		<path class="st2" d="M560.4,304.8c-4.9,8.6-13.3,17.9-26.3,17.9c-9,0-13.6-4.5-13.6-12c0-9.8,7.6-26.9,21.7-26.9
			c9.2,0,13.5,6.9,7.7,18.2h-10c4.1-8.3,4.1-10.2,1.9-10.2c-6.4,0-11.8,14.3-11.8,19.3c0,4.3,4.1,5.4,6.9,5.4
			c6.9,0,14.7-5.3,19.8-14.3C558.1,302.2,560,303.6,560.4,304.8z"/>
		<path class="st2" d="M594.9,304.8c-4.9,8.6-13.4,17.9-26.3,17.9c-9,0-13.5-4.5-13.5-12c0-9.8,7.6-26.9,21.8-26.9
			c7.7,0,13.5,5.6,9,15.3c-3.1,6.9-9.1,10.3-20.9,8.9c0,0-2.7,8.5,6.3,8.5c7.1,0,14.8-5.3,20-14.3
			C592.6,302.2,594.5,303.6,594.9,304.8z M566.7,302.5c6.6,1.1,9.1-2.1,10.6-5.7c1.4-2.9,1.6-4.9-0.9-4.9
			C570.7,291.9,566.7,302.5,566.7,302.5z"/>
		<path class="st2" d="M621.7,321.8h-9.8l12.8-32c-3.5,3.9-7.5,8.2-11.8,12.3l-3.9-4.4c15-14.1,23.5-27.1,23.5-27.1h9.8L621.7,321.8
			z"/>
		<path class="st2" d="M642.5,293.3c0.1-10,8.6-23.6,20.8-23.6c2.6,0,12.3,0.8,12.3,13.1c0,13-10.1,39.9-27.2,39.9
			c-8.9,0-13.3-7.4-10.4-17h10.1c-1.1,2.4-3.1,9.4,1.2,9.4c3.6,0,7.6-6,11.5-14.3c-2.3,1.6-5.1,3.1-8.7,3.1
			C645.5,303.9,642.4,299.5,642.5,293.3z M652,293.1c0,2.5,1.1,4.2,3.4,4.2c2.9,0,6.7-2.8,9.1-6.1c1.1-3.9,1.9-7.1,1.9-9.3
			c0-3.7-1.7-4.6-3.2-4.6C657.7,277.2,652,287.8,652,293.1z"/>
		<path class="st2" d="M715.9,274.7c-5.6,7.6-19.2,25.8-28.5,47h-11.6c6.3-15.2,19.4-31.2,27.8-41.5c-0.6,0.1-1.5,0.2-2.6,0.2
			c-1.6,0-5.3-0.4-8.8-0.9l-3.5,8.8h-9.8l7.1-17.8c0,0,17.2,2.4,19.5,2.4c2.9,0,5.2-1.1,6.8-2.4L715.9,274.7z"/>
		<path class="st2" d="M704.5,309.2l3.6-8.7l27.2-29.9h13.3l-12,29.7c3.2-0.4,4.6-1.6,4.6-1.6l3.9,4.3c0,0-3.4,6.1-12.1,6.2
			l-5.1,12.6h-9.8l5.1-12.6H704.5z M726.8,300.5L735,280l-18.6,20.5H726.8z"/>
	</g>
	<g>
		<path class="st2" d="M149.6,391l-45.1,130.8h35.5l6.8-23.4h50.7l6.6,23.4h35.5L194.3,391H149.6z M154.4,473l13.1-43.2
			c0.8-2.7,1.5-5.5,2.3-8.4c0.7-2.9,1.5-6,2.3-9.2c1.1,4.6,2.1,8.3,2.8,11.3c0.7,2.9,1.3,5,1.7,6.3l13.3,43.2H154.4z"/>
		<path class="st2" d="M338.4,469.1c9.5-2.1,16.8-6.3,21.8-12.6c5-6.3,7.5-14.6,7.5-24.7c0-6.7-1.3-12.8-3.8-18.3
			c-2.5-5.5-6.2-10.1-10.9-13.7c-4.2-3.2-9.1-5.4-14.9-6.7c-5.8-1.3-15.9-2-30.5-2h-37.3v130.8h33.4v-51.2l30,51.2h40.3L338.4,469.1
			z M327.2,448.9c-3.5,2.6-9.2,3.9-16.8,3.9h-6.6v-34.4h7.1c7.8,0,13.4,1.4,16.7,4.2c3.3,2.8,5,7.4,5,14
			C332.5,442.2,330.7,446.3,327.2,448.9z"/>
		<path class="st2" d="M430.4,514.9c5.1,3.5,10.6,6,16.7,7.7c6,1.7,12.6,2.5,19.8,2.5c5.7,0,11.4-0.7,17-2.1
			c5.6-1.4,11.2-3.4,16.9-6.2v-39.1c-4.9,5.5-9.8,9.5-14.6,12c-4.9,2.5-10.1,3.8-15.6,3.8c-10,0-18.2-3.5-24.7-10.4
			c-6.5-6.9-9.7-15.6-9.7-26.1c0-11.3,3.2-20.4,9.5-27.4c6.3-7,14.6-10.5,24.9-10.5c5.5,0,10.7,1.3,15.6,3.8
			c4.9,2.5,9.7,6.5,14.6,11.9v-39c-5.7-2.7-11.3-4.8-16.9-6.2c-5.6-1.4-11.3-2.1-17-2.1c-9.5,0-18.2,1.6-26,4.7
			c-7.8,3.2-14.8,7.9-21,14.3c-6.6,6.7-11.5,14.1-14.7,22.3c-3.3,8.2-4.9,17.3-4.9,27.3c0,12.5,2.6,23.7,7.7,33.6
			C413.2,500.1,420.7,508.3,430.4,514.9z"/>
		<path class="st2" d="M566.1,498.4h50.7l6.6,23.4h35.5L613.6,391h-44.7l-45.1,130.8h35.5L566.1,498.4z M586.9,429.8
			c0.8-2.7,1.5-5.5,2.3-8.4c0.7-2.9,1.5-6,2.3-9.2c1.1,4.6,2.1,8.3,2.8,11.3c0.7,2.9,1.3,5,1.7,6.3l13.3,43.2h-35.5L586.9,429.8z"/>
		<path class="st2" d="M722.9,521.9c17,0,29.6-0.9,37.7-2.8c8.1-1.9,15.3-5,21.6-9.4c8.3-5.8,14.6-13.2,18.9-22.2
			c4.3-9,6.4-19.3,6.4-30.9c0-11.6-2.1-21.8-6.4-30.9c-4.3-9-10.6-16.4-18.9-22.2c-6.4-4.5-13.8-7.7-22.2-9.6
			c-8.4-1.9-22.8-2.9-43.1-2.9h-27.3v130.8h27.3H722.9z M725,420.2h6c14,0,24.2,2.9,30.7,8.8c6.4,5.8,9.7,15,9.7,27.5
			c0,12.5-3.2,21.6-9.7,27.4c-6.4,5.8-16.7,8.6-30.7,8.6h-6V420.2z"/>
		<rect x="849.1" y="391" class="st2" width="36" height="130.8"/>
		<path class="st2" d="M1006.6,391h-44.7l-45.1,130.8h35.5l6.8-23.4h50.7l6.6,23.4h35.5L1006.6,391z M966.8,473l13.1-43.2
			c0.8-2.7,1.5-5.5,2.3-8.4c0.7-2.9,1.5-6,2.3-9.2c1.1,4.6,2.1,8.3,2.8,11.3c0.7,2.9,1.3,5,1.7,6.3l13.3,43.2H966.8z"/>
		<polygon class="st2" points="428.4,668.4 428.4,564.6 400,564.6 400,604.9 362.3,604.9 362.3,564.6 334.1,564.6 334.1,668.4 
			362.3,668.4 362.3,626.1 400,626.1 400,668.4 		"/>
		<path class="st2" d="M465.6,564.6l43.5,103.7h21.5l43.5-103.7h-30l-20.6,58c-0.3,1-0.8,2.8-1.5,5.3c-0.7,2.5-1.4,5.4-2.1,8.6
			c-0.9-4-1.7-7.1-2.3-9.5c-0.6-2.3-1-3.8-1.2-4.4l-20.8-58H465.6z"/>
		<path class="st2" d="M596.9,668.4H625l5.4-18.6h40.2l5.2,18.6H704l-35.9-103.7h-35.4L596.9,668.4z M646.9,595.4
			c0.6-2.1,1.2-4.3,1.8-6.7c0.6-2.3,1.2-4.7,1.8-7.3c0.9,3.6,1.6,6.6,2.2,8.9c0.6,2.3,1,4,1.3,5l10.6,34.2h-28.1L646.9,595.4z"/>
		<path class="st2" d="M788.7,562.1c-7.6,0-14.4,1.3-20.6,3.8c-6.2,2.5-11.7,6.3-16.6,11.3c-5.2,5.3-9.1,11.2-11.7,17.7
			c-2.6,6.5-3.9,13.7-3.9,21.6c0,9.9,2,18.8,6.1,26.6c4.1,7.9,10,14.4,17.7,19.6c4,2.7,8.4,4.8,13.2,6.1c4.8,1.3,10,2,15.7,2
			c4.5,0,9-0.5,13.5-1.6c4.4-1.1,8.9-2.7,13.4-4.9v-31c-3.9,4.4-7.7,7.5-11.6,9.5c-3.9,2-8,3-12.4,3c-7.9,0-14.5-2.7-19.6-8.2
			c-5.1-5.5-7.7-12.4-7.7-20.7c0-8.9,2.5-16.2,7.5-21.7c5-5.6,11.6-8.3,19.7-8.3c4.4,0,8.5,1,12.4,3c3.8,2,7.7,5.2,11.6,9.5v-30.9
			c-4.5-2.2-8.9-3.8-13.4-4.9C797.7,562.7,793.2,562.1,788.7,562.1z"/>
	</g>
	<g>
		<path class="st2" d="M412.7,726.6c1.3,0,2.6,0.3,3.8,0.9c1.2,0.6,2.4,1.6,3.7,3l1.2,1.3v-12.4l-0.4-0.2c-1.5-0.7-3.1-1.3-4.6-1.7
			c-1.5-0.4-3.1-0.6-4.6-0.6c-2.6,0-5,0.4-7.1,1.3c-2.1,0.9-4.1,2.2-5.8,3.9c-1.8,1.8-3.1,3.9-4,6.1c-0.9,2.2-1.3,4.7-1.3,7.4
			c0,3.4,0.7,6.5,2.1,9.2c1.4,2.7,3.5,5,6.1,6.8c1.4,1,2.9,1.7,4.6,2.1c1.6,0.5,3.5,0.7,5.4,0.7c1.6,0,3.1-0.2,4.6-0.6
			c1.5-0.4,3.1-0.9,4.6-1.7l0.4-0.2v-12.5l-1.2,1.3c-1.2,1.4-2.5,2.4-3.7,3c-1.2,0.6-2.5,0.9-3.8,0.9c-2.5,0-4.4-0.8-6-2.5
			c-1.6-1.7-2.4-3.8-2.4-6.4c0-2.8,0.8-5.1,2.3-6.8C408.2,727.4,410.2,726.6,412.7,726.6z"/>
		<path class="st2" d="M455.2,718.4c-4.7-1.9-10-1.9-14.7,0c-2.3,1-4.4,2.3-6.2,4.1c-1.8,1.8-3.2,3.8-4.2,6.1
			c-0.9,2.2-1.4,4.7-1.4,7.2c0,2.5,0.5,5,1.4,7.2c1,2.3,2.4,4.3,4.2,6.1c1.8,1.8,3.9,3.1,6.2,4.1c2.3,0.9,4.8,1.4,7.3,1.4
			c2.5,0,5-0.5,7.3-1.4c2.3-0.9,4.4-2.3,6.3-4.1c1.8-1.8,3.2-3.8,4.1-6c0.9-2.2,1.4-4.7,1.4-7.2c0-2.5-0.5-5-1.4-7.2
			c-1-2.3-2.3-4.3-4.1-6C459.6,720.8,457.5,719.4,455.2,718.4z M456.2,735.8c0,2.7-0.8,5-2.4,6.8c-1.6,1.8-3.5,2.7-6,2.7
			c-2.5,0-4.4-0.9-6-2.6c-1.6-1.8-2.3-4.1-2.3-6.8c0-2.8,0.8-5,2.4-6.8c1.6-1.8,3.5-2.7,6-2.7c2.4,0,4.3,0.9,5.9,2.7
			C455.4,730.8,456.2,733.1,456.2,735.8z"/>
		<path class="st2" d="M501.4,717.8L496,736c-0.2,0.6-0.3,1.1-0.4,1.6c-0.1-0.3-0.2-0.6-0.3-0.9c-0.1-0.3-0.1-0.5-0.2-0.6l-5.3-18.3
			h-10.4l-5.5,35.9H484l2.1-15.5c0.2-1.1,0.3-2.3,0.4-3.4c0.1,0.4,0.2,0.8,0.4,1.2l5.1,17.7h7.3l4.8-16.6l0.3-1
			c0.1-0.4,0.2-0.8,0.3-1.1c0.1,1.2,0.2,2.3,0.4,3.3l2.1,15.5h10.2l-5.4-35.3l-0.1-0.6H501.4z"/>
		<path class="st2" d="M550.9,717.8l-5.4,18.2c-0.2,0.6-0.3,1.1-0.4,1.6c-0.1-0.3-0.2-0.6-0.3-0.9c-0.1-0.3-0.1-0.5-0.2-0.6
			l-5.4-18.3h-10.4l-5.5,35.9h10.1l2.1-15.5c0.2-1.1,0.3-2.3,0.4-3.4c0.1,0.4,0.2,0.8,0.4,1.2c0.1,0.5,0.2,0.8,0.3,1l4.8,16.7h7.3
			l4.8-16.7c0-0.2,0.1-0.5,0.3-1c0.1-0.4,0.2-0.8,0.3-1.1c0.1,1.2,0.2,2.3,0.4,3.3l2.1,15.5h10.2l-5.4-35.3l-0.1-0.6H550.9z"/>
		<polygon class="st2" points="597.8,726.7 597.8,717.8 575.3,717.8 575.3,753.6 597.8,753.6 597.8,744.6 585.8,744.6 585.8,740.1 
			597.1,740.1 597.1,731.3 585.8,731.3 585.8,726.7 		"/>
		<path class="st2" d="M634.5,729.2c0-1.9-0.4-3.6-1.1-5.1c-0.7-1.6-1.7-2.9-3.1-3.9c-1.2-0.9-2.6-1.5-4.2-1.9
			c-1.6-0.4-4.3-0.5-8.2-0.5h-10.5v35.9h10.2v-11.7l6.9,11.7h12.3l-9.6-14.2c2.2-0.6,3.9-1.8,5.2-3.3
			C633.8,734.3,634.5,732,634.5,729.2z M623.9,730.5c0,1.3-0.4,2.2-1.1,2.7c-0.8,0.6-2.2,0.9-4,0.9h-1.1v-7.7h1.2
			c1.9,0,3.2,0.3,4,0.9C623.5,727.9,623.9,729,623.9,730.5z"/>
		<path class="st2" d="M661,726.6c1.4,0,2.6,0.3,3.8,0.9c1.2,0.6,2.4,1.6,3.7,3l1.2,1.3v-12.4l-0.4-0.2c-1.5-0.7-3.1-1.3-4.6-1.7
			c-1.5-0.4-3.1-0.6-4.6-0.6c-2.6,0-5,0.4-7.1,1.3c-2.1,0.9-4.1,2.2-5.8,3.9c-1.8,1.8-3.1,3.9-4,6.1c-0.9,2.2-1.3,4.7-1.3,7.4
			c0,3.4,0.7,6.5,2.1,9.2c1.4,2.7,3.5,5,6.1,6.8c1.4,0.9,2.9,1.7,4.6,2.1c1.6,0.5,3.5,0.7,5.4,0.7c1.6,0,3.1-0.2,4.6-0.6
			c1.5-0.4,3.1-0.9,4.6-1.7l0.4-0.2v-12.5l-1.2,1.3c-1.2,1.4-2.5,2.4-3.7,3c-1.2,0.6-2.5,0.9-3.8,0.9c-2.5,0-4.4-0.8-6-2.5
			c-1.6-1.7-2.4-3.8-2.4-6.4c0-2.8,0.8-5.1,2.3-6.8C656.5,727.4,658.5,726.6,661,726.6z"/>
		<rect x="678.7" y="717.8" class="st2" width="10.8" height="35.9"/>
		<path class="st2" d="M708.6,717.8l-12.4,35.9h10.8l1.8-6.2h12.4l1.7,6.2h10.8l-12.4-35.9H708.6z M714.5,728.9
			c0.2-0.7,0.4-1.3,0.6-2l0.1,0.3c0.2,0.8,0.4,1.4,0.5,1.7l3.2,10.5h-7.5L714.5,728.9z"/>
		<polygon class="st2" points="740.3,717.8 740.3,753.6 762.7,753.6 762.7,744.2 751,744.2 751,717.8 		"/>
		<path class="st2" d="M423.6,796.7c1.4-1.8,2.1-4.1,2.1-6.9c0-1.8-0.4-3.6-1.1-5.1c-0.7-1.6-1.7-2.9-3.1-3.9
			c-1.2-0.9-2.6-1.5-4.2-1.9c-1.6-0.4-4.3-0.5-8.2-0.5h-10.5v35.9h10.2v-11.7l6.9,11.7H428l-9.6-14.2
			C420.6,799.4,422.4,798.3,423.6,796.7z M415.1,791.1c0,1.3-0.4,2.1-1.1,2.7c-0.8,0.6-2.2,0.9-4,0.9h-1.1v-7.7h1.2
			c1.9,0,3.2,0.3,4,0.9C414.8,788.5,415.1,789.6,415.1,791.1z"/>
		<polygon class="st2" points="434.5,814.2 457,814.2 457,805.2 445,805.2 445,800.7 456.3,800.7 456.3,791.9 445,791.9 445,787.3 
			457,787.3 457,778.4 434.5,778.4 		"/>
		<path class="st2" d="M488.1,794.8c-1.3-1.3-3.9-2.5-7.9-3.6l-0.4-0.1c-2.1-0.5-3-1-3.3-1.4c-0.5-0.4-0.7-0.9-0.7-1.6
			c0-0.6,0.3-1.1,0.8-1.6c1.2-0.9,3.4-0.9,5.4,0c1,0.4,2.1,1.1,3.1,2l0.7,0.6l3.5-8.1l-0.5-0.3c-1.6-1.1-3.3-1.9-5-2.4
			c-1.8-0.5-3.6-0.8-5.6-0.8c-3.7,0-6.7,1.1-9,3.3c-2.3,2.2-3.5,5.1-3.5,8.6c0,2.7,0.8,4.9,2.3,6.5c1.5,1.6,3.9,2.8,7.5,3.7
			c2.9,0.8,4.1,1.4,4.5,1.8c0.6,0.5,0.8,1.2,0.8,2.2c0,0.8-0.3,1.5-1,2.1c-1.5,1.2-4,1.1-6.4-0.2c-1.3-0.7-2.6-1.9-4-3.4l-0.6-0.7
			l-5,8.2l0.4,0.4c1.9,1.8,3.9,3.1,5.9,4c2,0.8,4.3,1.3,6.8,1.3c4.2,0,7.6-1.2,10.1-3.5c2.5-2.3,3.8-5.5,3.8-9.3
			c0-1.5-0.2-2.9-0.7-4.2C489.7,796.9,489,795.8,488.1,794.8z"/>
		<rect x="499.8" y="778.4" class="st2" width="10.8" height="35.9"/>
		<path class="st2" d="M547.2,781.8c-1.7-1.2-3.8-2.1-6.1-2.6c-2.3-0.5-6.1-0.8-11.5-0.8h-7.9v35.9h9.4c4.5,0,7.9-0.3,10.1-0.8
			c2.2-0.5,4.2-1.4,5.9-2.6c2.3-1.6,4-3.6,5.2-6.1c1.2-2.5,1.8-5.3,1.8-8.4c0-3.1-0.6-6-1.8-8.4
			C551.2,785.4,549.5,783.3,547.2,781.8z M543.3,796.3c0,3.1-0.8,5.4-2.3,6.7c-1.6,1.4-4.1,2.1-7.6,2.1h-0.9v-17.7h0.9
			c3.5,0,6.1,0.7,7.6,2.1C542.5,791,543.3,793.2,543.3,796.3z"/>
		<polygon class="st2" points="563.6,814.2 586.1,814.2 586.1,805.2 574.1,805.2 574.1,800.7 585.4,800.7 585.4,791.9 574.1,791.9 
			574.1,787.3 586.1,787.3 586.1,778.4 563.6,778.4 		"/>
		<path class="st2" d="M620.5,796.1c0,0.9,0,1.9,0.1,3c-0.1-0.1-0.1-0.3-0.2-0.4c-0.6-1.2-1-1.9-1.3-2.3l-13.2-18h-10.1v35.9h10.4
			v-17.7c0-0.9,0-1.9-0.1-3c0.1,0.1,0.1,0.3,0.2,0.4c0.6,1.1,1,1.9,1.3,2.3l13.2,18.1h10v-35.9h-10.4V796.1z"/>
		<polygon class="st2" points="639,787.9 646.7,787.9 646.7,814.2 657.5,814.2 657.5,787.9 665.2,787.9 665.2,778.4 639,778.4 		"/>
		<rect x="673.5" y="778.4" class="st2" width="10.8" height="35.9"/>
		<path class="st2" d="M703.5,778.4l-12.4,35.9h10.8l1.8-6.2h12.4l1.7,6.2h10.8l-12.4-35.9H703.5z M709.4,789.5
			c0.2-0.6,0.4-1.3,0.6-2l0.1,0.3c0.2,0.8,0.3,1.4,0.5,1.7l3.2,10.5h-7.5L709.4,789.5z"/>
		<polygon class="st2" points="745.9,778.4 735.1,778.4 735.1,814.2 757.6,814.2 757.6,804.8 745.9,804.8 		"/>
		<rect x="379.4" y="762" class="st2" width="397.6" height="5.5"/>
	</g>
	<path class="st0" d="M295.9,231.3c-36.1,33.5-65.6,72.1-87.7,116.6l-12.9-3.5l6.2,17.5v0l7.7,21.8l31.9-26.9L227,353
		c20.6-39.8,47.7-75.6,80-106.1v-0.8l8.7,11.7l13.4-39.5l-41.7,1.5L295.9,231.3z"/>
	<path class="st1" d="M302.9,815.6c-66.7-64.7-110.7-152.8-118.5-250.8l12.8-0.3l-24.5-33.7l-22.9,34.9l15.6-0.4
		c7.9,102.4,53.4,194.5,122.6,262.4l-11,8.9l40,11.7l-3.2-41.6L302.9,815.6z"/>
	<path class="st0" d="M860.4,231.3c36.1,33.5,65.6,72.1,87.7,116.6l12.9-3.5l-6.2,17.5v0l-7.7,21.8l-31.9-26.9l14.1-3.8
		c-20.6-39.8-47.7-75.6-80-106.1v-0.8l-8.7,11.7l-13.4-39.5l41.7,1.5L860.4,231.3z"/>
	<path class="st1" d="M853.4,815.6c66.7-64.7,110.7-152.8,118.5-250.8l-12.8-0.3l24.5-33.7l22.9,34.9l-15.6-0.4
		c-7.9,102.4-53.4,194.5-122.6,262.4l11,8.9l-40,11.7l3.2-41.6L853.4,815.6z"/>
</g>
<g>
	<g>
		<path class="st3" d="M1320.8,445C1320.8,445,1320.9,445,1320.8,445C1320.9,445,1320.9,445,1320.8,445L1320.8,445z"/>
		<path class="st3" d="M2051.8,59.5c-45.8,0-104,16.6-167.5,42.9c243.4,103.2,567.5,357.1,567.5,357.1
			C2451.8,238.5,2272.7,59.5,2051.8,59.5z"/>
		<path class="st3" d="M1887.9,815c62.1,27.3,119,44.4,163.9,44.4c220.9,0,400-179.1,400-400C2451.8,459.4,2131,710.8,1887.9,815z"
			/>
		<path class="st4" d="M1720.4,59.5c-216,0-392,171.3-399.6,385.5c0.8-0.6,320.8-242.3,563.4-342.7
			C1822.2,76,1765.3,59.5,1720.4,59.5z"/>
		<path class="st4" d="M1320.5,459.4c0,220.9,179.1,400,400,400c45.8,0,104-17.2,167.5-44.4c-243.1-106.8-566.4-369.4-567.1-369.9
			C1320.7,449.8,1320.5,454.6,1320.5,459.4z"/>
		<path class="st5" d="M1884.3,102.3c-242.6,100.3-562.7,342.1-563.4,342.7c0,0,0,0,0,0c0.7,0.6,324,263.1,567.1,369.9
			c243-104.2,563.8-355.5,563.8-355.5S2127.8,205.5,1884.3,102.3z"/>
	</g>
	<g>
		<path class="st4" d="M1412.2,942h25.3v-25.2h17.6v67.4h-17.6V957h-25.3v27.3h-17.5v-67.4h17.5V942z"/>
		<path class="st4" d="M1507.5,931.7h-20.8v11.2h19.7v14.9h-19.7v11.6h20.8v14.9h-38.3v-67.4h38.3V931.7z"/>
		<path class="st4" d="M1559.7,972.9h-24.5l-4.5,11.3h-18.5l25.9-67.4h19.1l25.4,67.4h-18.7L1559.7,972.9z M1555.1,959.6l-7.6-21.8
			l-7.4,21.8H1555.1z"/>
		<path class="st4" d="M1612.8,931.7v52.5h-17.5v-52.5h-14.3v-14.9h46.2v14.9H1612.8z"/>
		<path class="st4" d="M1652.4,916.8v67.4h-17.5v-67.4H1652.4z"/>
		<path class="st4" d="M1666.5,984.2v-67.4h17.5l32.2,41.2v-41.2h17.5v67.4h-17.5L1684,943v41.2H1666.5z"/>
		<path class="st4" d="M1780.2,946h34.8c0,13.3-2.7,22.8-10.8,30.3c-7.1,6.6-15.2,8.5-23.7,8.5c-12.1,0-20.4-4.4-25.9-10
			c-5.1-5.1-9.7-13.2-9.7-24.4c0-10.7,4.2-19.5,10.1-25.3c5.6-5.6,14.2-9.9,26.2-9.9c6.3,0,13,1.4,18.2,4.5c5.3,3.2,9.6,8.6,12,13.8
			l-16.7,6.9c-1.2-3.1-3.1-5.4-4.9-6.8c-2.9-2.4-6.1-3.3-9.4-3.3c-4.1,0-8.4,1.5-11.5,4.6c-3.9,3.9-5.9,10.2-5.9,15.5
			c0,6.2,2.2,11.2,5.4,14.6c3.2,3.4,7.2,5.2,12.3,5.2c3,0,6.6-0.5,9.7-3.1c1.6-1.3,3.5-3.7,4.1-7.5h-14.3V946z"/>
		<path class="st5" d="M1913.1,958.5c-2.7,3.4-5.8,6.7-9.2,9.8l15.1,16h-21.8l-5.9-6.2c-9.1,6.7-17.7,7.7-22.6,7.7
			c-4.7,0-11.5-0.7-16.6-5.7c-3.2-3.1-5.5-7.7-5.5-13.3c0-6.6,2.8-10.7,5.1-12.9c2.6-2.7,7.2-5.3,11-6.6c-1.3-1.5-2.8-3.5-3.9-5.4
			c-1.5-2.5-2.3-5-2.3-8.3c0-4.5,2-9.1,5.2-12.3c5.1-5.2,11.7-6,15.9-6c8.2,0,13,3,15.7,5.6c3.6,3.5,5.4,8.4,5.4,12.6
			c0,4.1-1.5,7.7-4.6,10.8c-2.1,2.1-5,4-7.9,5.3l8.5,8.9c2.9-2.7,6-6,8.8-9.6L1913.1,958.5z M1871,956.1c-0.7,0.4-6.4,3.2-6.4,7.9
			c0,1.5,0.6,3.3,2,4.5c1.8,1.6,4.1,1.9,5.8,1.9c2.2,0,5.4-0.5,9.2-2.9L1871,956.1z M1874.8,937.4c1,1.4,2.4,2.9,3.5,4
			c1.5-0.8,3-2,4-3c1.5-1.7,2.1-3.4,2.1-5c0-2.2-0.8-3.7-1.8-4.6c-1-0.9-2.4-1.5-4-1.5c-1.4,0-2.7,0.4-3.8,1.4
			c-1.5,1.3-1.8,2.9-1.8,4.1C1872.9,934.5,1873.9,936,1874.8,937.4z"/>
		<path class="st3" d="M1997.9,982.4c-7,2.5-10.8,3.3-15.2,3.3c-11.7,0-20.5-4.6-26.1-10.1c-6.6-6.6-10.2-15.8-10.2-24.6
			c0-9.6,4.1-18.7,10.2-24.9c6-6.1,15-10.5,25.5-10.5c3.2,0,8.5,0.5,15.8,3.4v20.9c-5.7-7-12.3-7.4-15.3-7.4
			c-5.1,0-8.9,1.5-12.1,4.4c-4.1,3.8-5.9,9.1-5.9,13.8c0,4.6,1.9,9.8,5.5,13.1c2.9,2.7,7.6,4.6,12.5,4.6c2.6,0,9.1-0.3,15.3-7.1
			V982.4z"/>
		<path class="st3" d="M2069.8,975.8c-6.9,6.6-16.6,10-26.6,10s-19.7-3.4-26.6-10c-7.2-6.9-10.6-16.3-10.6-25.2
			c0-9,3.4-18.5,10.6-25.3c6.9-6.6,16.6-10,26.6-10s19.7,3.4,26.6,10c7.2,6.8,10.6,16.3,10.6,25.3
			C2080.4,959.5,2077,968.9,2069.8,975.8z M2029.6,937.7c-3.6,3.5-5.4,8.5-5.4,13.2c0,6,2.8,10.1,5.4,12.5c3.2,3.1,7.8,5.4,13.6,5.4
			c6,0,10.4-2.1,13.5-5.3c3.1-3.1,5.5-7.8,5.5-12.9c0-5.3-2.3-9.9-5.5-12.9c-3.7-3.5-8.9-5.4-13.5-5.4
			C2038.4,932.3,2033.2,934,2029.6,937.7z"/>
		<path class="st3" d="M2152.2,975.8c-6.9,6.6-16.6,10-26.6,10c-10,0-19.7-3.4-26.6-10c-7.2-6.9-10.6-16.3-10.6-25.2
			c0-9,3.4-18.5,10.6-25.3c6.9-6.6,16.6-10,26.6-10c10,0,19.7,3.4,26.6,10c7.2,6.8,10.6,16.3,10.6,25.3
			C2162.8,959.5,2159.4,968.9,2152.2,975.8z M2112,937.7c-3.6,3.5-5.4,8.5-5.4,13.2c0,6,2.8,10.1,5.4,12.5c3.2,3.1,7.8,5.4,13.6,5.4
			c6,0,10.4-2.1,13.5-5.3c3.1-3.1,5.5-7.8,5.5-12.9c0-5.3-2.3-9.9-5.5-12.9c-3.7-3.5-8.9-5.4-13.5-5.4
			C2120.8,932.3,2115.6,934,2112,937.7z"/>
		<path class="st3" d="M2191.4,916.8v52.5h21v14.9h-38.5v-67.4H2191.4z"/>
		<path class="st3" d="M2238.9,916.8v67.4h-17.5v-67.4H2238.9z"/>
		<path class="st3" d="M2253.1,984.2v-67.4h17.5l32.2,41.2v-41.2h17.5v67.4h-17.5l-32.2-41.2v41.2H2253.1z"/>
		<path class="st3" d="M2366.7,946h34.8c0,13.3-2.7,22.8-10.8,30.3c-7.1,6.6-15.2,8.5-23.7,8.5c-12.1,0-20.4-4.4-25.9-10
			c-5.1-5.1-9.7-13.2-9.7-24.4c0-10.7,4.2-19.5,10.1-25.3c5.6-5.6,14.2-9.9,26.2-9.9c6.3,0,13,1.4,18.2,4.5c5.3,3.2,9.6,8.6,12,13.8
			l-16.7,6.9c-1.2-3.1-3.1-5.4-4.9-6.8c-2.9-2.4-6.1-3.3-9.4-3.3c-4.1,0-8.4,1.5-11.5,4.6c-3.9,3.9-5.9,10.2-5.9,15.5
			c0,6.2,2.2,11.2,5.4,14.6c3.2,3.4,7.2,5.2,12.3,5.2c3,0,6.6-0.5,9.7-3.1c1.6-1.3,3.5-3.7,4.1-7.5h-14.3V946z"/>
	</g>
	<g>
		<g>
			<path class="st6" d="M1614.2,485.7h-47l-8.7,21.8h-35.6l49.7-129.6h36.7l48.8,129.6h-35.9L1614.2,485.7z M1605.3,460.1l-14.6-42
				l-14.2,42H1605.3z"/>
			<path class="st6" d="M1706.1,377.9c9.7,0,22.2,1.6,31.7,11.5c7.4,7.6,11.1,18.8,11.1,29.1c0,11.1-3.9,20.8-10.3,27
				c-5.1,4.9-11.9,7.8-17.9,8.9l40.6,53h-41.8l-32.3-49.7v49.7h-33.6V377.9H1706.1z M1687.3,436h6.4c5.1,0,12.2-1.4,16.3-5.2
				c2.5-2.5,4.3-6.8,4.3-10.9c0-3.9-1.6-8.2-4.5-10.9c-3.1-3.1-8.7-5.1-16.1-5.1h-6.4V436z"/>
			<path class="st6" d="M1849.1,504c-13.4,4.9-20.8,6.4-29.1,6.4c-22.5,0-39.4-8.9-50.1-19.4c-12.6-12.6-19.6-30.3-19.6-47.2
				c0-18.5,8-35.9,19.6-47.8c11.5-11.7,28.8-20.2,49-20.2c6.2,0,16.3,1,30.3,6.6v40.2c-10.9-13.4-23.7-14.2-29.3-14.2
				c-9.7,0-17.1,2.9-23.3,8.5c-8,7.4-11.3,17.5-11.3,26.6c0,8.9,3.7,18.8,10.5,25.3c5.6,5.2,14.6,8.9,24.1,8.9
				c5.1,0,17.5-0.6,29.3-13.6V504z"/>
			<path class="st6" d="M1930.1,485.7h-47l-8.7,21.8h-35.6l49.7-129.6h36.7l48.8,129.6h-35.9L1930.1,485.7z M1921.2,460.1l-14.6-42
				l-14.2,42H1921.2z"/>
			<path class="st6" d="M1969.6,507.5V377.9h44.1c13,0,34.8,1.7,51.5,17.9c15.2,14.6,18.1,33.2,18.1,47.2c0,17.1-4.3,32.3-16.9,44.9
				c-10.3,10.3-27.6,19.6-49.7,19.6H1969.6z M2003.2,478.9h6.8c8.2,0,19.6-0.8,28.4-9.3c4.3-4.1,9.9-12.2,9.9-26.6
				c0-12-3.7-22.3-10.1-28.4c-8-7.4-18.5-8.2-26.8-8.2h-8.2V478.9z"/>
			<path class="st6" d="M2118.8,377.9v129.6h-33.6V377.9H2118.8z"/>
			<path class="st6" d="M2205.7,485.7h-47l-8.7,21.8h-35.6l49.7-129.6h36.7l48.8,129.6h-35.9L2205.7,485.7z M2196.7,460.1l-14.6-42
				l-14.2,42H2196.7z"/>
		</g>
	</g>
	<g>
		<path class="st6" d="M1765.5,599.4v-28.8h19.4v74.7h-19.4v-30.6h-28v30.6h-19.4v-74.7h19.4v28.8H1765.5z"/>
		<path class="st6" d="M1848.7,616l18.1-45.3h21.1l-31.9,74.7h-15l-31.4-74.7h21.1L1848.7,616z"/>
		<path class="st6" d="M1922.7,632.3l-5.1,13h-20.6l28.7-74.7h21.2l28.1,74.7h-20.7l-4.9-13H1922.7z M1936.2,593.7h-0.2l-8,23.8
			h16.1L1936.2,593.7z"/>
		<path class="st6" d="M2054.2,595.7c-2-2.7-4.5-4.8-7.5-6.1c-3-1.4-6.2-2.1-9.6-2.1c-3,0-5.7,0.5-8.1,1.6c-2.4,1.1-4.5,2.5-6.3,4.4
			c-1.8,1.9-3.1,4.1-4.1,6.6c-1,2.5-1.4,5.2-1.4,8.1c0,3,0.5,5.7,1.4,8.2c1,2.5,2.3,4.6,4.1,6.4c1.8,1.8,3.9,3.2,6.4,4.2
			c2.5,1,5.2,1.5,8.3,1.5c3.2,0,6.2-0.7,9.2-2.1c3-1.4,5.5-3.3,7.5-5.8v23.3c-3.2,1-6.1,1.8-8.7,2.5c-2.6,0.7-5.4,1-8.4,1
			c-5.2,0-10.2-0.9-15-2.8c-4.8-1.9-9.1-4.6-13-8.2c-4.2-3.8-7.2-8-9.1-12.7c-1.9-4.7-2.9-9.9-2.9-15.5c0-5.1,0.9-10.1,2.8-14.8
			c1.9-4.7,4.6-8.9,8.2-12.6c3.7-3.8,8-6.7,13-8.9c5-2.1,10.1-3.2,15.4-3.2c3.2,0,6.2,0.3,9.1,1c2.9,0.7,5.8,1.6,8.7,2.8V595.7z"/>
	</g>
	<g>
		<path class="st6" d="M1738.5,277.7c-1-0.9-2.2-1.6-3.5-2.1c-1.3-0.5-2.6-0.8-4-0.8c-0.5,0-1.1,0.1-1.6,0.2
			c-0.6,0.2-1.1,0.4-1.5,0.7c-0.5,0.3-0.9,0.7-1.2,1.1c-0.3,0.4-0.5,1-0.5,1.6c0,0.6,0.2,1.2,0.5,1.6c0.3,0.4,0.8,0.8,1.3,1.1
			c0.5,0.3,1,0.6,1.6,0.8c0.6,0.2,1.1,0.4,1.6,0.5l2.9,0.9c1.5,0.5,2.9,1,4.2,1.6c1.3,0.6,2.4,1.4,3.4,2.3c1,0.9,1.7,2,2.3,3.3
			c0.6,1.3,0.8,2.8,0.8,4.6c0,2.1-0.3,4.2-0.9,6.3c-0.6,2.1-1.8,3.8-3.5,5.3c-1.7,1.5-3.6,2.5-5.8,3.1c-2.1,0.6-4.3,0.9-6.5,0.9
			c-2.8,0-5.4-0.4-8-1.3c-2.6-0.9-5-2.1-7.2-3.6l4.8-9c1.4,1.2,2.9,2.3,4.6,3.1c1.6,0.9,3.4,1.3,5.4,1.3c0.6,0,1.3-0.1,1.9-0.3
			c0.7-0.2,1.2-0.4,1.7-0.8c0.5-0.3,0.9-0.8,1.3-1.3c0.3-0.6,0.5-1.2,0.5-2c0-0.8-0.2-1.5-0.7-2c-0.5-0.5-1.1-1-1.8-1.4
			c-0.7-0.4-1.4-0.7-2.2-0.9c-0.8-0.2-1.5-0.4-2.1-0.6c-1.8-0.5-3.3-1-4.8-1.6c-1.4-0.6-2.7-1.3-3.7-2.1c-1-0.9-1.8-2-2.4-3.3
			c-0.6-1.3-0.8-3.1-0.8-5.2c0-2.2,0.4-4.2,1.1-6c0.7-1.8,1.8-3.3,3.1-4.6c1.3-1.3,2.9-2.2,4.7-2.9c1.8-0.7,3.8-1,6-1
			c1.1,0,2.2,0.1,3.4,0.3c1.2,0.2,2.4,0.4,3.6,0.7c1.2,0.3,2.3,0.7,3.4,1.1c1.1,0.4,2.2,0.9,3.1,1.5L1738.5,277.7z"/>
		<path class="st6" d="M1761.2,309.8H1750v-43.2h11.2V309.8z"/>
		<path class="st6" d="M1768.6,266.6h11.2l20.5,26.4h0.1v-26.4h11.2v43.2h-11.2l-20.5-26.4h-0.1v26.4h-11.2V266.6z"/>
		<path class="st6" d="M1849.8,281.1c-1.1-1.6-2.6-2.7-4.3-3.5c-1.7-0.8-3.6-1.2-5.5-1.2c-1.7,0-3.3,0.3-4.7,0.9
			c-1.4,0.6-2.6,1.5-3.6,2.5c-1,1.1-1.8,2.4-2.3,3.8c-0.6,1.4-0.8,3-0.8,4.7c0,1.7,0.3,3.3,0.8,4.7c0.6,1.4,1.3,2.7,2.4,3.7
			c1,1,2.3,1.8,3.7,2.4c1.4,0.6,3,0.9,4.8,0.9c1.8,0,3.6-0.4,5.3-1.2c1.7-0.8,3.2-1.9,4.3-3.3v13.4c-1.9,0.6-3.5,1.1-5,1.4
			c-1.5,0.4-3.1,0.6-4.9,0.6c-3,0-5.9-0.5-8.7-1.6c-2.8-1.1-5.3-2.7-7.5-4.7c-2.4-2.2-4.2-4.6-5.3-7.4c-1.1-2.7-1.7-5.7-1.7-9
			c0-3,0.5-5.8,1.6-8.5c1.1-2.7,2.7-5.1,4.7-7.3c2.1-2.2,4.6-3.9,7.5-5.1c2.9-1.2,5.9-1.9,8.9-1.9c1.8,0,3.6,0.2,5.2,0.6
			c1.7,0.4,3.3,0.9,5,1.6V281.1z"/>
		<path class="st6" d="M1868,276.1v7.2h12.7v9.5H1868v7.4h13.3v9.5h-24.6v-43.2h24.6v9.5H1868z"/>
		<path class="st6" d="M1913.4,276.1v-9.5h17.4v43.2h-11.2v-33.7H1913.4z"/>
		<path class="st6" d="M1952.5,309.8l12.3-14.5l-0.1-0.1c-1,0.4-2,0.7-2.9,1c-1,0.2-2,0.3-3.1,0.3c-2.1,0-4.1-0.4-5.8-1.3
			c-1.7-0.8-3.2-2-4.4-3.4c-1.2-1.4-2.1-3-2.8-4.9c-0.6-1.8-1-3.7-1-5.7c0-2.6,0.5-5,1.5-7c1-2,2.4-3.7,4.1-5.1
			c1.7-1.4,3.7-2.4,5.9-3.1c2.2-0.7,4.6-1.1,7.1-1.1c2.1,0,4.3,0.3,6.5,0.9c2.2,0.6,4.2,1.5,5.8,2.9c1.8,1.4,3.2,3.2,4.2,5.3
			c1,2.1,1.6,4.3,1.6,6.6c0,1.6-0.2,3.1-0.6,4.6c-0.4,1.5-0.9,3-1.5,4.5c-0.6,1.5-1.4,2.9-2.2,4.2c-0.8,1.4-1.7,2.6-2.6,3.9
			l-9.2,12.1H1952.5z M1963.4,273.8c-1,0-1.9,0.2-2.7,0.5c-0.8,0.4-1.6,0.9-2.2,1.5c-0.6,0.6-1.1,1.4-1.5,2.3
			c-0.3,0.9-0.5,1.8-0.5,2.8c0,1,0.2,1.9,0.5,2.8c0.3,0.9,0.8,1.6,1.5,2.3c0.6,0.6,1.4,1.2,2.2,1.5c0.8,0.4,1.7,0.5,2.7,0.5
			c1,0,1.9-0.2,2.8-0.5c0.9-0.4,1.6-0.9,2.3-1.5c0.6-0.6,1.2-1.4,1.5-2.3c0.4-0.9,0.6-1.8,0.6-2.8c0-1-0.2-1.9-0.6-2.8
			c-0.4-0.9-0.9-1.6-1.5-2.3c-0.6-0.6-1.4-1.2-2.3-1.5C1965.3,274,1964.4,273.8,1963.4,273.8z"/>
		<path class="st6" d="M1986.8,276.1v-9.5h35.4l-24.8,43.2h-12.3l19.7-33.7H1986.8z"/>
		<path class="st6" d="M2059.5,292.3v8.6h-5.2v8.9h-10.4v-8.9h-20.9v-7.2l16.7-27.1h14.7v25.6H2059.5z M2043.8,275.7h-0.1
			l-10.1,16.6h10.2V275.7z"/>
	</g>
</g>
<g>
	<path class="st4" d="M104.4,2595.6c0,105.2,85.3,190.4,190.4,190.4h798.4c-105.2,0-988.8-820.6-988.8-820.6V2595.6z"/>
	<g>
		<path class="st4" d="M1093.2,1144.9H294.9c-105.2,0-190.4,85.3-190.4,190.4v630.1C104.4,1860.3,988,1144.9,1093.2,1144.9z"/>
		<path class="st3" d="M2269.3,1144.9H1471c105.2,0,971.2,715.4,971.2,820.6c0,0-866,820.6-971.2,820.6h798.4
			c105.2,0,190.4-85.2,190.4-190.4V1335.3C2459.8,1230.1,2374.5,1144.9,2269.3,1144.9z"/>
		<path class="st5" d="M1471,1144.9h-377.8c-105.2,0-988.8,715.4-988.8,820.6c0,0,883.6,820.6,988.8,820.6H1471
			c105.2,0,971.2-820.6,971.2-820.6C2442.2,1860.3,1576.2,1144.9,1471,1144.9z"/>
	</g>
</g>
<g>
	<g>
		<g>
			<path class="st6" d="M660.2,2033.2H552.6l-20,49.8h-81.3l113.8-296.4h84L760.6,2083h-82.2L660.2,2033.2z M639.7,1974.6l-33.3-96
				l-32.4,96H639.7z"/>
			<path class="st6" d="M870.4,1786.6c22.2,0,50.7,3.6,72.4,26.2c16.9,17.3,25.3,43.1,25.3,66.7c0,25.3-8.9,47.6-23.6,61.8
				c-11.6,11.1-27.1,17.8-40.9,20.4l92.9,121.3H901l-73.8-113.8V2083h-76.9v-296.4H870.4z M827.3,1919.5h14.7c11.6,0,28-3.1,37.3-12
				c5.8-5.8,9.8-15.6,9.8-24.9c0-8.9-3.6-18.7-10.2-24.9c-7.1-7.1-20-11.6-36.9-11.6h-14.7V1919.5z"/>
			<path class="st6" d="M1197.5,2075c-30.7,11.1-47.6,14.7-66.7,14.7c-51.6,0-90.2-20.4-114.7-44.4c-28.9-28.9-44.9-69.3-44.9-108
				c0-42.2,18.2-82.2,44.9-109.3c26.2-26.7,65.8-46.2,112-46.2c14.2,0,37.3,2.2,69.3,15.1v92c-24.9-30.7-54.2-32.4-67.1-32.4
				c-22.2,0-39.1,6.7-53.3,19.6c-18.2,16.9-25.8,40-25.8,60.9c0,20.4,8.4,43.1,24,57.8c12.9,12,33.3,20.4,55.1,20.4
				c11.6,0,40-1.3,67.1-31.1V2075z"/>
			<path class="st6" d="M1382.8,2033.2h-107.5l-20,49.8h-81.3l113.8-296.4h84l111.5,296.4H1401L1382.8,2033.2z M1362.3,1974.6
				l-33.3-96l-32.4,96H1362.3z"/>
			<path class="st6" d="M1473,2083v-296.4h100.9c29.8,0,79.5,4,117.8,40.9c34.7,33.3,41.3,76,41.3,108c0,39.1-9.8,73.8-38.7,102.7
				c-23.6,23.6-63.1,44.9-113.8,44.9H1473z M1549.8,2017.7h15.6c18.7,0,44.9-1.8,64.9-21.3c9.8-9.3,22.7-28,22.7-60.9
				c0-27.6-8.4-51.1-23.1-64.9c-18.2-16.9-42.2-18.7-61.3-18.7h-18.7V2017.7z"/>
			<path class="st6" d="M1814.3,1786.6V2083h-76.9v-296.4H1814.3z"/>
			<path class="st6" d="M2012.9,2033.2h-107.5l-20,49.8H1804l113.8-296.4h84l111.5,296.4h-82.2L2012.9,2033.2z M1992.4,1974.6
				l-33.3-96l-32.4,96H1992.4z"/>
		</g>
	</g>
	<g>
		<path class="st6" d="M1006.3,2293.3v-65.9h44.4v170.7h-44.4v-70h-64.1v70h-44.4v-170.7h44.4v65.9H1006.3z"/>
		<path class="st6" d="M1196.5,2331.1l41.4-103.7h48.2l-72.9,170.7h-34.4l-71.8-170.7h48.2L1196.5,2331.1z"/>
		<path class="st6" d="M1365.7,2368.5l-11.8,29.7h-47.1l65.7-170.7h48.5l64.3,170.7h-47.3l-11.1-29.7H1365.7z M1396.7,2280.2h-0.5
			l-18.3,54.3h36.9L1396.7,2280.2z"/>
		<path class="st6" d="M1666.4,2284.7c-4.5-6.2-10.2-10.9-17.1-14c-6.9-3.2-14.2-4.8-21.9-4.8c-6.8,0-13,1.2-18.6,3.6
			c-5.6,2.4-10.4,5.8-14.4,10.1c-4,4.3-7.1,9.3-9.3,15.1c-2.2,5.7-3.3,11.9-3.3,18.6c0,6.8,1.1,13,3.3,18.7
			c2.2,5.7,5.3,10.5,9.4,14.6c4.1,4.1,8.9,7.3,14.6,9.6c5.7,2.3,12,3.5,18.9,3.5c7.3,0,14.3-1.6,21.1-4.9
			c6.8-3.2,12.5-7.7,17.2-13.2v53.2c-7.4,2.3-14,4.1-19.9,5.7c-5.9,1.5-12.3,2.3-19.2,2.3c-11.9,0-23.4-2.1-34.3-6.5
			c-11-4.3-20.9-10.5-29.8-18.7c-9.5-8.6-16.5-18.3-20.8-29.1c-4.4-10.8-6.6-22.6-6.6-35.4c0-11.8,2.2-23,6.5-33.7
			c4.3-10.7,10.5-20.3,18.7-28.8c8.5-8.6,18.4-15.4,29.8-20.3c11.4-4.9,23.1-7.4,35.2-7.4c7.2,0,14.2,0.8,20.7,2.3
			c6.6,1.5,13.2,3.6,19.8,6.3V2284.7z"/>
	</g>
	<g>
		<path class="st6" d="M944.3,1557.5c-2.3-2-5-3.6-7.9-4.8c-2.9-1.2-6-1.8-9.1-1.8c-1.2,0-2.5,0.2-3.7,0.5c-1.3,0.3-2.4,0.9-3.5,1.6
			c-1.1,0.7-2,1.5-2.7,2.5c-0.7,1-1.1,2.2-1.1,3.6c0,1.5,0.4,2.7,1.2,3.7c0.8,1,1.7,1.9,2.9,2.6c1.1,0.8,2.4,1.3,3.7,1.8
			c1.3,0.5,2.5,0.9,3.7,1.2l6.6,2c3.4,1.1,6.6,2.3,9.6,3.7c3,1.4,5.5,3.2,7.7,5.3c2.2,2.1,3.9,4.6,5.2,7.5c1.3,2.9,1.9,6.4,1.9,10.4
			c0,4.9-0.7,9.7-2.2,14.4c-1.4,4.8-4.1,8.8-8,12.1c-3.9,3.3-8.3,5.7-13.2,7.1c-4.9,1.4-9.8,2.2-14.8,2.2c-6.3,0-12.4-1-18.3-2.9
			c-5.9-2-11.4-4.7-16.4-8.3l11-20.7c3.2,2.8,6.7,5.2,10.5,7.2c3.7,2,7.8,3,12.3,3c1.5,0,3-0.2,4.4-0.6c1.5-0.4,2.8-1,4-1.8
			c1.2-0.8,2.1-1.8,2.9-3.1c0.7-1.3,1.1-2.8,1.1-4.5c0-1.8-0.5-3.4-1.6-4.6c-1.1-1.2-2.4-2.3-4-3.1c-1.6-0.9-3.3-1.6-5.1-2.1
			c-1.8-0.5-3.4-1-4.8-1.4c-4-1.1-7.7-2.3-10.9-3.6c-3.3-1.3-6.1-2.9-8.4-4.9c-2.4-2-4.2-4.5-5.4-7.6c-1.3-3.1-1.9-7-1.9-11.8
			c0-5,0.8-9.5,2.6-13.6c1.7-4.1,4.1-7.6,7.1-10.5c3-2.9,6.6-5.1,10.7-6.7c4.1-1.6,8.7-2.4,13.7-2.4c2.5,0,5,0.2,7.8,0.6
			c2.8,0.4,5.5,0.9,8.1,1.6c2.7,0.7,5.3,1.6,7.9,2.6c2.6,1,4.9,2.1,7.1,3.3L944.3,1557.5z"/>
		<path class="st6" d="M996.4,1630.8h-25.7v-98.7h25.7V1630.8z"/>
		<path class="st6" d="M1013.2,1532.1h25.7l47,60.4h0.3v-60.4h25.6v98.7h-25.6l-47-60.5h-0.3v60.5h-25.7V1532.1z"/>
		<path class="st6" d="M1199.1,1565.2c-2.6-3.6-5.9-6.3-9.9-8.1c-4-1.8-8.2-2.7-12.6-2.7c-3.9,0-7.5,0.7-10.7,2.1
			c-3.2,1.4-6,3.3-8.3,5.8c-2.3,2.5-4.1,5.4-5.4,8.7c-1.3,3.3-1.9,6.9-1.9,10.7c0,3.9,0.6,7.5,1.9,10.8c1.3,3.3,3.1,6.1,5.4,8.5
			c2.4,2.4,5.2,4.2,8.4,5.6c3.3,1.3,6.9,2,10.9,2c4.2,0,8.2-0.9,12.2-2.8c3.9-1.9,7.2-4.4,9.9-7.7v30.8c-4.3,1.3-8.1,2.4-11.5,3.3
			c-3.4,0.9-7.1,1.3-11.1,1.3c-6.9,0-13.5-1.2-19.8-3.7c-6.3-2.5-12.1-6.1-17.2-10.8c-5.5-5-9.5-10.6-12-16.8
			c-2.5-6.2-3.8-13.1-3.8-20.5c0-6.8,1.2-13.3,3.7-19.5c2.5-6.2,6.1-11.7,10.8-16.6c4.9-5,10.6-8.9,17.2-11.7
			c6.6-2.8,13.4-4.3,20.4-4.3c4.2,0,8.2,0.4,12,1.3c3.8,0.9,7.6,2.1,11.5,3.7V1565.2z"/>
		<path class="st6" d="M1240.5,1553.8v16.5h28.9v21.7h-28.9v17h30.5v21.7h-56.2v-98.7h56.2v21.7H1240.5z"/>
		<path class="st6" d="M1344.5,1553.8v-21.7h39.8v98.7h-25.7v-77H1344.5z"/>
		<path class="st6" d="M1433.9,1630.8l28.1-33.2l-0.3-0.3c-2.3,1-4.5,1.7-6.7,2.2c-2.2,0.5-4.6,0.8-7.2,0.8c-4.9,0-9.3-1-13.2-2.9
			c-3.9-1.9-7.2-4.5-10-7.7c-2.8-3.2-4.9-6.9-6.4-11.1c-1.5-4.2-2.2-8.5-2.2-13.1c0-6,1.2-11.4,3.5-16c2.3-4.7,5.4-8.6,9.3-11.7
			c3.9-3.1,8.4-5.5,13.5-7.1c5.1-1.6,10.5-2.4,16.2-2.4c4.8,0,9.7,0.7,14.8,2c5.1,1.3,9.5,3.5,13.3,6.5c4,3.2,7.2,7.3,9.6,12.1
			c2.4,4.8,3.6,9.9,3.6,15.1c0,3.6-0.4,7.1-1.3,10.6c-0.9,3.5-2,6.9-3.5,10.2c-1.4,3.3-3.1,6.5-5,9.6c-1.9,3.1-3.9,6-6,8.8
			l-21.1,27.6H1433.9z M1458.7,1548.5c-2.3,0-4.4,0.4-6.3,1.2c-1.9,0.8-3.6,2-5.1,3.5c-1.4,1.5-2.5,3.2-3.3,5.2
			c-0.8,2-1.2,4.1-1.2,6.3c0,2.3,0.4,4.4,1.2,6.4c0.8,2,1.9,3.7,3.3,5.2c1.5,1.5,3.1,2.6,5.1,3.5c1.9,0.8,4,1.2,6.3,1.2
			c2.3,0,4.4-0.4,6.4-1.2c2-0.8,3.7-2,5.2-3.5c1.5-1.5,2.7-3.2,3.5-5.2c0.9-2,1.3-4.1,1.3-6.4c0-2.3-0.4-4.4-1.3-6.3
			c-0.9-2-2-3.7-3.5-5.2c-1.5-1.5-3.2-2.6-5.2-3.5C1463.1,1548.9,1461,1548.5,1458.7,1548.5z"/>
		<path class="st6" d="M1512.3,1553.8v-21.7h81l-56.7,98.7h-28.1l45-77H1512.3z"/>
		<path class="st6" d="M1678.5,1590.8v19.6h-11.9v20.4h-23.8v-20.4h-47.9V1594l38.1-61.9h33.6v58.7H1678.5z M1642.8,1552.8h-0.3
			l-23,38h23.3V1552.8z"/>
	</g>
</g>
</svg>
