<?xml version="1.0" encoding="utf-8"?>
<!-- Generator: Adobe Illustrator 22.1.0, SVG Export Plug-In . SVG Version: 6.00 Build 0)  -->
<svg version="1.1" id="Layer_1" xmlns="http://www.w3.org/2000/svg" xmlns:xlink="http://www.w3.org/1999/xlink" x="0px" y="0px"
	 viewBox="0 0 300 250" style="enable-background:new 0 0 300 250;" xml:space="preserve">
<style type="text/css">
	.st0{fill:#231F20;}
	.st1{fill:none;}
	.st2{fill:#EC1C24;}
	.st3{fill:#FFFFFF;}
</style>
<rect class="st0" width="300" height="250"/>
<path class="st1" d="M158.3,139.2c0.1,0,0.1,0,0.2,0l8.1-15.8l-0.6,0.1c-0.5,0.1-0.9-0.1-1.1-0.6c-0.1-0.5,0.1-0.9,0.6-1.1l2.3-0.9
	l0.9-1.7h-2.3l-1.2,0.5c-0.6,0.3-1.3,0.1-1.6-0.4c0,0,0-0.1,0-0.1h-10.2c-0.6,0-1.1-0.3-1.4-0.8c-0.3-0.5-0.3-1.1-0.1-1.5l2.3-4.6
	c-0.1-0.2-0.2-0.4-0.2-0.7l3.6-22.7c0.5-1.8,2.3-2.8,4-2.3c1.8,0.5,2.8,2.3,2.3,4l-3.1,8l14-28.7h-42.3l-1.5,13.6
	c0.1,0.1,0.2,0.1,0.2,0.2l12.7,28.7c0.3,0.6,0.1,1.3-0.4,1.6c-0.6,0.3-1.3,0.1-1.6-0.4l-12.4-17l-0.5,4.4l11.5,14.2
	c0.3,0.3,0.3,0.9,0,1.2c-0.3,0.3-0.9,0.3-1.2,0l-11-8.9l-0.3,3.1l9.7,7.1c0.6,0.3,0.8,1,0.4,1.6c-0.3,0.6-1,0.8-1.6,0.4l-9.1-4.1
	l-0.3,2.6l9,3.5c0.5,0.1,0.7,0.6,0.6,1.1c-0.1,0.5-0.6,0.7-1.1,0.6l-9-1.4l-0.3,2.5l8.6,0.9c0.6,0,1.2,0.5,1.2,1.2
	c0,0.6-0.5,1.2-1.2,1.2l-5.3,0.6h10.6c0.5,0,0.9,0.2,1.2,0.5s0.4,0.8,0.4,1.3l-1.5,11.5l1.5-2c0.3-0.6,1-0.8,1.6-0.4
	c0.6,0.3,0.8,1,0.4,1.6l-4.7,10.7l-1.4,10.9l8.2-21.2c0.1-0.5,0.6-0.7,1.1-0.6c0.5,0.1,0.7,0.6,0.6,1.1l-3.6,22.7
	c-0.5,1.8-2.3,2.8-4,2.3c-1.5-0.4-2.4-1.7-2.4-3.2l-2.7,21.2l12.8-24.9l1.8-17.4c0-0.6,0.5-1.2,1.2-1.2c0.7,0,1.2,0.5,1.2,1.2
	l0.8,7.6l1.9-3.7l-0.7-4.6c-0.1-0.5,0.1-0.9,0.6-1.1c0.5-0.1,0.9,0.1,1.1,0.6l0.7,1.9l1.3-2.5C157.7,140,157.9,139.5,158.3,139.2z
	 M147.3,112.6c-0.5,0.1-0.9-0.1-1.1-0.6l-8.3-21.5c-0.5-1.8,0.6-3.6,2.3-4c1.8-0.5,3.6,0.6,4,2.3l3.6,22.7
	C148,112,147.7,112.5,147.3,112.6z M151,112c-0.7,0-1.2-0.5-1.2-1.2l-3.3-31.2c0-2.5,2-4.5,4.5-4.5c2.5,0,4.5,2,4.5,4.5l-3.3,31.2
	C152.2,111.5,151.7,112,151,112z"/>
<path class="st2" d="M151,109.7c0.7,0,1.2,0.5,1.2,1.2l3.3-31.2c0,2.5-2,4.5-4.5,4.5c-2.5,0-4.5-2-4.5-4.5l3.3,31.2
	C149.8,110.2,150.4,109.7,151,109.7z"/>
<circle cx="151" cy="79.6" r="4.5"/>
<path class="st2" d="M151,109.7c-0.7,0-1.2,0.5-1.2,1.2s0.5,1.2,1.2,1.2c0.7,0,1.2-0.5,1.2-1.2S151.7,109.7,151,109.7z"/>
<path class="st2" d="M142,92.9c-1.8,0.5-3.6-0.6-4-2.3l8.3,21.5c-0.1-0.5,0.1-0.9,0.6-1.1c0.5-0.1,0.9,0.1,1.1,0.6l-3.6-22.7
	C144.8,90.6,143.7,92.4,142,92.9z"/>
<path d="M142,92.9c1.8-0.5,2.8-2.3,2.3-4c-0.5-1.8-2.3-2.8-4-2.3c-1.8,0.5-2.8,2.3-2.3,4C138.4,92.3,140.2,93.3,142,92.9z"/>
<path class="st2" d="M146.8,110.9c-0.5,0.1-0.7,0.6-0.6,1.1s0.6,0.7,1.1,0.6c0.5-0.1,0.7-0.6,0.6-1.1
	C147.8,111.1,147.3,110.8,146.8,110.9z"/>
<path class="st2" d="M139.5,115.1c0.3-0.3,0.9-0.3,1.2,0l-11.5-14.2l-0.7,6.6l11,8.9C139.2,116,139.2,115.5,139.5,115.1z"/>
<path class="st2" d="M126.4,97.4l-0.1-0.2C126.4,97.3,126.4,97.4,126.4,97.4L126.4,97.4z"/>
<path class="st2" d="M121.7,101.9l3.9,3.2l0.3-2.9C124.6,103.1,122.8,103.1,121.7,101.9z"/>
<path class="st3" d="M125.9,102.2l0.5-4.7c-0.1-0.1-0.1-0.1-0.1-0.2c-1.3-1.3-3.4-1.3-4.7,0c-1.3,1.3-1.3,3.4,0,4.7
	C122.8,103.1,124.6,103.1,125.9,102.2z"/>
<path class="st2" d="M139.5,115.1c-0.3,0.3-0.3,0.9,0,1.2c0.3,0.3,0.9,0.3,1.2,0c0.3-0.3,0.3-0.9,0-1.2
	C140.4,114.8,139.9,114.8,139.5,115.1z"/>
<path class="st2" d="M114.9,113.5c1.8,0.5,2.8,2.3,2.3,4c-0.5,1.8-2.3,2.8-4,2.3l10.5,1.7l0.5-4.4L114.9,113.5z"/>
<path class="st2" d="M135.3,122.4c0.1-0.5,0.6-0.7,1.1-0.6l-9-3.5l-0.4,3.7l9,1.4C135.5,123.3,135.2,122.9,135.3,122.4z"/>
<path class="st3" d="M117.3,117.6c0.5-1.8-0.6-3.6-2.3-4c-1.8-0.5-3.6,0.6-4,2.3c-0.5,1.8,0.6,3.6,2.3,4
	C115,120.4,116.8,119.3,117.3,117.6z"/>
<path class="st2" d="M135.3,122.4c-0.1,0.5,0.1,0.9,0.6,1.1c0.5,0.1,0.9-0.1,1.1-0.6c0.1-0.5-0.1-0.9-0.6-1.1
	C135.9,121.7,135.5,122,135.3,122.4z"/>
<path class="st2" d="M113.2,133.3c1.8-0.5,3.6,0.6,4,2.3c0.5,1.8-0.6,3.6-2.3,4l21.1-8.1h-11.5L113.2,133.3z"/>
<path class="st3" d="M117.3,135.7c-0.5-1.8-2.3-2.8-4-2.3c-1.8,0.5-2.8,2.3-2.3,4c0.5,1.8,2.3,2.8,4,2.3
	C116.7,139.2,117.7,137.4,117.3,135.7z"/>
<path class="st2" d="M121.7,151.3c1.3-1.3,3.4-1.3,4.7,0c1.3,1.3,1.3,3.4,0,4.6l11-13.7l0.5-4.1L121.7,151.3z"/>
<path class="st3" d="M126.3,151.3c-1.3-1.3-3.4-1.3-4.7,0c-1.3,1.3-1.3,3.4,0,4.6c1.3,1.3,3.4,1.3,4.7,0
	C127.6,154.7,127.6,152.6,126.3,151.3z"/>
<path class="st2" d="M142,160.4c1.8,0.5,2.8,2.3,2.3,4l3.6-22.7c-0.1,0.5-0.6,0.7-1.1,0.6c-0.5-0.1-0.7-0.6-0.6-1.1l-8.2,21.2l0,0.1
	C138.6,160.9,140.3,159.9,142,160.4z"/>
<path d="M140.3,166.7c1.8,0.5,3.6-0.6,4-2.3c0.5-1.8-0.6-3.6-2.3-4c-1.7-0.5-3.4,0.5-4,2.2l-0.1,1
	C137.9,165,138.8,166.3,140.3,166.7z"/>
<path class="st2" d="M146.8,142.3c0.5,0.1,0.9-0.1,1.1-0.6c0.1-0.5-0.1-0.9-0.6-1.1c-0.5-0.1-0.9,0.1-1.1,0.6
	C146.1,141.7,146.4,142.2,146.8,142.3z"/>
<path class="st2" d="M157.7,164.4c-0.5-1.8,0.6-3.6,2.3-4c1.8-0.5,3.6,0.6,4,2.3l-6-15.6l-2.3,4.6L157.7,164.4z"/>
<path class="st2" d="M155.2,142.3c-0.5,0.1-0.9-0.1-1.1-0.6l0.7,4.6l1.7-3.2l-0.7-1.9C156,141.7,155.7,142.2,155.2,142.3z"/>
<path class="st3" d="M160.1,160.4c-1.8,0.5-2.8,2.3-2.3,4c0.5,1.8,2.3,2.8,4,2.3c1.8-0.5,2.8-2.3,2.3-4
	C163.6,160.9,161.8,159.9,160.1,160.4z"/>
<path class="st2" d="M155.2,142.3c0.5-0.1,0.7-0.6,0.6-1.1c-0.1-0.5-0.6-0.7-1.1-0.6c-0.5,0.1-0.7,0.6-0.6,1.1
	C154.3,142.1,154.8,142.4,155.2,142.3z"/>
<path class="st2" d="M175.7,156c-1.3-1.3-1.3-3.4,0-4.6c1.3-1.3,3.4-1.3,4.7,0l-17.3-14l-0.9,1.8L175.7,156z"/>
<path class="st3" d="M175.7,151.3c-1.3,1.3-1.3,3.4,0,4.6c1.3,1.3,3.4,1.3,4.7,0c1.3-1.3,1.3-3.4,0-4.6
	C179.1,150,177,150,175.7,151.3z"/>
<path class="st2" d="M166.7,130.8c-0.1,0.3-0.3,0.4-0.5,0.5l-0.1,0.2l21.1,8.1c-1.8-0.5-2.8-2.3-2.3-4c0.5-1.8,2.3-2.8,4-2.3
	l-21.9-3.4l-0.3,0.5C166.7,130.5,166.7,130.7,166.7,130.8z"/>
<path class="st3" d="M184.8,135.7c-0.5,1.8,0.6,3.6,2.3,4c1.8,0.5,3.6-0.6,4-2.3c0.5-1.8-0.6-3.6-2.3-4
	C187,132.9,185.2,133.9,184.8,135.7z"/>
<path class="st2" d="M166.7,130.8c0-0.1,0-0.3-0.1-0.4l-0.5,1C166.4,131.3,166.6,131.1,166.7,130.8z"/>
<path class="st2" d="M166.7,122.4c0.1,0.5-0.1,0.9-0.6,1.1l0.6-0.1l1.3-2.4l-2.3,0.9C166.1,121.7,166.6,122,166.7,122.4z"/>
<path class="st2" d="M188.8,119.9c-1.8,0.5-3.6-0.6-4-2.3c-0.5-1.8,0.6-3.6,2.3-4l-14.7,5.7l-1.8,3.6L188.8,119.9z"/>
<path class="st3" d="M184.8,117.6c0.5,1.8,2.3,2.8,4,2.3c1.8-0.5,2.8-2.3,2.3-4c-0.5-1.8-2.3-2.8-4-2.3
	C185.3,114,184.3,115.8,184.8,117.6z"/>
<path class="st2" d="M166.7,122.4c-0.1-0.5-0.6-0.7-1.1-0.6c-0.5,0.1-0.7,0.6-0.6,1.1c0.1,0.5,0.6,0.7,1.1,0.6
	C166.5,123.3,166.8,122.9,166.7,122.4z"/>
<path class="st2" d="M162.5,115.1c0.2,0.2,0.2,0.6,0.1,0.9h0.3l17.4-14.1c-1.3,1.3-3.4,1.3-4.7,0c-1.3-1.3-1.3-3.4,0-4.7l-14.5,17.9
	C161.6,114.8,162.2,114.8,162.5,115.1z"/>
<path class="st3" d="M175.7,101.9c1.3,1.3,3.4,1.3,4.7,0c1.3-1.3,1.3-3.4,0-4.7c-1.3-1.3-3.4-1.3-4.7,0
	C174.4,98.5,174.4,100.6,175.7,101.9z"/>
<path class="st2" d="M162.6,116c0.1-0.3,0.1-0.6-0.1-0.9c-0.3-0.3-0.9-0.3-1.2,0c-0.2,0.2-0.2,0.6-0.1,0.9H162.6z"/>
<path class="st2" d="M160.1,92.9c-1.8-0.5-2.8-2.3-2.3-4l-3.6,22.7c0.1-0.4,0.4-0.5,0.8-0.6l6.1-12.5l3.1-8
	C163.6,92.3,161.8,93.3,160.1,92.9z"/>
<path d="M160.1,92.9c1.8,0.5,3.6-0.6,4-2.3c0.5-1.8-0.6-3.6-2.3-4c-1.8-0.5-3.6,0.6-4,2.3C157.3,90.6,158.3,92.4,160.1,92.9z"/>
<path class="st2" d="M154.2,111.5c-0.1,0.3,0,0.5,0.2,0.7l0.6-1.3C154.6,111,154.3,111.2,154.2,111.5z"/>
<path class="st2" d="M142.5,111.9c0.6-0.3,1.3-0.1,1.6,0.4l-12.7-28.7c1.1,1.8,0.6,4-0.8,5.4l-0.8,7.5l12.4,17
	C141.8,113,142,112.3,142.5,111.9z"/>
<path class="st2" d="M123.6,88.2l3.3,4.6l0.3-2.4C125.8,90.2,124.4,89.5,123.6,88.2z"/>
<path d="M131.4,83.7c-0.1-0.1-0.1-0.1-0.2-0.2l-0.6,5.7C132,87.7,132.5,85.5,131.4,83.7z"/>
<path class="st3" d="M127.2,90.3l1-8.8c-1-0.1-2,0-2.9,0.5c-2.1,1.2-2.9,4-1.6,6.1C124.4,89.5,125.8,90.2,127.2,90.3z"/>
<path class="st2" d="M142.5,111.9c-0.6,0.3-0.8,1-0.4,1.6c0.3,0.6,1,0.8,1.6,0.4c0.6-0.3,0.8-1,0.4-1.6
	C143.8,111.8,143.1,111.6,142.5,111.9z"/>
<path class="st2" d="M136.3,118.1c0.3-0.6,1-0.8,1.6-0.4l-9.7-7.1l-0.6,5.1l9.1,4.1C136.2,119.4,136,118.7,136.3,118.1z"/>
<path class="st2" d="M112.6,99.2c2.1,1.2,2.9,4,1.6,6.1c-1.2,2.1-4,2.9-6.1,1.6l16.5,7.3l0.6-5.9L112.6,99.2z"/>
<path class="st3" d="M114.2,105.4c1.2-2.1,0.5-4.9-1.6-6.1c-2.1-1.2-4.9-0.5-6.1,1.6c-1.2,2.1-0.5,4.9,1.6,6.1
	C110.2,108.2,113,107.5,114.2,105.4z"/>
<path class="st2" d="M136.3,118.1c-0.3,0.6-0.1,1.3,0.4,1.6c0.6,0.3,1.3,0.1,1.6-0.4c0.3-0.6,0.1-1.3-0.4-1.6
	C137.4,117.4,136.7,117.6,136.3,118.1z"/>
<path class="st2" d="M134.1,126.6c0-0.7,0.5-1.2,1.2-1.2l-8.6-0.9l-0.4,3.8h3.7l5.3-0.6C134.6,127.8,134.1,127.3,134.1,126.6z"/>
<path class="st2" d="M104,122.1c2.5,0,4.5,2,4.5,4.5c0,2.5-2,4.5-4.5,4.5l18.9-2l0.5-4.9L104,122.1z"/>
<circle class="st3" cx="104" cy="126.6" r="4.5"/>
<path class="st2" d="M134.1,126.6c0,0.6,0.5,1.2,1.2,1.2c0.6,0,1.2-0.5,1.2-1.2c0-0.7-0.5-1.2-1.2-1.2
	C134.6,125.4,134.1,126,134.1,126.6z"/>
<path class="st2" d="M136.3,135.1c-0.3-0.6-0.1-1.3,0.4-1.6l-28.7,12.7c2.1-1.2,4.9-0.5,6.1,1.6c1.2,2.1,0.5,4.9-1.6,6.1l25.4-18.5
	C137.4,135.8,136.7,135.6,136.3,135.1z"/>
<path class="st3" d="M114.2,147.9c-1.2-2.1-4-2.9-6.1-1.6c-2.1,1.2-2.9,4-1.6,6.1c1.2,2.1,4,2.9,6.1,1.6
	C114.7,152.8,115.4,150,114.2,147.9z"/>
<path class="st2" d="M138.4,133.9c-0.3-0.6-1-0.8-1.6-0.4c-0.6,0.3-0.8,1-0.4,1.6c0.3,0.6,1,0.8,1.6,0.4c0.2-0.1,0.2-0.3,0.3-0.4
	l0.1-1.1C138.4,134,138.4,133.9,138.4,133.9z"/>
<path class="st2" d="M142.5,141.3c-0.6-0.3-0.8-1-0.4-1.6l-1.5,2l-1.2,9.9l4.7-10.7C143.8,141.4,143.1,141.6,142.5,141.3z"/>
<path class="st2" d="M123.6,165.1c1.2-2.1,4-2.9,6.1-1.6c2.1,1.2,2.9,4,1.6,6.1l3.5-7.9l1.8-14.6L123.6,165.1z"/>
<path class="st3" d="M129.8,163.4c-2.1-1.2-4.9-0.5-6.1,1.6c-1.2,2.1-0.5,4.9,1.6,6.1c2.1,1.2,4.9,0.5,6.1-1.6
	C132.6,167.4,131.9,164.7,129.8,163.4z"/>
<path class="st2" d="M142.5,141.3c0.6,0.3,1.3,0.1,1.6-0.4c0.3-0.6,0.1-1.3-0.4-1.6c-0.6-0.3-1.3-0.1-1.6,0.4
	C141.8,140.2,142,141,142.5,141.3z"/>
<path class="st2" d="M151,143.6c-0.7,0-1.2-0.5-1.2-1.2l-1.8,17.4l5-9.8l-0.8-7.6C152.2,143,151.7,143.6,151,143.6z"/>
<path class="st2" d="M146.5,173.6c0-2.5,2-4.5,4.5-4.5c2.5,0,4.5,2,4.5,4.5l-1.9-17.8l-6.6,12.8L146.5,173.6z"/>
<circle class="st3" cx="151" cy="173.6" r="4.5"/>
<path class="st2" d="M151,143.6c0.7,0,1.2-0.5,1.2-1.2c0-0.6-0.5-1.2-1.2-1.2c-0.7,0-1.2,0.5-1.2,1.2
	C149.8,143,150.4,143.6,151,143.6z"/>
<path class="st2" d="M170.6,169.6c-1.2-2.1-0.5-4.9,1.6-6.1c2.1-1.2,4.9-0.5,6.1,1.6l-17.3-23.8l-1.6,3.1L170.6,169.6z"/>
<path class="st3" d="M172.3,163.4c-2.1,1.2-2.9,4-1.6,6.1c1.2,2.1,4,2.9,6.1,1.6c2.1-1.2,2.9-4,1.6-6.1
	C177.2,162.9,174.4,162.2,172.3,163.4z"/>
<path class="st2" d="M157.8,140.5l0.7-1.3c-0.1,0-0.1,0-0.2,0C157.9,139.5,157.7,140,157.8,140.5z"/>
<path class="st2" d="M165.7,135.1c-0.3,0.6-1,0.8-1.6,0.4l25.4,18.5c-2.1-1.2-2.9-4-1.6-6.1c1.2-2.1,4-2.9,6.1-1.6l-28.7-12.7
	C165.8,133.8,166,134.5,165.7,135.1z"/>
<path class="st3" d="M187.8,147.9c-1.2,2.1-0.5,4.9,1.6,6.1c2.1,1.2,4.9,0.5,6.1-1.6c1.2-2.1,0.5-4.9-1.6-6.1
	C191.8,145,189.1,145.7,187.8,147.9z"/>
<path class="st2" d="M164.1,135.5c0.6,0.3,1.3,0.1,1.6-0.4c0.3-0.6,0.1-1.3-0.4-1.6c-0.1,0-0.1,0-0.2,0L164.1,135.5
	C164.1,135.5,164.1,135.5,164.1,135.5z"/>
<path class="st2" d="M193.5,126.6c0-2.5,2-4.5,4.5-4.5l-28.7,3l-1.4,2.7l30.1,3.2C195.5,131.1,193.5,129.1,193.5,126.6z"/>
<circle class="st3" cx="198" cy="126.6" r="4.5"/>
<path class="st2" d="M172.5,116.5L194,107c-2.1,1.2-4.9,0.5-6.1-1.6c-1.2-2.1-0.5-4.9,1.6-6.1l-23,16.8h5
	C171.8,116,172.2,116.2,172.5,116.5z"/>
<path class="st2" d="M166.5,119.2h-0.8c-0.1,0.2-0.2,0.4-0.4,0.5L166.5,119.2z"/>
<path class="st3" d="M187.8,105.4c1.2,2.1,4,2.9,6.1,1.6c2.1-1.2,2.9-4,1.6-6.1c-1.2-2.1-4-2.9-6.1-1.6
	C187.3,100.5,186.6,103.2,187.8,105.4z"/>
<path class="st2" d="M165.3,119.7c0.2-0.1,0.3-0.3,0.4-0.5h-2c0,0,0,0.1,0,0.1C164,119.9,164.7,120.1,165.3,119.7z"/>
<path class="st2" d="M172.3,89.8c-1.1-0.6-1.8-1.7-2.1-2.8l-2.1,4.3c0,0,0,0,0,0l-9.5,19.6l-0.7,1.5c0.3-0.6,1-0.8,1.6-0.4
	c0.6,0.3,0.8,1,0.4,1.6l18.5-25.4C177.2,90.3,174.4,91,172.3,89.8z"/>
<path class="st3" d="M170.2,87c0.3,1.1,1,2.2,2.1,2.8c2.1,1.2,4.9,0.5,6.1-1.6c1.2-2.1,0.5-4.9-1.6-6.1c-1.3-0.8-2.8-0.7-4.1-0.1
	L170.2,87z"/>
<path class="st2" d="M159.5,111.9c-0.6-0.3-1.3-0.1-1.6,0.4c-0.3,0.6-0.1,1.3,0.4,1.6c0.6,0.3,1.3,0.1,1.6-0.4
	C160.2,113,160.1,112.3,159.5,111.9z"/>
<path class="st2" d="M154.9,146.3L153,150l-5,9.8l-12.8,24.9l2.7-21.2l0.1-1l0-0.1l1.4-10.9l1.2-9.9l1.5-11.5
	c0.1-0.5-0.1-0.9-0.4-1.3s-0.7-0.5-1.2-0.5h-10.6h-3.7l0.4-3.8l0.3-2.5l0.4-3.7l0.3-2.6l0.6-5.1l0.3-3.1l0.7-6.6l0.5-4.4l0.8-7.5
	l0.6-5.7l1.5-13.6H175l-14,28.7l-6.1,12.5l-0.6,1.3l-2.3,4.6c-0.2,0.5-0.2,1.1,0.1,1.5c0.3,0.5,0.8,0.8,1.4,0.8h10.2h2h0.8h2.3
	l-0.9,1.7l-1.3,2.4l-8.1,15.8l-0.7,1.3l-1.3,2.5L154.9,146.3z"/>
<g>
	<path class="st3" d="M81.3,99.8L57.8,87.1l7.9-14.5c1-1.9,2.9-2.5,4.7-1.5l5.2,2.8c1.6,0.9,2.6,2.7,1.9,5.2
		c1.7-1.9,3.8-2.3,5.4-1.4l5.1,2.8c1.8,1,2.3,2.8,1.3,4.8L81.3,99.8z M69.3,78c-0.2-0.1-0.4-0.1-0.6,0.1l-3,5.4l4.9,2.7l3-5.4
		c0.1-0.2,0-0.4-0.2-0.6L69.3,78z M78.4,83c-0.2-0.1-0.4-0.1-0.6,0.1l-3,5.4l5.2,2.8l3-5.4c0.1-0.2,0-0.4-0.2-0.5L78.4,83z"/>
	<path class="st3" d="M107,66.2l-5,4.8l-4.6-4.8l-4.4,4.2l4.6,4.8l-5,4.8L76.4,62.9c-1.3-1.3-1.2-3.1,0.1-4.4l9.8-9.4
		c1.3-1.3,3.1-1.2,4.4,0.1L107,66.2z M93.5,62l-5.6-5.8c-0.3-0.3-0.8-0.3-1.2,0.1l-3.1,3c-0.3,0.3-0.4,0.8-0.1,1.1l5.6,5.8L93.5,62z
		"/>
	<path class="st3" d="M122.8,46.8l3.1,6.2c0.8,1.6,0.1,3.4-1.4,4.1l-12,6c-1.5,0.8-3.3,0.2-4.1-1.4l-9.2-18.5
		c-0.7-1.5-0.1-3.3,1.4-4.1l12-6c1.5-0.8,3.4-0.2,4.1,1.3l3.1,6.2l-6.2,3.1l-1.7-3.3c-0.1-0.2-0.4-0.3-0.5-0.2l-4.5,2.2
		c-0.2,0.1-0.3,0.4-0.2,0.6l6.4,12.9c0.1,0.2,0.4,0.3,0.6,0.2l4.5-2.2c0.1-0.1,0.2-0.3,0.1-0.5l-1.7-3.4L122.8,46.8z"/>
	<path class="st3" d="M144,52.7l-6.8-9.3l-1.6,3.8l1.1,6.6l-6.8,1.1l-4.3-26.4l6.8-1.1l1.8,11l5.1-12.1l7.6-1.2l-5.8,12.7l10.3,13.7
		L144,52.7z"/>
	<path class="st3" d="M152.2,52l3.9-26.4l16.3,2.4c2.2,0.3,3.3,1.9,3,3.8l-0.9,5.9c-0.3,1.8-1.7,3.4-4.2,3.6
		c2.3,0.9,3.5,2.8,3.2,4.6l-0.8,5.8c-0.3,2.1-1.9,3.2-4,2.9L152.2,52z M166.9,43.5c0-0.2-0.1-0.4-0.3-0.5l-6.1-0.9l-0.9,5.8l6.1,0.9
		c0.3,0,0.4-0.1,0.4-0.3L166.9,43.5z M168.5,33.1c0-0.2-0.1-0.4-0.3-0.5l-6.1-0.9l-0.8,5.5l6.1,0.9c0.3,0,0.4-0.1,0.5-0.4
		L168.5,33.1z"/>
	<path class="st3" d="M201.7,39.2c1.7,0.8,2.2,2.5,1.4,4.2l-9,18.4c-0.8,1.7-2.5,2.2-4.2,1.4l-12.3-6.1c-1.7-0.8-2.2-2.5-1.4-4.2
		l9-18.4c0.8-1.7,2.5-2.2,4.2-1.4L201.7,39.2z M195.6,43.1c0.1-0.2,0-0.5-0.2-0.6l-4.9-2.4c-0.1-0.1-0.4,0-0.5,0.2l-6.4,12.9
		c-0.1,0.2,0,0.4,0.2,0.5l4.9,2.4c0.2,0.1,0.5,0.1,0.5-0.1L195.6,43.1z"/>
	<path class="st3" d="M210.1,60.3l-10.3,10.5l-4.5-4.4L214,47.3l4.5,4.4L214,67.8l10.3-10.6l4.5,4.4l-18.7,19.1l-4.7-4.6L210.1,60.3
		z"/>
	<path class="st3" d="M235.7,71.3l8.3,15.3l-5,2.7l-5.1-9.3l-4.1,2.2l4.4,8.1l-5,2.7l-4.4-8.1l-4.2,2.3l5.1,9.3l-5.1,2.8l-8.3-15.3
		L235.7,71.3z"/>
</g>
<g>
	<path class="st3" d="M65.3,137.8l-10.9,1.8l-0.8-4.7l19.8-3.2l0.8,4.7l-9.9,7.7l10.9-1.8l0.8,4.7l-19.8,3.2l-0.8-4.8L65.3,137.8z"
		/>
	<path class="st3" d="M81.8,161.6c0.5,1.3,0,2.5-1.2,3.1l-14.1,6c-1.3,0.5-2.5,0-3.1-1.2l-4-9.5c-0.5-1.3,0-2.5,1.2-3.1l14.1-6
		c1.3-0.5,2.5,0,3.1,1.2L81.8,161.6z M76.4,160.8c0.2-0.1,0.2-0.3,0.2-0.4l-1.6-3.7c0-0.1-0.2-0.2-0.4-0.1l-9.9,4.2
		c-0.1,0.1-0.2,0.2-0.1,0.3l1.6,3.7c0.1,0.2,0.2,0.3,0.4,0.2L76.4,160.8z"/>
	<path class="st3" d="M91.9,176.7c0.7,1,0.5,2.4-0.5,3.2l-7.4,5.4c-1,0.7-2.4,0.5-3.2-0.5l-0.1-0.1l-3.7,5.8l-3-4.1l3.6-5.8
		l-1.3-1.8l-5.1,3.8l-3.1-4.2l16.2-11.9L91.9,176.7z M86.5,177.2c0.1-0.1,0.2-0.3,0.1-0.4l-2.5-3.4l-4.3,3.2l2.5,3.4
		c0.1,0.1,0.3,0.1,0.4,0.1L86.5,177.2z"/>
	<path class="st3" d="M104.8,189l-2.9,3.2l-3.4-3L88,200.9l-3.8-3.5l10.5-11.7l-3.4-3l2.9-3.2L104.8,189z"/>
	<path class="st3" d="M109.5,215.1l-4.5-2.6l3.9-6.9l-4.3-2.4l-3.9,6.9l-4.5-2.6l9.9-17.4l4.5,2.6l-3.8,6.7l4.3,2.4l3.8-6.7l4.5,2.6
		L109.5,215.1z"/>
	<path class="st3" d="M139.1,223.6l-5.1-1l1-4.9l-4.5-0.9l-1,4.9l-5.1-1l3.5-17.4c0.3-1.4,1.4-2.1,2.8-1.8l10,2
		c1.4,0.3,2.1,1.4,1.8,2.8L139.1,223.6z M135.9,213.4l1.2-5.9c0.1-0.3-0.2-0.6-0.6-0.7l-3.1-0.6c-0.3-0.1-0.7,0.1-0.7,0.5l-1.2,5.9
		L135.9,213.4z"/>
	<path class="st3" d="M151.3,212.8l0.6,11.3l-4.7,0.3l-1.1-20l5.2-0.3l4.5,9.1l3.2-9.5l5.5-0.3l1.1,20l-4.9,0.3l-0.6-11.5l-2.9,8.1
		l-2,0.1L151.3,212.8z"/>
	<path class="st3" d="M167.7,202.4l12.5-3.8l1.3,4.1l-7.6,2.3l1,3.4l6.6-2l1.3,4.1l-6.6,2l1.1,3.5l7.6-2.3l1.3,4.2l-12.5,3.8
		L167.7,202.4z"/>
	<path class="st3" d="M193.8,191.3c1.1-0.6,2.4-0.3,3.1,0.8l4.5,8c0.6,1.1,0.2,2.5-0.8,3.1l-0.1,0.1l5.3,4.3l-4.4,2.5l-5.3-4.3
		l-1.9,1.1l3.1,5.5l-4.5,2.5l-9.9-17.4L193.8,191.3z M193.5,196.8c-0.1-0.1-0.3-0.2-0.4-0.1l-3.7,2.1l2.6,4.6l3.7-2.1
		c0.1-0.1,0.2-0.3,0.1-0.4L193.5,196.8z"/>
	<path class="st3" d="M215.2,199.9l-4,3.3l-12.8-15.4l3.9-3.3L215.2,199.9z"/>
	<path class="st3" d="M224.5,179l4,3.4c1,0.8,1,2.3,0.2,3.3l-6.5,7.7c-0.8,1-2.2,1.1-3.2,0.3l-11.8-10.1c-0.9-0.8-1.1-2.2-0.2-3.2
		l6.5-7.7c0.8-1,2.3-1.1,3.2-0.3l3.9,3.4l-3.3,3.9l-2.1-1.8c-0.1-0.1-0.3-0.1-0.4,0l-2.4,2.9c-0.1,0.1-0.1,0.3,0,0.5l8.2,7
		c0.1,0.1,0.3,0.1,0.4-0.1l2.4-2.9c0.1-0.1,0.1-0.3-0.1-0.4l-2.2-1.8L224.5,179z"/>
	<path class="st3" d="M240.9,164.9l-2.4,4.6l-4.4-2.3l-2.1,4l4.4,2.3l-2.4,4.6l-15.7-8.2c-1.2-0.6-1.6-1.9-1-3.2l4.7-9
		c0.6-1.2,1.9-1.6,3.2-1L240.9,164.9z M230.3,165.2l-5.4-2.8c-0.3-0.2-0.7,0-0.9,0.4l-1.5,2.8c-0.2,0.3-0.1,0.7,0.2,0.8l5.4,2.8
		L230.3,165.2z"/>
	<path class="st3" d="M234.2,150.1l10.7,2.6l-1.1,4.6l-19.5-4.8l1.1-4.6l12.2-3.2l-10.7-2.6l1.1-4.6l19.5,4.8l-1.2,4.8L234.2,150.1z
		"/>
</g>
<polygon class="st3" points="166.7,90.6 168.9,86 177.6,68.2 131.3,68.2 129.3,86 128.8,90.6 124.5,129.9 140.5,129.9 136.8,159.4 
	136.2,163.9 132.5,193.5 147.7,163.9 150,159.4 171.4,117.6 153.5,117.6 "/>
</svg>
