<?xml version="1.0" encoding="utf-8"?>
<!-- Generator: Adobe Illustrator 22.0.1, SVG Export Plug-In . SVG Version: 6.00 Build 0)  -->
<svg version="1.1" id="Layer_1" xmlns="http://www.w3.org/2000/svg" xmlns:xlink="http://www.w3.org/1999/xlink" x="0px" y="0px"
	 viewBox="0 0 300 250" style="enable-background:new 0 0 300 250;" xml:space="preserve">
<style type="text/css">
	.st0{fill:#FFE4A4;}
	.st1{fill:none;}
	.st2{fill:#711C12;}
	.st3{fill:#BD2926;}
	.st4{fill:#D94627;}
	.st5{fill:#E95C24;}
	.st6{fill:#F09E1F;}
	.st7{fill:#14413B;}
	.st8{fill:#035841;}
	.st9{fill:#027140;}
	.st10{fill:#008251;}
</style>
<g>
	<rect class="st0" width="300" height="250"/>
</g>
<g>
	<path class="st1" d="M74.9,124c-0.1,1.4-0.1,2.8-0.1,4.3s0,2.9,0.1,4.3V124z"/>
	<g>
		<path class="st2" d="M122.1,59c-19.8,7.8-35.4,23.8-42.8,43.8c5.5-1.7,11.1-2.9,16.9-3.7C100.6,83.2,109.8,69.2,122.1,59z"/>
	</g>
	<g>
		<path class="st3" d="M96.3,99.1c4.6-0.6,9.4-0.9,14.1-0.9c1.9,0,3.7,0.1,5.6,0.1c8.8-23,31-39.3,57.1-39.3c1.3,0,2.6,0,3.9,0.1
			c-8.6-3.4-17.9-5.3-27.7-5.3c-9.6,0-18.8,1.8-27.2,5.1C109.8,69.2,100.6,83.2,96.3,99.1z"/>
	</g>
	<g>
		<path class="st4" d="M116,98.3c6.5,0.3,12.9,1.2,19,2.7c7-13.9,21.4-23.5,38.1-23.5c16.7,0,31.1,9.6,38.1,23.6
			c2.2-0.6,4.5-1.1,6.8-1.5c-7.7-18.4-22.6-33-41.1-40.5c-1.3-0.1-2.6-0.1-3.9-0.1C147,59,124.8,75.3,116,98.3z"/>
	</g>
	<g>
		<path class="st5" d="M173.1,96c8.8,0,16.4,4.7,20.6,11.7c5.5-2.8,11.4-5,17.5-6.6c-7-14-21.4-23.6-38.1-23.6
			c-16.6,0-31.1,9.6-38.1,23.5c6.2,1.5,12.2,3.5,17.9,5.9C157.3,100.4,164.7,96,173.1,96z"/>
	</g>
	<g>
		<path class="st6" d="M173.1,96c-8.4,0-15.8,4.3-20.1,10.9c8,3.5,15.5,7.9,22.3,13.1c5.6-4.8,11.8-9,18.4-12.3
			C189.5,100.7,181.9,96,173.1,96z"/>
	</g>
	<path class="st7" d="M77.4,147.7c12-6,25.6-9.3,40-9.3c13.2,0,25.8,2.8,37.1,8c5.3-10,12.4-18.9,20.9-26.2
		c-6.8-5.2-14.3-9.6-22.3-13.1c-5.7-2.5-11.7-4.5-17.9-5.9c-6.2-1.5-12.5-2.4-19-2.7c-1.8-0.1-3.7-0.1-5.6-0.1
		c-4.8,0-9.5,0.3-14.1,0.9c-5.8,0.8-11.5,2-16.9,3.7c-2.5,6.7-4,13.8-4.4,21.3v8.6C75.2,137.8,76.1,142.8,77.4,147.7z"/>
	<path class="st8" d="M193.7,107.7c-6.7,3.4-12.9,7.5-18.4,12.3c-8.5,7.3-15.6,16.2-20.9,26.2c15.1,6.8,28,17.7,37.3,31.3
		c0.9,0,1.7,0,2.6,0c3.5,0,6.9,0.2,10.3,0.6c11.9-13.2,19.1-30.7,19.1-49.8c0-10.2-2.1-19.9-5.8-28.7c-2.3,0.4-4.6,0.9-6.8,1.5
		C205.1,102.7,199.3,104.9,193.7,107.7z"/>
	<g>
		<path class="st9" d="M144.2,192.8c13.7-9.2,30-14.7,47.6-15.2c-9.3-13.6-22.2-24.4-37.3-31.3c-11.3-5.1-23.9-8-37.1-8
			c-14.4,0-27.9,3.4-40,9.3c7.2,26.7,28.9,47.6,56.2,53.5C136.9,198.1,140.4,195.3,144.2,192.8z"/>
	</g>
	<g>
		<path class="st10" d="M191.7,177.6c-17.6,0.5-33.9,6-47.6,15.2c-3.7,2.5-7.3,5.3-10.6,8.3c5.1,1.1,10.4,1.7,15.8,1.7
			c21.9,0,41.7-9.5,55.4-24.7c-3.4-0.4-6.8-0.6-10.3-0.6C193.5,177.5,192.6,177.5,191.7,177.6z"/>
	</g>
	<path d="M124.9,209.1c7.9,2.5,16.3,3.8,25.1,3.8c27.6,0,52.2-13.3,67.6-33.8c10.7-14.2,17.1-31.8,17.1-50.9c0-10.2-1.8-20-5.1-29.1
		c-10.6-28.9-36.6-50.5-68-54.8c-3.8-0.5-7.6-0.8-11.5-0.8c-18.7,0-36,6.1-50,16.4c-21,15.4-34.6,40.3-34.6,68.3
		c0,16.5,4.7,31.9,12.9,44.9C88.9,190.1,105.4,203.1,124.9,209.1z M78.2,124.1c0.4-7.2,1.9-14.1,4.2-20.5
		c7.1-19.3,22.2-34.7,41.3-42.3c8.1-3.2,17-5,26.3-5c9.4,0,18.4,1.8,26.7,5.1c17.9,7.2,32.2,21.3,39.6,39c3.6,8.5,5.6,17.9,5.6,27.7
		c0,18.5-7,35.3-18.5,48.1c-13.2,14.6-32.2,23.8-53.4,23.8c-5.2,0-10.3-0.6-15.2-1.6c-26.3-5.7-47.3-25.8-54.2-51.6
		c-1.3-4.7-2.1-9.5-2.3-14.5c-0.1-1.4-0.1-2.7-0.1-4.1C78.1,126.9,78.2,125.5,78.2,124.1z"/>
</g>
</svg>
