<?xml version="1.0" encoding="utf-8"?>
<!-- Generator: Adobe Illustrator 22.0.1, SVG Export Plug-In . SVG Version: 6.00 Build 0)  -->
<svg version="1.1" id="Layer_1" xmlns="http://www.w3.org/2000/svg" xmlns:xlink="http://www.w3.org/1999/xlink" x="0px" y="0px"
	 viewBox="0 0 300 250" style="enable-background:new 0 0 300 250;" xml:space="preserve">
<style type="text/css">
	.st0{fill:#D14E2A;}
	.st1{fill:#251610;}
	.st2{fill:#EBDAA6;}
	.st3{fill:#F0A023;stroke:#251610;stroke-width:4.819;stroke-miterlimit:10;}
	.st4{fill:#EBDAA6;stroke:#251610;stroke-width:3.2126;stroke-miterlimit:10;}
	.st5{fill:none;stroke:#251610;stroke-width:3.2126;stroke-miterlimit:10;}
</style>
<rect y="0" class="st0" width="300" height="250"/>
<g>
	<g>
		<path class="st0" d="M150,221.9c-0.5,0-1.4,0-2.1-0.2l-97.3-22.2c-2-0.4-3.4-2.3-3.4-4.3v-66.3c0-2.2,1.8-4,4-4h197.7
			c2.2,0,4,1.8,4,4v66.3c0,2-1.5,3.9-3.4,4.3l-97.3,22.2C151.3,221.9,150.5,221.9,150,221.9z"/>
		<path class="st1" d="M248.8,127.3c0.9,0,1.6,0.7,1.6,1.6v66.3c0,0.9-0.7,1.8-1.6,2l-97.3,22.2c-0.4,0.1-1,0.1-1.6,0.1
			c-0.6,0-1.1,0-1.6-0.1l-97.3-22.3c-0.9-0.2-1.6-1.1-1.6-2v-66.3c0-0.9,0.7-1.6,1.6-1.6L248.8,127.3 M248.8,122.5H51.2
			c-3.5,0-6.4,2.9-6.4,6.4v66.3c0,1.5,0.5,3,1.5,4.2c1,1.2,2.3,2.1,3.8,2.4l97.3,22.3c1,0.2,2,0.3,2.6,0.3s1.7,0,2.6-0.3l97.3-22.2
			c1.5-0.3,2.8-1.2,3.8-2.4c1-1.2,1.5-2.7,1.5-4.2v-66.3C255.3,125.3,252.4,122.5,248.8,122.5L248.8,122.5z"/>
	</g>
	<g>
		<path class="st2" d="M51.2,150.5c-2.2,0-4-1.8-4-4V44.1c0-2.2,1.8-4,4-4h197.7c2.2,0,4,1.8,4,4v102.4c0,2.2-1.8,4-4,4L51.2,150.5
			L51.2,150.5z"/>
		<path class="st1" d="M248.8,42.5c0.9,0,1.6,0.7,1.6,1.6v102.4c0,0.9-0.7,1.6-1.6,1.6H51.2c-0.9,0-1.6-0.7-1.6-1.6V44.1
			c0-0.9,0.7-1.6,1.6-1.6L248.8,42.5 M248.8,37.6H51.2c-3.5,0-6.4,2.9-6.4,6.4v102.4c0,3.5,2.9,6.4,6.4,6.4h197.7
			c3.5,0,6.4-2.9,6.4-6.4V44.1C255.3,40.5,252.4,37.6,248.8,37.6L248.8,37.6z"/>
	</g>
	<rect x="49.5" y="127.3" class="st1" width="200.9" height="34.7"/>
	<g>
		<path class="st0" d="M79.9,148.6c0,2.9-1.9,5.7-6.4,5.7h-7.7v-3.2h1.6v-11.5h-1.6v-3.2h7c4.1,0,6.1,2.6,6.1,5.1
			c0,1.3-0.3,2.2-1,2.9C79,145.4,79.9,146.7,79.9,148.6z M71.6,139.7v3.8h1.3c1.3,0,1.9-0.9,1.9-1.9c0-0.9-0.6-1.9-1.9-1.9H71.6z
			 M75.8,148.9c0-1.3-1-2.2-2.2-2.2h-1.9v4.5c0.5,0,1,0,1.9,0C74.8,151.2,75.8,150.2,75.8,148.9z"/>
		<path class="st0" d="M92.7,136.5h6.7v3.1h-1.9v7.7c0,4.5-2.2,7-6.4,7c-4.5,0-7.4-2.6-7.4-7.3v-7.4h-1.6v-3.1h7.7v3.1h-1.9v7.4
			c0,4.2,2.5,4.2,3.2,4.2c1,0,3.5,0,3.5-4.2v-7.4c-0.3,0-1.9,0-1.9,0L92.7,136.5L92.7,136.5z"/>
		<path class="st0" d="M116.8,148.6c0,2.9-1.9,5.7-6.4,5.7h-7.7v-3.2h1.6v-11.5h-1.6v-3.2h7c4.1,0,6.1,2.6,6.1,5.1
			c0,1.3-0.3,2.2-1,2.9C115.9,145.4,116.8,146.7,116.8,148.6z M108.5,139.7v3.8h1.3c1.3,0,1.9-0.9,1.9-1.9c0-0.9-0.6-1.9-1.9-1.9
			H108.5z M112.7,148.9c0-1.3-1-2.2-2.2-2.2h-1.9v4.5c0.5,0,1,0,1.9,0C111.7,151.2,112.7,150.2,112.7,148.9z"/>
		<path class="st0" d="M134.4,148.6c0,2.9-1.9,5.7-6.4,5.7h-7.7v-3.2h1.6v-11.5h-1.6v-3.2h7c4.1,0,6.1,2.6,6.1,5.1
			c0,1.3-0.3,2.2-1,2.9C133.5,145.4,134.4,146.7,134.4,148.6z M126.1,139.7v3.8h1.3c1.3,0,1.9-0.9,1.9-1.9c0-0.9-0.6-1.9-1.9-1.9
			H126.1z M130.3,148.9c0-1.3-1-2.2-2.2-2.2h-1.9v4.5c0.5,0,1,0,1.9,0C129.3,151.2,130.3,150.2,130.3,148.9z"/>
		<path class="st0" d="M149.8,147.7h3.2l-1,6.7h-15v-3.2h1.9v-11.5h-1.9v-3.2h7.7v3.2h-1.9v11.5h4.8c1.8,0,2-2.2,2-2.2L149.8,147.7z
			"/>
		<path class="st0" d="M172.7,147l-0.9,7.4h-15.1v-3.2h1.6v-11.5h-1.6v-3.2h14.1l1.6,6.1h-3.2c-0.3-1.3-0.6-2.9-2.6-2.9h-4.2v3.9
			h2.2v-1.3h3.2v5.8h-3.2v-1.3h-2.2v4.5h5.1c0.9,0,1.6-2.2,1.9-4.2L172.7,147L172.7,147z"/>
		<path class="st0" d="M191.7,136.4l1.9,6.1h-3.2l-0.3-1c-0.3-0.6-1-1.9-1.3-1.9h-1.9v11.5h1.6v3.2h-7.4v-3.2h1.6v-11.5h-1.6
			c-0.6,0-1.3,1.3-1.6,1.9l-0.3,1H176l1.9-6.1H191.7z"/>
		<path class="st0" d="M212.6,145.5c0,6.9-4.6,9.2-8.5,9.2c-4.2,0-8.5-2.6-8.5-9.2c0-6.3,4.3-9.2,8.5-9.2
			C208.1,136.2,212.6,138.9,212.6,145.5z M208.1,145.5c0-3.6-1.7-5.9-4-5.9c-2.6,0-4.2,2.3-4.2,5.9c0,3.6,1.6,5.9,4.2,5.9
			C206.4,151.3,208.1,149,208.1,145.5z"/>
		<path class="st0" d="M225.9,136.5h6.7v3.2H231v14.7h-2.6l-8.3-11.2v8c0.3,0,1.9,0,1.9,0v3.2h-6.7v-3.2h1.9v-11.5h-1.9v-3.2h5.7
			l6.8,9.6v-6.4h-1.9L225.9,136.5L225.9,136.5z"/>
	</g>
	<g>
		<path class="st2" d="M78.3,169.2l1.4,6.8h-3.6c-0.4-1.4-0.7-3.2-2.9-3.2h-4.7v4.3h2.5v-1.5h3.6v6.5h-3.6v-1.4h-2.5v5h1.8v3.6h-8.3
			v-3.6h1.8v-12.9h-1.8v-3.6L78.3,169.2L78.3,169.2z"/>
		<path class="st2" d="M89,169.3c0,0,6.8,15.8,7.1,16.4h2.1v3.6h-8.3v-3.6h1.1c-0.3-0.7-0.6-1.4-1-2.2h-5.7l-0.8,2.2h1.1v3.6h-7.1
			v-3.6h2.1c0.7-2.1,6.7-16.4,6.7-16.4H89L89,169.3z M88.9,180l-1.7-4l-1.6,4H88.9z"/>
		<path class="st2" d="M119.6,185.8v3.6h-5c-0.7-0.3-2.2-1.4-2.2-4c0-1.4-1.1-4.3-4-4.7v5h1.8v3.6H102v-3.6h2.1v-12.9H102v-3.6h8.7
			c4.6,0,6,3.2,6,5.8c0,2.1-0.7,3.6-1.8,4.6c1.1,1.5,1.8,3.3,1.8,5.4c0,0.7,0.7,0.7,0.7,0.7L119.6,185.8L119.6,185.8z M109.9,177.2
			c1.7,0,2.5-1.1,2.5-2.1c0-1.1-0.7-2.2-2.1-2.2h-1.8v4.3L109.9,177.2L109.9,177.2z"/>
		<path class="st2" d="M142.6,169.3h5.7v3.6h-2.1v12.9h2.1v3.6h-8.2v-3.6h1.4v-6.5l-4.6,10.1h-2.2c0,0-3.9-7.5-5.4-10.4v6.8h1.4v3.6
			h-7.2v-3.6h2.2v-12.9h-2.2v-3.6h5.4l7.2,13.3L142.6,169.3z"/>
		<path class="st2" d="M175.6,183.6c0,5.7-5.7,5.7-7.5,5.7c-1.8,0-3.9-0.7-4.7-2.1v2.1h-3.6v-8.3h3.6v1.8c0,1.4,1.8,2.9,4,2.9
			c1.8,0,3.9-0.7,3.9-1.8c0-1.8-1.4-2.1-4.6-3.2c-2.5-0.7-6.4-1.8-6.4-5.8c0-3.2,3.2-5.8,7.2-5.8c2.5,0,3.6,1.1,3.9,2.2v-2.2h3.6
			v6.8h-3.6v-0.3c0-1.1-1.1-2.9-3.9-2.9c-1.1,0-2.5,0.7-2.5,1.8c0,1.1,1.1,1.4,3.6,2.1C171.2,177.5,175.6,178.6,175.6,183.6z"/>
		<path class="st2" d="M190.6,169.3h8.6v3.6h-1.8v12.9h1.8v3.6h-8.6v-3.6h2.2v-5h-6.5v5h2.2v3.6h-8.6v-3.6h1.8v-12.9h-1.8v-3.6h8.6
			v3.6h-2.2v4.3h6.5v-4.3h-2.2V169.3z"/>
		<path class="st2" d="M221,179.4c0,7.7-5.1,10.3-9.6,10.3c-4.8,0-9.6-2.9-9.6-10.3c0-7,4.8-10.3,9.6-10.3
			C215.9,169,221,172,221,179.4z M215.9,179.4c0-4.1-1.9-6.6-4.4-6.6c-2.9,0-4.8,2.6-4.8,6.6c0,4,1.8,6.6,4.8,6.6
			C214,186,215.9,183.4,215.9,179.4z"/>
		<path class="st2" d="M238.5,174.9c0,2.2-1.8,5.8-6.5,5.8h-1.8v5.1h1.8v3.6h-8.7v-3.6h2.1v-13h-2.1v-3.6h9
			C236.3,169.2,238.5,172,238.5,174.9z M233.4,174.9c0-1.1-0.7-2.1-2.2-2.1h-1.1v4.4h1.1C232.7,177.1,233.4,176,233.4,174.9z"/>
	</g>
	<g>
		<path class="st2" d="M113.5,203.8v1.9H110c0-0.1,0-0.3,0-0.6c-1.1,0.4-2.3,0.6-3.5,0.6c-2.1,0-3.9-1.5-3.9-3.7c0-1,0.4-1.9,1-2.5
			c-0.2-0.6-0.4-1-0.4-1.5c0-1.8,1.4-3.1,3.3-3.1c1.9,0,3.1,1.3,3.1,3.1h-2.1c0-0.6-0.5-1-1-1c-0.5,0-1.1,0.3-1.1,1
			c0,0.4,0.8,1.5,2.9,3.3c0.6,0.6,1.1,0.9,1.7,1.3c0.4-0.2,0.6-0.3,0.8-0.4c0.6-0.4,0.7-0.9,0.7-1.3c0-0.6-0.4-0.8-0.6-0.8
			c-0.4,0-0.6,0.2-0.6,0.6h-2c0-1.6,1.2-2.5,2.6-2.5c1.6,0,2.4,0.8,2.7,2.2c0.2,0.9-0.4,2.2-1.2,2.8c-0.3,0.3-0.7,0.5-0.9,0.6
			L113.5,203.8L113.5,203.8z M107.7,203.6c-0.8-0.6-2.1-1.7-2.7-2.3c-0.2,0.2-0.2,0.4-0.2,0.8c0,0.8,0.8,1.5,1.8,1.5
			C107,203.6,107.3,203.6,107.7,203.6z"/>
		<path class="st2" d="M129.4,203.8h1v1.9h-4.6v-1.9l-2.7-3.3v3.3h1v1.9h-4.4v-1.9h1v-6.9h-1V195h4.4v1.9h-1v1.7l2.9-2.3V195h3.8
			v1.9h-1.2c-0.3,0-0.4,0.2-1,0.6c-0.4,0.4-1.5,1.3-2.3,1.9l3.1,3.8C128.8,203.5,129.1,203.8,129.4,203.8z"/>
		<path class="st2" d="M132.4,195h4.4v1.9h-1v6.9h1v1.9h-4.4v-1.9h1v-6.9h-1V195z"/>
		<path class="st2" d="M148.2,194.9l1.2,3.7h-1.9l-0.2-0.6c-0.2-0.4-0.6-1.1-0.8-1.1h-1.2v6.9h1v1.9h-4.4v-1.9h1v-6.9h-1
			c-0.4,0-0.8,0.8-1,1.1l-0.2,0.6h-1.9l1.2-3.7H148.2z"/>
		<path class="st2" d="M160.2,202.7c-0.4,1.4-1.4,3.1-4.3,3.1c-2.9,0-5-2.3-5-5.4c0-3.3,2.1-5.5,5-5.5c1,0,1.8,0.2,2.2,0.4v-0.6h2
			v4.3h-2v-0.6c0-0.8-0.8-1.6-2.2-1.6c-1,0-2.3,0.8-2.3,3.5c0,2.5,1.4,3.5,2.3,3.5c1.6,0,2.3-1.4,2.3-1.6L160.2,202.7z"/>
		<path class="st2" d="M168.1,195h4.6v1.9h-1v6.9h1v1.9h-4.6v-1.9h1.2v-2.7h-3.5v2.7h1.2v1.9h-4.6v-1.9h1v-6.9h-1V195h4.6v1.9h-1.2
			v2.3h3.5v-2.3h-1.2V195z"/>
		<path class="st2" d="M184.6,201.3l-0.6,4.4h-9v-1.9h1v-6.9h-1V195h8.5l1,3.7h-1.9c-0.2-0.8-0.4-1.7-1.5-1.7h-2.5v2.3h1.4v-0.8h1.9
			v3.5h-1.9v-0.8h-1.4v2.7h3.1c0.6,0,1-1.4,1.2-2.5L184.6,201.3L184.6,201.3z"/>
		<path class="st2" d="M193.2,195h4v1.9h-1v8.8h-1.5l-5-6.7v4.8c0.2,0,1.2,0,1.2,0v1.9h-4v-1.9h1.2v-6.9h-1.2V195h3.4l4,5.8v-3.8
			h-1.2V195z"/>
	</g>
	<path class="st3" d="M252.7,129.2V109c-20.5-8.3-60.1-14.6-102.8-14.6c-42.7,0-82.1,5.8-102.5,14.1v20.2L252.7,129.2z"/>
	<polyline class="st2" points="137.5,125 162.3,125 159,108.5 139.9,108.5 	"/>
	<g>
		<path class="st4" d="M149.9,50.5c-8,1.6-8.6,7.9-8.6,7.9v11.4H139v8h4.5l-6,49.4h25l-6.6-49.4h4.5v-8h-2.2V58.5
			c0,0-0.7-6.4-8.6-7.9"/>
		<line class="st5" x1="141.3" y1="69.9" x2="158.1" y2="69.9"/>
		<line class="st5" x1="137.5" y1="58.5" x2="162.5" y2="58.5"/>
		<line class="st5" x1="141.3" y1="77.9" x2="158.1" y2="77.9"/>
		<line class="st5" x1="150" y1="50.5" x2="150" y2="46.4"/>
		<line class="st5" x1="149.7" y1="58.5" x2="149.7" y2="69.9"/>
		<polyline class="st1" points="142,94.4 158,94.4 155.9,77.9 143.5,77.9 		"/>
		<polyline class="st1" points="139.8,119.1 161.2,119.1 158.4,102.6 141.9,102.6 		"/>
		<g>
			<g>
				<line class="st5" x1="75.4" y1="68.4" x2="130.5" y2="68.4"/>
				<g>
					<line class="st5" x1="96.9" y1="55.7" x2="130" y2="61.8"/>
					<line class="st5" x1="130" y1="74.9" x2="96.9" y2="81.1"/>
				</g>
			</g>
			<g>
				<line class="st5" x1="224.4" y1="68.4" x2="169.4" y2="68.4"/>
				<g>
					<line class="st5" x1="203" y1="55.7" x2="169.9" y2="61.8"/>
					<line class="st5" x1="169.9" y1="74.9" x2="203" y2="81.1"/>
				</g>
			</g>
		</g>
	</g>
	<g>
		<path class="st1" d="M109.3,32.7c0,2.7-2.7,2.7-3.6,2.7c-0.9,0-1.9-0.3-2.2-1v1h-1.7v-3.9h1.7v0.9c0,0.7,0.9,1.4,1.9,1.4
			c0.9,0,1.9-0.4,1.9-0.9c0-0.9-0.7-1-2.2-1.5c-1.2-0.4-3.1-0.9-3.1-2.7c0-1.5,1.5-2.7,3.4-2.7c1.2,0,1.7,0.5,1.9,1v-1h1.7v3.2h-1.7
			V29c0-0.5-0.5-1.4-1.9-1.4c-0.5,0-1.2,0.3-1.2,0.9c0,0.5,0.5,0.7,1.7,1C107.3,29.8,109.3,30.3,109.3,32.7z"/>
		<path class="st1" d="M112.9,25.9h3.9v1.7h-0.9v6.1h0.9v1.7h-3.9v-1.7h0.9v-6.1h-0.9V25.9z"/>
		<path class="st1" d="M126.5,25.9h3.6v1.7h-0.9v7.8h-1.4l-4.4-5.9v4.2c0.2,0,1,0,1,0v1.7h-3.6v-1.7h1v-6.1h-1v-1.7h3l3.6,5.1v-3.4
			h-1L126.5,25.9L126.5,25.9z"/>
		<path class="st1" d="M141.4,32.7c-0.3,1.2-1.2,2.8-3.8,2.8c-2.6,0-4.5-2.1-4.5-4.8c0-2.9,1.9-4.8,4.5-4.8c0.9,0,1.6,0.2,1.9,0.4
			v-0.5h1.7v3.8h-1.7v-0.5c0-0.7-0.7-1.4-1.9-1.4c-0.9,0-2,0.7-2,3.1c0,2.2,1.2,3.1,2,3.1c1.4,0,2.1-1.2,2.1-1.4L141.4,32.7z"/>
		<path class="st1" d="M153.9,31.5l-0.5,3.9h-8v-1.7h0.9v-6.1h-0.9v-1.7h7.5l0.9,3.2H152c-0.2-0.7-0.3-1.5-1.4-1.5h-2.2v2.1h1.2
			v-0.7h1.7V32h-1.7v-0.7h-1.2v2.4h2.7c0.5,0,0.8-1.2,1-2.2H153.9z"/>
		<path class="st1" d="M163.4,34.7c0-1.9,3.2-4.9,3.2-6.6c0-0.5-0.3-0.6-0.7-0.5c0.1,0.1,0.1,0.3,0.1,0.4c0,0.7-0.5,1.2-1.3,1.1
			c-0.5,0-1.2-0.4-1.2-1.2c0-0.9,0.7-2,2.6-2c1.5,0,2.5,0.9,2.5,2.2c0,1-1.3,3.4-2.5,5.2h0.8V33h1.7v2.4h-5.3L163.4,34.7L163.4,34.7
			z"/>
		<path class="st1" d="M172.7,30.6c0-2.7,1.5-4.7,3.3-4.7c1.9,0,3.2,2,3.2,4.7c0,2.9-1.3,4.9-3.2,4.9
			C174.1,35.4,172.7,33.4,172.7,30.6z M174.9,30.6c0,1.3,0.1,3.2,1.2,3.2c0.8,0,1-1.8,1-3.2c0-1.2-0.2-3-1-3
			C175,27.5,174.9,29.4,174.9,30.6z"/>
		<path class="st1" d="M183.6,33.9h0.7v-5.6h-1v-1.5h0.8l0.4-0.2v-0.7h1.9v8h0.7v1.5h-3.4L183.6,33.9L183.6,33.9z"/>
		<path class="st1" d="M191.1,32.9c0-0.6,0.2-1.2,1.2-1.2c0.8,0,1,0.7,1,1.2c0,0.2,0,0.5-0.2,0.7c0.2,0.2,0.5,0.3,1,0.3
			c0.5,0,1.4-0.5,1.4-1.9c0-1-0.5-1.7-1.4-1.7c-0.8,0-1,0.5-1.2,1h-1.4v-5.4h5.1v2.6h-1.5v-0.5h-1.9v0.8c0.3,0,0.5,0,0.8,0
			c2,0,3.4,1.4,3.4,3.2c0,2-1.4,3.4-3.4,3.4C192.2,35.4,191.1,33.9,191.1,32.9z"/>
	</g>
	<path class="st5" d="M133.4,95.3c0,0-15,21.2-14.5,31.4"/>
	<path class="st5" d="M144.2,126.6"/>
	<path class="st5" d="M155.5,102.6"/>
	<g>
		<path class="st5" d="M65.3,102.6c0,0-11.8,13.9-11.3,24.1"/>
		<path class="st5" d="M80,99.6c0,0-13.8,16.8-13.3,27"/>
		<path class="st5" d="M93,98.5c0,0-14.2,17.9-13.6,28.1"/>
		<path class="st5" d="M106.1,97.3c0,0-14.6,19.1-14.1,29.3"/>
		<path class="st5" d="M119.7,95.3c0,0-15.6,21.2-15.1,31.4"/>
		<path class="st5" d="M140.3,104c0,0-10.9,12.5-10.4,22.7"/>
		<path class="st5" d="M168.9,95.3c0,0-7.3,7.9-9.8,18.5"/>
		<path class="st5" d="M180.6,96.7c0,0-13.2,19.8-12.6,30"/>
		<path class="st5" d="M193.2,97.3c0,0-13.2,19.1-12.6,29.3"/>
		<path class="st5" d="M205.9,99.5c0,0-13.2,17-12.6,27.2"/>
		<path class="st5" d="M218.5,100.3c0,0-13.2,17.8-12.6,28"/>
		<path class="st5" d="M229.8,102.6c0,0-11.8,15.5-11.3,25.7"/>
		<path class="st5" d="M241,104.5c0,0-10.3,13-9.8,23.2"/>
		<path class="st5" d="M251.3,108.5c0,0-8,10.5-7.4,20.6"/>
	</g>
</g>
</svg>
