<?xml version="1.0" encoding="utf-8"?>
<!-- Generator: Adobe Illustrator 21.1.0, SVG Export Plug-In . SVG Version: 6.00 Build 0)  -->
<svg version="1.1" id="Layer_1" xmlns="http://www.w3.org/2000/svg" xmlns:xlink="http://www.w3.org/1999/xlink" x="0px" y="0px"
	 viewBox="0 0 2564.2 2954.1" style="enable-background:new 0 0 2564.2 2954.1;" xml:space="preserve">
<style type="text/css">
	.st0{fill:#D14E2A;}
	.st1{fill:#251610;}
	.st2{fill:#EBDAA6;}
	.st3{fill:#F0A023;stroke:#251610;stroke-width:58.0718;stroke-miterlimit:10;}
	.st4{fill:#EBDAA6;stroke:#251610;stroke-width:38.7144;stroke-miterlimit:10;}
	.st5{fill:none;stroke:#251610;stroke-width:38.7144;stroke-miterlimit:10;}
</style>
<g>
	<path class="st0" d="M1282,2678.2c-6.6,0-16.3-0.4-25.3-2.5L83.9,2407.6c-23.6-5.4-41.4-27.7-41.4-52v-798.5
		c0-26.7,21.7-48.4,48.4-48.4h2382.3c26.7,0,48.4,21.7,48.4,48.4v798.5c0,24.2-17.8,46.6-41.4,52l-1172.8,268.1
		C1298.2,2677.7,1288.5,2678.2,1282,2678.2z"/>
	<path class="st1" d="M2473.2,1537.8c10.6,0,19.4,8.7,19.4,19.4v798.5c0,10.6-8.5,21.3-18.9,23.7l-1172.8,268.1
		c-5.2,1.2-12,1.8-18.9,1.8c-6.8,0-13.7-0.6-18.9-1.8L90.4,2379.3c-10.4-2.4-18.9-13-18.9-23.7v-798.5c0-10.6,8.7-19.4,19.4-19.4
		H2473.2 M2473.2,1479.7H90.9c-42.7,0-77.4,34.7-77.4,77.4v798.5c0,18.2,6.5,36.4,18.2,51.1c11.7,14.7,28,25.1,45.8,29.1
		L1250.2,2704c11.7,2.7,23.8,3.2,31.8,3.2c8,0,20.1-0.6,31.8-3.2l1172.8-268.1c17.8-4.1,34.1-14.4,45.8-29.1
		c11.7-14.7,18.2-32.9,18.2-51.1v-798.5C2550.6,1514.4,2515.9,1479.7,2473.2,1479.7L2473.2,1479.7z"/>
</g>
<g>
	<path class="st2" d="M90.9,1817.5c-26.7,0-48.4-21.7-48.4-48.4V534.8c0-26.7,21.7-48.4,48.4-48.4h2382.3
		c26.7,0,48.4,21.7,48.4,48.4v1234.3c0,26.7-21.7,48.4-48.4,48.4H90.9z"/>
	<path class="st1" d="M2473.2,515.5c10.6,0,19.4,8.7,19.4,19.4v1234.3c0,10.6-8.7,19.4-19.4,19.4H90.9c-10.6,0-19.4-8.7-19.4-19.4
		V534.8c0-10.6,8.7-19.4,19.4-19.4H2473.2 M2473.2,457.4H90.9c-42.7,0-77.4,34.7-77.4,77.4v1234.3c0,42.7,34.7,77.4,77.4,77.4
		h2382.3c42.7,0,77.4-34.7,77.4-77.4V534.8C2550.6,492.1,2515.9,457.4,2473.2,457.4L2473.2,457.4z"/>
</g>
<rect x="71.5" y="1537.8" class="st1" width="2421" height="417.8"/>
<g>
	<path class="st0" d="M437.7,1794.7c0,34.5-23.1,69.1-76.8,69.1h-92.2v-38.2h19.1v-138.4h-19.1v-38.5h84.5c50,0,73.1,31.1,73.1,61.7
		c0,15.1-4,26.8-11.7,34.5C426.3,1756.5,437.7,1771.6,437.7,1794.7z M337.8,1687.1v45.9h15.4c15.4,0,22.8-11.4,22.8-22.8
		s-7.4-23.1-22.8-23.1H337.8z M387.8,1798.4c0-15.1-11.7-26.8-26.8-26.8h-23.1v54c6.5,0,12.6,0,23.1,0
		C376.1,1825.6,387.8,1813.8,387.8,1798.4z"/>
	<path class="st0" d="M591.6,1648.6h80.5v37.9h-23.1v93.1c0,53.7-27.1,84.8-76.8,84.8c-54,0-88.8-31.1-88.8-88.5v-89.4h-19.4v-37.9
		h92.5v37.9h-22.8v89.4c0,50.3,30.5,50.3,38.5,50.3c11.7,0,42.2,0,42.2-50.3v-89.4c-4,0-22.8,0-22.8,0V1648.6z"/>
	<path class="st0" d="M882,1794.7c0,34.5-23.1,69.1-76.8,69.1h-92.2v-38.2h19.1v-138.4h-19.1v-38.5h84.5c50,0,73.1,31.1,73.1,61.7
		c0,15.1-4,26.8-11.7,34.5C870.6,1756.5,882,1771.6,882,1794.7z M782.1,1687.1v45.9h15.4c15.4,0,22.8-11.4,22.8-22.8
		s-7.4-23.1-22.8-23.1H782.1z M832.1,1798.4c0-15.1-11.7-26.8-26.8-26.8h-23.1v54c6.5,0,12.6,0,23.1,0
		C820.4,1825.6,832.1,1813.8,832.1,1798.4z"/>
	<path class="st0" d="M1094.2,1794.7c0,34.5-23.1,69.1-76.8,69.1h-92.2v-38.2h19.1v-138.4h-19.1v-38.5h84.5
		c50,0,73.1,31.1,73.1,61.7c0,15.1-4,26.8-11.7,34.5C1082.8,1756.5,1094.2,1771.6,1094.2,1794.7z M994.3,1687.1v45.9h15.4
		c15.4,0,22.8-11.4,22.8-22.8s-7.4-23.1-22.8-23.1H994.3z M1044.2,1798.4c0-15.1-11.7-26.8-26.8-26.8h-23.1v54c6.5,0,12.6,0,23.1,0
		C1032.5,1825.6,1044.2,1813.8,1044.2,1798.4z"/>
	<path class="st0" d="M1280.1,1783.3h38.9l-11.7,81.1h-181.3v-38.9h23.1v-138.4h-23.1v-38.9h92.8v38.9h-23.4v138.4h58
		c21.9,0,24.7-26.8,24.7-26.8L1280.1,1783.3z"/>
	<path class="st0" d="M1555.1,1775.3l-11.4,88.8h-181.6v-38.5h19.4v-139.1h-19.4V1648H1532l19.4,73.4h-38.9
		c-3.7-15.4-7.7-34.8-30.8-34.8h-50.3v46.6h27.1v-15.7h38.5v69.7h-38.5v-15.4h-27.1v54h62c11.4,0,19.1-27.1,23.1-50.3H1555.1z"/>
	<path class="st0" d="M1784.2,1647.6l23.4,73.4h-38.5l-3.7-11.7c-4-7.4-11.7-22.8-15.7-22.8h-23.4v138.8h19.7v38.8h-89.1v-38.8h19.4
		v-138.8h-19.4c-7.7,0-15.7,15.4-19.4,22.8l-3.7,11.7h-38.5l23.4-73.4H1784.2z"/>
	<path class="st0" d="M2037,1756.8c0,82.6-55.2,110.4-103,110.4c-51.2,0-103-31.5-103-110.4c0-75.5,51.8-111.3,103-111.3
		C1981.8,1645.5,2037,1677.2,2037,1756.8z M1981.8,1756.8c0-43.8-20-71.5-47.8-71.5c-31.5,0-51.2,27.8-51.2,71.5
		c0,43.2,19.7,70.9,51.2,70.9C1961.8,1827.7,1981.8,1800,1981.8,1756.8z"/>
	<path class="st0" d="M2196.4,1648.3h81.1v38.5h-19.4v177.6h-30.8l-100.5-135.1v96.5c4,0,23.4,0,23.4,0v38.5h-81.1v-38.5h23.1
		v-139.1h-23.1v-38.5h69.1l81.4,115.6v-77.1h-23.1V1648.3z"/>
</g>
<g>
	<path class="st2" d="M417.5,2043.3l17.3,82.2h-43.2c-4.5-17.3-9-39-34.5-39h-56.6v52.2h30.7V2121h43.2v78.1h-43.2v-17.3h-30.7v60.4
		h22.1v43.5h-99.8v-43.5h21.8v-155.8h-21.8v-43.2H417.5z"/>
	<path class="st2" d="M547.4,2044.3c0,0,81.5,190,86,198.2h25.9v43.2h-99.5v-42.8h12.8c-4.1-8.6-7.6-17.3-12.1-26.2h-68.4l-9.7,26.2
		h12.8v42.8h-86v-43.2h25.9c8.3-25.9,81.2-198.2,81.2-198.2h31.8H547.4z M545.3,2173.5l-20.4-48l-19,48H545.3z"/>
	<path class="st2" d="M915.2,2242.6v43.5h-60.1c-9-4.1-26.6-17.3-26.6-47.7c0-17.3-13.1-51.8-47.7-56.3v60.4H803v43.5h-99.8v-43.5
		h25.9v-155.8h-25.9v-43.2h104.3c55.6,0,72.9,38.7,72.9,69.4c0,25.9-8.3,42.8-21.4,56c13.1,17.6,21.4,39.4,21.4,64.9
		c0,8.6,9,8.6,9,8.6H915.2z M798.5,2139c20.4,0,30-12.8,30-25.9c0-13.1-8.6-26.2-25.6-26.2h-22.1v52.2H798.5z"/>
	<path class="st2" d="M1192.6,2044h69.1v43.2h-25.9v155.8h25.9v43.2h-99.1v-43.2h16.9v-78.1l-56,121.2h-26.2c0,0-47.3-90.8-64.6-125
		v81.9h17.3v43.2h-86.3v-43.2h26.2v-155.8h-26.2V2044h64.9l86.3,159.9L1192.6,2044z"/>
	<path class="st2" d="M1590.1,2217c0,69.1-69.1,69.1-90.8,69.1s-47.3-8.6-56.3-25.9v25.9h-43.2v-99.5h43.2v21.8
		c0,17.3,21.8,34.5,47.7,34.5c21.8,0,47.3-9,47.3-21.8c0-21.8-16.9-25.9-56-38.7c-30-9-77.7-21.8-77.7-69.4
		c0-38.7,38.7-69.4,86.3-69.4c30.4,0,43.2,13.1,47.3,26.2v-26.2h43.5v82.2H1538v-4.1c0-12.8-12.8-34.5-47.3-34.5
		c-13.1,0-30.4,8.6-30.4,21.8c0,12.8,13.1,16.9,43.2,25.9C1538,2143.5,1590.1,2156.2,1590.1,2217z"/>
	<path class="st2" d="M1771.4,2044.3H1875v43.2h-21.8v155.4h21.8v43.2h-103.6v-43.2h26.2v-60.4h-78.4v60.4h26.2v43.2h-103.6v-43.2
		h21.8v-155.4h-21.8v-43.2h103.6v43.2h-26.2v51.8h78.4v-51.8h-26.2V2044.3z"/>
	<path class="st2" d="M2137.5,2165.6c0,92.6-61.8,123.6-115.4,123.6c-57.3,0-115.4-35.2-115.4-123.6c0-84.6,58-124.7,115.4-124.7
		C2075.7,2040.9,2137.5,2076.5,2137.5,2165.6z M2075.7,2165.6c0-49-22.5-80.1-53.5-80.1c-35.2,0-57.3,31.1-57.3,80.1
		c0,48.4,22.1,79.4,57.3,79.4C2053.3,2245,2075.7,2213.9,2075.7,2165.6z"/>
	<path class="st2" d="M2348.2,2111.7c0,26.6-21.8,69.8-78.1,69.8h-22.1v61.1h22.1v43.2h-104.7v-43.2h25.9v-156.8h-25.9v-43.5h108.8
		C2322,2042.3,2348.2,2077.2,2348.2,2111.7z M2287.4,2111.7c0-12.8-9-25.9-26.2-25.9h-13.1v52.5h13.1
		C2278.5,2138.3,2287.4,2124.8,2287.4,2111.7z"/>
</g>
<g>
	<path class="st2" d="M842.1,2459.7v23.3h-41.8c0-1.5,0-3.3,0-6.8c-13.7,4.6-27.9,6.8-41.6,6.8c-25.7,0-46.4-18.5-46.4-44
		c0-11.5,4.6-23.3,11.5-30.3c-2.2-6.8-4.6-11.5-4.6-18.3c0-21.1,16.3-37.2,39.6-37.2s37,16.1,37,37.2h-25.5c0-7-5.5-11.8-12.4-11.8
		c-6.5,0-12.9,3.3-12.9,11.8c0,4.6,9.2,18.3,34.6,39.4c7.2,6.8,13.1,11.1,20,15.7c4.6-2.2,7.4-3.5,9.2-4.8c6.8-4.8,8-10.9,8-15.5
		c0-7.2-4.6-9.4-7-9.4c-4.6,0-6.8,2.2-6.8,7.2h-24.2c0-18.7,14.8-30.3,31.1-30.3c18.7,0,29.2,9.8,32.5,26.3
		c2.2,11.3-5.4,26.3-13.9,34c-3.9,3.5-8.9,5.7-11.1,6.8H842.1z M772.4,2457.5c-9.1-7-25.3-20.9-32.2-27.7c-2.6,2.2-2.6,4.6-2.6,9.2
		c0,9.2,9.4,18.5,21.1,18.5C763.3,2457.5,767.7,2457.5,772.4,2457.5z"/>
	<path class="st2" d="M1034.4,2460.1h11.6v22.9h-55.5v-22.9l-32.5-39.4v39.4h11.6v22.9h-53.1v-22.9h11.6v-83.6h-11.6v-22.9h53.1
		v22.9H958v20.9l34.9-27.6v-16.3h46.2v22.9h-14.1c-3.3,0-4.4,2.4-11.5,7.2c-4.4,4.4-18.5,16.1-27.7,22.9l37.2,46.2
		C1026.1,2456.5,1029.8,2460.1,1034.4,2460.1z"/>
	<path class="st2" d="M1070.1,2353.7h53.1v23.1h-11.6v83.2h11.6v22.9h-53.1v-22.9h11.6v-83.2h-11.6V2353.7z"/>
	<path class="st2" d="M1260.5,2353l14.1,44h-23.1l-2.2-7c-2.4-4.4-7-13.7-9.4-13.7h-14.1v83.2h11.8v23.3h-53.4v-23.3h11.6v-83.2
		h-11.6c-4.6,0-9.4,9.2-11.6,13.7l-2.2,7h-23.1l14.1-44H1260.5z"/>
	<path class="st2" d="M1404.9,2446.4c-4.6,16.5-16.3,37.5-51.8,37.5c-35.1,0-60.6-28.3-60.6-65.6c0-40.1,25.5-65.8,60.6-65.8
		c12,0,21.3,2.4,26.1,5v-7h23.5v51.6h-23.5v-7.2c0-9.2-9.4-18.7-26.1-18.7c-11.6,0-27.9,9.4-27.9,42.2c0,30.5,16.3,42.2,27.9,42.2
		c19,0,28.3-16.5,28.3-18.9L1404.9,2446.4z"/>
	<path class="st2" d="M1500.1,2353.5h55.5v23.1H1544v83.2h11.6v23.1h-55.5v-23.1h14.1v-32.4h-42v32.4h14.1v23.1h-55.5v-23.1h11.6
		v-83.2h-11.6v-23.1h55.5v23.1h-14.1v27.7h42v-27.7h-14.1V2353.5z"/>
	<path class="st2" d="M1699.1,2429.5l-6.8,53.3h-108.9v-23.1h11.6v-83.4h-11.6v-23.1h101.9l11.6,44h-23.3
		c-2.2-9.2-4.6-20.9-18.5-20.9H1625v27.9h16.3v-9.4h23.1v41.8h-23.1v-9.2H1625v32.4h37.2c6.8,0,11.5-16.3,13.9-30.1H1699.1z"/>
	<path class="st2" d="M1803.2,2353.4h48.6v23.1h-11.6V2483h-18.5l-60.3-81v57.9c2.4,0,14.1,0,14.1,0v23.1h-48.6v-23.1h13.9v-83.4
		h-13.9v-23.1h41.4l48.8,69.3v-46.2h-13.9V2353.4z"/>
</g>
<path class="st3" d="M2519.4,1560.4v-243.2c-246.6-100.4-723.9-176-1239.1-176c-515.1,0-988.9,69.8-1235.4,170.2v243.2
	L2519.4,1560.4z"/>
<polyline class="st2" points="1131.2,1510.3 1429.7,1510.3 1390.7,1311.4 1159.9,1311.4 "/>
<g>
	<path class="st4" d="M1280.9,612.6c-95.9,18.7-104.1,95.8-104.1,95.8v137.9h-26.9v95.9h53.8l-72.5,595.5h301.6l-79.5-595.5h53.8
		v-95.9h-26.9V708.4c0,0-8.2-77.1-104-95.8"/>
	<line class="st5" x1="1176.8" y1="846.4" x2="1380.2" y2="846.4"/>
	<line class="st5" x1="1131.2" y1="708.4" x2="1432.8" y2="708.4"/>
	<line class="st5" x1="1176.8" y1="942.2" x2="1380.2" y2="942.2"/>
	<line class="st5" x1="1282" y1="612.6" x2="1282" y2="563.5"/>
	<line class="st5" x1="1278.5" y1="708.4" x2="1278.5" y2="846.4"/>
	<polyline class="st1" points="1185.1,1141.2 1378.6,1141.2 1353.3,942.2 1203.7,942.2 	"/>
	<polyline class="st1" points="1159.4,1438.8 1416.5,1438.8 1382.9,1239.9 1184.1,1239.9 	"/>
	<g>
		<g>
			<line class="st5" x1="383.6" y1="827.8" x2="1046.6" y2="827.8"/>
			<g>
				<line class="st5" x1="642.5" y1="674.7" x2="1041" y2="748.9"/>
				<line class="st5" x1="1041" y1="906.8" x2="642.5" y2="980.9"/>
			</g>
		</g>
		<g>
			<line class="st5" x1="2179" y1="827.8" x2="1516" y2="827.8"/>
			<g>
				<line class="st5" x1="1920.2" y1="674.7" x2="1521.6" y2="748.9"/>
				<line class="st5" x1="1521.6" y1="906.8" x2="1920.2" y2="980.9"/>
			</g>
		</g>
	</g>
</g>
<g>
	<path class="st1" d="M791.6,397.9c0,32.7-32.7,32.7-43,32.7s-22.4-4.1-26.7-12.3v12.3h-20.5v-47.1h20.5v10.3
		c0,8.2,10.3,16.4,22.6,16.4c10.3,0,22.4-4.3,22.4-10.3c0-10.3-8-12.3-26.5-18.3c-14.2-4.3-36.8-10.3-36.8-32.9
		c0-18.3,18.3-32.9,40.9-32.9c14.4,0,20.5,6.2,22.4,12.4v-12.4h20.6v39h-20.6v-2c0-6.1-6.1-16.4-22.4-16.4
		c-6.2,0-14.4,4.1-14.4,10.3c0,6.1,6.2,8,20.5,12.3C766.9,363.1,791.6,369.1,791.6,397.9z"/>
	<path class="st1" d="M834.7,316.3h47v20.5h-10.3v73.7h10.3v20.3h-47v-20.3H845v-73.7h-10.3V316.3z"/>
	<path class="st1" d="M998.4,315.9h43v20.5h-10.3v94.3h-16.4L961.4,359v51.2c2.1,0,12.4,0,12.4,0v20.5h-43v-20.5H943v-73.8h-12.3
		v-20.5h36.7l43.2,61.4v-40.9h-12.3V315.9z"/>
	<path class="st1" d="M1178.7,398.3c-4.1,14.6-14.4,33.2-45.8,33.2c-31.1,0-53.7-25-53.7-58.1c0-35.5,22.6-58.3,53.7-58.3
		c10.6,0,18.8,2.1,23.1,4.4v-6.2h20.8V359H1156v-6.4c0-8.2-8.3-16.5-23.1-16.5c-10.3,0-24.7,8.3-24.7,37.3c0,27,14.4,37.3,24.7,37.3
		c16.9,0,25-14.6,25-16.7L1178.7,398.3z"/>
	<path class="st1" d="M1328.7,383.4l-6.1,47.1h-96.4v-20.5h10.3v-73.8h-10.3v-20.5h90.2l10.3,39h-20.6c-2-8.2-4.1-18.5-16.4-18.5
		H1263V361h14.4v-8.3h20.5v37h-20.5v-8.2H1263v28.6h32.9c6.1,0,10.1-14.4,12.3-26.7H1328.7z"/>
	<path class="st1" d="M1443.3,422.3c0-22.8,38.6-58.6,38.6-79.5c0-5.9-3.1-7.2-8-6.2c1.6,1.6,1.5,3.6,1.5,5.1
		c0,8-6.5,13.9-15.9,13.6c-5.7-0.2-14.4-4.4-14.2-14.4c0.2-10.3,8.5-24.7,30.8-24.7c18.3,0,30.6,10.5,30.6,26.7
		c0,12.4-15.1,41.4-30.6,63.2h10.1v-4.1h20.5v28.6h-63.3V422.3z"/>
	<path class="st1" d="M1555.7,372.1c0-32.4,18.2-56.5,40.3-56.5c22.3,0,38.5,24.1,38.5,56.5c0,34.5-16.2,58.6-38.5,58.6
		C1571.9,430.7,1555.7,406.6,1555.7,372.1z M1582.1,372.1c0,16.2,1.8,38.3,13.9,38.3c10.1,0,12.3-22.1,12.3-38.3
		c0-14.1-2.1-36.2-12.3-36.2C1583.9,335.9,1582.1,358,1582.1,372.1z"/>
	<path class="st1" d="M1687.5,412.2h8.3v-67.3h-12.3v-18.3h10.1l4.3-2.1v-8.3h22.3v96.1h8.3v18.5h-41.1V412.2z"/>
	<path class="st1" d="M1777.7,400.1c0-6.7,2.3-14.2,14.4-14.2c9.8,0,12.3,8.2,12.3,14.2c0,2.1,0,6.2-2.1,8.2
		c2.1,2.1,6.2,4.1,12.3,4.1c6.4,0,16.5-6.1,16.5-22.6c0-12.3-6.2-20.5-16.5-20.5c-10.1,0-12.3,6.2-14.2,12.3h-16.5v-65.5h61.5v30.8
		h-18.3v-6.2h-22.6v10.1c4.1,0,6.2,0,10.1,0c24.7,0,41.1,16.5,41.1,39c0,24.7-16.4,41.1-41.1,41.1
		C1790,430.8,1777.7,412.4,1777.7,400.1z"/>
</g>
<path class="st5" d="M1082.1,1152c0,0-181.1,255.5-174.6,378.1"/>
<path class="st5" d="M1212.5,1530.1"/>
<path class="st5" d="M1348.1,1239.9"/>
<g>
	<path class="st5" d="M261.2,1239.9c0,0-142.1,167.7-135.6,290.3"/>
	<path class="st5" d="M438.4,1204.7c0,0-166.9,202.8-160.4,325.4"/>
	<path class="st5" d="M594.9,1191.4c0,0-170.9,216.2-164.4,338.8"/>
	<path class="st5" d="M753,1176.8c0,0-176.4,230.7-169.9,353.3"/>
	<path class="st5" d="M917.5,1152c0,0-188.4,255.5-182,378.1"/>
	<path class="st5" d="M1165.4,1256.8c0,0-131.3,150.7-124.8,273.3"/>
	<path class="st5" d="M1509.5,1152c0,0-88.1,94.8-117.8,223.3"/>
	<path class="st5" d="M1650.4,1168.8c0,0-158.8,238.8-152.3,361.4"/>
	<path class="st5" d="M1802.9,1176.8c0,0-158.8,230.7-152.3,353.3"/>
	<path class="st5" d="M1955.5,1202.6c0,0-158.8,204.9-152.3,327.5"/>
	<path class="st5" d="M2108,1212.3c0,0-158.8,214.6-152.3,337.2"/>
	<path class="st5" d="M2243.8,1239.9c0,0-142.3,187-135.8,309.6"/>
	<path class="st5" d="M2378.7,1263.6c0,0-124.6,156.8-118.2,279.4"/>
	<path class="st5" d="M2502.7,1311.4c0,0-96.1,126.2-89.7,248.8"/>
</g>
</svg>
