<?xml version="1.0" encoding="utf-8"?>
<!-- Generator: Adobe Illustrator 22.0.1, SVG Export Plug-In . SVG Version: 6.00 Build 0)  -->
<svg version="1.1" id="Layer_1" xmlns="http://www.w3.org/2000/svg" xmlns:xlink="http://www.w3.org/1999/xlink" x="0px" y="0px"
	 viewBox="0 0 300 250" style="enable-background:new 0 0 300 250;" xml:space="preserve">
<style type="text/css">
	.st0{fill:#EFBB38;}
	.st1{fill:#FFFFFF;}
	.st2{fill:none;}
	.st3{fill:#1A1A1A;}
	.st4{fill:#0C8643;}
	.st5{fill:#61AE71;}
	.st6{fill:#333333;}
	.st7{fill:#09713A;}
	.st8{fill:#43A16A;}
	.st9{fill:url(#SVGID_1_);}
	.st10{fill:url(#SVGID_2_);}
	.st11{fill:#2D623D;}
	.st12{fill:#2B5A40;}
	.st13{fill:#F6893B;}
	.st14{fill:#B6D13F;stroke:#CDDD48;stroke-width:0.2612;}
	.st15{clip-path:url(#SVGID_4_);}
	.st16{fill:#FFD639;stroke:#FCBB35;stroke-width:0.2612;}
	.st17{fill:#67AC46;}
	.st18{fill:url(#SVGID_5_);}
	.st19{fill:url(#SVGID_6_);}
	.st20{clip-path:url(#SVGID_8_);}
	.st21{fill:url(#SVGID_9_);}
	.st22{fill:url(#SVGID_10_);}
	.st23{fill:#B6D13F;stroke:#CDDD48;stroke-width:0.3237;}
	.st24{clip-path:url(#SVGID_12_);}
	.st25{fill:#FFD639;stroke:#FCBB35;stroke-width:0.3237;}
	.st26{fill:url(#SVGID_13_);}
	.st27{fill:url(#SVGID_14_);}
	.st28{fill:#010101;}
</style>
<rect y="0" class="st0" width="300" height="250"/>
<g>
	<g>
		<polygon class="st1" points="71.5,167.6 71.5,159.2 59.7,157.1 59.7,102.7 146.6,69.5 233.5,102.5 233.5,102.8 233.5,157.3 
			221.7,159.2 221.7,164.6 221.7,164.6 221.7,167.6 146.6,180.5 		"/>
		<line class="st2" x1="218.5" y1="151.7" x2="146.6" y2="133.9"/>
		<path class="st3" d="M146.6,147.1"/>
		<polygon class="st4" points="218.5,151.5 218.5,156.3 230.3,154.5 		"/>
		<polygon class="st4" points="62.9,154.5 74.7,156.4 74.7,151.6 		"/>
		<polygon class="st5" points="146.6,146.9 146.6,146.9 94.6,159.7 146.6,168.7 198.6,159.7 146.6,146.9 		"/>
		<polygon class="st6" points="146.6,133.5 130.3,137.6 146.6,133.6 		"/>
		<polygon class="st6" points="146.6,133.7 146.6,133.7 146.6,133.7 146.6,133.6 130.3,137.6 74.7,151.5 74.7,156.3 74.7,164.7 
			94.6,159.7 146.6,146.9 146.6,146.9 146.6,146.9 198.6,159.7 218.5,164.7 218.5,156.3 218.5,151.5 		"/>
		<rect x="146.6" y="133.8" class="st7" width="0" height="0.1"/>
		<rect x="146.6" y="133.8" class="st7" width="0" height="0.1"/>
		<path class="st8" d="M146.6,95.1L146.6,95.1L146.6,95.1z"/>
		
			<image style="overflow:visible;enable-background:new    ;" width="3309" height="1141" xlink:href="56812627F1088664.png"  transform="matrix(2.385414e-02 0 0 2.381228e-02 143.0783 130.1853)">
		</image>
		
			<image style="overflow:visible;enable-background:new    ;" width="3314" height="1141" xlink:href="56812627F1088665.png"  transform="matrix(2.385414e-02 0 0 2.381228e-02 71.1172 130.1788)">
		</image>
		
			<linearGradient id="SVGID_1_" gradientUnits="userSpaceOnUse" x1="146.5893" y1="-2551.7856" x2="146.5893" y2="-2633.2546" gradientTransform="matrix(1 0 0 1 0 2706.2856)">
			<stop  offset="0" style="stop-color:#5FAB4C"/>
			<stop  offset="1" style="stop-color:#2D623D"/>
		</linearGradient>
		<polygon class="st9" points="230.3,154.5 230.3,104.7 146.5,73 146.5,73 62.9,104.9 62.9,154.5 146.6,133.8 		"/>
		<path class="st8" d="M146.6,95.1L146.6,95.1L146.6,95.1z"/>
		
			<linearGradient id="SVGID_2_" gradientUnits="userSpaceOnUse" x1="146.6155" y1="-2569.7629" x2="146.6155" y2="-2531.7224" gradientTransform="matrix(1 0 0 1 0 2706.2856)">
			<stop  offset="0" style="stop-color:#6E6F72"/>
			<stop  offset="1" style="stop-color:#010101"/>
		</linearGradient>
		<polygon class="st10" points="74.7,164.6 146.6,177 218.5,164.7 146.6,146.8 		"/>
		<g>
			<polygon class="st11" points="74.9,151.5 74.5,151.6 74.5,100.5 74.9,100.3 			"/>
		</g>
		<g>
			<polygon class="st11" points="62.9,108.5 62.9,108 146.6,78.2 146.7,78.6 			"/>
		</g>
		<g>
			<polygon class="st11" points="62.9,151.6 62.9,151.1 146.6,129 146.6,129.4 			"/>
		</g>
		<g>
			<polygon class="st11" points="140,135.4 139.5,135.5 139.6,75.7 140.1,75.5 			"/>
		</g>
		<g>
			<polygon class="st11" points="130.8,137.7 130.4,79.2 130.9,79 131.3,137.6 			"/>
		</g>
		<g>
			<polygon class="st11" points="62.9,119.8 62.9,119.3 146.6,92.1 146.7,92.6 			"/>
		</g>
		<g>
			<polygon class="st11" points="62.9,142 62.9,141.5 146.6,118.3 146.6,118.7 			"/>
		</g>
		<g>
			<line class="st2" x1="146.6" y1="78.4" x2="230.3" y2="108.5"/>
			<polygon class="st12" points="230.2,108.7 146.5,78.6 146.6,78.2 230.3,108.3 			"/>
		</g>
		<g>
			<line class="st2" x1="146.6" y1="92.3" x2="230.3" y2="119.5"/>
			<polygon class="st12" points="230.3,119.7 146.5,92.6 146.6,92.1 230.3,119.3 			"/>
		</g>
		<g>
			<line class="st2" x1="146.6" y1="118.5" x2="230.3" y2="141.3"/>
			<polygon class="st12" points="230.3,141.5 146.5,118.7 146.6,118.3 230.3,141.1 			"/>
		</g>
		<g>
			<line class="st2" x1="146.6" y1="129.2" x2="230.3" y2="150.2"/>
			<polygon class="st12" points="230.3,150.5 146.5,129.4 146.6,129 230.3,150 			"/>
		</g>
		<g>
			<polygon class="st12" points="152.8,135.1 152.3,135.1 152.9,75.4 153.3,75.6 			"/>
		</g>
		<g>
			<polygon class="st11" points="162.3,137.7 161.9,137.6 162.1,78.9 162.6,79.1 			"/>
		</g>
		<g>
			<polygon class="st11" points="216.8,151.2 216.5,99.5 217,99.7 217.3,151.3 			"/>
		</g>
	</g>
	<g>
		<path class="st1" d="M73.3,146.9c-3.2,0-6.3-0.5-9-1.4c-2.8-1-5.3-2.4-7.3-4.2c-0.5-0.5-1-1-1.5-1.5c-1,1.4-2.3,2.7-3.8,3.6
			c-1.6,1-3.5,1.7-5.5,2.1c-1.8,0.4-3.7,0.6-5.5,0.6H15.4v-14.3h3.8v-13.2h-3.8v-14.3h25.2c2,0,4,0.2,5.8,0.7
			c1.9,0.5,3.7,1.2,5.2,2.3c1.5,1,2.7,2.3,3.6,3.9c0.6-0.7,1.2-1.3,1.8-1.9c2-1.9,4.5-3.3,7.3-4.3c2.7-1,5.8-1.4,9-1.4
			c3.2,0,6.3,0.5,9,1.4c2.3,0.8,4.3,1.9,6.1,3.2v-3.8h55.1l7.3,9.4l7.4-9.4h19.3v14.4h-4.1v13.1h2l5.9-13.2h-2.2v-14.3h24l2.7,6.1
			v-6.1h71.2v18.3h-8.7v5.1h9.4V146h-38.1v-14.3h3.9v-7.4h-9.1v7.4h4.1V146h-42.1v-10.5h-1.9V146h-41.7v-10.9h-0.1h-3.9V146H87v-2.8
			c-1.4,0.9-3,1.7-4.7,2.3C79.6,146.4,76.6,146.9,73.3,146.9z"/>
		<path class="st4" d="M18.7,115.3v-7.8h21.9c1.8,0,3.5,0.2,5,0.6c1.6,0.4,2.9,1,4.1,1.8c1.2,0.8,2.1,1.8,2.8,3.1
			c0.7,1.2,1,2.7,1,4.4c0,0.7-0.1,1.3-0.2,2c-0.1,0.7-0.3,1.3-0.6,1.9c-0.3,0.6-0.7,1.2-1.2,1.7c-0.5,0.5-1.1,0.9-1.9,1.3
			c1.6,0.9,2.9,2.1,3.7,3.6c0.8,1.5,1.2,3.1,1.2,4.7c0,2-0.4,3.7-1.2,5c-0.8,1.3-1.9,2.4-3.2,3.2c-1.3,0.8-2.8,1.4-4.4,1.7
			s-3.3,0.5-4.9,0.5h-22v-7.9h3.8v-19.7L18.7,115.3L18.7,115.3z M32.3,121.1h7.9c0.8,0,1.6-0.2,2.3-0.7c0.7-0.5,1-1.2,1-2.2
			c0-0.7-0.3-1.4-0.8-2s-1.3-0.9-2.3-0.9h-8.1V121.1L32.3,121.1z M32.3,135.2h8.4c1.3,0,2.2-0.4,2.9-1.1c0.6-0.7,0.9-1.6,0.9-2.4
			c0-1.2-0.4-2.1-1.1-2.7s-1.6-0.9-2.7-0.9h-8.4L32.3,135.2L32.3,135.2z"/>
		<path class="st4" d="M266.9,130.8l-0.2,3.5h-10.1V129h8.5v-7.8h-8.5v-5.5h9.5l0.2,3.5h7.6v-11.9h-30.8h-0.3h-33.8v13.7h8.4
			l0.3-5.2h3.2v19h-3.8h-0.4h-3.5L201,107.4h-18.7v7.8h4l-8.8,19.7h-3.2h-0.8h-3.4v-19.6h4.1v-7.9h-14.6l-9,11.5l-8.8-11.5h-14.5
			h-0.1h-16.8v7.4h2.7l-2.8,4l-4.3-5.8v-5.6H91.6v7.6h4.1l6.3,8.6l-7.7,11.3h-4v7.9h17.2v-7.5l-2.4-0.4l2.5-3.6l4.5,6.1v5.4h15.3
			h0.3h17.9v-7.9h-4.2v-13.7l8.8,10.7h1l9-10.8v13.7h-4.2v7.9h17.5h0.8h17v-7.1l-3.3-0.3l1.1-3.1h12.5l1.1,3.1l-3.1,0.3v7.1h17.2
			h0.4h18.1v-7.9h-4.1v-19h3.2l0.3,5.2h8.4v-5.9h3.6v19.7h-3.9v7.9h31.7v-12L266.9,130.8L266.9,130.8z M131.6,134.9h-3.8h-0.3h-5.1
			l-6.4-8.7l7.6-10.9h3.9h4.1L131.6,134.9L131.6,134.9z M192.1,124.5l3.2-8.5l3.3,8.5H192.1z"/>
		<path class="st4" d="M58.4,131.7c-0.8-1.9-1.2-4.1-1.2-6.5c0-2.4,0.4-4.6,1.2-6.4c0.8-1.8,1.8-3.3,3.2-4.6c1.4-1.2,3.1-2.2,5-2.9
			c2-0.7,4.3-1.1,6.8-1.1c2.5,0,4.8,0.4,6.8,1c1.9,0.7,3.6,1.6,4.9,2.9c1.4,1.2,2.4,2.7,3.1,4.6c0.8,1.8,1.2,4,1.2,6.5
			c0,2.5-0.4,4.7-1.2,6.5c-0.8,1.8-1.8,3.3-3.1,4.5h4.6c0.7-1,1.2-2,1.7-3.1c1-2.3,1.4-4.9,1.4-7.9c0-2.9-0.5-5.5-1.4-7.8
			c-1-2.3-2.3-4.2-4-5.8c-1.7-1.6-3.8-2.8-6.2-3.6c-2.4-0.8-5.1-1.2-8-1.2c-2.9,0-5.6,0.4-8,1.3c-2.4,0.8-4.5,2.1-6.2,3.6
			s-3.1,3.5-4,5.8c-1,2.3-1.4,4.9-1.4,7.8c0,3,0.5,5.6,1.4,7.9c0.5,1.1,1,2.2,1.7,3.1h4.7C60.2,135,59.1,133.5,58.4,131.7z"/>
		<path class="st2" d="M88.2,118.7c-0.8-1.8-1.8-3.3-3.1-4.6c-1.3-1.2-3-2.2-4.9-2.9c-2-0.7-4.3-1-6.8-1c-2.5,0-4.8,0.4-6.8,1.1
			c-1.9,0.7-3.6,1.7-5,2.9c-1.4,1.2-2.4,2.7-3.2,4.6c-0.8,1.8-1.2,4-1.2,6.4c0,2.5,0.4,4.7,1.2,6.5c0.8,1.8,1.8,3.3,3.1,4.5
			c0,0,0,0,0.1,0.1c1.4,1.2,3,2.2,5,2.9c2,0.7,4.3,1,6.8,1c2.5,0,4.8-0.4,6.8-1c1.9-0.7,3.6-1.6,5-2.9c0,0,0,0,0.1-0.1
			c1.3-1.2,2.3-2.7,3.1-4.5c0.8-1.9,1.2-4.1,1.2-6.5C89.4,122.7,89,120.5,88.2,118.7z"/>
		<path class="st4" d="M85.2,136.2C85.1,136.2,85.1,136.2,85.2,136.2c-1.4,1.3-3.1,2.3-5,2.9c-2,0.7-4.3,1-6.8,1
			c-2.5,0-4.8-0.4-6.8-1c-1.9-0.7-3.6-1.6-5-2.9c0,0,0,0-0.1-0.1h-4.7c0.7,1,1.5,1.9,2.4,2.7c1.7,1.6,3.8,2.8,6.2,3.6
			c2.4,0.8,5.1,1.2,8,1.2c2.9,0,5.6-0.4,8-1.2c2.4-0.8,4.5-2,6.2-3.6c0.9-0.8,1.6-1.7,2.3-2.7L85.2,136.2L85.2,136.2z"/>
		<g>
			<g>
				<g>
					<path class="st13" d="M81.7,138.3c-1.1,2.5-4.1,3.6-6.6,2.5s-3.6-4.1-2.5-6.6s12.7-22.6,15.2-21.5
						C90.4,113.8,82.9,135.8,81.7,138.3z"/>
					<path class="st14" d="M74.8,141.4l-0.1,0c-0.7-0.3-1.1-0.9-0.9-1.2l0.3-0.7l2.6,1.2c0,0-0.1,0.3-0.3,0.7
						C76.2,141.6,75.5,141.7,74.8,141.4z"/>
					<g>
						<g>
							<g>
								<defs>
									<path id="SVGID_3_" d="M81.7,138.3c-1.1,2.5-4.1,3.6-6.6,2.5s-3.6-4.1-2.5-6.6s12.7-22.6,15.2-21.5
										C90.4,113.8,82.9,135.8,81.7,138.3z"/>
								</defs>
								<clipPath id="SVGID_4_">
									<use xlink:href="#SVGID_3_"  style="overflow:visible;"/>
								</clipPath>
								<g class="st15">
									<g>
										<path class="st16" d="M87.4,115.5l-1.2-0.6c-0.2-0.1-0.3-0.4-0.2-0.6l0.2-0.5c0.1-0.2,0.4-0.3,0.6-0.2l1.2,0.6
											c0.2,0.1,0.3,0.4,0.2,0.6l-0.2,0.5C87.9,115.5,87.6,115.6,87.4,115.5z"/>
										<path class="st16" d="M86.4,117.7l-1.2-0.6c-0.2-0.1-0.3-0.4-0.2-0.6l0.2-0.5c0.1-0.2,0.4-0.3,0.6-0.2l1.2,0.6
											c0.2,0.1,0.3,0.4,0.2,0.6l-0.2,0.5C86.9,117.7,86.6,117.8,86.4,117.7z"/>
										<path class="st16" d="M85.4,119.8l-1.2-0.6c-0.2-0.1-0.3-0.4-0.2-0.6l0.2-0.5c0.1-0.2,0.4-0.3,0.6-0.2l1.2,0.6
											c0.2,0.1,0.3,0.4,0.2,0.6l-0.2,0.5C85.9,119.8,85.6,119.9,85.4,119.8z"/>
										<path class="st16" d="M84.4,122l-1.2-0.6c-0.2-0.1-0.3-0.4-0.2-0.6l0.2-0.5c0.1-0.2,0.4-0.3,0.6-0.2l1.2,0.6
											c0.2,0.1,0.3,0.4,0.2,0.6l-0.2,0.5C84.9,122,84.6,122.1,84.4,122z"/>
										<path class="st16" d="M83.4,124.2l-1.2-0.6c-0.2-0.1-0.3-0.4-0.2-0.6l0.2-0.5c0.1-0.2,0.4-0.3,0.6-0.2l1.2,0.6
											c0.2,0.1,0.3,0.4,0.2,0.6l-0.2,0.5C83.9,124.2,83.6,124.3,83.4,124.2z"/>
										<path class="st16" d="M82.4,126.3l-1.2-0.6c-0.2-0.1-0.3-0.4-0.2-0.6l0.2-0.5c0.1-0.2,0.4-0.3,0.6-0.2L83,125
											c0.2,0.1,0.3,0.4,0.2,0.6l-0.2,0.5C82.9,126.3,82.7,126.4,82.4,126.3z"/>
										<path class="st16" d="M81.5,128.5l-1.2-0.6c-0.2-0.1-0.3-0.4-0.2-0.6l0.2-0.5c0.1-0.2,0.4-0.3,0.6-0.2l1.2,0.6
											c0.2,0.1,0.3,0.4,0.2,0.6l-0.2,0.5C81.9,128.5,81.7,128.6,81.5,128.5z"/>
										<path class="st16" d="M80.5,130.7l-1.2-0.6c-0.2-0.1-0.3-0.4-0.2-0.6l0.2-0.5c0.1-0.2,0.4-0.3,0.6-0.2l1.2,0.6
											c0.2,0.1,0.3,0.4,0.2,0.6l-0.2,0.5C81,130.7,80.7,130.8,80.5,130.7z"/>
										<path class="st16" d="M79.5,132.8l-1.2-0.6c-0.2-0.1-0.3-0.4-0.2-0.6l0.2-0.5c0.1-0.2,0.4-0.3,0.6-0.2l1.2,0.6
											c0.2,0.1,0.3,0.4,0.2,0.6l-0.2,0.5C80,132.8,79.7,132.9,79.5,132.8z"/>
										<path class="st16" d="M78.5,135l-1.2-0.6c-0.2-0.1-0.3-0.4-0.2-0.6l0.2-0.5c0.1-0.2,0.4-0.3,0.6-0.2l1.2,0.6
											c0.2,0.1,0.3,0.4,0.2,0.6l-0.2,0.5C79,135,78.7,135.1,78.5,135z"/>
										<path class="st16" d="M77.5,137.2l-1.2-0.6c-0.2-0.1-0.3-0.4-0.2-0.6l0.2-0.5c0.1-0.2,0.4-0.3,0.6-0.2l1.2,0.6
											c0.2,0.1,0.3,0.4,0.2,0.6l-0.2,0.5C78,137.2,77.7,137.3,77.5,137.2z"/>
										<path class="st16" d="M76.5,139.3l-1.2-0.6c-0.2-0.1-0.3-0.4-0.2-0.6l0.2-0.5c0.1-0.2,0.4-0.3,0.6-0.2l1.2,0.6
											c0.2,0.1,0.3,0.4,0.2,0.6l-0.2,0.5C77,139.3,76.8,139.4,76.5,139.3z"/>
									</g>
									<g>
										<path class="st16" d="M89.1,117.9l-1.2-0.6c-0.2-0.1-0.3-0.4-0.2-0.6l0.2-0.5c0.1-0.2,0.4-0.3,0.6-0.2l1.2,0.6
											c0.2,0.1,0.3,0.4,0.2,0.6l-0.2,0.5C89.6,117.9,89.3,118,89.1,117.9z"/>
										<path class="st16" d="M88.1,120.1l-1.2-0.6c-0.2-0.1-0.3-0.4-0.2-0.6l0.2-0.5c0.1-0.2,0.4-0.3,0.6-0.2l1.2,0.6
											c0.2,0.1,0.3,0.4,0.2,0.6l-0.2,0.5C88.6,120.1,88.3,120.2,88.1,120.1z"/>
										<path class="st16" d="M87.1,122.3l-1.2-0.6c-0.2-0.1-0.3-0.4-0.2-0.6l0.2-0.5c0.1-0.2,0.4-0.3,0.6-0.2l1.2,0.6
											c0.2,0.1,0.3,0.4,0.2,0.6l-0.2,0.5C87.6,122.3,87.4,122.4,87.1,122.3z"/>
										<path class="st16" d="M86.1,124.4l-1.2-0.6c-0.2-0.1-0.3-0.4-0.2-0.6l0.2-0.5c0.1-0.2,0.4-0.3,0.6-0.2l1.2,0.6
											c0.2,0.1,0.3,0.4,0.2,0.6l-0.2,0.5C86.6,124.4,86.4,124.5,86.1,124.4z"/>
										<path class="st16" d="M85.2,126.6l-1.2-0.6c-0.2-0.1-0.3-0.4-0.2-0.6l0.2-0.5c0.1-0.2,0.4-0.3,0.6-0.2l1.2,0.6
											c0.2,0.1,0.3,0.4,0.2,0.6l-0.2,0.5C85.7,126.6,85.4,126.7,85.2,126.6z"/>
										<path class="st16" d="M84.2,128.8l-1.2-0.6c-0.2-0.1-0.3-0.4-0.2-0.6l0.2-0.5c0.1-0.2,0.4-0.3,0.6-0.2l1.2,0.6
											c0.2,0.1,0.3,0.4,0.2,0.6l-0.2,0.5C84.7,128.8,84.4,128.9,84.2,128.8z"/>
										<path class="st16" d="M83.2,130.9l-1.2-0.6c-0.2-0.1-0.3-0.4-0.2-0.6l0.2-0.5c0.1-0.2,0.4-0.3,0.6-0.2l1.2,0.6
											c0.2,0.1,0.3,0.4,0.2,0.6l-0.2,0.5C83.7,130.9,83.4,131,83.2,130.9z"/>
										<path class="st16" d="M82.2,133.1l-1.2-0.6c-0.2-0.1-0.3-0.4-0.2-0.6l0.2-0.5c0.1-0.2,0.4-0.3,0.6-0.2l1.2,0.6
											c0.2,0.1,0.3,0.4,0.2,0.6l-0.2,0.5C82.7,133.1,82.4,133.2,82.2,133.1z"/>
										<path class="st16" d="M81.2,135.3l-1.2-0.6c-0.2-0.1-0.3-0.4-0.2-0.6l0.2-0.5c0.1-0.2,0.4-0.3,0.6-0.2l1.2,0.6
											c0.2,0.1,0.3,0.4,0.2,0.6l-0.2,0.5C81.7,135.3,81.4,135.4,81.2,135.3z"/>
										<path class="st16" d="M80.2,137.4l-1.2-0.6c-0.2-0.1-0.3-0.4-0.2-0.6l0.2-0.5c0.1-0.2,0.4-0.3,0.6-0.2l1.2,0.6
											c0.2,0.1,0.3,0.4,0.2,0.6l-0.2,0.5C80.7,137.4,80.5,137.5,80.2,137.4z"/>
										<path class="st16" d="M79.3,139.6L78,139c-0.2-0.1-0.3-0.4-0.2-0.6l0.2-0.5c0.1-0.2,0.4-0.3,0.6-0.2l1.2,0.6
											c0.2,0.1,0.3,0.4,0.2,0.6l-0.2,0.5C79.7,139.6,79.5,139.7,79.3,139.6z"/>
										<path class="st16" d="M78.3,141.8l-1.2-0.6c-0.2-0.1-0.3-0.4-0.2-0.6l0.2-0.5c0.1-0.2,0.4-0.3,0.6-0.2l1.2,0.6
											c0.2,0.1,0.3,0.4,0.2,0.6l-0.2,0.5C78.8,141.8,78.5,141.9,78.3,141.8z"/>
									</g>
									<g>
										<path class="st16" d="M90.8,120.2l-1.2-0.6c-0.2-0.1-0.3-0.4-0.2-0.6l0.2-0.5c0.1-0.2,0.4-0.3,0.6-0.2l1.2,0.6
											c0.2,0.1,0.3,0.4,0.2,0.6l-0.2,0.5C91.3,120.2,91,120.3,90.8,120.2z"/>
										<path class="st16" d="M89.8,122.4l-1.2-0.6c-0.2-0.1-0.3-0.4-0.2-0.6l0.2-0.5c0.1-0.2,0.4-0.3,0.6-0.2l1.2,0.6
											c0.2,0.1,0.3,0.4,0.2,0.6l-0.2,0.5C90.3,122.4,90,122.5,89.8,122.4z"/>
										<path class="st16" d="M88.8,124.6l-1.2-0.6c-0.2-0.1-0.3-0.4-0.2-0.6l0.2-0.5c0.1-0.2,0.4-0.3,0.6-0.2l1.2,0.6
											c0.2,0.1,0.3,0.4,0.2,0.6l-0.2,0.5C89.3,124.6,89,124.7,88.8,124.6z"/>
										<path class="st16" d="M87.8,126.7l-1.2-0.6c-0.2-0.1-0.3-0.4-0.2-0.6l0.2-0.5c0.1-0.2,0.4-0.3,0.6-0.2l1.2,0.6
											c0.2,0.1,0.3,0.4,0.2,0.6l-0.2,0.5C88.3,126.7,88.1,126.8,87.8,126.7z"/>
										<path class="st16" d="M86.8,128.9l-1.2-0.6c-0.2-0.1-0.3-0.4-0.2-0.6l0.2-0.5c0.1-0.2,0.4-0.3,0.6-0.2l1.2,0.6
											c0.2,0.1,0.3,0.4,0.2,0.6l-0.2,0.5C87.3,128.9,87.1,129,86.8,128.9z"/>
										<path class="st16" d="M85.9,131.1l-1.2-0.6c-0.2-0.1-0.3-0.4-0.2-0.6l0.2-0.5c0.1-0.2,0.4-0.3,0.6-0.2l1.2,0.6
											c0.2,0.1,0.3,0.4,0.2,0.6l-0.2,0.5C86.4,131.1,86.1,131.2,85.9,131.1z"/>
										<path class="st16" d="M84.9,133.2l-1.2-0.6c-0.2-0.1-0.3-0.4-0.2-0.6l0.2-0.5c0.1-0.2,0.4-0.3,0.6-0.2l1.2,0.6
											c0.2,0.1,0.3,0.4,0.2,0.6l-0.2,0.5C85.4,133.2,85.1,133.4,84.9,133.2z"/>
										<path class="st16" d="M83.9,135.4l-1.2-0.6c-0.2-0.1-0.3-0.4-0.2-0.6l0.2-0.5c0.1-0.2,0.4-0.3,0.6-0.2l1.2,0.6
											c0.2,0.1,0.3,0.4,0.2,0.6l-0.2,0.5C84.4,135.4,84.1,135.5,83.9,135.4z"/>
										<path class="st16" d="M82.9,137.6l-1.2-0.6c-0.2-0.1-0.3-0.4-0.2-0.6l0.2-0.5c0.1-0.2,0.4-0.3,0.6-0.2l1.2,0.6
											c0.2,0.1,0.3,0.4,0.2,0.6l-0.2,0.5C83.4,137.6,83.1,137.7,82.9,137.6z"/>
										<path class="st16" d="M81.9,139.7l-1.2-0.6c-0.2-0.1-0.3-0.4-0.2-0.6l0.2-0.5c0.1-0.2,0.4-0.3,0.6-0.2l1.2,0.6
											c0.2,0.1,0.3,0.4,0.2,0.6l-0.2,0.5C82.4,139.8,82.1,139.8,81.9,139.7z"/>
										<path class="st16" d="M80.9,141.9l-1.2-0.6c-0.2-0.1-0.3-0.4-0.2-0.6l0.2-0.5c0.1-0.2,0.4-0.3,0.6-0.2l1.2,0.6
											c0.2,0.1,0.3,0.4,0.2,0.6l-0.2,0.5C81.4,141.9,81.2,142,80.9,141.9z"/>
										<path class="st16" d="M80,144.1l-1.2-0.6c-0.2-0.1-0.3-0.4-0.2-0.6l0.2-0.5c0.1-0.2,0.4-0.3,0.6-0.2l1.2,0.6
											c0.2,0.1,0.3,0.4,0.2,0.6l-0.2,0.5C80.4,144.1,80.2,144.2,80,144.1z"/>
									</g>
									<g>
										<path class="st16" d="M84.3,115.6l-1.2-0.6c-0.2-0.1-0.3-0.4-0.2-0.6l0.2-0.5c0.1-0.2,0.4-0.3,0.6-0.2l1.2,0.6
											c0.2,0.1,0.3,0.4,0.2,0.6l-0.2,0.5C84.8,115.6,84.5,115.7,84.3,115.6z"/>
										<path class="st16" d="M83.3,117.8l-1.2-0.6c-0.2-0.1-0.3-0.4-0.2-0.6l0.2-0.5c0.1-0.2,0.4-0.3,0.6-0.2l1.2,0.6
											c0.2,0.1,0.3,0.4,0.2,0.6l-0.2,0.5C83.8,117.8,83.5,117.9,83.3,117.8z"/>
										<path class="st16" d="M82.3,120l-1.2-0.6c-0.2-0.1-0.3-0.4-0.2-0.6l0.2-0.5c0.1-0.2,0.4-0.3,0.6-0.2l1.2,0.6
											c0.2,0.1,0.3,0.4,0.2,0.6l-0.2,0.5C82.8,120,82.5,120,82.3,120z"/>
										<path class="st16" d="M81.3,122.1l-1.2-0.6c-0.2-0.1-0.3-0.4-0.2-0.6l0.2-0.5c0.1-0.2,0.4-0.3,0.6-0.2l1.2,0.6
											c0.2,0.1,0.3,0.4,0.2,0.6l-0.2,0.5C81.8,122.1,81.6,122.2,81.3,122.1z"/>
										<path class="st16" d="M80.4,124.3l-1.2-0.6c-0.2-0.1-0.3-0.4-0.2-0.6l0.2-0.5c0.1-0.2,0.4-0.3,0.6-0.2l1.2,0.6
											c0.2,0.1,0.3,0.4,0.2,0.6l-0.2,0.5C80.8,124.3,80.6,124.4,80.4,124.3z"/>
										<path class="st16" d="M79.4,126.4l-1.2-0.6c-0.2-0.1-0.3-0.4-0.2-0.6l0.2-0.5c0.1-0.2,0.4-0.3,0.6-0.2l1.2,0.6
											c0.2,0.1,0.3,0.4,0.2,0.6l-0.2,0.5C79.9,126.5,79.6,126.6,79.4,126.4z"/>
										<path class="st16" d="M78.4,128.6l-1.2-0.6c-0.2-0.1-0.3-0.4-0.2-0.6l0.2-0.5c0.1-0.2,0.4-0.3,0.6-0.2l1.2,0.6
											c0.2,0.1,0.3,0.4,0.2,0.6l-0.2,0.5C78.9,128.6,78.6,128.7,78.4,128.6z"/>
										<path class="st16" d="M77.4,130.8l-1.2-0.6c-0.2-0.1-0.3-0.4-0.2-0.6l0.2-0.5c0.1-0.2,0.4-0.3,0.6-0.2l1.2,0.6
											c0.2,0.1,0.3,0.4,0.2,0.6l-0.2,0.5C77.9,130.8,77.6,130.9,77.4,130.8z"/>
										<path class="st16" d="M76.4,133l-1.2-0.6c-0.2-0.1-0.3-0.4-0.2-0.6l0.2-0.5c0.1-0.2,0.4-0.3,0.6-0.2l1.2,0.6
											c0.2,0.1,0.3,0.4,0.2,0.6l-0.2,0.5C76.9,133,76.6,133.1,76.4,133z"/>
										<path class="st16" d="M75.4,135.1l-1.2-0.6c-0.2-0.1-0.3-0.4-0.2-0.6l0.2-0.5c0.1-0.2,0.4-0.3,0.6-0.2l1.2,0.6
											c0.2,0.1,0.3,0.4,0.2,0.6l-0.2,0.5C75.9,135.1,75.7,135.2,75.4,135.1z"/>
										<path class="st16" d="M74.4,137.3l-1.2-0.6c-0.2-0.1-0.3-0.4-0.2-0.6l0.2-0.5c0.1-0.2,0.4-0.3,0.6-0.2l1.2,0.6
											c0.2,0.1,0.3,0.4,0.2,0.6l-0.2,0.5C74.9,137.3,74.7,137.4,74.4,137.3z"/>
										<path class="st16" d="M73.5,139.5l-1.2-0.6c-0.2-0.1-0.3-0.4-0.2-0.6l0.2-0.5c0.1-0.2,0.4-0.3,0.6-0.2l1.2,0.6
											c0.2,0.1,0.3,0.4,0.2,0.6l-0.2,0.5C74,139.5,73.7,139.6,73.5,139.5z"/>
									</g>
									<g>
										<path class="st16" d="M81.5,115.6l-1.2-0.6c-0.2-0.1-0.3-0.4-0.2-0.6l0.2-0.5c0.1-0.2,0.4-0.3,0.6-0.2l1.2,0.6
											c0.2,0.1,0.3,0.4,0.2,0.6l-0.2,0.5C82,115.6,81.8,115.7,81.5,115.6z"/>
										<path class="st16" d="M80.6,117.8l-1.2-0.6c-0.2-0.1-0.3-0.4-0.2-0.6l0.2-0.5c0.1-0.2,0.4-0.3,0.6-0.2l1.2,0.6
											c0.2,0.1,0.3,0.4,0.2,0.6l-0.2,0.5C81.1,117.8,80.8,117.9,80.6,117.8z"/>
										<path class="st16" d="M79.6,120l-1.2-0.6c-0.2-0.1-0.3-0.4-0.2-0.6l0.2-0.5c0.1-0.2,0.4-0.3,0.6-0.2l1.2,0.6
											c0.2,0.1,0.3,0.4,0.2,0.6l-0.2,0.5C80.1,120,79.8,120,79.6,120z"/>
										<path class="st16" d="M78.6,122.1l-1.2-0.6c-0.2-0.1-0.3-0.4-0.2-0.6l0.2-0.5c0.1-0.2,0.4-0.3,0.6-0.2l1.2,0.6
											c0.2,0.1,0.3,0.4,0.2,0.6l-0.2,0.5C79.1,122.1,78.8,122.2,78.6,122.1z"/>
										<path class="st16" d="M77.6,124.3l-1.2-0.6c-0.2-0.1-0.3-0.4-0.2-0.6l0.2-0.5c0.1-0.2,0.4-0.3,0.6-0.2l1.2,0.6
											c0.2,0.1,0.3,0.4,0.2,0.6l-0.2,0.5C78.1,124.3,77.8,124.4,77.6,124.3z"/>
										<path class="st16" d="M76.6,126.4l-1.2-0.6c-0.2-0.1-0.3-0.4-0.2-0.6l0.2-0.5c0.1-0.2,0.4-0.3,0.6-0.2l1.2,0.6
											c0.2,0.1,0.3,0.4,0.2,0.6l-0.2,0.5C77.1,126.5,76.9,126.6,76.6,126.4z"/>
										<path class="st16" d="M75.6,128.6l-1.2-0.6c-0.2-0.1-0.3-0.4-0.2-0.6l0.2-0.5c0.1-0.2,0.4-0.3,0.6-0.2l1.2,0.6
											c0.2,0.1,0.3,0.4,0.2,0.6l-0.2,0.5C76.1,128.6,75.9,128.7,75.6,128.6z"/>
										<path class="st16" d="M74.7,130.8l-1.2-0.6c-0.2-0.1-0.3-0.4-0.2-0.6l0.2-0.5c0.1-0.2,0.4-0.3,0.6-0.2l1.2,0.6
											c0.2,0.1,0.3,0.4,0.2,0.6l-0.2,0.5C75.2,130.8,74.9,130.9,74.7,130.8z"/>
										<path class="st16" d="M73.7,133l-1.2-0.6c-0.2-0.1-0.3-0.4-0.2-0.6l0.2-0.5c0.1-0.2,0.4-0.3,0.6-0.2l1.2,0.6
											c0.2,0.1,0.3,0.4,0.2,0.6l-0.2,0.5C74.2,133,73.9,133.1,73.7,133z"/>
										<path class="st16" d="M72.7,135.1l-1.2-0.6c-0.2-0.1-0.3-0.4-0.2-0.6l0.2-0.5c0.1-0.2,0.4-0.3,0.6-0.2l1.2,0.6
											c0.2,0.1,0.3,0.4,0.2,0.6l-0.2,0.5C73.2,135.1,72.9,135.2,72.7,135.1z"/>
										<path class="st16" d="M71.7,137.3l-1.2-0.6c-0.2-0.1-0.3-0.4-0.2-0.6l0.2-0.5c0.1-0.2,0.4-0.3,0.6-0.2l1.2,0.6
											c0.2,0.1,0.3,0.4,0.2,0.6l-0.2,0.5C72.2,137.3,71.9,137.4,71.7,137.3z"/>
										<path class="st16" d="M70.7,139.5l-1.2-0.6c-0.2-0.1-0.3-0.4-0.2-0.6l0.2-0.5c0.1-0.2,0.4-0.3,0.6-0.2l1.2,0.6
											c0.2,0.1,0.3,0.4,0.2,0.6l-0.2,0.5C71.2,139.5,70.9,139.6,70.7,139.5z"/>
									</g>
								</g>
							</g>
						</g>
					</g>
				</g>
				<path class="st17" d="M75.2,137.8c-1.6-0.5-2.3-2.8-1.6-5.2c0.6-1.8,6.2-13.9,8.7-19c0.6-1.3,0.9-1.2,0.7,0.2
					c-0.9,5.6-2.9,18.7-3.5,20.6C78.7,136.8,76.8,138.3,75.2,137.8z"/>
				
					<linearGradient id="SVGID_5_" gradientUnits="userSpaceOnUse" x1="-127.4678" y1="-1932.13" x2="-121.4704" y2="-1933.4048" gradientTransform="matrix(0.9105 0.4135 -0.4135 0.9105 -608.6248 1938.5283)">
					<stop  offset="0.4485" style="stop-color:#B6D13F"/>
					<stop  offset="0.4667" style="stop-color:#CDDD48"/>
				</linearGradient>
				<path class="st18" d="M74.4,140.1c-1.6-0.4-2.5-2.6-2-5c0.4-1.9,5.2-14.3,7.3-19.6c0.5-1.3,0.8-1.2,0.7,0.2
					c-0.5,5.6-1.6,18.9-2,20.8C77.8,138.8,76,140.4,74.4,140.1z"/>
				<path class="st17" d="M74.1,139.9c-1.6-0.4-2.5-2.6-2-5c0.4-1.9,5.2-14.3,7.3-19.6c0.5-1.3,0.8-1.2,0.7,0.2
					c-0.5,5.6-1.6,18.9-2,20.8C77.6,138.7,75.8,140.3,74.1,139.9z"/>
				<path class="st17" d="M77.2,138.7c1.4,0.9,3.7-0.1,5-2.2c1-1.6,6.3-13.8,8.6-19c0.6-1.3,0.3-1.5-0.6-0.4
					c-3.6,4.3-12.1,14.5-13.2,16.2C75.6,135.4,75.7,137.8,77.2,138.7z"/>
				
					<linearGradient id="SVGID_6_" gradientUnits="userSpaceOnUse" x1="3892.0969" y1="-1931.8118" x2="3898.095" y2="-1933.0867" gradientTransform="matrix(-0.9105 -0.4135 -0.4135 0.9105 2831.1338 3500.3245)">
					<stop  offset="0.4485" style="stop-color:#B6D13F"/>
					<stop  offset="0.4667" style="stop-color:#CDDD48"/>
				</linearGradient>
				<path class="st19" d="M76,140.8c1.4,1,3.7,0.2,5.1-1.8c1.1-1.6,7.3-13.3,9.9-18.3c0.7-1.2,0.4-1.4-0.6-0.4
					c-3.9,4.1-13.2,13.6-14.3,15.2C74.7,137.4,74.6,139.8,76,140.8z"/>
				<path class="st17" d="M76.2,141c1.4,1,3.7,0.2,5.1-1.8c1.1-1.6,7.3-13.3,9.9-18.3c0.7-1.2,0.4-1.4-0.6-0.4
					c-3.9,4.1-13.2,13.6-14.3,15.2C74.9,137.6,74.9,140,76.2,141z"/>
			</g>
			<g>
				<g>
					<path class="st13" d="M64.9,138.3c1.1,2.5,4.1,3.6,6.6,2.5c2.5-1.1,3.6-4.1,2.5-6.6s-12.7-22.6-15.2-21.5
						C56.2,113.8,63.8,135.8,64.9,138.3z"/>
					<path class="st14" d="M71.8,141.4l0.1,0c0.7-0.3,1.1-0.9,0.9-1.2l-0.3-0.7l-2.6,1.2c0,0,0.1,0.3,0.3,0.7
						C70.4,141.6,71.1,141.7,71.8,141.4z"/>
					<g>
						<g>
							<g>
								<defs>
									<path id="SVGID_7_" d="M64.9,138.3c1.1,2.5,4.1,3.6,6.6,2.5c2.5-1.1,3.6-4.1,2.5-6.6s-12.7-22.6-15.2-21.5
										C56.2,113.8,63.8,135.8,64.9,138.3z"/>
								</defs>
								<clipPath id="SVGID_8_">
									<use xlink:href="#SVGID_7_"  style="overflow:visible;"/>
								</clipPath>
								<g class="st20">
									<g>
										<path class="st16" d="M59.3,115.5l1.2-0.6c0.2-0.1,0.3-0.4,0.2-0.6l-0.2-0.5c-0.1-0.2-0.4-0.3-0.6-0.2l-1.2,0.6
											c-0.2,0.1-0.3,0.4-0.2,0.6l0.2,0.5C58.8,115.5,59,115.6,59.3,115.5z"/>
										<path class="st16" d="M60.3,117.7l1.2-0.6c0.2-0.1,0.3-0.4,0.2-0.6l-0.2-0.5c-0.1-0.2-0.4-0.3-0.6-0.2l-1.2,0.6
											c-0.2,0.1-0.3,0.4-0.2,0.6l0.2,0.5C59.8,117.7,60,117.8,60.3,117.7z"/>
										<path class="st16" d="M61.2,119.8l1.2-0.6c0.2-0.1,0.3-0.4,0.2-0.6l-0.2-0.5c-0.1-0.2-0.4-0.3-0.6-0.2l-1.2,0.6
											c-0.2,0.1-0.3,0.4-0.2,0.6l0.2,0.5C60.7,119.8,61,119.9,61.2,119.8z"/>
										<path class="st16" d="M62.2,122l1.2-0.6c0.2-0.1,0.3-0.4,0.2-0.6l-0.2-0.5c-0.1-0.2-0.4-0.3-0.6-0.2l-1.2,0.6
											c-0.2,0.1-0.3,0.4-0.2,0.6l0.2,0.5C61.7,122,62,122.1,62.2,122z"/>
										<path class="st16" d="M63.2,124.2l1.2-0.6c0.2-0.1,0.3-0.4,0.2-0.6l-0.2-0.5c-0.1-0.2-0.4-0.3-0.6-0.2l-1.2,0.6
											c-0.2,0.1-0.3,0.4-0.2,0.6l0.2,0.5C62.7,124.2,63,124.3,63.2,124.2z"/>
										<path class="st16" d="M64.2,126.3l1.2-0.6c0.2-0.1,0.3-0.4,0.2-0.6l-0.2-0.5c-0.1-0.2-0.4-0.3-0.6-0.2l-1.2,0.6
											c-0.2,0.1-0.3,0.4-0.2,0.6l0.2,0.5C63.7,126.3,64,126.4,64.2,126.3z"/>
										<path class="st16" d="M65.2,128.5l1.2-0.6c0.2-0.1,0.3-0.4,0.2-0.6l-0.2-0.5c-0.1-0.2-0.4-0.3-0.6-0.2l-1.2,0.6
											c-0.2,0.1-0.3,0.4-0.2,0.6l0.2,0.5C64.7,128.5,64.9,128.6,65.2,128.5z"/>
										<path class="st16" d="M66.2,130.7l1.2-0.6c0.2-0.1,0.3-0.4,0.2-0.6l-0.2-0.5c-0.1-0.2-0.4-0.3-0.6-0.2l-1.2,0.6
											c-0.2,0.1-0.3,0.4-0.2,0.6l0.2,0.5C65.7,130.7,65.9,130.8,66.2,130.7z"/>
										<path class="st16" d="M67.1,132.8l1.2-0.6c0.2-0.1,0.3-0.4,0.2-0.6l-0.2-0.5c-0.1-0.2-0.4-0.3-0.6-0.2l-1.2,0.6
											c-0.2,0.1-0.3,0.4-0.2,0.6l0.2,0.5C66.6,132.8,66.9,132.9,67.1,132.8z"/>
										<path class="st16" d="M68.1,135l1.2-0.6c0.2-0.1,0.3-0.4,0.2-0.6l-0.2-0.5c-0.1-0.2-0.4-0.3-0.6-0.2l-1.2,0.6
											c-0.2,0.1-0.3,0.4-0.2,0.6l0.2,0.5C67.6,135,67.9,135.1,68.1,135z"/>
										<path class="st16" d="M69.1,137.2l1.2-0.6c0.2-0.1,0.3-0.4,0.2-0.6l-0.2-0.5c-0.1-0.2-0.4-0.3-0.6-0.2l-1.2,0.6
											c-0.2,0.1-0.3,0.4-0.2,0.6l0.2,0.5C68.6,137.2,68.9,137.3,69.1,137.2z"/>
										<path class="st16" d="M70.1,139.3l1.2-0.6c0.2-0.1,0.3-0.4,0.2-0.6l-0.2-0.5c-0.1-0.2-0.4-0.3-0.6-0.2l-1.2,0.6
											c-0.2,0.1-0.3,0.4-0.2,0.6l0.2,0.5C69.6,139.3,69.9,139.4,70.1,139.3z"/>
									</g>
									<g>
										<path class="st16" d="M57.5,117.9l1.2-0.6c0.2-0.1,0.3-0.4,0.2-0.6l-0.2-0.5c-0.1-0.2-0.4-0.3-0.6-0.2l-1.2,0.6
											c-0.2,0.1-0.3,0.4-0.2,0.6l0.2,0.5C57,117.9,57.3,118,57.5,117.9z"/>
										<path class="st16" d="M58.5,120.1l1.2-0.6c0.2-0.1,0.3-0.4,0.2-0.6l-0.2-0.5c-0.1-0.2-0.4-0.3-0.6-0.2l-1.2,0.6
											c-0.2,0.1-0.3,0.4-0.2,0.6l0.2,0.5C58,120.1,58.3,120.2,58.5,120.1z"/>
										<path class="st16" d="M59.5,122.3l1.2-0.6c0.2-0.1,0.3-0.4,0.2-0.6l-0.2-0.5c-0.1-0.2-0.4-0.3-0.6-0.2l-1.2,0.6
											c-0.2,0.1-0.3,0.4-0.2,0.6l0.2,0.5C59,122.3,59.3,122.4,59.5,122.3z"/>
										<path class="st16" d="M60.5,124.4l1.2-0.6c0.2-0.1,0.3-0.4,0.2-0.6l-0.2-0.5c-0.1-0.2-0.4-0.3-0.6-0.2l-1.2,0.6
											c-0.2,0.1-0.3,0.4-0.2,0.6l0.2,0.5C60,124.4,60.3,124.5,60.5,124.4z"/>
										<path class="st16" d="M61.5,126.6l1.2-0.6c0.2-0.1,0.3-0.4,0.2-0.6l-0.2-0.5c-0.1-0.2-0.4-0.3-0.6-0.2l-1.2,0.6
											c-0.2,0.1-0.3,0.4-0.2,0.6l0.2,0.5C61,126.6,61.2,126.7,61.5,126.6z"/>
										<path class="st16" d="M62.4,128.8l1.2-0.6c0.2-0.1,0.3-0.4,0.2-0.6l-0.2-0.5c-0.1-0.2-0.4-0.3-0.6-0.2l-1.2,0.6
											c-0.2,0.1-0.3,0.4-0.2,0.6l0.2,0.5C62,128.8,62.2,128.9,62.4,128.8z"/>
										<path class="st16" d="M63.4,130.9l1.2-0.6c0.2-0.1,0.3-0.4,0.2-0.6l-0.2-0.5c-0.1-0.2-0.4-0.3-0.6-0.2l-1.2,0.6
											c-0.2,0.1-0.3,0.4-0.2,0.6l0.2,0.5C62.9,130.9,63.2,131,63.4,130.9z"/>
										<path class="st16" d="M64.4,133.1l1.2-0.6c0.2-0.1,0.3-0.4,0.2-0.6l-0.2-0.5c-0.1-0.2-0.4-0.3-0.6-0.2l-1.2,0.6
											c-0.2,0.1-0.3,0.4-0.2,0.6l0.2,0.5C63.9,133.1,64.2,133.2,64.4,133.1z"/>
										<path class="st16" d="M65.4,135.3l1.2-0.6c0.2-0.1,0.3-0.4,0.2-0.6l-0.2-0.5c-0.1-0.2-0.4-0.3-0.6-0.2l-1.2,0.6
											c-0.2,0.1-0.3,0.4-0.2,0.6l0.2,0.5C64.9,135.3,65.2,135.4,65.4,135.3z"/>
										<path class="st16" d="M66.4,137.4l1.2-0.6c0.2-0.1,0.3-0.4,0.2-0.6l-0.2-0.5c-0.1-0.2-0.4-0.3-0.6-0.2l-1.2,0.6
											c-0.2,0.1-0.3,0.4-0.2,0.6l0.2,0.5C65.9,137.4,66.2,137.5,66.4,137.4z"/>
										<path class="st16" d="M67.4,139.6l1.2-0.6c0.2-0.1,0.3-0.4,0.2-0.6l-0.2-0.5c-0.1-0.2-0.4-0.3-0.6-0.2l-1.2,0.6
											c-0.2,0.1-0.3,0.4-0.2,0.6l0.2,0.5C66.9,139.6,67.2,139.7,67.4,139.6z"/>
										<path class="st16" d="M68.4,141.8l1.2-0.6c0.2-0.1,0.3-0.4,0.2-0.6l-0.2-0.5c-0.1-0.2-0.4-0.3-0.6-0.2l-1.2,0.6
											c-0.2,0.1-0.3,0.4-0.2,0.6l0.2,0.5C67.9,141.8,68.1,141.9,68.4,141.8z"/>
									</g>
									<g>
										<path class="st16" d="M55.8,120.2l1.2-0.6c0.2-0.1,0.3-0.4,0.2-0.6l-0.2-0.5c-0.1-0.2-0.4-0.3-0.6-0.2l-1.2,0.6
											c-0.2,0.1-0.3,0.4-0.2,0.6l0.2,0.5C55.3,120.2,55.6,120.3,55.8,120.2z"/>
										<path class="st16" d="M56.8,122.4l1.2-0.6c0.2-0.1,0.3-0.4,0.2-0.6l-0.2-0.5c-0.1-0.2-0.4-0.3-0.6-0.2l-1.2,0.6
											c-0.2,0.1-0.3,0.4-0.2,0.6l0.2,0.5C56.3,122.4,56.6,122.5,56.8,122.4z"/>
										<path class="st16" d="M57.8,124.6L59,124c0.2-0.1,0.3-0.4,0.2-0.6l-0.2-0.5c-0.1-0.2-0.4-0.3-0.6-0.2l-1.2,0.6
											c-0.2,0.1-0.3,0.4-0.2,0.6l0.2,0.5C57.3,124.6,57.6,124.7,57.8,124.6z"/>
										<path class="st16" d="M58.8,126.7l1.2-0.6c0.2-0.1,0.3-0.4,0.2-0.6l-0.2-0.5c-0.1-0.2-0.4-0.3-0.6-0.2l-1.2,0.6
											c-0.2,0.1-0.3,0.4-0.2,0.6l0.2,0.5C58.3,126.7,58.6,126.8,58.8,126.7z"/>
										<path class="st16" d="M59.8,128.9l1.2-0.6c0.2-0.1,0.3-0.4,0.2-0.6l-0.2-0.5c-0.1-0.2-0.4-0.3-0.6-0.2l-1.2,0.6
											c-0.2,0.1-0.3,0.4-0.2,0.6l0.2,0.5C59.3,128.9,59.6,129,59.8,128.9z"/>
										<path class="st16" d="M60.8,131.1l1.2-0.6c0.2-0.1,0.3-0.4,0.2-0.6l-0.2-0.5c-0.1-0.2-0.4-0.3-0.6-0.2l-1.2,0.6
											c-0.2,0.1-0.3,0.4-0.2,0.6l0.2,0.5C60.3,131.1,60.5,131.2,60.8,131.1z"/>
										<path class="st16" d="M61.8,133.2l1.2-0.6c0.2-0.1,0.3-0.4,0.2-0.6l-0.2-0.5c-0.1-0.2-0.4-0.3-0.6-0.2l-1.2,0.6
											c-0.2,0.1-0.3,0.4-0.2,0.6l0.2,0.5C61.3,133.2,61.5,133.4,61.8,133.2z"/>
										<path class="st16" d="M62.7,135.4l1.2-0.6c0.2-0.1,0.3-0.4,0.2-0.6l-0.2-0.5c-0.1-0.2-0.4-0.3-0.6-0.2l-1.2,0.6
											c-0.2,0.1-0.3,0.4-0.2,0.6l0.2,0.5C62.2,135.4,62.5,135.5,62.7,135.4z"/>
										<path class="st16" d="M63.7,137.6L65,137c0.2-0.1,0.3-0.4,0.2-0.6l-0.2-0.5c-0.1-0.2-0.4-0.3-0.6-0.2l-1.2,0.6
											c-0.2,0.1-0.3,0.4-0.2,0.6l0.2,0.5C63.2,137.6,63.5,137.7,63.7,137.6z"/>
										<path class="st16" d="M64.7,139.7l1.2-0.6c0.2-0.1,0.3-0.4,0.2-0.6l-0.2-0.5c-0.1-0.2-0.4-0.3-0.6-0.2l-1.2,0.6
											c-0.2,0.1-0.3,0.4-0.2,0.6l0.2,0.5C64.2,139.8,64.5,139.8,64.7,139.7z"/>
										<path class="st16" d="M65.7,141.9l1.2-0.6c0.2-0.1,0.3-0.4,0.2-0.6l-0.2-0.5c-0.1-0.2-0.4-0.3-0.6-0.2l-1.2,0.6
											c-0.2,0.1-0.3,0.4-0.2,0.6l0.2,0.5C65.2,141.9,65.5,142,65.7,141.9z"/>
										<path class="st16" d="M66.7,144.1l1.2-0.6c0.2-0.1,0.3-0.4,0.2-0.6l-0.2-0.5c-0.1-0.2-0.4-0.3-0.6-0.2l-1.2,0.6
											c-0.2,0.1-0.3,0.4-0.2,0.6l0.2,0.5C66.2,144.1,66.4,144.2,66.7,144.1z"/>
									</g>
									<g>
										<path class="st16" d="M62.3,115.6l1.2-0.6c0.2-0.1,0.3-0.4,0.2-0.6l-0.2-0.5c-0.1-0.2-0.4-0.3-0.6-0.2l-1.2,0.6
											c-0.2,0.1-0.3,0.4-0.2,0.6l0.2,0.5C61.8,115.6,62.1,115.7,62.3,115.6z"/>
										<path class="st16" d="M63.3,117.8l1.2-0.6c0.2-0.1,0.3-0.4,0.2-0.6l-0.2-0.5c-0.1-0.2-0.4-0.3-0.6-0.2l-1.2,0.6
											c-0.2,0.1-0.3,0.4-0.2,0.6l0.2,0.5C62.8,117.8,63.1,117.9,63.3,117.8z"/>
										<path class="st16" d="M64.3,120l1.2-0.6c0.2-0.1,0.3-0.4,0.2-0.6l-0.2-0.5c-0.1-0.2-0.4-0.3-0.6-0.2l-1.2,0.6
											c-0.2,0.1-0.3,0.4-0.2,0.6l0.2,0.5C63.8,120,64.1,120,64.3,120z"/>
										<path class="st16" d="M65.3,122.1l1.2-0.6c0.2-0.1,0.3-0.4,0.2-0.6l-0.2-0.5c-0.1-0.2-0.4-0.3-0.6-0.2l-1.2,0.6
											c-0.2,0.1-0.3,0.4-0.2,0.6l0.2,0.5C64.8,122.1,65.1,122.2,65.3,122.1z"/>
										<path class="st16" d="M66.3,124.3l1.2-0.6c0.2-0.1,0.3-0.4,0.2-0.6l-0.2-0.5c-0.1-0.2-0.4-0.3-0.6-0.2l-1.2,0.6
											c-0.2,0.1-0.3,0.4-0.2,0.6l0.2,0.5C65.8,124.3,66,124.4,66.3,124.3z"/>
										<path class="st16" d="M67.3,126.4l1.2-0.6c0.2-0.1,0.3-0.4,0.2-0.6l-0.2-0.5c-0.1-0.2-0.4-0.3-0.6-0.2l-1.2,0.6
											c-0.2,0.1-0.3,0.4-0.2,0.6l0.2,0.5C66.8,126.5,67,126.6,67.3,126.4z"/>
										<path class="st16" d="M68.2,128.6l1.2-0.6c0.2-0.1,0.3-0.4,0.2-0.6l-0.2-0.5c-0.1-0.2-0.4-0.3-0.6-0.2l-1.2,0.6
											c-0.2,0.1-0.3,0.4-0.2,0.6l0.2,0.5C67.7,128.6,68,128.7,68.2,128.6z"/>
										<path class="st16" d="M69.2,130.8l1.2-0.6c0.2-0.1,0.3-0.4,0.2-0.6l-0.2-0.5c-0.1-0.2-0.4-0.3-0.6-0.2l-1.2,0.6
											c-0.2,0.1-0.3,0.4-0.2,0.6l0.2,0.5C68.7,130.8,69,130.9,69.2,130.8z"/>
										<path class="st16" d="M70.2,133l1.2-0.6c0.2-0.1,0.3-0.4,0.2-0.6l-0.2-0.5c-0.1-0.2-0.4-0.3-0.6-0.2l-1.2,0.6
											c-0.2,0.1-0.3,0.4-0.2,0.6l0.2,0.5C69.7,133,70,133.1,70.2,133z"/>
										<path class="st16" d="M71.2,135.1l1.2-0.6c0.2-0.1,0.3-0.4,0.2-0.6l-0.2-0.5c-0.1-0.2-0.4-0.3-0.6-0.2l-1.2,0.6
											c-0.2,0.1-0.3,0.4-0.2,0.6l0.2,0.5C70.7,135.1,71,135.2,71.2,135.1z"/>
										<path class="st16" d="M72.2,137.3l1.2-0.6c0.2-0.1,0.3-0.4,0.2-0.6l-0.2-0.5c-0.1-0.2-0.4-0.3-0.6-0.2l-1.2,0.6
											c-0.2,0.1-0.3,0.4-0.2,0.6l0.2,0.5C71.7,137.3,72,137.4,72.2,137.3z"/>
										<path class="st16" d="M73.2,139.5l1.2-0.6c0.2-0.1,0.3-0.4,0.2-0.6l-0.2-0.5c-0.1-0.2-0.4-0.3-0.6-0.2l-1.2,0.6
											c-0.2,0.1-0.3,0.4-0.2,0.6l0.2,0.5C72.7,139.5,72.9,139.6,73.2,139.5z"/>
									</g>
									<g>
										<path class="st16" d="M65.1,115.6l1.2-0.6c0.2-0.1,0.3-0.4,0.2-0.6l-0.2-0.5c-0.1-0.2-0.4-0.3-0.6-0.2l-1.2,0.6
											c-0.2,0.1-0.3,0.4-0.2,0.6l0.2,0.5C64.6,115.6,64.9,115.7,65.1,115.6z"/>
										<path class="st16" d="M66.1,117.8l1.2-0.6c0.2-0.1,0.3-0.4,0.2-0.6l-0.2-0.5c-0.1-0.2-0.4-0.3-0.6-0.2l-1.2,0.6
											c-0.2,0.1-0.3,0.4-0.2,0.6l0.2,0.5C65.6,117.8,65.8,117.9,66.1,117.8z"/>
										<path class="st16" d="M67,120l1.2-0.6c0.2-0.1,0.3-0.4,0.2-0.6l-0.2-0.5c-0.1-0.2-0.4-0.3-0.6-0.2l-1.2,0.6
											c-0.2,0.1-0.3,0.4-0.2,0.6l0.2,0.5C66.6,120,66.8,120,67,120z"/>
										<path class="st16" d="M68,122.1l1.2-0.6c0.2-0.1,0.3-0.4,0.2-0.6l-0.2-0.5c-0.1-0.2-0.4-0.3-0.6-0.2l-1.2,0.6
											c-0.2,0.1-0.3,0.4-0.2,0.6l0.2,0.5C67.5,122.1,67.8,122.2,68,122.1z"/>
										<path class="st16" d="M69,124.3l1.2-0.6c0.2-0.1,0.3-0.4,0.2-0.6l-0.2-0.5c-0.1-0.2-0.4-0.3-0.6-0.2l-1.2,0.6
											c-0.2,0.1-0.3,0.4-0.2,0.6l0.2,0.5C68.5,124.3,68.8,124.4,69,124.3z"/>
										<path class="st16" d="M70,126.4l1.2-0.6c0.2-0.1,0.3-0.4,0.2-0.6l-0.2-0.5c-0.1-0.2-0.4-0.3-0.6-0.2l-1.2,0.6
											c-0.2,0.1-0.3,0.4-0.2,0.6l0.2,0.5C69.5,126.5,69.8,126.6,70,126.4z"/>
										<path class="st16" d="M71,128.6l1.2-0.6c0.2-0.1,0.3-0.4,0.2-0.6l-0.2-0.5c-0.1-0.2-0.4-0.3-0.6-0.2l-1.2,0.6
											c-0.2,0.1-0.3,0.4-0.2,0.6l0.2,0.5C70.5,128.6,70.8,128.7,71,128.6z"/>
										<path class="st16" d="M72,130.8l1.2-0.6c0.2-0.1,0.3-0.4,0.2-0.6l-0.2-0.5c-0.1-0.2-0.4-0.3-0.6-0.2l-1.2,0.6
											c-0.2,0.1-0.3,0.4-0.2,0.6l0.2,0.5C71.5,130.8,71.7,130.9,72,130.8z"/>
										<path class="st16" d="M73,133l1.2-0.6c0.2-0.1,0.3-0.4,0.2-0.6l-0.2-0.5c-0.1-0.2-0.4-0.3-0.6-0.2l-1.2,0.6
											c-0.2,0.1-0.3,0.4-0.2,0.6l0.2,0.5C72.5,133,72.7,133.1,73,133z"/>
										<path class="st16" d="M73.9,135.1l1.2-0.6c0.2-0.1,0.3-0.4,0.2-0.6l-0.2-0.5c-0.1-0.2-0.4-0.3-0.6-0.2l-1.2,0.6
											c-0.2,0.1-0.3,0.4-0.2,0.6l0.2,0.5C73.4,135.1,73.7,135.2,73.9,135.1z"/>
										<path class="st16" d="M74.9,137.3l1.2-0.6c0.2-0.1,0.3-0.4,0.2-0.6l-0.2-0.5c-0.1-0.2-0.4-0.3-0.6-0.2l-1.2,0.6
											c-0.2,0.1-0.3,0.4-0.2,0.6l0.2,0.5C74.4,137.3,74.7,137.4,74.9,137.3z"/>
										<path class="st16" d="M75.9,139.5l1.2-0.6c0.2-0.1,0.3-0.4,0.2-0.6l-0.2-0.5c-0.1-0.2-0.4-0.3-0.6-0.2l-1.2,0.6
											c-0.2,0.1-0.3,0.4-0.2,0.6l0.2,0.5C75.4,139.5,75.7,139.6,75.9,139.5z"/>
									</g>
								</g>
							</g>
						</g>
					</g>
				</g>
				<path class="st17" d="M71.5,137.8c1.6-0.5,2.3-2.8,1.6-5.2c-0.6-1.8-6.2-13.9-8.7-19c-0.6-1.3-0.9-1.2-0.7,0.2
					c0.9,5.6,2.9,18.7,3.5,20.6C67.9,136.8,69.8,138.3,71.5,137.8z"/>
				
					<linearGradient id="SVGID_9_" gradientUnits="userSpaceOnUse" x1="2445.4053" y1="-3100.5891" x2="2451.4031" y2="-3101.864" gradientTransform="matrix(-0.9105 0.4135 0.4135 0.9105 3581.0103 1938.5283)">
					<stop  offset="0.4485" style="stop-color:#B6D13F"/>
					<stop  offset="0.4667" style="stop-color:#CDDD48"/>
				</linearGradient>
				<path class="st21" d="M72.2,140.1c1.6-0.4,2.5-2.6,2-5c-0.4-1.9-5.2-14.3-7.3-19.6c-0.5-1.3-0.8-1.2-0.7,0.2
					c0.5,5.6,1.6,18.9,2,20.8C68.8,138.8,70.6,140.4,72.2,140.1z"/>
				<path class="st17" d="M72.5,139.9c1.6-0.4,2.5-2.6,2-5c-0.4-1.9-5.2-14.3-7.3-19.6c-0.5-1.3-0.8-1.2-0.7,0.2
					c0.5,5.6,1.6,18.9,2,20.8C69.1,138.7,70.9,140.3,72.5,139.9z"/>
				<path class="st17" d="M69.5,138.7c-1.4,0.9-3.7-0.1-5-2.2c-1-1.6-6.3-13.8-8.6-19c-0.6-1.3-0.3-1.5,0.6-0.4
					c3.6,4.3,12.1,14.5,13.2,16.2C71,135.4,70.9,137.8,69.5,138.7z"/>
				
					<linearGradient id="SVGID_10_" gradientUnits="userSpaceOnUse" x1="1319.2302" y1="-3100.269" x2="1325.2283" y2="-3101.5439" gradientTransform="matrix(0.9105 -0.4135 0.4135 0.9105 141.2514 3500.3245)">
					<stop  offset="0.4485" style="stop-color:#B6D13F"/>
					<stop  offset="0.4667" style="stop-color:#CDDD48"/>
				</linearGradient>
				<path class="st22" d="M70.7,140.8c-1.4,1-3.7,0.2-5.1-1.8c-1.1-1.6-7.3-13.3-9.9-18.3c-0.7-1.2-0.4-1.4,0.6-0.4
					c3.9,4.1,13.2,13.6,14.3,15.2C72,137.4,72,139.8,70.7,140.8z"/>
				<path class="st17" d="M70.4,141c-1.4,1-3.7,0.2-5.1-1.8c-1.1-1.6-7.3-13.3-9.9-18.3c-0.7-1.2-0.4-1.4,0.6-0.4
					c3.9,4.1,13.2,13.6,14.3,15.2C71.7,137.6,71.8,140,70.4,141z"/>
			</g>
			<g>
				<g>
					<path class="st13" d="M79.6,135.4c0,3.4-2.8,6.2-6.2,6.2s-6.2-2.8-6.2-6.2s2.8-32,6.2-32S79.6,132,79.6,135.4z"/>
					<path class="st23" d="M73.4,142.4h-0.1c-0.9,0-1.7-0.4-1.7-0.9v-0.9h3.5c0,0,0,0.4,0,0.9C75.1,142,74.4,142.4,73.4,142.4z"/>
					<g>
						<g>
							<g>
								<defs>
									<path id="SVGID_11_" d="M79.6,135.4c0,3.4-2.8,6.2-6.2,6.2s-6.2-2.8-6.2-6.2s2.8-32,6.2-32S79.6,132,79.6,135.4z"/>
								</defs>
								<clipPath id="SVGID_12_">
									<use xlink:href="#SVGID_11_"  style="overflow:visible;"/>
								</clipPath>
								<g class="st24">
									<g>
										<path class="st25" d="M74.3,106.8h-1.7c-0.3,0-0.6-0.3-0.6-0.6v-0.7c0-0.3,0.3-0.6,0.6-0.6h1.7c0.3,0,0.6,0.3,0.6,0.6v0.7
											C74.8,106.6,74.6,106.8,74.3,106.8z"/>
										<path class="st25" d="M74.3,109.8h-1.7c-0.3,0-0.6-0.3-0.6-0.6v-0.7c0-0.3,0.3-0.6,0.6-0.6h1.7c0.3,0,0.6,0.3,0.6,0.6v0.7
											C74.8,109.5,74.6,109.8,74.3,109.8z"/>
										<path class="st25" d="M74.3,112.7h-1.7c-0.3,0-0.6-0.3-0.6-0.6v-0.7c0-0.3,0.3-0.6,0.6-0.6h1.7c0.3,0,0.6,0.3,0.6,0.6v0.7
											C74.8,112.4,74.6,112.7,74.3,112.7z"/>
										<path class="st25" d="M74.3,115.6h-1.7c-0.3,0-0.6-0.3-0.6-0.6v-0.7c0-0.3,0.3-0.6,0.6-0.6h1.7c0.3,0,0.6,0.3,0.6,0.6v0.7
											C74.8,115.4,74.6,115.6,74.3,115.6z"/>
										<path class="st25" d="M74.3,118.6h-1.7c-0.3,0-0.6-0.3-0.6-0.6v-0.7c0-0.3,0.3-0.6,0.6-0.6h1.7c0.3,0,0.6,0.3,0.6,0.6v0.7
											C74.8,118.3,74.6,118.6,74.3,118.6z"/>
										<path class="st25" d="M74.3,121.5h-1.7c-0.3,0-0.6-0.3-0.6-0.6v-0.7c0-0.3,0.3-0.6,0.6-0.6h1.7c0.3,0,0.6,0.3,0.6,0.6v0.7
											C74.8,121.3,74.6,121.5,74.3,121.5z"/>
										<path class="st25" d="M74.3,124.5h-1.7c-0.3,0-0.6-0.3-0.6-0.6v-0.7c0-0.3,0.3-0.6,0.6-0.6h1.7c0.3,0,0.6,0.3,0.6,0.6v0.7
											C74.8,124.2,74.6,124.5,74.3,124.5z"/>
										<path class="st25" d="M74.3,127.5h-1.7c-0.3,0-0.6-0.3-0.6-0.6v-0.7c0-0.3,0.3-0.6,0.6-0.6h1.7c0.3,0,0.6,0.3,0.6,0.6v0.7
											C74.8,127.2,74.6,127.5,74.3,127.5z"/>
										<path class="st25" d="M74.3,130.4h-1.7c-0.3,0-0.6-0.3-0.6-0.6v-0.7c0-0.3,0.3-0.6,0.6-0.6h1.7c0.3,0,0.6,0.3,0.6,0.6v0.7
											C74.8,130.2,74.6,130.4,74.3,130.4z"/>
										<path class="st25" d="M74.3,133.4h-1.7c-0.3,0-0.6-0.3-0.6-0.6v-0.7c0-0.3,0.3-0.6,0.6-0.6h1.7c0.3,0,0.6,0.3,0.6,0.6v0.7
											C74.8,133.1,74.6,133.4,74.3,133.4z"/>
										<path class="st25" d="M74.3,136.3h-1.7c-0.3,0-0.6-0.3-0.6-0.6V135c0-0.3,0.3-0.6,0.6-0.6h1.7c0.3,0,0.6,0.3,0.6,0.6v0.7
											C74.8,136.1,74.6,136.3,74.3,136.3z"/>
										<path class="st25" d="M74.3,139.3h-1.7c-0.3,0-0.6-0.3-0.6-0.6V138c0-0.3,0.3-0.6,0.6-0.6h1.7c0.3,0,0.6,0.3,0.6,0.6v0.7
											C74.8,139,74.6,139.3,74.3,139.3z"/>
									</g>
									<g>
										<path class="st25" d="M77.5,108.6h-1.7c-0.3,0-0.6-0.3-0.6-0.6v-0.7c0-0.3,0.3-0.6,0.6-0.6h1.7c0.3,0,0.6,0.3,0.6,0.6v0.7
											C78,108.4,77.8,108.6,77.5,108.6z"/>
										<path class="st25" d="M77.5,111.6h-1.7c-0.3,0-0.6-0.3-0.6-0.6v-0.7c0-0.3,0.3-0.6,0.6-0.6h1.7c0.3,0,0.6,0.3,0.6,0.6v0.7
											C78,111.4,77.8,111.6,77.5,111.6z"/>
										<path class="st25" d="M77.5,114.6h-1.7c-0.3,0-0.6-0.3-0.6-0.6v-0.7c0-0.3,0.3-0.6,0.6-0.6h1.7c0.3,0,0.6,0.3,0.6,0.6v0.7
											C78,114.3,77.8,114.6,77.5,114.6z"/>
										<path class="st25" d="M77.5,117.5h-1.7c-0.3,0-0.6-0.3-0.6-0.6v-0.7c0-0.3,0.3-0.6,0.6-0.6h1.7c0.3,0,0.6,0.3,0.6,0.6v0.7
											C78,117.3,77.8,117.5,77.5,117.5z"/>
										<path class="st25" d="M77.5,120.5h-1.7c-0.3,0-0.6-0.3-0.6-0.6v-0.7c0-0.3,0.3-0.6,0.6-0.6h1.7c0.3,0,0.6,0.3,0.6,0.6v0.7
											C78,120.2,77.8,120.5,77.5,120.5z"/>
										<path class="st25" d="M77.5,123.4h-1.7c-0.3,0-0.6-0.3-0.6-0.6v-0.7c0-0.3,0.3-0.6,0.6-0.6h1.7c0.3,0,0.6,0.3,0.6,0.6v0.7
											C78,123.2,77.8,123.4,77.5,123.4z"/>
										<path class="st25" d="M77.5,126.4h-1.7c-0.3,0-0.6-0.3-0.6-0.6v-0.7c0-0.3,0.3-0.6,0.6-0.6h1.7c0.3,0,0.6,0.3,0.6,0.6v0.7
											C78,126.1,77.8,126.4,77.5,126.4z"/>
										<path class="st25" d="M77.5,129.3h-1.7c-0.3,0-0.6-0.3-0.6-0.6V128c0-0.3,0.3-0.6,0.6-0.6h1.7c0.3,0,0.6,0.3,0.6,0.6v0.7
											C78,129.1,77.8,129.3,77.5,129.3z"/>
										<path class="st25" d="M77.5,132.3h-1.7c-0.3,0-0.6-0.3-0.6-0.6V131c0-0.3,0.3-0.6,0.6-0.6h1.7c0.3,0,0.6,0.3,0.6,0.6v0.7
											C78,132,77.8,132.3,77.5,132.3z"/>
										<path class="st25" d="M77.5,135.2h-1.7c-0.3,0-0.6-0.3-0.6-0.6v-0.7c0-0.3,0.3-0.6,0.6-0.6h1.7c0.3,0,0.6,0.3,0.6,0.6v0.7
											C78,135,77.8,135.2,77.5,135.2z"/>
										<path class="st25" d="M77.5,138.2h-1.7c-0.3,0-0.6-0.3-0.6-0.6v-0.7c0-0.3,0.3-0.6,0.6-0.6h1.7c0.3,0,0.6,0.3,0.6,0.6v0.7
											C78,137.9,77.8,138.2,77.5,138.2z"/>
										<path class="st25" d="M77.5,141.1h-1.7c-0.3,0-0.6-0.3-0.6-0.6v-0.7c0-0.3,0.3-0.6,0.6-0.6h1.7c0.3,0,0.6,0.3,0.6,0.6v0.7
											C78,140.9,77.8,141.1,77.5,141.1z"/>
									</g>
									<g>
										<path class="st25" d="M80.6,110.4h-1.7c-0.3,0-0.6-0.3-0.6-0.6v-0.7c0-0.3,0.3-0.6,0.6-0.6h1.7c0.3,0,0.6,0.3,0.6,0.6v0.7
											C81.1,110.2,80.9,110.4,80.6,110.4z"/>
										<path class="st25" d="M80.6,113.4h-1.7c-0.3,0-0.6-0.3-0.6-0.6v-0.7c0-0.3,0.3-0.6,0.6-0.6h1.7c0.3,0,0.6,0.3,0.6,0.6v0.7
											C81.1,113.1,80.9,113.4,80.6,113.4z"/>
										<path class="st25" d="M80.6,116.3h-1.7c-0.3,0-0.6-0.3-0.6-0.6v-0.7c0-0.3,0.3-0.6,0.6-0.6h1.7c0.3,0,0.6,0.3,0.6,0.6v0.7
											C81.1,116.1,80.9,116.3,80.6,116.3z"/>
										<path class="st25" d="M80.6,119.3h-1.7c-0.3,0-0.6-0.3-0.6-0.6V118c0-0.3,0.3-0.6,0.6-0.6h1.7c0.3,0,0.6,0.3,0.6,0.6v0.7
											C81.1,119,80.9,119.3,80.6,119.3z"/>
										<path class="st25" d="M80.6,122.2h-1.7c-0.3,0-0.6-0.3-0.6-0.6v-0.7c0-0.3,0.3-0.6,0.6-0.6h1.7c0.3,0,0.6,0.3,0.6,0.6v0.7
											C81.1,122,80.9,122.2,80.6,122.2z"/>
										<path class="st25" d="M80.6,125.2h-1.7c-0.3,0-0.6-0.3-0.6-0.6v-0.7c0-0.3,0.3-0.6,0.6-0.6h1.7c0.3,0,0.6,0.3,0.6,0.6v0.7
											C81.1,124.9,80.9,125.2,80.6,125.2z"/>
										<path class="st25" d="M80.6,128.1h-1.7c-0.3,0-0.6-0.3-0.6-0.6v-0.7c0-0.3,0.3-0.6,0.6-0.6h1.7c0.3,0,0.6,0.3,0.6,0.6v0.7
											C81.1,127.9,80.9,128.1,80.6,128.1z"/>
										<path class="st25" d="M80.6,131.1h-1.7c-0.3,0-0.6-0.3-0.6-0.6v-0.7c0-0.3,0.3-0.6,0.6-0.6h1.7c0.3,0,0.6,0.3,0.6,0.6v0.7
											C81.1,130.8,80.9,131.1,80.6,131.1z"/>
										<path class="st25" d="M80.6,134h-1.7c-0.3,0-0.6-0.3-0.6-0.6v-0.7c0-0.3,0.3-0.6,0.6-0.6h1.7c0.3,0,0.6,0.3,0.6,0.6v0.7
											C81.1,133.8,80.9,134,80.6,134z"/>
										<path class="st25" d="M80.6,137h-1.7c-0.3,0-0.6-0.3-0.6-0.6v-0.7c0-0.3,0.3-0.6,0.6-0.6h1.7c0.3,0,0.6,0.3,0.6,0.6v0.7
											C81.1,136.7,80.9,137,80.6,137z"/>
										<path class="st25" d="M80.6,139.9h-1.7c-0.3,0-0.6-0.3-0.6-0.6v-0.7c0-0.3,0.3-0.6,0.6-0.6h1.7c0.3,0,0.6,0.3,0.6,0.6v0.7
											C81.1,139.7,80.9,139.9,80.6,139.9z"/>
										<path class="st25" d="M80.6,142.9h-1.7c-0.3,0-0.6-0.3-0.6-0.6v-0.7c0-0.3,0.3-0.6,0.6-0.6h1.7c0.3,0,0.6,0.3,0.6,0.6v0.7
											C81.1,142.6,80.9,142.9,80.6,142.9z"/>
									</g>
									<g>
										<path class="st25" d="M70.9,108.5h-1.7c-0.3,0-0.6-0.3-0.6-0.6v-0.7c0-0.3,0.3-0.6,0.6-0.6h1.7c0.3,0,0.6,0.3,0.6,0.6v0.7
											C71.4,108.3,71.2,108.5,70.9,108.5z"/>
										<path class="st25" d="M70.9,111.5h-1.7c-0.3,0-0.6-0.3-0.6-0.6v-0.7c0-0.3,0.3-0.6,0.6-0.6h1.7c0.3,0,0.6,0.3,0.6,0.6v0.7
											C71.4,111.2,71.2,111.5,70.9,111.5z"/>
										<path class="st25" d="M70.9,114.4h-1.7c-0.3,0-0.6-0.3-0.6-0.6v-0.7c0-0.3,0.3-0.6,0.6-0.6h1.7c0.3,0,0.6,0.3,0.6,0.6v0.7
											C71.4,114.2,71.2,114.4,70.9,114.4z"/>
										<path class="st25" d="M70.9,117.4h-1.7c-0.3,0-0.6-0.3-0.6-0.6v-0.7c0-0.3,0.3-0.6,0.6-0.6h1.7c0.3,0,0.6,0.3,0.6,0.6v0.7
											C71.4,117.1,71.2,117.4,70.9,117.4z"/>
										<path class="st25" d="M70.9,120.3h-1.7c-0.3,0-0.6-0.3-0.6-0.6V119c0-0.3,0.3-0.6,0.6-0.6h1.7c0.3,0,0.6,0.3,0.6,0.6v0.7
											C71.4,120.1,71.2,120.3,70.9,120.3z"/>
										<path class="st25" d="M70.9,123.3h-1.7c-0.3,0-0.6-0.3-0.6-0.6V122c0-0.3,0.3-0.6,0.6-0.6h1.7c0.3,0,0.6,0.3,0.6,0.6v0.7
											C71.4,123,71.2,123.3,70.9,123.3z"/>
										<path class="st25" d="M70.9,126.2h-1.7c-0.3,0-0.6-0.3-0.6-0.6v-0.7c0-0.3,0.3-0.6,0.6-0.6h1.7c0.3,0,0.6,0.3,0.6,0.6v0.7
											C71.4,126,71.2,126.2,70.9,126.2z"/>
										<path class="st25" d="M70.9,129.2h-1.7c-0.3,0-0.6-0.3-0.6-0.6v-0.7c0-0.3,0.3-0.6,0.6-0.6h1.7c0.3,0,0.6,0.3,0.6,0.6v0.7
											C71.4,128.9,71.2,129.2,70.9,129.2z"/>
										<path class="st25" d="M70.9,132.1h-1.7c-0.3,0-0.6-0.3-0.6-0.6v-0.7c0-0.3,0.3-0.6,0.6-0.6h1.7c0.3,0,0.6,0.3,0.6,0.6v0.7
											C71.4,131.9,71.2,132.1,70.9,132.1z"/>
										<path class="st25" d="M70.9,135.1h-1.7c-0.3,0-0.6-0.3-0.6-0.6v-0.7c0-0.3,0.3-0.6,0.6-0.6h1.7c0.3,0,0.6,0.3,0.6,0.6v0.7
											C71.4,134.8,71.2,135.1,70.9,135.1z"/>
										<path class="st25" d="M70.9,138h-1.7c-0.3,0-0.6-0.3-0.6-0.6v-0.7c0-0.3,0.3-0.6,0.6-0.6h1.7c0.3,0,0.6,0.3,0.6,0.6v0.7
											C71.4,137.8,71.2,138,70.9,138z"/>
										<path class="st25" d="M70.9,141h-1.7c-0.3,0-0.6-0.3-0.6-0.6v-0.7c0-0.3,0.3-0.6,0.6-0.6h1.7c0.3,0,0.6,0.3,0.6,0.6v0.7
											C71.4,140.7,71.2,141,70.9,141z"/>
									</g>
									<g>
										<path class="st25" d="M67.8,109.9h-1.7c-0.3,0-0.6-0.3-0.6-0.6v-0.7c0-0.3,0.3-0.6,0.6-0.6h1.7c0.3,0,0.6,0.3,0.6,0.6v0.7
											C68.4,109.7,68.1,109.9,67.8,109.9z"/>
										<path class="st25" d="M67.8,112.9h-1.7c-0.3,0-0.6-0.3-0.6-0.6v-0.7c0-0.3,0.3-0.6,0.6-0.6h1.7c0.3,0,0.6,0.3,0.6,0.6v0.7
											C68.4,112.6,68.1,112.9,67.8,112.9z"/>
										<path class="st25" d="M67.8,115.8h-1.7c-0.3,0-0.6-0.3-0.6-0.6v-0.7c0-0.3,0.3-0.6,0.6-0.6h1.7c0.3,0,0.6,0.3,0.6,0.6v0.7
											C68.4,115.6,68.1,115.8,67.8,115.8z"/>
										<path class="st25" d="M67.8,118.8h-1.7c-0.3,0-0.6-0.3-0.6-0.6v-0.7c0-0.3,0.3-0.6,0.6-0.6h1.7c0.3,0,0.6,0.3,0.6,0.6v0.7
											C68.4,118.5,68.1,118.8,67.8,118.8z"/>
										<path class="st25" d="M67.8,121.7h-1.7c-0.3,0-0.6-0.3-0.6-0.6v-0.7c0-0.3,0.3-0.6,0.6-0.6h1.7c0.3,0,0.6,0.3,0.6,0.6v0.7
											C68.4,121.5,68.1,121.7,67.8,121.7z"/>
										<path class="st25" d="M67.8,124.7h-1.7c-0.3,0-0.6-0.3-0.6-0.6v-0.7c0-0.3,0.3-0.6,0.6-0.6h1.7c0.3,0,0.6,0.3,0.6,0.6v0.7
											C68.4,124.4,68.1,124.7,67.8,124.7z"/>
										<path class="st25" d="M67.8,127.6h-1.7c-0.3,0-0.6-0.3-0.6-0.6v-0.7c0-0.3,0.3-0.6,0.6-0.6h1.7c0.3,0,0.6,0.3,0.6,0.6v0.7
											C68.4,127.4,68.1,127.6,67.8,127.6z"/>
										<path class="st25" d="M67.8,130.6h-1.7c-0.3,0-0.6-0.3-0.6-0.6v-0.7c0-0.3,0.3-0.6,0.6-0.6h1.7c0.3,0,0.6,0.3,0.6,0.6v0.7
											C68.4,130.3,68.1,130.6,67.8,130.6z"/>
										<path class="st25" d="M67.8,133.5h-1.7c-0.3,0-0.6-0.3-0.6-0.6v-0.7c0-0.3,0.3-0.6,0.6-0.6h1.7c0.3,0,0.6,0.3,0.6,0.6v0.7
											C68.4,133.3,68.1,133.5,67.8,133.5z"/>
										<path class="st25" d="M67.8,136.5h-1.7c-0.3,0-0.6-0.3-0.6-0.6v-0.7c0-0.3,0.3-0.6,0.6-0.6h1.7c0.3,0,0.6,0.3,0.6,0.6v0.7
											C68.4,136.2,68.1,136.5,67.8,136.5z"/>
										<path class="st25" d="M67.8,139.4h-1.7c-0.3,0-0.6-0.3-0.6-0.6v-0.7c0-0.3,0.3-0.6,0.6-0.6h1.7c0.3,0,0.6,0.3,0.6,0.6v0.7
											C68.4,139.2,68.1,139.4,67.8,139.4z"/>
										<path class="st25" d="M67.8,142.4h-1.7c-0.3,0-0.6-0.3-0.6-0.6v-0.7c0-0.3,0.3-0.6,0.6-0.6h1.7c0.3,0,0.6,0.3,0.6,0.6v0.7
											C68.4,142.1,68.1,142.4,67.8,142.4z"/>
									</g>
								</g>
							</g>
						</g>
					</g>
				</g>
				<path class="st17" d="M72,138.2c-2.1,0.3-4.1-2-4.5-5c-0.3-2.4-0.1-18.8,0.1-25.8c0-1.7,0.4-1.8,0.9-0.1
					c1.9,6.8,6.3,22.6,6.6,25C75.4,135.3,74,137.9,72,138.2z"/>
				
					<linearGradient id="SVGID_13_" gradientUnits="userSpaceOnUse" x1="65.1985" y1="-2580.2124" x2="72.6252" y2="-2581.791" gradientTransform="matrix(1 0 0 1 0 2706.2856)">
					<stop  offset="0.4485" style="stop-color:#B6D13F"/>
					<stop  offset="0.4667" style="stop-color:#CDDD48"/>
				</linearGradient>
				<path class="st26" d="M72.2,141.2c-2.1,0.4-4.2-1.7-4.8-4.7c-0.5-2.4-1.4-18.8-1.8-25.8c-0.1-1.7,0.3-1.8,0.9-0.2
					c2.4,6.6,7.9,22.1,8.4,24.4C75.5,138,74.3,140.8,72.2,141.2z"/>
				<g>
					
						<image style="overflow:visible;opacity:0.75;enable-background:new    ;" width="505" height="1449" xlink:href="56812627F1088663.png"  transform="matrix(2.341510e-02 0 0 2.357065e-02 64.029 108.2111)">
					</image>
					<g>
						<path class="st17" d="M71.9,141.3c-2.1,0.4-4.2-1.7-4.8-4.7c-0.5-2.4-1.4-18.8-1.8-25.8c-0.1-1.7,0.3-1.8,0.9-0.2
							c2.4,6.6,7.9,22.1,8.4,24.4C75.1,138.1,73.9,140.8,71.9,141.3z"/>
					</g>
				</g>
				
					<linearGradient id="SVGID_14_" gradientUnits="userSpaceOnUse" x1="3696.2427" y1="-2580.2122" x2="3703.6794" y2="-2581.793" gradientTransform="matrix(-1 0 0 1 3777.6667 2706.2856)">
					<stop  offset="0.4485" style="stop-color:#B6D13F"/>
					<stop  offset="0.4667" style="stop-color:#CDDD48"/>
				</linearGradient>
				<path class="st27" d="M74.4,141.2c2.1,0.4,4.2-1.7,4.8-4.7c0.5-2.4,1.4-18.8,1.8-25.8c0.1-1.7-0.3-1.8-0.9-0.2
					c-2.4,6.6-7.9,22.1-8.4,24.4C71.2,138,72.3,140.8,74.4,141.2z"/>
				<path class="st17" d="M74.7,138.2c2.1,0.3,4.1-2,4.5-5c0.3-2.4,0.1-18.8-0.1-25.8c0-1.7-0.4-1.8-0.9-0.1
					c-1.9,6.8-6.3,22.6-6.6,25C71.2,135.3,72.6,137.9,74.7,138.2z"/>
				<g>
					
						<image style="overflow:visible;opacity:0.75;enable-background:new    ;" width="500" height="1435" xlink:href="56812627F108866C.png"  transform="matrix(2.364669e-02 0 0 2.361552e-02 70.7897 108.3439)">
					</image>
					<g>
						<path class="st17" d="M74.7,141.3c2.1,0.4,4.2-1.7,4.8-4.7c0.5-2.4,1.4-18.8,1.8-25.8c0.1-1.7-0.3-1.8-0.9-0.2
							c-2.4,6.6-7.9,22.1-8.4,24.4C71.5,138.1,72.7,140.8,74.7,141.3z"/>
					</g>
				</g>
			</g>
		</g>
	</g>
	<g>
		<path class="st28" d="M281.5,140.9h-0.7v1.9h-0.6v-1.9h-0.7v-0.5h2V140.9L281.5,140.9z M284.6,142.8H284v-1.9h0l-0.7,1.9H283
			l-0.7-1.9h0v1.9h-0.5v-2.4h0.8l0.5,1.4l0.5-1.4h0.8L284.6,142.8L284.6,142.8z"/>
	</g>
</g>
</svg>
