<?xml version="1.0" encoding="utf-8"?>
<!-- Generator: Adobe Illustrator 22.0.1, SVG Export Plug-In . SVG Version: 6.00 Build 0)  -->
<svg version="1.1" id="Layer_1" xmlns="http://www.w3.org/2000/svg" xmlns:xlink="http://www.w3.org/1999/xlink" x="0px" y="0px"
	 viewBox="0 0 300 250" style="enable-background:new 0 0 300 250;" xml:space="preserve">
<style type="text/css">
	.st0{fill:#00ADEE;}
	.st1{fill:#404041;}
	.st2{fill:#FFFFFF;}
</style>
<rect y="0" class="st0" width="300" height="250"/>
<g>
	<g>
		<path class="st0" d="M68.7,216.1c-0.5,1.1-1.2,2.1-2,2.9c-0.8,0.8-1.8,1.5-2.9,1.9s-2.4,0.7-3.8,0.7c-1.5,0-2.9-0.3-4.1-0.9
			c-1.2-0.6-2.3-1.4-3.2-2.4c-0.9-1-1.6-2.2-2.1-3.6c-0.5-1.4-0.8-3-0.8-4.6c0-1.4,0.2-2.8,0.6-4.2c0.4-1.4,1-2.7,1.8-3.9
			c0.8-1.2,1.9-2.1,3.3-2.8c1.3-0.7,3-1.1,4.9-1.1c1.5,0,2.8,0.2,3.9,0.7c1.1,0.5,2,1.1,2.8,1.9c0.7,0.7,1.3,1.5,1.7,2.4
			c0.4,0.8,0.6,1.6,0.6,2.3h-0.6c-0.1-0.8-0.3-1.6-0.7-2.4c-0.4-0.8-1-1.5-1.7-2.1c-0.7-0.6-1.6-1.1-2.6-1.5c-1-0.4-2.1-0.6-3.3-0.6
			c-1.8,0-3.4,0.4-4.7,1.1c-1.3,0.7-2.3,1.7-3.1,2.8c-0.8,1.1-1.3,2.3-1.7,3.7c-0.3,1.3-0.5,2.6-0.5,3.7c0,1.4,0.2,2.8,0.6,4.1
			c0.4,1.3,1,2.5,1.9,3.5c0.8,1,1.8,1.8,3,2.4c1.2,0.6,2.5,0.9,4,0.9c1.3,0,2.5-0.2,3.6-0.7c1.1-0.4,2-1,2.8-1.8
			c0.8-0.8,1.4-1.7,1.9-2.8c0.5-1.1,0.8-2.2,1-3.5h0.6C69.6,213.7,69.2,214.9,68.7,216.1z"/>
		<path class="st0" d="M71.5,209.9c0-1.6,0.2-3.1,0.7-4.5c0.5-1.4,1.1-2.7,2-3.7c0.9-1.1,2-1.9,3.2-2.5c1.3-0.6,2.8-0.9,4.5-0.9
			c1.7,0,3.2,0.3,4.5,0.9c1.3,0.6,2.4,1.5,3.2,2.5c0.9,1.1,1.5,2.3,2,3.7c0.5,1.4,0.7,2.9,0.7,4.5c0,1.6-0.2,3.1-0.7,4.5
			c-0.5,1.4-1.1,2.7-2,3.7c-0.9,1.1-2,1.9-3.2,2.5c-1.3,0.6-2.8,0.9-4.5,0.9c-1.7,0-3.2-0.3-4.5-0.9c-1.3-0.6-2.4-1.5-3.2-2.5
			c-0.9-1.1-1.5-2.3-2-3.7C71.7,213,71.5,211.5,71.5,209.9z M72.1,209.9c0,1.6,0.3,3.1,0.7,4.5c0.5,1.4,1.1,2.5,1.9,3.5
			c0.8,1,1.8,1.8,3,2.3c1.2,0.6,2.5,0.8,4.1,0.8c1.5,0,2.9-0.3,4.1-0.8c1.2-0.6,2.2-1.3,3-2.3c0.8-1,1.5-2.2,1.9-3.5
			c0.5-1.4,0.7-2.9,0.7-4.5c0-1.6-0.3-3.1-0.7-4.5c-0.5-1.4-1.1-2.5-1.9-3.5c-0.8-1-1.8-1.8-3-2.3c-1.2-0.6-2.5-0.8-4.1-0.8
			c-1.5,0-2.9,0.3-4.1,0.8c-1.2,0.6-2.2,1.3-3,2.3c-0.8,1-1.5,2.2-1.9,3.5C72.4,206.8,72.1,208.3,72.1,209.9z"/>
		<path class="st0" d="M102.7,198.6c1.1,0,2.2,0.2,3.4,0.5c1.1,0.3,2.2,0.9,3.1,1.8c0.9,0.8,1.7,2,2.2,3.4c0.6,1.4,0.9,3.3,0.9,5.5
			c0,2-0.3,3.7-0.9,5.2c-0.6,1.4-1.4,2.6-2.4,3.5c-1,0.9-2.1,1.5-3.4,2c-1.3,0.4-2.6,0.6-3.9,0.6h-6.9v-22.5H102.7z M101.9,220.5
			c1.3,0,2.6-0.2,3.8-0.6c1.2-0.4,2.2-1.1,3.1-2c0.9-0.9,1.6-2,2.1-3.3c0.5-1.3,0.8-2.9,0.8-4.7c0-2.1-0.3-3.8-0.8-5.2
			c-0.5-1.4-1.2-2.4-2.1-3.3c-0.9-0.8-1.8-1.4-2.9-1.7c-1.1-0.3-2.2-0.5-3.3-0.5h-7.1v21.2H101.9z"/>
		<path class="st0" d="M130.3,220.5v0.6h-15v-22.5h14.9v0.6h-14.3v9.8h13.4v0.6h-13.4v10.8H130.3z"/>
		<path class="st0" d="M156.4,221.1l-2.8-3.6c-0.6,1.2-1.5,2.1-2.6,2.9c-1.1,0.8-2.4,1.2-4,1.2c-0.8,0-1.6-0.1-2.3-0.4
			c-0.8-0.3-1.5-0.6-2.1-1.1c-0.6-0.5-1.1-1-1.5-1.7s-0.6-1.5-0.6-2.3c0-0.9,0.2-1.7,0.6-2.5s0.9-1.4,1.4-2c0.6-0.6,1.2-1.1,2-1.6
			c0.7-0.5,1.4-0.9,2.1-1.3c-0.3-0.4-0.7-0.9-1-1.4c-0.4-0.5-0.7-1-1.1-1.4c-0.3-0.5-0.6-1-0.9-1.5c-0.2-0.5-0.3-1-0.3-1.6
			c0-0.7,0.1-1.4,0.4-1.9c0.3-0.5,0.6-1,1.1-1.3c0.4-0.3,0.9-0.6,1.5-0.8c0.5-0.2,1.1-0.3,1.7-0.3c0.6,0,1.2,0.1,1.8,0.3
			c0.6,0.2,1,0.5,1.5,0.8c0.4,0.4,0.7,0.8,1,1.3c0.2,0.5,0.4,1.1,0.4,1.8c0,0.8-0.2,1.4-0.5,2s-0.7,1.1-1.2,1.6
			c-0.5,0.5-1,0.9-1.6,1.3c-0.6,0.4-1.1,0.8-1.6,1.2l5.9,7.5c0.2-0.5,0.4-1,0.6-1.7c0.2-0.7,0.2-1.4,0.2-2.3h0.6
			c0,0.9-0.1,1.8-0.2,2.4c-0.2,0.7-0.4,1.4-0.7,2.1l3.3,4.2H156.4z M145,210.5c-0.7,0.4-1.3,0.9-1.9,1.5c-0.6,0.5-1,1.1-1.4,1.8
			c-0.4,0.7-0.5,1.4-0.5,2.3c0,0.8,0.2,1.5,0.5,2.1c0.3,0.6,0.8,1.1,1.3,1.6c0.5,0.4,1.2,0.7,1.9,0.9c0.7,0.2,1.4,0.3,2.1,0.3
			c1.5,0,2.8-0.4,3.8-1.1c1-0.8,1.8-1.7,2.4-2.9l-6.2-7.7C146.4,209.6,145.7,210,145,210.5z M144.1,203.8c0.1,0.4,0.3,0.7,0.6,1.2
			c0.3,0.4,0.6,0.9,1,1.5c0.4,0.5,0.9,1.2,1.5,1.9c0.4-0.3,0.9-0.7,1.5-1s1.1-0.8,1.5-1.2c0.5-0.5,0.9-0.9,1.2-1.5
			c0.3-0.5,0.5-1.1,0.5-1.8c0-0.5-0.1-1-0.3-1.5c-0.2-0.4-0.5-0.8-0.9-1.1c-0.4-0.3-0.8-0.5-1.3-0.7c-0.5-0.2-1-0.3-1.5-0.3
			c-0.5,0-1.1,0.1-1.5,0.2c-0.5,0.2-0.9,0.4-1.3,0.7c-0.4,0.3-0.7,0.7-0.9,1.1c-0.2,0.4-0.3,0.9-0.3,1.5
			C143.9,203.1,144,203.5,144.1,203.8z"/>
		<path class="st0" d="M188.8,198.6v22.5h-0.6v-21.7h-0.1l-9.5,21.7h-0.7l-9.5-21.7h-0.1v21.7h-0.6v-22.5h1l9.5,21.6h0.1l9.5-21.6
			H188.8z"/>
		<path class="st0" d="M207.3,220.5v0.6h-15v-22.5h14.9v0.6h-14.3v9.8h13.4v0.6h-13.4v10.8H207.3z"/>
		<path class="st0" d="M217,198.6c1.1,0,2.2,0.2,3.4,0.5c1.1,0.3,2.2,0.9,3.1,1.8c0.9,0.8,1.7,2,2.2,3.4c0.6,1.4,0.9,3.3,0.9,5.5
			c0,2-0.3,3.7-0.9,5.2c-0.6,1.4-1.4,2.6-2.4,3.5c-1,0.9-2.1,1.5-3.4,2c-1.3,0.4-2.6,0.6-3.9,0.6h-6.9v-22.5H217z M216.2,220.5
			c1.3,0,2.6-0.2,3.8-0.6c1.2-0.4,2.2-1.1,3.1-2c0.9-0.9,1.6-2,2.1-3.3c0.5-1.3,0.8-2.9,0.8-4.7c0-2.1-0.3-3.8-0.8-5.2
			c-0.5-1.4-1.2-2.4-2.1-3.3c-0.9-0.8-1.8-1.4-2.9-1.7c-1.1-0.3-2.2-0.5-3.3-0.5h-7.1v21.2H216.2z"/>
		<path class="st0" d="M230.1,198.6v22.5h-0.6v-22.5H230.1z"/>
		<path class="st0" d="M232.2,221.1h-0.7l9.1-22.5h0.8l8.9,22.5h-0.7l-3-7.4h-11.5L232.2,221.1z M241,199.3L241,199.3l-5.6,13.8
			h10.9L241,199.3z"/>
	</g>
	<g>
		<circle class="st1" cx="150" cy="108.7" r="79.8"/>
		<g>
			<path class="st2" d="M150.3,116.4c0,1.3,0.1,2.4,0.2,3.6c0.2,1.1,0.4,2.1,0.8,3c0.4,0.9,0.9,1.5,1.6,2c0.7,0.5,1.6,0.7,2.8,0.7
				v1.2c-0.9,0.2-1.7,0.1-2.4-0.1c-0.7-0.2-1.4-0.6-1.9-1.1c-0.6-0.5-1.1-1.1-1.4-1.8c-0.4-0.7-0.7-1.5-0.9-2.2
				c-0.8,1.3-1.7,2.3-2.6,3c-1,0.7-2,1.3-3,1.7c-1.1,0.4-2.1,0.7-3.3,0.8c-1.1,0.1-2.2,0.2-3.3,0.2c-2.6,0-4.8-0.3-6.7-0.9
				c-1.9-0.6-3.4-1.3-4.7-2.3c-1.2-1-2.1-2.1-2.7-3.5c-0.6-1.4-0.9-2.8-0.9-4.4c0-1.4,0.3-2.6,0.8-3.8c0.5-1.1,1.2-2.1,2-3
				c0.8-0.9,1.8-1.6,2.8-2.2c1-0.6,2.1-1.1,3.1-1.4c-1.1-0.3-2.1-0.8-3.1-1.4c-1-0.6-1.8-1.3-2.6-2.1c-0.7-0.8-1.3-1.8-1.8-2.8
				c-0.4-1-0.6-2.2-0.6-3.4c0-1.5,0.3-2.8,0.9-4.1c0.6-1.3,1.4-2.4,2.6-3.4c1.2-1,2.7-1.7,4.5-2.3c1.8-0.6,4-0.9,6.4-0.9
				c1.6,0,3.2,0.1,4.7,0.4c1.6,0.2,2.9,0.7,4.1,1.4c1.2,0.7,2.1,1.7,2.9,3c0.7,1.3,1.1,3,1.1,5.1h-1.6c0-1.8-0.3-3.2-0.9-4.3
				c-0.6-1.1-1.5-1.9-2.5-2.5c-1-0.6-2.2-1-3.6-1.1c-1.4-0.2-2.8-0.3-4.2-0.3c-4.2,0-7.3,0.8-9.4,2.5c-2.1,1.7-3.1,3.8-3.1,6.4
				c0,1.7,0.5,3.1,1.3,4.2c0.8,1.1,1.8,2.1,3.1,2.8c1.2,0.7,2.6,1.2,4.1,1.5c1.5,0.3,2.9,0.4,4.3,0.4h17.1v1.6h-3.9V116.4z
				 M148.9,106.7H137c-2.2,0-4.1,0.3-5.8,0.9c-1.6,0.6-3,1.3-4.1,2.2c-1.1,0.9-1.9,1.9-2.5,3.1c-0.6,1.1-0.9,2.3-0.9,3.5
				c0,1.4,0.2,2.6,0.7,3.8c0.5,1.2,1.3,2.1,2.3,3c1.1,0.8,2.4,1.5,4.1,1.9c1.6,0.5,3.6,0.7,5.9,0.7c1.3,0,2.7-0.1,4.1-0.4
				c1.4-0.3,2.7-0.7,3.9-1.4c1.2-0.7,2.1-1.6,2.9-2.9c0.8-1.2,1.1-2.8,1.1-4.7V106.7z"/>
			<path class="st2" d="M197,126.9v-1.8h5.6v-37l-16.6,26h-0.5l-16.8-25.9v36.9h5.7v1.8h-13.3v-1.8h5.7V87.4h-5.6v-1.8h8.1
				l16.5,25.6l16.2-25.6h8.3v1.8h-5.7v37.7h5.8v1.8H197z"/>
		</g>
		<g>
			<g>
				<path class="st0" d="M91.3,105.6c3.5-0.8,6.2-1.8,8.2-3.1c2-1.3,3.3-2.8,3.9-4.4c0.7-1.6,1-3.3,1-4.9V75.9c0-6,4.1-10,12.5-11.8
					c8.3-1.8,19.3-2.2,33.1-1v2.8c-5-0.4-9.7-0.6-14.1-0.6c-4.4,0-8.1,0.4-11.3,1.1c-3.2,0.7-5.7,1.8-7.5,3.3
					c-1.9,1.5-2.8,3.6-2.8,6.3v17.3c0,1.4-0.1,2.9-0.3,4.5c-0.2,1.5-1,3-2.5,4.4c-1.4,1.4-3.7,2.6-6.7,3.7
					c-3.1,1.1-7.3,1.9-12.8,2.4c5.5,0.4,9.7,1.2,12.8,2.3c3.1,1.1,5.3,2.3,6.7,3.7c1.4,1.4,2.2,2.9,2.5,4.5c0.2,1.6,0.3,3.1,0.3,4.4
					v16.4c0,2.7,0.9,4.7,2.8,6.3c1.9,1.5,4.4,2.6,7.5,3.2c3.2,0.6,6.9,1,11.3,1c4.4,0,9.1-0.2,14.1-0.6v3c-13.8,1.2-24.8,0.8-33.1-1
					c-8.3-1.8-12.5-5.8-12.5-11.8v-16.4c0-1.6-0.3-3.2-1-4.8c-0.7-1.6-2-3.1-3.9-4.4c-2-1.3-4.7-2.3-8.2-3.1
					c-3.5-0.8-8-1.2-13.4-1.2v-2.8C83.3,106.8,87.8,106.4,91.3,105.6z"/>
			</g>
			<g>
				<rect x="146.7" y="63.3" class="st0" width="3.3" height="18.8"/>
			</g>
			<g>
				<rect x="146.7" y="132.6" class="st0" width="3.3" height="18.8"/>
			</g>
		</g>
		<circle class="st1" cx="150" cy="108.7" r="79.8"/>
		<g>
			<path class="st2" d="M150.3,116.4c0,1.3,0.1,2.4,0.2,3.6c0.2,1.1,0.4,2.1,0.8,3c0.4,0.9,0.9,1.5,1.6,2c0.7,0.5,1.6,0.7,2.8,0.7
				v1.2c-0.9,0.2-1.7,0.1-2.4-0.1c-0.7-0.2-1.4-0.6-1.9-1.1c-0.6-0.5-1.1-1.1-1.4-1.8c-0.4-0.7-0.7-1.5-0.9-2.2
				c-0.8,1.3-1.7,2.3-2.6,3c-1,0.7-2,1.3-3,1.7c-1.1,0.4-2.1,0.7-3.3,0.8c-1.1,0.1-2.2,0.2-3.3,0.2c-2.6,0-4.8-0.3-6.7-0.9
				c-1.9-0.6-3.4-1.3-4.7-2.3c-1.2-1-2.1-2.1-2.7-3.5c-0.6-1.4-0.9-2.8-0.9-4.4c0-1.4,0.3-2.6,0.8-3.8c0.5-1.1,1.2-2.1,2-3
				c0.8-0.9,1.8-1.6,2.8-2.2c1-0.6,2.1-1.1,3.1-1.4c-1.1-0.3-2.1-0.8-3.1-1.4c-1-0.6-1.8-1.3-2.6-2.1c-0.7-0.8-1.3-1.8-1.8-2.8
				c-0.4-1-0.6-2.2-0.6-3.4c0-1.5,0.3-2.8,0.9-4.1c0.6-1.3,1.4-2.4,2.6-3.4c1.2-1,2.7-1.7,4.5-2.3c1.8-0.6,4-0.9,6.4-0.9
				c1.6,0,3.2,0.1,4.7,0.4c1.6,0.2,2.9,0.7,4.1,1.4c1.2,0.7,2.1,1.7,2.9,3c0.7,1.3,1.1,3,1.1,5.1h-1.6c0-1.8-0.3-3.2-0.9-4.3
				c-0.6-1.1-1.5-1.9-2.5-2.5c-1-0.6-2.2-1-3.6-1.1c-1.4-0.2-2.8-0.3-4.2-0.3c-4.2,0-7.3,0.8-9.4,2.5c-2.1,1.7-3.1,3.8-3.1,6.4
				c0,1.7,0.5,3.1,1.3,4.2c0.8,1.1,1.8,2.1,3.1,2.8c1.2,0.7,2.6,1.2,4.1,1.5c1.5,0.3,2.9,0.4,4.3,0.4h17.1v1.6h-3.9V116.4z
				 M148.9,106.7H137c-2.2,0-4.1,0.3-5.8,0.9c-1.6,0.6-3,1.3-4.1,2.2c-1.1,0.9-1.9,1.9-2.5,3.1c-0.6,1.1-0.9,2.3-0.9,3.5
				c0,1.4,0.2,2.6,0.7,3.8c0.5,1.2,1.3,2.1,2.3,3c1.1,0.8,2.4,1.5,4.1,1.9c1.6,0.5,3.6,0.7,5.9,0.7c1.3,0,2.7-0.1,4.1-0.4
				c1.4-0.3,2.7-0.7,3.9-1.4c1.2-0.7,2.1-1.6,2.9-2.9c0.8-1.2,1.1-2.8,1.1-4.7V106.7z"/>
			<path class="st2" d="M197,126.9v-1.8h5.6v-37l-16.6,26h-0.5l-16.8-25.9v36.9h5.7v1.8h-13.3v-1.8h5.7V87.4h-5.6v-1.8h8.1
				l16.5,25.6l16.2-25.6h8.3v1.8h-5.7v37.7h5.8v1.8H197z"/>
		</g>
		<g>
			<g>
				<path class="st0" d="M91.3,105.6c3.5-0.8,6.2-1.8,8.2-3.1c2-1.3,3.3-2.8,3.9-4.4c0.7-1.6,1-3.3,1-4.9V75.9c0-6,4.1-10,12.5-11.8
					c8.3-1.8,19.3-2.2,33.1-1v2.8c-5-0.4-9.7-0.6-14.1-0.6c-4.4,0-8.1,0.4-11.3,1.1c-3.2,0.7-5.7,1.8-7.5,3.3
					c-1.9,1.5-2.8,3.6-2.8,6.3v17.3c0,1.4-0.1,2.9-0.3,4.5c-0.2,1.5-1,3-2.5,4.4c-1.4,1.4-3.7,2.6-6.7,3.7
					c-3.1,1.1-7.3,1.9-12.8,2.4c5.5,0.4,9.7,1.2,12.8,2.3c3.1,1.1,5.3,2.3,6.7,3.7c1.4,1.4,2.2,2.9,2.5,4.5c0.2,1.6,0.3,3.1,0.3,4.4
					v16.4c0,2.7,0.9,4.7,2.8,6.3c1.9,1.5,4.4,2.6,7.5,3.2c3.2,0.6,6.9,1,11.3,1c4.4,0,9.1-0.2,14.1-0.6v3c-13.8,1.2-24.8,0.8-33.1-1
					c-8.3-1.8-12.5-5.8-12.5-11.8v-16.4c0-1.6-0.3-3.2-1-4.8c-0.7-1.6-2-3.1-3.9-4.4c-2-1.3-4.7-2.3-8.2-3.1
					c-3.5-0.8-8-1.2-13.4-1.2v-2.8C83.3,106.8,87.8,106.4,91.3,105.6z"/>
			</g>
			<g>
				<rect x="146.7" y="63.3" class="st0" width="3.3" height="18.8"/>
			</g>
			<g>
				<rect x="146.7" y="132.6" class="st0" width="3.3" height="18.8"/>
			</g>
		</g>
	</g>
	<g>
		<path class="st2" d="M68.7,216.1c-0.5,1.1-1.2,2.1-2,2.9c-0.8,0.8-1.8,1.5-2.9,1.9s-2.4,0.7-3.8,0.7c-1.5,0-2.9-0.3-4.1-0.9
			c-1.2-0.6-2.3-1.4-3.2-2.4c-0.9-1-1.6-2.2-2.1-3.6c-0.5-1.4-0.8-3-0.8-4.6c0-1.4,0.2-2.8,0.6-4.2c0.4-1.4,1-2.7,1.8-3.9
			c0.8-1.2,1.9-2.1,3.3-2.8c1.3-0.7,3-1.1,4.9-1.1c1.5,0,2.8,0.2,3.9,0.7c1.1,0.5,2,1.1,2.8,1.9c0.7,0.7,1.3,1.5,1.7,2.4
			c0.4,0.8,0.6,1.6,0.6,2.3h-0.6c-0.1-0.8-0.3-1.6-0.7-2.4c-0.4-0.8-1-1.5-1.7-2.1c-0.7-0.6-1.6-1.1-2.6-1.5c-1-0.4-2.1-0.6-3.3-0.6
			c-1.8,0-3.4,0.4-4.7,1.1c-1.3,0.7-2.3,1.7-3.1,2.8c-0.8,1.1-1.3,2.3-1.7,3.7c-0.3,1.3-0.5,2.6-0.5,3.7c0,1.4,0.2,2.8,0.6,4.1
			c0.4,1.3,1,2.5,1.9,3.5c0.8,1,1.8,1.8,3,2.4c1.2,0.6,2.5,0.9,4,0.9c1.3,0,2.5-0.2,3.6-0.7c1.1-0.4,2-1,2.8-1.8
			c0.8-0.8,1.4-1.7,1.9-2.8c0.5-1.1,0.8-2.2,1-3.5h0.6C69.6,213.7,69.2,214.9,68.7,216.1z"/>
		<path class="st2" d="M71.5,209.9c0-1.6,0.2-3.1,0.7-4.5c0.5-1.4,1.1-2.7,2-3.7c0.9-1.1,2-1.9,3.2-2.5c1.3-0.6,2.8-0.9,4.5-0.9
			c1.7,0,3.2,0.3,4.5,0.9c1.3,0.6,2.4,1.5,3.2,2.5c0.9,1.1,1.5,2.3,2,3.7c0.5,1.4,0.7,2.9,0.7,4.5c0,1.6-0.2,3.1-0.7,4.5
			c-0.5,1.4-1.1,2.7-2,3.7c-0.9,1.1-2,1.9-3.2,2.5c-1.3,0.6-2.8,0.9-4.5,0.9c-1.7,0-3.2-0.3-4.5-0.9c-1.3-0.6-2.4-1.5-3.2-2.5
			c-0.9-1.1-1.5-2.3-2-3.7C71.7,213,71.5,211.5,71.5,209.9z M72.1,209.9c0,1.6,0.3,3.1,0.7,4.5c0.5,1.4,1.1,2.5,1.9,3.5
			c0.8,1,1.8,1.8,3,2.3c1.2,0.6,2.5,0.8,4.1,0.8c1.5,0,2.9-0.3,4.1-0.8c1.2-0.6,2.2-1.3,3-2.3c0.8-1,1.5-2.2,1.9-3.5
			c0.5-1.4,0.7-2.9,0.7-4.5c0-1.6-0.3-3.1-0.7-4.5c-0.5-1.4-1.1-2.5-1.9-3.5c-0.8-1-1.8-1.8-3-2.3c-1.2-0.6-2.5-0.8-4.1-0.8
			c-1.5,0-2.9,0.3-4.1,0.8c-1.2,0.6-2.2,1.3-3,2.3c-0.8,1-1.5,2.2-1.9,3.5C72.4,206.8,72.1,208.3,72.1,209.9z"/>
		<path class="st2" d="M102.7,198.6c1.1,0,2.2,0.2,3.4,0.5c1.1,0.3,2.2,0.9,3.1,1.8c0.9,0.8,1.7,2,2.2,3.4c0.6,1.4,0.9,3.3,0.9,5.5
			c0,2-0.3,3.7-0.9,5.2c-0.6,1.4-1.4,2.6-2.4,3.5c-1,0.9-2.1,1.5-3.4,2c-1.3,0.4-2.6,0.6-3.9,0.6h-6.9v-22.5H102.7z M101.9,220.5
			c1.3,0,2.6-0.2,3.8-0.6c1.2-0.4,2.2-1.1,3.1-2c0.9-0.9,1.6-2,2.1-3.3c0.5-1.3,0.8-2.9,0.8-4.7c0-2.1-0.3-3.8-0.8-5.2
			c-0.5-1.4-1.2-2.4-2.1-3.3c-0.9-0.8-1.8-1.4-2.9-1.7c-1.1-0.3-2.2-0.5-3.3-0.5h-7.1v21.2H101.9z"/>
		<path class="st2" d="M130.3,220.5v0.6h-15v-22.5h14.9v0.6h-14.3v9.8h13.4v0.6h-13.4v10.8H130.3z"/>
		<path class="st2" d="M156.4,221.1l-2.8-3.6c-0.6,1.2-1.5,2.1-2.6,2.9c-1.1,0.8-2.4,1.2-4,1.2c-0.8,0-1.6-0.1-2.3-0.4
			c-0.8-0.3-1.5-0.6-2.1-1.1c-0.6-0.5-1.1-1-1.5-1.7s-0.6-1.5-0.6-2.3c0-0.9,0.2-1.7,0.6-2.5s0.9-1.4,1.4-2c0.6-0.6,1.2-1.1,2-1.6
			c0.7-0.5,1.4-0.9,2.1-1.3c-0.3-0.4-0.7-0.9-1-1.4c-0.4-0.5-0.7-1-1.1-1.4c-0.3-0.5-0.6-1-0.9-1.5c-0.2-0.5-0.3-1-0.3-1.6
			c0-0.7,0.1-1.4,0.4-1.9c0.3-0.5,0.6-1,1.1-1.3c0.4-0.3,0.9-0.6,1.5-0.8c0.5-0.2,1.1-0.3,1.7-0.3c0.6,0,1.2,0.1,1.8,0.3
			c0.6,0.2,1,0.5,1.5,0.8c0.4,0.4,0.7,0.8,1,1.3c0.2,0.5,0.4,1.1,0.4,1.8c0,0.8-0.2,1.4-0.5,2s-0.7,1.1-1.2,1.6
			c-0.5,0.5-1,0.9-1.6,1.3c-0.6,0.4-1.1,0.8-1.6,1.2l5.9,7.5c0.2-0.5,0.4-1,0.6-1.7c0.2-0.7,0.2-1.4,0.2-2.3h0.6
			c0,0.9-0.1,1.8-0.2,2.4c-0.2,0.7-0.4,1.4-0.7,2.1l3.3,4.2H156.4z M145,210.5c-0.7,0.4-1.3,0.9-1.9,1.5c-0.6,0.5-1,1.1-1.4,1.8
			c-0.4,0.7-0.5,1.4-0.5,2.3c0,0.8,0.2,1.5,0.5,2.1c0.3,0.6,0.8,1.1,1.3,1.6c0.5,0.4,1.2,0.7,1.9,0.9c0.7,0.2,1.4,0.3,2.1,0.3
			c1.5,0,2.8-0.4,3.8-1.1c1-0.8,1.8-1.7,2.4-2.9l-6.2-7.7C146.4,209.6,145.7,210,145,210.5z M144.1,203.8c0.1,0.4,0.3,0.7,0.6,1.2
			c0.3,0.4,0.6,0.9,1,1.5c0.4,0.5,0.9,1.2,1.5,1.9c0.4-0.3,0.9-0.7,1.5-1s1.1-0.8,1.5-1.2c0.5-0.5,0.9-0.9,1.2-1.5
			c0.3-0.5,0.5-1.1,0.5-1.8c0-0.5-0.1-1-0.3-1.5c-0.2-0.4-0.5-0.8-0.9-1.1c-0.4-0.3-0.8-0.5-1.3-0.7c-0.5-0.2-1-0.3-1.5-0.3
			c-0.5,0-1.1,0.1-1.5,0.2c-0.5,0.2-0.9,0.4-1.3,0.7c-0.4,0.3-0.7,0.7-0.9,1.1c-0.2,0.4-0.3,0.9-0.3,1.5
			C143.9,203.1,144,203.5,144.1,203.8z"/>
		<path class="st2" d="M188.8,198.6v22.5h-0.6v-21.7h-0.1l-9.5,21.7h-0.7l-9.5-21.7h-0.1v21.7h-0.6v-22.5h1l9.5,21.6h0.1l9.5-21.6
			H188.8z"/>
		<path class="st2" d="M207.3,220.5v0.6h-15v-22.5h14.9v0.6h-14.3v9.8h13.4v0.6h-13.4v10.8H207.3z"/>
		<path class="st2" d="M217,198.6c1.1,0,2.2,0.2,3.4,0.5c1.1,0.3,2.2,0.9,3.1,1.8c0.9,0.8,1.7,2,2.2,3.4c0.6,1.4,0.9,3.3,0.9,5.5
			c0,2-0.3,3.7-0.9,5.2c-0.6,1.4-1.4,2.6-2.4,3.5c-1,0.9-2.1,1.5-3.4,2c-1.3,0.4-2.6,0.6-3.9,0.6h-6.9v-22.5H217z M216.2,220.5
			c1.3,0,2.6-0.2,3.8-0.6c1.2-0.4,2.2-1.1,3.1-2c0.9-0.9,1.6-2,2.1-3.3c0.5-1.3,0.8-2.9,0.8-4.7c0-2.1-0.3-3.8-0.8-5.2
			c-0.5-1.4-1.2-2.4-2.1-3.3c-0.9-0.8-1.8-1.4-2.9-1.7c-1.1-0.3-2.2-0.5-3.3-0.5h-7.1v21.2H216.2z"/>
		<path class="st2" d="M230.1,198.6v22.5h-0.6v-22.5H230.1z"/>
		<path class="st2" d="M232.2,221.1h-0.7l9.1-22.5h0.8l8.9,22.5h-0.7l-3-7.4h-11.5L232.2,221.1z M241,199.3L241,199.3l-5.6,13.8
			h10.9L241,199.3z"/>
	</g>
</g>
</svg>
