<?xml version="1.0" encoding="utf-8"?>
<!-- Generator: Adobe Illustrator 21.1.0, SVG Export Plug-In . SVG Version: 6.00 Build 0)  -->
<svg version="1.1" id="Layer_1" xmlns="http://www.w3.org/2000/svg" xmlns:xlink="http://www.w3.org/1999/xlink" x="0px" y="0px"
	 viewBox="0 0 2564.2 2954.1" style="enable-background:new 0 0 2564.2 2954.1;" xml:space="preserve">
<g>
	<g>
		<path d="M245.7,1826.9c-10.1,35.9-35.5,82-113.1,82c-76.7,0-132.4-61.8-132.4-143.4c0-87.6,55.7-143.8,132.4-143.8
			c26.2,0,46.4,5.2,56.9,10.9v-15.3h51.3v112.7h-51.3v-15.8c0-20.2-20.6-40.8-56.9-40.8c-25.4,0-61,20.6-61,92.1
			c0,66.6,35.5,92.1,61,92.1c41.6,0,61.8-35.9,61.8-41.2L245.7,1826.9z"/>
		<path d="M503.3,1790.1l-14.9,116.3H250.5v-50.5H276v-182.1h-25.4v-50.5H473l25.4,96.1h-50.9c-4.8-20.2-10.1-45.6-40.4-45.6h-65.8
			v61h35.5v-20.6h50.5v91.3h-50.5v-20.2h-35.5v70.7h81.2c14.9,0,25-35.5,30.3-65.8H503.3z"/>
		<path d="M765.4,1765.1c0,81.2-62.6,141.3-138.1,141.3H506.5v-50.9h24.2v-180.9h-24.2v-51.3h120.7
			C708.4,1623.3,765.4,1683.9,765.4,1765.1z M597,1855.5h21c60.2,0,81.2-45.2,81.2-90.5c0-45.6-26.7-90.5-81.2-90.5h-21V1855.5z"/>
		<path d="M904.7,1624.1c0,0,95.3,222.1,100.5,231.8h30.3v50.5H919.2v-50.1h14.9c-4.8-10.1-8.9-20.2-14.1-30.7h-80l-11.3,30.7h14.9
			v50.1H743.1v-50.5h30.3c9.7-30.3,94.9-231.8,94.9-231.8h37.2H904.7z M902.2,1775.2l-23.8-56.1l-22.2,56.1H902.2z"/>
		<path d="M1256.7,1855.9v50.9h-70.3c-10.5-4.8-31.1-20.2-31.1-55.7c0-20.2-15.3-60.6-55.7-65.8v70.7h25.8v50.9h-116.7v-50.9h30.3
			v-182.1h-30.3v-50.5h121.9c65,0,85.2,45.2,85.2,81.2c0,30.3-9.7,50.1-25,65.4c15.3,20.6,25,46,25,75.9c0,10.1,10.5,10.1,10.5,10.1
			H1256.7z M1120.2,1734.8c23.8,0,35.1-14.9,35.1-30.3c0-15.3-10.1-30.7-29.9-30.7h-25.8v61H1120.2z"/>
	</g>
	<g>
		<path d="M1553,1828.2c-10,35.7-35.3,81.4-112.3,81.4c-76.2,0-131.5-61.4-131.5-142.4c0-87,55.3-142.8,131.5-142.8
			c26.1,0,46.1,5.2,56.5,10.8v-15.2h50.9V1732h-50.9v-15.6c0-20.1-20.5-40.5-56.5-40.5c-25.3,0-60.6,20.4-60.6,91.4
			c0,66.2,35.3,91.4,60.6,91.4c41.3,0,61.4-35.7,61.4-40.9L1553,1828.2z"/>
		<path d="M1804.4,1857.1v50.5h-69.8c-10.4-4.8-30.9-20.1-30.9-55.3c0-20-15.2-60.1-55.3-65.4v70.2h25.7v50.5h-115.9v-50.5h30.1
			v-180.9h-30.1v-50.1h121.1c64.6,0,84.6,44.9,84.6,80.6c0,30.1-9.6,49.7-24.9,65c15.2,20.4,24.9,45.7,24.9,75.4
			c0,10,10.4,10,10.4,10H1804.4z M1668.9,1736.8c23.7,0,34.9-14.8,34.9-30.1s-10-30.5-29.7-30.5h-25.7v60.6H1668.9z"/>
		<path d="M2018.5,1791.7l-14.8,115.5h-236.2v-50.1h25.3v-180.9h-25.3v-50.1h221l25.3,95.4h-50.5c-4.8-20-10-45.3-40.1-45.3h-65.4
			v60.6h35.3v-20.4h50.1v90.6h-50.1v-20.1h-35.3v70.2h80.6c14.8,0,24.9-35.3,30.1-65.4H2018.5z"/>
		<path d="M2273.1,1791.7l-14.8,115.5H2022v-50.1h25.3v-180.9H2022v-50.1h221l25.3,95.4h-50.5c-4.8-20-10-45.3-40.1-45.3h-65.4v60.6
			h35.3v-20.4h50.1v90.6h-50.1v-20.1h-35.3v70.2h80.6c14.8,0,24.9-35.3,30.1-65.4H2273.1z"/>
		<path d="M2531.5,1857.3h25.6v50.3h-121.7v-50.3l-71.4-86.4v86.4h25.6v50.3h-116.4v-50.3h25.6V1674h-25.6v-50.3h116.4v50.3h-25.6
			v45.8l76.7-60.4v-35.7h125.1v50.3h-54.5c-7.3,0-9.7,5.3-25.1,15.8c-9.7,9.7-40.6,35.3-60.8,50.3l81.5,101.4
			C2513.2,1849.6,2521.3,1857.3,2531.5,1857.3z"/>
	</g>
</g>
<g>
	<path d="M572.6,2116.7h34.1l-10.3,71.2H437.3v-34.1h20.3v-121.5h-20.3v-34.1h81.4v34.1h-20.6v121.5h50.9
		c19.2,0,21.6-23.5,21.6-23.5L572.6,2116.7z"/>
	<path d="M791,2093.4c0,72.5-48.4,96.9-90.4,96.9c-44.9,0-90.4-27.6-90.4-96.9c0-66.3,45.5-97.7,90.4-97.7
		C742.5,1995.7,791,2023.6,791,2093.4z M742.5,2093.4c0-38.4-17.6-62.8-41.9-62.8c-27.6,0-44.9,24.3-44.9,62.8
		c0,37.9,17.3,62.2,44.9,62.2C725,2155.6,742.5,2131.3,742.5,2093.4z"/>
	<path d="M896.3,1998.2h71.2v33.8h-17v155.8h-27.1l-88.2-118.5v84.7c3.5,0,20.6,0,20.6,0v33.8h-71.2V2154h20.3v-122h-20.3v-33.8
		h60.6l71.4,101.5V2032h-20.3V1998.2z"/>
	<path d="M1071.4,2093.1h80.4v35.2h-17.6v55.7h-14.1c-7.3,1.4-19.5,7-45.2,7h-17.6c-62.8,0-97.9-35.2-97.9-97.9
		c0-66.3,49.2-97.9,97.9-97.9c17.6,0,31.7,3.5,41.7,7v-7h35.2v80.4H1099v-14.1c0-3.5-6.5-31.1-41.7-31.1
		c-41.7,0-52.8,45.2-52.8,62.8c0,31.7,17.6,62.8,52.8,62.8c17.6,0,31.7-6.5,31.7-17.6v-10h-17.6V2093.1z"/>
	<path d="M1296.9,2126.7c0,30.3-20.3,60.6-67.4,60.6h-80.9v-33.6h16.8v-121.5h-16.8v-33.8h74.1c43.8,0,64.1,27.3,64.1,54.1
		c0,13.3-3.5,23.5-10.3,30.3C1286.9,2093.1,1296.9,2106.4,1296.9,2126.7z M1209.2,2032.3v40.3h13.5c13.5,0,20-10,20-20
		c0-10-6.5-20.3-20-20.3H1209.2z M1253,2129.9c0-13.3-10.3-23.5-23.5-23.5h-20.3v47.4c5.7,0,11.1,0,20.3,0
		C1242.8,2153.7,1253,2143.5,1253,2129.9z"/>
	<path d="M1469.3,2109.6l-10,77.9h-159.4v-33.8h17v-122h-17v-33.8H1449l17,64.4h-34.1c-3.2-13.5-6.8-30.6-27.1-30.6h-44.1v40.9h23.8
		v-13.8h33.8v61.1h-33.8v-13.5h-23.8v47.4h54.4c10,0,16.8-23.8,20.3-44.1H1469.3z"/>
	<path d="M1580.8,1998.4c0,0,63.9,148.8,67.4,155.3h20.3v33.8h-77.9V2154h10c-3.2-6.8-6-13.5-9.5-20.6h-53.6l-7.6,20.6h10v33.5
		h-67.4v-33.8h20.3c6.5-20.3,63.6-155.3,63.6-155.3h24.9H1580.8z M1579.2,2099.6l-16-37.6l-14.9,37.6H1579.2z"/>
	<path d="M1813.4,2153.7v34.1h-47.1c-7-3.2-20.8-13.5-20.8-37.3c0-13.5-10.3-40.6-37.3-44.1v47.4h17.3v34.1h-78.2v-34.1h20.3v-122
		h-20.3v-33.8h81.7c43.6,0,57.1,30.3,57.1,54.4c0,20.3-6.5,33.6-16.8,43.8c10.3,13.8,16.8,30.8,16.8,50.9c0,6.8,7,6.8,7,6.8H1813.4z
		 M1722,2072.6c16,0,23.5-10,23.5-20.3c0-10.3-6.8-20.6-20-20.6h-17.3v40.9H1722z"/>
	<path d="M1976.1,2092.9c0,54.4-41.9,94.7-92.5,94.7h-80.9v-34.1h16.2v-121.2h-16.2v-34.4h80.9
		C1938,1997.9,1976.1,2038.5,1976.1,2092.9z M1863.3,2153.5h14.1c40.3,0,54.4-30.3,54.4-60.6c0-30.6-17.9-60.6-54.4-60.6h-14.1
		V2153.5z"/>
	<path d="M2128.5,2133.7c0,54.1-54.1,54.1-71.2,54.1c-17,0-37.1-6.8-44.1-20.3v20.3h-33.8v-77.9h33.8v17c0,13.5,17,27.1,37.3,27.1
		c17,0,37.1-7,37.1-17c0-17-13.3-20.3-43.8-30.3c-23.5-7-60.9-17-60.9-54.4c0-30.3,30.3-54.4,67.6-54.4c23.8,0,33.8,10.3,37.1,20.6
		v-20.6h34.1v64.4h-34.1v-3.2c0-10-10-27.1-37.1-27.1c-10.3,0-23.8,6.8-23.8,17c0,10,10.3,13.3,33.8,20.3
		C2087.7,2076.1,2128.5,2086.1,2128.5,2133.7z"/>
</g>
<g>
	<g>
		<rect x="1637.1" y="1518.9" width="928.7" height="21"/>
	</g>
	<g>
		<rect y="1518.9" width="928.7" height="21"/>
	</g>
</g>
<g>
	<path d="M1609.5,1047.6c-17.8-42.2-43.4-80.1-75.9-112.6c-32.5-32.5-70.4-58.1-112.6-75.9c-43.7-18.5-90.1-27.9-137.9-27.9
		c-47.8,0-94.3,9.4-137.9,27.9c-42.2,17.9-80.1,43.4-112.6,75.9c-32.5,32.5-58.1,70.4-75.9,112.6c-18.5,43.7-27.9,90.1-27.9,137.9
		c0,47.8,9.4,94.2,27.9,137.9c17.8,42.2,43.4,80.1,75.9,112.6c32.5,32.5,70.4,58.1,112.6,75.9c43.7,18.5,90.1,27.9,137.9,27.9
		c47.8,0,94.2-9.4,137.9-27.9c42.2-17.8,80.1-43.4,112.6-75.9c32.5-32.5,58.1-70.4,75.9-112.6c18.5-43.7,27.9-90.1,27.9-137.9
		C1637.3,1137.7,1628,1091.3,1609.5,1047.6z M1592.8,1093.6c0.2,0.5,0.3,1.1,0.5,1.7c0.6,2.1,1.2,4.3,1.8,6.4
		c0.2,0.7,0.4,1.4,0.6,2.1c0.5,1.9,1,3.9,1.5,5.8c0.2,0.9,0.4,1.7,0.6,2.6c0.3,1.2,0.6,2.4,0.8,3.6c0.4,1.6,0.7,3.2,1,4.8
		c0.2,1.1,0.4,2.2,0.6,3.3c0.3,1.4,0.5,2.7,0.8,4.1c0.2,1.3,0.5,2.6,0.7,3.9c0.2,1.3,0.4,2.7,0.6,4c0.2,1.1,0.3,2.2,0.5,3.3
		c0.2,1.6,0.5,3.3,0.7,4.9c0.1,0.9,0.2,1.7,0.3,2.6c0.2,1.9,0.4,3.9,0.6,5.8c0.1,0.8,0.2,1.6,0.2,2.5c0.2,2,0.4,3.9,0.5,5.9
		c0,0,0,0.1,0,0.1l-61.5,3.2c-1.6-19.2-5.2-37.7-10.6-55.5l58.7-18.9C1591.9,1090.9,1592.4,1092.3,1592.8,1093.6z M1559,1017.6
		c2.8,4.7,5.6,9.4,8.2,14.2c0.1,0.2,0.2,0.4,0.4,0.6c1.2,2.3,2.4,4.6,3.6,6.9c0.1,0.3,0.3,0.6,0.4,0.8c1.2,2.4,2.4,4.7,3.5,7.1
		c0,0.1,0.1,0.2,0.1,0.3c1.1,2.4,2.2,4.8,3.3,7.2c0.1,0.2,0.2,0.4,0.3,0.6c1,2.3,2,4.7,3,7c0.2,0.4,0.3,0.8,0.5,1.2
		c0.9,2.3,1.9,4.6,2.7,7c0.1,0.4,0.3,0.7,0.4,1.1c0.9,2.4,1.8,4.9,2.7,7.3c0,0,0,0,0,0l-58.7,18.9c-6-16.8-13.6-32.9-22.7-47.9
		l52.3-32.7C1558.9,1017.5,1559,1017.6,1559,1017.6z M1511.4,957.1c1.9,1.9,3.8,3.9,5.7,5.9c0.4,0.4,0.8,0.9,1.2,1.3
		c1.5,1.6,2.9,3.1,4.4,4.7c0.4,0.4,0.7,0.8,1,1.2c1.5,1.7,3,3.3,4.4,5c0.2,0.3,0.5,0.6,0.7,0.8c1.6,1.8,3.1,3.7,4.6,5.5
		c0.1,0.2,0.3,0.3,0.4,0.5c1.6,2,3.2,4,4.8,6c0,0.1,0.1,0.1,0.1,0.2c5,6.4,9.7,13,14.1,19.8c0,0,0,0,0,0l-52.3,32.7
		c-10.5-15.7-22.5-30.1-36-43.2l42.1-45C1508.2,954,1509.8,955.6,1511.4,957.1z M1470.4,1364.3c-11.2-14-22.4-25.9-33.3-35.2
		c-15.4-13.2-30.3-21.5-44.4-24.7c16.6-40.1,22.3-73.9,16.9-100.4c-0.3-1.6-0.7-3.1-1-4.6c0.8,0.4,1.5,0.7,2.3,1.1
		c45.5,21.9,62,47.3,67.8,60.6c3.9,8.9,5.8,18.1,5.7,27.5c-2.7,4.9-10.6,20.8-13.6,43.3C1469.2,1342.5,1469.1,1353.4,1470.4,1364.3z
		 M1322.9,1252.8l-0.5-1.4c-1.6-4.2-3.1-8.2-4-11.5c-0.1-0.4-0.2-0.8-0.3-1.2c-1.7-6.8,0.2-17,2.4-28.9c3-16.2,6.4-34.5,2.4-53.3
		c-0.2-1-0.5-2.1-0.8-3.1c17.5,1.3,47,7,63,30c3.7,5.4,6.6,11.6,8.5,18.3c1.3,4.5,2.1,9.5,2.6,14.7c1.9,23.1-4.6,52.3-19.4,86.8
		c-7.8,0.7-25.7,2.7-44.2,7.6C1337.3,1290.5,1329,1268.8,1322.9,1252.8z M1287.8,1283.9c0.1,3.7,0.4,7.2,0.9,10.3
		c0,5-0.9,8.8-2.5,11c-0.8,1.1-1.8,1.7-3.1,1.9c-1.4-0.3-2.3-0.8-3.1-1.9c-1.6-2.2-2.5-6-2.5-11.1c0.5-3.1,0.8-6.5,0.9-10.2l0-1.4
		l-14.8-1.6l-0.3,1.4c-0.2,0.8-1,5.2-1,10.8c-0.9,4.9-2.5,8.1-4.4,9c-2,1-6.2-0.1-10.4-2.6c-0.5-13.7,5.1-28.3,10-41.2
		c0.4-1,0.7-1.9,1.1-2.8l16.9,1.2c0,1.4,0.1,3.5,0.1,5.5c0,3,0.1,5.6,0.1,6.2l0.1,1.5l7.5-0.5l7.5,0.5l0.1-1.5
		c0-0.7,0.1-3.2,0.1-6.2c0-2,0.1-4.2,0.1-5.6l16.9-1.2c0.3,0.9,0.7,1.9,1.1,2.8c4.9,12.9,10.5,27.4,10,41.2
		c-4.2,2.5-8.4,3.5-10.4,2.6c-1.9-0.9-3.5-4.1-4.4-9c-0.1-5.4-0.8-9.6-1-10.8l-0.3-1.4l-14.8,1.6L1287.8,1283.9z M1233.4,1310.8
		c-18.4-4.9-36.3-6.9-44.2-7.6c-14.8-34.5-21.3-63.7-19.4-86.8c0.4-5.2,1.3-10.1,2.6-14.7c1.9-6.8,4.8-12.9,8.5-18.3
		c16-23.1,45.5-28.8,63-30c-0.3,1-0.5,2.1-0.8,3.1c-3.9,18.8-0.5,37.1,2.4,53.3c2.2,11.9,4.1,22.1,2.4,28.9
		c-0.1,0.4-0.2,0.8-0.3,1.2c-0.9,3.3-2.4,7.3-4,11.5l-0.5,1.4C1236.9,1268.8,1228.6,1290.5,1233.4,1310.8z M1095.2,1331.7
		c-3-22.5-10.9-38.4-13.6-43.3c-0.1-9.4,1.8-18.6,5.7-27.5c5.8-13.2,22.3-38.7,67.8-60.6c0.8-0.4,1.5-0.7,2.3-1.1
		c-0.4,1.5-0.7,3-1,4.6c-5.3,26.5,0.4,60.3,16.9,100.4c-14.1,3.2-29,11.5-44.4,24.7c-10.9,9.4-22.1,21.2-33.3,35.2
		C1096.7,1353.4,1096.6,1342.5,1095.2,1331.7z M1224.4,1089.3c-0.3,0.1-0.5,0.1-0.8,0.2c-0.9,0.3-1.8,0.6-2.8,0.9
		c-0.6,0.2-1.3,0.4-1.9,0.6c-1.1,0.4-2.2,0.8-3.4,1.2c-0.6,0.2-1.1,0.4-1.7,0.6c-1.2,0.4-2.4,0.9-3.5,1.3c-0.4,0.1-0.8,0.3-1.2,0.5
		c-1,0.4-1.9,0.8-2.9,1.2l-64.3-66.8c10.6-9.6,22.3-18.1,34.7-25.4L1224.4,1089.3z M1186.6,998.1c11.9-6.1,24.4-11.1,37.4-14.9
		l26.7,100.4c-0.2,0-0.3,0-0.5,0.1c-0.9,0.1-1.7,0.3-2.6,0.4c-0.9,0.2-1.8,0.3-2.7,0.5c-1.7,0.3-3.4,0.6-5.1,1
		c-0.5,0.1-1,0.2-1.5,0.3c-1,0.2-1.9,0.4-2.9,0.6L1186.6,998.1z M1195.7,1100.6c-0.3,0.2-0.7,0.3-1,0.5v0c-1.5,0.8-3,1.6-4.5,2.4
		c-1.5,0.9-3,1.7-4.5,2.6c-0.8,0.5-1.6,1-2.3,1.5c-0.5,0.4-1.1,0.7-1.6,1.1c-0.2,0.1-0.4,0.2-0.5,0.4c-0.7,0.5-1.4,0.9-2.1,1.4
		c0,0,0,0,0,0c-0.4,0.3-0.7,0.5-1.1,0.8l-69.8-43.6c7.6-11.2,16.2-21.6,25.7-31.2L1195.7,1100.6z M1168.9,1118.7
		c-0.3,0.3-0.7,0.6-1,0.9c-0.8,0.7-1.6,1.5-2.3,2.2c-0.1,0.1-0.1,0.1-0.2,0.2c-0.6,0.6-1.3,1.3-1.9,1.9c-0.1,0.2-0.3,0.3-0.4,0.5
		c-0.6,0.6-1.1,1.2-1.6,1.8c-0.1,0.1-0.3,0.3-0.4,0.4c-0.6,0.7-1.2,1.4-1.8,2.2c0,0,0,0,0,0c-1.3,1.6-2.5,3.2-3.6,4.8
		c-0.1,0.1-0.1,0.1-0.1,0.2c-0.5,0.7-1,1.5-1.5,2.2c-0.1,0.1-0.1,0.2-0.2,0.3c-0.3,0.4-0.5,0.8-0.7,1.2l-69.1-21.3
		c4.8-13.8,11-26.9,18.4-39.2L1168.9,1118.7z M1148,1147.6c-0.2,0.5-0.4,0.9-0.5,1.4c-1.2,3.3-2.1,6.6-2.7,10c0,0.2-0.1,0.3-0.1,0.5
		c-0.1,0.6-0.2,1.3-0.3,2c0,0.2-0.1,0.4-0.1,0.7c-0.1,0.6-0.1,1.2-0.2,1.8c0,0.2-0.1,0.5-0.1,0.8c0,0.6-0.1,1.2-0.1,1.8
		c0,0.2,0,0.5,0,0.7c0,0.8-0.1,1.7-0.1,2.5c0,0.3,0,0.6,0,1l-70.7-3.7c1.2-13.7,3.7-27.1,7.5-40L1148,1147.6z M1145.1,1181.7
		c0.1,0.5,0.2,1,0.3,1.6c0.2,1,0.5,1.9,0.8,2.9c0,0.1,0.1,0.2,0.1,0.3c0.1,0.4,0.2,0.7,0.3,1c-10.7,5.2-20.6,11.1-29.6,17.5
		c-1,0.7-1.9,1.4-2.9,2.1c-0.4,0.3-0.8,0.6-1.3,0.9l-0.8,0.6c-0.2,0.2-0.5,0.4-0.7,0.5c-0.7,0.6-1.4,1.1-2.1,1.7l-0.6,0.5
		c-0.9,0.7-1.8,1.4-2.6,2.2c-0.7,0.6-1.4,1.2-2.1,1.8l-28.5,6c-2-11.6-3-23.6-3-35.8c0-2.6,0.1-5.1,0.2-7.6L1145.1,1181.7z
		 M1089.5,1229.7c-3.5,4.1-6.7,8.4-9.4,12.7c-0.9-3.4-1.8-6.8-2.6-10.2L1089.5,1229.7z M1302.8,1240.6l-10.8,0.8
		c2.5-23.1,6.7-42.7,9.8-55.3l7.3-5.9c-0.5,9.3-2.2,18.6-3.8,26.9C1303,1219.9,1301,1231,1302.8,1240.6z M1294.3,1157.9l-0.3,0.7
		c-0.3,0.7-5.9,16.9-11.1,42.4c-5.1-25.4-10.8-41.7-11.1-42.4l-0.3-0.7l-12.1-3.5c5.5-14.4,18.5-15.6,22.5-15.6c0.3,0,0.5,0,0.6,0
		l0.1,0l0.1,0c0.1,0,0.3,0,0.6,0c4.1,0,17.5,1.2,23.1,15.6L1294.3,1157.9z M1263.9,1186c3.2,12.7,7.3,32.3,9.9,55.4l-10.8-0.8
		c1.9-9.6-0.2-20.7-2.6-33.5c-1.5-8.3-3.3-17.6-3.8-27L1263.9,1186z M1339.2,982.4c14,3.9,27.4,9.1,40,15.6l-48.9,88.3
		c-1-0.2-2.1-0.5-3.1-0.7c-0.3-0.1-0.6-0.1-1-0.2c-3.9-0.8-7.9-1.5-11.9-2.1c-0.2,0-0.3,0-0.5-0.1L1339.2,982.4z M1302.7,1082.1
		c-1.6-0.1-3.2-0.3-4.9-0.4c-0.7,0-1.3-0.1-2-0.1c-1.5-0.1-2.9-0.1-4.4-0.2c-0.9,0-1.9-0.1-2.8-0.1c0,0-0.1,0-0.1,0l0-106.4
		c13.7,0.3,27,2,39.9,4.9L1302.7,1082.1z M1389,1003.4c11.7,6.8,22.6,14.7,32.7,23.6l-63.7,68c-1.2-0.5-2.5-1-3.8-1.5
		c-0.7-0.3-1.4-0.5-2.1-0.8c-1-0.4-2-0.7-3.1-1.1c-0.8-0.3-1.5-0.5-2.3-0.8c-1.5-0.5-3.1-1-4.6-1.5c0,0,0,0,0,0
		c-0.3-0.1-0.5-0.1-0.8-0.2L1389,1003.4z M1429.9,1034.5c10.3,10,19.6,21.1,27.7,33.1l-69.8,43.6c-0.3-0.2-0.7-0.5-1-0.7
		c0,0-0.1-0.1-0.1-0.1c-0.6-0.4-1.3-0.9-1.9-1.3c-0.2-0.2-0.5-0.3-0.7-0.5c-0.5-0.3-1-0.6-1.5-1c-0.8-0.5-1.5-1-2.3-1.5
		c-1.7-1-3.4-2-5.1-3c0,0-0.1,0-0.1,0c-1.7-1-3.5-1.9-5.3-2.8c-0.3-0.2-0.7-0.3-1-0.5L1429.9,1034.5z M1463.6,1077
		c6.9,11.5,12.8,23.8,17.5,36.6l-69.2,22.3c-0.2-0.3-0.4-0.7-0.7-1c-0.1-0.2-0.3-0.4-0.5-0.7c-0.3-0.5-0.7-1-1-1.5
		c-0.2-0.2-0.4-0.5-0.5-0.7c-0.3-0.5-0.7-1-1.1-1.4c-0.2-0.2-0.4-0.5-0.6-0.7c-0.4-0.5-0.8-1-1.2-1.4c-0.2-0.2-0.4-0.4-0.5-0.6
		c-0.4-0.5-0.9-1-1.3-1.5c-0.2-0.2-0.3-0.4-0.5-0.5c-0.5-0.6-1.1-1.2-1.6-1.7c-0.1-0.1-0.2-0.2-0.3-0.3c-1.3-1.4-2.7-2.8-4.2-4.1
		c-0.3-0.3-0.7-0.6-1-0.9L1463.6,1077z M1422,1166.9c0-0.3,0-0.5-0.1-0.8c0-0.6-0.1-1.2-0.1-1.9c0-0.3,0-0.6-0.1-0.8
		c-0.1-0.7-0.1-1.3-0.2-2c0-0.2-0.1-0.4-0.1-0.6c-0.1-0.9-0.3-1.8-0.5-2.6c0,0,0-0.1,0-0.1c-0.2-0.8-0.3-1.7-0.6-2.5
		c0-0.2-0.1-0.4-0.1-0.6c-0.2-0.7-0.4-1.4-0.6-2c-0.1-0.2-0.1-0.4-0.2-0.6c-0.2-0.8-0.5-1.6-0.8-2.3c0-0.1,0-0.1-0.1-0.2
		c-0.3-0.9-0.7-1.8-1-2.6c-0.2-0.5-0.4-0.9-0.6-1.4l67.4-21.8c4.2,13.7,6.9,27.9,8.3,42.6l-70.7,3.7c0-0.3,0-0.6,0-0.9
		C1422.1,1168.6,1422.1,1167.8,1422,1166.9z M1483.1,1238.4l-0.4-0.5c-0.6-0.9-1.3-1.8-2-2.7l-0.4-0.5c-0.8-1.1-1.6-2.1-2.5-3.1
		l-0.2-0.2c-0.8-0.9-1.6-1.9-2.4-2.8l-0.6-0.6c-0.4-0.5-0.9-0.9-1.3-1.4l15.5,3c-0.9,4.4-2,8.7-3.2,13
		C1484.9,1241,1484,1239.7,1483.1,1238.4z M1458.2,1212.1c-0.8-0.6-1.5-1.2-2.3-1.8c-1.1-0.9-2.2-1.7-3.3-2.5l-0.2-0.2
		c-1.2-0.9-2.3-1.7-3.5-2.6c-9-6.4-19-12.2-29.6-17.5c0.1-0.4,0.2-0.7,0.3-1.1c0-0.1,0.1-0.2,0.1-0.3c0.3-1,0.5-2,0.8-2.9
		c0.1-0.5,0.2-1,0.3-1.6l72.7-3.8c0.1,2.6,0.2,5.1,0.2,7.7c0,11.2-0.9,22.3-2.6,33L1458.2,1212.1z M1444.2,905.5
		c2.1,1.2,4.3,2.5,6.4,3.8c0.2,0.1,0.3,0.2,0.4,0.3c2.2,1.4,4.4,2.7,6.6,4.1c0.2,0.2,0.5,0.3,0.7,0.5c2.1,1.4,4.2,2.7,6.2,4.1
		c0.3,0.2,0.6,0.4,0.9,0.6c2,1.4,4,2.8,6,4.2c0.3,0.2,0.6,0.4,0.9,0.7c2,1.4,3.9,2.9,5.9,4.4c0.3,0.2,0.6,0.5,0.9,0.7
		c2,1.5,3.9,3,5.8,4.6c0.3,0.2,0.5,0.4,0.8,0.6c2,1.6,4,3.3,6,5c0.2,0.1,0.3,0.3,0.5,0.4c1.9,1.6,3.8,3.3,5.6,4.9
		c0.2,0.2,0.5,0.4,0.7,0.6l-42.1,45c-13.2-11.7-27.5-22.1-42.8-30.9l29.9-53.9C1443.7,905.2,1444,905.4,1444.2,905.5z M1366.7,873.4
		c4.3,1.2,8.7,2.4,12.9,3.7c0.1,0,0.1,0,0.2,0.1c2.7,0.8,5.3,1.7,7.9,2.6c0.3,0.1,0.7,0.2,1,0.4c2.4,0.8,4.8,1.7,7.2,2.6
		c0.4,0.1,0.7,0.3,1.1,0.4c4,1.5,7.9,3.1,11.8,4.7c0.6,0.3,1.3,0.5,1.9,0.8c1.9,0.8,3.8,1.7,5.7,2.5c0.7,0.3,1.5,0.7,2.2,1
		c1.7,0.8,3.4,1.6,5.1,2.4c0.9,0.4,1.7,0.8,2.6,1.3c1.1,0.5,2.2,1.1,3.3,1.6c1.4,0.7,2.8,1.5,4.2,2.2l-29.9,54
		c-16.5-8.6-33.9-15.5-52.2-20.5L1366.7,873.4C1366.7,873.4,1366.7,873.4,1366.7,873.4z M1340.8,930.5c-16.9-3.8-34.4-6-52.3-6.4
		l0-61.6c11.4,0.2,22.8,1,34,2.3c0.1,0,0.2,0,0.3,0c5.3,0.6,10.6,1.4,15.8,2.3c0.5,0.1,0.9,0.2,1.4,0.2c2.4,0.4,4.7,0.9,7.1,1.3
		c0.6,0.1,1.2,0.2,1.8,0.4c1.9,0.4,3.8,0.8,5.8,1.2 M1282.9,1092.7c1.7,0,3.4,0,5,0.1c0.8,0,1.7,0.1,2.5,0.1c1.3,0.1,2.6,0.1,4,0.2
		c0.5,0,1,0.1,1.5,0.1l0.3,0c1.4,0.1,2.7,0.2,4.1,0.3l0.5,0.1c3.2,0.3,6.6,0.7,10.2,1.2c3.5,0.5,7.1,1.1,10.6,1.9l0.9,0.2
		c1.1,0.2,2.2,0.5,3.3,0.7c3.1,0.7,6.1,1.5,9,2.3l1.8,0.5c1.2,0.4,2.3,0.7,3.5,1.1c0.6,0.2,1.1,0.4,1.7,0.6l0.3,0.1
		c0.9,0.3,1.8,0.6,2.7,1l0.2,0.1c0.5,0.2,1.1,0.4,1.6,0.6c4.8,1.8,9.5,3.8,13.8,6c1.6,0.8,3.1,1.6,4.6,2.5l0.2,0.1
		c1.4,0.8,3,1.7,4.4,2.6c0.7,0.4,1.4,0.9,2.1,1.3c0.4,0.2,0.8,0.5,1.1,0.8l0.8,0.5c0.6,0.4,1.1,0.8,1.7,1.2c0.7,0.5,1.3,0.9,1.9,1.4
		c2.9,2.1,5.6,4.3,8,6.6c1.2,1.1,2.4,2.3,3.6,3.5l0.3,0.3c0.5,0.5,0.9,1,1.4,1.5l0.4,0.4c0.4,0.4,0.8,0.9,1.1,1.3l0.5,0.6
		c0.3,0.4,0.6,0.8,1,1.2l0.5,0.6c0.3,0.4,0.6,0.8,0.9,1.2l0.5,0.6c0.3,0.4,0.6,0.9,0.9,1.3l0.4,0.6c0.4,0.6,0.7,1.1,1,1.6
		c1.8,2.9,3.3,5.9,4.5,8.9c0.3,0.7,0.6,1.5,0.8,2.2l0.1,0.2c0.2,0.6,0.4,1.3,0.6,1.9l0.1,0.5c0.2,0.6,0.3,1.1,0.5,1.7l0.1,0.5
		c0.2,0.7,0.3,1.4,0.5,2.1l0,0.2c0.1,0.7,0.3,1.4,0.4,2.1l0.1,0.5c0.1,0.6,0.1,1.1,0.2,1.7l0.1,0.7c0,0.5,0.1,1,0.1,1.5l0,0.7
		c0,0.7,0.1,1.4,0.1,2.2c0,3.8-0.5,7.7-1.4,11.5c0,0.1-0.1,0.3-0.1,0.4c-1.9-0.9-3.8-1.7-5.7-2.5c-1.5-0.6-2.9-1.2-4.3-1.7
		c-0.8-1.2-1.5-2.4-2.3-3.5c-22.3-32.1-64.3-35.4-78.5-35.6c-8.6-9.7-20.7-13.3-29.5-13.3c-0.4,0-0.7,0-1.1,0c-0.4,0-0.7,0-1.1,0
		c-8.8,0-20.9,3.5-29.5,13.2c-14.3,0.2-56.3,3.6-78.5,35.6c-0.8,1.1-1.5,2.3-2.3,3.5c-1.4,0.5-2.9,1.1-4.4,1.7
		c-1.9,0.8-3.8,1.6-5.7,2.5c0-0.1-0.1-0.2-0.1-0.3c-0.8-3.2-1.2-6.4-1.3-9.5c0-0.7,0-1.3,0-2c0-0.7,0-1.4,0-2l0-0.6
		c0-0.5,0.1-1,0.1-1.5l0.1-0.6c0-0.5,0.1-1,0.2-1.5l0.1-0.6c0.1-0.5,0.2-1.1,0.3-1.6l0.1-0.3c0.5-2.8,1.3-5.7,2.3-8.4
		c1.1-3,2.5-5.9,4.1-8.8c0.4-0.7,0.8-1.3,1.2-2l0.1-0.2c0.4-0.7,0.8-1.3,1.3-1.9l0.1-0.1c1-1.4,2-2.8,3.1-4.1l0.2-0.3
		c0.5-0.5,0.9-1.1,1.4-1.6l0.3-0.4c0.5-0.5,0.9-1,1.4-1.6l0.4-0.4c0.5-0.5,1.1-1.1,1.6-1.6c0.1-0.1,0.2-0.2,0.2-0.2
		c0.6-0.6,1.3-1.2,2-1.9c2.4-2.3,5.2-4.5,8-6.6c0.2-0.2,0.4-0.3,0.6-0.5l1.7-1.2c0.4-0.3,1.4-1,1.4-1l0.4-0.2
		c0.4-0.3,0.9-0.6,1.4-0.9c0.7-0.4,1.3-0.9,2-1.3c1.3-0.8,2.6-1.6,4-2.3c1.3-0.7,2.6-1.5,4-2.2c3.1-1.6,6.3-3.1,9.6-4.5
		c1.1-0.5,2.2-0.9,3.4-1.4l1-0.4c1-0.4,2.1-0.8,3.1-1.2c0.3-0.1,1.5-0.5,1.5-0.5c1-0.4,2-0.7,3-1c0.3-0.1,2.6-0.8,2.6-0.8
		c0.5-0.2,1-0.3,1.6-0.5c3.1-0.9,6.5-1.8,10.1-2.6c1-0.2,2.1-0.5,3.1-0.7l1.3-0.3c1.5-0.3,3-0.6,4.5-0.9c0.8-0.1,1.6-0.3,2.4-0.4
		c0.8-0.1,1.5-0.3,2.3-0.4c3.3-0.5,6.7-0.9,10.1-1.3c0.8-0.1,1.7-0.1,2.5-0.2c0.8-0.1,1.6-0.1,2.5-0.2c1.3-0.1,2.6-0.2,4-0.3
		c0.8,0,1.6-0.1,2.3-0.1c0.9,0,1.8-0.1,2.7-0.1C1279.5,1092.7,1281.2,1092.7,1282.9,1092.7z M1277.4,1081.3c0,0-0.1,0-0.1,0
		c-1,0-2,0.1-3,0.1c-0.9,0-1.8,0.1-2.6,0.1c-1.5,0.1-3,0.2-4.4,0.3c-0.9,0.1-1.8,0.1-2.7,0.2c-0.9,0.1-1.7,0.1-2.6,0.2l-27.1-101.9
		c13.7-3.2,28-5.1,42.6-5.5L1277.4,1081.3z M1206.3,871.6c2.6-0.6,5.2-1.2,7.9-1.8c0.6-0.1,1.1-0.2,1.7-0.4c2.2-0.5,4.4-0.9,6.7-1.3
		c0.6-0.1,1.1-0.2,1.7-0.3c2.3-0.4,4.7-0.8,7-1.2c0.4-0.1,0.9-0.2,1.3-0.2c4.3-0.7,8.5-1.2,12.9-1.7c0.3,0,0.6-0.1,0.9-0.1
		c2.6-0.3,5.2-0.5,7.8-0.8c0.4,0,0.8-0.1,1.2-0.1c2.6-0.2,5.2-0.4,7.8-0.6c0.3,0,0.6,0,0.9-0.1c4.4-0.3,8.9-0.4,13.4-0.5h0l0,61.6
		c-19.1,0.4-37.7,2.9-55.6,7.2l-15.8-59.6C1206,871.7,1206.1,871.6,1206.3,871.6z M1132.7,899.4c2.2-1.2,4.5-2.3,6.7-3.4
		c0.3-0.1,0.5-0.2,0.8-0.4c2.2-1.1,4.5-2.2,6.7-3.2c0.4-0.2,0.8-0.4,1.2-0.5c2.1-1,4.3-1.9,6.4-2.9c0.5-0.2,0.9-0.4,1.4-0.6
		c2.1-0.9,4.2-1.8,6.3-2.6c0.5-0.2,0.9-0.4,1.4-0.6c2.1-0.9,4.3-1.7,6.4-2.5c0.5-0.2,0.9-0.3,1.4-0.5c2.2-0.8,4.5-1.6,6.7-2.4
		c0.4-0.1,0.8-0.3,1.1-0.4c2.4-0.8,4.8-1.6,7.2-2.3c0.2-0.1,0.5-0.1,0.7-0.2c2.3-0.7,4.7-1.4,7-2.1c0.3-0.1,0.6-0.2,1-0.3l15.8,59.6
		c-17.1,4.9-33.5,11.5-49,19.6l-29.9-54C1132.3,899.6,1132.5,899.5,1132.7,899.4z M1064.2,947.8c11.2-10.3,22.9-19.7,35.2-28.2
		c0.1-0.1,0.2-0.1,0.3-0.2c2.3-1.6,4.6-3.2,7-4.7c0.2-0.1,0.4-0.3,0.6-0.4c2.3-1.5,4.6-3,7-4.4c0.2-0.1,0.3-0.2,0.5-0.3
		c1.8-1.1,3.7-2.2,5.6-3.3c0.3-0.2,0.6-0.3,0.8-0.5c0.4-0.2,0.7-0.4,1.1-0.6l29.9,53.9c-16.3,9.4-31.5,20.6-45.3,33.2L1064.2,947.8
		C1064.2,947.8,1064.2,947.8,1064.2,947.8z M1016.5,1002.8c0.3-0.4,0.5-0.7,0.8-1.1c1.3-1.8,2.5-3.6,3.8-5.4
		c0.5-0.6,0.9-1.3,1.4-1.9c1.5-2.1,3.1-4.2,4.7-6.2c0,0,0,0,0-0.1c1.6-2.1,3.2-4.1,4.9-6.1c0.1-0.1,0.2-0.2,0.3-0.4
		c1.6-1.9,3.1-3.8,4.7-5.7c0.2-0.2,0.4-0.5,0.6-0.7c1.5-1.8,3-3.5,4.6-5.2c0.3-0.3,0.6-0.7,0.9-1c1.5-1.6,3-3.3,4.5-4.9
		c0.4-0.4,0.7-0.8,1.1-1.2c1.9-2,3.8-4,5.8-5.9c0.5-0.5,1.1-1,1.6-1.6l42.7,44.4c-12.5,12.4-23.8,26.1-33.6,40.9l-52.3-32.7
		C1014.1,1006.3,1015.3,1004.6,1016.5,1002.8z M976.5,1082.9c0.6-1.6,1.1-3.3,1.7-4.9c0.3-0.9,0.7-1.9,1-2.8c0.6-1.7,1.2-3.3,1.8-5
		c0.4-1,0.7-1.9,1.1-2.9c0.4-1.1,0.9-2.2,1.3-3.3c0.6-1.5,1.2-3,1.9-4.5c0.4-0.9,0.8-1.9,1.2-2.8c0.7-1.6,1.4-3.1,2.1-4.7
		c0.4-0.9,0.8-1.9,1.3-2.8c0.6-1.2,1.1-2.4,1.7-3.5c0.3-0.6,0.5-1.1,0.8-1.7c1-2.1,2-4.1,3.1-6.1c0.2-0.5,0.5-0.9,0.7-1.4
		c1.2-2.2,2.3-4.4,3.5-6.6c0.2-0.3,0.3-0.6,0.5-0.9c2.1-3.9,4.4-7.7,6.7-11.5c0,0,0,0,0,0l52.3,32.7c-9.7,16-17.7,33.1-23.9,51.1
		l-59-18.2C976.4,1083,976.5,1082.9,976.5,1082.9z M961,1159.4c0-0.3,0-0.6,0.1-0.9c0.2-2,0.3-4,0.5-6c0-0.4,0.1-0.8,0.1-1.2
		c0.3-2.4,0.5-4.8,0.8-7.2c0.1-0.5,0.1-1,0.2-1.6c0.3-2.3,0.6-4.5,1-6.8c0.1-0.5,0.2-1.1,0.3-1.6c0.4-2.3,0.7-4.5,1.2-6.8
		c0.1-0.5,0.2-0.9,0.3-1.4c0.4-2.3,0.9-4.7,1.4-7c0.1-0.4,0.2-0.8,0.2-1.1c0.5-2.4,1.1-4.9,1.6-7.3c0.1-0.3,0.1-0.5,0.2-0.8
		c0.6-2.6,1.3-5.1,1.9-7.7c0-0.1,0.1-0.2,0.1-0.3c0.7-2.6,1.4-5.1,2.1-7.6c0-0.1,0.1-0.3,0.1-0.4l58.9,18.2
		c-4.9,16.8-8.2,34.3-9.7,52.3l-61.5-3.2C960.9,1160.4,960.9,1159.9,961,1159.4z M965.3,1244.4c-0.4-2.4-0.9-4.9-1.3-7.3
		c-0.2-1.2-0.4-2.5-0.6-3.8c-0.2-1.4-0.4-2.7-0.6-4.1c-0.2-1.3-0.3-2.5-0.5-3.8c-0.2-1.4-0.3-2.8-0.5-4.1c-0.1-1.3-0.3-2.5-0.4-3.8
		c-0.1-1.4-0.3-2.9-0.4-4.3c-0.1-1.2-0.2-2.4-0.3-3.6c-0.1-1.5-0.2-3.1-0.3-4.6c-0.1-1.1-0.1-2.2-0.2-3.3c-0.1-1.7-0.1-3.5-0.2-5.3
		c0-0.9-0.1-1.9-0.1-2.8c-0.1-2.7-0.1-5.4-0.1-8.1c0-2.3,0-4.6,0.1-6.9c0.1-2.2,0.1-4.4,0.2-6.6l61.5,3.2c-0.1,3.4-0.2,6.8-0.2,10.3
		c0,15.8,1.4,31.2,4.1,46.3L965.3,1244.4C965.3,1244.5,965.3,1244.5,965.3,1244.4z M986,1313.1c-0.2-0.5-0.5-1.1-0.7-1.7
		c-0.8-2-1.6-3.9-2.4-5.9c-0.2-0.6-0.5-1.2-0.7-1.8c-0.8-2-1.6-4.1-2.3-6.1c-0.2-0.5-0.3-0.9-0.5-1.4c-1.4-3.9-2.8-7.9-4.1-11.9
		c-1.3-4-2.5-8-3.6-12.1c0,0,0,0,0,0c-0.7-2.7-1.5-5.4-2.1-8.1c0-0.1-0.1-0.3-0.1-0.4c-0.3-1.4-0.7-2.7-1-4.1
		c-0.3-1.4-0.6-2.7-0.9-4.1l60.3-12.7c3.9,17.6,9.6,34.6,16.9,50.7l-55.4,27C988.2,1318,987,1315.5,986,1313.1z M1018.9,1331.6
		l-0.2,0.4c-0.2,0.4-0.4,0.8-0.6,1.2c-0.4,0.8-0.8,1.6-1.2,2.5l-0.2,0.4c-0.1,0.3-0.3,0.5-0.4,0.8c-0.5,1.1-1,2.2-1.5,3.3
		c-0.1,0.3-0.2,0.6-0.3,0.8l-0.2,0.5c-0.3,0.8-0.7,1.7-1,2.5c-0.2,0.5-0.4,1-0.6,1.5c-0.3,0.8-0.6,1.7-0.9,2.5
		c-0.2,0.5-0.4,1-0.6,1.5c-0.3,0.9-0.6,1.9-1,2.8l-0.1,0.4c-0.1,0.3-0.2,0.6-0.3,0.9c-0.3,1-0.6,2-0.9,3c-1-1.6-2-3.3-3-4.9
		c-0.2-0.4-0.4-0.7-0.6-1.1c-1.2-1.9-2.3-3.9-3.4-5.8c-0.1-0.2-0.3-0.5-0.4-0.7c-1.2-2.1-2.4-4.3-3.6-6.5c0-0.1-0.1-0.1-0.1-0.2
		c-1.2-2.2-2.3-4.5-3.5-6.7c0-0.1-0.1-0.2-0.1-0.3l37.1-18.1c-0.5,0.6-1,1.2-1.4,1.9l-0.4,0.5c-0.5,0.7-1,1.4-1.5,2l-0.2,0.3
		c-1.1,1.6-2.2,3.2-3.2,4.8l-0.1,0.1c-0.3,0.5-0.6,1-0.9,1.5l-0.3,0.5c-0.2,0.3-0.4,0.6-0.6,1c-0.3,0.6-0.7,1.1-1,1.7
		c-0.3,0.5-0.6,1-0.9,1.5c-0.3,0.5-0.6,1.1-0.9,1.7C1019.5,1330.4,1019.2,1331,1018.9,1331.6z M1059,1418.3c-1.5-1.5-3-2.9-4.5-4.4
		c-12.6-12.7-24.1-26.2-34.3-40.4l0.3-1.3c5.4-24.9,16.2-45.4,32.2-61c0.3-0.3,0.5-0.5,0.8-0.8l0.1-0.1c6.1-5.8,11.8-9.8,15.9-12.2
		c2.9,5.8,8.3,18.5,10.6,35.7c0.9,6.5,1.2,13.2,1,19.8c-0.5,15.9-4.2,31.6-11.1,46.7C1066.2,1406.2,1062.5,1412.4,1059,1418.3z
		 M1267.1,1508.1c-72.9-3.5-141.3-31-196.1-78.8l0.1-0.2c4.5-6.8,8.5-13.8,11.8-20.8c7.2-11.2,14.6-21.8,22.1-31.5l0.5-0.7
		c11.5-14.7,22.9-26.9,33.9-36.2c16.2-13.7,31.2-21.1,44.7-21.9c13.9,0.9,36.7,4.1,55.7,10.5c16.2,5.4,35.5,15.2,35.5,30.8
		c0,10.9-4.6,23.1-9.8,35.7c-0.6,1.5-1.2,3-1.9,4.5c-5.6,13.6-12,28.9-14.2,45.2C1246.2,1467.9,1252,1488.6,1267.1,1508.1z
		 M1282.9,1337.8c-6.2-8-16.1-14.8-29.6-20.4c3.9,0.4,7.5-0.2,10.7-1.7c1.1-0.5,2.2-1.2,3.2-1.9c0.1,0.1,0.2,0.3,0.3,0.4
		c3.2,4.4,9.3,7.5,15.8,8.1l0.1,0l0.1,0c6.1-0.6,11.1-3.4,14.6-8.1c0.1-0.1,0.2-0.3,0.3-0.4c1,0.8,2.1,1.4,3.2,1.9
		c3.2,1.5,6.8,2.1,10.7,1.7C1299.1,1323,1289.1,1329.8,1282.9,1337.8z M1298.7,1508.1c15.1-19.5,20.9-40.2,17.7-63.3
		c-2.3-16.3-8.6-31.7-14.2-45.2c-0.6-1.5-1.3-3-1.9-4.5c-5.2-12.6-9.8-24.8-9.8-35.7c0-15.6,19.3-25.4,35.5-30.8
		c19-6.4,41.8-9.6,55.7-10.5c13.5,0.8,28.6,8.2,44.7,21.9c11,9.3,22.4,21.5,33.8,36.2l0.5,0.7c7.5,9.6,14.9,20.2,22.1,31.5
		c3.3,7,7.3,14,11.8,20.8l0.1,0.2C1440,1477.1,1371.6,1504.6,1298.7,1508.1z M1511.4,1413.9c-1.5,1.5-3,2.9-4.5,4.4
		c-3.4-6-7.1-12.1-11-18.1c-6.9-15.1-10.6-30.8-11.1-46.7c-0.2-6.4,0.1-12.9,0.9-19.2c2.2-17.3,7.8-30.3,10.7-36.2
		c4.1,2.5,9.8,6.4,15.9,12.3c20.5,19.6,29.4,44.4,33.2,61.8l0.3,1.3C1535.5,1387.7,1524,1401.3,1511.4,1413.9z M1571.8,1330.4
		c-1.2,2.3-2.4,4.7-3.6,7c0,0.1-0.1,0.2-0.1,0.3c-1.2,2.1-2.3,4.3-3.5,6.4c-0.1,0.3-0.3,0.5-0.4,0.8c-1.1,1.9-2.2,3.9-3.4,5.8
		c-0.2,0.4-0.4,0.8-0.7,1.1c-1,1.6-2,3.3-3,4.9c-0.3-1-0.6-2-0.9-3c-0.1-0.3-0.2-0.6-0.3-0.9l-0.1-0.4c-0.3-1-0.6-1.9-1-2.8
		c-0.2-0.5-0.4-1-0.6-1.5c-0.3-0.9-0.6-1.7-1-2.5c-0.2-0.5-0.4-1-0.6-1.5c-0.3-0.8-0.7-1.6-1-2.5l-0.2-0.5c-0.1-0.3-0.2-0.6-0.4-0.9
		c-0.4-1-0.9-2-1.3-2.9c-0.2-0.4-0.4-0.9-0.6-1.3c-0.4-0.9-0.9-1.8-1.3-2.8c-0.2-0.4-0.4-0.8-0.6-1.1l-0.2-0.4
		c-0.3-0.6-0.6-1.2-0.9-1.8c-0.3-0.6-0.6-1.1-0.9-1.7c-0.3-0.5-0.5-1-0.8-1.5c-0.3-0.6-0.7-1.2-1-1.8c-0.2-0.3-0.4-0.7-0.6-1
		l-0.2-0.3c-0.4-0.6-0.7-1.2-1.1-1.7l-0.3-0.5c-1.5-2.4-3.1-4.7-4.8-6.9l-0.2-0.3c-0.5-0.7-1-1.3-1.5-1.9L1571.8,1330.4
		L1571.8,1330.4z M1598.9,1253.2c-0.5,2.1-0.9,4.2-1.4,6.3c-0.1,0.4-0.2,0.8-0.3,1.3c-0.5,2-1,4.1-1.5,6.1c-0.1,0.3-0.2,0.7-0.3,1
		c-0.5,1.9-1,3.7-1.5,5.6c-0.1,0.3-0.2,0.6-0.3,0.9c-0.6,2-1.1,4-1.7,5.9c-0.1,0.5-0.3,0.9-0.4,1.4c-0.6,2-1.2,3.9-1.9,5.9
		c-0.1,0.2-0.2,0.4-0.2,0.7c-0.6,1.8-1.2,3.5-1.8,5.3c-0.2,0.5-0.4,1-0.5,1.5c-0.7,1.8-1.3,3.7-2,5.5c-0.2,0.5-0.4,1-0.6,1.6
		c-0.6,1.6-1.2,3.1-1.8,4.6c-0.2,0.4-0.4,0.9-0.5,1.3c-0.7,1.8-1.5,3.5-2.2,5.3c-0.3,0.6-0.5,1.2-0.8,1.8c-0.8,1.7-1.5,3.4-2.3,5.2
		l-55.5-27c7.7-17.1,13.7-35.2,17.6-54l60.5,11.9C1599.2,1251.8,1599,1252.5,1598.9,1253.2z M1605.9,1193.3c0,1-0.1,2-0.1,2.9
		c-0.1,1.6-0.1,3.2-0.2,4.7c-0.1,1.2-0.1,2.5-0.2,3.7c-0.1,1.2-0.2,2.4-0.2,3.6c-0.1,1.5-0.2,3-0.3,4.4c-0.1,0.6-0.1,1.2-0.2,1.8
		c-0.6,6.3-1.3,12.6-2.2,18.8c0,0,0,0.1,0,0.1c-0.3,2.2-0.7,4.4-1,6.6c0,0,0,0.1,0,0.1l-60.5-11.9c2.3-13.9,3.5-28.2,3.5-42.8
		c0-3.5-0.1-6.9-0.2-10.4l61.5-3.2c0,0.1,0,0.2,0,0.3c0.1,2.1,0.2,4.2,0.2,6.3c0,2.3,0.1,4.6,0.1,7
		C1606,1188.1,1605.9,1190.7,1605.9,1193.3z"/>
	<g>
		<path d="M861.8,1145.3c19,0.4,32.8,15.4,32.4,33.1l-0.6,28.3l-11.9-0.3l0.1-5.7l-42.4-0.9l-0.1,5.7l-12-0.3l0.6-28.3
			C828.3,1157.9,842.7,1144.9,861.8,1145.3z M882.1,1185.2l0.1-4.9c0.3-14.1-10.2-19.2-20.8-19.5c-10.7-0.2-21.3,5.8-21.6,18.6
			l-0.1,4.9L882.1,1185.2z"/>
		<path d="M879.3,1079.9l26.2,8.4l-10.2,54.8l-11.6-2.2l1.1-5.9l-42-7.8l-1.1,5.9l-11.6-2.2l9.5-51.3l23.2-1.7l-2.2,11.7
			c-4.9,0.3-10.9,0.4-12.2,7.3l-2.8,15.2l14,2.6l1.5-8.2l-4.7-0.9l2.2-11.6l21,3.9l-2.2,11.6l-4.7-0.9l-1.5,8.2l16.3,3l3.5-18.7
			c0.6-3.4-7.1-7.3-13.9-9.8L879.3,1079.9z"/>
		<path d="M918.1,1017.7l2.1-5.6l11,4.1l-10,26.6l-11-4.1l-24.7,8.5l18.9,7.1l2.1-5.6l11,4.1l-9.6,25.4l-11-4.1l2.1-5.6l-40-15.1
			l-2.1,5.6l-11-4.1l9.6-25.4l11,4.1l-2.1,5.6l10,3.8l-6.9-21.7l-7.8-2.9l8.4-22.1l11,4.1l-2.5,6.7c-0.6,1.6,0.3,2.6,1.4,6.8
			c1.3,2.9,4.4,11.8,6,17.4l28.8-9.4C914.9,1021.1,917.3,1020,918.1,1017.7z"/>
		<path d="M896,946.1c0,0,56.1,8,58.6,8.1l3.7-6.1l10.1,6.2l-14.2,23.3l-10-6.1l1.8-3c-2.6-0.3-5.1-0.7-7.9-0.9l-9.7,16l4.8,6l1.8-3
			l10,6.1l-12.3,20.1l-10.1-6.2l3.7-6.1c-4.9-5.6-34.8-47.2-34.8-47.2l4.5-7.4L896,946.1z M925.9,965l-14.1-2.1l8.5,11.3L925.9,965z
			"/>
		<path d="M985,898l7.9-8.9l16.3,19.2l-36.9,41.7l-8.9-7.9l4.7-5.3l-31.8-28.1l-4.7,5.3l-8.9-7.9l18.9-21.3l8.9,7.9l-4.8,5.4
			l31.8,28.1l11.8-13.3c4.5-5-1.2-11.1-1.2-11.1L985,898z"/>
		<path d="M1040.4,853.7c6.8,8.1,8.1,20.8-4.5,31.4l-21.7,18.1l-7.5-9l4.5-3.8l-27.2-32.6l-4.5,3.8l-7.6-9.1l19.9-16.6
			c11.8-9.8,23.3-7,29.3,0.1c3,3.6,4.3,7.1,4,10.4C1030.2,847,1035.8,848.3,1040.4,853.7z M995.7,848l9,10.8l3.6-3
			c3.6-3,3.1-7.2,0.9-9.9c-2.2-2.7-6.3-4-9.9-1L995.7,848z M1029.3,864.4c-3-3.6-8-4-11.6-1l-5.4,4.6l10.6,12.7
			c1.5-1.3,3-2.5,5.4-4.6C1031.9,873.1,1032.4,868,1029.3,864.4z"/>
		<path d="M1114.4,813.3c1.9,8.5,1.8,20.9-14.2,29.5c-15.8,8.5-34.2,2-43.3-14.8c-9.8-18.1-4.5-35.8,11.3-44.4
			c5.4-2.9,10.2-4.1,13-4.1l-1.7-3.2l10.6-5.7l12.6,23.2l-10.6,5.7l-1.8-3.2c-2.2-4.2-8.8-6.1-16.3-2.1c-5.2,2.8-10.3,11-2.3,25.8
			c7.4,13.7,17.6,15,22.8,12.2c8.6-4.6,8.7-14.3,8.1-15.4L1114.4,813.3z"/>
		<path d="M1174.3,776.6c8.3,24-4.9,37.6-18.7,42.4c-14.8,5.2-33,1.2-41-21.6c-7.6-21.9,3.8-37.5,18.7-42.6
			C1147.1,749.9,1166.3,753.6,1174.3,776.6z M1158.3,782.2c-4.4-12.7-13-18.7-21.1-15.9c-9.1,3.2-12,13.2-7.6,25.9
			c4.3,12.5,12.9,18.6,22,15.4C1159.7,804.8,1162.7,794.7,1158.3,782.2z"/>
		<path d="M1211.3,736.1l24.3-4.3l2,11.5l-7,1.2l4.9,28.2c2.8,16.2-3.7,27.1-18.7,29.7c-16.3,2.9-28.5-4.7-31.5-22.1l-4.7-27l-5.9,1
			l-2-11.5l28-4.9l2,11.5l-6.9,1.2l4.7,27c2.7,15.2,11.9,13.6,14.3,13.2c3.5-0.6,12.8-2.2,10.1-17.4l-4.7-27
			c-1.2,0.2-6.9,1.2-6.9,1.2L1211.3,736.1z"/>
		<path d="M1293.7,730.6l24.9,0.4l-0.2,11.8l-6-0.1l-0.9,54.5l-9.5-0.2l-30.2-41.9l-0.5,29.6c1.2,0,7.2,0.1,7.2,0.1l-0.2,11.8
			l-24.9-0.4l0.2-11.8l7.1,0.1l0.7-42.7l-7.1-0.1l0.2-11.8l21.2,0.3l24.4,35.9l0.4-23.7l-7.1-0.1L1293.7,730.6z"/>
		<path d="M1391.8,742.6l2.9,23.5l-11.6-2.2l-0.5-3.7c-0.8-2.5-2.3-7.5-3.5-7.8l-7.1-1.3l-7.8,41.9l6,1.1l-2.2,11.7l-26.9-5
			l2.2-11.7l5.9,1.1l7.8-41.9l-5.9-1.1c-2.3-0.4-5.6,3.8-7.1,5.8l-1.8,3.3l-11.6-2.2l11.2-20.8L1391.8,742.6z"/>
		<path d="M1446.4,768.3l2.5-6.7l19.9,7.4l-4.1,11l-5.5-2c0,0-1.5,0.8-21.1,16.1c-1.5,0.8-2.3,3-2.8,4.2l-5.3,14.2l5.4,2l-4.2,11.2
			l-25.5-9.5l4.2-11.2l5.6,2.1l5.3-14.2c0.7-1.8,0.7-4.1,0.6-5c-4.8-24.4-5.5-26-5.5-26l-5.5-2l4.1-11l23.2,8.6l-4.1,11l-1.2-0.4
			l3.1,12.6l9.2-8L1446.4,768.3z"/>
		<path d="M1471.1,835.6c-2.7,5.2-7.9,7.9-13.2,7.8l-8,0l1.1-10.1l4.8-1.4c-0.5-1.7,0-2.8,0.5-3.8c2.1-4.2,7-5.8,11.2-3.6
			C1471.8,826.6,1473.3,831.4,1471.1,835.6z"/>
		<path d="M1525.6,800.4l22.5,15.2l-6.6,9.8l-4.9-3.3l-23.8,35.3l4.9,3.3l-6.6,9.7l-22.5-15.2l6.6-9.7l4.9,3.3l23.8-35.3l-4.9-3.3
			L1525.6,800.4z"/>
		<path d="M1591,850.5l18.6,16.6l-7.9,8.8l-4.4-4l-36.3,40.7l-7.1-6.3l4.6-51.5l-19.7,22.1c0.9,0.8,5.4,4.8,5.4,4.8l-7.9,8.8
			l-18.6-16.6l7.9-8.8l5.3,4.7l28.4-31.8l-5.3-4.7l7.9-8.8l15.8,14.1l-5,43.1l15.7-17.7l-5.3-4.7L1591,850.5z"/>
		<path d="M1632.7,947.5c-14.9,11.8-35.1,9.1-46.1-4.8l-17.6-22.2l9.3-7.4l3.5,4.4l33.2-26.4l-3.5-4.4l9.4-7.5l17.6,22.2
			C1650.5,916.4,1647.6,935.6,1632.7,947.5z M1591.6,929.7l3.1,3.9c8.8,11,20.1,8.3,28.4,1.7c8.4-6.6,12.7-18.1,4.8-28.1l-3.1-3.9
			L1591.6,929.7z"/>
		<path d="M1663.4,935.6l14.2,23.1l-10.1,6.2l-3.1-5.1l-36.3,22.3l3.1,5.1l-10,6.2l-14.2-23.1l10-6.2l3.1,5.1l36.3-22.3l-3.1-5.1
			L1663.4,935.6z"/>
		<path d="M1701.4,1006.6c0,0-38.7,41.3-40.3,43.4l2.8,6.5l-10.8,4.7l-10.9-25l10.7-4.7l1.4,3.2c1.7-2,3.5-3.8,5.3-5.9l-7.5-17.2
			l-7.7,0.5l1.4,3.2l-10.7,4.7l-9.4-21.6l10.8-4.7l2.8,6.5c7.4-0.8,58.7-1.4,58.7-1.4l3.5,8L1701.4,1006.6z M1668.7,1020.2l9.8-10.4
			l-14.1,0.5L1668.7,1020.2z"/>
		<path d="M1727.5,1087.7l5.7,24.2l-11.5,2.7l-1.4-5.8l-53.1,12.5l-2.2-9.2l33.3-39.5l-28.8,6.8c0.3,1.2,1.6,7,1.6,7l-11.5,2.7
			l-5.7-24.2l11.5-2.7l1.6,6.9l41.5-9.8l-1.6-6.9l11.5-2.7l4.9,20.6l-28.8,32.5l23-5.4l-1.6-6.9L1727.5,1087.7z"/>
		<path d="M1737.6,1167.5c0,0-50.9,24.7-53.2,26.1l0.3,7.1l-11.8,0.6l-1.3-27.2l11.7-0.5l0.2,3.5c2.3-1.2,4.6-2.3,7-3.6l-0.9-18.7
			l-7.3-2.3l0.2,3.5l-11.7,0.5l-1.1-23.5l11.8-0.6l0.3,7.1c7.2,1.9,55.3,19.7,55.3,19.7l0.4,8.7L1737.6,1167.5z M1702.2,1168.6
			l12.9-6.2l-13.4-4.6L1702.2,1168.6z"/>
	</g>
</g>
</svg>
