<?xml version="1.0" encoding="utf-8"?>
<!-- Generator: Adobe Illustrator 21.0.2, SVG Export Plug-In . SVG Version: 6.00 Build 0)  -->
<svg version="1.1" id="Layer_1" xmlns="http://www.w3.org/2000/svg" xmlns:xlink="http://www.w3.org/1999/xlink" x="0px" y="0px"
	 viewBox="0 0 313.7 48.6" style="enable-background:new 0 0 313.7 48.6;" xml:space="preserve">
<style type="text/css">
	.st0{fill:#FFFFFF;}
</style>
<g>
	<path class="st0" d="M35.6,30.5v12.6c0,3.2-2.6,5.5-5.7,5.5H5.5c-3.1,0-5.5-2.4-5.5-5.5V5.5C0,2.5,2.4,0,5.5,0H30
		c3.1,0,5.7,2.5,5.7,5.5V18H23.1v-6.8c0-0.4-0.4-0.8-0.6-0.8h-9.1c-0.4,0-0.8,0.4-0.8,0.8v26.1c0,0.4,0.4,0.7,0.8,0.7h9.1
		c0.3,0,0.6-0.3,0.6-0.7v-6.9H35.6z"/>
	<path class="st0" d="M77.8,0c3.4,0,5.7,2.3,5.7,5.7v37.2c0,3.4-2.3,5.7-5.7,5.7h-25c-3.4,0-5.7-2.3-5.7-5.7V5.7
		c0-3.4,2.3-5.7,5.7-5.7H77.8z M70.9,11.3c0-0.4-0.4-0.8-0.8-0.8h-9.9c-0.3,0-0.6,0.4-0.6,0.8v26.1c0,0.4,0.4,0.6,0.6,0.6h9.9
		c0.4,0,0.8-0.3,0.8-0.6V11.3z"/>
	<path class="st0" d="M108.4,21.9v26.7H96.8V0h11.5l14.5,26.8V0h11.5v48.6h-11.9L108.4,21.9z"/>
	<path class="st0" d="M178.3,0v10.5h-11v38.1h-12.5V10.5h-11V0H178.3z"/>
	<path class="st0" d="M223.2,48.6h-12.5V36.5h-11v12.1h-12.5V5.7c0-3.4,2.3-5.7,5.7-5.7h24.7c3.4,0,5.7,2.3,5.7,5.7V48.6z M210.7,26
		V11.4c0-0.9-0.7-1.4-1.7-1.4h-7.8c-0.9,0-1.5,0.6-1.5,1.4V26H210.7z"/>
	<path class="st0" d="M271.8,30.5v12.6c0,3.2-2.6,5.5-5.7,5.5h-24.4c-3.1,0-5.5-2.4-5.5-5.5V5.5c0-3,2.4-5.5,5.5-5.5h24.4
		c3.1,0,5.7,2.5,5.7,5.5V18h-12.5v-6.8c0-0.4-0.4-0.8-0.6-0.8h-9.1c-0.4,0-0.8,0.4-0.8,0.8v26.1c0,0.4,0.4,0.7,0.8,0.7h9.1
		c0.3,0,0.6-0.3,0.6-0.7v-6.9H271.8z"/>
	<path class="st0" d="M313.7,0v10.5h-11v38.1h-12.5V10.5h-11V0H313.7z"/>
</g>
</svg>
