<?xml version="1.0" encoding="utf-8"?>
<!-- Generator: Adobe Illustrator 22.0.1, SVG Export Plug-In . SVG Version: 6.00 Build 0)  -->
<svg version="1.1" id="Layer_1" xmlns="http://www.w3.org/2000/svg" xmlns:xlink="http://www.w3.org/1999/xlink" x="0px" y="0px"
	 viewBox="0 0 300 250" style="enable-background:new 0 0 300 250;" xml:space="preserve">
<style type="text/css">
	.st0{fill:#DE2F26;}
	.st1{fill:#FFFFFF;}
</style>
<rect y="0" class="st0" width="300" height="250"/>
<path class="st1" d="M276.5,100.9c-1.1,2.4-6,15-15.4,19.8l8.9-34.6c0,0-1.5-4.4-9.2,1.2c0,0-7.7,23.9-11.9,28.1
	c-1.5,1.5-8.5,9.6-6.8-3l5.9-21.6c0,0,1.4-6.4-8.9-0.1c0,0-5.9,26.4-14.5,30.7c0,0-7.1,7.6-0.8-17.7c0,0,8.6-29.7,11-35.1
	c0,0-2.9-3.9-9.4,1.5l-8,22.7c0,0-21.7-1.1-27.9,26.5c0,0-6.9,10.9-9.2,10.2s-1.8-2-1.2-5.2c0.6-3.3,4.5-17,4.5-17
	s2.6-13.1-11.3-7.6c0,0-5.9,3.8-9.5,8.3l1.1-5c0,0-1.1-4.8-9.4,0.7l-4.6,16.4c0,0-6.6,14.8-11.3,15.4c0,0-4.2,3.4-1.2-9
	c0,0,4.8-18.7,5.7-19.9c0,0-1.1-5-9.4,1.3l-7.1,20.7c0,0-14.8,23.2-11,1.4c0,0,3.9-16.6,5.1-18.3c0,0,2.9-7.2-9.1,0.1l-5.3,18.3
	c0,0-5.3,11-12.1,12.6c0,0-6.8,2.6-1.1-11.5c0,0,2.7-5.1,3.8-6c0,0,4.7-3.9-2.4-9.6l-6-5.1c0,0,2-8.3-3.8-6.8c0,0-6.9,3.4-2.9,10.6
	c0,0-8.8,34.6-23.4,38.7c2.4-9,5.1-19.5,5.1-19.5s3.6-6.9-7.7-1.8c0,0-5.4,22.1-22.6,18.1c0,0-10.4-8.3,0.9-31.2
	c0,0,6.6-13.9,14.3-16.5c0.8-0.3,1.6-0.5,2.3-0.7l-1.6,6.2l-1.7,6.3c0,0-1.8,8.7,2.7,8.3c4.5-0.4,9.7-3.6,12.7-6.8
	c3-3.2,6-8,5.6-12.2c-0.5-4.2-3.6-7.1-6.3-8.7c-0.8-0.5-2.8-0.8-5.5-0.6c0.4-1.8,0.7-3.2,0.8-3.4c0.3-0.7,0.9-4.3-3.2-3.2l-1.9,7.3
	c-5.7,1.4-13.2,5-20.5,13.4l-3.8,4.6c0,0-13.9,21.7-6.2,38.4c7.7,16.7,26.7,0.7,28.7-2.7c0.9-1.7-0.3,3.5-1.8,9.3
	c-4.1,2-8.7,4.4-11.8,6.2c-6.8,4.1-8.4,11.9-7.5,13.9c0.9,2,2.6,6.8,12.5,4.5c10-2.3,12.1-14.9,12.8-16.6c0.2-0.5,1-3.2,1.9-6.7
	c4.5-2.4,8.7-4.7,11.1-7.2c6.4-6.8,14.6-18.2,17.1-34.3l3.8,3c0,0,2.6,0.4-2.9,8.1l-3.8,7.7c0,0-5.1,12.4,6.6,13
	c11.8,0.6,14.8-10,15.7-10c0,0-0.2,13.4,15.4,4c0,0,7.1-5.9,8.6-9.8c0,0-2,12.4,8.8,8.1c0,0,6.6-4.8,8.6-8.3c2-3.5-2.7,5.6-0.9,6.2
	c1.8,0.6,6.5,1.8,9.4-1.8l5.3-20.3c0,0,3.6-7.4,10.6-10.9c0,0,5-2.1,1.5,9.1c-3.8,12.4-3.2,12.4-3.2,12.4s-1.2,12.7,10,7
	c0,0,5-1.4,10-9.1c0,0,3.3,9.6,10.3,6.5c0,0,6.8,0.3,13.1-12c0,0,0,11.3,8.3,8c0,0,3.3,0.8,11.6-10.4c0,0-0.8,10.5,9.1,7.9
	c0,0,6.3-1,13.4-11.6l-2.9,11.3c0,0-19,7.2-19.3,19.1c0,0,2,10,13.7,4.6c0,0,10-3.5,12.8-21.6c0,0,17.8-12,21-26.6
	C280,101,277.5,98.5,276.5,100.9z M59.5,104.4c0.2,2.3,0.2,4.2-5.5,8.7c-1.2,1-2.3,2.9,0.2-5.9c0,0,0.6-3,1.4-6.5
	C58.3,100.6,59.3,101.8,59.5,104.4z M45.6,171c0,0-3,4.9-5.7,5.3c-2.7,0.4-3.2-2.8,0.3-7.6c1.1-1.6,4-3.3,7.5-5
	C46.5,167.7,45.6,171,45.6,171z M205,123.6c-8.9,7.7-5.7-8.1-5.7-8.1c5.9-17.7,16.3-15.7,16.3-15.7S213.9,115.8,205,123.6z
	 M245.5,142.4c-3.1,3.4-6.1,1.1-4.1-2.7c2-3.8,8.3-7.7,8.3-7.7C249.5,134.6,248.6,139,245.5,142.4z"/>
<g>
	<path class="st1" d="M117.7,169.2l-7-15.6l4.8-0.8l3.3,8.8c0,0.1,0.1,0.3,0.2,0.7c0.1,0.4,0.2,0.8,0.4,1.5c0.1-0.5,0.2-1,0.3-1.4
		c0.1-0.4,0.2-0.7,0.2-0.9l3.3-9.9l4.8-0.8l-7,17.8L117.7,169.2z"/>
	<path class="st1" d="M129.6,167.3v-16.7l4.6-0.7v16.7L129.6,167.3z"/>
	<path class="st1" d="M137.9,166v-16.7l4.8-0.8c1.9-0.3,3.2-0.4,3.9-0.4c0.7,0.1,1.4,0.2,1.9,0.6c0.6,0.4,1.1,0.9,1.4,1.5
		c0.3,0.7,0.5,1.4,0.5,2.3c0,1.3-0.3,2.4-1,3.3s-1.6,1.6-2.8,2.1l4.6,6l-5.1,0.8l-3.8-5.9v6.5L137.9,166z M142.1,156.5l0.8-0.1
		c1-0.2,1.7-0.4,2.2-0.8c0.5-0.4,0.7-1,0.7-1.7c0-0.8-0.2-1.4-0.6-1.7c-0.4-0.3-1.1-0.4-2.1-0.2l-0.9,0.1V156.5z"/>
	<path class="st1" d="M160.8,156.2v-3.5l8.9-1.4c0,0.1,0,0.2,0,0.4c0,0.1,0,0.3,0,0.6c0,2.9-0.8,5.2-2.3,7c-1.5,1.8-3.7,3-6.4,3.4
		c-1.4,0.2-2.6,0.2-3.6,0s-2-0.7-2.8-1.4c-0.8-0.7-1.4-1.5-1.8-2.5c-0.4-1-0.7-2.1-0.7-3.3c0-1.2,0.2-2.4,0.6-3.5
		c0.4-1.1,1.1-2.2,1.9-3.1c0.8-0.9,1.8-1.7,2.9-2.3c1.1-0.6,2.3-1,3.5-1.2c1.6-0.3,3.1-0.2,4.3,0.3c1.3,0.4,2.3,1.2,3.2,2.4
		l-3.9,2.5c-0.5-0.6-1-1-1.6-1.2c-0.6-0.2-1.2-0.3-2-0.2c-1.4,0.2-2.4,0.8-3.2,1.9c-0.8,1-1.2,2.3-1.2,3.9c0,1.6,0.4,2.8,1.2,3.6
		c0.8,0.8,1.9,1.1,3.2,0.9c1.2-0.2,2.1-0.6,2.9-1.3c0.8-0.7,1.2-1.5,1.4-2.5L160.8,156.2z"/>
	<path class="st1" d="M172.6,160.5v-16.7l4.6-0.7v16.7L172.6,160.5z"/>
	<path class="st1" d="M180.9,159.2v-16.7l4.4-0.7l6.3,7.6c0.1,0.2,0.3,0.5,0.6,1c0.3,0.5,0.6,1.1,0.9,1.7c-0.1-0.7-0.2-1.3-0.2-1.8
		c0-0.5-0.1-1-0.1-1.4v-8.2l4.4-0.7v16.7l-4.4,0.7l-6.3-7.6c-0.1-0.2-0.3-0.5-0.6-1s-0.6-1.1-0.9-1.7c0.1,0.7,0.2,1.3,0.2,1.8
		c0,0.5,0.1,1,0.1,1.4v8.2L180.9,159.2z"/>
	<path class="st1" d="M200.9,156v-16.7l4.6-0.7v16.7L200.9,156z"/>
	<path class="st1" d="M207.2,155l5.8-17.6l5.7-0.9l5.8,15.8l-4.5,0.7l-0.8-2.9l-6.5,1l-0.9,3.1L207.2,155z M213.6,147.8l4.5-0.7
		l-1.7-5.2c-0.1-0.2-0.1-0.4-0.2-0.8c-0.1-0.4-0.2-0.8-0.4-1.4c-0.1,0.4-0.2,0.8-0.3,1.2c-0.1,0.4-0.2,0.8-0.3,1.1L213.6,147.8z"/>
</g>
</svg>
