<?xml version="1.0" encoding="utf-8"?>
<!-- Generator: Adobe Illustrator 22.0.1, SVG Export Plug-In . SVG Version: 6.00 Build 0)  -->
<svg version="1.1" id="Layer_1" xmlns="http://www.w3.org/2000/svg" xmlns:xlink="http://www.w3.org/1999/xlink" x="0px" y="0px"
	 viewBox="0 0 300 250" style="enable-background:new 0 0 300 250;" xml:space="preserve">
<style type="text/css">
	.st0{fill:#C2DCF3;}
	.st1{fill:#0B8857;stroke:#231F20;stroke-width:4.1472;stroke-miterlimit:10;}
	.st2{fill:#1EB473;stroke:#231F20;stroke-width:4.1472;stroke-miterlimit:10;}
	.st3{fill:#592B16;stroke:#231F20;stroke-width:4.1472;stroke-miterlimit:10;}
</style>
<rect class="st0" width="300" height="250"/>
<g>
	<path class="st1" d="M113.1,48.3c1.3-2.3,3.3-4.8,3.9-7.4l0-19.3c-0.8,0.3-1.5,0.6-2.3,0.9c-2.4,1.1-4.8,2.5-7.2,4.2
		c-1.4,1-2.8,2.2-4.1,3.5c-5.4,5.1-9.5,11.5-12,18.1c-2.1,5.5-3.2,11.2-3.1,16.6C99.1,63.5,108.3,57.1,113.1,48.3z"/>
	<path class="st2" d="M117,48.3c0-1.6,0-3,0-4.5l0-2.9c-0.7,2.6-2.6,5.1-3.9,7.4c-4.9,8.8-14,15.2-24.8,16.6
		c-1.5,0.2-3.1,0.3-4.7,0.3c-2.1,0,0.5,2.5-1.4,2.2c3,5.2,2.8,6.2,7.9,7.8c1.7,0.5,3.4,0.8,5.2,0.8c12,0,21.8-12.1,21.8-27.1
		C117.1,48.8,117.1,48.5,117,48.3z"/>
	<path class="st1" d="M52.8,67.6c-1.3-2.3-3.3-4.8-3.9-7.4l0-19.3c0.8,0.3,1.5,0.6,2.3,0.9c2.4,1.1,4.8,2.5,7.2,4.2
		c1.4,1,2.8,2.2,4.1,3.5c5.4,5.1,9.5,11.5,12,18.1c2.1,5.5,3.2,11.2,3.1,16.6C66.8,82.8,57.7,76.4,52.8,67.6z"/>
	<path class="st2" d="M48.9,67.6c0-1.6,0-3,0-4.5l0-2.9c0.7,2.6,2.6,5.1,3.9,7.4c4.9,8.8,14,15.2,24.8,16.6c1.5,0.2,3.1,0.3,4.7,0.3
		c2.1,0,0.5,1.6,2.4,1.3c-3,5.2-3.8,7.2-8.9,8.7c-1.7,0.5-3.4,0.8-5.2,0.8c-12,0-21.8-12.1-21.8-27.1C48.8,68.1,48.9,67.9,48.9,67.6
		z"/>
	<path class="st3" d="M203,64.6h-34.2h-15.6h-14.7c-2.1,0-3.8,1.7-3.8,3.8v43.4c0,2.8-2.9,4.6-5.4,3.5l-26.6-12
		c-1.4-0.6-2.2-2-2.2-3.5V68.5c0-2.1-1.7-3.8-3.8-3.8H70.1c-2.1,0-3.8,1.7-3.8,3.8v126.1c0,2.1,1.7,3.8,3.8,3.8h26.6
		c2.1,0,3.8-1.7,3.8-3.8v-48.9c0-2.8,2.9-4.6,5.4-3.5l26.6,12c1.4,0.6,2.2,2,2.2,3.5v36.9c0,2.1,1.7,3.8,3.8,3.8H165
		c2.1,0,3.8-1.7,3.8-3.8v-18.1c0-2.8,2.9-4.6,5.4-3.5l26.6,12c1.4,0.6,2.2,2,2.2,3.5v6.2c0,2.1,1.7,3.8,3.8,3.8h26.6
		c2.1,0,3.8-1.7,3.8-3.8V98.8V68.5c0-2.1-1.7-3.8-3.8-3.8H203z M197.6,146.1l-26.6-12c-1.4-0.6-2.2-2-2.2-3.5v-28
		c0-2.1,1.7-3.8,3.8-3.8h26.6c2.1,0,3.8,1.7,3.8,3.8v40C203,145.4,200.1,147.2,197.6,146.1z"/>
</g>
</svg>
