<?xml version="1.0" encoding="utf-8"?>
<!-- Generator: Adobe Illustrator 22.0.1, SVG Export Plug-In . SVG Version: 6.00 Build 0)  -->
<svg version="1.1" id="Layer_1" xmlns="http://www.w3.org/2000/svg" xmlns:xlink="http://www.w3.org/1999/xlink" x="0px" y="0px"
	 viewBox="0 0 300 250" style="enable-background:new 0 0 300 250;" xml:space="preserve">
<style type="text/css">
	.st0{fill:#D36627;}
	.st1{fill:none;}
</style>
<rect y="0" class="st0" width="300" height="250"/>
<g>
	<g>
		<path d="M98.1,61l-1-2.5L93,53.6l-0.5,0L89.6,56l0,0.5l4.1,4.9l2.2,1.4l-5.9,4.9l-1-2.5L78,52l-2.2-1.4l5.9-4.9l1,2.5l3.1,3.7
			l0.5,0l2.9-2.5l0-0.5l-3.1-3.7l-2.3-1.4l5.9-4.9l1,2.5l11,13.2L104,56L98.1,61z"/>
		<path d="M117.9,48.8l-12.3,6.4l-0.5-2.6l-7.9-15.3l-1.9-1.9l11.9-6.2l4.6,4.5l-2.9,0.4l-4.9,2.5l-0.1,0.4l1,2l0.4,0.1l1.8-1
			l1.8-1.8l3.1,5.9l-2.5,0.4l-1.8,1l-0.1,0.4l1.4,2.7l0.6,0.2l4.8-2.5l2.5-2.5L117.9,48.8z"/>
		<path d="M131.2,44.8l-4.2-6.3l-0.7-0.1l-1.7,0.5l-0.2,0.4l1.2,4.5l1.4,2.3l-7.4,2l0.1-2.7l-4.5-16.6l-1.4-2.2l13.4-3.6l5.1,2.9
			l1.6,6l-2,3.5l3.7,5.3l2.5,2.5L131.2,44.8z M127.1,30.1l-0.9-1.1l-1.4-0.3l-2.6,0.7l-0.2,0.4l1,3.9l0.4,0.2l2.6-0.7l1.1-0.9
			l0.3-1.4L127.1,30.1z"/>
		<path d="M139.1,43.4l0.6-2.6l-1.4-17.2l-1-2.5l7.8-0.6l-0.6,2.6l1.4,17.2l1,2.5L139.1,43.4z"/>
		<path d="M163.3,26.5l-2.5-0.2l-0.3,0.3l-1,13.4l0.9,3.4l-8.4-0.6l1.4-3.3l1-13.4l-0.3-0.3l-2.5-0.2l-3.4,0.9l2.6-6.2l14.2,1.1
			l1.6,6.5L163.3,26.5z"/>
		<path d="M174.6,46.6l1-2.4l0.1-2l-0.2-0.4l-5.1-1.4l-0.4,0.2l-1,1.7l-0.4,2.5l-7.1-2l1.9-2.1l9.1-15.8l0.1-2.1l10.4,2.9l-1,1.9
			l-0.5,18.3l0.5,2.8L174.6,46.6z M176.3,29.7l0.1-1.1l-0.5,1l-3.4,6.2l0.2,0.4l2.8,0.8l0.4-0.2L176.3,29.7z"/>
		<path d="M201.2,47.4l-2.3,4.2l-0.5,1.6l-5.6,1.7l-8.1-4.4l-1.7-5.6l6.5-12.1l6.1-1.8l9,4.8l-1.2,6.8l-2.8-2.9l-3.5-1.9l-2.1-0.1
			l-1.5,1l-3.5,6.5l0,1.4l0.8,1.2l1.8,1l1.3-0.4l1.7-3.2l0.1-3.2l7.4,4L201.2,47.4z"/>
		<path d="M207.9,66.6l-10.6-9l2.3-1.4l11.1-13.2l1-2.5l10.2,8.7l-2.4,5.9l-1.5-2.5l-4.2-3.5l-0.4,0.1l-1.4,1.7l0,0.5l1.6,1.3
			l2.3,0.9l-4.3,5.1l-1.3-2.2l-1.6-1.3l-0.5,0l-2,2.3l0.1,0.7l4.1,3.5l3.3,1.3L207.9,66.6z"/>
	</g>
	<g>
		<path d="M66,150.5l-1.2-5.2l-0.4-0.2l-2.5,0.6l-0.2,0.4l0.5,2l1.3,2.2l-6.5,1.5l0.2-2.5l-0.5-2l-0.4-0.2l-5.6,1.3l-2.6,1.6
			l-1.7-7.6l2.7,0.2l16.8-3.8l2.3-1.3l3,13.1l-5.5,3.3L66,150.5z"/>
		<path d="M57,173.4l-4.2-9l2-5.5l12.7-5.9l5.5,2l4.2,9l-2,5.5l-12.7,5.9L57,173.4z M70.1,164.9l0.9-1.1l0-1.4l-0.7-1.4l-1.1-0.9
			l-1.4,0l-7.5,3.5l-0.9,1.1l0,1.4l0.7,1.4l1.1,0.9l1.4,0L70.1,164.9z"/>
		<path d="M69.7,192.2l4.1-6.3l-0.1-0.7l-1.1-1.4l-0.4,0l-3.6,2.9l-1.5,2.2l-4.8-6l2.5-1l13.5-10.7l1.5-2.2l8.6,10.9l-0.7,5.8
			l-4.9,3.9l-4-0.5l-3.4,5.5l-1.3,3.3L69.7,192.2z M81.6,182.6l0.6-1.3l-0.3-1.4l-1.7-2.1l-0.4,0l-3.1,2.5l0,0.4l1.7,2.1l1.3,0.6
			l1.4-0.3L81.6,182.6z"/>
		<path d="M98.1,203.9l-3,3.7l-0.7,1.4l-5.8,0.7l-7.2-5.8l-0.7-5.8l8.5-10.7l6.3-0.7l8,6.4l-2.4,6.5l-2.2-3.4l-3.1-2.4l-2.1-0.4
			l-1.6,0.8l-4.6,5.7l-0.3,1.4l0.6,1.3l1.6,1.3l1.3-0.2l2.3-2.9l0.7-3.1l6.6,5.3L98.1,203.9z"/>
		<path d="M109.1,221.5l-12.4-6.2l1.9-1.9l7.7-15.4l0.4-2.6l12,6l-0.9,6.3l-2.1-2.1l-4.9-2.5l-0.4,0.2l-1,2l0.1,0.4l1.9,0.9l2.5,0.4
			l-3,6l-1.8-1.8l-1.9-0.9l-0.4,0.1l-1.4,2.7l0.2,0.6l4.8,2.4l3.5,0.5L109.1,221.5z"/>
		<path d="M136.3,228.6l-1.4-2l-2,1.4l-6.1-1l-3.2-4.4l0.9-5.3l5.9-4.2l-1.5-4.8l4-2.9l8.5,1.4l1,6.3l-3.5-1.9l-2.8-0.5l-0.4,0.3
			l2.3,7.5l0.6-0.9l0.9-2.3l5,0.8l0.5,0.7l-5.7,6l0.7,2.4l3.2,4.4L136.3,228.6z M131.8,217.5l-1.1,0.8l-0.6,0.9l-0.3,1.9l0.3,1
			l0.9,0.6l1.4,0.2l1-0.3L131.8,217.5z"/>
		<path d="M167,210.7l-5.3,0.7l-0.3,0.4l0.3,2.5l0.4,0.3l2.1-0.3l2.3-1.1l0.8,6.6l-2.5-0.5l-2.1,0.3l-0.3,0.4l0.7,5.7l1.3,2.7
			l-7.7,1l0.5-2.6l-2.2-17.1l-1.1-2.4l13.3-1.7l2.8,5.8L167,210.7z"/>
		<path d="M184.6,223.4l-0.5-2.5l-1-1.7l-0.4-0.2l-5,1.6l-0.2,0.4l0.1,2l1.1,2.3l-7,2.3l0.4-2.8l-1.2-18.2l-1.1-1.8l10.3-3.3
			l0.2,2.1L190,219l2,2L184.6,223.4z M176.6,208.4l-0.5-1l0.2,1.1l0.6,7l0.4,0.2l2.7-0.9l0.2-0.4L176.6,208.4z"/>
		<path d="M205.9,213l-5.7-4.9l-0.7,0.1l-1.5,0.9l-0.1,0.4l2.4,4l2,1.8l-6.6,3.9l-0.6-2.6l-8.9-14.8l-2-1.8l11.9-7.1l5.7,1.4
			l3.2,5.3l-1,3.9l5,4l3.1,1.7L205.9,213z M197.9,200l-1.2-0.8l-1.4,0.1l-2.3,1.4l-0.1,0.4l2.1,3.4l0.4,0.1l2.3-1.4l0.8-1.2
			l-0.1-1.4L197.9,200z"/>
		<path d="M224.9,197.4l-6.7-3.5l-0.7,0.2l-1.3,1.2l0,0.5l3.2,3.3l2.4,1.3l-5.5,5.4l-1.2-2.4l-12.1-12.3l-2.4-1.3l9.9-9.7l5.9,0.1
			l4.4,4.4l0,4.1l5.8,2.8l3.4,0.9L224.9,197.4z M214.1,186.6l-1.3-0.5l-1.4,0.4l-1.9,1.9l0,0.5l2.8,2.9l0.5,0l1.9-1.9l0.5-1.3
			l-0.4-1.4L214.1,186.6z"/>
		<path d="M232.8,188.3l-1.6-2.1l-14.1-9.9l-2.5-0.8l4.5-6.4l1.6,2.1l14.1,9.9l2.5,0.8L232.8,188.3z"/>
		<path d="M246.6,164.4l-6.1,12.5l-1.9-1.8l-15.5-7.5l-2.6-0.4l5.9-12l6.3,0.8l-2.1,2.1l-2.4,4.9l0.2,0.4l2,1l0.4-0.1l0.9-1.9
			l0.3-2.5l6,2.9l-1.8,1.8l-0.9,1.9l0.1,0.4l2.7,1.3l0.6-0.2l2.3-4.8l0.5-3.5L246.6,164.4z"/>
		<path d="M251.9,146.5l-7.5,0.6l-0.5,0.5l-0.4,1.7l0.2,0.4l4.5,1.1l2.7-0.2l-1.8,7.4l-2.3-1.4l-16.7-4l-2.7,0.2l3.2-13.5l5-3.1
			l6.1,1.5l2.1,3.5l6.4-0.8l3.4-1L251.9,146.5z M237,143.1l-1.4,0.3l-0.9,1.1l-0.6,2.6l0.2,0.4l3.9,0.9l0.4-0.2l0.6-2.6l-0.3-1.4
			l-1.1-0.9L237,143.1z"/>
	</g>
	<path class="st1" d="M156,110.1c-2.2-0.9-4.2-1.2-5.4-1.2c-1.2,0-3.2,0.3-5.5,1.2l6.2,6.2c0.6-0.7,1.1-1.5,1.6-2.2
		C153.8,112.9,154.8,111.5,156,110.1z"/>
	<path class="st1" d="M164.7,117.3c-1.3-2-2.8-3.5-4.4-4.7c-1.8,1.7-3.2,3.4-4.3,4.7c-0.6,0.7-1.1,1.4-1.7,2.1l3.8,3.8
		c0.7-0.6,1.4-1.1,2.1-1.7C161.5,120.4,163,119,164.7,117.3z"/>
	<path class="st1" d="M133.3,126.3c-0.3,2.3-0.3,6.1,0.1,9.9c2.7-2.6,5.2-5.1,7.6-7.6l-6.7-6.7C133.8,123.2,133.5,124.7,133.3,126.3
		z"/>
	<path class="st1" d="M133.9,141c0.3,1.6,0.6,3.1,0.9,4.4c3.7-4,7.5-7.8,11.3-11.5l-2.5-2.5C140.5,134.6,137.3,137.8,133.9,141z"/>
	<path class="st1" d="M161.1,126.1l6.9,6.9c0.1-2.7,0.1-5.1-0.1-6.8c-0.2-1.6-0.6-3.1-1-4.4c-1.3,1-2.5,1.9-3.6,2.7
		C162.5,125,161.8,125.6,161.1,126.1z"/>
	<path class="st1" d="M181.6,95.8c-1.1,0.4-2.4,1-3.5,1.8c-2.5,1.8-5.3,3.9-8.1,6.2c1.3,1,2.5,2.2,3.6,3.5c2.3-2.8,4.4-5.5,6.2-8
		c0.6-0.9,1.1-1.8,1.5-2.7c0,0,0,0,0,0C181.4,96.4,181.5,96.1,181.6,95.8z"/>
	<path d="M125.5,155.8c-4.9,5.8-9.5,11.7-14,17.6c-1.8,2.4,0.2,4.7,2,2.4c4.5-5.6,9.2-11.3,14-16.8c-0.5-0.6-1-1.4-1.5-2.3
		C125.9,156.5,125.7,156.1,125.5,155.8z"/>
	<path d="M182.6,88.7c1.7-0.1,3.5,0.6,4.5,1c-0.3-1.5-0.6-5.5,2.6-8.7c4-4,8.3-1.8,8.3-1.8l6.3-6.3l-1.9-1.8l-5.1,4.9
		c0,0-7-2.9-11.2,1.3c-3.2,3.2-3.4,9.1-3.3,11.9l0,0C182.6,89,182.6,88.9,182.6,88.7z M202.6,73.1c0.1-0.6-0.1-0.9-0.1-0.9l0.8,0.8
		l-4.8,4.8C198.4,77.8,202.4,73.7,202.6,73.1z M186.2,78.1c2.2-2.2,5.2-2.3,7.4-2.1c-2.2,0-4.9,0.5-7,2.5c-2.3,2.3-2.9,6.3-3.1,8.6
		C183.5,85.1,183.8,80.5,186.2,78.1z"/>
	<path d="M160.2,121.4c-0.7,0.6-1.4,1.1-2.1,1.7l3,3c0.7-0.6,1.5-1.1,2.2-1.6c1.1-0.8,2.3-1.7,3.6-2.7c-0.6-1.7-1.3-3.3-2.1-4.6
		C163,119,161.5,120.4,160.2,121.4z"/>
	<path d="M134.8,145.3c0.2,0.7,0.4,1.4,0.7,1.9l0.2,0.5c0.2,0.5,0.4,1,0.7,1.5c4.2-4.6,8.4-8.9,12.5-12.7l-2.8-2.8
		C142.3,137.5,138.5,141.3,134.8,145.3z"/>
	<path d="M188.3,95.5c-0.9,0-4.1,0.1-7,1.2c-0.4,0.9-0.9,1.8-1.5,2.7c-1.8,2.5-3.9,5.3-6.2,8c0.5,0.6,1,1.2,1.5,1.9
		c0.8,1.1,1.5,2.2,2.1,3.4c4.3-4.4,8.2-9,10.3-13.1c0.8-1.5,1-3.2,0.8-4.7l0,0C188.3,95.1,188.3,95.3,188.3,95.5z"/>
	<path d="M187.2,90.3C187.2,90.3,187.2,90.3,187.2,90.3L187.2,90.3L187.2,90.3z"/>
	<path d="M176.3,91.9c3.1-1.8,5.3-1.9,6.4-1.8c0-0.2,0-0.6,0-1c-1.5-0.1-3.2,0.1-4.7,0.8c-4.1,2.1-8.8,6-13.2,10.4
		c0.2,0.1,0.4,0.2,0.6,0.3C168.5,97.5,172.3,94.2,176.3,91.9z"/>
	<path d="M166,101.1c1.4,0.8,2.7,1.7,4,2.7c2.8-2.3,5.6-4.5,8.1-6.2c1.1-0.8,2.4-1.4,3.5-1.8c0.2-0.4,0.3-0.9,0.4-1.3l0,0
		c0.6-2.2,0.6-3.9,0.6-3.9s0-0.1,0-0.3c-1.1,0.1-3.2,0.7-7.1,2.9C173,94.7,169.4,97.9,166,101.1z"/>
	<path d="M133.3,136.2c0.1,1.6,0.3,3.2,0.6,4.8c3.4-3.2,6.6-6.4,9.7-9.6l-2.8-2.8C138.5,131.1,136,133.6,133.3,136.2z"/>
	<path d="M101.6,163.9c-2.3,1.8,0,3.7,2.4,2c6.5-4.8,12.9-9.9,19.1-15.2c-0.5-1.2-1-2.5-1.4-3.7
		C115.2,152.8,108.3,158.5,101.6,163.9z"/>
	<path d="M160.3,112.6c-1.1-0.9-2.3-1.5-3.4-2.1l0,0c0,0,0,0,0,0c-0.3-0.1-0.6-0.3-1-0.4c-1.1,1.4-2.2,2.8-3,4.1
		c-0.5,0.7-1,1.5-1.6,2.2l3,3c0.6-0.7,1.1-1.4,1.7-2.1C157.1,115.9,158.6,114.3,160.3,112.6z"/>
	<path d="M200.1,91.5c4.3-4.3,1.3-11.2,1.3-11.2l4.9-5.1l-1.8-1.9l-6.3,6.3c0,0,2.2,4.3-1.8,8.3c-4,4-9.3,2.4-9.3,2.4h0c0,0,0,0,0,0
		c0,0,0,0,0,0c0.1,0.3,1,2.2,1.1,4.5C191,94.9,196.9,94.7,200.1,91.5z M204.3,74l1.2,1.2c0,0-0.7-0.3-1.3-0.2c-0.8,0.2-2,1.2-2,1.2
		L204.3,74z M196.9,88.8c3.4-3.3,2.6-7.7,2.6-7.7s1.3,4.7-2.2,8.1c-2.2,2.2-5.2,2.3-7.4,2.1C192.1,91.4,194.9,90.9,196.9,88.8z"/>
	<path d="M187.2,90.3C187.2,90.3,187.2,90.3,187.2,90.3L187.2,90.3C187.2,90.3,187.2,90.3,187.2,90.3z"/>
	<path d="M187.3,90.7c0,0.1,0,0.1,0,0.2c-0.4,0.1-0.9,0-1.3,0c-0.7-0.1-1.3-0.4-2-0.4c-0.3,0-0.9,0-1.3,0c0,0,0-0.1,0-0.1l0,0
		c0,0.2,0,0.3,0,0.3s0,1.7-0.6,3.9c0.6-0.2,1.3-0.3,1.9-0.4c0.8-0.2,1.7-0.5,2.6-0.4c0.2,0,0.4,0.1,0.6,0.2l1,0
		c0,0.3,0.1,0.6,0.1,0.9c0,0,0,0,0,0c-0.2-2.4-1-4.3-1.1-4.5C187.2,90.4,187.3,90.5,187.3,90.7z M185.8,93.2c-0.4,0.4-1.1,0.4-1.5,0
		c-0.4-0.4-0.4-1.1,0-1.5c0.4-0.4,1.1-0.4,1.5,0C186.2,92.1,186.2,92.7,185.8,93.2z"/>
	<path d="M182.6,90.1c0-0.2,0-0.6,0-1l0,0C182.6,89.5,182.6,89.9,182.6,90.1L182.6,90.1z"/>
	<path d="M187.2,90.3C187.2,90.3,187.2,90.3,187.2,90.3C187.2,90.3,187.2,90.3,187.2,90.3z"/>
	<path d="M182.6,89.2c0,0.4,0,0.7,0,1c0.5,0.1,0.8,0.2,0.8,0.2s-0.2-0.1-0.8,0c0,0,0,0.1,0,0.1c0.4,0,1,0,1.3,0
		c0.7,0.1,1.3,0.3,2,0.4c0.4,0.1,0.9,0.1,1.3,0c0-0.1,0-0.1,0-0.2c-0.1-0.2-0.1-0.3-0.2-0.4c0,0,0,0,0,0s0,0,0,0
		C187.1,90.2,185.1,89.3,182.6,89.2z"/>
	<path d="M181.6,95.8L181.6,95.8c0.2-0.4,0.3-0.9,0.4-1.3l0,0C181.9,95,181.8,95.4,181.6,95.8z"/>
	<path d="M186.8,94.8c0,0,0.6,0.1,1.5,0.1c0-0.3,0-0.6-0.1-0.9l-1,0c-0.2-0.1-0.4-0.2-0.6-0.2c-0.9-0.1-1.8,0.2-2.6,0.4
		c-0.6,0.1-1.3,0.2-1.9,0.4c-0.1,0.4-0.2,0.8-0.4,1.3C184.4,94.8,186.8,94.8,186.8,94.8z"/>
	<path d="M143.7,131.3l2.5,2.5c0.4-0.4,0.8-0.8,1.2-1.1l-2.5-2.5C144.4,130.5,144,130.9,143.7,131.3z"/>
	<path d="M154.3,119.4c-2.9,3.5-5.9,7-9.1,10.3l2.5,2.6c3.4-3.2,6.9-6.3,10.4-9.1L154.3,119.4z"/>
	<path d="M165.6,147.2c1.2-2.8,2.1-8.9,2.4-14.2l-6.9-6.9c-3.4,2.5-6.9,5.5-10.6,9l14.2,14.5c0.2-0.6,0.5-1.2,0.8-1.8L165.6,147.2z"
		/>
	<path d="M103.4,73c0.6-1.3,0-2.3,0-2.3l1.6,1.6c0,0-2.9,2.9-5.1,5.1l6.2-6.2l-2.5-2.5L92.4,80l2.5,2.5l4.5-4.5
		C100.5,76.6,103.1,73.8,103.4,73z"/>
	<path d="M134.2,121.9l6.7,6.7c0.4-0.4,0.7-0.8,1.1-1.2l-7.2-7.2C134.6,120.7,134.4,121.3,134.2,121.9z"/>
	<path d="M173.7,158.9l9.8,10l-9.9-9.9c-0.4,0.4-0.8,0.8-1.2,1.1l16.2,16.2c0.5-0.9,1.9-3.2,4.3-5.6c3.2-3.2,6.1-4.6,6.1-4.6
		s-2.7,1.9-5.7,5c-2.3,2.3-4,4.4-4.7,5.3l0.2,0.2c0,0,3.4-0.8,6.9-4.4c3.5-3.5,4.4-6.9,4.4-6.9L179.9,145c-1,3.8-2.7,7.4-4.9,11.8
		C174.7,157.6,174.2,158.3,173.7,158.9z"/>
	<path d="M150.1,135.4c-0.4,0.4-0.8,0.7-1.2,1.1l15,15c0.2-0.6,0.3-1.2,0.6-1.7L150.1,135.4z"/>
	<path d="M125.6,109.8c0.1-0.2,0.2-0.3,0.3-0.5c2.6-3.8,6.1-6.5,9.7-8.5l-12.6-12.6l-9.4,9.4L125.6,109.8z"/>
	<path d="M113,98.3l-1.1,1.1l12.5,12.5c0.3-0.5,0.6-1,0.9-1.4L113,98.3z"/>
	<path d="M135.2,119.5l7.3,7.4c3.4-3.7,6.4-7.2,8.9-10.5l-6.2-6.2C141.6,111.5,137.6,114.3,135.2,119.5z"/>
	<path d="M158.1,123.1c-3.5,2.9-7,6-10.4,9.1l2.7,2.8c3.7-3.4,7.3-6.4,10.6-9L158.1,123.1z"/>
	<path d="M147.3,132.7c-0.4,0.4-0.8,0.7-1.2,1.1l2.8,2.8c0.4-0.4,0.8-0.7,1.2-1.1L147.3,132.7z"/>
	<path d="M140.9,128.6l2.8,2.8c0.4-0.4,0.8-0.8,1.1-1.2l-2.8-2.8C141.7,127.8,141.3,128.2,140.9,128.6z"/>
	<path d="M151.3,116.4c-2.5,3.3-5.5,6.9-8.9,10.5l2.7,2.8c3.2-3.4,6.2-6.8,9.1-10.3L151.3,116.4z"/>
	<path d="M109.4,70l13-7.3l9.2,9.2L124.2,85l-2.1,2.1l1,1l2.6-2.6l9.1-12l-14.1-14.1l-12,9.1l-2.6,2.6l1,1L109.4,70z M133.5,73.4
		L125,84.6l7.7-11.9L133.5,73.4z M120.7,60.7l0.7,0.7l-11.9,7.7L120.7,60.7z"/>
	<polygon points="102.2,92.9 93.7,92.1 102.2,91.4 103.9,91.5 101.6,89.3 94.1,88.7 100.6,88.3 97.7,85.4 97.3,85.3 97.7,85.3 
		96.7,84.3 94.6,86.4 87.7,98.6 95.7,106.6 107.9,99.7 110,97.7 105,92.6 	"/>
	<polygon points="115.8,77.8 124.2,78.6 115.8,79.3 114.1,79.1 116.4,81.4 123.1,81.9 117.3,82.4 120.2,85.3 120.6,85.3 120.3,85.4 
		121.3,86.4 123.4,84.3 130.3,72.1 122.3,64.1 110,70.9 108,73 113,78.1 	"/>
	<path d="M108.5,100.6l-13,7.3l-9.2-9.2l7.4-13.1l2.1-2.1l-1-1l-2.6,2.6l-9.1,12l14.1,14.1l12-9.1l2.6-2.6l-1-1L108.5,100.6z
		 M84.5,96.9l8.4-11.2l-7.7,11.9L84.5,96.9z M97.3,109.7l-0.7-0.7l11.9-7.7L97.3,109.7z"/>
	<polygon points="113,98.3 113.7,97.6 113.7,97.6 123.1,88.2 122.1,87.1 110.8,98.4 111.8,99.5 113,98.3 	"/>
	<path d="M107.2,72.3l-1-1l-6.2,6.2c-0.2,0.2-0.4,0.4-0.6,0.6l0,0l-4.5,4.5l1,1L107.2,72.3z"/>
	<polygon points="109,86.2 97.7,85.4 100.6,88.3 105.6,87.9 117.1,88.7 105.6,89.6 101.6,89.3 103.9,91.5 110.7,92.1 105,92.6 
		110,97.7 121.3,86.4 120.3,85.4 	"/>
	<polygon points="97.7,85.3 109,84.5 120.2,85.3 117.3,82.4 112.4,82.8 101.6,81.9 112.4,81.1 116.4,81.4 114.1,79.1 107.3,78.6 
		113,78.1 108,73 96.7,84.3 	"/>
	<path d="M177.9,121c1.3,4.6,1.4,9.1,1,13.8c-0.1,1.3-0.2,3.4-0.8,4.6c-0.5,1-1.4,0.1-2.2-0.3c-1.2-0.6-2.4-0.7-2.7-2.2
		c-0.2-1.4,0.4-2.7,0.5-4c0.6-5,0-10.5-1.9-15.3c-0.5,0.4-1,0.9-1.5,1.3c1.5,5.3,1.3,11.7,0.4,17l8.4,8.4c0.6-2.4,1-4.9,1.1-7.7
		c0.4-9.2,0.1-16-3.8-23.3c-0.4,0.4-0.7,0.7-1.1,1.1C176.5,116.5,177.3,118.7,177.9,121z"/>
	<path d="M168.5,120.6c-0.3,0.3-0.6,0.5-0.9,0.7c0.5,1.5,0.9,3.1,1.1,4.8c0.2,1.8,0.3,4.6,0.1,7.7l1,1
		C170,130.3,169.8,125,168.5,120.6z"/>
	<path d="M132.4,126.2c0.2-1.8,0.6-3.5,1.2-4.9l-0.9-0.9c-1.8,5.6-1.6,12.5-1.1,17.5c0.3-0.3,0.6-0.6,0.9-0.9
		C132.2,132.8,132.1,128.6,132.4,126.2z"/>
	<path d="M132.4,142.4c0.1,0.7,0.3,1.2,0.4,1.6c-0.2-0.4-0.4-0.8-0.6-1.3c-2.7,2.5-5.5,5-8.3,7.4c0.7,1.7,1.5,3.3,2.3,5.1
		c2.6-3.1,5.3-6.1,8-9.1c-0.4-1.2-0.7-2.7-1-4.4C132.9,141.9,132.6,142.2,132.4,142.4z"/>
	<path d="M169.3,104.4c-0.3,0.2-0.6,0.5-0.8,0.7c1.5,1.1,2.8,2.3,3.9,3.8c0.2-0.3,0.5-0.6,0.7-0.8
		C172,106.7,170.7,105.5,169.3,104.4z"/>
	<path d="M161.6,111.3c-0.2,0.2-0.5,0.4-0.7,0.7c1.6,1.2,3.1,2.8,4.4,4.7c0.3-0.3,0.6-0.6,0.9-0.9c-0.4-0.5-0.8-1-1.2-1.4
		C164.3,113.6,163.1,112.5,161.6,111.3z"/>
	<path d="M165,108.2c-0.5,0.5-1.1,1-1.6,1.4c0.5,0.3,1.1,0.6,1.6,1c0.6,0.4,1.1,0.8,1.6,1.3c0.6,0.5,1.1,1.2,1.5,1.8
		c0.4-0.4,0.8-0.8,1.2-1.3C168.1,110.8,166.7,109.4,165,108.2z"/>
	<path d="M169.7,111.5c0.1,0.1,0.1,0.2,0.2,0.3c0.6-0.7,1.2-1.4,1.9-2.1c-1.1-1.6-2.3-2.9-3.8-4c-0.7,0.6-1.4,1.2-2.1,1.9
		C167.3,108.6,168.6,109.8,169.7,111.5z M169.5,108.6c0.2,0,0.3,0,0.5,0.2c0.5,0.4,1.1,1.2,1,1.6c0,0.2-0.3,0.4-0.5,0.5
		c-0.3,0.1-0.5-0.3-0.6-0.5c-0.1-0.4-0.4-0.7-0.7-1C169,109,169.1,108.7,169.5,108.6z"/>
	<path d="M150.5,108.1c1.6,0,3.7,0.4,6,1.3c0.2-0.3,0.4-0.5,0.6-0.8c-1.9-0.9-4.2-1.5-6.6-1.5c-2.6,0-4.9,0.6-6.9,1.6l0.7,0.7
		C146.7,108.5,148.9,108.1,150.5,108.1z"/>
	<path d="M165,156.4c1.8,3.8,4.5,4.9,6.9,3.1l-7.2-7.2C164.4,153.6,164.4,155,165,156.4z"/>
	<path d="M136.1,156.4c1-2.1,0.5-4.4-0.4-6.4c-2.5,2.8-5.1,5.6-7.6,8.5C130.7,161.6,134,160.8,136.1,156.4z"/>
	<path d="M173.8,120.3c0.9,2.7,1.2,5.6,1.2,8.4c0,1.4-0.1,2.8-0.3,4.2c-0.1,1.3-0.6,2.6-0.4,3.9c0.2,1.1,1.5,2,2.7,2
		c1.5,0,1.2-4.3,1.3-5.1c0.2-6.6-0.3-11.8-2.9-17.8c-0.1-0.3-0.3-0.6-0.4-0.9c-0.8,0.7-1.6,1.5-2.3,2.2
		C173,118.1,173.4,119.2,173.8,120.3z M176,129.9c0.1-0.3,0.2-0.8,0.1-1.2c-0.1-0.4,0.2-0.6,0.6-0.4c0.1,0.1,0.3,0.2,0.3,0.5
		c0.2,0.6,0,1.6-0.3,1.9c-0.1,0.1-0.5,0.1-0.7,0C175.8,130.5,175.8,130.1,176,129.9z M175,117.7c0.2,0,0.3,0.2,0.4,0.4
		c0.3,0.6,0.5,1.6,0.3,1.9c-0.1,0.1-0.5,0.3-0.6,0.3c-0.3-0.1-0.3-0.5-0.3-0.7c0-0.4-0.1-0.8-0.2-1.2
		C174.3,117.9,174.5,117.7,175,117.7z"/>
	<path d="M143.5,100c0.1,0.1,0.3,0.2,0.4,0.3c0.6,0.6,1.1,1.9,0.6,2.5c-0.7,1-2.6,1.6-3.6,2.2c-0.2,0.1-0.4,0.3-0.6,0.4l1.9,1.9
		c0.8-0.3,1.7-0.6,2.5-0.8c0.6-0.1,1.2-0.3,1.8-0.4c0.6-0.1,1.2-0.3,1.8-0.3c0.8,0,1.6,0,2.4,0c1.7,0,3.4,0.2,5,0.5
		c0.9,0.2,1.8,0.4,2.7,0.8c0.6-0.7,1.2-1.3,1.8-2c0,0,0,0-0.1,0c-1-0.7-2.9-1.2-3.6-2.2c-0.5-0.7,0-1.9,0.6-2.5
		c0.1-0.1,0.3-0.2,0.4-0.3c1.7-0.9,4,0.5,5.8,1.7c0.2-0.2,0.4-0.4,0.7-0.7c-4.8-2.4-9.8-3.5-13.5-3.5c-3.9,0-9.2,1.2-14.2,3.8
		l0.7,0.7C138.9,100.9,141.6,98.9,143.5,100z"/>
	<path d="M130.8,118.4l-1.4-1.4c-2,4.9-2.8,10.6-2.1,15.8c0.2,1.4,0.7,2.6,0.5,4c-0.2,1.6-1.4,1.7-2.7,2.2c-0.8,0.4-1.7,1.2-2.2,0.3
		c-0.7-1.2-0.7-3.2-0.8-4.6c-0.4-4.8-0.3-9.2,1-13.8c0.7-2.5,1.6-5,2.8-7.4l-1-1c-4.3,7.6-4.6,14.5-4.2,24c0.2,3.6,0.8,6.7,1.7,9.7
		c2.9-2.6,5.7-5.2,8.4-7.7C129.5,132.9,128.8,124.8,130.8,118.4z"/>
	<path d="M161.2,103.5c-0.4-0.1-0.5-0.4-0.2-0.7c0.1-0.1,0.3-0.2,0.6-0.1c0.2,0,0.4,0.1,0.7,0.2c0.2-0.2,0.4-0.4,0.6-0.6
		c-0.9-0.5-1.8-1-2.7-1.5c-1-0.5-2.2-0.7-2.6,0.6c-0.3,0.7,0.1,1.3,0.8,1.8c0.7,0.5,1.7,0.9,2.5,1.3c0.3-0.3,0.5-0.6,0.8-0.8
		C161.4,103.6,161.3,103.6,161.2,103.5z"/>
	<path d="M139.5,102.7c0.2,0,0.5,0,0.6,0.1c0.3,0.3,0.2,0.6-0.2,0.7c-0.3,0.1-0.7,0.2-1,0.4l0.8,0.8c0.9-0.4,2.2-0.9,3.1-1.6
		c0.7-0.5,1-1.1,0.8-1.8c-0.4-1.3-1.6-1.1-2.6-0.6c-1.2,0.6-2.3,1.2-3.4,1.9l0.6,0.6C138.5,103,139.1,102.7,139.5,102.7z"/>
	<path d="M125.7,115.8c-2.6,6-3.1,11.2-2.9,17.8c0,0.8-0.2,5.1,1.3,5.1c1.1,0,2.5-0.9,2.7-2c0.2-1.3-0.3-2.6-0.4-3.9
		c-0.2-1.4-0.2-2.8-0.3-4.2c0-2.8,0.3-5.7,1.2-8.4c0.5-1.3,0.9-2.6,1.5-3.8l-2.3-2.3C126.2,114.7,126,115.2,125.7,115.8z
		 M125.1,130.6c-0.1,0.1-0.5,0-0.7,0c-0.3-0.2-0.4-1.2-0.3-1.9c0.1-0.2,0.2-0.4,0.3-0.5c0.4-0.2,0.7,0,0.6,0.4c0,0.4,0,0.9,0.1,1.2
		C125.2,130.1,125.3,130.5,125.1,130.6z M126.6,118.3c-0.2,0.3-0.3,0.8-0.2,1.2c0,0.3,0,0.7-0.3,0.7c-0.2,0-0.5-0.1-0.6-0.3
		c-0.2-0.3-0.1-1.3,0.3-1.9c0.1-0.2,0.3-0.4,0.4-0.4C126.6,117.7,126.7,117.9,126.6,118.3z"/>
	<path d="M169.3,112.5c-0.4,0.4-0.8,0.9-1.2,1.3c1,1.5,1.8,3.3,2.4,5.2c0.5-0.4,1-0.8,1.5-1.3c-0.3-0.8-0.7-1.7-1.1-2.5
		C170.4,114.2,169.8,113.3,169.3,112.5z"/>
	<path d="M172.6,117c0.8-0.7,1.6-1.4,2.3-2.2c-0.7-1.4-1.5-2.7-2.3-4c-0.3-0.4-0.5-0.8-0.8-1.2c-0.6,0.7-1.2,1.4-1.9,2.1
		C171,113.4,171.8,115.2,172.6,117z"/>
	<path d="M167.6,121.3c0.3-0.2,0.6-0.5,0.9-0.7c-0.5-1.8-1.3-3.4-2.3-4.8c-0.3,0.3-0.6,0.6-0.9,0.9C166.2,118,167,119.6,167.6,121.3
		z"/>
	<path d="M173,109.8c0.9,1.4,1.7,3,2.4,4.5c0.4-0.4,0.7-0.7,1.1-1.1c-0.6-1.1-1.3-2.3-2.1-3.5c-0.4-0.6-0.9-1.2-1.3-1.7
		c-0.2,0.3-0.5,0.6-0.7,0.8C172.6,109.2,172.8,109.5,173,109.8z"/>
	<path d="M126.8,156.4c0.4,0.8,0.8,1.5,1.3,2c2.5-2.9,5.1-5.7,7.6-8.5c-0.3-0.8-0.7-1.6-1-2.4c-0.2-0.4-0.4-1-0.5-1.5
		c-2.7,3-5.4,6-8,9.1C126.4,155.5,126.6,156,126.8,156.4z"/>
	<path d="M157.4,109.8c0.2-0.2,0.4-0.5,0.6-0.8c-0.3-0.1-0.6-0.3-0.9-0.4c-0.2,0.3-0.4,0.5-0.6,0.8
		C156.8,109.5,157.1,109.7,157.4,109.8z"/>
	<path d="M162.9,103.2c0.2-0.2,0.3-0.4,0.5-0.6c-0.2-0.1-0.4-0.3-0.6-0.4c-0.2,0.2-0.4,0.4-0.6,0.6
		C162.5,103,162.8,103.1,162.9,103.2z"/>
	<path d="M161.3,105.8c-0.6,0.6-1.2,1.2-1.7,1.8c1,0.4,2,0.9,2.9,1.5c0.3,0.2,0.6,0.3,0.9,0.5c0.5-0.5,1-1,1.6-1.4
		c-0.2-0.2-0.4-0.3-0.7-0.5C163.3,107.1,162.3,106.5,161.3,105.8z"/>
	<path d="M157.5,109.8c1.1,0.5,2.3,1.3,3.4,2.1c0.2-0.2,0.4-0.4,0.7-0.7c-1-0.8-2.1-1.5-3.4-2.2C158,109.4,157.7,109.6,157.5,109.8z
		"/>
	<path d="M161.5,103.6c-0.3,0.3-0.5,0.6-0.8,0.8c0.3,0.1,0.5,0.2,0.8,0.3c0.2-0.3,0.5-0.5,0.7-0.8
		C162,103.9,161.8,103.7,161.5,103.6z"/>
	<path d="M160.9,105.6c-0.2-0.1-0.5-0.3-0.7-0.4c-0.6,0.7-1.2,1.3-1.8,2c0.3,0.1,0.6,0.2,0.9,0.3
		C159.8,106.9,160.3,106.2,160.9,105.6z"/>
	<path d="M164.6,102.5c0.1,0,0.2,0.1,0.2,0.1c1.3,0.8,2.5,1.6,3.7,2.4c0.3-0.2,0.6-0.5,0.8-0.7c-1.3-1-2.6-1.9-3.9-2.6
		C165.1,102,164.9,102.3,164.6,102.5z"/>
	<path d="M163.2,103.9c0,0.1-0.1,0.3-0.2,0.3c-0.1,0.1-0.1,0.1-0.2,0.1c-0.3,0.3-0.5,0.5-0.8,0.8c1.3,0.8,2.6,1.5,3.7,2.4
		c0.7-0.6,1.4-1.3,2.1-1.9c-0.5-0.4-1-0.7-1.5-1.1c-0.8-0.5-1.5-1-2.3-1.5C163.8,103.3,163.5,103.6,163.2,103.9z"/>
	<path d="M131.6,137.8c0.2,1.9,0.5,3.4,0.7,4.6c0.3-0.3,0.5-0.5,0.8-0.8c-0.3-1.5-0.5-3.1-0.6-4.7
		C132.3,137.2,131.9,137.5,131.6,137.8z"/>
	<path d="M164,102.1c0.2-0.2,0.5-0.5,0.7-0.7c-0.2-0.1-0.4-0.2-0.7-0.3c-0.2,0.2-0.4,0.4-0.7,0.7C163.6,101.8,163.8,102,164,102.1z"
		/>
	<path d="M130.9,138.6c-2.7,2.6-5.5,5.1-8.4,7.7c0.4,1.3,0.8,2.5,1.4,3.7c2.8-2.4,5.6-4.9,8.3-7.4
		C131.7,141.5,131.2,140.1,130.9,138.6z"/>
	<path d="M159.6,107.6c0.5-0.5,1.1-1.1,1.7-1.8c-0.2-0.1-0.3-0.2-0.5-0.3c-0.6,0.7-1.1,1.3-1.6,1.9c0,0,0.1,0,0.1,0
		C159.5,107.5,159.5,107.6,159.6,107.6z"/>
	<path d="M164.6,102.5c0.3-0.3,0.5-0.5,0.8-0.8c-0.2-0.1-0.5-0.3-0.7-0.4c-0.2,0.3-0.5,0.5-0.7,0.7
		C164.2,102.3,164.4,102.4,164.6,102.5z"/>
	<path d="M162.1,105.1c0.2-0.3,0.5-0.5,0.8-0.8c-0.2,0-0.4-0.1-0.5-0.3c0,0,0,0-0.1,0c-0.2,0.3-0.5,0.5-0.7,0.8
		C161.7,104.9,161.8,105,162.1,105.1C162,105,162,105.1,162.1,105.1z"/>
	<path d="M157.5,109.8c0.2-0.2,0.4-0.4,0.7-0.7c-0.1,0-0.1-0.1-0.2-0.1C157.8,109.3,157.6,109.6,157.5,109.8
		C157.5,109.8,157.5,109.8,157.5,109.8z"/>
	<path d="M162.9,103.2c0.2,0.1,0.3,0.3,0.3,0.4c0,0.1,0,0.2,0,0.3c0.3-0.3,0.6-0.6,0.9-0.9c-0.2-0.1-0.4-0.3-0.6-0.4
		C163.3,102.8,163.1,103,162.9,103.2z"/>
	<path d="M126.5,114.2l2.3,2.3c0.2-0.5,0.5-1.1,0.7-1.6l-2.1-2.1C127.1,113.2,126.8,113.7,126.5,114.2z"/>
	<path d="M130.1,115.5c-0.3,0.5-0.5,1.1-0.7,1.6l1.4,1.4c0.2-0.6,0.4-1.1,0.6-1.7L130.1,115.5z"/>
	<path d="M131.4,111.5c2-3,4.7-4.7,7.8-6.5c0.1-0.1,0.3-0.2,0.6-0.3l-0.8-0.8c0,0-0.1,0.1-0.1,0.1c-0.2,0.2-0.6,0.4-0.8,0.2
		c-0.1-0.1-0.2-0.5-0.2-0.7c0-0.1,0.1-0.3,0.3-0.4l-0.6-0.6c-1,0.6-1.9,1.2-2.9,1.8c-2.7,1.7-4.5,3.7-6.2,6.4
		c-0.2,0.4-0.5,0.7-0.7,1.1l2.1,2.1C130.3,113.2,130.8,112.3,131.4,111.5z M131,108.7c0.2-0.1,0.4-0.2,0.5-0.2
		c0.4,0.1,0.5,0.4,0.2,0.7c-0.3,0.2-0.6,0.6-0.7,1c-0.1,0.3-0.3,0.6-0.6,0.5c-0.2,0-0.4-0.3-0.5-0.5
		C129.9,110,130.5,109.1,131,108.7z"/>
	<path d="M130.5,114.7l1.3,1.3c0.7-1.5,1.6-2.9,2.8-4.1c0,0,0.1-0.1,0.2-0.1c0.5-0.4,1-0.9,1.5-1.2c0.7-0.5,1.5-1,2.3-1.4
		c1-0.5,1.9-1,2.9-1.5c0.3-0.1,0.5-0.2,0.8-0.3l-1.9-1.9c-1.2,0.8-2.4,1.5-3.6,2.3C134,109.5,132,111.8,130.5,114.7z"/>
	<path d="M128.1,109.8c2-3.2,5-5.2,8.2-7.1c0.2-0.2,0.5-0.3,0.8-0.5l-0.7-0.7c-3.7,2-7.1,4.7-9.7,8.4c-0.1,0.2-0.3,0.4-0.4,0.6
		l0.9,0.9C127.5,110.8,127.8,110.3,128.1,109.8z"/>
	<path d="M168.3,144c0.4-1.2,1.1-4.8,1.4-9.2l-1-1c-0.3,5.1-1.1,11-2.4,13.7c-0.4,0.9-0.8,1.7-1.1,2.7l7.9,8
		c0.4-0.5,0.8-1.1,1.2-1.9c2.2-4.3,3.9-8,4.9-12.1l-8.4-8.4C170.2,139.3,169.3,142.3,168.3,144z"/>
	<path d="M126.7,112.1l-1-1c-0.3,0.5-0.6,1-0.9,1.4l1,1C126.2,113.1,126.5,112.6,126.7,112.1z"/>
	<path d="M164.6,152.3l7.2,7.2c0.4-0.3,0.8-0.7,1.2-1.1l-7.9-7.9C164.9,151.1,164.8,151.7,164.6,152.3z"/>
	<path d="M144.4,109.5l-0.7-0.7c-3.7,1.7-6.3,4.3-7.6,5.6c-1,1-1.8,2.2-2.4,3.6l0.9,0.9C137,113.9,140.8,111,144.4,109.5z"/>
	<path d="M134.2,119.6l-0.9-0.9c-0.2,0.5-0.4,1.1-0.6,1.7l0.9,0.9C133.8,120.6,134,120.1,134.2,119.6z"/>
	<path d="M127.8,112c-0.2,0.2-0.3,0.5-0.4,0.7l2.1,2.1c0.1-0.3,0.3-0.5,0.4-0.8L127.8,112z"/>
	<path d="M165.2,150.5l7.9,7.9c0,0,0.1-0.1,0.1-0.1l-7.9-8C165.2,150.3,165.2,150.4,165.2,150.5z"/>
	<path d="M130.5,114.7c-0.1,0.1-0.2,0.3-0.2,0.4c0,0.1-0.1,0.2-0.1,0.3l1.3,1.3c0.1-0.3,0.2-0.5,0.3-0.8L130.5,114.7z"/>
	<path d="M127.2,111.3l-0.9-0.9c-0.2,0.2-0.3,0.5-0.5,0.7l1,1C126.9,111.8,127,111.6,127.2,111.3z"/>
	<path d="M134.6,118.9l-0.9-0.9c-0.1,0.2-0.2,0.5-0.3,0.7l0.9,0.9C134.3,119.3,134.4,119.1,134.6,118.9z"/>
	<polygon class="st1" points="173.4,181.1 173,181.1 172.7,181.2 172.5,181.5 172.5,181.9 172.7,182.2 173,182.4 173.4,182.4 
		173.7,182.2 173.9,181.9 173.9,181.5 173.7,181.2 	"/>
	<polygon class="st1" points="130.7,179.3 130.4,179.3 130.1,179.4 129.9,179.7 129.9,181.9 130.1,182.2 130.4,182.4 130.7,182.4 
		131,182.2 131.1,181.9 131.1,179.7 131,179.4 	"/>
	<path d="M160.5,184.1l-1.6-2v-1.7c0-6.3,13.7-8.4,13.7-8.4v-3.2h-13.7h-17.3v0.3h-1.2v0.5H122v0.8c0,0,8.1,7.7,18.3,9.2v1.2h1.2
		v1.3l-1.6,2l-3,0.8l-2,2.4v3h7.1c1.2-1.6,4.4-2.7,8.2-2.7c3.8,0,7,1.1,8.2,2.7h7.2v-3l-2-2.4L160.5,184.1z M147.2,183.6h-3.4
		l0.2-0.6v-4.2l-0.2-0.6h3.3l0.5,1.5l-0.7-0.2h-1.3l-0.1,0.1v0.5l0.1,0.1h0.5l0.6-0.2v1.6l-0.6-0.2h-0.5l-0.1,0.1v0.7l0.1,0.1h1.3
		l0.8-0.3L147.2,183.6z M149.8,180l1.2,0.3l0.7,0.7v1.5l-1,1h-2.3L148,182l0.8,0.3h1.1l0.2-0.1l0.1-0.2v-0.3l-0.2-0.2l-1.2-0.3
		l-0.7-0.7v-1.3l1-1h2.2l0.5,1.5l-0.7-0.2H150l-0.2,0.1l-0.1,0.2v0.2L149.8,180z M155.8,179.4h-0.6l-0.1,0.1v3.3l0.3,0.8h-2.1
		l0.3-0.8v-3.3l-0.1-0.1h-0.6l-0.8,0.3l0.5-1.6h3.5l0.5,1.6L155.8,179.4z"/>
	<polygon points="125.8,182.2 125.6,182.2 127.4,180.5 127.4,179.1 126.4,178.1 124.2,178.1 123.7,179.7 124.8,179.3 125.5,179.3 
		125.8,179.4 126,179.8 126,179.9 125.8,180.3 123.6,182.6 124,183.6 127.2,183.6 127.8,181.9 127,182.2 	"/>
	<path d="M129.4,178.1l-1,1v3.4l1,1h2.2l1-1v-3.4l-1-1H129.4z M131.1,181.9l-0.2,0.3l-0.3,0.2h-0.3l-0.3-0.2l-0.2-0.3v-2.2l0.2-0.3
		l0.3-0.2h0.3l0.3,0.2l0.2,0.3V181.9z"/>
	<polygon points="169.7,178.1 168.3,178.1 167.6,179.5 168.3,179.5 168.3,182.9 168,183.6 170,183.6 169.7,182.9 	"/>
	<path d="M174.4,180H173l-0.5,0.2v-0.4l0.2-0.4l0.4-0.2h1l1,0.3l-0.5-1.5h-2.5l-1.1,1.1v3.3l1,1h2.2l1-1v-1.7L174.4,180z
		 M173.9,181.9l-0.2,0.3l-0.3,0.2H173l-0.3-0.2l-0.2-0.3v-0.3l0.2-0.3l0.3-0.2h0.4l0.3,0.2l0.2,0.3V181.9z"/>
	<g>
		<g>
			<path d="M83.9,130.8l0.8,0.8l-1.4,0.7l-1.2-1.2h-1.3l-1.2-1.2v-4l1.2-1.2h2.8l1.2,1.2v3.9L83.9,130.8z M83,126.7l-0.2-0.4
				l-0.4-0.2H82l-0.4,0.2l-0.2,0.4v2.4l0.2,0.4l0.4,0.2h0.5l0.4-0.2l0.2-0.4V126.7z"/>
			<path d="M91,125.5v4l0.1,0.5l-1.2,1.2h-2.7L86,130l0.1-0.5v-4l-0.2-0.7h2.2l-0.2,0.7v3.6l0.2,0.4l0.4,0.2h0.4l0.4-0.2l0.2-0.4
				v-3.6l-0.2-0.7h2.1L91,125.5z"/>
			<path d="M95.4,131.2l0.1-0.7l-0.1-0.5l-0.1-0.1h-1.5l-0.1,0.1l-0.1,0.5l0.1,0.7h-2.1l0.4-0.7l1.3-5.1l-0.1-0.6h3.1l-0.1,0.6
				l1.3,5.1l0.4,0.7H95.4z M94.5,126.4l0-0.3L94.5,126.4l-0.6,2l0.1,0.1h0.8l0.1-0.1L94.5,126.4z"/>
			<path d="M101.8,131.2H98l0.2-0.7v-4.9l-0.2-0.7h2.3l-0.3,0.8v3.9l0.1,0.1h1.3l0.9-0.3L101.8,131.2z"/>
			<path d="M102.8,131.2l0.2-0.7v-4.9l-0.2-0.7h2.2l-0.2,0.7v4.9l0.2,0.7H102.8z"/>
			<path d="M109.9,126.3h-0.7l-0.1,0.1v3.8l0.3,1H107l0.3-1v-3.8l-0.1-0.1h-0.7l-1,0.3l0.6-1.8h4.1l0.6,1.8L109.9,126.3z"/>
			<path d="M115.6,125.5l-1.6,3.2v1.5l0.3,1H112l0.3-1v-1.4l-1.6-3.3l-0.5-0.7h2.2l0.1,0.6l0.7,1.4l0.1,0.3l0.1-0.3l0.7-1.4l0.1-0.6
				h2L115.6,125.5z"/>
		</g>
		<g>
			<path d="M188.3,126.2H187l-0.3,0.1l-0.1,0.3v0.2l0.2,0.2l1.4,0.3l0.9,0.9v1.8l-1.2,1.2h-2.7l-0.6-1.9l1,0.3h1.3l0.3-0.1l0.1-0.3
				v-0.4l-0.2-0.2l-1.4-0.3l-0.8-0.8V126l1.2-1.2h2.6l0.6,1.7L188.3,126.2z"/>
			<path d="M194.1,131.2h-4l0.2-0.7v-4.9l-0.2-0.7h3.8l0.6,1.7l-0.8-0.3h-1.6l-0.1,0.1v0.6l0.1,0.1h0.6l0.7-0.2v1.9l-0.7-0.2h-0.6
				l-0.1,0.1v0.9l0.1,0.1h1.5l1-0.3L194.1,131.2z"/>
			<path d="M198.8,131.2l-0.7-2.1l-0.2-0.1h-0.5l-0.1,0.1v1.3l0.2,0.7h-2.2l0.2-0.7v-4.9l-0.2-0.7h4l1.2,1.2v1.8l-0.8,0.8l0.6,1.7
				l0.5,0.9L198.8,131.2L198.8,131.2z M198.7,126.8l-0.2-0.4l-0.4-0.2h-0.8l-0.1,0.1v1.1l0.1,0.1h0.8l0.4-0.2l0.2-0.4V126.8z"/>
			<path d="M206.3,125.5l-1.8,5.7h-1.6l-1.7-5.7l-0.4-0.7h2.2l-0.1,0.7l0.8,2.8l0,0.4l0-0.4l0.8-2.8l-0.1-0.7h2.1L206.3,125.5z"/>
			<path d="M207,131.2l0.2-0.7v-4.9l-0.2-0.7h2.2l-0.2,0.7v4.9l0.2,0.7H207z"/>
			<path d="M214.3,131.2h-2.6l-1.3-1.3V126l1.3-1.3h2.5l0.6,1.9l-1.1-0.4h-0.6l-0.5,0.3l-0.2,0.5v1.9l0.2,0.5l0.5,0.3h0.7l1.1-0.4
				L214.3,131.2z"/>
			<path d="M219.6,131.2h-4l0.2-0.7v-4.9l-0.2-0.7h3.8l0.6,1.7l-0.8-0.3h-1.6l-0.1,0.1v0.6l0.1,0.1h0.6l0.7-0.2v1.9l-0.7-0.2h-0.6
				l-0.1,0.1v0.9l0.1,0.1h1.5l1-0.3L219.6,131.2z"/>
		</g>
	</g>
</g>
</svg>
