<?xml version="1.0" encoding="utf-8"?>
<!-- Generator: Adobe Illustrator 21.1.0, SVG Export Plug-In . SVG Version: 6.00 Build 0)  -->
<svg version="1.1" id="Layer_1" xmlns="http://www.w3.org/2000/svg" xmlns:xlink="http://www.w3.org/1999/xlink" x="0px" y="0px"
	 viewBox="0 0 2564.2 2954.1" style="enable-background:new 0 0 2564.2 2954.1;" xml:space="preserve">
<style type="text/css">
	.st0{fill:none;}
</style>
<g>
	<g>
		<path d="M640.2,684.7l-12.7-30.6l-50.6-60.6l-5.6-0.5L535,623.4l-0.5,5.6l50.6,60.6l27.8,17.9l-72.7,60.8l-12.7-30.6L390.8,574
			L363,556.1l72.7-60.8l12.7,30.6l38,45.4l5.6,0.5l36.4-30.4l0.5-5.6l-38-45.4L463,472.6l72.7-60.8l12.7,30.6L685.1,606l27.8,17.9
			L640.2,684.7z"/>
		<path d="M885.2,534.7l-152.4,79.2l-5.8-32.6l-98.3-189.2l-23.3-23.5l147.1-76.5l56.7,55.1l-36.3,5.5l-60.3,31.3l-1,5l12.7,24.5
			l5.3,1.7l22.8-11.8l21.7-22.4l38.2,73.6l-30.8,4.9l-22.8,11.8l-1.7,5.3l17.3,33.3l8,2.5l58.9-30.6l30.4-31.4L885.2,534.7z"/>
		<path d="M1049.6,485L998,406.9l-8.7-1.8l-21,5.6l-2.8,4.8l14.8,55.3l17.7,27.9l-91.5,24.6l1.3-33.1l-55.3-205.9L835,256.5
			l165.9-44.5l62.9,36.3l20,74.4l-25.1,43.5l46.1,65.3l30.7,30.6L1049.6,485z M998.6,302.5l-11.7-13.2l-17.3-3.5l-32.4,8.7l-2.8,4.8
			l12.8,47.7l4.8,2.8l32.4-8.7l13.2-11.7l3.5-17.3L998.6,302.5z"/>
		<path d="M1147.2,467.2l7.3-32.3l-17-212.5l-12.4-30.7l96.4-7.7l-7.3,32.3l17,212.5l12.4,30.7L1147.2,467.2z"/>
		<path d="M1446.4,258.1l-30.7-2.4l-4.2,3.6l-12.7,165.3l10.6,42.4l-104.3-8l17-40.3l12.7-165.3l-3.6-4.2l-30.7-2.4l-42,10.6
			l32.4-76.7l175.2,13.5l20.3,80.8L1446.4,258.1z"/>
		<path d="M1586.9,507.2l12.3-29.3l0.7-24.4l-2.7-4.9l-62.7-17.6l-4.9,2.7l-12.1,21.2l-4.7,31.5l-87.4-24.5l23.7-26.1l112.4-196.1
			l1.2-26.3l129.2,36.2l-12.6,23.1l-5.9,225.9l6.7,34.7L1586.9,507.2z M1607.5,297.8l1.8-13.8l-5.6,12.8l-41.9,76.4l2.7,4.9
			l34.2,9.6l4.9-2.7L1607.5,297.8z"/>
		<path d="M1915.8,517.3l-28.1,52.2l-5.9,19.3l-69.5,20.9l-100.8-54.2l-20.9-69.5l80.4-149.5l74.9-22.5l111.3,59.8l-14.7,84
			l-34.2-36.4l-42.8-23l-26.5-0.8l-18,12.7l-43,80l-0.5,17.7l10.2,14.4l22.6,12.2l16-4.8l21.5-40l1.2-39.7l92.2,49.6L1915.8,517.3z"
			/>
		<path d="M1998.3,754.6l-131.2-110.9L1895,626l137.7-162.8l12.9-30.5l126.6,107.1l-29.4,73.4l-18.9-31.5l-51.9-43.8l-5,1
			l-17.8,21.1l0.5,5.6l19.6,16.6l29,11.6l-53.5,63.3l-16.2-26.7l-19.6-16.6l-5.6,0.5l-24.2,28.6l0.7,8.3l50.7,42.8l40.6,16.2
			L1998.3,754.6z"/>
	</g>
	<g>
		<path d="M242.5,1792.7l-14.8-64.7l-4.7-3l-30.8,7.1l-3,4.7l5.7,25l16.2,26.7l-80.8,18.5l3-31.1l-5.7-25l-4.7-3l-69.3,15.9
			l-32,19.5L0,1689.1l33,2.6l207.8-47.6l28.6-16.7l37,161.6l-67.6,41L242.5,1792.7z"/>
		<path d="M130.7,2076.3l-51.6-111l24.9-68.2l157.5-73.2l68.2,24.9l51.6,111l-24.9,68.2l-157.5,73.2L130.7,2076.3z M292.7,1970.5
			l11-13.8l0.5-17.7l-8.3-17.9l-13.8-11l-17.7-0.5l-93.1,43.3l-11,13.8l-0.5,17.7l8.3,17.9l13.8,11l17.6,0.5L292.7,1970.5z"/>
		<path d="M288.2,2309.2l51.2-78.4l-1.8-8.6l-13.5-17l-5.5-0.6l-44.8,35.6l-18.6,27.4l-58.9-74.2l30.9-11.9l167-132.6l18.6-27.4
			l106.8,134.5l-8.3,72.1l-60.3,47.9l-49.9-5.7l-41.6,68.3l-15.9,40.3L288.2,2309.2z M435.4,2189.8l7.5-16l-3.6-17.3l-20.9-26.3
			l-5.5-0.6l-38.7,30.7l-0.6,5.5l20.9,26.3l16,7.5l17.3-3.6L435.4,2189.8z"/>
		<path d="M639.7,2454.3l-36.9,46.3l-9.2,17.9l-72.1,8.2l-89.6-71.3l-8.2-72.1l105.7-132.9l77.7-8.8l98.9,78.7l-29.4,80.1
			l-27.2-41.9l-38-30.2l-25.9-5.5l-20,9.3l-56.5,71.1l-3.7,17.3l7.4,16l20.1,16l16.6-1.9l28.3-35.5l8.2-38.9l81.9,65.1L639.7,2454.3
			z"/>
		<path d="M776.5,2671.4l-153.6-76.8l23-23.8l95.3-190.7l5.3-32.7l148.3,74.2l-11.3,78.2l-25.8-26.1l-60.7-30.4l-4.6,2.1l-12.4,24.7
			l1.8,5.3l23,11.5l30.9,4.4l-37.1,74.2l-22.1-22.1l-23-11.5l-5.3,1.8l-16.8,33.5l2.6,7.9l59.3,29.7l43.3,6.2L776.5,2671.4z"/>
		<path d="M1112.2,2759.5l-17.9-24.9l-24.9,17.9l-76-12.4l-39.1-54.4l10.8-66.2l72.5-52.1l-18.3-59l49.9-35.8l105.2,17.2l12,78
			l-43-23l-35.1-5.7l-4.5,3.3l28.8,92.7l7.8-10.7l10.6-28.3l62.3,10.2l6.5,9.1l-70.2,74.5l9.2,29.5l39.1,54.4L1112.2,2759.5z
			 M1056.7,2622.3l-13.6,9.8l-7.8,10.7l-3.8,23.4l3.9,12.6l10.7,7.8l17.5,2.9l12.6-3.9L1056.7,2622.3z"/>
		<path d="M1492.2,2537.4l-65.8,8.4l-3.4,4.4l4,31.3l4.4,3.4l25.5-3.3l28.1-13.6l10.5,82.2l-30.6-6l-25.5,3.3l-3.4,4.4l9,70.5
			l16.3,33.7l-95.9,12.3l5.8-32.6l-27.1-211.5l-13.8-30.1l164.5-21.1l34.2,71.2L1492.2,2537.4z"/>
		<path d="M1710.2,2695.6l-6-31.3l-12.9-20.7l-5-2.5l-62,20.1l-2.5,5l1.7,24.4l13.5,28.8l-86.4,28l5.3-34.9l-14.9-225.5l-13.5-22.6
			l127.7-41.4l2.3,26.2l120.1,191.4l24.8,25.2L1710.2,2695.6z M1611.4,2509.7l-6.1-12.5l2.4,13.8l7.4,86.8l5,2.5l33.8-10.9l2.5-5
			L1611.4,2509.7z"/>
		<path d="M1973.7,2566.7l-71.1-61l-8.8,0.7l-18.6,11.2l-1.4,5.4l29.4,49.1l24.7,22l-81.3,48.7l-7.8-32.2l-109.6-182.9l-24.7-22
			l147.3-88.3l70.4,17.6l39.6,66l-12.2,48.7l62.3,50.1l37.9,21L1973.7,2566.7z M1874.6,2405.1l-14.9-9.5l-17.6,1.3l-28.8,17.3
			l-1.4,5.4l25.4,42.3l5.4,1.4l28.8-17.3l9.5-14.9l-1.4-17.6L1874.6,2405.1z"/>
		<path d="M2209.2,2373.6l-83.3-42.7l-8.4,2.7l-15.5,15.2l-0.1,5.6l40.1,40.9l29.2,15.7l-67.7,66.3l-15.1-29.5l-149.2-152.3
			l-29.2-15.7l122.7-120.2l72.6,0.7l53.9,55l-0.5,50.2l72.2,34.2l41.8,11.6L2209.2,2373.6z M2075.2,2239.6l-16.7-5.8l-16.8,5.4
			l-24,23.5l-0.1,5.6l34.5,35.3l5.6,0.1l24-23.5l5.8-16.7l-5.4-16.8L2075.2,2239.6z"/>
		<path d="M2306.7,2260.6l-20.1-26.3l-174.2-123l-31.5-10.2l55.8-79l20.1,26.3l174.2,123l31.5,10.2L2306.7,2260.6z"/>
		<path d="M2478,1965l-75.1,154.4l-24.1-22.7l-191.7-93.3l-32.7-4.9l72.5-149.1l78.3,10.4l-25.9,26.1l-29.7,61.1l2.2,4.6l24.8,12.1
			l5.3-1.8l11.2-23.1l4.1-30.9l74.6,36.3l-21.8,22.3l-11.2,23.1l1.8,5.3l33.7,16.4l7.9-2.7l29-59.6l5.7-43.3L2478,1965z"/>
		<path d="M2543.5,1743.1l-93.3,8l-5.7,6.8l-5.1,21.1l2.9,4.8l55.7,13.4l33-2.2l-22.1,92.1l-28.4-17l-207.3-49.8l-33,2.2l40.1-167
			l61.9-37.9l74.9,18l26.2,42.9l79.4-9.3l41.5-12.3L2543.5,1743.1z M2358.8,1700.8l-17.2,4l-11.4,13.5l-7.8,32.6l2.9,4.8l48,11.5
			l4.8-2.9l7.8-32.6l-4-17.2l-13.5-11.4L2358.8,1700.8z"/>
	</g>
	<path class="st0" d="M1355.8,1293c-27.3-10.9-51.8-14.9-67-14.9c-15.3,0-40.2,4-67.7,15.2l77.3,77.3c6.9-9.2,13.5-18.3,19.7-27.3
		C1329,1327.7,1341.7,1310.7,1355.8,1293z"/>
	<path class="st0" d="M1463.9,1381.9c-15.7-24.5-34.5-43.7-54-58.5c-21.7,21.6-40.2,41.5-53.6,58.3c-6.9,8.6-13.9,17.2-21,25.8
		l46.7,46.7c8.6-7.1,17.2-14.1,25.8-21C1424,1420.3,1443.2,1402.6,1463.9,1381.9z"/>
	<path class="st0" d="M1074.8,1492.9c-3.9,28.3-3.1,75.5,1.2,122.9c32.9-31.9,64.3-63.6,93.7-94.6l-82.6-82.6
		C1081.7,1455.1,1077.5,1473.2,1074.8,1492.9z"/>
	<path class="st0" d="M1083.1,1674.7c3.1,20.1,6.9,38.6,11.1,53.9c45.6-49.3,92.3-97.1,140-142.7l-30.5-30.5
		C1164.9,1595.9,1124.6,1635.7,1083.1,1674.7z"/>
	<path class="st0" d="M1418.9,1491.2l85.5,85.5c1.6-33,1.3-63.2-1.5-83.7c-2.7-19.8-6.9-37.9-12.3-54.4
		c-15.5,12.2-30.5,23.3-44.3,32.9C1437.3,1477.7,1428.2,1484.3,1418.9,1491.2z"/>
	<path class="st0" d="M1673.5,1116c-14.2,5.1-29.3,12.2-43.5,22.1c-31.3,21.9-66,48.8-100.2,77.2c16.1,12.9,31.2,27.5,45,43.8
		c28.2-34.1,54.8-68.5,76.6-99.6c7.6-10.8,13.5-22.2,18.2-33.3c0,0,0,0-0.1,0C1671,1122.8,1672.3,1119.4,1673.5,1116z"/>
	<path d="M979.5,1858.6c-60.1,71.2-117.8,144.4-172.9,218.4c-21.7,29.1,1.9,57.9,24.5,29.6c55.2-69,113.6-139.3,172.9-207.6
		c-6.7-7.9-12.9-17.4-18.6-28.6C983.4,1866.5,981.4,1862.6,979.5,1858.6z"/>
	<path d="M1685.3,1028c20.8-1.3,43.7,7.7,55.1,11.9c-3.3-18.6-7.6-68.4,31.7-107.7c49.3-49.3,102.4-22.1,102.4-22.1l77.8-77.8
		l-23.6-22.7l-62.8,60.9c0,0-86.5-36.2-139.1,16.4c-39.5,39.6-42.4,112.8-41.4,146.7c0,0,0,0,0,0
		C1685.3,1031.9,1685.3,1030,1685.3,1028z M1932.6,834.8c1.8-7.1-0.7-11.4-0.7-11.4l9.4,9.4l-59.7,59.7
		C1881.5,892.5,1930.7,842.4,1932.6,834.8z M1729.6,896.3c26.7-26.7,64.5-29,91.5-26.2c-26.9-0.2-60.7,5.8-86.2,31.3
		c-28.2,28.2-35.9,77.6-37.9,107C1696.9,983.4,1699.9,926.1,1729.6,896.3z"/>
	<path d="M1407.8,1433.2c-8.6,6.9-17.2,13.9-25.8,21l36.9,36.9c9.2-6.9,18.3-13.4,27.3-19.7c13.9-9.6,28.8-20.7,44.3-32.9
		c-7.1-21.5-16.2-40.3-26.6-56.7C1443.2,1402.6,1424,1420.3,1407.8,1433.2z"/>
	<path d="M1094.2,1728.6c2.5,9.2,5.2,17.2,8.1,23.7l2.8,6.4c2.7,6.1,5.5,12.3,8.1,18.7c52.4-56.4,104.5-109.6,155-157.4l-34.1-34.1
		C1186.5,1631.5,1139.8,1679.3,1094.2,1728.6z"/>
	<path d="M1756.2,1112c-11.4-0.2-50.2,1.2-86.6,14.3c-4.7,11.1-10.6,22.4-18.2,33.3c-21.8,31.1-48.4,65.5-76.6,99.6
		c6.4,7.5,12.5,15.4,18.1,23.7c9.6,14,18.1,27.8,25.5,41.5c53.5-54.1,101.3-112,126.9-162c9.7-19,11.8-39.6,10.5-58c0,0,0,0,0,0
		C1756,1106.7,1756.2,1109.3,1756.2,1112z"/>
	<path d="M1742,1047.5C1742,1047.5,1742,1047.4,1742,1047.5L1742,1047.5L1742,1047.5z"/>
	<path d="M1607.1,1067.8c38.7-22.3,65.3-23.8,78.8-22.3c-0.2-3-0.4-7-0.6-11.8c-18.5-1.2-39.1,0.8-58,10.5
		c-50.5,25.9-109.1,74.4-163.7,128.6c2.7,1.4,5.3,2.8,8,4.2C1510.9,1137.2,1558.1,1096,1607.1,1067.8z"/>
	<path d="M1480.5,1181.9c17,9.7,33.5,20.8,49.3,33.4c34.3-28.4,68.9-55.2,100.2-77.2c14.2-9.9,29.2-17,43.5-22.1
		c1.9-5.3,3.6-10.6,5-15.6c0,0,0,0,0,0c7.6-27.4,7.9-48.6,7.9-48.6s-0.2-1.4-0.3-3.9c-13,1.7-39.9,8.8-87.8,36.2
		C1567.3,1101.8,1522.4,1141.4,1480.5,1181.9z"/>
	<path d="M1076,1615.8c1.8,20,4.2,40.1,7.1,58.8c41.5-39,81.8-78.8,120.6-119.4l-34.1-34.1C1140.3,1552.3,1108.9,1583.9,1076,1615.8
		z"/>
	<path d="M682.9,1958.5c-28.3,22.6,0.5,46.2,29.6,24.5c80.5-59.9,160.1-123,237-188.7c-6.5-15.4-12.2-30.5-17.1-45.6
		C851.3,1820.7,766.2,1891.9,682.9,1958.5z"/>
	<path d="M1409.9,1323.4c-14-10.6-28.4-18.9-42.3-25.4c0,0-0.1,0.1-0.1,0.1s0,0,0.1-0.1c-4-1.8-7.9-3.5-11.8-5.1
		c-14.1,17.7-26.8,34.7-37.7,50.4c-6.2,9-12.8,18.1-19.7,27.3l36.9,36.9c7.1-8.6,14.1-17.2,21-25.8
		C1369.7,1365,1388.2,1345,1409.9,1323.4z"/>
	<path d="M1902.7,1062.8c52.6-52.6,16.4-139.1,16.4-139.1l60.9-62.8l-22.7-23.6l-77.8,77.8c0,0,27.2,53.1-22.1,102.4
		c-49.4,49.3-115.3,30.1-115.3,30.1s-0.1,0-0.1,0c0,0,0,0.1,0.1,0.2c0,0.1,0,0.1,0.1,0.2c1.5,3.3,11.8,27.1,13.7,56.3
		C1789.8,1105.2,1863.1,1102.4,1902.7,1062.8z M1954.7,846.2l14.4,14.4c0,0-8.3-4.2-15.9-2.5c-9.7,2.2-24.6,14.3-24.6,14.3
		L1954.7,846.2z M1862.8,1029.8c41.6-41.4,32.2-95.1,32.2-95.1s15.8,57.6-26.9,100.3c-26.7,26.7-64.4,29-91.5,26.2
		C1803.5,1061.3,1837.2,1055.3,1862.8,1029.8z"/>
	<path d="M1742.1,1047.7c0-0.1-0.1-0.1-0.1-0.2l0,0C1742,1047.6,1742.1,1047.6,1742.1,1047.7z"/>
	<path d="M1744.1,1052.6c-0.1,0.8-0.1,1.6,0.1,2.6c-5.2,1.5-11.7,0.6-16.7-0.2c-8.6-1.3-16.4-4.5-25.1-5.3c-4.3-0.5-11-0.3-16.2-0.2
		c0-0.5-0.1-1-0.1-1.6l0,0c0.2,2.5,0.3,3.9,0.3,3.9s-0.4,21.2-7.9,48.6c7.7-2.8,16.6-3.6,23.9-5.4c10.4-2.4,21.2-6,32.1-4.6
		c2.6,0.3,5.1,1.1,7.3,2.5l12.9,0.3c0.5,3.6,0.8,7.3,1.1,11.1c0,0,0,0,0.1,0c-2-29.2-12.3-53-13.7-56.3
		C1742.5,1048.6,1743.2,1050.2,1744.1,1052.6z M1725,1083.2c-5.2,5.1-13.5,5.2-18.7,0c-5.1-5.2-5.1-13.5,0-18.7
		c5.1-5.1,13.5-5.1,18.7,0C1730.2,1069.7,1730.2,1078.1,1725,1083.2z"/>
	<path d="M1685.9,1045.4c-0.2-3-0.4-7-0.5-11.8c0,0,0,0,0,0C1685.5,1038.5,1685.7,1042.4,1685.9,1045.4L1685.9,1045.4z"/>
	<path d="M1742.1,1047.7c0,0,0,0.1,0.1,0.2C1742.1,1047.8,1742.1,1047.8,1742.1,1047.7z"/>
	<path d="M1685.4,1033.6c0.1,4.8,0.3,8.8,0.5,11.8c6.8,0.7,10.3,2.2,10.3,2.2s-3-0.7-10.1,0.2c0,0.6,0.1,1.1,0.1,1.6
		c5.2-0.1,11.9-0.2,16.2,0.2c8.6,0.8,16.5,4.1,25.1,5.3c5,0.8,11.5,1.8,16.7,0.2c-0.3-1-0.2-1.8-0.1-2.6c-0.9-2.4-1.6-4-2-4.8
		c0-0.1-0.1-0.1-0.1-0.2c0-0.1-0.1-0.2-0.1-0.2C1740.9,1047,1716.2,1035.7,1685.4,1033.6z"/>
	<path d="M1673.5,1116C1673.5,1116,1673.5,1116,1673.5,1116c2-5.4,3.6-10.6,5-15.6c0,0,0,0,0,0
		C1677.1,1105.4,1675.4,1110.7,1673.5,1116z"/>
	<path d="M1737.8,1103.1c0,0,6.9,0.8,18,1.1c-0.3-3.8-0.6-7.5-1.1-11.1l-12.9-0.3c-2.2-1.3-4.7-2.1-7.3-2.5
		c-10.9-1.4-21.7,2.2-32.1,4.6c-7.3,1.7-16.2,2.6-23.9,5.4c-1.4,5-3,10.3-4.9,15.6C1708.1,1103.6,1737.8,1103.1,1737.8,1103.1z"/>
	<path d="M1203.7,1555.3l30.5,30.5c4.9-4.6,9.7-9.3,14.6-13.9l-31.2-31.2C1213,1545.6,1208.3,1550.5,1203.7,1555.3z"/>
	<path d="M1335.3,1407.5c-35.7,43.4-73.5,86.1-112.9,128l31.2,31.9c42.1-39.5,84.9-77.4,128.4-113.2L1335.3,1407.5z"/>
	<path d="M1475.3,1752.3c15.1-34.2,25.9-110.5,29.1-175.7l-85.5-85.5c-41.6,31-85.8,68.5-131.5,110.8l175.4,179.1
		c3-7.6,6.4-15.1,9.6-22.4L1475.3,1752.3z"/>
	<path d="M705.8,833.3c7.5-16.1-0.2-28.4-0.2-28.4l20.4,20.4c0,0-35.3,35.3-62.8,62.8l76.3-76.3L709,781.2L569.3,920.9l30.6,30.6
		l55.6-55.6C669.9,878.8,701.1,843.4,705.8,833.3z"/>
	<path d="M1087.1,1438.7l82.6,82.6c4.6-4.9,9.2-9.8,13.8-14.7l-88.6-88.6C1092,1424.6,1089.4,1431.5,1087.1,1438.7z"/>
	<path d="M1575.8,1896.4l121.6,124.1l-122.7-122.7c-4.6,5.5-9.3,10.3-14.3,14.2l200.6,200.6c6.6-11.6,24.1-39.5,53.8-69.3
		c39-39,74.9-56.8,74.9-56.8s-32.8,23.8-70.4,61.4c-28.9,28.9-49.6,54.9-57.7,65.4l2.2,2.2c0,0,41.9-10.2,85.7-54
		c43.8-43.9,54-85.7,54-85.7l-251.1-251.1c-12.8,46.9-32.9,92.2-60.2,145.8C1587.2,1880.4,1581.7,1889,1575.8,1896.4z"/>
	<path d="M1283,1606.1c-4.9,4.5-9.8,9.1-14.7,13.8l186.2,186.2c1.9-7.3,4.3-14.4,7-21.5L1283,1606.1z"/>
	<path d="M980.7,1288.8c1.3-2,2.6-4,4-6c31.9-46.5,75.1-80.9,120.5-105.4l-156-156l-116.4,116.3L980.7,1288.8z"/>
	<path d="M823.7,1146.8l-14.2,14.2L964,1315.6c3.4-5.9,7-11.8,10.7-17.7L823.7,1146.8z"/>
	<path d="M1098.7,1409.2l89.9,91.8c41.9-45.3,79.1-89.1,109.8-130.4l-77.3-77.3C1178.1,1310.7,1128.6,1345.4,1098.7,1409.2z"/>
	<path d="M1382,1454.2c-43.5,35.8-86.3,73.7-128.4,113.2l33.8,34.5c45.7-42.3,89.9-79.8,131.5-110.8L1382,1454.2z"/>
	<path d="M1248.8,1572c-4.9,4.6-9.7,9.2-14.6,13.9l34.1,34.1c4.9-4.6,9.8-9.2,14.7-13.8L1248.8,1572z"/>
	<path d="M1169.6,1521.3l34.1,34.1c4.6-4.9,9.3-9.7,13.9-14.6l-34.2-34.2C1178.9,1511.5,1174.3,1516.4,1169.6,1521.3z"/>
	<path d="M1298.4,1370.6c-30.8,41.2-67.9,85.1-109.8,130.4l33.8,34.6c39.4-42,77.2-84.7,112.9-128L1298.4,1370.6z"/>
	<path d="M780,797L941,706.2l113.7,113.7l-91.9,162.6l-26.3,26.2l12.7,12.7l32.3-32.3l112.3-147.9l-174-173.9L771.9,779.5
		l-32.3,32.3l12.8,12.8L780,797z M1077.6,839L973.2,977.3l95.6-147.1L1077.6,839z M919.8,681.2l8.8,8.8l-147.1,95.6L919.8,681.2z"/>
	<polygon points="690.5,1079.6 584.8,1070.4 690.5,1061.2 711.4,1063 683.4,1035.1 590.2,1028.4 671,1022.6 635.1,986.7 
		630.4,986.4 634.5,986.1 622.1,973.7 596.4,999.3 511.1,1150.6 610.3,1249.8 761.6,1164.5 787.2,1138.8 725,1076.6 	"/>
	<polygon points="858.5,893.3 963.1,902.4 858.5,911.5 837.5,909.7 865.8,938 949.2,944.4 877.7,949.9 913.9,986.1 918.6,986.4 
		914.5,986.7 926.9,999.1 952.5,973.5 1037.8,822.2 938.7,723 787.4,808.3 761.8,834 824.1,896.3 	"/>
	<path d="M769,1175.8L608,1266.6l-113.7-113.7l91.9-162.5l26.3-26.3l-12.7-12.7l-32.3,32.3l-112.3,147.9l174,173.9l147.9-112.3
		l32.3-32.3l-12.8-12.8L769,1175.8z M471.5,1129.4l104.4-138.3l-95.6,147.1L471.5,1129.4z M629.3,1287.3l-8.8-8.8l147.1-95.6
		L629.3,1287.3z"/>
	<polygon points="823.6,1146.8 832.8,1137.7 832.8,1137.7 949.1,1021.3 936.5,1008.7 796.6,1148.3 809.4,1161.1 823.7,1146.8 	"/>
	<path d="M752.4,824.6l-12.8-12.8l-76.3,76.3c-2.7,2.7-5.3,5.3-7.8,7.8l0,0l-55.6,55.6l12.7,12.7L752.4,824.6z"/>
	<polygon points="774.5,996.6 635.1,986.7 671,1022.6 732.5,1018.3 874.8,1028.4 732.5,1038.6 683.4,1035.1 711.4,1063 
		796.2,1070.4 725,1076.6 787.2,1138.8 926.9,999.1 914.5,986.7 	"/>
	<polygon points="634.5,986.1 774.5,976.3 913.9,986.1 877.7,949.9 816.5,954.6 683.7,944.4 816.5,934.2 865.8,938 837.5,909.7 
		753.8,902.4 824.1,896.3 761.8,834 622.1,973.7 	"/>
	<path d="M1627.8,1427.8c15.9,56.9,17.4,112.5,12.2,171.3c-1.5,16.6-2,41.8-10,56.8c-6.3,11.8-17,1.4-27-3.2
		c-15.3-6.9-30.3-8.4-33.1-27.8c-2.6-17.6,4.4-33.1,6.6-50.1c7.8-62.1-0.6-129.4-23.2-188.8c-6.1,5.4-12.2,10.8-18.2,16
		c18.8,65.6,16,145.2,4.5,209.8l104.2,104.2c7.7-29.7,12.6-60.9,14.2-95.5c5.2-113.9,1.6-198.1-47.2-288.4
		c-4.5,4.4-8.9,8.8-13.4,13.2C1609.7,1371.9,1619.9,1399.7,1627.8,1427.8z"/>
	<path d="M1510.7,1422.4c-3.8,3.1-7.6,6.2-11.3,9.2c6.2,18.1,11,38,14,59.9c3,22.3,3.2,57.2,1,95.1l11.8,11.8
		C1529.6,1543,1527.7,1477.4,1510.7,1422.4z"/>
	<path d="M1064.3,1491.5c3-22.4,8-42.7,14.4-61.1l-10.9-10.9c-22.1,68.7-20,154.8-13,216.6c3.8-3.7,7.6-7.3,11.4-10.9
		C1061.3,1573.4,1060.3,1521.2,1064.3,1491.5z"/>
	<path d="M1063.8,1692.7c1.8,8.6,3.6,15.3,5,19.3c-2.6-4.8-5.3-10.4-7.8-16.7c-33.6,31.1-68,61.6-102.9,91.6
		c8.5,20.6,18.2,41.2,28.9,62.8c32.3-38.1,65.3-75.6,99-112.2c-4.6-15.2-8.6-33.9-12-54.3
		C1070.5,1686.5,1067.1,1689.6,1063.8,1692.7z"/>
	<path d="M1521.5,1222.2c-3.5,3-7,5.9-10.5,8.9c18,13.4,34.5,28.3,48.1,46.7c2.9-3.5,5.9-6.9,8.8-10.4
		C1553.9,1250.5,1538.2,1235.5,1521.5,1222.2z"/>
	<path d="M1426,1307.7c-2.8,2.7-5.6,5.4-8.3,8.1c19.6,15.1,38.2,34.3,53.9,58.4c3.6-3.7,7.3-7.5,11-11.3
		c-4.5-6.3-9.3-12.3-14.7-17.7C1459.1,1336.2,1444.8,1322.1,1426,1307.7z"/>
	<path d="M1467.6,1269c-6.6,5.9-13.1,11.8-19.4,17.7c6.6,3.9,13.1,8,19.3,12.5c6.9,4.9,13.4,10.4,19.4,16.3
		c7,6.8,13.3,14.4,18.9,22.6c4.8-5.2,9.6-10.5,14.5-15.9C1505.9,1301.7,1488.4,1284,1467.6,1269z"/>
	<path d="M1526.3,1310.2c0.7,1,1.3,2.1,1.9,3.1c7.7-8.6,15.4-17.4,23-26.3c-13.8-19.2-28.7-35.6-47.1-50c-9,7.7-17.9,15.4-26.6,23.2
		C1496.1,1273.8,1512.6,1289.5,1526.3,1310.2z M1523.7,1274c1.9-0.6,4.3,0.3,6.8,2c6.6,4.6,13.7,15,12.5,19.6c-0.5,2-3.9,5.5-5.9,6
		c-3.2,0.7-6.1-3.5-7-6.6c-1.4-4.4-5.2-9.1-8.6-12.2C1517.6,1279.5,1518.3,1275.8,1523.7,1274z"/>
	<path d="M1288.8,1267.5c19.5,0,46,4.8,74.1,16.5c2.6-3.2,5.2-6.3,7.8-9.5c-24.1-10.7-51.7-18.1-81.9-18.1c-31.6,0-60.2,8-85.1,19.5
		l8.9,8.9C1241.5,1272.5,1268.9,1267.5,1288.8,1267.5z"/>
	<path d="M1468,1865.7c22.1,47.6,55.3,61.2,84.8,38.7l-89.5-89.5C1459.9,1831.8,1460.2,1848.9,1468,1865.7z"/>
	<path d="M1109.7,1865.7c12.4-26.6,5.8-53.9-4.4-79.8c-31.5,34.1-63,69.3-94.3,105.1C1043.4,1930.4,1084,1920.9,1109.7,1865.7z"/>
	<path d="M1576.7,1418.5c11.6,33,15.1,68.7,14.9,103.5c-0.1,17.2-1.1,34.4-3.1,51.5c-1.8,15.7-7.6,32.2-5.3,48
		c2,13.9,19.1,24.6,32.8,24.6c18.7,0,15.3-53.1,15.7-63.5c2.8-81.5-3.7-145.8-35.8-219.8c-1.6-3.8-3.4-7.5-5.2-11.2
		c-9.6,9.2-19.3,18.2-29,26.9C1567,1391.8,1571.9,1405.1,1576.7,1418.5z M1603.3,1537.3c1.8-4.2,2.1-10.3,1.5-14.8
		c-0.7-5.1,2.3-7.4,7.6-5.2c1.8,0.8,3.1,3,3.8,6c1.9,7.8,0.4,20.3-3.6,22.9c-1.7,1.1-6.6,1.6-8.4,0.6
		C1601.4,1545.3,1602,1540.3,1603.3,1537.3z M1591.3,1386.8c1.9,0.2,3.8,2,5.4,4.6c4.1,6.9,6.4,19.2,3.4,23
		c-1.3,1.6-5.8,3.5-7.8,3.1c-3.2-0.7-4.1-5.7-3.7-8.9c0.5-4.6-1-10.5-2.9-14.6C1583.4,1389.3,1585.6,1386.3,1591.3,1386.8z"/>
	<path d="M1201.8,1167.7c1.7,0.9,3.4,2.3,5,3.9c7.8,8,13.6,23.1,7.9,31.4c-8.4,12.3-31.9,19.4-44.3,27.5c-2.4,1.6-4.9,3.2-7.4,4.7
		l23,23c10.2-3.9,20.7-7.2,31.4-9.8c7.2-1.7,14.5-3.1,21.9-4.4c7.2-1.2,15-3.2,22.3-3.4c10.1-0.2,20.1-0.5,30.1-0.2
		c20.7,0.5,41.6,1.9,61.9,6c11.2,2.3,22.2,5.5,32.9,9.5c7.1-8.2,14.3-16.5,21.8-24.8c-0.3-0.2-0.6-0.4-0.9-0.6
		c-12.4-8.1-35.8-15.2-44.3-27.5c-5.7-8.4,0.1-23.5,7.9-31.4c1.6-1.6,3.3-3,5-3.9c21.3-11.4,49.8,6.1,71.9,21.1
		c2.7-2.8,5.4-5.5,8.1-8.3c-59.2-29.6-121.5-42.9-167-42.9c-47.8,0-114.1,14.6-175.9,47.5l9.1,9.1
		C1144.7,1178.6,1177.9,1154.8,1201.8,1167.7z"/>
	<path d="M1044.4,1396l-17.2-17.2c-24.7,61.1-34.1,131.3-26,196c2.1,17,9.2,32.6,6.6,50.1c-2.9,19.4-17.9,20.9-33.1,27.8
		c-10.1,4.5-20.7,14.9-27,3.2c-8.1-15-8.5-40.2-10-56.8c-5.2-58.8-3.7-114.3,12.3-171.3c8.8-31.3,20.4-62.1,34.8-91.6l-12.9-12.9
		c-53.4,93.6-57.4,179.6-52,297.1c2,44.4,9.5,83.1,21.4,120.5c35.7-31.8,70.5-63.8,104-95.6
		C1027.9,1574.9,1020.1,1474.6,1044.4,1396z"/>
	<path d="M1420.8,1211.6c-5-1.1-6.1-4.7-2.3-8.9c1.3-1.5,3.9-1.9,7-1.5c2.6,0.3,5.5,1,8.2,2.1c2.3-2.5,4.7-4.9,7-7.4
		c-10.9-6.4-21.9-12.6-33.4-18.2c-12.2-6-26.9-8.7-32.4,7.1c-3.1,8.8,1.7,16.2,9.8,22.4c8.5,6.5,20.5,11.7,30.6,16
		c3.2-3.5,6.4-7,9.6-10.4C1423.5,1212.3,1422.1,1211.9,1420.8,1211.6z"/>
	<path d="M1152.1,1201.3c3-0.3,5.6,0,7,1.5c3.8,4.2,2.7,7.8-2.3,8.9c-3.9,0.8-8.7,2.8-12.1,5.3l9.7,9.7c10.9-4.8,27.7-11,38.5-19.4
		c8.1-6.2,12.9-13.5,9.8-22.4c-5.5-15.8-20.2-13.1-32.5-7.1c-14.4,7-28.1,14.9-41.6,23.1l6.9,6.9
		C1139.8,1204.6,1146.7,1201.8,1152.1,1201.3z"/>
	<path d="M981.8,1362.9c-32.1,73.9-38.6,138.2-35.8,219.8c0.4,10.4-3,63.5,15.7,63.5c13.7,0,30.8-10.7,32.8-24.6
		c2.2-15.8-3.5-32.3-5.3-48c-2-17.1-3-34.3-3.1-51.5c-0.2-34.8,3.3-70.5,14.9-103.5c5.6-16,11.6-31.9,18.3-47.6l-27.9-27.9
		C988,1349.5,984.8,1356.1,981.8,1362.9z M973.4,1546.9c-1.8,1-6.7,0.5-8.4-0.6c-4-2.7-5.5-15.2-3.6-22.9c0.7-3,2-5.3,3.8-6
		c5.2-2.2,8.2,0,7.6,5.2c-0.6,4.5-0.3,10.6,1.5,14.8C975.7,1540.3,976.3,1545.3,973.4,1546.9z M992.1,1394
		c-1.9,4.1-3.4,10.1-2.9,14.6c0.4,3.2-0.5,8.2-3.8,8.9c-2,0.4-6.5-1.5-7.8-3.1c-3-3.7-0.8-16.1,3.4-23c1.6-2.6,3.5-4.5,5.4-4.6
		C992.1,1386.3,994.2,1389.3,992.1,1394z"/>
	<path d="M1520.4,1322.1c-4.8,5.4-9.7,10.7-14.5,15.9c12.9,18.6,22.4,40.4,29.1,63.9c6.1-5.2,12.1-10.5,18.2-16
		c-4-10.5-8.4-20.9-13.3-30.8C1534.2,1343.5,1527.7,1332.4,1520.4,1322.1z"/>
	<path d="M1561.6,1378.6c9.7-8.8,19.4-17.8,29-26.9c-8.4-17.1-18.6-33.4-29-49.5c-3.4-5.3-6.8-10.3-10.4-15.2
		c-7.6,8.9-15.3,17.7-23,26.3C1541.6,1333.9,1552.3,1355.9,1561.6,1378.6z"/>
	<path d="M1499.4,1431.6c3.8-3,7.5-6.1,11.3-9.2c-6.8-22-16-42.2-28.2-59.5c-3.7,3.8-7.3,7.6-11,11.3
		C1482.4,1390.9,1491.9,1409.9,1499.4,1431.6z"/>
	<path d="M1567,1289.2c11.3,17.9,21.3,36.7,30.3,56c4.5-4.4,9-8.8,13.4-13.2c-7.7-14.2-16.4-28.6-26.5-43.2
		c-5.1-7.5-10.6-14.6-16.3-21.4c-2.9,3.5-5.8,7-8.8,10.4C1561.8,1281.5,1564.5,1285.2,1567,1289.2z"/>
	<path d="M994.9,1865.7c5.1,10,10.5,18.4,16.2,25.3c31.3-35.8,62.8-71,94.3-105.1c-4-10-8.5-19.9-12.7-29.4
		c-2.4-5.4-4.6-11.8-6.8-18.9c-33.6,36.6-66.6,74.1-99,112.2C989.5,1855.1,992.1,1860.4,994.9,1865.7z"/>
	<path d="M1374.3,1289.1c2-2.6,4.4-5.8,7.3-9.5c-3.5-1.8-7.1-3.5-10.8-5.1c-2.6,3.2-5.2,6.4-7.8,9.5
		C1366.7,1285.6,1370.5,1287.3,1374.3,1289.1z"/>
	<path d="M1442.2,1207.9c2.2-2.4,4.3-4.7,6.6-7.1c-2.7-1.6-5.3-3.2-8-4.8c-2.3,2.4-4.7,4.9-7,7.4
		C1436.9,1204.5,1440,1206.1,1442.2,1207.9z"/>
	<path d="M1422.3,1240.1c-7.6,7.9-14.7,15.2-21.1,21.9c12.3,5.5,24.3,11.7,36,18.3c3.7,2.1,7.4,4.2,11,6.4
		c6.3-5.9,12.8-11.8,19.4-17.7c-2.7-1.9-5.4-3.8-8.2-5.7C1447.3,1255.3,1434.7,1247.8,1422.3,1240.1z"/>
	<path d="M1375.4,1289.6c14.2,6.8,28.5,15.5,42.3,26.2c2.7-2.7,5.5-5.4,8.3-8.1c-12.2-9.4-26.4-18.8-42.3-27
		C1380.5,1284.1,1377.7,1287.1,1375.4,1289.6z"/>
	<path d="M1424.9,1212.8c-3.2,3.5-6.4,7-9.6,10.4c3.5,1.5,6.7,2.8,9.5,4.1c2.8-3.2,5.8-6.5,8.7-9.9
		C1431.2,1215.5,1428,1213.9,1424.9,1212.8z"/>
	<path d="M1416.8,1236.6c-2.9-1.8-5.8-3.6-8.6-5.5c-7.5,8.3-14.7,16.6-21.8,24.8c3.6,1.3,7.1,2.8,10.6,4.3
		C1402.9,1253,1409.5,1245.1,1416.8,1236.6z"/>
	<path d="M1462.9,1199.1c0.9,0.6,1.9,1.2,2.8,1.8c15.6,9.8,30.9,19.5,45.3,30.2c3.5-3,7-5.9,10.5-8.9c-15.5-12.4-32-23.3-48.8-32.7
		C1469.4,1192.7,1466.1,1195.9,1462.9,1199.1z"/>
	<path d="M1445.6,1216.3c-0.4,1.7-1.2,3.4-2,4.1c-0.8,0.7-1.8,0.9-2.9,0.8c-3.2,3.2-6.3,6.4-9.3,9.5c16.4,9.5,31.9,18.8,46.2,29.4
		c8.7-7.7,17.6-15.5,26.6-23.2c-5.9-4.7-12.2-9.1-18.9-13.4c-9.6-6.1-19.1-12.2-28.7-18.1
		C1452.8,1209.1,1449.2,1212.8,1445.6,1216.3z"/>
	<path d="M1054.9,1636.1c2.6,22.9,5.9,42.5,8.9,56.6c3.4-3.1,6.7-6.2,10.1-9.3c-3.1-18.5-5.6-38.3-7.5-58.2
		C1062.5,1628.8,1058.7,1632.5,1054.9,1636.1z"/>
	<path d="M1455.2,1193.9c2.9-3,5.8-6.1,8.8-9.2c-2.7-1.4-5.4-2.8-8.1-4.2c-2.7,2.7-5.4,5.5-8.1,8.3
		C1450.3,1190.6,1452.8,1192.3,1455.2,1193.9z"/>
	<path d="M1045.1,1645.4c-33.5,31.8-68.4,63.7-104,95.6c4.9,15.5,10.5,30.7,16.9,46.1c34.9-30,69.3-60.6,102.9-91.6
		C1055.2,1681.7,1049.8,1664.7,1045.1,1645.4z"/>
	<path d="M1401.2,1262c6.4-6.7,13.5-14.1,21.1-21.9c-1.9-1.2-3.7-2.3-5.6-3.5c-7.3,8.5-13.9,16.4-19.7,23.6c0.4,0.2,0.8,0.3,1.2,0.5
		C1399.2,1261.1,1400.2,1261.6,1401.2,1262z"/>
	<path d="M1462.9,1199.1c3.2-3.2,6.5-6.4,9.8-9.6c-2.9-1.6-5.8-3.2-8.7-4.7c-3,3.1-5.9,6.1-8.8,9.2
		C1457.9,1195.8,1460.5,1197.5,1462.9,1199.1z"/>
	<path d="M1431.4,1230.8c3-3.1,6.1-6.3,9.3-9.5c-2.3-0.2-4.8-1.7-6.4-3.2c-0.2-0.2-0.5-0.4-0.8-0.6c-3,3.3-5.9,6.6-8.7,9.9
		c2.1,0.9,3.9,1.8,5.4,2.7C1430.6,1230.3,1431,1230.5,1431.4,1230.8z"/>
	<path d="M1375.4,1289.6c2.3-2.5,5.1-5.5,8.3-8.9c-0.7-0.4-1.4-0.7-2.1-1.1c-2.8,3.6-5.3,6.8-7.3,9.5
		C1374.6,1289.2,1375,1289.4,1375.4,1289.6z"/>
	<path d="M1442.2,1207.9c2,1.5,3.3,3.1,3.7,4.5c0.2,0.9,0.1,2.5-0.3,4c3.6-3.6,7.2-7.2,10.9-10.9c-2.6-1.6-5.1-3.2-7.7-4.7
		C1446.5,1203.1,1444.4,1205.5,1442.2,1207.9z"/>
	<path d="M991.4,1343.1l27.9,27.9c2.8-6.6,5.7-13.1,8.9-19.6l-26.4-26.4C998.2,1330.9,994.7,1336.9,991.4,1343.1z"/>
	<path d="M1035.9,1359.1c-3.1,6.5-6,13-8.7,19.7l17.2,17.2c2.2-7.2,4.7-14.2,7.5-21L1035.9,1359.1z"/>
	<path d="M1051.3,1310.2c24.7-37.1,58.1-58.2,96.2-80.2c1.8-1.1,4.2-2.2,6.9-3.4l-9.7-9.7c-0.5,0.4-0.9,0.8-1.4,1.1
		c-2.3,2.2-6.9,4.5-9.4,2.3c-1.6-1.3-2.8-6.1-2.3-8.1c0.4-1.5,1.8-3.1,3.8-4.6l-6.9-6.9c-12.1,7.4-24.1,15-36.2,22.7
		c-32.8,20.8-55.4,46.1-76.5,78.6c-2.9,4.5-5.8,9.1-8.7,13.7l25.6,26.1C1038.5,1331.1,1044.5,1320.5,1051.3,1310.2z M1047.1,1276
		c2.5-1.7,5-2.7,6.8-2c5.4,1.8,6.1,5.5,2.3,8.9c-3.4,3-7.2,7.8-8.6,12.2c-1,3.1-3.8,7.3-7.1,6.6c-2-0.5-5.4-4-5.9-6
		C1033.4,1291,1040.5,1280.6,1047.1,1276z"/>
	<path d="M1040.5,1349.8l15.6,15.9c8.9-19.1,20.3-36.2,34.6-50.2c0.6-0.6,1.3-1.2,2-1.7c6-5.4,12.3-10.6,18.9-15.4
		c9-6.5,18.5-12.4,28.1-17.9c11.8-6.7,23.9-12.9,36.4-18.3c3.3-1.4,6.6-2.7,9.9-4l-23-23c-14.8,9.4-30.1,18.4-44.8,28.1
		C1084.5,1285.6,1059,1314.3,1040.5,1349.8z"/>
	<path d="M1010.7,1289.2c25-39.8,62.3-63.9,101.3-88.3c3-1.9,6.4-4.2,10-6.7l-9.1-9.1c-45.4,24.2-88.3,58.2-119.5,103.7
		c-1.8,2.6-3.5,5.1-5.1,7.7l11.3,11.5C1003.1,1301.6,1006.8,1295.4,1010.7,1289.2z"/>
	<path d="M1508.9,1712.1c4.9-14.3,13.7-58.9,17.2-113.7l-11.8-11.8c-3.7,63.6-14.2,135.6-29.4,170c-4.6,10.6-9.7,21.6-14,32.8
		l97.3,99.4c5.1-6.5,9.9-14.2,14.5-23.1c26.8-52.6,47.9-99.1,61-149.7l-104.2-104.2C1531.9,1654.7,1520.5,1691,1508.9,1712.1z"/>
	<path d="M994.3,1317.5l-11.9-11.9c-3.8,6-7.3,11.9-10.7,17.8l12.9,12.9C987.7,1329.9,991,1323.7,994.3,1317.5z"/>
	<path d="M1463.3,1815l89.5,89.5c4.9-3.7,9.7-8.4,14.3-14.1l-97.4-97.4C1467.1,1800.2,1464.9,1807.5,1463.3,1815z"/>
	<path d="M1212.6,1284.9l-8.9-8.9c-45.4,20.9-78.3,53.3-93.9,69.3c-12.3,12.6-22.2,27.7-30.3,44.5l11.3,11.5
		C1120.8,1339.8,1168.4,1303.7,1212.6,1284.9z"/>
	<path d="M1086.8,1410l-11.3-11.3c-2.8,6.7-5.4,13.7-7.7,20.8l10.9,10.9C1081.2,1423.3,1083.9,1416.5,1086.8,1410z"/>
	<path d="M1007.3,1315.9c-1.9,3-3.7,6-5.5,9l26.4,26.4c1.5-3.1,3.1-6.2,4.7-9.3L1007.3,1315.9z"/>
	<path d="M1469.7,1792.9l97.4,97.4c0.4-0.5,0.8-1,1.2-1.5l-97.3-99.4C1470.6,1790.6,1470.1,1791.7,1469.7,1792.9z"/>
	<path d="M1040.5,1349.8c-0.9,1.8-1.9,3.6-2.8,5.4c-0.6,1.3-1.2,2.6-1.8,3.9l16,16c1.3-3.2,2.7-6.3,4.1-9.4L1040.5,1349.8z"/>
	<path d="M999.5,1308l-11.3-11.5c-2,3-4,6.1-5.9,9.1l11.9,11.9C996,1314.3,997.8,1311.1,999.5,1308z"/>
	<path d="M1090.9,1401.2l-11.3-11.5c-1.4,3-2.8,5.9-4.1,9l11.3,11.3C1088.1,1407,1089.5,1404.1,1090.9,1401.2z"/>
	<polygon class="st0" points="1571.7,2171.3 1566.9,2171.3 1563,2173.2 1561.1,2177 1561.1,2181.4 1563,2185.2 1566.9,2187.1 
		1571.7,2187.1 1575.5,2185.2 1577.4,2181.4 1577.4,2177 1575.5,2173.2 	"/>
	<polygon class="st0" points="1042.9,2148.7 1039,2148.7 1035.2,2150.6 1033.2,2154.4 1033.2,2181.4 1035.2,2185.2 1039,2187.1 
		1042.9,2187.1 1046.7,2185.2 1048.6,2181.4 1048.6,2154.4 1046.7,2150.6 	"/>
	<path d="M1411.7,2209.3l-20-25V2163c0-77.8,169.6-104.3,169.6-104.3V2019h-169.6h-214.1v4.2h-15.2v5.8h-227v10.3
		c0,0,100.3,94.7,227,113.3v14.9h15.2v16.7l-20,25l-37.6,10l-25,29.4v36.9h88.4c14.4-19.7,54.3-33.8,101.2-33.8
		c46.9,0,86.8,14.1,101.2,33.8h88.5v-36.9l-25.1-29.4L1411.7,2209.3z M1247,2202.1h-41.9l2.4-7.7v-52l-2.4-7.7h40.4l6.1,18.3
		l-8.5-2.9h-16.5l-0.8,1v6.7l1,1h6.3l7.2-2.4v20.2l-7.2-2.4h-6.3l-1,1v9.1l1.4,1.4h16.2l10.1-3.4L1247,2202.1z M1280.2,2158.3
		l14.9,3.4l9.1,9.1v18.8l-12.5,12.5h-28.4l-6.5-19.7l10.1,3.4h13.8l2.9-1.4l1.4-2.9v-3.8l-2.4-2.4l-14.9-3.4l-8.7-8.7v-15.9
		l12.5-12.5h26.9l6.1,18.3l-8.3-2.9h-13.7l-2.9,1.4l-1.4,2.9v1.9L1280.2,2158.3z M1353.6,2150.6h-7.5l-1,1v40.4l3.4,10.1h-25.5
		l3.4-10.1v-40.4l-1-1h-7.5l-10,3.4l6.4-19.2h42.8l6.4,19.2L1353.6,2150.6z"/>
	<polygon points="982.7,2185.2 980.3,2185.7 1002.5,2163.6 1002.5,2146.7 990.4,2134.7 963,2134.7 956.7,2153.9 970.7,2149.1 
		979.4,2149.1 983.2,2151.1 985.1,2154.9 985.1,2157.3 982.7,2162.1 954.8,2190 960.9,2202.1 1000.5,2202.1 1007.3,2181.9 
		997.2,2185.2 	"/>
	<path d="M1027.5,2134.7l-12.5,12.5v42.3l12.5,12.5h26.9l12.5-12.5v-42.3l-12.5-12.5H1027.5z M1048.6,2181.4l-1.9,3.8l-3.8,1.9h-3.8
		l-3.8-1.9l-1.9-3.8v-26.9l1.9-3.8l3.8-1.9h3.8l3.8,1.9l1.9,3.8V2181.4z"/>
	<polygon points="1526.4,2134.7 1509.1,2134.7 1500.5,2152 1508.6,2152 1508.6,2193.4 1505.3,2202.1 1529.8,2202.1 1526.4,2193.4 	
		"/>
	<path d="M1583.7,2157.8h-16.8l-5.8,2.9v-4.8l2.4-4.8l4.8-2.4h12l12.7,4.3l-6-18.3h-30.8l-13.5,13.5v41.4l12.5,12.5h26.9l12.5-12.5
		v-20.7L1583.7,2157.8z M1577.4,2181.4l-1.9,3.8l-3.8,1.9h-4.8l-3.8-1.9l-1.9-3.8v-4.3l1.9-3.8l3.8-1.9h4.8l3.8,1.9l1.9,3.8V2181.4z
		"/>
	<g>
		<g>
			<path d="M463.9,1549.5l10.2,10.2l-17,8.5l-14.7-14.7H426l-14.7-14.7v-49.8l14.7-14.7h35.1l14.7,14.7v48.7L463.9,1549.5z
				 M453.2,1498.5l-2.3-4.5l-4.5-2.3h-5.7l-4.5,2.3l-2.3,4.5v29.4l2.3,4.5l4.5,2.3h5.7l4.5-2.3l2.3-4.5V1498.5z"/>
			<path d="M551.7,1483.3v49.8l1.1,5.7l-14.7,14.7h-33.4l-14.7-14.7l1.1-5.7v-49.8l-2.8-9.1H516l-2.8,9.1v44.7l2.3,4.5l4.5,2.3h4.5
				l4.5-2.3l2.3-4.5v-44.7l-2.8-9.1h26L551.7,1483.3z"/>
			<path d="M606.1,1553.5l1.1-9.1l-1.7-6.8l-1.1-1.1h-18.7l-1.1,1.1l-1.7,6.8l1.1,9.1h-26l4.5-9.1l15.9-62.9l-1.7-7.4h38.5l-1.7,7.4
				l15.9,62.9l4.5,9.1H606.1z M595.5,1494l-0.6-4l-0.6,4l-5.7,24.3l1.1,1.1h10.2l1.1-1.1L595.5,1494z"/>
			<path d="M685.3,1553.5h-46.4l2.8-9.1v-61.2l-2.8-9.1h28.3l-3.4,10.2v48.1l1.7,1.7h15.9l11.7-4L685.3,1553.5z"/>
			<path d="M697.8,1553.5l2.8-9.1v-61.2l-2.8-9.1h27.7l-2.8,9.1v61.2l2.8,9.1H697.8z"/>
			<path d="M785.3,1492.9h-8.8l-1.1,1.1v47.6l4,11.9h-30l4-11.9V1494l-1.1-1.1h-8.8l-11.8,4l7.6-22.7h50.4l7.6,22.7L785.3,1492.9z"
				/>
			<path d="M856.9,1483.3l-19.8,39.6v18.7l4,11.9h-29.4l4-11.9V1524l-20.4-40.8l-6.2-9.1h27.7l1.1,7.9l8.5,17l1.1,3.4l1.1-3.4
				l8.5-17l1.1-7.9h24.9L856.9,1483.3z"/>
		</g>
		<g>
			<path d="M1756.1,1492.3H1740l-3.4,1.7l-1.7,3.4v2.3l2.3,2.3l17.6,4l10.8,10.8v22.1l-14.7,14.7h-33.4l-7.7-23.2l11.9,4h16.2
				l3.4-1.7l1.7-3.4v-4.5l-2.8-2.8l-17.6-4l-10.2-10.2v-18.7l14.7-14.7h31.7l7.1,21.5L1756.1,1492.3z"/>
			<path d="M1827.8,1553.5h-49.3l2.8-9.1v-61.2l-2.8-9.1h47.6l7.1,21.5l-10-3.4h-19.5l-0.9,1.1v7.9l1.1,1.1h7.4l8.5-2.8v23.8
				l-8.5-2.8h-7.4l-1.1,1.1v10.8l1.7,1.7h19l11.9-4L1827.8,1553.5z"/>
			<path d="M1885.5,1553.5l-8.5-25.5l-2.3-1.1h-6.2l-1.1,1.1v16.4l2.8,9.1H1843l2.8-9.1v-61.2l-2.8-9.1h49.3l14.7,14.7v22.1
				l-10.2,10.2l7.9,21.5l6.2,10.8H1885.5z M1885,1499.1l-2.3-4.5l-4.5-2.3h-9.6l-1.1,1.1v14.2l1.1,1.1h9.6l4.5-2.3l2.3-4.5V1499.1z"
				/>
			<path d="M1978.9,1483.3l-22.1,70.2h-20.4l-20.9-70.2l-4.5-9.1h27.7l-1.1,9.1l9.6,35.1l0.6,4.5l0.6-4.5l9.6-35.1l-1.1-9.1h26.6
				L1978.9,1483.3z"/>
			<path d="M1988,1553.5l2.8-9.1v-61.2l-2.8-9.1h27.7l-2.8,9.1v61.2l2.8,9.1H1988z"/>
			<path d="M2077.5,1553.5h-31.7l-15.9-15.9v-47.6l15.9-15.9h30.6l7.7,23.2l-13.6-4.5h-7.7l-6.8,3.4l-2.8,5.7v23.8l2.8,5.7l6.8,3.4
				h8.8l13.6-4.5L2077.5,1553.5z"/>
			<path d="M2143.1,1553.5h-49.3l2.8-9.1v-61.2l-2.8-9.1h47.6l7.1,21.5l-10-3.4h-19.5l-0.9,1.1v7.9l1.1,1.1h7.4l8.5-2.8v23.8
				l-8.5-2.8h-7.4l-1.1,1.1v10.8l1.7,1.7h19l11.9-4L2143.1,1553.5z"/>
		</g>
	</g>
</g>
</svg>
