<?xml version="1.0" encoding="utf-8"?>
<!-- Generator: Adobe Illustrator 21.1.0, SVG Export Plug-In . SVG Version: 6.00 Build 0)  -->
<svg version="1.1" id="Layer_1" xmlns="http://www.w3.org/2000/svg" xmlns:xlink="http://www.w3.org/1999/xlink" x="0px" y="0px"
	 viewBox="0 0 2564.2 2954.1" style="enable-background:new 0 0 2564.2 2954.1;" xml:space="preserve">
<style type="text/css">
	.st0{fill:#F0A71F;}
	.st1{fill:#E74B2A;}
	.st2{fill:#EF8222;}
</style>
<g>
	<g>
		<g>
			<polygon class="st0" points="1205.8,1539.6 905.1,1428.7 887.1,1484.1 1198,1563.6 			"/>
			<polygon class="st0" points="1243.3,1499.3 1065.3,1232.8 1018.1,1267.1 1222.9,1514.1 			"/>
			<polygon class="st0" points="1297.4,1488.7 1310,1168.5 1251.7,1168.5 1272.2,1488.7 			"/>
			<polygon class="st0" points="1347.4,1512 1545.8,1260.3 1498.6,1226 1327,1497.2 			"/>
			<polygon class="st0" points="1374.1,1560.1 1682.6,1473.1 1664.5,1417.7 1366.3,1536.2 			"/>
		</g>
		<g>
			<polygon class="st0" points="1198.1,1566.4 382.2,1553.9 382.2,1612.1 1198.1,1591.6 			"/>
			<polygon class="st0" points="1221.4,1516.5 568.6,1026.7 534.4,1073.8 1206.5,1536.9 			"/>
			<polygon class="st0" points="1269.5,1489.7 1029.4,709.8 973.9,727.8 1245.6,1497.5 			"/>
			<polygon class="st0" points="1324.2,1496.4 1588.4,724.3 1532.9,706.3 1300.3,1488.6 			"/>
			<polygon class="st0" points="1364.6,1533.9 2032.1,1064.5 1997.8,1017.4 1349.8,1513.6 			"/>
			<polygon class="st0" points="1375.1,1588 2191.1,1600.6 2191.1,1542.3 1375.1,1562.8 			"/>
		</g>
	</g>
	<g>
		<path class="st1" d="M0,1974.1v-262.2h97.2c23.6,0,42.5,5.1,56.7,15.3c13.9,10.4,21,28,21.2,52.8c0.4,24.3-9.2,42.2-28.9,53.7v0.7
			c36.2,6.5,54.1,28.7,53.7,66.7c-0.5,26.9-10.1,46-28.8,57.1c-18.5,10.9-40.1,16.2-64.7,16H0z M67.9,1814.9h8
			c9.9,0.2,18.8-1.3,26.6-4.6c7.8-3.2,11.8-10.1,12.1-20.9c-0.2-11.7-4.6-19.1-13.1-22.1c-8.5-2.6-18-3.8-28.4-3.6h-5.2V1814.9z
			 M67.9,1922.1h9.2c5.5,0,11.5-0.2,18-0.7c6.2-0.2,12.2-1.2,18-2.9c6.1-1.6,10.9-4.4,14.5-8.4c3.9-3.7,5.8-9.1,5.8-16
			c0-7.9-1.9-14.1-5.8-18.6c-3.5-4.1-8.3-6.8-14.5-8c-5.8-1.6-12-2.4-18.7-2.4c-6.7,0.2-13.1,0.3-19.2,0.3h-7.2V1922.1z"/>
		<path class="st1" d="M455.7,1974.1h-83.3l-63-100.9h-0.8v100.9h-67.9v-262.2h100.6c26.4,0,47.9,6.4,64.6,19.2
			c16.8,12.9,25.3,33.4,25.5,61.5c0,18.3-4.7,34.4-14.1,48.1c-9.4,13.4-23.2,22-41.4,26L455.7,1974.1z M308.6,1829.4h6.7
			c5.9,0,11.6-0.5,17.2-1.4c5.3-0.7,10.3-2.2,15-4.6c4.7-2.3,8.4-5.6,11.1-10.1c2.8-4.2,4.3-9.8,4.3-16.7c0-7.3-1.4-13.1-4.3-17.6
			c-2.7-4.4-6.4-7.7-11.1-9.7c-4.7-2.4-9.7-4-15-4.9c-2.8-0.5-5.6-0.7-8.3-0.7c-2.8,0-5.8,0-8.9,0h-6.7V1829.4z"/>
		<path class="st1" d="M545.2,1974.1h-67.9v-262.2h67.9V1974.1z"/>
		<path class="st1" d="M692.9,1974.1H625v-204.5h-54.6v-57.7h177.1v57.7h-54.6V1974.1z"/>
		<path class="st1" d="M843.4,1769.6v43.9h74.5v57.7h-74.5v45.2H922v57.7H775.5v-262.2H922v57.7H843.4z"/>
		<path class="st1" d="M1268.6,1801.9c-14.8-18.7-34.1-28.2-57.9-28.4c-20.5,0.2-36.8,7.1-48.9,20.5c-12.4,13.5-18.7,30.5-19,51
			c0.2,20.5,6.6,37.1,19.3,49.9c12.1,13.3,28.6,20,49.6,20.2c22.9-0.2,41.9-9.3,57-27.4v81.1c-10.5,3.5-20.3,6.2-29.3,8.3
			c-9.2,2.6-18.9,3.9-28.9,3.9c-36.4-0.2-68.2-12.9-95.4-38.1c-27.4-26.4-41-59.1-40.8-98.1c0.2-36.7,12.7-68.4,37.5-94.9
			c26.9-27.8,59-41.9,96.5-42.3c20.9,0.2,41.1,4.6,60.4,13.2V1801.9z"/>
		<path class="st1" d="M1444.3,1706.2c37.9,0.5,70.5,12.8,97.7,37.1c27.9,24.3,42.1,56.4,42.8,96.2c-0.4,42.7-13.5,77-39.3,103
			c-25.9,26.3-59.6,39.7-101.1,40.1c-41.6-0.5-75.1-13.8-100.6-40.1c-26.1-26-39.4-60.3-39.8-103c0.7-39.9,15-71.9,43.1-96.2
			C1374.1,1719.1,1406.6,1706.7,1444.3,1706.2z M1444.3,1772.1c-20,0.2-36.9,7.1-50.6,20.5c-14,13.1-21,28.9-21.3,47.4
			c0.2,22.6,7.3,40.9,21.3,55c13.7,14.3,30.6,21.6,50.6,21.8c20.5-0.2,37.5-7.5,50.9-21.8c13.7-14.1,20.7-32.5,20.9-55
			c-0.2-18.5-7.2-34.2-20.9-47.4C1481.8,1779.2,1464.8,1772.3,1444.3,1772.1z"/>
		<path class="st1" d="M1839,1974.1h-83.3l-63-100.9h-0.8v100.9H1624v-262.2h100.6c26.4,0,47.9,6.4,64.6,19.2
			c16.8,12.9,25.3,33.4,25.5,61.5c0,18.3-4.7,34.4-14.1,48.1c-9.4,13.4-23.2,22-41.4,26L1839,1974.1z M1691.9,1829.4h6.7
			c5.9,0,11.6-0.5,17.2-1.4c5.3-0.7,10.3-2.2,15-4.6c4.7-2.3,8.4-5.6,11.1-10.1c2.8-4.2,4.3-9.8,4.3-16.7c0-7.3-1.4-13.1-4.3-17.6
			c-2.7-4.4-6.4-7.7-11.1-9.7c-4.7-2.4-9.7-4-15-4.9c-2.8-0.5-5.6-0.7-8.4-0.7c-2.8,0-5.8,0-8.9,0h-6.7V1829.4z"/>
		<path class="st1" d="M1860.6,1711.8h67.9l119.1,160.4h0.6v-160.4h67.9v262.2h-67.9l-119-160.7h-0.8v160.7h-67.9V1711.8z"/>
		<path class="st1" d="M2234.9,1769.6v43.9h74.5v57.7h-74.5v45.2h78.6v57.7H2167v-262.2h146.5v57.7H2234.9z"/>
		<path class="st1" d="M2573.2,1974.1h-83.3l-63-100.9h-0.8v100.9h-67.9v-262.2h100.6c26.4,0,47.9,6.4,64.6,19.2
			c16.8,12.9,25.3,33.4,25.5,61.5c0,18.3-4.7,34.4-14.1,48.1c-9.4,13.4-23.2,22-41.3,26L2573.2,1974.1z M2426.1,1829.4h6.7
			c5.9,0,11.6-0.5,17.2-1.4c5.3-0.7,10.4-2.2,15-4.6c4.6-2.3,8.3-5.6,11.1-10.1c2.8-4.2,4.3-9.8,4.3-16.7c0-7.3-1.4-13.1-4.3-17.6
			c-2.7-4.4-6.4-7.7-11.1-9.7c-4.7-2.4-9.7-4-15-4.9c-2.8-0.5-5.6-0.7-8.3-0.7c-2.8,0-5.8,0-8.9,0h-6.7V1829.4z"/>
	</g>
	<g>
		<path class="st2" d="M729,2123.3v-58.4h39.1v151H729V2154h-53.8v61.9h-39.1v-151h39.1v58.4H729z"/>
		<path class="st2" d="M891,2061.7c21.8,0.3,40.6,7.4,56.2,21.4c16,14,24.2,32.5,24.6,55.4c-0.2,24.6-7.8,44.3-22.6,59.3
			c-14.9,15.1-34.3,22.9-58.2,23.1c-23.9-0.3-43.2-8-58-23.1c-15-15-22.7-34.7-22.9-59.3c0.4-23,8.7-41.4,24.8-55.4
			C850.6,2069.1,869.3,2062,891,2061.7z M891,2099.7c-11.5,0.1-21.2,4.1-29.1,11.8c-8,7.5-12.1,16.6-12.2,27.3
			c0.1,13,4.2,23.6,12.2,31.7c7.9,8.3,17.6,12.5,29.1,12.6c11.8-0.1,21.6-4.3,29.3-12.6c7.9-8.1,11.9-18.7,12.1-31.7
			c-0.1-10.6-4.1-19.7-12.1-27.3C912.6,2103.7,902.9,2099.8,891,2099.7z"/>
		<path class="st2" d="M1031.2,2064.9h37.4l29.7,80.7l31.3-80.7h37.9l22.1,151h-38l-10.7-87h-0.4l-35.1,87h-15.1l-33.6-87h-0.4
			l-12.2,87h-37.8L1031.2,2064.9z"/>
		<path class="st2" d="M1270.5,2098.2v25.2h42.9v33.2h-42.9v26h45.2v33.2h-84.3v-151h84.3v33.2H1270.5z"/>
		<path class="st2" d="M1444.4,2105.2c-7.6-6.4-16.5-9.7-26.5-9.8c-4,0-7.7,1-11.2,3c-3.8,2.1-5.7,5.2-5.9,9.5
			c0.1,4.2,2.3,7.3,6.6,9.5c4,2.1,7.8,3.7,11.6,4.7l10.4,3c10.6,2.8,19.2,7.2,25.8,13.4c6.7,6.4,10.1,15.5,10.2,27.3
			c0,7.4-1.1,14.7-3.2,21.7c-2.2,7-6.3,13.2-12.2,18.4c-12.3,9.5-26.4,14.1-42.2,14c-19.2-0.3-36.7-6-52.4-17.1l16.8-31.5
			c5.1,4.2,10.5,7.8,16.2,10.7c5.9,3.1,12.1,4.7,18.6,4.7c4.8,0,9.1-1.2,13-3.8c3.8-2.4,5.8-6.2,5.9-11.3c0-2.8-0.8-5.1-2.5-7.1
			c-1.7-2-3.9-3.6-6.6-4.7c-5.8-2.4-11.1-4.1-16-5.2c-5.9-1.7-11.2-3.6-15.9-5.7c-4.9-2-9.1-4.4-12.6-7.3c-3.5-2.9-6.2-6.7-7.9-11.5
			c-2.1-4.7-3.1-10.6-3.1-17.6c0.1-15.5,5-27.6,14.6-36.4c9.4-8.9,21.7-13.5,36.8-13.6c16.5,0.1,32.1,4.3,46.8,12.4L1444.4,2105.2z"
			/>
		<path class="st2" d="M1632.7,2182.7h45.6v33.2h-84.7v-151h39.1V2182.7z"/>
		<path class="st2" d="M1751.9,2182.7h45.6v33.2h-84.7v-151h39.1V2182.7z"/>
		<path class="st2" d="M1937.1,2116.8c-8.5-10.8-19.6-16.2-33.4-16.4c-11.8,0.1-21.2,4.1-28.2,11.8c-7.1,7.8-10.8,17.5-10.9,29.3
			c0.1,11.8,3.8,21.4,11.1,28.8c6.9,7.6,16.5,11.5,28.5,11.6c13.2-0.1,24.1-5.4,32.8-15.8v46.7c-6.1,2-11.7,3.6-16.9,4.8
			c-5.3,1.5-10.9,2.2-16.7,2.2c-21-0.1-39.3-7.4-54.9-21.9c-15.8-15.2-23.6-34-23.5-56.5c0.1-21.1,7.3-39.4,21.6-54.6
			c15.5-16,34-24.1,55.6-24.4c12.1,0.1,23.6,2.7,34.7,7.6V2116.8z"/>
	</g>
</g>
</svg>
