<?xml version="1.0" encoding="utf-8"?>
<!-- Generator: Adobe Illustrator 22.0.1, SVG Export Plug-In . SVG Version: 6.00 Build 0)  -->
<svg version="1.1" id="Layer_1" xmlns="http://www.w3.org/2000/svg" xmlns:xlink="http://www.w3.org/1999/xlink" x="0px" y="0px"
	 viewBox="0 0 300 250" style="enable-background:new 0 0 300 250;" xml:space="preserve">
<style type="text/css">
	.st0{fill:#FFFABE;}
	.st1{fill:#F0A81F;}
	.st2{fill:#E54D29;}
	.st3{fill:#EE8322;}
</style>
<rect class="st0" width="300" height="250"/>
<g>
	<g>
		<g>
			<polygon class="st1" points="142.4,132.1 114.3,121.7 112.6,126.9 141.7,134.4 			"/>
			<polygon class="st1" points="145.9,128.3 129.3,103.4 124.9,106.6 144,129.7 			"/>
			<polygon class="st1" points="151,127.3 152.2,97.4 146.7,97.4 148.7,127.3 			"/>
			<polygon class="st1" points="155.7,129.5 174.2,106 169.8,102.8 153.8,128.1 			"/>
			<polygon class="st1" points="158.2,134 187,125.9 185.4,120.7 157.5,131.8 			"/>
		</g>
		<g>
			<polygon class="st1" points="141.7,134.6 65.4,133.4 65.4,138.9 141.7,137 			"/>
			<polygon class="st1" points="143.9,129.9 82.8,84.1 79.6,88.5 142.5,131.9 			"/>
			<polygon class="st1" points="148.4,127.4 125.9,54.5 120.7,56.2 146.2,128.2 			"/>
			<polygon class="st1" points="153.5,128.1 178.2,55.8 173,54.2 151.3,127.3 			"/>
			<polygon class="st1" points="157.3,131.6 219.7,87.7 216.5,83.3 155.9,129.7 			"/>
			<polygon class="st1" points="158.3,136.6 234.6,137.8 234.6,132.4 158.3,134.3 			"/>
		</g>
	</g>
	<g>
		<path class="st2" d="M29.6,172.8v-24.5h9.1c2.2,0,4,0.5,5.3,1.4c1.3,1,2,2.6,2,4.9c0,2.3-0.9,3.9-2.7,5v0.1c3.4,0.6,5.1,2.7,5,6.2
			c0,2.5-0.9,4.3-2.7,5.3c-1.7,1-3.8,1.5-6.1,1.5L29.6,172.8L29.6,172.8z M36,157.9h0.7c0.9,0,1.8-0.1,2.5-0.4
			c0.7-0.3,1.1-0.9,1.1-2c0-1.1-0.4-1.8-1.2-2.1c-0.8-0.2-1.7-0.4-2.7-0.3H36V157.9z M36,167.9h0.9c0.5,0,1.1,0,1.7-0.1
			c0.6,0,1.1-0.1,1.7-0.3c0.6-0.1,1-0.4,1.4-0.8c0.4-0.3,0.5-0.9,0.5-1.5c0-0.7-0.2-1.3-0.5-1.7c-0.3-0.4-0.8-0.6-1.4-0.7
			c-0.5-0.1-1.1-0.2-1.7-0.2c-0.6,0-1.2,0-1.8,0H36L36,167.9L36,167.9z"/>
		<path class="st2" d="M72.3,172.8h-7.8l-5.9-9.4h-0.1v9.4h-6.4v-24.5h9.4c2.5,0,4.5,0.6,6,1.8c1.6,1.2,2.4,3.1,2.4,5.8
			c0,1.7-0.4,3.2-1.3,4.5c-0.9,1.3-2.2,2.1-3.9,2.4L72.3,172.8z M58.5,159.2h0.6c0.6,0,1.1,0,1.6-0.1c0.5-0.1,1-0.2,1.4-0.4
			c0.4-0.2,0.8-0.5,1-0.9c0.3-0.4,0.4-0.9,0.4-1.6c0-0.7-0.1-1.2-0.4-1.6c-0.3-0.4-0.6-0.7-1-0.9c-0.4-0.2-0.9-0.4-1.4-0.5
			c-0.3,0-0.5-0.1-0.8-0.1c-0.3,0-0.5,0-0.8,0h-0.6L58.5,159.2L58.5,159.2z"/>
		<path class="st2" d="M80.6,172.8h-6.4v-24.5h6.4V172.8z"/>
		<path class="st2" d="M94.5,172.8h-6.4v-19.1H83v-5.4h16.6v5.4h-5.1V172.8z"/>
		<path class="st2" d="M108.5,153.6v4.1h7v5.4h-7v4.2h7.4v5.4h-13.7v-24.5h13.7v5.4L108.5,153.6L108.5,153.6z"/>
		<path class="st2" d="M148.3,156.6c-1.4-1.7-3.2-2.6-5.4-2.7c-1.9,0-3.4,0.7-4.6,1.9c-1.2,1.3-1.7,2.9-1.8,4.8
			c0,1.9,0.6,3.5,1.8,4.7c1.1,1.2,2.7,1.9,4.6,1.9c2.1,0,3.9-0.9,5.3-2.6v7.6c-1,0.3-1.9,0.6-2.7,0.8c-0.9,0.2-1.8,0.4-2.7,0.4
			c-3.4,0-6.4-1.2-8.9-3.6c-2.6-2.5-3.8-5.5-3.8-9.2c0-3.4,1.2-6.4,3.5-8.9c2.5-2.6,5.5-3.9,9-4c2,0,3.8,0.4,5.7,1.2L148.3,156.6
			L148.3,156.6z"/>
		<path class="st2" d="M164.8,147.7c3.5,0,6.6,1.2,9.1,3.5c2.6,2.3,3.9,5.3,4,9c0,4-1.3,7.2-3.7,9.6c-2.4,2.5-5.6,3.7-9.5,3.8
			c-3.9,0-7-1.3-9.4-3.8c-2.4-2.4-3.7-5.6-3.7-9.6c0.1-3.7,1.4-6.7,4-9C158.2,148.9,161.2,147.7,164.8,147.7z M164.8,153.9
			c-1.9,0-3.5,0.7-4.7,1.9c-1.3,1.2-2,2.7-2,4.4c0,2.1,0.7,3.8,2,5.1c1.3,1.3,2.9,2,4.7,2c1.9,0,3.5-0.7,4.8-2c1.3-1.3,1.9-3,2-5.1
			c0-1.7-0.7-3.2-2-4.4C168.3,154.5,166.7,153.9,164.8,153.9z"/>
		<path class="st2" d="M201.7,172.8h-7.8l-5.9-9.4h-0.1v9.4h-6.4v-24.5h9.4c2.5,0,4.5,0.6,6,1.8c1.6,1.2,2.4,3.1,2.4,5.8
			c0,1.7-0.4,3.2-1.3,4.5c-0.9,1.3-2.2,2.1-3.9,2.4L201.7,172.8z M187.9,159.2h0.6c0.6,0,1.1,0,1.6-0.1c0.5-0.1,1-0.2,1.4-0.4
			c0.4-0.2,0.8-0.5,1-0.9c0.3-0.4,0.4-0.9,0.4-1.6c0-0.7-0.1-1.2-0.4-1.6c-0.3-0.4-0.6-0.7-1-0.9c-0.4-0.2-0.9-0.4-1.4-0.5
			c-0.3,0-0.5-0.1-0.8-0.1c-0.3,0-0.5,0-0.8,0h-0.6L187.9,159.2L187.9,159.2z"/>
		<path class="st2" d="M203.7,148.2h6.4l11.1,15h0.1v-15h6.4v24.5h-6.4l-11.1-15H210v15h-6.4L203.7,148.2L203.7,148.2z"/>
		<path class="st2" d="M238.7,153.6v4.1h7v5.4h-7v4.2h7.4v5.4h-13.7v-24.5h13.7v5.4L238.7,153.6L238.7,153.6z"/>
		<path class="st2" d="M270.4,172.8h-7.8l-5.9-9.4h-0.1v9.4h-6.4v-24.5h9.4c2.5,0,4.5,0.6,6,1.8c1.6,1.2,2.4,3.1,2.4,5.8
			c0,1.7-0.4,3.2-1.3,4.5c-0.9,1.3-2.2,2.1-3.9,2.4L270.4,172.8z M256.6,159.2h0.6c0.6,0,1.1,0,1.6-0.1c0.5-0.1,1-0.2,1.4-0.4
			c0.4-0.2,0.8-0.5,1-0.9c0.3-0.4,0.4-0.9,0.4-1.6c0-0.7-0.1-1.2-0.4-1.6c-0.3-0.4-0.6-0.7-1-0.9c-0.4-0.2-0.9-0.4-1.4-0.5
			c-0.3,0-0.5-0.1-0.8-0.1c-0.3,0-0.5,0-0.8,0h-0.6V159.2z"/>
	</g>
	<g>
		<path class="st3" d="M97.8,186.7v-5.5h3.7v14.1h-3.7v-5.8h-5v5.8h-3.7v-14.1h3.7v5.5L97.8,186.7L97.8,186.7z"/>
		<path class="st3" d="M113,181c2,0,3.8,0.7,5.3,2c1.5,1.3,2.3,3,2.3,5.2c0,2.3-0.7,4.1-2.1,5.5c-1.4,1.4-3.2,2.1-5.4,2.2
			c-2.2,0-4-0.7-5.4-2.2c-1.4-1.4-2.1-3.2-2.1-5.5c0-2.2,0.8-3.9,2.3-5.2C109.2,181.6,111,181,113,181z M113,184.5
			c-1.1,0-2,0.4-2.7,1.1c-0.7,0.7-1.1,1.6-1.1,2.6c0,1.2,0.4,2.2,1.1,3c0.7,0.8,1.6,1.2,2.7,1.2c1.1,0,2-0.4,2.7-1.2
			c0.7-0.8,1.1-1.7,1.1-3c0-1-0.4-1.8-1.1-2.6C115,184.9,114.1,184.5,113,184.5z"/>
		<path class="st3" d="M126.1,181.3h3.5l2.8,7.5l2.9-7.5h3.5l2.1,14.1h-3.6l-1-8.1h0l-3.3,8.1h-1.4l-3.1-8.1h0l-1.1,8.1h-3.5
			L126.1,181.3z"/>
		<path class="st3" d="M148.5,184.4v2.4h4v3.1h-4v2.4h4.2v3.1h-7.9v-14.1h7.9v3.1L148.5,184.4L148.5,184.4z"/>
		<path class="st3" d="M164.8,185c-0.7-0.6-1.5-0.9-2.5-0.9c-0.4,0-0.7,0.1-1,0.3c-0.4,0.2-0.5,0.5-0.6,0.9c0,0.4,0.2,0.7,0.6,0.9
			c0.4,0.2,0.7,0.3,1.1,0.4l1,0.3c1,0.3,1.8,0.7,2.4,1.3c0.6,0.6,0.9,1.5,1,2.6c0,0.7-0.1,1.4-0.3,2c-0.2,0.7-0.6,1.2-1.1,1.7
			c-1.2,0.9-2.5,1.3-3.9,1.3c-1.8,0-3.4-0.6-4.9-1.6l1.6-2.9c0.5,0.4,1,0.7,1.5,1c0.6,0.3,1.1,0.4,1.7,0.4c0.4,0,0.9-0.1,1.2-0.4
			c0.4-0.2,0.5-0.6,0.6-1.1c0-0.3-0.1-0.5-0.2-0.7c-0.2-0.2-0.4-0.3-0.6-0.4c-0.5-0.2-1-0.4-1.5-0.5c-0.6-0.2-1-0.3-1.5-0.5
			c-0.5-0.2-0.9-0.4-1.2-0.7c-0.3-0.3-0.6-0.6-0.7-1.1c-0.2-0.4-0.3-1-0.3-1.6c0-1.5,0.5-2.6,1.4-3.4c0.9-0.8,2-1.3,3.4-1.3
			c1.5,0,3,0.4,4.4,1.2L164.8,185z"/>
		<path class="st3" d="M182.4,192.3h4.3v3.1h-7.9v-14.1h3.7V192.3z"/>
		<path class="st3" d="M193.5,192.3h4.3v3.1h-7.9v-14.1h3.7V192.3z"/>
		<path class="st3" d="M210.9,186.1c-0.8-1-1.8-1.5-3.1-1.5c-1.1,0-2,0.4-2.6,1.1c-0.7,0.7-1,1.6-1,2.7c0,1.1,0.4,2,1,2.7
			c0.6,0.7,1.5,1.1,2.7,1.1c1.2,0,2.3-0.5,3.1-1.5v4.4c-0.6,0.2-1.1,0.3-1.6,0.4c-0.5,0.1-1,0.2-1.6,0.2c-2,0-3.7-0.7-5.1-2
			c-1.5-1.4-2.2-3.2-2.2-5.3c0-2,0.7-3.7,2-5.1c1.5-1.5,3.2-2.3,5.2-2.3c1.1,0,2.2,0.3,3.2,0.7L210.9,186.1L210.9,186.1z"/>
	</g>
</g>
</svg>
