<?xml version="1.0" encoding="utf-8"?>
<!-- Generator: Adobe Illustrator 21.1.0, SVG Export Plug-In . SVG Version: 6.00 Build 0)  -->
<svg version="1.1" id="Layer_1" xmlns="http://www.w3.org/2000/svg" xmlns:xlink="http://www.w3.org/1999/xlink" x="0px" y="0px"
	 viewBox="0 0 2564.2 2954.1" style="enable-background:new 0 0 2564.2 2954.1;" xml:space="preserve">
<style type="text/css">
	.st0{fill:#010101;}
	.st1{fill:#0C8643;}
	.st2{fill:#67AC46;}
	.st3{fill:#FFFFFF;}
</style>
<g>
	<path class="st0" d="M1281.6,2760.1c-173.2,0-341.1-33.9-499.2-100.8c-152.7-64.6-289.9-157-407.6-274.9
		C257,2266.6,164.5,2129.4,99.8,1976.7C32.9,1818.6-1,1650.7-1,1477.5s33.9-341.1,100.8-499.2C164.5,825.6,257,688.4,374.7,570.6
		s254.9-210.3,407.6-274.9c158.1-66.9,326.1-100.8,499.2-100.8s341.1,33.9,499.2,100.8c152.7,64.6,289.9,157.1,407.6,274.9
		c117.8,117.8,210.3,254.9,274.9,407.6c66.9,158.1,100.8,326.1,100.8,499.2s-33.9,341.1-100.8,499.2
		c-64.6,152.7-157.1,289.9-274.9,407.6c-117.8,117.8-254.9,210.3-407.6,274.9C1622.6,2726.3,1454.7,2760.1,1281.6,2760.1z
		 M1281.6,247.2c-166.1,0-327.3,32.5-478.9,96.7c-146.5,61.9-278.1,150.7-391.1,263.7S209.9,852.2,147.9,998.7
		c-64.2,151.7-96.7,312.8-96.7,478.9c0,166.1,32.5,327.3,96.7,478.9c62,146.5,150.7,278,263.7,391.1
		c113,113,244.6,201.7,391.1,263.7c151.7,64.2,312.8,96.6,478.9,96.6c166.1,0,327.3-32.5,479-96.6
		c146.5-61.9,278.1-150.7,391.1-263.7s201.7-244.6,263.7-391.1c64.2-151.7,96.7-312.8,96.7-478.9s-32.5-327.3-96.7-478.9
		c-61.9-146.5-150.7-278.1-263.7-391.1s-244.6-201.7-391.1-263.7C1608.9,279.7,1447.7,247.2,1281.6,247.2z"/>
</g>
<path class="st1" d="M1282.9,559.6c521.8,0.2,938.7,418.4,936.4,942.8c-2.5,536.5-450.1,940.4-957.5,931.9
	c-503.5-8.3-918.4-429.1-917.8-946.7C344.5,976.1,766.2,559.3,1282.9,559.6z"/>
<path class="st2" d="M1281.6,2271.7c-39.6,3.5-78.4-4.6-117.5-7.9c-25.9-2.2-32.4-14-27.7-39.1c42-219.3,83.1-438.6,124.5-658
	c2.3-12.1,1.5-27,19.1-28.1c20.4-1.4,20.4,14.7,23,28.5c41.3,219.4,82.4,438.7,124.5,658c4.9,25.6-2.6,36.7-28.2,38.8
	C1360,2267.3,1321.2,2275.1,1281.6,2271.7z"/>
<path class="st2" d="M1370.3,1541.4c32.7-14.7,52.4,7.4,72.7,26.5c125.9,118.3,251.8,236.8,377.6,355.2c3,2.9,6,6,9,8.9
	c57.7,53.6,57.7,53.6,3.1,109c-31.7,32.1-66.3,60.7-102.6,87.4c-15,11-26.2,14.1-37.1-5.3c-107.2-191.1-214.9-381.9-322.3-572.9
	C1369.7,1547.8,1370.5,1544.5,1370.3,1541.4z"/>
<path class="st2" d="M1197.5,1542.3c-31.2,55.6-61.3,109.3-91.5,162.9c-76,134.6-153,268.5-227.4,403.9
	c-17.1,31.2-30.9,32-56.6,11.3c-43.8-35.4-86.4-71.8-123.4-114.5c-13.9-15.9-17.7-26.7,1.3-44.2
	c144.3-133.7,287.4-268.7,430.6-403.4C1147.6,1542.2,1165.9,1530.7,1197.5,1542.3z"/>
<path class="st2" d="M1046.7,1545.8c-153.5,71.4-307.1,142.6-460.4,214.5c-20.5,9.7-28.8,4.7-37-16c-36.8-93.6-35.9-96.6,61.5-120
	c110.3-26.5,220.9-51.7,331.1-78.9C976.6,1536.8,1010.8,1535.8,1046.7,1545.8z"/>
<path class="st2" d="M1509.6,1541.5c57.1-9.5,99,1,141.3,11.4c117,28.7,234.1,56.9,351.6,83.4c27.4,6.2,37.3,14,29.9,44.6
	c-22.9,95-21.5,95.1-109.6,54c-118.1-55.1-236.3-109.7-354.5-164.7C1552.4,1562.6,1536.5,1554.6,1509.6,1541.5z"/>
<g>
	<path class="st0" d="M297.7,1345.9l-5.4,44.2L122,1369.3l5.4-44.2L297.7,1345.9z"/>
	<path class="st0" d="M131.9,1278l11.4-43.2l122.3-52.4l0.1-0.4l-101.5-26.7l11.4-43.2l166,43.6l-11.3,43.2l-122.5,52.4l-0.1,0.4
		l101.7,26.7l-11.3,43.2L131.9,1278z"/>
	<path class="st0" d="M194.9,1059.8l19.6-40l130.2-27.2l0.2-0.4l-94.2-46.2l19.6-40.1l154.1,75.6l-19.6,40.1l-130.5,27.1l-0.2,0.4
		l94.4,46.3l-19.6,40.1L194.9,1059.8z"/>
	<path class="st0" d="M347.6,786.5c7.5-9.8,16.4-17.9,26.8-24.4c10.4-6.5,21.4-10.8,33-13.1c11.5-2.3,23.2-2.2,35,0.3
		c11.8,2.4,22.8,7.6,33.1,15.4c11.1,8.5,19.8,18.1,26.1,28.8c6.3,10.7,10.2,22,11.8,33.8c1.6,11.8,0.7,23.7-2.7,35.8
		c-3.4,12-9.2,23.5-17.7,34.5c-8.3,11-18,19.6-28.7,26s-22,10.4-33.8,11.9c-11.8,1.5-23.7,0.8-35.8-2.5c-12-3.3-23.5-9.1-34.7-17.7
		c-10.2-7.8-18.1-17.1-23.5-27.9s-8.6-22-9.4-33.7c-0.9-11.7,0.4-23.4,4-35.2C334.6,807,340.1,796.3,347.6,786.5z M381.9,812.9
		c-4,5.3-6.8,11.1-8.5,17.2c-1.5,6.2-2.1,12.3-1.4,18.3s2.4,11.7,5.1,17.1c2.8,5.4,6.5,9.9,11.2,13.4c6,4.6,12.1,7.7,18.7,9.3
		c6.5,1.7,12.9,2.3,19.2,1.5c6.3-0.8,12.3-2.6,17.8-5.7c5.6-3,10.4-7.3,14.5-12.6c4-5.3,6.8-11.1,8.3-17.2
		c1.5-6.2,1.7-12.5,0.9-18.7c-1-6.3-3-12.4-6.5-18.1c-3.4-5.9-8-11.1-13.9-15.5c-4.7-3.6-10-6.1-15.9-7.3c-6-1.3-11.8-1.4-17.9-0.4
		c-6,1-11.7,3-17.4,6.1C390.8,803.3,386,807.6,381.9,812.9z"/>
	<path class="st0" d="M565,711.9l-39.1-105.3l35.9-32.5l60.9,176.4l-25.6,23.2L428.4,695l35.9-32.5L565,711.9z"/>
	<path class="st0" d="M686,662.3l6.7,31.3l-39.4,26.2L613,540.5l40.6-27l149,107l-39.6,26.4l-25.8-18.7L686,662.3z M662.7,571.1
		l-0.4,0.2l15,55.7l30.9-20.6L662.7,571.1z"/>
	<path class="st0" d="M861.1,595.1l-40,19.7L762,494.7L728.9,511l-16.7-33.9l106.3-52.3l16.7,33.9L802.1,475L861.1,595.1z"/>
	<path class="st0" d="M948,559.6l-41.7,15.8l-60.9-160.5l41.7-15.8L948,559.6z"/>
	<path class="st0" d="M1024.1,466.8l15.3-111.3l47.1-11.7L1056.7,528l-33.6,8.3L911.6,387.3l47.1-11.7L1024.1,466.8z"/>
	<path class="st0" d="M1165,374.7l2.8,28.5l50.1-5l3.8,37.6l-50.1,5l2.9,29.5l52.8-5.3l3.8,37.6l-97.2,9.7l-17-170.8l97.2-9.8
		l3.8,37.6L1165,374.7z"/>
	<path class="st0" d="M1375.3,476.7l-15.3,28.2l-47.1-5.6l86-162.5l48.4,5.9l43.7,178.2l-47.3-5.6l-7.5-30.9L1375.3,476.7z
		 M1416.8,392.3h-0.4l-24.8,52.1l36.9,4.4L1416.8,392.3z"/>
	<path class="st0" d="M1689.8,480.8c-2,6-4,11.6-6.1,17.1c-2.1,5.5-4.4,10.7-7.3,15.7s-6.1,9.8-9.9,14.3c-3.8,4.4-8.2,8.7-13.3,12.7
		c-11.6,8.9-24,14.1-37.1,15.6s-26.7,0.2-40.4-4c-12.9-3.9-24.1-9.7-33.6-17.1c-9.4-7.5-16.9-16.2-22.2-26.1
		c-5.4-10-8.6-20.9-9.7-32.7c-1.1-11.9,0.4-24.3,4.3-37.2c4-13.3,9.9-24.8,17.5-34.4c7.6-9.5,16.5-17,26.7-22.3
		c10.2-5.3,21.4-8.5,33.6-9.3c12.3-0.9,24.9,0.7,38.2,4.8c17,5.2,30.7,13.4,41,24.9c10.3,11.5,16.7,26,19.1,43.6l-45.7,4.7
		c-0.5-8.7-3-16.4-7.7-23c-4.6-6.6-11.2-11.3-20-13.9c-6.9-2.2-13.7-2.5-20-1.1s-11.9,4-17,7.9c-5.1,3.9-9.4,8.6-13.1,14.2
		c-3.7,5.6-6.5,11.6-8.3,17.8c-2,6.4-2.9,13-2.9,19.7s1.1,13.1,3.3,19c2.2,5.9,5.5,11.2,10.1,15.8c4.6,4.7,10.3,8,17.2,10.1
		c9.3,2.8,17.9,2.8,25.7,0.1c7.8-2.8,13.7-8.8,17.5-18.1l-34.8-10.6l10.2-33.5L1689.8,480.8z"/>
	<path class="st0" d="M1888.2,550.4c-1.7-5.1-4.3-9.8-7.6-14.2c-3.4-4.3-7.4-7.9-12-10.6c-1.8-1.1-3.8-2-6.1-2.5
		c-2.2-0.5-4.4-0.9-6.7-0.8c-2.3,0.1-4.3,0.5-6.3,1.4s-3.5,2.4-4.8,4.4c-1.3,2.2-1.8,4.4-1.5,6.6c0.3,2.2,1,4.3,2,6.5
		c1.1,2.1,2.4,4.1,3.9,6c1.5,1.8,3,3.6,4.4,5.1l8,8.7c4.2,4.6,7.8,9.2,11.1,14c3.1,4.8,5.4,9.7,6.8,14.7c1.4,5.1,1.7,10.3,1.1,15.8
		c-0.7,5.5-2.8,11.3-6.4,17.2c-4.3,7.3-9.7,13.9-16,19.7s-14,9.5-22.8,11.1c-8.8,1.5-17.6,1.2-26.1-1c-8.6-2.2-16.6-5.4-24.1-9.9
		c-9.4-5.5-17.7-12.4-24.7-20.5s-12.9-17.1-17.2-27l34.7-21.3c2.4,7,5.5,13.8,9.3,20.1c3.8,6.3,9.1,11.5,15.8,15.4
		c2.2,1.3,4.7,2.3,7.2,3c2.6,0.8,5.1,1,7.6,0.9c2.5-0.1,4.8-0.9,7-2.1c2.3-1.2,4.1-3.1,5.6-5.7c1.6-2.7,2.2-5.5,1.6-8.3
		c-0.5-2.8-1.6-5.5-3.3-8.2s-3.6-5.3-5.7-7.7c-2.3-2.4-4.2-4.4-5.9-6.4c-5-5.2-9.4-10.3-13.2-15.1c-3.8-4.8-6.5-9.8-8.3-14.9
		c-1.7-5.1-2.3-10.5-1.4-16.2c0.8-5.6,3.4-12.1,7.6-19.3c4.4-7.5,9.7-13.4,15.8-18.1c6.2-4.7,12.8-7.8,19.8-9.4s14.4-1.8,22-0.5
		c7.6,1.3,15.1,4.1,22.6,8.6c3.7,2.2,7.4,4.8,11.2,7.8c3.8,3,7.4,6.2,10.7,9.7c3.4,3.4,6.5,6.9,9.5,10.7c2.9,3.8,5.5,7.6,7.7,11.3
		L1888.2,550.4z"/>
	<path class="st0" d="M1951,536l41.6,33.6l-4.4,56.5l54.3-16l41.6,33.6l-105.3,29.6l-51.8,64.1l-34.7-28.1l51.8-64.1L1951,536z"/>
	<path class="st0" d="M2135.7,765.2c-0.2-5.4-1.3-10.6-3.1-15.7c-2-5.1-4.8-9.8-8.5-13.8c-1.4-1.5-3.1-2.9-5.1-4.1
		c-2-1.2-4-2.1-6.2-2.7c-2.2-0.5-4.3-0.8-6.4-0.4c-2.2,0.3-4,1.3-5.9,2.9c-2,1.7-3,3.7-3.4,5.9c-0.3,2.2-0.3,4.4,0,6.7
		c0.3,2.3,1.1,4.7,2,6.8c1,2.3,1.8,4.3,2.7,6.2l5.2,10.7c2.7,5.6,4.8,11.2,6.5,16.6c1.6,5.5,2.4,10.8,2.3,16.2
		c-0.1,5.2-1.3,10.4-3.6,15.5c-2.3,5.1-6,10-11.1,14.6c-6.3,5.7-13.2,10.5-21,14.2c-7.8,3.8-16.2,5.1-24.9,3.9
		c-8.9-1.1-17.1-4-24.7-8.6c-7.6-4.6-14.3-10-20.2-16.4c-7.4-8-13.3-17-17.7-26.9c-4.4-9.9-7.4-20.2-8.7-30.8l39.5-10.3
		c0.2,7.4,1.3,14.7,3.1,21.9c1.8,7.2,5.4,13.6,10.6,19.3c1.7,2,3.8,3.6,6,5c2.3,1.4,4.6,2.5,6.9,3c2.4,0.5,4.9,0.7,7.4,0.1
		c2.5-0.5,4.9-1.8,7-3.9c2.4-2.2,3.7-4.7,3.9-7.5c0.2-2.8,0-5.7-0.8-8.9s-1.8-6.1-3.4-9c-1.4-2.9-2.7-5.5-3.8-7.8
		c-3.3-6.5-6.1-12.6-8.2-18.2c-2.3-5.6-3.5-11.2-3.7-16.6s0.9-10.6,3.4-15.9c2.4-5.2,6.7-10.6,12.9-16.3
		c6.4-5.9,13.2-10.1,20.5-12.8c7.3-2.6,14.5-3.7,21.7-3.3c7.3,0.4,14.3,2.4,21.1,5.9c6.8,3.5,13.2,8.3,19.1,14.7
		c2.8,3.1,5.6,6.7,8.5,10.6c2.7,4,5.2,8.1,7.5,12.4c2.3,4.2,4.2,8.6,6,13s3.1,8.8,4.1,13.1L2135.7,765.2z"/>
	<path class="st0" d="M2107.4,938.8l-25.8-36.4l109.3-77.3l-21.4-30.1l30.9-21.8l68.4,96.6l-30.8,21.8l-21.3-30.1L2107.4,938.8z"/>
	<path class="st0" d="M2273.2,954.5l-25.3,13.7l24,44.2l-33.3,18l-24-44.2l-26,14.1l25.3,46.6l-33.3,18L2134,979l150.9-81.7
		l46.5,85.9l-33.2,18L2273.2,954.5z"/>
	<path class="st0" d="M2361.4,1045.6l14.1,41.6l-75.8,62.4l98.8,5.5l14.2,42.1l-154.3,79.6l-14.3-42.3l89.6-43.5l-0.1-0.4
		l-106.8-7.4l-5.6-16.8l81-69l-0.1-0.4l-98.2,18l-14.2-42.1L2361.4,1045.6z"/>
	<path class="st0" d="M2396.9,1364c2.8-4.6,4.9-9.5,6.2-14.9c1.3-5.3,1.5-10.7,0.7-16c-0.3-2.1-1-4.2-1.8-6.3c-1-2.1-2.2-4-3.6-5.6
		c-1.5-1.7-3.1-3-5.1-3.9c-2-1-4-1.2-6.5-0.9c-2.5,0.4-4.6,1.4-6.1,3c-1.5,1.6-2.8,3.5-3.8,5.6s-1.7,4.4-2.2,6.8
		c-0.5,2.4-0.9,4.6-1.2,6.6l-1.6,11.7c-1,6.1-2.3,11.9-3.9,17.3c-1.7,5.4-4.1,10.4-7.2,14.6c-3,4.3-6.9,7.9-11.6,10.8
		c-4.7,2.9-10.5,4.9-17.5,6c-8.5,1.3-16.9,1.3-25.5,0c-8.6-1.3-16.2-4.8-22.9-10.7c-6.7-5.9-11.9-12.9-15.7-20.9
		c-3.7-8-6.3-16.4-7.6-24.8c-1.6-10.8-1.5-21.6,0.3-32.2c1.8-10.6,5.2-20.8,10.1-30.4l38.4,13.6c-4,6.3-7.2,12.9-9.7,19.8
		c-2.5,6.9-3.1,14.3-2,21.9c0.3,2.5,1.1,5.1,2.2,7.5c1.1,2.5,2.4,4.6,4.1,6.4c1.6,1.8,3.7,3.3,6.1,4.1c2.4,1,5.1,1.2,8,0.8
		c3.1-0.4,5.6-1.8,7.5-4c1.8-2.2,3.3-4.8,4.3-7.8c1.1-3,1.8-6.1,2.3-9.3c0.4-3.3,0.9-6.1,1.2-8.6c0.9-7.2,2.1-13.8,3.4-19.7
		c1.3-6,3.4-11.2,6.3-15.8c2.8-4.6,6.7-8.3,11.6-11.3c5-2.9,11.5-5.1,19.7-6.3c8.6-1.3,16.6-1,24.1,0.9c7.5,1.8,14.1,5,19.8,9.4
		c5.7,4.4,10.5,10,14.2,16.7c3.8,6.7,6.3,14.3,7.6,22.9c0.7,4.2,1,8.7,1,13.6c0,4.9-0.2,9.7-0.8,14.4s-1.3,9.4-2.4,14.2
		c-1.1,4.7-2.4,9.1-3.9,13.1L2396.9,1364z"/>
</g>
<g>
	<path class="st0" d="M407.6,2235l-21.4-25.7l77.2-64.2l-17.7-21.3l21.8-18.1l56.7,68.3l-21.8,18.1l-17.7-21.3L407.6,2235z"/>
	<path class="st0" d="M535.1,2225.4l-15.3,15.2l26.6,26.8l-20.2,20l-26.6-26.8l-15.7,15.6l28,28.2l-20.2,20l-51.6-52.1l91.4-90.7
		l51.6,52.1l-20.2,20L535.1,2225.4z"/>
	<path class="st0" d="M597.8,2414.2l-32.2-26.5l7-58.3l-0.2-0.2l-31.4,38.3l-25.8-21.3l81.9-99.4l38.6,31.8c4.9,4,9,8.3,12.3,13.1
		c3.3,4.7,5.3,9.5,6.4,14.5c1,5,0.8,10.2-0.7,15.5s-4.3,10.6-8.7,15.8c-2.8,3.5-6,6.3-9.4,8.7c-3.5,2.4-7.2,4-11.1,5
		c-3.9,1-7.9,1.2-12,0.7s-8.2-2-12.3-4.2L597.8,2414.2z M586.1,2312.6l2.5,2.1c2.1,1.7,4.3,3.4,6.6,4.8c2.3,1.5,4.7,2.5,7.2,3
		c2.4,0.5,4.9,0.4,7.3-0.3c2.4-0.8,4.8-2.5,7-5.2s3.5-5.3,3.7-7.9c0.2-2.5-0.1-5-1.1-7.3c-1-2.3-2.4-4.4-4.3-6.4
		c-1.8-2-3.9-3.9-6-5.6l-2.5-2.1L586.1,2312.6z"/>
	<path class="st0" d="M705.3,2484.8l-34.9-22.8l0.5-58.8l-0.3-0.2l-27,41.5l-28.1-18.2l70.3-107.9l42,27.3
		c5.3,3.5,9.9,7.4,13.7,11.6c3.8,4.2,6.4,8.9,7.9,13.8c1.5,4.9,2,10.1,1.1,15.5s-3.1,11.1-6.8,16.7c-2.4,3.7-5.2,6.9-8.5,9.7
		c-3.3,2.7-6.7,4.8-10.5,6.2c-3.8,1.4-7.7,2.1-11.9,2.1c-4.1-0.1-8.3-1-12.6-2.8L705.3,2484.8z M682.4,2385.1l2.7,1.7
		c2.3,1.5,4.7,2.8,7.2,4c2.5,1.2,5,2,7.5,2.2c2.5,0.2,4.9-0.1,7.3-1.1c2.4-1,4.4-2.9,6.4-6c2-2.9,2.8-5.7,2.8-8.2s-0.7-4.9-2-7
		c-1.2-2.2-2.9-4.1-5-6c-2.1-1.7-4.3-3.4-6.6-4.9l-2.7-1.7L682.4,2385.1z"/>
	<path class="st0" d="M799.2,2420l-9.9,19.1l33.5,17.2l-13,25.2l-33.5-17.3l-10.2,19.7l35.4,18.2l-13,25.2l-65.1-33.6l59-114.4
		l65.1,33.6l-13,25.2L799.2,2420z"/>
	<path class="st0" d="M980.1,2516.2l15.2-47.3l31.9,10.2l-39.4,122.6l-31.9-10.2l16.2-50.2l-46-14.7l-16.2,50.2l-31.9-10.2
		l39.4-122.6l31.9,10.2l-15.2,47.3L980.1,2516.2z"/>
	<path class="st0" d="M1059.3,2594.3l-12.8,20.4l-34.9-6.4l72-117.7l35.9,6.6l24.4,135.4l-35.1-6.4l-4.2-23.5L1059.3,2594.3z
		 M1094.4,2533l-0.3-0.1l-21,37.8l27.4,5L1094.4,2533z"/>
	<path class="st0" d="M1287,2512.4l-4,72.3c-0.2,4.1-0.5,8.1-1,12.3c-0.4,4.1-1.2,8-2.3,11.8s-2.6,7.5-4.7,11
		c-2.1,3.5-4.7,6.6-8,9.5c-2.8,2.5-6.1,4.6-9.4,6.2c-3.5,1.6-7,2.9-10.8,3.9c-3.8,1-7.6,1.5-11.6,1.8c-3.9,0.3-7.8,0.3-11.6,0.1
		c-3.8-0.2-7.6-0.7-11.5-1.4c-3.9-0.8-7.7-1.7-11.3-3.1c-3.7-1.3-7-3-10.3-5c-3.3-2-6.2-4.3-8.8-7.2c-3-3.3-5.3-6.7-6.9-10.4
		c-1.6-3.7-2.7-7.5-3.4-11.4c-0.7-3.9-1-7.9-1-12s0.1-8.2,0.3-12.3l4-72.3l33.4,1.8l-3.7,67.7c-0.2,4.2-0.3,8.3-0.2,12.6
		c0.1,4.1,0.9,7.9,2.1,11.4c1.3,3.5,3.5,6.3,6.4,8.5s7.2,3.5,12.5,3.8c5.3,0.3,9.7-0.5,12.8-2.4c3.1-1.8,5.6-4.4,7.3-7.7
		s2.8-6.9,3.4-11.1c0.5-4.1,1-8.2,1.2-12.5l3.7-67.7L1287,2512.4z"/>
	<path class="st0" d="M1364.3,2637.1l-33.4,1.7l-5.3-100.3l-27.7,1.4l-1.5-28.3l88.7-4.7l1.5,28.3l-27.7,1.4L1364.3,2637.1z"/>
	<path class="st0" d="M1432.8,2529l3,21.3l37.4-5.3l4,28.1l-37.4,5.3l3.1,22l39.4-5.6l4,28.1l-72.5,10.4l-18.2-127.4l72.5-10.4
		l4,28.1L1432.8,2529z"/>
	<path class="st0" d="M1550.9,2575.6l-18.5,62.1l-19.5,4.3l9.5-60.2L1550.9,2575.6z"/>
	<path class="st0" d="M1671.8,2573l-31.7,10.8l-41.7-121.8l31.7-10.8L1671.8,2573z"/>
	<path class="st0" d="M1649.5,2446l30.4-14l88.7,45.8l0.3-0.1l-33-71.5l30.4-14l54,116.9l-30.4,14l-88.7-45.9l-0.3,0.1l33.1,71.6
		l-30.4,14L1649.5,2446z"/>
	<path class="st0" d="M1922.4,2286.1l42.9,58.3c2.4,3.4,4.8,6.7,7,10.1c2.3,3.5,4.2,6.9,5.7,10.5c1.6,3.6,2.7,7.4,3.4,11.4
		c0.7,4,0.7,8.1-0.1,12.5c-0.7,3.7-1.7,7.4-3.4,10.7c-1.6,3.5-3.6,6.7-5.9,9.9c-2.3,3.1-4.9,6.1-7.7,8.8c-2.8,2.7-5.9,5.2-8.8,7.5
		c-3,2.3-6.3,4.3-9.8,6.2c-3.5,2-7,3.5-10.6,4.8c-3.7,1.3-7.4,2.2-11.2,2.7c-3.8,0.5-7.6,0.5-11.3,0c-4.3-0.5-8.3-1.7-11.9-3.6
		c-3.6-1.8-6.8-4-9.9-6.6c-3-2.6-5.7-5.5-8.3-8.7c-2.6-3.1-5.1-6.4-7.6-9.7l-42.9-58.3l26.9-19.8l40.2,54.5c2.5,3.4,5.1,6.6,7.8,9.8
		c2.7,3.1,5.7,5.6,8.9,7.5c3.1,1.8,6.6,2.6,10.3,2.5c3.7-0.2,7.7-1.8,12-5c4.3-3.1,7-6.5,8.3-10c1.3-3.5,1.5-7,0.7-10.6
		c-0.8-3.6-2.3-7.2-4.4-10.7c-2.2-3.6-4.6-7-7-10.4l-40.2-54.5L1922.4,2286.1z"/>
	<path class="st0" d="M2011.1,2249.8c-4,0.1-8,1-11.8,2.4c-3.8,1.5-7.3,3.6-10.3,6.4c-1.2,1.1-2.2,2.4-3.1,3.8c-0.9,1.4-1.6,3-2,4.7
		c-0.4,1.6-0.5,3.3-0.3,4.8c0.2,1.6,1,3,2.2,4.3c1.3,1.4,2.8,2.3,4.4,2.5c1.6,0.2,3.4,0.2,5.1,0c1.7-0.3,3.5-0.8,5.1-1.5
		c1.6-0.7,3.3-1.4,4.7-2.1l8-3.9c4.2-2.1,8.3-3.7,12.5-4.9c4.1-1.3,8.1-1.8,12.1-1.7c3.9,0.1,7.8,1,11.6,2.6
		c3.8,1.6,7.5,4.4,11.1,8.2c4.3,4.7,7.9,10,10.7,15.7c2.8,5.9,3.8,12,3,18.8c-0.9,6.6-2.9,12.8-6.3,18.5s-7.5,10.7-12.3,15.2
		c-6,5.5-12.7,10-20.1,13.3c-7.4,3.4-15.1,5.5-23.1,6.6l-7.8-29.6c5.5-0.2,11.1-1,16.4-2.4s10.2-4,14.4-8c1.4-1.3,2.7-2.8,3.7-4.6
		c1.1-1.7,1.8-3.5,2.3-5.2c0.4-1.8,0.4-3.6,0-5.5c-0.4-1.8-1.4-3.7-2.9-5.3c-1.6-1.7-3.5-2.7-5.6-2.9c-2.2-0.2-4.3,0-6.7,0.5
		c-2.3,0.7-4.6,1.4-6.7,2.5c-2.2,1.1-4.1,2.1-5.9,2.8c-4.9,2.5-9.4,4.6-13.7,6.2c-4.2,1.7-8.3,2.6-12.5,2.8c-4,0.1-8-0.7-11.9-2.5
		c-3.9-1.8-8-5-12.3-9.7c-4.4-4.8-7.6-9.9-9.7-15.3s-2.8-10.8-2.5-16.3c0.3-5.4,1.8-10.7,4.3-15.9c2.6-5.2,6.3-10,11.1-14.4
		c2.4-2.2,5-4.2,8-6.3c2.9-2.1,6.1-3.9,9.2-5.6c3.1-1.7,6.4-3.1,9.8-4.6c3.4-1.3,6.6-2.4,9.8-3.1L2011.1,2249.8z"/>
	<path class="st0" d="M2114.3,2247.5l11.2,21.4l-23.1,27l-65.5-121.5l23.9-27.8l129.3,47.1l-23.2,27.1l-22.4-8.2L2114.3,2247.5z
		 M2079.1,2186.4l-0.2,0.2l22.1,37.2l18.1-21.1L2079.1,2186.4z"/>
</g>
<path class="st0" d="M223.1,1497c0-20.8,0.7-41.5,1.8-62h-51.7c-1.1,20.6-1.7,41.3-1.7,62c0,217.5,62.2,425.4,178.3,603.6H412
	C289.3,1924.7,223.1,1716,223.1,1497z"/>
<path class="st0" d="M2338.2,1497c0,218.9-66.1,427.7-188.9,603.6h62.2c115.9-178.1,178.3-386,178.3-603.6c0-20.8-0.7-41.5-1.7-62
	h-51.7C2337.6,1455.5,2338.2,1476.2,2338.2,1497z"/>
<rect x="823.1" y="839.9" class="st0" width="412.2" height="399.3"/>
<rect x="823.1" y="839.9" class="st3" width="412.2" height="399.3"/>
<rect x="823.1" y="1299.3" class="st3" width="886.6" height="90.2"/>
<rect x="1299.7" y="1149" class="st3" width="410" height="90.1"/>
<rect x="1299.7" y="990.2" class="st3" width="410" height="90.1"/>
<rect x="1299.7" y="839.9" class="st3" width="410" height="90.2"/>
<g>
	<polygon class="st1" points="959.4,919.6 971.4,956.3 1010,956.3 978.7,979 990.7,1015.7 959.4,993 928.3,1015.7 940.2,979 
		909,956.3 947.6,956.3 	"/>
	<polygon class="st1" points="1099,919.6 1110.9,956.3 1149.5,956.3 1118.3,979 1130.2,1015.7 1099,993 1067.8,1015.7 1079.7,979 
		1048.5,956.3 1087.1,956.3 	"/>
	<polygon class="st1" points="959.4,1063.5 971.4,1100.1 1010,1100.1 978.7,1122.8 990.7,1159.6 959.4,1136.8 928.3,1159.6 
		940.2,1122.8 909,1100.1 947.6,1100.1 	"/>
	<polygon class="st1" points="1099,1063.5 1110.9,1100.1 1149.5,1100.1 1118.3,1122.8 1130.2,1159.6 1099,1136.8 1067.8,1159.6 
		1079.7,1122.8 1048.5,1100.1 1087.1,1100.1 	"/>
</g>
</svg>
