<?xml version="1.0" encoding="utf-8"?>
<!-- Generator: Adobe Illustrator 22.0.1, SVG Export Plug-In . SVG Version: 6.00 Build 0)  -->
<svg version="1.1" id="Layer_1" xmlns="http://www.w3.org/2000/svg" xmlns:xlink="http://www.w3.org/1999/xlink" x="0px" y="0px"
	 viewBox="0 0 300 250" style="enable-background:new 0 0 300 250;" xml:space="preserve">
<style type="text/css">
	.st0{fill:#FFFFFF;}
	.st1{fill:#020202;}
	.st2{fill:#108744;}
	.st3{fill:#67AC44;}
</style>
<rect class="st0" width="300" height="250"/>
<g>
	<g>
		<path class="st1" d="M150,235.1c-14.9,0-29.3-2.9-42.9-8.7c-13.1-5.5-24.9-13.5-35-23.6c-10.1-10.1-18.1-21.9-23.6-35
			c-5.7-13.6-8.7-28-8.7-42.9c0-14.9,2.9-29.3,8.7-42.9C54.1,69,62,57.2,72.1,47.1s21.9-18.1,35-23.6c13.6-5.7,28-8.7,42.9-8.7
			s29.3,2.9,42.9,8.7c13.1,5.5,24.9,13.5,35,23.6c10.1,10.1,18.1,21.9,23.6,35c5.7,13.6,8.7,28,8.7,42.9s-2.9,29.3-8.7,42.9
			c-5.5,13.1-13.5,24.9-23.6,35c-10.1,10.1-21.9,18.1-35,23.6C179.3,232.2,164.9,235.1,150,235.1z M150,19.3
			c-14.3,0-28.1,2.8-41.1,8.3C96.3,33,85,40.6,75.3,50.3S58,71.3,52.6,83.9c-5.5,13-8.3,26.9-8.3,41.1s2.8,28.1,8.3,41.1
			c5.3,12.6,12.9,23.9,22.6,33.6c9.7,9.7,21,17.3,33.6,22.6c13,5.5,26.9,8.3,41.1,8.3c14.3,0,28.1-2.8,41.1-8.3
			c12.6-5.3,23.9-12.9,33.6-22.6c9.7-9.7,17.3-21,22.6-33.6c5.5-13,8.3-26.9,8.3-41.1s-2.8-28.1-8.3-41.1
			c-5.3-12.6-12.9-23.9-22.6-33.6s-21-17.3-33.6-22.6C178.1,22.1,164.3,19.3,150,19.3z"/>
	</g>
	<path class="st2" d="M150.1,46.2c44.8,0,80.6,35.9,80.4,81c-0.2,46.1-38.7,80.8-82.2,80c-43.2-0.7-78.9-36.8-78.8-81.3
		C69.5,81.9,105.7,46.1,150.1,46.2z"/>
	<path class="st3" d="M150,193.2c-3.4,0.3-6.7-0.4-10.1-0.7c-2.2-0.2-2.8-1.2-2.4-3.4c3.6-18.8,7.1-37.7,10.7-56.5
		c0.2-1,0.1-2.3,1.6-2.4c1.8-0.1,1.8,1.3,2,2.4c3.5,18.8,7.1,37.7,10.7,56.5c0.4,2.2-0.2,3.2-2.4,3.3
		C156.7,192.8,153.4,193.5,150,193.2z"/>
	<path class="st3" d="M157.6,130.5c2.8-1.3,4.5,0.6,6.2,2.3c10.8,10.2,21.6,20.3,32.4,30.5c0.3,0.2,0.5,0.5,0.8,0.8
		c5,4.6,5,4.6,0.3,9.4c-2.7,2.8-5.7,5.2-8.8,7.5c-1.3,0.9-2.2,1.2-3.2-0.5c-9.2-16.4-18.5-32.8-27.7-49.2
		C157.6,131,157.6,130.8,157.6,130.5z"/>
	<path class="st3" d="M142.8,130.6c-2.7,4.8-5.3,9.4-7.9,14c-6.5,11.6-13.1,23.1-19.5,34.7c-1.5,2.7-2.7,2.7-4.9,1
		c-3.8-3-7.4-6.2-10.6-9.8c-1.2-1.4-1.5-2.3,0.1-3.8c12.4-11.5,24.7-23.1,37-34.6C138.5,130.6,140.1,129.6,142.8,130.6z"/>
	<path class="st3" d="M129.8,130.9c-13.2,6.1-26.4,12.2-39.5,18.4c-1.8,0.8-2.5,0.4-3.2-1.4c-3.2-8-3.1-8.3,5.3-10.3
		c9.5-2.3,19-4.4,28.4-6.8C123.8,130.1,126.8,130,129.8,130.9z"/>
	<path class="st3" d="M169.6,130.5c4.9-0.8,8.5,0.1,12.1,1c10,2.5,20.1,4.9,30.2,7.2c2.4,0.5,3.2,1.2,2.6,3.8
		c-2,8.2-1.8,8.2-9.4,4.6c-10.1-4.7-20.3-9.4-30.4-14.1C173.3,132.3,171.9,131.6,169.6,130.5z"/>
	<g>
		<path class="st1" d="M65.5,113.7l-0.5,3.8l-14.6-1.8l0.5-3.8L65.5,113.7z"/>
		<path class="st1" d="M51.3,107.9l1-3.7l10.5-4.5l0,0L54,97.3l1-3.7l14.3,3.7l-1,3.7l-10.5,4.5l0,0l8.7,2.3l-1,3.7L51.3,107.9z"/>
		<path class="st1" d="M56.7,89.1l1.7-3.4l11.2-2.3l0,0l-8.1-4l1.7-3.4l13.2,6.5l-1.7,3.4l-11.2,2.3l0,0l8.1,4l-1.7,3.4L56.7,89.1z"
			/>
		<path class="st1" d="M69.8,65.7c0.6-0.8,1.4-1.5,2.3-2.1c0.9-0.6,1.8-0.9,2.8-1.1c1-0.2,2-0.2,3,0c1,0.2,2,0.7,2.8,1.3
			c1,0.7,1.7,1.6,2.2,2.5c0.5,0.9,0.9,1.9,1,2.9s0.1,2-0.2,3.1c-0.3,1-0.8,2-1.5,3c-0.7,0.9-1.5,1.7-2.5,2.2c-0.9,0.5-1.9,0.9-2.9,1
			c-1,0.1-2,0.1-3.1-0.2c-1-0.3-2-0.8-3-1.5c-0.9-0.7-1.6-1.5-2-2.4c-0.5-0.9-0.7-1.9-0.8-2.9c-0.1-1,0-2,0.3-3
			C68.7,67.4,69.2,66.5,69.8,65.7z M72.7,67.9c-0.3,0.5-0.6,1-0.7,1.5c-0.1,0.5-0.2,1.1-0.1,1.6c0.1,0.5,0.2,1,0.4,1.5
			c0.2,0.5,0.6,0.9,1,1.2c0.5,0.4,1,0.7,1.6,0.8c0.6,0.1,1.1,0.2,1.6,0.1c0.5-0.1,1.1-0.2,1.5-0.5c0.5-0.3,0.9-0.6,1.2-1.1
			c0.3-0.5,0.6-1,0.7-1.5c0.1-0.5,0.1-1.1,0.1-1.6c-0.1-0.5-0.3-1.1-0.6-1.6c-0.3-0.5-0.7-1-1.2-1.3c-0.4-0.3-0.9-0.5-1.4-0.6
			c-0.5-0.1-1-0.1-1.5,0c-0.5,0.1-1,0.3-1.5,0.5C73.5,67.1,73.1,67.5,72.7,67.9z"/>
		<path class="st1" d="M88.5,59.3l-3.4-9l3.1-2.8l5.2,15.1l-2.2,2l-14.5-6.8l3.1-2.8L88.5,59.3z"/>
		<path class="st1" d="M98.9,55l0.6,2.7l-3.4,2.2l-3.5-15.4l3.5-2.3l12.8,9.2l-3.4,2.3l-2.2-1.6L98.9,55z M96.9,47.2L96.9,47.2
			l1.3,4.8l2.7-1.8L96.9,47.2z"/>
		<path class="st1" d="M113.9,49.2l-3.4,1.7l-5.1-10.3l-2.8,1.4l-1.4-2.9l9.1-4.5l1.4,2.9l-2.8,1.4L113.9,49.2z"/>
		<path class="st1" d="M121.4,46.2l-3.6,1.4l-5.2-13.8l3.6-1.4L121.4,46.2z"/>
		<path class="st1" d="M127.9,38.2l1.3-9.6l4-1l-2.6,15.8l-2.9,0.7l-9.6-12.8l4-1L127.9,38.2z"/>
		<path class="st1" d="M140,30.3l0.2,2.4l4.3-0.4l0.3,3.2l-4.3,0.4l0.2,2.5l4.5-0.5l0.3,3.2l-8.3,0.8l-1.5-14.7l8.3-0.8l0.3,3.2
			L140,30.3z"/>
		<path class="st1" d="M158.1,39.1l-1.3,2.4l-4-0.5l7.4-14l4.2,0.5l3.8,15.3l-4.1-0.5l-0.6-2.7L158.1,39.1z M161.6,31.8L161.6,31.8
			l-2.2,4.5l3.2,0.4L161.6,31.8z"/>
		<path class="st1" d="M185.1,39.4c-0.2,0.5-0.3,1-0.5,1.5s-0.4,0.9-0.6,1.3c-0.2,0.4-0.5,0.8-0.9,1.2c-0.3,0.4-0.7,0.7-1.1,1.1
			c-1,0.8-2.1,1.2-3.2,1.3c-1.1,0.1-2.3,0-3.5-0.3c-1.1-0.3-2.1-0.8-2.9-1.5c-0.8-0.6-1.5-1.4-1.9-2.2c-0.5-0.9-0.7-1.8-0.8-2.8
			c-0.1-1,0-2.1,0.4-3.2c0.3-1.1,0.9-2.1,1.5-3c0.7-0.8,1.4-1.5,2.3-1.9c0.9-0.5,1.8-0.7,2.9-0.8c1.1-0.1,2.1,0.1,3.3,0.4
			c1.5,0.4,2.6,1.2,3.5,2.1c0.9,1,1.4,2.2,1.6,3.7l-3.9,0.4c0-0.7-0.3-1.4-0.7-2c-0.4-0.6-1-1-1.7-1.2c-0.6-0.2-1.2-0.2-1.7-0.1
			s-1,0.3-1.5,0.7c-0.4,0.3-0.8,0.7-1.1,1.2c-0.3,0.5-0.6,1-0.7,1.5c-0.2,0.5-0.2,1.1-0.2,1.7s0.1,1.1,0.3,1.6
			c0.2,0.5,0.5,1,0.9,1.4c0.4,0.4,0.9,0.7,1.5,0.9c0.8,0.2,1.5,0.2,2.2,0c0.7-0.2,1.2-0.8,1.5-1.6l-3-0.9l0.9-2.9L185.1,39.4z"/>
		<path class="st1" d="M202.1,45.4c-0.1-0.4-0.4-0.8-0.7-1.2c-0.3-0.4-0.6-0.7-1-0.9c-0.2-0.1-0.3-0.2-0.5-0.2
			c-0.2,0-0.4-0.1-0.6-0.1c-0.2,0-0.4,0-0.5,0.1c-0.2,0.1-0.3,0.2-0.4,0.4c-0.1,0.2-0.2,0.4-0.1,0.6c0,0.2,0.1,0.4,0.2,0.6
			c0.1,0.2,0.2,0.4,0.3,0.5c0.1,0.2,0.3,0.3,0.4,0.4l0.7,0.7c0.4,0.4,0.7,0.8,1,1.2c0.3,0.4,0.5,0.8,0.6,1.3
			c0.1,0.4,0.1,0.9,0.1,1.4c-0.1,0.5-0.2,1-0.5,1.5c-0.4,0.6-0.8,1.2-1.4,1.7c-0.5,0.5-1.2,0.8-2,1c-0.8,0.1-1.5,0.1-2.2-0.1
			c-0.7-0.2-1.4-0.5-2.1-0.9c-0.8-0.5-1.5-1.1-2.1-1.8c-0.6-0.7-1.1-1.5-1.5-2.3l3-1.8c0.2,0.6,0.5,1.2,0.8,1.7
			c0.3,0.5,0.8,1,1.4,1.3c0.2,0.1,0.4,0.2,0.6,0.3c0.2,0.1,0.4,0.1,0.7,0.1s0.4-0.1,0.6-0.2c0.2-0.1,0.4-0.3,0.5-0.5
			c0.1-0.2,0.2-0.5,0.1-0.7c0-0.2-0.1-0.5-0.3-0.7c-0.1-0.2-0.3-0.5-0.5-0.7c-0.2-0.2-0.4-0.4-0.5-0.5c-0.4-0.4-0.8-0.9-1.1-1.3
			c-0.3-0.4-0.6-0.8-0.7-1.3c-0.1-0.4-0.2-0.9-0.1-1.4c0.1-0.5,0.3-1,0.7-1.7c0.4-0.6,0.8-1.2,1.4-1.6c0.5-0.4,1.1-0.7,1.7-0.8
			c0.6-0.1,1.2-0.2,1.9,0c0.7,0.1,1.3,0.4,1.9,0.7c0.3,0.2,0.6,0.4,1,0.7c0.3,0.3,0.6,0.5,0.9,0.8c0.3,0.3,0.6,0.6,0.8,0.9
			c0.2,0.3,0.5,0.7,0.7,1L202.1,45.4z"/>
		<path class="st1" d="M207.5,44.1l3.6,2.9l-0.4,4.9l4.7-1.4l3.6,2.9l-9,2.5l-4.4,5.5l-3-2.4l4.4-5.5L207.5,44.1z"/>
		<path class="st1" d="M223.4,63.8c0-0.5-0.1-0.9-0.3-1.3c-0.2-0.4-0.4-0.8-0.7-1.2c-0.1-0.1-0.3-0.2-0.4-0.4
			c-0.2-0.1-0.3-0.2-0.5-0.2c-0.2,0-0.4-0.1-0.5,0c-0.2,0-0.3,0.1-0.5,0.2c-0.2,0.1-0.3,0.3-0.3,0.5c0,0.2,0,0.4,0,0.6
			c0,0.2,0.1,0.4,0.2,0.6c0.1,0.2,0.2,0.4,0.2,0.5l0.4,0.9c0.2,0.5,0.4,1,0.6,1.4c0.1,0.5,0.2,0.9,0.2,1.4c0,0.4-0.1,0.9-0.3,1.3
			s-0.5,0.9-1,1.3c-0.5,0.5-1.1,0.9-1.8,1.2c-0.7,0.3-1.4,0.4-2.1,0.3c-0.8-0.1-1.5-0.3-2.1-0.7c-0.7-0.4-1.2-0.9-1.7-1.4
			c-0.6-0.7-1.1-1.5-1.5-2.3c-0.4-0.9-0.6-1.7-0.7-2.6l3.4-0.9c0,0.6,0.1,1.3,0.3,1.9c0.2,0.6,0.5,1.2,0.9,1.7
			c0.1,0.2,0.3,0.3,0.5,0.4c0.2,0.1,0.4,0.2,0.6,0.3c0.2,0,0.4,0.1,0.6,0c0.2,0,0.4-0.2,0.6-0.3c0.2-0.2,0.3-0.4,0.3-0.6
			s0-0.5-0.1-0.8c-0.1-0.3-0.2-0.5-0.3-0.8c-0.1-0.2-0.2-0.5-0.3-0.7c-0.3-0.6-0.5-1.1-0.7-1.6c-0.2-0.5-0.3-1-0.3-1.4
			c0-0.5,0.1-0.9,0.3-1.4c0.2-0.4,0.6-0.9,1.1-1.4c0.5-0.5,1.1-0.9,1.8-1.1c0.6-0.2,1.2-0.3,1.9-0.3c0.6,0,1.2,0.2,1.8,0.5
			c0.6,0.3,1.1,0.7,1.6,1.3c0.2,0.3,0.5,0.6,0.7,0.9c0.2,0.3,0.4,0.7,0.6,1.1c0.2,0.4,0.4,0.7,0.5,1.1c0.2,0.4,0.3,0.8,0.4,1.1
			L223.4,63.8z"/>
		<path class="st1" d="M220.9,78.7l-2.2-3.1l9.4-6.6l-1.8-2.6l2.7-1.9l5.9,8.3l-2.6,1.9l-1.8-2.6L220.9,78.7z"/>
		<path class="st1" d="M235.2,80.1l-2.2,1.2l2.1,3.8l-2.9,1.5l-2.1-3.8l-2.2,1.2l2.2,4l-2.9,1.5l-4-7.4l13-7l4,7.4l-2.9,1.5
			L235.2,80.1z"/>
		<path class="st1" d="M242.7,87.9l1.2,3.6l-6.5,5.4l8.5,0.5l1.2,3.6l-13.3,6.8l-1.2-3.6l7.7-3.7l0,0l-9.2-0.6l-0.5-1.4l7-5.9l0,0
			l-8.4,1.5l-1.2-3.6L242.7,87.9z"/>
		<path class="st1" d="M245.8,115.3c0.2-0.4,0.4-0.8,0.5-1.3c0.1-0.5,0.1-0.9,0.1-1.4c0-0.2-0.1-0.4-0.2-0.5
			c-0.1-0.2-0.2-0.3-0.3-0.5c-0.1-0.1-0.3-0.3-0.4-0.3c-0.2-0.1-0.3-0.1-0.6-0.1c-0.2,0-0.4,0.1-0.5,0.3c-0.1,0.1-0.2,0.3-0.3,0.5
			c-0.1,0.2-0.1,0.4-0.2,0.6s-0.1,0.4-0.1,0.6l-0.1,1c-0.1,0.5-0.2,1-0.3,1.5c-0.1,0.5-0.4,0.9-0.6,1.3c-0.3,0.4-0.6,0.7-1,0.9
			c-0.4,0.2-0.9,0.4-1.5,0.5c-0.7,0.1-1.5,0.1-2.2,0c-0.7-0.1-1.4-0.4-2-0.9c-0.6-0.5-1-1.1-1.3-1.8c-0.3-0.7-0.5-1.4-0.7-2.1
			c-0.1-0.9-0.1-1.9,0-2.8c0.2-0.9,0.4-1.8,0.9-2.6l3.3,1.2c-0.3,0.5-0.6,1.1-0.8,1.7c-0.2,0.6-0.3,1.2-0.2,1.9
			c0,0.2,0.1,0.4,0.2,0.6c0.1,0.2,0.2,0.4,0.4,0.5c0.1,0.2,0.3,0.3,0.5,0.4c0.2,0.1,0.4,0.1,0.7,0.1c0.3,0,0.5-0.2,0.6-0.3
			c0.2-0.2,0.3-0.4,0.4-0.7c0.1-0.3,0.2-0.5,0.2-0.8c0-0.3,0.1-0.5,0.1-0.7c0.1-0.6,0.2-1.2,0.3-1.7c0.1-0.5,0.3-1,0.5-1.4
			c0.2-0.4,0.6-0.7,1-1c0.4-0.2,1-0.4,1.7-0.5c0.7-0.1,1.4-0.1,2.1,0.1c0.6,0.2,1.2,0.4,1.7,0.8c0.5,0.4,0.9,0.9,1.2,1.4
			c0.3,0.6,0.5,1.2,0.7,2c0.1,0.4,0.1,0.7,0.1,1.2s0,0.8-0.1,1.2c-0.1,0.4-0.1,0.8-0.2,1.2c-0.1,0.4-0.2,0.8-0.3,1.1L245.8,115.3z"
			/>
	</g>
	<g>
		<path class="st1" d="M75,190.1l-1.8-2.2l6.6-5.5l-1.5-1.8l1.9-1.6l4.9,5.9l-1.9,1.6l-1.5-1.8L75,190.1z"/>
		<path class="st1" d="M85.9,189.2l-1.3,1.3l2.3,2.3l-1.7,1.7l-2.3-2.3l-1.3,1.3l2.4,2.4l-1.7,1.7l-4.4-4.5l7.8-7.8l4.4,4.5
			l-1.7,1.7L85.9,189.2z"/>
		<path class="st1" d="M91.3,205.4l-2.8-2.3l0.6-5l0,0l-2.7,3.3l-2.2-1.8l7-8.5l3.3,2.7c0.4,0.3,0.8,0.7,1.1,1.1
			c0.3,0.4,0.5,0.8,0.5,1.2c0.1,0.4,0.1,0.9-0.1,1.3s-0.4,0.9-0.7,1.4c-0.2,0.3-0.5,0.5-0.8,0.7c-0.3,0.2-0.6,0.3-1,0.4
			c-0.3,0.1-0.7,0.1-1,0.1c-0.4,0-0.7-0.2-1.1-0.4L91.3,205.4z M90.3,196.7l0.2,0.2c0.2,0.1,0.4,0.3,0.6,0.4
			c0.2,0.1,0.4,0.2,0.6,0.3c0.2,0,0.4,0,0.6,0c0.2-0.1,0.4-0.2,0.6-0.4c0.2-0.2,0.3-0.5,0.3-0.7c0-0.2,0-0.4-0.1-0.6
			s-0.2-0.4-0.4-0.5c-0.2-0.2-0.3-0.3-0.5-0.5l-0.2-0.2L90.3,196.7z"/>
		<path class="st1" d="M100.5,211.5l-3-2l0-5l0,0l-2.3,3.6l-2.4-1.6l6-9.3l3.6,2.3c0.5,0.3,0.9,0.6,1.2,1c0.3,0.4,0.5,0.8,0.7,1.2
			c0.1,0.4,0.2,0.9,0.1,1.3s-0.3,1-0.6,1.4c-0.2,0.3-0.4,0.6-0.7,0.8c-0.3,0.2-0.6,0.4-0.9,0.5c-0.3,0.1-0.7,0.2-1,0.2
			c-0.4,0-0.7-0.1-1.1-0.2L100.5,211.5z M98.6,202.9l0.2,0.1c0.2,0.1,0.4,0.2,0.6,0.3s0.4,0.2,0.6,0.2c0.2,0,0.4,0,0.6-0.1
			c0.2-0.1,0.4-0.2,0.5-0.5c0.2-0.2,0.2-0.5,0.2-0.7s-0.1-0.4-0.2-0.6c-0.1-0.2-0.2-0.4-0.4-0.5c-0.2-0.1-0.4-0.3-0.6-0.4l-0.2-0.1
			L98.6,202.9z"/>
		<path class="st1" d="M108.6,205.9l-0.9,1.6l2.9,1.5l-1.1,2.2l-2.9-1.5l-0.9,1.7l3,1.6l-1.1,2.2l-5.6-2.9l5.1-9.8l5.6,2.9l-1.1,2.2
			L108.6,205.9z"/>
		<path class="st1" d="M124.1,214.2l1.3-4.1l2.7,0.9l-3.4,10.5l-2.7-0.9l1.4-4.3l-4-1.3l-1.4,4.3l-2.7-0.9l3.4-10.5l2.7,0.9
			l-1.3,4.1L124.1,214.2z"/>
		<path class="st1" d="M130.9,220.9l-1.1,1.8l-3-0.5L133,212l3.1,0.6l2.1,11.6l-3-0.5l-0.4-2L130.9,220.9z M133.9,215.6L133.9,215.6
			l-1.8,3.2l2.4,0.4L133.9,215.6z"/>
		<path class="st1" d="M150.5,213.9l-0.3,6.2c0,0.4,0,0.7-0.1,1.1c0,0.4-0.1,0.7-0.2,1c-0.1,0.3-0.2,0.6-0.4,0.9
			c-0.2,0.3-0.4,0.6-0.7,0.8c-0.2,0.2-0.5,0.4-0.8,0.5c-0.3,0.1-0.6,0.2-0.9,0.3s-0.7,0.1-1,0.2c-0.3,0-0.7,0-1,0
			c-0.3,0-0.7-0.1-1-0.1c-0.3-0.1-0.7-0.1-1-0.3c-0.3-0.1-0.6-0.3-0.9-0.4s-0.5-0.4-0.8-0.6c-0.3-0.3-0.5-0.6-0.6-0.9
			c-0.1-0.3-0.2-0.6-0.3-1c-0.1-0.3-0.1-0.7-0.1-1s0-0.7,0-1.1l0.3-6.2l2.9,0.2l-0.3,5.8c0,0.4,0,0.7,0,1.1c0,0.4,0.1,0.7,0.2,1
			c0.1,0.3,0.3,0.5,0.5,0.7c0.2,0.2,0.6,0.3,1.1,0.3c0.5,0,0.8,0,1.1-0.2c0.3-0.2,0.5-0.4,0.6-0.7s0.2-0.6,0.3-1
			c0-0.4,0.1-0.7,0.1-1.1l0.3-5.8L150.5,213.9z"/>
		<path class="st1" d="M157.1,224.6l-2.9,0.1l-0.5-8.6l-2.4,0.1l-0.1-2.4l7.6-0.4l0.1,2.4l-2.4,0.1L157.1,224.6z"/>
		<path class="st1" d="M163,215.3l0.3,1.8l3.2-0.5l0.3,2.4l-3.2,0.5l0.3,1.9l3.4-0.5l0.3,2.4l-6.2,0.9l-1.6-10.9l6.2-0.9l0.3,2.4
			L163,215.3z"/>
		<path class="st1" d="M173.1,219.3l-1.6,5.3l-1.7,0.4l0.8-5.2L173.1,219.3z"/>
		<path class="st1" d="M183.5,219.1l-2.7,0.9l-3.6-10.5l2.7-0.9L183.5,219.1z"/>
		<path class="st1" d="M181.6,208.2l2.6-1.2l7.6,3.9l0,0l-2.8-6.1l2.6-1.2l4.6,10l-2.6,1.2l-7.6-3.9l0,0l2.8,6.1l-2.6,1.2
			L181.6,208.2z"/>
		<path class="st1" d="M205,194.4l3.7,5c0.2,0.3,0.4,0.6,0.6,0.9c0.2,0.3,0.4,0.6,0.5,0.9c0.1,0.3,0.2,0.6,0.3,1
			c0.1,0.3,0.1,0.7,0,1.1c-0.1,0.3-0.1,0.6-0.3,0.9c-0.1,0.3-0.3,0.6-0.5,0.9c-0.2,0.3-0.4,0.5-0.7,0.8c-0.2,0.2-0.5,0.4-0.8,0.6
			c-0.3,0.2-0.5,0.4-0.8,0.5c-0.3,0.2-0.6,0.3-0.9,0.4c-0.3,0.1-0.6,0.2-1,0.2c-0.3,0-0.7,0-1,0c-0.4,0-0.7-0.1-1-0.3
			c-0.3-0.2-0.6-0.3-0.9-0.6c-0.3-0.2-0.5-0.5-0.7-0.7c-0.2-0.3-0.4-0.5-0.7-0.8l-3.7-5l2.3-1.7l3.5,4.7c0.2,0.3,0.4,0.6,0.7,0.8
			c0.2,0.3,0.5,0.5,0.8,0.6c0.3,0.2,0.6,0.2,0.9,0.2c0.3,0,0.7-0.2,1-0.4c0.4-0.3,0.6-0.6,0.7-0.9c0.1-0.3,0.1-0.6,0.1-0.9
			c-0.1-0.3-0.2-0.6-0.4-0.9c-0.2-0.3-0.4-0.6-0.6-0.9l-3.5-4.7L205,194.4z"/>
		<path class="st1" d="M212.7,191.3c-0.3,0-0.7,0.1-1,0.2c-0.3,0.1-0.6,0.3-0.9,0.5c-0.1,0.1-0.2,0.2-0.3,0.3
			c-0.1,0.1-0.1,0.3-0.2,0.4c0,0.1,0,0.3,0,0.4c0,0.1,0.1,0.3,0.2,0.4c0.1,0.1,0.2,0.2,0.4,0.2c0.1,0,0.3,0,0.4,0
			c0.1,0,0.3-0.1,0.4-0.1c0.1-0.1,0.3-0.1,0.4-0.2l0.7-0.3c0.4-0.2,0.7-0.3,1.1-0.4c0.4-0.1,0.7-0.2,1-0.1c0.3,0,0.7,0.1,1,0.2
			c0.3,0.1,0.6,0.4,1,0.7c0.4,0.4,0.7,0.9,0.9,1.3c0.2,0.5,0.3,1,0.3,1.6c-0.1,0.6-0.2,1.1-0.5,1.6c-0.3,0.5-0.6,0.9-1.1,1.3
			c-0.5,0.5-1.1,0.9-1.7,1.1c-0.6,0.3-1.3,0.5-2,0.6l-0.7-2.5c0.5,0,1-0.1,1.4-0.2s0.9-0.3,1.2-0.7c0.1-0.1,0.2-0.2,0.3-0.4
			c0.1-0.1,0.2-0.3,0.2-0.4c0-0.2,0-0.3,0-0.5c0-0.2-0.1-0.3-0.2-0.5c-0.1-0.1-0.3-0.2-0.5-0.2c-0.2,0-0.4,0-0.6,0
			c-0.2,0.1-0.4,0.1-0.6,0.2c-0.2,0.1-0.4,0.2-0.5,0.2c-0.4,0.2-0.8,0.4-1.2,0.5c-0.4,0.1-0.7,0.2-1.1,0.2c-0.3,0-0.7-0.1-1-0.2
			c-0.3-0.2-0.7-0.4-1.1-0.8c-0.4-0.4-0.7-0.9-0.8-1.3c-0.2-0.5-0.2-0.9-0.2-1.4c0-0.5,0.2-0.9,0.4-1.4c0.2-0.4,0.5-0.9,1-1.2
			c0.2-0.2,0.4-0.4,0.7-0.5c0.2-0.2,0.5-0.3,0.8-0.5c0.3-0.1,0.5-0.3,0.8-0.4c0.3-0.1,0.6-0.2,0.8-0.3L212.7,191.3z"/>
		<path class="st1" d="M221.5,191.1l1,1.8l-2,2.3l-5.6-10.4l2.1-2.4l11.1,4l-2,2.3l-1.9-0.7L221.5,191.1z M218.5,185.9L218.5,185.9
			l1.9,3.2l1.6-1.8L218.5,185.9z"/>
	</g>
	<path class="st1" d="M59.1,126.7c0-1.8,0.1-3.6,0.2-5.3h-4.4c-0.1,1.8-0.1,3.5-0.1,5.3c0,18.7,5.3,36.5,15.3,51.8h5.3
		C64.8,163.4,59.1,145.5,59.1,126.7z"/>
	<path class="st1" d="M240.7,126.7c0,18.8-5.7,36.7-16.2,51.8h5.3c10-15.3,15.3-33.1,15.3-51.8c0-1.8-0.1-3.6-0.1-5.3h-4.4
		C240.7,123.1,240.7,124.9,240.7,126.7z"/>
	<rect x="110.6" y="70.2" class="st1" width="35.4" height="34.3"/>
	<rect x="110.6" y="70.2" class="st0" width="35.4" height="34.3"/>
	<rect x="110.6" y="109.7" class="st0" width="76.1" height="7.7"/>
	<rect x="151.6" y="96.8" class="st0" width="35.2" height="7.7"/>
	<rect x="151.6" y="83.2" class="st0" width="35.2" height="7.7"/>
	<rect x="151.6" y="70.2" class="st0" width="35.2" height="7.7"/>
	<g>
		<polygon class="st2" points="122.3,77.1 123.4,80.2 126.7,80.2 124,82.2 125,85.3 122.3,83.4 119.7,85.3 120.7,82.2 118,80.2 
			121.3,80.2 		"/>
		<polygon class="st2" points="134.3,77.1 135.3,80.2 138.7,80.2 136,82.2 137,85.3 134.3,83.4 131.6,85.3 132.7,82.2 130,80.2 
			133.3,80.2 		"/>
		<polygon class="st2" points="122.3,89.4 123.4,92.6 126.7,92.6 124,94.5 125,97.7 122.3,95.7 119.7,97.7 120.7,94.5 118,92.6 
			121.3,92.6 		"/>
		<polygon class="st2" points="134.3,89.4 135.3,92.6 138.7,92.6 136,94.5 137,97.7 134.3,95.7 131.6,97.7 132.7,94.5 130,92.6 
			133.3,92.6 		"/>
	</g>
</g>
</svg>
