<?xml version="1.0" encoding="utf-8"?>
<!-- Generator: Adobe Illustrator 22.0.1, SVG Export Plug-In . SVG Version: 6.00 Build 0)  -->
<svg version="1.1" id="Layer_1" xmlns="http://www.w3.org/2000/svg" xmlns:xlink="http://www.w3.org/1999/xlink" x="0px" y="0px"
	 viewBox="0 0 300 250" style="enable-background:new 0 0 300 250;" xml:space="preserve">
<style type="text/css">
	.st0{fill:#FABEAB;}
	.st1{fill:#231F20;}
	.st2{fill:#FF5440;}
</style>
<rect y="0" class="st0" width="300" height="250"/>
<g>
	<g>
		<path class="st1" d="M98.1,33.5l6.7,10.6c0.3,0.4,0.5,0.9,0.7,1.3c0.2,0.4,0.3,0.8,0.4,1.1c0.1,0.5,0.1,1.1,0,1.6
			c-0.1,0.6-0.2,1.1-0.5,1.6c-0.2,0.5-0.6,1-1,1.4c-0.4,0.5-0.9,0.9-1.4,1.2c-1.6,1-3.4,1.1-5.4,0.3l0.9-4.3
			c0.4,0.4,0.7,0.7,1.1,0.8c0.4,0.1,0.8,0.1,1.1-0.1c0.7-0.5,0.7-1.3,0-2.5l-6.7-10.5L98.1,33.5z"/>
		<path class="st1" d="M108.3,28.4l7.7,16.4l-4.3,2l-7.7-16.4L108.3,28.4z"/>
		<path class="st1" d="M118.9,42.8l-1.4-18.3l4.5-1.1l5.8,8.5l1.2-10.2l4.5-1.1l7.4,16.8l-4.5,1.1l-4-9.7l-1.6,11.1l-1.8,0.5
			l-6.4-9.1l1,10.5L118.9,42.8z"/>
		<path class="st1" d="M143.2,37.1l3.7-18l4.6,0.2l3.3,9.8l3.9-9.5l4.6,0.2l2.4,18.2l-4.7-0.2L160,27.3l-4.6,10.2l-1.9-0.1
			l-3.7-10.5l-1.9,10.3L143.2,37.1z"/>
		<path class="st1" d="M175.5,31.8L171.7,21l5.4,1.5l1.9,5.7l4.6-3.8l5.4,1.5l-8.9,7.2l-2.4,8.3l-4.5-1.3L175.5,31.8z"/>
		<path class="st1" d="M195.4,29l3.7,1.7l-7.4,5.4l-2.5-1.2L195.4,29z"/>
		<path class="st1" d="M210.6,43c-0.2-0.6-0.5-1.2-0.8-1.6s-0.7-0.8-1.1-1.1c-0.5-0.3-1-0.5-1.5-0.5c-0.5,0-0.8,0.2-1.1,0.6
			c-0.2,0.3-0.2,0.5-0.2,0.8c0,0.3,0.2,0.6,0.3,0.9c0.2,0.3,0.4,0.6,0.7,0.9c0.3,0.3,0.5,0.6,0.8,0.9c1,1.3,1.6,2.5,1.7,3.6
			c0.1,1.1-0.2,2.2-0.9,3.4c-0.5,0.8-1.1,1.4-1.8,1.8c-0.7,0.5-1.4,0.7-2.2,0.9c-0.8,0.1-1.6,0.1-2.5-0.2c-0.9-0.2-1.8-0.7-2.7-1.3
			c-1.9-1.3-3.3-3-4.2-5.2l3.8-2.1c0.2,0.9,0.6,1.7,1,2.3c0.4,0.6,0.9,1.1,1.5,1.5c0.6,0.4,1.2,0.6,1.7,0.5c0.5-0.1,0.9-0.3,1.1-0.7
			c0.1-0.2,0.2-0.4,0.3-0.7c0-0.2,0-0.5-0.1-0.7c-0.1-0.3-0.3-0.6-0.5-0.9c-0.2-0.3-0.5-0.7-0.8-1.1c-0.4-0.5-0.8-1-1.1-1.5
			c-0.4-0.5-0.6-1.1-0.8-1.6c-0.2-0.6-0.2-1.2-0.1-1.8c0.1-0.6,0.4-1.3,0.9-2.1c0.5-0.7,1.1-1.3,1.7-1.8c0.6-0.4,1.3-0.7,2.1-0.9
			c0.7-0.1,1.5-0.1,2.3,0.1c0.8,0.2,1.6,0.5,2.4,1.1c0.7,0.5,1.5,1.1,2.1,1.9c0.7,0.7,1.3,1.6,1.7,2.5L210.6,43z"/>
	</g>
	<g>
		<path class="st1" d="M72.3,195.6l11.8-8.8l2.7,2.6l-3.2,7.6l7.4-3.6l2.7,2.6l-8.2,12.2l-2.7-2.6l4.9-6.9l-8.3,3.7l-1.1-1l3.4-8.3
			l-6.7,5.2L72.3,195.6z"/>
		<path class="st1" d="M101.2,201.2l-4.2,6.7c-0.2,0.4-0.4,0.7-0.6,1.1c-0.2,0.4-0.3,0.8-0.4,1.2c-0.1,0.4,0,0.8,0.2,1.1
			c0.2,0.4,0.5,0.7,1.1,1.1c0.5,0.3,1,0.5,1.4,0.5c0.4,0,0.8-0.1,1.1-0.3c0.3-0.2,0.6-0.5,0.9-0.9c0.3-0.4,0.5-0.7,0.7-1.1l4.2-6.7
			l3.2,2l-4.5,7.1c-1.2,1.9-2.5,3-3.9,3.4c-1.4,0.3-3.1-0.1-4.9-1.2c-1.8-1.1-2.9-2.4-3.2-3.9c-0.3-1.4,0.1-3.1,1.3-5l4.5-7.1
			L101.2,201.2z"/>
		<path class="st1" d="M118,214c-0.3-0.5-0.5-0.9-0.9-1.2c-0.3-0.3-0.7-0.5-1-0.7c-0.5-0.2-0.9-0.2-1.2-0.1
			c-0.4,0.1-0.6,0.3-0.8,0.7c-0.1,0.2-0.1,0.5,0,0.7c0.1,0.2,0.2,0.4,0.4,0.6c0.2,0.2,0.4,0.4,0.7,0.6c0.3,0.2,0.5,0.4,0.8,0.6
			c1,0.9,1.6,1.7,1.9,2.6c0.3,0.9,0.2,1.8-0.2,2.8c-0.3,0.7-0.7,1.3-1.1,1.7c-0.5,0.5-1,0.8-1.6,1c-0.6,0.2-1.3,0.3-2,0.2
			c-0.7-0.1-1.5-0.2-2.3-0.6c-1.7-0.7-3.1-1.9-4.1-3.5l2.7-2.2c0.3,0.7,0.7,1.2,1.1,1.7c0.4,0.4,0.9,0.8,1.4,1
			c0.6,0.2,1,0.3,1.4,0.1c0.4-0.1,0.7-0.4,0.8-0.7c0.1-0.2,0.1-0.4,0.1-0.6c0-0.2-0.1-0.4-0.2-0.6c-0.1-0.2-0.3-0.4-0.5-0.6
			c-0.2-0.2-0.5-0.5-0.8-0.8c-0.4-0.3-0.8-0.7-1.1-1c-0.4-0.4-0.7-0.7-0.9-1.2c-0.2-0.4-0.3-0.9-0.4-1.4c0-0.5,0.1-1.1,0.4-1.8
			c0.3-0.7,0.6-1.2,1.1-1.7c0.4-0.4,0.9-0.8,1.5-1c0.6-0.2,1.2-0.3,1.8-0.3c0.7,0,1.4,0.2,2.1,0.5c0.7,0.3,1.3,0.7,2,1.1
			c0.6,0.5,1.2,1,1.7,1.7L118,214z"/>
		<path class="st1" d="M128,213.2l-4,14l-3.6-1l4-14L128,213.2z"/>
		<path class="st1" d="M141.1,220.7c-0.7-1.2-1.7-1.9-2.9-2.1c-0.6-0.1-1.1-0.1-1.6,0c-0.5,0.1-1,0.3-1.4,0.6s-0.7,0.7-1,1.1
			c-0.3,0.4-0.5,1-0.6,1.5c-0.1,0.6-0.1,1.1,0,1.6c0.1,0.5,0.3,1,0.6,1.4c0.3,0.4,0.7,0.8,1.1,1c0.4,0.3,0.9,0.5,1.5,0.6
			c1.2,0.2,2.3-0.1,3.5-1l-0.7,4.4l-0.4,0.1c-0.6,0.1-1.2,0.2-1.7,0.2c-0.5,0-1,0-1.5-0.1c-1-0.2-1.9-0.5-2.8-1
			c-0.8-0.5-1.6-1.2-2.1-2c-0.6-0.8-1-1.7-1.3-2.7c-0.3-1-0.3-2.1-0.1-3.2c0.2-1.1,0.6-2.1,1.1-2.9c0.6-0.9,1.2-1.6,2-2.1
			c0.8-0.6,1.7-0.9,2.7-1.2c1-0.2,2-0.3,3-0.1c0.6,0.1,1.1,0.2,1.7,0.5c0.5,0.2,1.1,0.5,1.6,0.8L141.1,220.7z"/>
		<path class="st1" d="M163,220.5c-0.9-1-2.1-1.5-3.3-1.4c-0.6,0-1.1,0.2-1.5,0.4c-0.5,0.2-0.9,0.5-1.2,0.9s-0.6,0.8-0.7,1.3
			c-0.2,0.5-0.2,1-0.2,1.6c0,0.6,0.2,1.1,0.4,1.6c0.2,0.5,0.5,0.9,0.9,1.2c0.4,0.3,0.8,0.6,1.3,0.8c0.5,0.2,1,0.2,1.6,0.2
			c1.2-0.1,2.3-0.7,3.2-1.7l0.3,4.5l-0.4,0.2c-0.6,0.2-1.1,0.4-1.6,0.6c-0.5,0.1-1,0.2-1.5,0.2c-1,0.1-2-0.1-2.9-0.4
			c-0.9-0.3-1.8-0.8-2.5-1.4c-0.7-0.6-1.4-1.4-1.8-2.3c-0.5-0.9-0.8-1.9-0.8-3c-0.1-1.1,0.1-2.2,0.4-3.1c0.4-1,0.9-1.8,1.5-2.5
			c0.7-0.7,1.4-1.3,2.3-1.7c0.9-0.4,1.9-0.7,2.9-0.8c0.6,0,1.1,0,1.7,0.1c0.6,0.1,1.2,0.2,1.8,0.5L163,220.5z"/>
		<path class="st1" d="M174.5,216.7l-4.4,0.9l0.5,2.4l4.2-0.9l0.6,3.1l-4.2,0.9l0.5,2.5l4.4-0.9l0.6,3.1l-8.1,1.7l-2.9-14.2l8.1-1.7
			L174.5,216.7z"/>
		<path class="st1" d="M182.3,226.4l-5.2-13.6l3.5-1.4l9.7,5.8l-3.2-8.3l3.5-1.3l5.2,13.6l-3.5,1.3l-9.7-5.8l3.2,8.3L182.3,226.4z"
			/>
		<path class="st1" d="M200.2,205.7l5.7,9.8l-3.3,1.9l-5.7-9.8l-2.7,1.6l-1.6-2.8l8.6-5l1.6,2.8L200.2,205.7z"/>
		<path class="st1" d="M211.7,197.6l-3.6,2.7l1.5,1.9l3.4-2.6l1.9,2.5l-3.4,2.6l1.5,2l3.6-2.7l1.9,2.5l-6.6,5l-8.8-11.5l6.6-5
			L211.7,197.6z"/>
		<path class="st1" d="M231.1,194.4l-3.3,3.4l-6.5-1.3l4,3.9l-2.6,2.7l-10.4-10.2l4.1-4.2c0.6-0.6,1.1-1,1.7-1.3
			c0.6-0.3,1.2-0.4,1.7-0.4c0.6,0,1.1,0.1,1.6,0.4c0.5,0.2,1,0.6,1.4,1c0.8,0.8,1.2,1.6,1.4,2.5c0.1,0.9-0.1,1.8-0.7,2.7
			L231.1,194.4z M219.6,194.7l0.5-0.5c0.5-0.5,0.8-1,0.9-1.5c0.1-0.5-0.1-1-0.5-1.4c-0.4-0.4-0.9-0.6-1.4-0.5
			c-0.5,0.1-1,0.4-1.5,0.9l-0.5,0.5L219.6,194.7z"/>
	</g>
	<path class="st2" d="M194.8,147.1c-8,14.1-23.1,23.5-40.4,23.5c-6,0-11.8-1.2-17-3.2c-0.2,0.6-0.5,1.3-0.7,1.8l-0.2,0.3l-0.8,1.2
		c-3.6,5.2-10.1,8.6-17.4,9.1c-0.6,0-1.3,0.1-1.9,0.1c-11.5,0-20.8-7.1-21.8-16.4c-0.4-4.2,0.9-8.4,3.8-11.9c3.3-4,8.4-6.7,14.1-7.6
		c-2.8-6-4.4-12.7-4.4-19.8c0-12.1,4.6-23.1,12.2-31.4c1.9-2,3.9-3.9,6.1-5.6c7.8-5.9,17.5-9.5,28.1-9.5c6.3,0,12.3,1.3,17.7,3.5
		l6.8-6.8c1.5-1.5,3.1-1.8,4.1-1.8c2.5,0,5,1.9,5,5.6v14c2.6,2.7,4.9,5.8,6.8,9.1l23.7-23.7c-15-20.9-39.4-34.6-67.1-34.6
		c-45.5,0-82.4,36.9-82.4,82.4c0,45.5,36.9,82.4,82.4,82.4c28.4,0,53.4-14.4,68.3-36.2L194.8,147.1z"/>
	<g>
		<g>
			<path class="st1" d="M144.1,123.9c1.6,1.6,4.2,1.6,5.9,0l1.3-1.3c1.6-1.6,1.6-4.2,0-5.9L137.4,103c-1.6-1.6-4.2-4.2-5.9-5.9
				l-4.2-4.2c-1.6-1.6-2.9-1.1-2.9,1.2v6c0,2.3,0,6,0,8.3v36.7c0,2.3-1.8,3.7-4,3.1c0,0-2-0.5-5.3-0.3c-9.9,0.7-17.3,7.5-16.5,15.2
				c0.8,7.7,9.5,13.4,19.3,12.7c6.3-0.4,11.5-3.3,14.3-7.4c0.6-0.9,0.6-0.9,0.6-0.9c0.5-1,1-2.4,1.1-3.1c0.2-0.7,0.3-1.2,0.4-1.2
				c0,0,0.1-0.3,0.1-0.7c0-0.4,0-0.7,0-0.8c0,0,0-1.9,0-4.1v-39.1c0-2.3,1.3-2.8,2.9-1.2L144.1,123.9z"/>
		</g>
		<g>
			<path class="st1" d="M183.9,149.6c0-0.3,0-0.6,0-0.6s0-1.9,0-4.1V93.9c0-2.3,0-6,0-8.3v-6c0-2.3-1.3-2.8-2.9-1.2l-4.2,4.2
				c-1.6,1.6-4.2,4.2-5.9,5.9l-10.2,10.2c-1.6,1.6-4.2,1.6-5.9,0l-6.7-6.7c-1.6-1.6-4.2-1.6-5.9,0l-1.3,1.3c-1.6,1.6-1.6,4.2,0,5.9
				l6.7,6.7c1.6,1.6,4.2,4.2,5.9,5.9l1.3,1.3c1.6,1.6,4.2,1.6,5.9,0l10.2-10.2c1.6-1.6,2.9-1.1,2.9,1.2v28.3c0,2.3-1.8,3.7-4,3.1
				c0,0-2-0.5-5.3-0.3c-9.9,0.7-17.3,7.5-16.5,15.2c0.8,7.7,9.5,13.4,19.4,12.7c6.3-0.4,11.5-3.3,14.3-7.4c0.6-0.9,0.6-0.9,0.6-0.9
				c0.5-1,1-2.5,1.2-3.2s0.3-1.3,0.4-1.3C183.9,150.2,183.9,149.9,183.9,149.6z"/>
		</g>
	</g>
</g>
</svg>
