<?xml version="1.0" encoding="utf-8"?>
<!-- Generator: Adobe Illustrator 21.1.0, SVG Export Plug-In . SVG Version: 6.00 Build 0)  -->
<svg version="1.1" id="Layer_1" xmlns="http://www.w3.org/2000/svg" xmlns:xlink="http://www.w3.org/1999/xlink" x="0px" y="0px"
	 viewBox="0 0 2564.2 2954.1" style="enable-background:new 0 0 2564.2 2954.1;" xml:space="preserve">
<style type="text/css">
	.st0{fill:#434343;stroke:#DCC125;stroke-width:56;stroke-miterlimit:10;}
	.st1{fill:#FFFFFF;}
	.st2{fill:#DCC125;}
	.st3{opacity:0.3;}
</style>
<path class="st0" d="M2523.3,1490.7c0-685.5-555.7-1241.2-1241.2-1241.2S40.9,805.2,40.9,1490.7c0,685.5,555.7,1241.2,1241.2,1241.2
	S2523.3,2176.2,2523.3,1490.7z"/>
<g>
	<path class="st1" d="M399.6,866.4l36.6-42.3l117.4,42.9l-57.7-112l37-42.8l187.1,118l-37.2,43l-105.7-70.3l-0.4,0.4l60.9,122
		l-14.8,17.1l-128-44.4l-0.4,0.4l83.3,96.2l-37,42.8L399.6,866.4z"/>
	<path class="st1" d="M790.2,742.2l6.7,40.3l-51.7,31.1l-40.6-230.7l53.2-32L941,695.8L889,727.1l-31.8-25.2L790.2,742.2z
		 M765.9,624.8l-0.5,0.3l15.7,71.8l40.5-24.4L765.9,624.8z"/>
	<path class="st1" d="M930.6,467.2l55.3-13.3l132.6,105.5l0.6-0.1l-31.4-130l55.3-13.3l51.4,212.6l-55.3,13.4l-132.7-105.8l-0.6,0.1
		l31.5,130.3l-55.3,13.4L930.6,467.2z"/>
	<path class="st1" d="M1273.4,405.8l56.7,4.5l93.3,141.5l0.6,0l10.5-133.3l56.7,4.5l-17.2,218l-56.7-4.5L1324,494.7l-0.6,0
		l-10.5,133.6l-56.7-4.5L1273.4,405.8z"/>
	<path class="st1" d="M1594.4,681.4l-54.1-17.6l67.7-207.9l54,17.6L1594.4,681.4z"/>
	<path class="st1" d="M1776.3,515.8l48.4,29.8l18.6,168.5l0.5,0.3l70.1-113.9l48.4,29.8l-114.6,186.3l-48.4-29.8l-18.4-168.7
		l-0.5-0.3l-70.2,114.1l-48.4-29.8L1776.3,515.8z"/>
	<path class="st1" d="M2129.5,944c-6.2,5-12.2,9.8-18.2,14.2c-6,4.5-12.2,8.5-18.6,12c-6.4,3.5-13.2,6.4-20.3,8.6
		c-7.1,2.3-14.8,3.8-23.1,4.5c-18.5,1.6-35.4-1.3-50.6-8.6c-15.2-7.3-28.8-18-40.7-31.9c-11.2-13.1-19.3-26.8-24.4-41.4
		c-5.1-14.5-7.1-29-6-43.3c1-14.4,5.1-28.3,12.1-41.9c7-13.5,17-25.9,30.1-37.1c13.5-11.6,27.6-19.9,42.3-25
		c14.7-5.1,29.4-7,43.9-5.8c14.6,1.3,28.7,5.6,42.5,13c13.8,7.4,26.4,17.8,37.8,31.2c14.7,17.2,23.7,35.4,27,54.8
		c3.2,19.4,0.2,39.3-9.2,59.9l-52.3-26.2c5.4-9.7,7.9-19.7,7.6-30c-0.4-10.2-4.4-19.8-11.9-28.6c-6-7-12.9-12-20.7-14.7
		c-7.7-2.8-15.7-3.8-23.7-3.1c-8.1,0.7-16,2.8-23.8,6.3c-7.8,3.5-14.9,8-21.2,13.4c-6.5,5.5-12,11.9-16.6,19.2
		c-4.6,7.3-7.7,14.8-9.4,22.6c-1.7,7.8-1.7,15.8,0,23.9c1.7,8.1,5.6,15.6,11.6,22.7c8.1,9.4,17.2,15.3,27.6,17.6
		c10.3,2.4,20.7-0.2,31.1-7.6l-30.2-35.2l33.9-29.1L2129.5,944z"/>
</g>
<g>
	<path class="st1" d="M338,1560.1l-25.7,1.5l2.6,45.2l-33.9,2l-2.6-45.2l-26.6,1.5l2.7,47.6l-33.9,1.9l-5.1-87.7l154.1-8.9l5.1,87.7
		l-33.9,1.9L338,1560.1z"/>
	<path class="st1" d="M272.8,1723.4l9.9,47.1l-33.2,7l-18.1-86.3l151-31.7l8.3,39.3L272.8,1723.4z"/>
	<path class="st1" d="M395.1,1835.9l-24.2,9l15.8,42.4l-31.8,11.9l-15.8-42.4l-24.9,9.3l16.7,44.7l-31.8,11.9l-30.8-82.2l144.5-54.1
		l30.8,82.2l-31.8,11.9L395.1,1835.9z"/>
	<path class="st1" d="M476.2,2038.4c2.8-6.3,3.9-12.9,3.2-19.7c-0.6-6.8-2.7-13.2-6.2-19.2c-3.1-5.3-6.8-9.6-11.3-12.9
		c-4.4-3.3-9.2-5.5-14.4-6.7c-5.2-1.2-10.5-1.3-16-0.4c-5.5,0.9-10.8,2.8-16,5.9c-5.3,3.1-9.7,6.8-13.1,11c-3.4,4.3-5.8,8.9-7.2,14
		c-1.3,5-1.6,10.3-0.9,15.8c0.7,5.5,2.7,10.9,5.8,16.4c3.3,5.7,7.7,10.4,13.4,14.3c5.6,3.9,11.7,6.3,18.2,7.5l-41.6,24.1
		c-5.1-4.8-9.6-9.1-13.5-13c-3.8-3.9-7.4-8.6-10.5-14c-5.4-9.3-8.9-19.2-10.5-29.7c-1.6-10.5-1.2-21.1,1.1-31.8
		c2.4-11.3,6.9-21.2,13.3-29.5c6.5-8.3,14.7-15.4,24.7-21.2c9.2-5.3,19-8.8,29.3-10.3c10.3-1.5,20.6-1,30.9,1.6
		c10.6,2.7,20.3,7.4,29.4,14.1c9,6.7,16.2,14.7,21.7,24.2c3.3,5.7,5.8,11.4,7.6,17.2c1.8,5.8,3.1,12,4,18.4L476.2,2038.4z"/>
	<path class="st1" d="M472.4,2201l-25.5-30.9l92.8-76.6l-21.1-25.6l26.2-21.6l67.8,82.1l-26.2,21.6l-21.1-25.6L472.4,2201z"/>
	<path class="st1" d="M638.1,2359.7l-37.7-32.7l10.3-69.6l-0.3-0.3l-38.9,44.8l-30.3-26.3l101.1-116.6l45.3,39.3
		c5.8,5,10.5,10.4,14.3,16c3.7,5.7,6.1,11.6,7.2,17.6c1.1,6.1,0.7,12.3-1.2,18.6c-1.9,6.3-5.5,12.6-10.9,18.8
		c-3.5,4-7.4,7.4-11.6,10.1c-4.3,2.7-8.7,4.6-13.5,5.7c-4.7,1.1-9.5,1.2-14.5,0.4c-4.9-0.8-9.8-2.6-14.5-5.4L638.1,2359.7z
		 M627.2,2237.6l2.9,2.5c2.5,2.2,5.1,4.1,7.8,6c2.7,1.8,5.6,3.1,8.5,3.8c2.9,0.7,5.8,0.7,8.8-0.1c2.9-0.8,5.8-2.8,8.6-6
		s4.3-6.3,4.7-9.3c0.4-3,0-5.9-1.1-8.7c-1.1-2.8-2.8-5.4-5-7.9c-2.2-2.4-4.5-4.7-7-6.9l-2.9-2.5L627.2,2237.6z"/>
	<path class="st1" d="M724.7,2416.2l-33.8-21.6l83.2-130l33.8,21.6L724.7,2416.2z"/>
	<path class="st1" d="M935,2407.8c-1.4-6.8-4.4-12.8-8.8-17.9c-4.5-5.2-9.9-9.2-16.2-12.1c-5.6-2.5-11.1-3.9-16.6-4
		c-5.5-0.1-10.7,0.9-15.6,2.9c-4.9,2.1-9.3,5-13.3,8.9c-3.9,3.9-7.1,8.6-9.6,14.1c-2.5,5.6-4,11.1-4.3,16.6
		c-0.3,5.5,0.4,10.7,2.3,15.5c1.8,4.9,4.6,9.3,8.4,13.4c3.8,4,8.5,7.4,14.3,9.9c6,2.7,12.3,4,19.2,3.9c6.8-0.1,13.2-1.6,19.1-4.5
		l-19.9,43.8c-6.9-0.9-13.1-1.8-18.5-2.8s-11-2.7-16.7-5.3c-9.8-4.5-18.4-10.5-25.8-18.1c-7.4-7.6-13.2-16.5-17.5-26.5
		c-4.6-10.6-6.7-21.2-6.3-31.7c0.4-10.5,3-21.1,7.8-31.6c4.4-9.7,10.4-18.1,17.9-25.4c7.5-7.2,16.2-12.8,26.1-16.7
		c10.2-3.9,20.9-5.8,32.1-5.6c11.2,0.2,21.8,2.6,31.7,7.1c6,2.7,11.4,5.9,16.2,9.6c4.8,3.7,9.5,7.9,13.9,12.6L935,2407.8z"/>
	<path class="st1" d="M1183.9,2554.2c-8.3,4.3-17.1,7.7-26.5,10.2c-9.3,2.5-18.7,3.2-28.1,2.2c-6.6-0.8-12.8-2.5-18.6-5.1
		c-5.7-2.6-10.6-6.1-14.7-10.3c-4-4.2-7.1-9.2-9.1-14.9c-2-5.7-2.6-12.1-1.8-19.2c0.6-5.7,2-10.7,4.2-14.9s4.8-7.8,8.1-10.8
		c3.3-3,7.1-5.5,11.4-7.7c4.3-2.1,9-4,14.1-5.6l3.8-1.2l-2.7-4.8c-1-1.8-2.1-3.6-3.2-5.6c-1.1-2-2.1-4.1-2.9-6.3
		c-0.8-2.2-1.5-4.7-1.8-7.3c-0.4-2.7-0.4-5.5,0-8.7c0.8-6.6,2.8-12.4,6-17.3c3.2-4.9,7.3-8.9,12.1-12c4.8-3.1,10.2-5.3,16.2-6.5
		c6-1.2,12-1.5,18.1-0.8c6.1,0.7,11.9,2.3,17.5,4.9c5.5,2.5,10.3,5.8,14.4,9.9c4.1,4,7.2,8.8,9.3,14.3c2.1,5.5,2.8,11.6,2.1,18.1
		c-0.5,4.7-1.8,8.9-3.7,12.5c-1.9,3.6-4.3,6.6-7.2,9.3c-2.9,2.6-6.2,4.8-9.9,6.7c-3.7,1.8-7.7,3.6-11.8,5.1l17,22.5
		c4.2-3,8.2-6,12-9.1c3.8-3.1,7.3-6.6,10.7-10.3l20.1,24.1l-21.7,18.5l-2,1.6l30.2,40.1l-49.8-5.7L1183.9,2554.2z M1143.7,2499.2
		c-1.8,0.9-3.5,1.9-5.4,2.9c-1.8,1-3.6,2.2-5.1,3.5c-1.6,1.3-2.9,2.8-4,4.5c-1.1,1.7-1.8,3.6-2,5.8c-0.3,2.3,0,4.4,0.8,6.3
		c0.8,1.9,2,3.5,3.6,4.8c1.6,1.3,3.3,2.4,5.3,3.3c2,0.8,4,1.4,6,1.6c3.8,0.4,7.6,0.3,11.4-0.5c3.8-0.7,7.4-1.9,10.7-3.4
		L1143.7,2499.2z M1163.9,2467.7c3.7-1.5,7.3-3.7,10.6-6.5c3.3-2.8,5.3-6.4,5.7-10.6c0.4-3.9-0.4-7.4-2.5-10.5
		c-2.1-3.1-5.2-4.8-9.3-5.3c-3.5-0.4-6.7,0.4-9.4,2.4c-2.8,2-4.4,4.9-4.8,8.7c-0.2,1.9,0,3.8,0.6,5.7c0.6,1.9,1.4,3.8,2.3,5.7
		c0.9,1.9,2.1,3.7,3.3,5.4C1161.7,2464.6,1162.9,2466.2,1163.9,2467.7z"/>
	<path class="st1" d="M1404.5,2411.8l60.2-11.9c8.2-1.6,15.8-2.1,23-1.5c7.1,0.6,13.5,2.4,19.1,5.5c5.6,3.1,10.4,7.5,14.3,13.2
		c3.9,5.8,6.7,13,8.4,21.7c3.5,17.9,1.5,31.9-6.1,41.9c-7.6,10-20.1,16.7-37.4,20.1l-22.3,4.4l9.9,50.2l-39.4,7.7L1404.5,2411.8z
		 M1457.6,2473.5l6.6-1.3c3.6-0.7,7.1-1.5,10.4-2.4c3.3-0.9,6.2-2.1,8.6-3.8c2.5-1.7,4.2-3.9,5.4-6.7c1.1-2.8,1.2-6.5,0.3-11.2
		c-0.9-4.8-2.5-8.4-4.5-10.7c-2.1-2.3-4.5-3.8-7.3-4.5c-2.8-0.7-5.9-0.8-9.5-0.3s-7.2,1.1-10.9,1.8l-6.6,1.3L1457.6,2473.5z"/>
	<path class="st1" d="M1643.5,2473.3l45.1-16.8l11.9,31.8l-82.7,30.8l-53.9-144.6l37.6-14L1643.5,2473.3z"/>
	<path class="st1" d="M1799.4,2259.6l43.9,74.8c2.5,4.2,4.9,8.6,7.1,12.9c2.2,4.4,4.1,8.8,5.6,13.3c1.5,4.5,2.3,9.2,2.6,14
		c0.3,4.8-0.3,9.8-1.7,14.9c-1.2,4.4-3,8.5-5.4,12.4c-2.4,3.9-5.1,7.6-8.2,11c-3.1,3.4-6.6,6.6-10.3,9.5c-3.7,2.9-7.6,5.5-11.5,7.8
		c-3.9,2.3-8,4.4-12.4,6.2c-4.4,1.9-8.8,3.3-13.3,4.4c-4.5,1.1-9.1,1.7-13.6,1.8c-4.6,0.2-9.1-0.3-13.5-1.3
		c-5.2-1.2-9.8-3.2-13.8-5.8c-4.1-2.6-7.7-5.6-10.9-9.1c-3.2-3.5-6.2-7.3-8.9-11.4c-2.7-4.1-5.3-8.3-7.8-12.5l-43.9-74.8l34.6-20.3
		l41.1,70.1c2.6,4.3,5.3,8.6,8.2,12.7c2.9,4.1,6.1,7.4,9.7,10c3.6,2.6,7.6,4,12,4.2c4.4,0.2,9.4-1.2,14.9-4.5
		c5.5-3.3,9.3-6.9,11.2-10.8c1.9-4,2.6-8.2,2.1-12.5c-0.5-4.4-1.8-8.8-4-13.3c-2.2-4.5-4.5-8.9-7.1-13.3l-41.1-70.1L1799.4,2259.6z"
		/>
	<path class="st1" d="M1852.8,2220.1l28.8-27.1l79.3,38.7l-32.3-82.8l29.1-27.3l122.6,96.5l-29.2,27.5l-69-57l-0.3,0.3l33.8,90.1
		l-11.6,10.9l-86.6-40.5l-0.3,0.3l51.4,73.6l-29.1,27.3L1852.8,2220.1z"/>
	<path class="st1" d="M2125.9,2158.6l-127-87.7l32.6-47.2c3.9-5.6,8-10.3,12.4-14.2c4.4-3.9,9-6.5,13.9-8.1c4.9-1.5,10-1.7,15.5-0.6
		c5.4,1.1,11.2,3.8,17.3,8c5.7,4,10.1,8.5,13.2,13.7c3,5.2,4.1,11.2,3.1,18.2l0.3,0.2c7.5-8.2,15.6-12.4,24.1-12.6
		c8.6-0.1,17.3,2.9,26.1,9c6.6,4.6,11.3,9.8,14,15.5c2.7,5.8,4,11.8,3.8,17.9s-1.6,12.4-4.2,18.7c-2.6,6.3-5.9,12.4-10,18.2
		L2125.9,2158.6z M2071.5,2072.4l2.6-3.7c1.5-2.1,2.8-4.4,4-6.7c1.2-2.3,1.9-4.6,2.3-6.9c0.3-2.3,0-4.5-0.8-6.7
		c-0.9-2.2-2.7-4.2-5.4-6.1c-2.9-2-5.6-3-8-2.9c-2.4,0-4.7,0.7-6.8,2c-2.1,1.3-4,3-5.8,5.1c-1.7,2.1-3.4,4.3-4.9,6.6l-1.6,2.4
		L2071.5,2072.4z M2123.4,2108.2l2.9-4.2c1.7-2.5,3.5-5.3,5.5-8.4c2-3.1,3.5-6.3,4.6-9.5c1.1-3.2,1.3-6.4,0.7-9.5s-2.7-5.8-6.1-8.2
		c-3.8-2.6-7.3-3.7-10.4-3.2c-3.1,0.5-6.1,1.8-8.8,4c-2.7,2.2-5.1,4.9-7.3,8c-2.2,3.1-4.2,6.1-6,8.8l-2.3,3.4L2123.4,2108.2z"/>
	<path class="st1" d="M2245,1961.2l-17.8,36l-138.4-68.4l17.8-36L2245,1961.2z"/>
	<path class="st1" d="M2131,1844.1l11.5-38.4l111.5-43.2l0.1-0.4l-90.4-27.2l11.5-38.4l147.8,44.4l-11.5,38.4l-111.7,43.2l-0.1,0.4
		l90.6,27.2l-11.5,38.4L2131,1844.1z"/>
	<path class="st1" d="M2263,1497.9c5.6,0.5,11,1.2,16.2,1.9c5.2,0.7,10.3,1.8,15.3,3.2c5,1.4,9.8,3.4,14.5,5.8
		c4.7,2.4,9.3,5.4,13.8,9.2c10.1,8.4,17.1,18.2,21.1,29.4c4,11.2,5.5,23.3,4.6,36.2c-0.9,12.1-3.6,23.1-8.3,32.9
		c-4.7,9.8-10.8,18-18.5,24.7c-7.7,6.7-16.6,11.7-26.8,15c-10.2,3.3-21.4,4.5-33.5,3.7c-12.5-0.9-23.7-3.7-33.7-8.5
		c-9.9-4.7-18.2-11-24.9-18.9c-6.7-7.9-11.6-17.1-14.9-27.6c-3.2-10.6-4.4-22-3.5-34.4c1.1-15.9,5.7-29.6,13.7-40.9
		c8-11.3,19.5-19.8,34.3-25.5l13.2,39.1c-7.5,2.2-13.8,6-18.7,11.3c-4.9,5.3-7.6,12.1-8.2,20.2c-0.5,6.5,0.5,12.4,3,17.7
		c2.5,5.2,5.9,9.7,10.3,13.4c4.4,3.7,9.4,6.5,15.1,8.7c5.7,2.1,11.4,3.4,17.3,3.8c6,0.4,11.9,0,17.9-1.4c5.9-1.4,11.2-3.6,16-6.7
		c4.7-3.1,8.7-7.1,11.8-12c3.1-4.9,5-10.6,5.4-17.2c0.6-8.7-1.1-16.2-5.1-22.5c-4-6.3-10.5-10.2-19.4-11.6l-2.3,32.7l-31.4-2.2
		L2263,1497.9z"/>
</g>
<g>
	<path class="st1" d="M455.7,1016.1l-38.2-35.6c-88.2,144-141.4,311.6-147.8,491h51.2C327,1305.5,375.5,1150.3,455.7,1016.1z"/>
	<path class="st1" d="M2243.4,1471.4h51.2c-6.5-183.9-62.4-355.5-154.6-501.9l-39.5,33.4C2185.5,1140.1,2237,1300.1,2243.4,1471.4z"
		/>
</g>
<g>
	<path class="st1" d="M1036.8,807.1l-0.1,0.7l-0.3,0.6l-0.4,0.6l-0.3,0.6l-0.9,0.9l-0.6,0.4l-1,0.6l-1.2,0.6l-2.6,0.9l-1.2,0.3
		l-1.3,0.1h-2.6l-2.6-0.1l-1.3-0.1l-1.3-0.3l-1.3-0.4l-1.2-0.4l-1.2-0.7l-1-0.7l-0.3-0.3l-0.4-0.7l-0.3-0.4l-0.3-0.7l-0.3-1.2v-0.7
		l0.1-0.7l0.1-1.3l0.3-2.5v-1l-0.1-1.5l-0.1-1.3l-0.4-1l-0.6-0.9l-0.7-0.7l-1.2-0.4l-1.2-0.3h-1.3l-1.3,0.1l-1.4,0.6l-1.5,1
		l-1.3,1.5l-0.6,1.2l-0.6,1.4l-0.3,1.6l-0.3,2v1.3l0.1,1.4l0.3,1.3l0.4,1.3l0.9,2.5l1.5,2.3l0.7,1l6.5,6.9l4.1,3.6l9.7,11.4l0.7,1
		l0.6,1.2l1.3,2.4l0.9,2.6l0.1,1.3l0.7,5.3l0.1,1.3v1.4l-0.1,1.5l-0.7,2.6l-0.9,2.4l-0.4,1.3l-2.5,4.6l-0.9,1.2l-0.7,1l-1,1
		l-4.2,3.3l-6.9,3.9l-1.3,0.6l-2.6,0.7l-7.8,1.9l-1.3,0.1l-13.4,0.4h-1.3l-1.3-0.1l-5.2-1l-2.6-0.7l-2.5-0.9l-2.5-1l-2.3-1.2
		l-2.3-1.4l-1-0.7l-1.9-1.9l-0.9-1l-1.6-2.2l-0.7-1.2l-1.2-2.3l-0.4-1.3l-0.7-2.4l-0.4-2.6l-0.3-2.6l-0.1-5.3l0.4-3.9l0.4-2.6
		l0.3-1.3l1.3-3.8l0.6-1.2l0.7-0.9l0.9-0.9l1.1-0.6l1-0.6l2.3-0.9l3.8-0.4h2.5l2.6,0.6l3.5,1.3l1.7,0.9l1.1,0.9l0.3,0.3l0.4,0.6
		l0.3,0.4l0.3,0.6l0.1,0.6l0.1,0.4l0.1,0.7l-0.1,0.6l-0.6,3.6l-0.4,2.8v2.9l0.3,2.8l0.4,2.9l0.3,1.3l0.4,1.3l0.7,1.3l0.9,1.1l0.9,1
		l1,0.9l1.2,1l1.3,0.6l1.2,0.3l1.4,0.3h2.9l1.2-0.1l1.3-0.4l1.2-0.7l1-0.9l0.9-1l1.4-2.3l0.4-1.2l0.3-1.3l0.3-1.5v-4l-0.3-1.2
		l-0.3-1.3l-0.6-1.2l-2.5-4.6l-1.5-2.2l-0.9-1l-14.3-15.3l-1.7-2l-2.9-4.4l-0.7-1.1l-0.9-2.3l-1.5-5.1l-0.3-1.3l-0.3-2.6l0.3-5.2
		l0.4-2.6l0.3-1.2l0.6-1.3l0.4-1.2l2.6-4.5l0.7-1l0.9-1l1-0.9l0.9-0.9l1-0.9l1.2-0.7l1-0.7l7.2-2.9l5.1-1.6l1.3-0.1l5.2-0.7h5.2
		l9.1,1.2l5.1,1.2l1.1,0.3l1.3,0.6l2.3,1.2l2.3,1.3l1,0.9l1,0.7l1,0.9l1.7,2l0.7,1l1.7,3.5l0.4,1.2l0.6,2.6l0.1,1.3v5.2l-0.1,1.3
		l-0.3,1.3L1036.8,807.1z"/>
	<path class="st1" d="M1054.4,818.6l0.3-0.1l0.7-0.3l1.3-0.4l4.2-0.7l7.8-0.7l5.2,0.1l1.3,0.1l4.5,1l1,0.3l1.2,0.6l0.4,0.4l0.1,0.3
		v1l-0.7,1.3l-12.9,35.6l-0.1,1l-0.3,1.3l-0.1,1.2v1.9l0.1,0.7l0.1,0.6l0.1,0.3l0.4,0.6l0.9,0.4l0.9,0.1h0.3l0.9-0.1l0.6-0.3
		l0.4-0.3l1.2-0.9l1.3-1l7.4-7.4l3.2-4l0.4-0.4l0.4-0.1l0.6-0.1l0.4,0.1l1.2,0.3l0.4,0.1l0.7,0.4l0.6,0.4l0.7,0.4l1.3,1.3l0.1,0.3
		l0.1,0.1v0.7l-0.1,0.3l-3,4.3l-6.1,7.4l-1.9,1.9l-6.4,5.3l-2.3,1.5l-7.5,3.5l-1.3,0.4l-1.3,0.3l-1.4,0.3l-2.7,0.4h-3.8l-2.5-0.1
		l-2.5-0.3l-1.2-0.3l-1.3-0.4l-1.2-0.4l-1-0.6l-2-1.5l-1.7-1.7l-1.2-2l-0.9-2.3l-0.1-1.3l-0.3-2.4v-1.2l0.1-1.3l0.1-1.2l0.4-2.5
		l0.6-2.6l0.9-2.4l3.3-12.9l8.8-23.7L1054.4,818.6z M1080.1,781.7l1.3,0.4l1.2,0.4l1.3,0.6l1.2,0.7l1.2,0.9l0.9,1l0.9,1.2l0.6,1.3
		l0.4,1.3l0.3,1.4l0.1,1.3v1.3l-0.1,1.5l-0.6,2.7l-0.3,1.3l-0.9,2.3l-0.6,1.2l-0.7,1.2l-0.9,1l-1.7,1.9l-0.9,0.9l-1,0.9l-1.2,0.7
		l-1,0.6l-1.3,0.6l-1.2,0.4l-1.3,0.4l-2.5,0.4l-1.3,0.1l-1.4,0.1l-1.3-0.1l-1.3-0.3l-1.3-0.4l-1.3-0.6l-1.1-0.7l-1-0.9l-1.7-2
		l-0.9-1.2l-1.2-2.3l-0.4-1.3l-0.3-1.3l-0.1-1.3v-1.4l0.1-1.3l0.3-1.3l0.4-1.3l1.7-3.5l0.7-1l0.9-1l1.7-1.9l0.9-0.9l1-0.7l1.2-0.7
		l1-0.7l1.1-0.6l1.2-0.4l1.3-0.4l1.2-0.3l1.3-0.3l1.3-0.1h2.7L1080.1,781.7z"/>
	<path class="st1" d="M1167.1,851.1l0.3-0.1l0.4-0.1h1.2l0.6,0.1l0.7,0.3l0.6,0.3l1.3,0.9l0.7,0.6l0.7,0.7l0.1,0.4l0.1,0.1l-0.1,0.4
		l-2.3,4.5l-2.9,4l-3.5,3.7l-3.6,3.5l-0.9,0.7l-6.4,4l-4.5,2.2l-2.3,0.9l-7.4,1.7l-1.3,0.1l-2.5,0.1h-2.5l-1.3-0.1l-1.1-0.1
		l-1.3-0.3l-1-0.3l-1.3-0.6l-1-0.4l-2-1.4l-0.9-0.9l-0.7-0.9l-0.7-1l-0.6-1.2l-0.4-1l-0.3-1.3l-0.3-1.2l-0.1-1.3l-0.1-1.2l0.1-1.2
		l0.6-5.1l0.4-2.5l2-4.9l1.6-5.2l3.8-10.4l0.1-1v-0.7l-0.3-0.4l-0.1-0.4l-0.3-0.3l-0.9-0.4h-0.4l-0.3-0.1h-1l-1.2,0.1l-0.7,0.1
		l-0.6,0.3l-1,0.4l-0.4,0.1l-0.7,0.4l-1.2,1.2l-0.4,0.7l-0.9,1.7l-8.7,26.5l-2.9,11.8l-0.1,0.4l-0.3,0.3l-0.6,0.4l-0.4,0.1l-0.1,0.1
		l-0.6,0.3l-1.4,0.4l-3.3,0.9l-2.7,0.4l-5.2,0.3h-1.3l-6.6-0.7l-1.6-0.3l-1.4-0.4l-1-0.4l-0.4-0.1l-0.3-0.3l-0.4-0.3l-0.6-0.4
		l-0.1-0.3l-0.1-0.7v-0.3l1.6-4.9l1-4.9l1.7-4.8l1-5.1l12.1-34.5l1.6-3.5l0.4-0.7l0.4-0.3l0.6-0.3l0.4-0.1l0.6-0.3l0.9-0.3l1.2-0.3
		l2.3-0.3l2.6-0.3l10.1-0.3l1.3,0.1l5.2,1.2l0.6,0.1l1.5,0.7l0.6,0.6v0.4l-0.6,1.4l-0.1,0.3v0.7l0.1,0.3h0.9l0.3-0.1l0.4-0.1l4-2
		l2.6-1l2.6-0.7l2.7-0.7l1.4-0.1l1.3-0.1h2.5l2.5,0.1l1,0.1l1.3,0.1l1.2,0.4l1,0.3l1,0.6l1.2,0.6l1,0.6l0.9,0.7l0.7,0.9l0.7,1l0.9,2
		l0.3,1.3l0.1,1v2.5l-0.9,4.6l-6.2,21l-0.4,2.5l-0.1,1.3v3.7l0.1,0.6l0.3,0.6l0.1,0.4l0.3,0.4l0.1,0.1l0.4,0.1h0.7l0.3-0.1l0.4-0.1
		l0.3-0.1l0.4-0.1l0.6-0.3l1.5-1.2l3.2-2.6l2.7-2.7l4.8-6.2L1167.1,851.1z"/>
	<path class="st1" d="M1210.5,817.7l5.2,0.7l1.1,0.3l1.5,0.6l1.2,0.6l2.2,1.3l2.2,1.7l0.9,0.9l0.7,1l0.7,1.2l0.9,2.6l0.3,1.3v1.3
		l-0.7,8l-0.3,1.2l-0.3,0.4l-0.4,0.6l-0.3,0.6l-0.4,0.4l-1,0.9l-1.2,0.7l-1,0.6l-2.3,0.9l-4.9,1.2l-2.5,0.4h-2.5l-2.6-0.1l-2.3-0.6
		l-1-0.4l-0.7-0.3l-0.6-0.3l-0.6-0.6l-0.1-0.3l-0.3-0.4l-0.1-0.3v-0.3l-0.1-0.4l0.1-0.7l2.6-7.2v-1.2l-0.1-0.3l-0.1-0.1h-0.7
		l-0.4,0.1h-0.3l-0.4,0.3l-1.4,0.7l-1.2,1.2l-0.7,1l-0.6,1l-0.6,1.2l-2,4.8l-0.4,1.3l-0.1,1.2l-0.3,5.3v1.2l0.1,1.3l0.1,1.2l0.7,2.6
		l0.4,1.2l0.6,1l0.9,1l0.9,0.9l1,0.9l2.3,1.1l1.2,0.4l2.6,0.6l2.5,0.3l2.6-0.1l5.2-0.7l1.2-0.4l7.1-3.2l1.2-0.9l0.9-0.7l1.9-1.9
		l1.9-2.6l1.9-3.2l0.4-0.4h0.1l0.3-0.1l0.4-0.1h0.9l0.4,0.1h0.3l2,1l0.7,0.4l1,1l0.4,0.6l0.1,0.3l0.1,0.1v0.9l-0.1,0.3l-5.3,7.5
		l-3.5,4.2l-1.9,1.9l-2.2,1.9l-2.2,1.4l-8.5,4.3l-5.2,1.6l-5.3,1.2l-13.4,0.6l-2.5-0.1l-1.2-0.3l-4.9-1.3l-4.5-2.2l-4-2.9l-1.9-1.7
		l-3.3-3.6l-0.7-1l-1.1-2.3l-0.9-2.3l-0.3-1.2l-0.4-2.6l-0.1-2.4l0.3-3.8l0.7-4.9l1.3-4.8l1-2.3l2.3-4.5l2.6-4.2l1.6-1.9l1.7-1.9
		l1.7-1.7l1-0.7l7.7-4.2l4.8-1.7l9.7-1.7l5.1-0.1L1210.5,817.7z"/>
	<path class="st1" d="M1272.9,817.4l7.8,1.2l1.2,0.3l2.6,0.9l2.3,1.2l1.2,0.7l2,1.7l1.7,1.9l0.7,1.2l0.7,1l0.6,1.2l0.9,2.6l0.4,3.9
		l-0.3,2.6l-0.6,2.5l-0.7,2.6l-1.2,2.3l-1.4,2l-1.6,1.7l-1.9,1.7l-4,2.9l-3.2,1.7l-2.5,0.9l-1.2,0.3l-11.7,1.5l-4.2,0.1h-0.3
		l-0.4,0.1l-0.3,0.1l-0.1,0.1l-0.1,0.4l0.1,0.6l0.4,0.7l1.2,1.4l0.6,0.6l0.7,0.6l0.7,0.4l1.3,0.6l2.5,0.7l2.6,0.6l1.3,0.1l9-0.6
		l1.5-0.3l1.2-0.4l4.6-2.3l2.2-1.4l1.9-1.6l1.9-1.7l1.7-2l2.2-3.3l0.3-0.4l0.4-0.1l0.6-0.1h1l0.7,0.1l0.3,0.1l1,0.4l1.4,1.2l1.2,1.2
		l0.3,0.6v0.7l-5.5,7.8l-3.5,4.1l-4,3.5l-2.2,1.6l-8.2,4.5l-5.1,1.7l-10.7,1.6l-10.7,0.1l-1.3-0.1l-7.8-2l-1.2-0.4l-1.3-0.6
		l-2.2-1.4l-4.3-3.3l-0.9-1l-0.7-1l-0.7-1.2l-1.3-2.5l-1-2.5l-0.7-2.6l-0.3-2.6v-5.2l1.3-8l1.7-5.1l2.2-4.8l1.4-2.2l1.6-2.2l1.7-2
		l3.9-3.5l2-1.7l1.2-0.6l4.8-2.3l7.4-2.6l1.3-0.4l10.6-0.7H1272.9z M1267.3,833.7l-1,0.6l-1,0.7l-1.4,1.4l-0.7,1l-0.6,1l-0.4,0.9
		l-1.7,5.1v1l0.3,0.6l0.3,0.1l0.4,0.1h0.6l0.3-0.1l0.9-0.1l2.2-0.9l1.4-0.7l1-0.6l1-0.9l0.6-0.6l2.9-3.8l0.6-0.9l0.4-1.3V836
		l-0.1-0.7l-0.3-0.3l-0.3-0.4l-0.9-0.6l-0.3-0.1l-1.3-0.4h-1.7L1267.3,833.7z"/>
	<path class="st1" d="M1359,782.7l0.7-0.4l0.9-0.4l0.9-0.1l0.7-0.3l2.2-0.3l2.8-0.3h5.5l2.9,0.3l4.5,1l1.2,0.4l0.7,0.3l0.7,0.4
		l0.4,0.4l0.3,0.4l0.1,0.4v0.6l-1.9,4.8l-1.3,5.1l-1.9,4.9l-4.5,15l-1.2,5.2l-3.2,9.8l-1.2,5.2l-2.9,10l-2.5,10.3l-1.6,4.9
		l-3.3,15.3l-0.6,1l-0.9,0.9l-1.2,0.9l-1.4,0.7l-2.5,1l-1.3,0.4l-1.4,0.4l-5.4,0.9h-4.2l-2.9-0.3l-2.6-0.6l-1.2-0.4l-1.3-0.7l-0.9-1
		l-0.4-1v-1.4l1-4.9l10.1-39l4.1-9.8V822l-0.1-0.4l-0.4,0.1h-0.1l-0.6,0.4l-2.3,2.7l-1,0.9l-2.3,1.7l-2.6,1.4l-2.6,0.6l-1.2,0.1
		l-1.3-0.1l-1-0.1l-1.3-0.1l-2.3-0.9l-1-0.6l-2.6-2.6l-0.6-1l-0.7-1.2l-0.9-2.3l-0.1-1.2l-0.1-1.5l0.1-1.3l0.6-1.1l0.7-0.7l4.8-2.6
		l9.1-6.1l12.6-10.3l8-9.3l2.3-3.5L1359,782.7z"/>
	<path class="st1" d="M1433.9,781.3h1.2l1.3,0.3l5.1,1.3l1.2,0.4l2.3,1l2.3,1.2l2,1.4l1.9,1.7l0.9,0.9l0.9,1l0.7,1l1.4,2.2l0.6,1.2
		l0.4,1.2l2.2,7.5l0.1,1.3l0.3,2.4l0.3,2.6l-0.1,1.3l-0.7,8.9l-1.4,10.3l-2.5,10.1l-3.6,9.7l-4.3,8.1l-2.8,4.3l-3.2,4.2l-1.7,1.9
		l-5.9,5.2l-1,0.7l-1.2,0.6l-1.2,0.7l-4.6,2.2l-2.5,0.9l-2.6,0.6l-2.5,0.4l-2.6,0.3l-2.6,0.1h-1.3l-7.4-1l-2.5-0.7l-2.3-0.7
		l-1.2-0.6l-1-0.6l-1.2-0.7l-1.9-1.5l-1.7-1.7l-3-3.9l-0.7-1.2l-0.6-1l-0.4-1.2l-0.4-1.3l-0.7-3.6l-0.1-1.2v-2.5l0.3-1.2l0.7-0.9
		l1-0.9l1.3-0.7l2.3-1l1.2-0.4l1.5-0.3l1.2-0.1l1.3-0.1l5.4,0.1l1.3,0.1l1.2,0.3l1.6,0.4l1.3,0.7l0.7,0.7l0.4,1l0.1,1.6l0.1,1.5
		l0.3,1.3l0.3,1.2l0.7,1.6l0.7,1l1,0.7l1.3,0.1l1.2-0.1l1.1-0.4l1.3-0.6l1.2-0.9l2-1.6l1-1l0.9-1.2l0.9-1l1.4-2.2l1.3-2.4l1.7-3.8
		l0.3-1.2l0.1-0.7l-0.1-0.6l-0.3-0.4l-1-0.3h-0.6l-1.4,0.3l-2.6,0.7l-1.4,0.3l-2.3,0.3l-1.3-0.1l-7.5-1.2l-1.1-0.3l-1.2-0.4l-2.3-1
		l-1.1-0.6l-2.2-1.3l-1-0.7l-2.6-2.6l-1.6-2l-0.6-1l-3.3-6.9l-0.6-2.3l-0.6-7.5v-2.6l0.3-2.5l0.9-4.9l0.3-1.3l1.3-3.5l1-2.3l2.6-4.3
		l4.6-5.9l1-0.9l0.9-0.7l6.2-4.3l1.2-0.6l8.2-3l1.3-0.3l2.3-0.4l2.6-0.3h1.2l3.9,0.1L1433.9,781.3z M1428.7,797h-0.6l-0.7,0.1
		l-0.4,0.1l-1,0.4l-1.2,0.6l-1,0.6l-0.9,0.6l-1,0.9l-0.9,0.9l-0.6,1l-3,6.5l-0.4,1.2l-0.3,1.2l-0.9,5.9l-0.1,2.2v1.3l0.1,1.2
		l0.6,3.3l0.4,1.2l0.3,1l0.6,0.9l0.7,1.2l0.7,0.9l0.9,0.6l1,0.1h1.4l1.3-0.3l1.3-0.4l1.2-0.6l1-0.9l0.7-1l0.9-1.2l1.3-2.5l1.1-2.5
		l0.4-1.3l1.3-5.3l0.7-3.6v-2.5l-0.6-4.9l-0.1-1.2l-0.3-1.1l-0.3-1l-0.7-1.4l-0.4-0.7l-0.3-0.4l-0.6-0.4l-0.3-0.3l-0.7-0.3
		L1428.7,797z"/>
	<path class="st1" d="M1475.1,798.9l0.4-1.3l0.4-1.2l0.7-1.3l0.6-1.2l1.6-2.2l0.9-1l0.9-0.9l3-2.6l2.2-1.4l4.8-2.6l1.2-0.6l2.6-0.7
		l2.6-0.6l5.4-0.6h1.3l5.3,0.3l2.6,0.4l5.2,1l2.6,0.7l2.5,1l2.3,1.3l2.3,1.5l2,1.7l0.9,1l3.2,4.3l0.7,1.2l0.4,1.2l0.4,1.3l0.6,2.6
		l0.1,1.4v1.2l-0.1,1.3l-0.9,4.2l-0.3,1.3l-1.2,2.6l-0.6,1.2l-0.9,1.1l-0.7,1.2l-1.9,2.2l-1.9,2l-1,0.9l-1.2,0.9l-5.1,3l-0.3,0.3
		l-0.6,0.4l-0.4,0.4l-0.1,0.3l-0.1,0.4l0.1,0.7l0.3,0.4l2.6,2.2l5.2,4.9l0.9,1l0.7,0.9l0.6,1l1.3,2.2l1,2.2l0.4,1l0.9,3.5l0.1,1.3
		l0.1,1.2v3.6l-0.1,1.1l-0.3,1.3l-0.7,2.6l-1.9,4.8l-0.6,1.1l-0.7,1.2l-0.7,1l-3.5,3.9l-1.9,1.7l-1,0.9l-2.2,1.5l-2.3,1.3l-2.3,1.2
		l-2.5,1l-6.2,1.7l-2.6,0.6l-5.1,0.9h-1.3l-5.2-0.1l-7.8-0.7l-1.3-0.1l-1.3-0.4l-1.3-0.3l-4.8-2l-2.3-1.1l-1.2-0.7l-1-0.7l-3.8-3.5
		l-1-1l-0.7-1l-1.2-2.3l-0.9-2.5l-0.6-2.4l-0.3-1.3l-0.1-1.5l-0.1-2.5l0.1-2.7l0.3-2.8l0.1-1.3l0.3-1.3l0.6-1.3l0.4-1.3l1.3-2.5
		l1.3-2.3l1.6-2.2l0.9-1l4-3.9l4-3.5l4.8-3.6l1-1l0.4-0.9v-1l-0.3-1l-0.4-1l-2.7-3.5l-3-5.1l-0.4-1l-0.4-1.2l-0.3-1l-0.3-1.2
		l-0.1-1.3l-0.1-1.2v-1.2l0.1-2.3l0.1-1.3L1475.1,798.9z M1501.8,837.9l-0.9-1.3l-0.9-0.7l-1.2-0.3l-0.9,0.3l-1,0.7l-1.2,1l-2.2,2.5
		l-1.7,1.9l-0.7,1l-1.2,2.3l-1.9,4.6l-0.4,1.3l-0.3,1.2l-0.1,1.3l0.1,1.3v1.3l0.3,1.2l0.4,1.3l0.6,1.2l0.6,1l0.7,0.9l1,0.9l1,0.6
		l1.2,0.4h1.3l1.6-0.1l1.6-0.3l1.3-0.4l1.2-0.6l1.3-0.9l1-1l0.9-1.2l0.7-1.4l0.4-1.3l0.3-1.5l0.4-3.3v-1.4l-0.1-1.6l-0.4-3.2
		l-0.3-1.6l-0.4-1.5l-1.2-2.9L1501.8,837.9z M1499.1,805.5v2.9l0.3,0.9l0.6,2l0.6,1.4l0.7,0.9l0.7,0.6h0.9l0.7-0.3l0.7-0.7l0.7-0.9
		l1-1.3l0.9-1.5l0.9-1.6l0.7-1.6l0.6-1.6l0.3-1.5l0.3-1.3v-1l-0.1-1l-0.6-1.2l-0.7-0.9l-1.2-0.6l-1.2-0.1l-1,0.1l-1.2,0.4l-1,0.6
		l-1.7,1.7l-0.6,1l-0.4,1.2l-0.4,1.3L1499.1,805.5z"/>
	<path class="st1" d="M1585.3,781.3l4.9,0.7l1.3,0.3l1.1,0.3l3.5,1.3l2.2,1.3l2,1.3l2,1.7l0.9,0.9l0.7,0.9l0.9,1l0.6,1l1.3,2.2
		l0.9,2.3l0.7,2.3l0.4,2.5l0.1,1.3v1.4l-0.3,0.9l-0.3,0.4l-0.3,0.6l-0.4,0.4l-0.6,0.4l-1.3,0.7l-1,0.4l-1.3,0.4l-1.3,0.3l-2.6,0.4
		l-2.6,0.3h-2.6l-4.5-1l-0.9-0.3l-0.7-0.3l-0.9-0.6l-0.4-0.4l-0.3-0.4l-1.6-5.8l-0.4-0.9l-0.9-1.4l-0.9-0.6l-0.6-0.3h-2l-0.4,0.1
		l-0.7,0.1l-0.4,0.1l-1.3,0.6l-1.3,0.9l-0.9,0.7l-1,0.9l-2.6,3l-1.6,2.2l-2.7,4.8l-0.6,1.2l-0.3,1l-0.3,0.7v0.3l0.3,0.9l0.9,0.3
		l0.6,0.1h1l3.2-0.6l1.4-0.1l6.6,0.1l1.3,0.1l1.5,0.1l2.6,0.7l2.5,0.9l1.3,0.6l1.2,0.7l1.2,0.6l1.1,0.9l1,0.9l3.6,3.9l0.9,1.2
		l0.7,1.2l0.6,1.2l0.6,1.3l0.9,2.6l0.3,1.3l0.9,8.1v1.5l-0.1,2.8l-0.4,2.6l-0.3,1.4l-2.5,7.7l-2.3,4.9l-1.3,2.3l-1.6,2.2l-3.5,4.3
		l-0.9,0.9l-2.2,1.7l-2.2,1.6l-1.2,0.7l-4.9,2.2l-2.6,0.9l-2.6,0.7l-2.7,0.4l-5.4,0.7h-2.7l-6.4-0.7l-2.5-0.6l-1.3-0.3l-1.2-0.4
		l-4.8-2.2l-1.2-0.6l-1-0.7l-0.9-1l-0.9-0.9l-2.3-3.2l-0.7-1l-0.6-1.2l-2-4.8l-0.4-1.3l-0.3-1.1l-0.9-7.7l-0.1-2.6l0.9-12.9l0.3-2.6
		l2.3-10.1l1.2-3.6l1-3.9l0.3-1.2l4.3-9.4l5.2-9l3.3-4l1.7-1.9l1.9-1.7l1-0.9l6.6-4l4.6-2.2l1.3-0.4l2.5-0.6l2.6-0.6h5.2
		L1585.3,781.3z M1570.9,830.4l-1.3,0.4l-1.2,0.6l-1,0.9l-0.9,0.7l-1.7,2l-0.7,1.2l-0.6,1.2l-0.9,2.4l-1.7,5.1l-0.3,1.4l-0.4,3.8
		v5.1l0.3,2.5l0.1,1.3l0.3,1.2l0.3,0.9l0.7,1.5l0.9,1l0.9,0.6l1,0.1l1.4-0.1l1.3-0.4l1.3-0.6l1.1-0.9l0.9-1l0.7-1.2l0.7-1.3l2.2-5.5
		l0.4-1.5l1.5-7.2l0.1-5.9v-1.6l-0.6-2.6l-0.6-1.6l-0.7-1.3l-1-0.9l-1.2-0.3L1570.9,830.4z"/>
</g>
<g>
	<g>
		<path class="st2" d="M1754.6,992.6c-0.6-4.1-4.5-7.4-8.6-7.4h-256.1c-4.1,0-8.7,3.1-10.2,6.9l-219.6,546.2c-1.5,3.8-4,3.8-5.4-0.1
			l-207.3-546.1c-1.5-3.8-6-7-10.1-7H783.9c-4.1,0-8.1,3.3-8.9,7.3c0,0-35.7,185.5-42.4,250.5c-4,38.5-19.8,136-22.9,135
			c-3.2-1.1-6.4-2.3-9.7-3.3c-14.8-4.9-29.9-6.9-44.4,10.8c-15.2,18.6-19.9,39.8-17.1,63.8c8.1,70.1,15.7,140.3,23.3,210.6
			c1.8,17,3.7,34,5.5,51c10.4,95.2,20.7,190.4,31.1,285.5c0.8,7.2,0.3,16.1,3.3,20.9c4.5,7.3,11,16,17.6,15.8
			c4.9-0.2,14.9-13.2,16.7-21.4c11.4-50.6,21.3-101.5,31.2-152.4c14.4-73.7,28.3-147.3,42.3-221c3.2-16.6,9.3-23.4,21.5-18.9
			c13.6,5,27.5,9,41.4,12.9c28.8,8.3,50.9-9.4,59.2-50.3c4-19.6,7.8-39.3,11.6-58.9c5.8-30.3,15.8-83.8,15.8-83.8
			c0.8-4,2.6-4.2,4.1-0.4l234.1,587.2c1.5,3.8,6.1,6.9,10.2,6.9h93.5c4.1,0,8.8-3.1,10.3-6.9l245.8-589.4c1.6-3.8,3.5-6.9,4.3-6.9
			c0.8,0,1.8,3.3,2.3,7.4l74.5,588.4c0.5,4.1,4.3,7.4,8.4,7.4h257.5c4.1,0,7-3.3,6.3-7.4L1754.6,992.6z"/>
	</g>
	<g>
		<path class="st2" d="M1935.3,1908.5c-0.2-1.3-1.3-2.4-2.6-2.4h-357.9c-1.3,0-2.2,1.1-2.1,2.4l14.3,122.3c0.2,1.3,1.3,2.4,2.6,2.4
			h357.9c1.3,0,2.2-1.1,2.1-2.4L1935.3,1908.5z"/>
	</g>
	<g class="st3">
		<path class="st1" d="M1897.5,1941.6c-0.1-1.3-1.3-2.4-2.6-2.4H1861c-1.3,0-2.5-1.1-2.7-2.3l-122.4-826.2c-0.2-1.3-1.4-2.3-2.7-2.3
			h-69c-1.3,0-2.2,1.1-2,2.3l122.5,826.2c0.2,1.3,0.4,2.3,0.4,2.3c0.1,0,0.2,1.1,0.3,2.4l5.2,49c0.1,1.3,1.3,2.4,2.6,2.4h107.5
			c1.3,0,2.3-1.1,2.1-2.4L1897.5,1941.6z"/>
	</g>
</g>
</svg>
