<?xml version="1.0" encoding="utf-8"?>
<!-- Generator: Adobe Illustrator 22.0.1, SVG Export Plug-In . SVG Version: 6.00 Build 0)  -->
<svg version="1.1" id="Layer_1" xmlns="http://www.w3.org/2000/svg" xmlns:xlink="http://www.w3.org/1999/xlink" x="0px" y="0px"
	 viewBox="0 0 300 250" style="enable-background:new 0 0 300 250;" xml:space="preserve">
<style type="text/css">
	.st0{fill:#434343;}
	.st1{fill:#434343;stroke:#DCC125;stroke-width:4.8089;stroke-miterlimit:10;}
	.st2{fill:#FFFFFF;}
	.st3{fill:#DCC125;}
	.st4{opacity:0.3;}
</style>
<rect y="0" class="st0" width="300" height="250"/>
<g>
	<path class="st1" d="M256.6,125c0-58.9-47.7-106.6-106.6-106.6S43.4,66.1,43.4,125S91.1,231.6,150,231.6S256.6,183.9,256.6,125z"/>
	<g>
		<path class="st2" d="M74.2,71.4l3.1-3.6l10.1,3.7l-5-9.6l3.2-3.7l16.1,10.1L98.5,72l-9.1-6l0,0l5.2,10.5l-1.3,1.5l-11-3.8l0,0
			l7.2,8.3l-3.2,3.7L74.2,71.4z"/>
		<path class="st2" d="M107.8,60.7l0.6,3.5l-4.4,2.7L100.4,47l4.6-2.7l15.7,12.4l-4.5,2.7l-2.7-2.2L107.8,60.7z M105.7,50.6
			L105.7,50.6l1.3,6.2l3.5-2.1L105.7,50.6z"/>
		<path class="st2" d="M119.8,37.1l4.7-1.1L136,45l0.1,0l-2.7-11.2l4.7-1.1l4.4,18.3l-4.7,1.2L126.3,43l-0.1,0l2.7,11.2l-4.7,1.2
			L119.8,37.1z"/>
		<path class="st2" d="M149.3,31.8l4.9,0.4l8,12.2h0.1l0.9-11.4l4.9,0.4L166.5,52l-4.9-0.4l-8-12.2h-0.1l-0.9,11.5l-4.9-0.4
			L149.3,31.8z"/>
		<path class="st2" d="M176.8,55.5l-4.6-1.5l5.8-17.9l4.6,1.5L176.8,55.5z"/>
		<path class="st2" d="M192.4,41.3l4.2,2.6l1.6,14.5l0,0l6-9.8l4.2,2.6l-9.8,16l-4.2-2.6l-1.6-14.5l0,0l-6,9.8l-4.2-2.6L192.4,41.3z
			"/>
		<path class="st2" d="M222.8,78.1c-0.5,0.4-1,0.8-1.6,1.2c-0.5,0.4-1,0.7-1.6,1c-0.5,0.3-1.1,0.5-1.7,0.7c-0.6,0.2-1.3,0.3-2,0.4
			c-1.6,0.1-3-0.1-4.3-0.7c-1.3-0.6-2.5-1.5-3.5-2.7c-1-1.1-1.7-2.3-2.1-3.6c-0.4-1.2-0.6-2.5-0.5-3.7c0.1-1.2,0.4-2.4,1-3.6
			c0.6-1.2,1.5-2.2,2.6-3.2c1.2-1,2.4-1.7,3.6-2.1c1.3-0.4,2.5-0.6,3.8-0.5c1.3,0.1,2.5,0.5,3.6,1.1c1.2,0.6,2.3,1.5,3.2,2.7
			c1.3,1.5,2,3,2.3,4.7c0.3,1.7,0,3.4-0.8,5.1l-4.5-2.2c0.5-0.8,0.7-1.7,0.7-2.6c0-0.9-0.4-1.7-1-2.5c-0.5-0.6-1.1-1-1.8-1.3
			c-0.7-0.2-1.3-0.3-2-0.3c-0.7,0.1-1.4,0.2-2,0.5c-0.7,0.3-1.3,0.7-1.8,1.2c-0.6,0.5-1,1-1.4,1.6c-0.4,0.6-0.7,1.3-0.8,1.9
			c-0.1,0.7-0.1,1.4,0,2.1c0.1,0.7,0.5,1.3,1,1.9c0.7,0.8,1.5,1.3,2.4,1.5c0.9,0.2,1.8,0,2.7-0.7l-2.6-3l2.9-2.5L222.8,78.1z"/>
	</g>
	<g>
		<path class="st2" d="M68.9,131l-2.2,0.1l0.2,3.9l-2.9,0.2l-0.2-3.9l-2.3,0.1l0.2,4.1l-2.9,0.2l-0.4-7.5l13.2-0.8l0.4,7.5l-2.9,0.2
			L68.9,131z"/>
		<path class="st2" d="M63.3,145l0.9,4l-2.9,0.6l-1.6-7.4l13-2.7l0.7,3.4L63.3,145z"/>
		<path class="st2" d="M73.8,154.6l-2.1,0.8l1.4,3.6l-2.7,1l-1.4-3.6l-2.1,0.8l1.4,3.8l-2.7,1l-2.6-7.1l12.4-4.6l2.6,7.1l-2.7,1
			L73.8,154.6z"/>
		<path class="st2" d="M80.8,172c0.2-0.5,0.3-1.1,0.3-1.7c-0.1-0.6-0.2-1.1-0.5-1.6c-0.3-0.5-0.6-0.8-1-1.1
			c-0.4-0.3-0.8-0.5-1.2-0.6c-0.4-0.1-0.9-0.1-1.4,0c-0.5,0.1-0.9,0.2-1.4,0.5c-0.5,0.3-0.8,0.6-1.1,0.9c-0.3,0.4-0.5,0.8-0.6,1.2
			c-0.1,0.4-0.1,0.9-0.1,1.4s0.2,0.9,0.5,1.4c0.3,0.5,0.7,0.9,1.2,1.2c0.5,0.3,1,0.5,1.6,0.6l-3.6,2.1c-0.4-0.4-0.8-0.8-1.2-1.1
			c-0.3-0.3-0.6-0.7-0.9-1.2c-0.5-0.8-0.8-1.6-0.9-2.6c-0.1-0.9-0.1-1.8,0.1-2.7c0.2-1,0.6-1.8,1.1-2.5c0.6-0.7,1.3-1.3,2.1-1.8
			c0.8-0.5,1.6-0.8,2.5-0.9c0.9-0.1,1.8-0.1,2.7,0.1c0.9,0.2,1.7,0.6,2.5,1.2c0.8,0.6,1.4,1.3,1.9,2.1c0.3,0.5,0.5,1,0.7,1.5
			s0.3,1,0.3,1.6L80.8,172z"/>
		<path class="st2" d="M80.5,186l-2.2-2.7l8-6.6l-1.8-2.2l2.2-1.9l5.8,7.1l-2.2,1.9l-1.8-2.2L80.5,186z"/>
		<path class="st2" d="M94.7,199.6l-3.2-2.8l0.9-6l0,0l-3.3,3.8l-2.6-2.3l8.7-10l3.9,3.4c0.5,0.4,0.9,0.9,1.2,1.4
			c0.3,0.5,0.5,1,0.6,1.5c0.1,0.5,0.1,1.1-0.1,1.6c-0.2,0.5-0.5,1.1-0.9,1.6c-0.3,0.3-0.6,0.6-1,0.9c-0.4,0.2-0.7,0.4-1.2,0.5
			c-0.4,0.1-0.8,0.1-1.2,0c-0.4-0.1-0.8-0.2-1.2-0.5L94.7,199.6z M93.8,189.1l0.2,0.2c0.2,0.2,0.4,0.4,0.7,0.5
			c0.2,0.2,0.5,0.3,0.7,0.3c0.2,0.1,0.5,0.1,0.8,0c0.2-0.1,0.5-0.2,0.7-0.5c0.2-0.3,0.4-0.5,0.4-0.8c0-0.3,0-0.5-0.1-0.7
			s-0.2-0.5-0.4-0.7c-0.2-0.2-0.4-0.4-0.6-0.6l-0.2-0.2L93.8,189.1z"/>
		<path class="st2" d="M102.1,204.5l-2.9-1.9l7.1-11.2l2.9,1.9L102.1,204.5z"/>
		<path class="st2" d="M120.2,203.8c-0.1-0.6-0.4-1.1-0.8-1.5c-0.4-0.4-0.9-0.8-1.4-1c-0.5-0.2-1-0.3-1.4-0.3
			c-0.5,0-0.9,0.1-1.3,0.2c-0.4,0.2-0.8,0.4-1.1,0.8c-0.3,0.3-0.6,0.7-0.8,1.2c-0.2,0.5-0.3,1-0.4,1.4c0,0.5,0,0.9,0.2,1.3
			c0.2,0.4,0.4,0.8,0.7,1.2c0.3,0.3,0.7,0.6,1.2,0.9c0.5,0.2,1.1,0.3,1.6,0.3c0.6,0,1.1-0.1,1.6-0.4l-1.7,3.8
			c-0.6-0.1-1.1-0.2-1.6-0.2c-0.5-0.1-0.9-0.2-1.4-0.5c-0.8-0.4-1.6-0.9-2.2-1.6c-0.6-0.7-1.1-1.4-1.5-2.3c-0.4-0.9-0.6-1.8-0.5-2.7
			c0-0.9,0.3-1.8,0.7-2.7c0.4-0.8,0.9-1.6,1.5-2.2c0.6-0.6,1.4-1.1,2.2-1.4c0.9-0.3,1.8-0.5,2.8-0.5c1,0,1.9,0.2,2.7,0.6
			c0.5,0.2,1,0.5,1.4,0.8c0.4,0.3,0.8,0.7,1.2,1.1L120.2,203.8z"/>
		<path class="st2" d="M141.6,216.3c-0.7,0.4-1.5,0.7-2.3,0.9c-0.8,0.2-1.6,0.3-2.4,0.2c-0.6-0.1-1.1-0.2-1.6-0.4
			c-0.5-0.2-0.9-0.5-1.3-0.9c-0.3-0.4-0.6-0.8-0.8-1.3c-0.2-0.5-0.2-1-0.2-1.6c0.1-0.5,0.2-0.9,0.4-1.3c0.2-0.4,0.4-0.7,0.7-0.9
			c0.3-0.3,0.6-0.5,1-0.7c0.4-0.2,0.8-0.3,1.2-0.5l0.3-0.1l-0.2-0.4c-0.1-0.2-0.2-0.3-0.3-0.5c-0.1-0.2-0.2-0.4-0.2-0.5
			c-0.1-0.2-0.1-0.4-0.2-0.6c0-0.2,0-0.5,0-0.7c0.1-0.6,0.2-1.1,0.5-1.5c0.3-0.4,0.6-0.8,1-1c0.4-0.3,0.9-0.5,1.4-0.6s1-0.1,1.6-0.1
			c0.5,0.1,1,0.2,1.5,0.4c0.5,0.2,0.9,0.5,1.2,0.9c0.4,0.3,0.6,0.8,0.8,1.2c0.2,0.5,0.2,1,0.2,1.6c0,0.4-0.2,0.8-0.3,1.1
			c-0.2,0.3-0.4,0.6-0.6,0.8c-0.2,0.2-0.5,0.4-0.9,0.6c-0.3,0.2-0.7,0.3-1,0.4l1.5,1.9c0.4-0.3,0.7-0.5,1-0.8s0.6-0.6,0.9-0.9
			l1.7,2.1l-1.9,1.6l-0.2,0.1l2.6,3.4l-4.3-0.5L141.6,216.3z M138.1,211.6c-0.2,0.1-0.3,0.2-0.5,0.2c-0.2,0.1-0.3,0.2-0.4,0.3
			c-0.1,0.1-0.2,0.2-0.3,0.4c-0.1,0.1-0.2,0.3-0.2,0.5c0,0.2,0,0.4,0.1,0.5c0.1,0.2,0.2,0.3,0.3,0.4c0.1,0.1,0.3,0.2,0.5,0.3
			c0.2,0.1,0.3,0.1,0.5,0.1c0.3,0,0.7,0,1,0c0.3-0.1,0.6-0.2,0.9-0.3L138.1,211.6z M139.8,208.9c0.3-0.1,0.6-0.3,0.9-0.6
			c0.3-0.2,0.5-0.5,0.5-0.9c0-0.3,0-0.6-0.2-0.9c-0.2-0.3-0.4-0.4-0.8-0.5c-0.3,0-0.6,0-0.8,0.2c-0.2,0.2-0.4,0.4-0.4,0.7
			c0,0.2,0,0.3,0.1,0.5c0.1,0.2,0.1,0.3,0.2,0.5s0.2,0.3,0.3,0.5C139.7,208.6,139.8,208.8,139.8,208.9z"/>
		<path class="st2" d="M160.5,204.1l5.2-1c0.7-0.1,1.4-0.2,2-0.1c0.6,0.1,1.2,0.2,1.6,0.5c0.5,0.3,0.9,0.6,1.2,1.1
			c0.3,0.5,0.6,1.1,0.7,1.9c0.3,1.5,0.1,2.7-0.5,3.6c-0.7,0.9-1.7,1.4-3.2,1.7l-1.9,0.4l0.9,4.3l-3.4,0.7L160.5,204.1z M165.1,209.4
			l0.6-0.1c0.3-0.1,0.6-0.1,0.9-0.2c0.3-0.1,0.5-0.2,0.7-0.3c0.2-0.1,0.4-0.3,0.5-0.6c0.1-0.2,0.1-0.6,0-1c-0.1-0.4-0.2-0.7-0.4-0.9
			c-0.2-0.2-0.4-0.3-0.6-0.4s-0.5-0.1-0.8,0c-0.3,0-0.6,0.1-0.9,0.2l-0.6,0.1L165.1,209.4z"/>
		<path class="st2" d="M181,209.4l3.9-1.4l1,2.7l-7.1,2.6l-4.6-12.4l3.2-1.2L181,209.4z"/>
		<path class="st2" d="M194.4,191l3.8,6.4c0.2,0.4,0.4,0.7,0.6,1.1c0.2,0.4,0.4,0.8,0.5,1.1c0.1,0.4,0.2,0.8,0.2,1.2
			c0,0.4,0,0.8-0.1,1.3c-0.1,0.4-0.3,0.7-0.5,1.1s-0.4,0.7-0.7,0.9c-0.3,0.3-0.6,0.6-0.9,0.8c-0.3,0.2-0.7,0.5-1,0.7
			c-0.3,0.2-0.7,0.4-1.1,0.5c-0.4,0.2-0.8,0.3-1.1,0.4c-0.4,0.1-0.8,0.1-1.2,0.2c-0.4,0-0.8,0-1.2-0.1c-0.4-0.1-0.8-0.3-1.2-0.5
			c-0.4-0.2-0.7-0.5-0.9-0.8c-0.3-0.3-0.5-0.6-0.8-1c-0.2-0.4-0.5-0.7-0.7-1.1l-3.8-6.4l3-1.7l3.5,6c0.2,0.4,0.5,0.7,0.7,1.1
			c0.2,0.4,0.5,0.6,0.8,0.9c0.3,0.2,0.7,0.3,1,0.4c0.4,0,0.8-0.1,1.3-0.4s0.8-0.6,1-0.9c0.2-0.3,0.2-0.7,0.2-1.1
			c0-0.4-0.2-0.8-0.3-1.1s-0.4-0.8-0.6-1.1l-3.5-6L194.4,191z"/>
		<path class="st2" d="M199,187.6l2.5-2.3l6.8,3.3l-2.8-7.1l2.5-2.3l10.5,8.3l-2.5,2.4l-5.9-4.9l0,0l2.9,7.7l-1,0.9l-7.4-3.5l0,0
			l4.4,6.3l-2.5,2.3L199,187.6z"/>
		<path class="st2" d="M222.5,182.4l-10.9-7.5l2.8-4.1c0.3-0.5,0.7-0.9,1.1-1.2c0.4-0.3,0.8-0.6,1.2-0.7c0.4-0.1,0.9-0.1,1.3-0.1
			c0.5,0.1,1,0.3,1.5,0.7c0.5,0.3,0.9,0.7,1.1,1.2c0.3,0.4,0.4,1,0.3,1.6l0,0c0.6-0.7,1.3-1.1,2.1-1.1c0.7,0,1.5,0.2,2.2,0.8
			c0.6,0.4,1,0.8,1.2,1.3c0.2,0.5,0.3,1,0.3,1.5c0,0.5-0.1,1.1-0.4,1.6c-0.2,0.5-0.5,1.1-0.9,1.6L222.5,182.4z M217.8,175l0.2-0.3
			c0.1-0.2,0.2-0.4,0.3-0.6s0.2-0.4,0.2-0.6c0-0.2,0-0.4-0.1-0.6c-0.1-0.2-0.2-0.4-0.5-0.5c-0.2-0.2-0.5-0.3-0.7-0.2
			c-0.2,0-0.4,0.1-0.6,0.2c-0.2,0.1-0.3,0.3-0.5,0.4c-0.1,0.2-0.3,0.4-0.4,0.6l-0.1,0.2L217.8,175z M222.2,178l0.2-0.4
			c0.1-0.2,0.3-0.5,0.5-0.7c0.2-0.3,0.3-0.5,0.4-0.8c0.1-0.3,0.1-0.5,0.1-0.8c-0.1-0.3-0.2-0.5-0.5-0.7c-0.3-0.2-0.6-0.3-0.9-0.3
			s-0.5,0.2-0.8,0.3c-0.2,0.2-0.4,0.4-0.6,0.7c-0.2,0.3-0.4,0.5-0.5,0.8l-0.2,0.3L222.2,178z"/>
		<path class="st2" d="M232.7,165.4l-1.5,3.1l-11.9-5.9l1.5-3.1L232.7,165.4z"/>
		<path class="st2" d="M222.9,155.3l1-3.3l9.6-3.7l0,0l-7.8-2.3l1-3.3l12.7,3.8l-1,3.3l-9.6,3.7l0,0l7.8,2.3l-1,3.3L222.9,155.3z"/>
		<path class="st2" d="M234.2,125.6c0.5,0,0.9,0.1,1.4,0.2s0.9,0.2,1.3,0.3c0.4,0.1,0.8,0.3,1.2,0.5c0.4,0.2,0.8,0.5,1.2,0.8
			c0.9,0.7,1.5,1.6,1.8,2.5c0.3,1,0.5,2,0.4,3.1c-0.1,1-0.3,2-0.7,2.8c-0.4,0.8-0.9,1.5-1.6,2.1c-0.7,0.6-1.4,1-2.3,1.3
			c-0.9,0.3-1.8,0.4-2.9,0.3c-1.1-0.1-2-0.3-2.9-0.7c-0.9-0.4-1.6-0.9-2.1-1.6c-0.6-0.7-1-1.5-1.3-2.4c-0.3-0.9-0.4-1.9-0.3-3
			c0.1-1.4,0.5-2.5,1.2-3.5c0.7-1,1.7-1.7,2.9-2.2l1.1,3.4c-0.6,0.2-1.2,0.5-1.6,1c-0.4,0.5-0.7,1-0.7,1.7c0,0.6,0,1.1,0.3,1.5
			c0.2,0.4,0.5,0.8,0.9,1.2c0.4,0.3,0.8,0.6,1.3,0.7c0.5,0.2,1,0.3,1.5,0.3c0.5,0,1,0,1.5-0.1c0.5-0.1,1-0.3,1.4-0.6
			c0.4-0.3,0.7-0.6,1-1c0.3-0.4,0.4-0.9,0.5-1.5c0.1-0.7-0.1-1.4-0.4-1.9s-0.9-0.9-1.7-1l-0.2,2.8l-2.7-0.2L234.2,125.6z"/>
	</g>
	<g>
		<path class="st2" d="M79,84.2l-3.3-3.1c-7.6,12.4-12.1,26.8-12.7,42.2h4.4C68,109.1,72.1,95.8,79,84.2z"/>
		<path class="st2" d="M232.5,123.3h4.4c-0.6-15.8-5.4-30.5-13.3-43.1l-3.4,2.9C227.6,94.9,232,108.6,232.5,123.3z"/>
	</g>
	<g>
		<path class="st2" d="M128.9,66.3L128.9,66.3l0,0.1l0,0.1l0,0.1l-0.1,0.1l-0.1,0l-0.1,0.1l-0.1,0.1l-0.2,0.1l-0.1,0l-0.1,0h-0.2
			l-0.2,0l-0.1,0l-0.1,0l-0.1,0l-0.1,0l-0.1-0.1l-0.1-0.1l0,0l0-0.1l0,0l0-0.1l0-0.1v-0.1l0-0.1l0-0.1l0-0.2v-0.1l0-0.1l0-0.1l0-0.1
			l-0.1-0.1l-0.1-0.1l-0.1,0l-0.1,0h-0.1l-0.1,0l-0.1,0.1l-0.1,0.1l-0.1,0.1l-0.1,0.1l-0.1,0.1l0,0.1l0,0.2v0.1l0,0.1l0,0.1l0,0.1
			l0.1,0.2l0.1,0.2l0.1,0.1l0.6,0.6l0.4,0.3l0.8,1l0.1,0.1l0.1,0.1l0.1,0.2l0.1,0.2l0,0.1l0.1,0.5l0,0.1v0.1l0,0.1l-0.1,0.2
			l-0.1,0.2l0,0.1l-0.2,0.4l-0.1,0.1l-0.1,0.1l-0.1,0.1l-0.4,0.3l-0.6,0.3l-0.1,0.1l-0.2,0.1l-0.7,0.2l-0.1,0l-1.2,0h-0.1l-0.1,0
			l-0.4-0.1l-0.2-0.1l-0.2-0.1l-0.2-0.1l-0.2-0.1l-0.2-0.1l-0.1-0.1l-0.2-0.2l-0.1-0.1l-0.1-0.2l-0.1-0.1l-0.1-0.2l0-0.1l-0.1-0.2
			l0-0.2l0-0.2l0-0.5l0-0.3l0-0.2l0-0.1l0.1-0.3l0.1-0.1l0.1-0.1l0.1-0.1l0.1-0.1l0.1-0.1l0.2-0.1l0.3,0h0.2l0.2,0.1l0.3,0.1
			l0.1,0.1l0.1,0.1l0,0l0,0.1l0,0l0,0.1l0,0.1l0,0l0,0.1l0,0.1l-0.1,0.3l0,0.2V70l0,0.2l0,0.2l0,0.1l0,0.1l0.1,0.1l0.1,0.1l0.1,0.1
			l0.1,0.1l0.1,0.1l0.1,0.1l0.1,0l0.1,0h0.2l0.1,0l0.1,0l0.1-0.1l0.1-0.1l0.1-0.1l0.1-0.2l0-0.1l0-0.1l0-0.1v-0.3l0-0.1l0-0.1
			l-0.1-0.1l-0.2-0.4l-0.1-0.2l-0.1-0.1l-1.2-1.3l-0.1-0.2l-0.2-0.4l-0.1-0.1l-0.1-0.2l-0.1-0.4l0-0.1l0-0.2l0-0.4l0-0.2l0-0.1
			l0.1-0.1l0-0.1l0.2-0.4l0.1-0.1l0.1-0.1l0.1-0.1l0.1-0.1l0.1-0.1l0.1-0.1l0.1-0.1l0.6-0.2l0.4-0.1l0.1,0l0.4-0.1h0.4l0.8,0.1
			l0.4,0.1l0.1,0l0.1,0.1l0.2,0.1l0.2,0.1l0.1,0.1l0.1,0.1l0.1,0.1l0.1,0.2l0.1,0.1l0.1,0.3l0,0.1l0.1,0.2l0,0.1v0.4l0,0.1
			L128.9,66.3L128.9,66.3z"/>
		<path class="st2" d="M130.4,67.3L130.4,67.3L130.4,67.3l0.2-0.1l0.4-0.1l0.7-0.1l0.4,0l0.1,0l0.4,0.1l0.1,0l0.1,0.1l0,0l0,0v0.1
			l-0.1,0.1l-1.1,3.1l0,0.1l0,0.1l0,0.1v0.2l0,0.1l0,0.1l0,0l0,0.1l0.1,0l0.1,0h0l0.1,0l0.1,0l0,0l0.1-0.1l0.1-0.1l0.6-0.6l0.3-0.3
			l0,0l0,0l0.1,0l0,0l0.1,0l0,0l0.1,0l0.1,0l0.1,0l0.1,0.1l0,0l0,0v0.1l0,0l-0.3,0.4l-0.5,0.6l-0.2,0.2l-0.5,0.5l-0.2,0.1l-0.6,0.3
			l-0.1,0l-0.1,0l-0.1,0l-0.2,0h-0.3l-0.2,0l-0.2,0l-0.1,0l-0.1,0l-0.1,0l-0.1-0.1l-0.2-0.1l-0.1-0.1l-0.1-0.2l-0.1-0.2l0-0.1l0-0.2
			v-0.1l0-0.1l0-0.1l0-0.2l0.1-0.2l0.1-0.2l0.3-1.1L130.4,67.3L130.4,67.3z M132.7,64.1l0.1,0l0.1,0l0.1,0.1l0.1,0.1l0.1,0.1
			l0.1,0.1l0.1,0.1l0.1,0.1l0,0.1l0,0.1l0,0.1v0.1l0,0.1l-0.1,0.2l0,0.1l-0.1,0.2l-0.1,0.1l-0.1,0.1l-0.1,0.1l-0.1,0.2l-0.1,0.1
			l-0.1,0.1l-0.1,0.1l-0.1,0.1l-0.1,0.1l-0.1,0l-0.1,0l-0.2,0l-0.1,0l-0.1,0l-0.1,0l-0.1,0l-0.1,0l-0.1-0.1l-0.1-0.1l-0.1-0.1
			l-0.1-0.2l-0.1-0.1l-0.1-0.2l0-0.1l0-0.1l0-0.1v-0.1l0-0.1l0-0.1l0-0.1l0.1-0.3l0.1-0.1l0.1-0.1l0.1-0.2l0.1-0.1l0.1-0.1l0.1-0.1
			l0.1-0.1l0.1-0.1l0.1,0l0.1,0l0.1,0l0.1,0l0.1,0h0.2L132.7,64.1z"/>
		<path class="st2" d="M140.1,70.1L140.1,70.1L140.1,70.1l0.2,0l0.1,0l0.1,0l0.1,0l0.1,0.1l0.1,0.1l0.1,0.1l0,0l0,0l0,0l-0.2,0.4
			l-0.2,0.3l-0.3,0.3l-0.3,0.3l-0.1,0.1l-0.5,0.3l-0.4,0.2l-0.2,0.1l-0.6,0.1l-0.1,0l-0.2,0h-0.2l-0.1,0l-0.1,0l-0.1,0l-0.1,0
			l-0.1-0.1l-0.1,0l-0.2-0.1l-0.1-0.1l-0.1-0.1l-0.1-0.1l-0.1-0.1l0-0.1l0-0.1l0-0.1l0-0.1l0-0.1l0-0.1l0.1-0.4l0-0.2l0.2-0.4
			l0.1-0.4l0.3-0.9l0-0.1v-0.1l0,0l0,0l0,0l-0.1,0h0l0,0h-0.1l-0.1,0l-0.1,0l-0.1,0l-0.1,0l0,0l-0.1,0l-0.1,0.1l0,0.1l-0.1,0.1
			l-0.7,2.3l-0.2,1l0,0l0,0l-0.1,0l0,0l0,0l-0.1,0l-0.1,0l-0.3,0.1l-0.2,0l-0.4,0h-0.1l-0.6-0.1l-0.1,0l-0.1,0l-0.1,0l0,0l0,0l0,0
			l-0.1,0l0,0l0-0.1v0l0.1-0.4l0.1-0.4l0.1-0.4l0.1-0.4l1-3l0.1-0.3l0-0.1l0,0l0.1,0l0,0l0.1,0l0.1,0l0.1,0l0.2,0l0.2,0l0.9,0l0.1,0
			l0.4,0.1l0.1,0l0.1,0.1l0.1,0.1v0l-0.1,0.1l0,0v0.1l0,0h0.1l0,0l0,0l0.3-0.2l0.2-0.1l0.2-0.1l0.2-0.1l0.1,0l0.1,0h0.2l0.2,0l0.1,0
			l0.1,0l0.1,0l0.1,0l0.1,0.1l0.1,0.1l0.1,0.1l0.1,0.1l0.1,0.1l0.1,0.1l0.1,0.2l0,0.1l0,0.1v0.2l-0.1,0.4l-0.5,1.8l0,0.2l0,0.1V71
			l0,0.1l0,0.1l0,0l0,0l0,0l0,0h0.1l0,0l0,0l0,0l0,0l0.1,0l0.1-0.1l0.3-0.2l0.2-0.2L140.1,70.1L140.1,70.1z"/>
		<path class="st2" d="M143.9,67.2l0.4,0.1l0.1,0l0.1,0.1l0.1,0.1l0.2,0.1l0.2,0.1l0.1,0.1l0.1,0.1l0.1,0.1l0.1,0.2l0,0.1v0.1
			l-0.1,0.7l0,0.1l0,0l0,0.1l0,0.1l0,0l-0.1,0.1l-0.1,0.1l-0.1,0.1l-0.2,0.1l-0.4,0.1l-0.2,0h-0.2l-0.2,0l-0.2-0.1l-0.1,0l-0.1,0
			l-0.1,0l-0.1-0.1l0,0l0,0l0,0v0l0,0l0-0.1l0.2-0.6v-0.1l0,0l0,0h-0.1l0,0h0l0,0l-0.1,0.1l-0.1,0.1l-0.1,0.1l-0.1,0.1l-0.1,0.1
			l-0.2,0.4l0,0.1l0,0.1l0,0.5v0.1l0,0.1l0,0.1l0.1,0.2l0,0.1l0.1,0.1l0.1,0.1l0.1,0.1l0.1,0.1l0.2,0.1l0.1,0l0.2,0.1l0.2,0l0.2,0
			l0.4-0.1l0.1,0l0.6-0.3l0.1-0.1l0.1-0.1l0.2-0.2l0.2-0.2l0.2-0.3l0,0h0l0,0l0,0h0.1l0,0h0l0.2,0.1l0.1,0l0.1,0.1l0,0.1l0,0l0,0
			v0.1l0,0l-0.5,0.6l-0.3,0.4l-0.2,0.2l-0.2,0.2l-0.2,0.1l-0.7,0.4l-0.4,0.1l-0.5,0.1l-1.2,0.1l-0.2,0l-0.1,0l-0.4-0.1l-0.4-0.2
			l-0.3-0.2l-0.2-0.1l-0.3-0.3l-0.1-0.1l-0.1-0.2l-0.1-0.2l0-0.1l0-0.2l0-0.2l0-0.3l0.1-0.4l0.1-0.4l0.1-0.2l0.2-0.4l0.2-0.4
			l0.1-0.2l0.1-0.2l0.1-0.1l0.1-0.1l0.7-0.4l0.4-0.1l0.8-0.1l0.4,0L143.9,67.2z"/>
		<path class="st2" d="M149.2,67.2l0.7,0.1l0.1,0l0.2,0.1l0.2,0.1l0.1,0.1l0.2,0.1l0.1,0.2l0.1,0.1l0.1,0.1l0.1,0.1l0.1,0.2l0,0.3
			l0,0.2l-0.1,0.2l-0.1,0.2l-0.1,0.2l-0.1,0.2l-0.1,0.1l-0.2,0.1l-0.3,0.2l-0.3,0.1l-0.2,0.1l-0.1,0l-1,0.1l-0.4,0h0l0,0l0,0l0,0
			l0,0l0,0.1l0,0.1l0.1,0.1l0.1,0.1l0.1,0.1l0.1,0l0.1,0.1l0.2,0.1l0.2,0.1l0.1,0l0.8-0.1l0.1,0l0.1,0l0.4-0.2l0.2-0.1l0.2-0.1
			l0.2-0.1l0.1-0.2l0.2-0.3l0,0l0,0l0.1,0h0.1l0.1,0l0,0l0.1,0l0.1,0.1l0.1,0.1l0,0.1v0.1l-0.5,0.7l-0.3,0.4l-0.3,0.3l-0.2,0.1
			l-0.7,0.4l-0.4,0.1l-0.9,0.1l-0.9,0l-0.1,0l-0.7-0.2l-0.1,0l-0.1-0.1l-0.2-0.1l-0.4-0.3l-0.1-0.1l-0.1-0.1l-0.1-0.1l-0.1-0.2
			l-0.1-0.2l-0.1-0.2l0-0.2v-0.4l0.1-0.7l0.1-0.4l0.2-0.4l0.1-0.2l0.1-0.2l0.1-0.2l0.3-0.3l0.2-0.1l0.1-0.1l0.4-0.2l0.6-0.2l0.1,0
			l0.9-0.1L149.2,67.2L149.2,67.2z M148.7,68.6L148.7,68.6l-0.2,0.1l-0.1,0.1l-0.1,0.1l-0.1,0.1l0,0.1l-0.1,0.4v0.1l0,0.1l0,0l0,0
			h0.1l0,0l0.1,0l0.2-0.1l0.1-0.1l0.1-0.1l0.1-0.1l0.1-0.1l0.2-0.3l0.1-0.1l0-0.1v0l0-0.1l0,0l0,0l-0.1-0.1l0,0l-0.1,0h-0.1
			L148.7,68.6z"/>
		<path class="st2" d="M156.6,64.2L156.6,64.2l0.1-0.1l0.1,0l0.1,0l0.2,0l0.2,0h0.5l0.2,0l0.4,0.1l0.1,0l0.1,0l0.1,0l0,0l0,0l0,0
			v0.1l-0.2,0.4l-0.1,0.4l-0.2,0.4l-0.4,1.3l-0.1,0.4l-0.3,0.8l-0.1,0.4l-0.2,0.9l-0.2,0.9l-0.1,0.4l-0.3,1.3l-0.1,0.1l-0.1,0.1
			l-0.1,0.1l-0.1,0.1l-0.2,0.1l-0.1,0l-0.1,0l-0.5,0.1h-0.4l-0.2,0l-0.2-0.1l-0.1,0l-0.1-0.1l-0.1-0.1l0-0.1v-0.1l0.1-0.4l0.9-3.3
			l0.4-0.8v-0.1l0,0l0,0h0l-0.1,0l-0.2,0.2l-0.1,0.1l-0.2,0.1l-0.2,0.1l-0.2,0.1l-0.1,0l-0.1,0l-0.1,0l-0.1,0l-0.2-0.1l-0.1-0.1
			l-0.2-0.2l-0.1-0.1l-0.1-0.1l-0.1-0.2l0-0.1l0-0.1l0-0.1l0.1-0.1l0.1-0.1l0.4-0.2l0.8-0.5l1.1-0.9l0.7-0.8L156.6,64.2L156.6,64.2z
			"/>
		<path class="st2" d="M163,64.1h0.1l0.1,0l0.4,0.1l0.1,0l0.2,0.1l0.2,0.1l0.2,0.1l0.2,0.1l0.1,0.1l0.1,0.1l0.1,0.1l0.1,0.2l0.1,0.1
			l0,0.1l0.2,0.6l0,0.1l0,0.2l0,0.2l0,0.1l-0.1,0.8l-0.1,0.9l-0.2,0.9l-0.3,0.8l-0.4,0.7l-0.2,0.4l-0.3,0.4l-0.1,0.2l-0.5,0.4
			l-0.1,0.1l-0.1,0.1l-0.1,0.1l-0.4,0.2l-0.2,0.1l-0.2,0.1l-0.2,0l-0.2,0l-0.2,0H161l-0.6-0.1l-0.2-0.1l-0.2-0.1l-0.1-0.1l-0.1-0.1
			l-0.1-0.1l-0.2-0.1l-0.1-0.1l-0.3-0.3l-0.1-0.1l-0.1-0.1l0-0.1l0-0.1l-0.1-0.3l0-0.1v-0.2l0-0.1l0.1-0.1l0.1-0.1l0.1-0.1l0.2-0.1
			l0.1,0l0.1,0l0.1,0l0.1,0l0.5,0l0.1,0l0.1,0l0.1,0l0.1,0.1l0.1,0.1l0,0.1l0,0.1l0,0.1l0,0.1l0,0.1L161,71l0.1,0.1l0.1,0.1l0.1,0
			l0.1,0l0.1,0l0.1-0.1l0.1-0.1l0.2-0.1l0.1-0.1l0.1-0.1l0.1-0.1l0.1-0.2l0.1-0.2l0.1-0.3l0-0.1l0-0.1l0-0.1l0,0l-0.1,0h-0.1l-0.1,0
			l-0.2,0.1l-0.1,0l-0.2,0l-0.1,0l-0.6-0.1l-0.1,0l-0.1,0l-0.2-0.1l-0.1-0.1l-0.2-0.1l-0.1-0.1l-0.2-0.2l-0.1-0.2l-0.1-0.1l-0.3-0.6
			l-0.1-0.2l-0.1-0.6v-0.2l0-0.2l0.1-0.4l0-0.1l0.1-0.3l0.1-0.2l0.2-0.4l0.4-0.5l0.1-0.1l0.1-0.1l0.5-0.4l0.1-0.1l0.7-0.3l0.1,0
			l0.2,0l0.2,0h0.1l0.3,0H163z M162.6,65.4L162.6,65.4l-0.1,0l0,0l-0.1,0l-0.1,0.1l-0.1,0.1l-0.1,0.1l-0.1,0.1l-0.1,0.1l-0.1,0.1
			l-0.3,0.6l0,0.1l0,0.1l-0.1,0.5l0,0.2v0.1l0,0.1l0.1,0.3l0,0.1l0,0.1l0.1,0.1l0.1,0.1l0.1,0.1l0.1,0.1l0.1,0h0.1l0.1,0l0.1,0
			l0.1-0.1l0.1-0.1l0.1-0.1l0.1-0.1l0.1-0.2l0.1-0.2l0-0.1l0.1-0.5l0.1-0.3v-0.2L163,66l0-0.1l0-0.1l0-0.1l-0.1-0.1l0-0.1l0,0
			l-0.1,0l0,0L162.6,65.4L162.6,65.4z"/>
		<path class="st2" d="M166.6,65.6l0-0.1l0-0.1l0.1-0.1l0.1-0.1l0.1-0.2l0.1-0.1l0.1-0.1l0.3-0.2l0.2-0.1l0.4-0.2l0.1-0.1l0.2-0.1
			l0.2-0.1l0.5-0.1h0.1l0.5,0l0.2,0l0.4,0.1l0.2,0.1l0.2,0.1l0.2,0.1l0.2,0.1l0.2,0.1l0.1,0.1l0.3,0.4l0.1,0.1l0,0.1l0,0.1l0.1,0.2
			l0,0.1v0.1l0,0.1l-0.1,0.4l0,0.1l-0.1,0.2l-0.1,0.1l-0.1,0.1l-0.1,0.1l-0.2,0.2l-0.2,0.2l-0.1,0.1l-0.1,0.1l-0.4,0.3l0,0l-0.1,0
			l0,0l0,0l0,0l0,0.1l0,0l0.2,0.2l0.4,0.4l0.1,0.1l0.1,0.1l0.1,0.1l0.1,0.2l0.1,0.2l0,0.1l0.1,0.3l0,0.1l0,0.1v0.3l0,0.1l0,0.1
			l-0.1,0.2l-0.2,0.4l-0.1,0.1l-0.1,0.1l-0.1,0.1l-0.3,0.3l-0.2,0.1l-0.1,0.1l-0.2,0.1l-0.2,0.1l-0.2,0.1l-0.2,0.1l-0.5,0.1
			l-0.2,0.1l-0.4,0.1h-0.1l-0.4,0l-0.7-0.1l-0.1,0l-0.1,0l-0.1,0l-0.4-0.2l-0.2-0.1l-0.1-0.1l-0.1-0.1l-0.3-0.3l-0.1-0.1l-0.1-0.1
			l-0.1-0.2l-0.1-0.2l-0.1-0.2l0-0.1l0-0.1l0-0.2l0-0.2l0-0.2l0-0.1l0-0.1l0.1-0.1l0-0.1l0.1-0.2l0.1-0.2l0.1-0.2l0.1-0.1l0.3-0.3
			l0.3-0.3L167,68l0.1-0.1l0-0.1v-0.1l0-0.1l0-0.1l-0.2-0.3l-0.3-0.4l0-0.1l0-0.1l0-0.1l0-0.1l0-0.1l0-0.1v-0.1l0-0.2l0-0.1
			L166.6,65.6z M168.9,68.9l-0.1-0.1l-0.1-0.1l-0.1,0l-0.1,0l-0.1,0.1l-0.1,0.1l-0.2,0.2l-0.1,0.2l-0.1,0.1l-0.1,0.2l-0.2,0.4l0,0.1
			l0,0.1l0,0.1l0,0.1v0.1l0,0.1l0,0.1l0.1,0.1l0.1,0.1l0.1,0.1l0.1,0.1l0.1,0.1l0.1,0h0.1l0.1,0l0.1,0l0.1,0l0.1-0.1l0.1-0.1
			l0.1-0.1l0.1-0.1l0.1-0.1l0-0.1l0-0.1l0-0.3V70l0-0.1l0-0.3l0-0.1l0-0.1l-0.1-0.2L168.9,68.9z M168.6,66.2v0.2l0,0.1l0.1,0.2
			l0.1,0.1l0.1,0.1l0.1,0.1h0.1l0.1,0l0.1-0.1l0.1-0.1l0.1-0.1l0.1-0.1l0.1-0.1l0.1-0.1l0.1-0.1l0-0.1l0-0.1v-0.1l0-0.1l-0.1-0.1
			l-0.1-0.1l-0.1-0.1l-0.1,0l-0.1,0l-0.1,0l-0.1,0.1l-0.1,0.1l-0.1,0.1l0,0.1l0,0.1L168.6,66.2z"/>
		<path class="st2" d="M176,64.1l0.4,0.1l0.1,0l0.1,0l0.3,0.1l0.2,0.1l0.2,0.1l0.2,0.1l0.1,0.1l0.1,0.1l0.1,0.1l0.1,0.1l0.1,0.2
			l0.1,0.2l0.1,0.2l0,0.2l0,0.1V66l0,0.1l0,0l0,0.1l0,0l-0.1,0l-0.1,0.1l-0.1,0l-0.1,0l-0.1,0l-0.2,0l-0.2,0h-0.2l-0.4-0.1l-0.1,0
			l-0.1,0l-0.1-0.1l0,0l0,0l-0.1-0.5l0-0.1l-0.1-0.1l-0.1-0.1l-0.1,0h-0.2l0,0l-0.1,0l0,0l-0.1,0.1l-0.1,0.1l-0.1,0.1l-0.1,0.1
			l-0.2,0.3l-0.1,0.2l-0.2,0.4l-0.1,0.1l0,0.1l0,0.1v0l0,0.1l0.1,0l0.1,0h0.1l0.3-0.1l0.1,0l0.6,0l0.1,0l0.1,0L176,67l0.2,0.1
			l0.1,0.1l0.1,0.1l0.1,0.1l0.1,0.1l0.1,0.1l0.3,0.3l0.1,0.1l0.1,0.1l0.1,0.1l0.1,0.1l0.1,0.2l0,0.1l0.1,0.7v0.1l0,0.2l0,0.2l0,0.1
			l-0.2,0.7L177,71l-0.1,0.2l-0.1,0.2l-0.3,0.4l-0.1,0.1l-0.2,0.1l-0.2,0.1l-0.1,0.1l-0.4,0.2l-0.2,0.1l-0.2,0.1l-0.2,0l-0.5,0.1
			h-0.2l-0.5-0.1l-0.2-0.1l-0.1,0l-0.1,0l-0.4-0.2l-0.1-0.1l-0.1-0.1l-0.1-0.1l-0.1-0.1l-0.2-0.3l-0.1-0.1l-0.1-0.1l-0.2-0.4l0-0.1
			l0-0.1l-0.1-0.7l0-0.2l0.1-1.1l0-0.2l0.2-0.9l0.1-0.3l0.1-0.3l0-0.1l0.4-0.8l0.4-0.8l0.3-0.3l0.1-0.2l0.2-0.1l0.1-0.1l0.6-0.3
			l0.4-0.2l0.1,0l0.2-0.1l0.2-0.1h0.4L176,64.1z M174.8,68.3l-0.1,0l-0.1,0.1l-0.1,0.1l-0.1,0.1l-0.1,0.2l-0.1,0.1l-0.1,0.1
			l-0.1,0.2l-0.1,0.4l0,0.1l0,0.3v0.4l0,0.2l0,0.1l0,0.1l0,0.1l0.1,0.1l0.1,0.1l0.1,0.1l0.1,0l0.1,0l0.1,0l0.1-0.1l0.1-0.1l0.1-0.1
			l0.1-0.1l0.1-0.1l0.2-0.5l0-0.1l0.1-0.6l0-0.5v-0.1l-0.1-0.2l-0.1-0.1l-0.1-0.1l-0.1-0.1l-0.1,0H174.8z"/>
	</g>
	<g>
		<g>
			<path class="st3" d="M190.6,82.2c-0.1-0.4-0.4-0.6-0.7-0.6h-22c-0.4,0-0.7,0.3-0.9,0.6l-18.9,46.9c-0.1,0.3-0.3,0.3-0.5,0
				l-17.8-46.9c-0.1-0.3-0.5-0.6-0.9-0.6h-21.8c-0.4,0-0.7,0.3-0.8,0.6c0,0-3.1,15.9-3.6,21.5c-0.3,3.3-1.7,11.7-2,11.6
				c-0.3-0.1-0.5-0.2-0.8-0.3c-1.3-0.4-2.6-0.6-3.8,0.9c-1.3,1.6-1.7,3.4-1.5,5.5c0.7,6,1.3,12,2,18.1c0.2,1.5,0.3,2.9,0.5,4.4
				c0.9,8.2,1.8,16.4,2.7,24.5c0.1,0.6,0,1.4,0.3,1.8c0.4,0.6,0.9,1.4,1.5,1.4c0.4,0,1.3-1.1,1.4-1.8c1-4.3,1.8-8.7,2.7-13.1
				c1.2-6.3,2.4-12.6,3.6-19c0.3-1.4,0.8-2,1.8-1.6c1.2,0.4,2.4,0.8,3.6,1.1c2.5,0.7,4.4-0.8,5.1-4.3c0.3-1.7,0.7-3.4,1-5.1
				c0.5-2.6,1.4-7.2,1.4-7.2c0.1-0.3,0.2-0.4,0.4,0l20.1,50.4c0.1,0.3,0.5,0.6,0.9,0.6h8c0.4,0,0.8-0.3,0.9-0.6l21.1-50.6
				c0.1-0.3,0.3-0.6,0.4-0.6c0.1,0,0.2,0.3,0.2,0.6l6.4,50.5c0,0.4,0.4,0.6,0.7,0.6h22.1c0.4,0,0.6-0.3,0.5-0.6L190.6,82.2z"/>
		</g>
		<g>
			<path class="st3" d="M206.1,160.9c0-0.1-0.1-0.2-0.2-0.2h-30.7c-0.1,0-0.2,0.1-0.2,0.2l1.2,10.5c0,0.1,0.1,0.2,0.2,0.2h30.7
				c0.1,0,0.2-0.1,0.2-0.2L206.1,160.9z"/>
		</g>
		<g class="st4">
			<path class="st2" d="M202.8,163.7c0-0.1-0.1-0.2-0.2-0.2h-2.9c-0.1,0-0.2-0.1-0.2-0.2L189,92.4c0-0.1-0.1-0.2-0.2-0.2h-5.9
				c-0.1,0-0.2,0.1-0.2,0.2l10.5,70.9c0,0.1,0,0.2,0,0.2c0,0,0,0.1,0,0.2l0.4,4.2c0,0.1,0.1,0.2,0.2,0.2h9.2c0.1,0,0.2-0.1,0.2-0.2
				L202.8,163.7z"/>
		</g>
	</g>
</g>
</svg>
