<?xml version="1.0" encoding="utf-8"?>
<!-- Generator: Adobe Illustrator 22.1.0, SVG Export Plug-In . SVG Version: 6.00 Build 0)  -->
<svg version="1.1" id="Layer_1" xmlns="http://www.w3.org/2000/svg" xmlns:xlink="http://www.w3.org/1999/xlink" x="0px" y="0px"
	 viewBox="0 0 300 250" style="enable-background:new 0 0 300 250;" xml:space="preserve">
<style type="text/css">
	.st0{fill:#809694;}
	.st1{fill:#022C34;}
	.st2{fill:#6E72B4;}
	.st3{fill:#CB4D28;}
	.st4{fill:#DD342E;}
	.st5{fill:#849B3B;}
	.st6{fill:#B58B2E;}
	.st7{fill:#2A88C9;}
</style>
<rect class="st0" width="300" height="250"/>
<g>
	<circle class="st1" cx="230.4" cy="126" r="33.9"/>
	<path class="st0" d="M235.6,139.9h-21.8c-1.5,0-2.6,1.2-2.6,2.6c0,1.5,1.2,2.6,2.6,2.6h21.8c1.5,0,2.6-1.2,2.6-2.6
		C238.3,141.1,237.1,139.9,235.6,139.9z"/>
	<path class="st0" d="M213.8,136.9h6.2c1.5,0,2.6-1.2,2.6-2.6c0-1.5-1.2-2.6-2.6-2.6h-6.2c-1.5,0-2.6,1.2-2.6,2.6
		C211.1,135.7,212.3,136.9,213.8,136.9z"/>
	<path class="st0" d="M213.8,128.6h8.8c1.5,0,2.6-1.2,2.6-2.6c0-1.5-1.2-2.6-2.6-2.6h-8.8c-1.5,0-2.6,1.2-2.6,2.6
		C211.1,127.5,212.3,128.6,213.8,128.6z"/>
	<path class="st0" d="M213.8,120.4h4.5c1.5,0,2.6-1.2,2.6-2.6c0-1.5-1.2-2.6-2.6-2.6h-4.5c-1.5,0-2.6,1.2-2.6,2.6
		C211.1,119.2,212.3,120.4,213.8,120.4z"/>
	<path class="st0" d="M213.8,112.1c1.5,0,2.6-1.2,2.6-2.6c0-1.5-1.2-2.6-2.6-2.6s-2.6,1.2-2.6,2.6
		C211.1,110.9,212.3,112.1,213.8,112.1z"/>
	<path class="st2" d="M246.9,139.9h-3.6c-1.5,0-2.6,1.2-2.6,2.6c0,1.5,1.2,2.6,2.6,2.6h3.6c1.5,0,2.6-1.2,2.6-2.6
		C249.6,141.1,248.4,139.9,246.9,139.9z"/>
	<path class="st3" d="M246.9,131.6C246.9,131.6,246.9,131.6,246.9,131.6L246.9,131.6h-5.8h-0.4h-13.1c-1.5,0-2.6,1.2-2.6,2.6
		c0,1.5,1.2,2.6,2.6,2.6h13.1h0.4h5.7v0c0,0,0.1,0,0.1,0c1.5,0,2.6-1.2,2.6-2.6C249.6,132.8,248.4,131.6,246.9,131.6z"/>
	<path class="st4" d="M246.9,115.1C246.9,115.1,246.9,115.1,246.9,115.1L246.9,115.1h-4.6c-1.5,0-2.6,1.2-2.6,2.6
		c0,1.5,1.2,2.6,2.6,2.6h4.6v0c0,0,0.1,0,0.1,0c1.5,0,2.6-1.2,2.6-2.6C249.6,116.3,248.4,115.1,246.9,115.1z"/>
	<path class="st5" d="M246.9,112.1c1.5,0,2.6-1.2,2.6-2.6c0-1.5-1.2-2.6-2.6-2.6s-2.6,1.2-2.6,2.6
		C244.3,110.9,245.5,112.1,246.9,112.1z"/>
	<path class="st6" d="M230.3,128.6c1.5,0,2.6-1.2,2.6-2.6c0-1.5-1.2-2.6-2.6-2.6c-1.5,0-2.6,1.2-2.6,2.6
		C227.7,127.5,228.8,128.6,230.3,128.6z"/>
	<path class="st7" d="M238,128.6h8.8c1.5,0,2.6-1.2,2.6-2.6c0-1.5-1.2-2.6-2.6-2.6H238c-1.5,0-2.6,1.2-2.6,2.6
		C235.3,127.5,236.5,128.6,238,128.6z"/>
</g>
<g>
	<circle class="st1" cx="142.6" cy="126" r="33.9"/>
	<path class="st0" d="M147.9,139.9h-21.8c-1.5,0-2.6,1.2-2.6,2.6c0,1.5,1.2,2.6,2.6,2.6h21.8c1.5,0,2.6-1.2,2.6-2.6
		C150.5,141.1,149.4,139.9,147.9,139.9z"/>
	<path class="st0" d="M126.1,136.9h6.2c1.5,0,2.6-1.2,2.6-2.6c0-1.5-1.2-2.6-2.6-2.6h-6.2c-1.5,0-2.6,1.2-2.6,2.6
		C123.4,135.7,124.6,136.9,126.1,136.9z"/>
	<path class="st0" d="M126.1,128.6h8.8c1.5,0,2.6-1.2,2.6-2.6c0-1.5-1.2-2.6-2.6-2.6h-8.8c-1.5,0-2.6,1.2-2.6,2.6
		C123.4,127.5,124.6,128.6,126.1,128.6z"/>
	<path class="st0" d="M126.1,120.4h4.5c1.5,0,2.6-1.2,2.6-2.6c0-1.5-1.2-2.6-2.6-2.6h-4.5c-1.5,0-2.6,1.2-2.6,2.6
		C123.4,119.2,124.6,120.4,126.1,120.4z"/>
	<path class="st0" d="M126.1,112.1c1.5,0,2.6-1.2,2.6-2.6c0-1.5-1.2-2.6-2.6-2.6c-1.5,0-2.6,1.2-2.6,2.6
		C123.4,110.9,124.6,112.1,126.1,112.1z"/>
	<path class="st3" d="M159.2,139.9h-3.6c-1.5,0-2.6,1.2-2.6,2.6c0,1.5,1.2,2.6,2.6,2.6h3.6c1.5,0,2.6-1.2,2.6-2.6
		C161.9,141.1,160.7,139.9,159.2,139.9z"/>
	<path class="st3" d="M159.2,131.6C159.2,131.6,159.1,131.6,159.2,131.6L159.2,131.6h-5.8h-0.4h-13.1c-1.5,0-2.6,1.2-2.6,2.6
		c0,1.5,1.2,2.6,2.6,2.6h13.1h0.4h5.7v0c0,0,0.1,0,0.1,0c1.5,0,2.6-1.2,2.6-2.6C161.9,132.8,160.7,131.6,159.2,131.6z"/>
	<path class="st3" d="M159.2,115.1C159.2,115.1,159.1,115.1,159.2,115.1L159.2,115.1h-4.6c-1.5,0-2.6,1.2-2.6,2.6
		c0,1.5,1.2,2.6,2.6,2.6h4.6v0c0,0,0.1,0,0.1,0c1.5,0,2.6-1.2,2.6-2.6C161.9,116.3,160.7,115.1,159.2,115.1z"/>
	<path class="st3" d="M159.2,112.1c1.5,0,2.6-1.2,2.6-2.6c0-1.5-1.2-2.6-2.6-2.6c-1.5,0-2.6,1.2-2.6,2.6
		C156.6,110.9,157.7,112.1,159.2,112.1z"/>
	<path class="st3" d="M142.6,128.6c1.5,0,2.6-1.2,2.6-2.6c0-1.5-1.2-2.6-2.6-2.6s-2.6,1.2-2.6,2.6
		C139.9,127.5,141.1,128.6,142.6,128.6z"/>
	<path class="st3" d="M150.3,128.6h8.8c1.5,0,2.6-1.2,2.6-2.6c0-1.5-1.2-2.6-2.6-2.6h-8.8c-1.5,0-2.6,1.2-2.6,2.6
		C147.6,127.5,148.8,128.6,150.3,128.6z"/>
</g>
<g>
	<path class="st1" d="M60.2,139.9H38.4c-1.5,0-2.6,1.2-2.6,2.6c0,1.5,1.2,2.6,2.6,2.6h21.8c1.5,0,2.6-1.2,2.6-2.6
		C62.8,141.1,61.6,139.9,60.2,139.9z"/>
	<path class="st1" d="M38.4,136.9h6.2c1.5,0,2.6-1.2,2.6-2.6c0-1.5-1.2-2.6-2.6-2.6h-6.2c-1.5,0-2.6,1.2-2.6,2.6
		C35.7,135.7,36.9,136.9,38.4,136.9z"/>
	<path class="st1" d="M38.4,128.6h8.8c1.5,0,2.6-1.2,2.6-2.6c0-1.5-1.2-2.6-2.6-2.6h-8.8c-1.5,0-2.6,1.2-2.6,2.6
		C35.7,127.5,36.9,128.6,38.4,128.6z"/>
	<path class="st1" d="M38.4,120.4h4.5c1.5,0,2.6-1.2,2.6-2.6c0-1.5-1.2-2.6-2.6-2.6h-4.5c-1.5,0-2.6,1.2-2.6,2.6
		C35.7,119.2,36.9,120.4,38.4,120.4z"/>
	<path class="st1" d="M38.4,112.1c1.5,0,2.6-1.2,2.6-2.6c0-1.5-1.2-2.6-2.6-2.6c-1.5,0-2.6,1.2-2.6,2.6
		C35.7,110.9,36.9,112.1,38.4,112.1z"/>
	<path class="st1" d="M71.5,139.9h-3.6c-1.5,0-2.6,1.2-2.6,2.6c0,1.5,1.2,2.6,2.6,2.6h3.6c1.5,0,2.6-1.2,2.6-2.6
		C74.1,141.1,73,139.9,71.5,139.9z"/>
	<path class="st1" d="M71.5,131.6C71.5,131.6,71.4,131.6,71.5,131.6L71.5,131.6h-5.8h-0.4H52.1c-1.5,0-2.6,1.2-2.6,2.6
		c0,1.5,1.2,2.6,2.6,2.6h13.1h0.4h5.7v0c0,0,0.1,0,0.1,0c1.5,0,2.6-1.2,2.6-2.6C74.1,132.8,73,131.6,71.5,131.6z"/>
	<path class="st1" d="M71.5,115.1C71.5,115.1,71.4,115.1,71.5,115.1L71.5,115.1h-4.6c-1.5,0-2.6,1.2-2.6,2.6c0,1.5,1.2,2.6,2.6,2.6
		h4.6v0c0,0,0.1,0,0.1,0c1.5,0,2.6-1.2,2.6-2.6C74.1,116.3,73,115.1,71.5,115.1z"/>
	<path class="st1" d="M71.5,112.1c1.5,0,2.6-1.2,2.6-2.6c0-1.5-1.2-2.6-2.6-2.6c-1.5,0-2.6,1.2-2.6,2.6
		C68.8,110.9,70,112.1,71.5,112.1z"/>
	<path class="st1" d="M54.9,128.6c1.5,0,2.6-1.2,2.6-2.6c0-1.5-1.2-2.6-2.6-2.6s-2.6,1.2-2.6,2.6C52.2,127.5,53.4,128.6,54.9,128.6z
		"/>
	<path class="st1" d="M62.6,128.6h8.8c1.5,0,2.6-1.2,2.6-2.6c0-1.5-1.2-2.6-2.6-2.6h-8.8c-1.5,0-2.6,1.2-2.6,2.6
		C59.9,127.5,61.1,128.6,62.6,128.6z"/>
</g>
</svg>
