<?xml version="1.0" encoding="utf-8"?>
<!-- Generator: Adobe Illustrator 21.0.2, SVG Export Plug-In . SVG Version: 6.00 Build 0)  -->
<svg version="1.1" id="Layer_1" xmlns="http://www.w3.org/2000/svg" xmlns:xlink="http://www.w3.org/1999/xlink" x="0px" y="0px"
	 viewBox="0 0 492 169.3" style="enable-background:new 0 0 492 169.3;" xml:space="preserve">
<style type="text/css">
	.st0{fill:#DC6630;}
</style>
<g>
	<g>
		<path class="st0" d="M67.4,53.6h-5v18.3h5c1.4,0,2.3-1,2.3-2.3V55.9C69.7,54.5,68.7,53.6,67.4,53.6z"/>
	</g>
	<g>
		<path class="st0" d="M62.7,0C28.1,0,0,28.1,0,62.7c0,34.6,28.1,62.7,62.7,62.7c34.6,0,62.7-28.1,62.7-62.7
			C125.5,28.1,97.4,0,62.7,0z M47.3,78.8h-7.8V60.3l-5.4,12.8h-3.2l-5.5-12.4v18.2h-7.6V46.6h8.4l6.5,15l6-15h8.8V78.8z M77.9,72.2
			c0,3.7-3,6.6-6.5,6.6H54.1V46.6h17.3c3.5,0,6.5,2.9,6.5,6.5V72.2z M99,53.6H93c-0.3,0-0.5,0.2-0.5,0.5v17.3c0,0.3,0.2,0.5,0.5,0.5
			H99c0.2,0,0.4-0.2,0.4-0.5v-4.6h8.3v8.3c0,2.1-1.7,3.7-3.8,3.7H87.8c-2.1,0-3.7-1.6-3.7-3.7V50.3c0-2,1.6-3.6,3.7-3.6H104
			c2,0,3.8,1.7,3.8,3.6v8.3h-8.3v-4.5C99.4,53.8,99.2,53.6,99,53.6z"/>
	</g>
</g>
<g>
	<g>
		<path d="M156.9,26.7v34.8h-14.6V0h16l12.4,28.7L182.2,0h16.8v61.5H184V26l-10.4,24.4h-6.2L156.9,26.7z"/>
	</g>
	<g>
		<path d="M261.5,61.5h-15.8V46.2h-13.9v15.3h-15.8V7.2c0-4.3,2.9-7.2,7.2-7.2h31.2c4.3,0,7.2,2.9,7.2,7.2V61.5z M245.6,32.9V14.4
			c0-1.1-0.9-1.8-2.2-1.8h-9.8c-1.1,0-1.9,0.8-1.9,1.8v18.5H245.6z"/>
	</g>
	<g>
		<path d="M316.4,0v13.3h-13.9v48.2h-15.8V13.3h-13.9V0H316.4z"/>
	</g>
	<g>
		<path d="M342.7,27.7v33.8h-14.6V0h14.6l18.4,33.9V0h14.6v61.5h-15L342.7,27.7z"/>
	</g>
	<g>
		<path d="M393.1,0h40.1v13.2h-24.4v10.7H430v13.1h-21.1v11.1h24.4v13.3h-40.1V0z"/>
	</g>
	<g>
		<path d="M461.2,61.5v-18H453c-3.7,0-6.9-3.3-6.9-7.3V0h15.8v28.3c0,0.5,0.5,0.9,1,0.9h12.7c0.5,0,0.6-0.5,0.6-0.9V0H492v36.1
			c0,4-3.2,7.3-6.9,7.3H477v18H461.2z"/>
	</g>
</g>
<g>
	<path d="M170.3,73.5c5.7,0,10.6,4.7,10.6,10.6v30.8c0,5.9-4.9,10.6-10.6,10.6h-28v-52H170.3z M167.6,88.4c0-2.2-1.5-3.8-3.8-3.8h-8
		v29.6h8c2.2,0,3.8-1.5,3.8-3.8V88.4z"/>
</g>
<g>
	<path d="M195.2,73.5h34v11.2h-20.6v9.1h17.9v11.1h-17.9v9.4h20.6v11.2h-34V73.5z"/>
</g>
<g>
	<path d="M241,114.2h19.5c0.5,0,0.8-0.3,0.8-0.7V106c0-0.4-0.3-0.7-0.8-0.7h-13.4c-3.6,0-6.1-2.5-6.1-6.1V79.6
		c0-3.6,2.5-6.1,6.1-6.1H274v11.2h-18.8c-0.5,0-0.8,0.4-0.8,0.8v7.6c0,0.3,0.3,0.7,0.8,0.7h13.4c3.6,0,6.1,2.5,6.1,6.1v19.5
		c0,3.6-2.5,6.1-6.1,6.1H241V114.2z"/>
</g>
<g>
	<path d="M301.4,125.5h-13.3v-52h13.3V125.5z"/>
</g>
<g>
	<path d="M334.4,93.6H358v11h-4.3v14.9c0,3.4-2.6,5.9-5.9,5.9h-26c-3.3,0-6-2.5-6-5.9V79.3c0-3.2,2.7-5.9,6-5.9h32.2v11.2h-24.1
		c-0.4,0-0.8,0.4-0.8,0.8v27.9c0,0.5,0.4,0.8,0.8,0.8h10.8c0.5,0,0.8-0.3,0.8-0.8v-8.8h-7V93.6z"/>
</g>
<g>
	<path d="M382.7,96.9v28.6h-12.3v-52h12.3l15.6,28.7V73.5h12.3v52h-12.7L382.7,96.9z"/>
</g>
<g>
	<path d="M454.5,95.4v9.6c0,2.2-1.9,3.9-4.2,3.9h-20.6c-2.2,0-4-1.7-4-3.9V77.5c0-1.9,1.9-3.8,4-3.8h20.6c2.2,0,4.2,1.9,4.2,3.8V87
		h-10v-4c0-0.3-0.2-0.6-0.5-0.6h-7.6c-0.3,0-0.6,0.3-0.6,0.6v16.4c0,0.3,0.3,0.5,0.6,0.5h7.6c0.2,0,0.5,0.2,0.5-0.2v-4.5H454.5z
		 M492,116.2v9.2h-66.3v-9.2H492z M487.7,73.5c2.6,0,4.3,1.8,4.3,4.4v26.9c0,2.7-1.7,4.4-4.3,4.4h-20.6c-2.5,0-4.3-1.7-4.3-4.4V77.9
		c0-2.6,1.8-4.4,4.3-4.4H487.7z M482,83c0-0.3-0.2-0.5-0.6-0.5h-8.1c-0.2,0-0.5,0.2-0.5,0.5v16.8c0,0.3,0.3,0.5,0.5,0.5h8.1
		c0.4,0,0.6-0.2,0.6-0.5V83z"/>
</g>
<g>
	<path class="st0" d="M34,140.5l-5.4,28.8h-6.5l-4.4-16l-4.6,16H6.7l-5.5-28.8h7.2l2.5,18.1l3.9-18.1H21l3.7,17.5l2.7-17.5H34z"/>
	<path class="st0" d="M39.4,140.5h18.8v6.2H46.8v5h9.9v6.1h-9.9v5.2h11.4v6.2H39.4V140.5z"/>
	<path class="st0" d="M65.3,169.3v-28.8h17.7c2.3,0,3.8,1.5,3.8,3.6v6.4c0,2-1.3,3.8-3.9,4.5c2.6,0.6,4.1,2.4,4.1,4.3v6.3
		c0,2.3-1.5,3.7-3.8,3.7H65.3z M79.8,146.7c0-0.2-0.1-0.5-0.4-0.5h-6.6v6h6.6c0.3,0,0.4-0.2,0.4-0.5V146.7z M79.8,158
		c0-0.2-0.1-0.5-0.4-0.5h-6.6v6.3h6.6c0.3,0,0.4-0.2,0.4-0.4V158z"/>
	<path class="st0" d="M104.7,143.9c0-2,1.4-3.4,3.4-3.4h14c2,0,3.4,1.4,3.4,3.4v5.7h-7.1v-2.3c0-0.5-0.3-0.7-0.7-0.7h-5.2
		c-0.5,0-0.7,0.3-0.7,0.7v4.2c0,0.5,0.3,0.7,0.7,0.7h15.8v5.2h-2.6v8.5c0,2-1.4,3.4-3.4,3.4h-14.2c-2,0-3.4-1.4-3.4-3.4v-6.7
		c0-2.3,1.4-4.1,3.8-4.2c-2.3-0.1-3.8-1.8-3.8-4.1V143.9z M111.8,162.4c0,0.5,0.3,0.7,0.7,0.7h5.4c0.5,0,0.7-0.3,0.7-0.7v-5h-6.1
		c-0.5,0-0.7,0.3-0.7,0.7V162.4z"/>
	<path class="st0" d="M154.3,151.6h13v6.1h-2.4v8.3c0,1.9-1.4,3.3-3.3,3.3h-14.4c-1.8,0-3.3-1.4-3.3-3.3v-22.2
		c0-1.7,1.5-3.2,3.3-3.2H165v6.2h-13.3c-0.2,0-0.4,0.2-0.4,0.5v15.4c0,0.3,0.2,0.4,0.4,0.4h6c0.3,0,0.5-0.2,0.5-0.4v-4.9h-3.9V151.6
		z"/>
	<path class="st0" d="M192.2,140.5c1.7,0,3.2,1.4,3.2,3.2v13.2c0,1.7-1.5,3.2-3.2,3.2H192l3.5,9.1h-7.2l-3.6-9.1h-3.2v9.1h-7.4
		v-28.8H192.2z M188.1,147.1c0-0.2-0.2-0.4-0.4-0.4h-6.1v7.7h6.1c0.2,0,0.4-0.2,0.4-0.4V147.1z"/>
	<path class="st0" d="M224.2,169.3h-7.4v-7.2h-6.5v7.2h-7.4v-25.4c0-2,1.4-3.4,3.4-3.4h14.6c2,0,3.4,1.4,3.4,3.4V169.3z
		 M216.8,155.9v-8.6c0-0.5-0.4-0.9-1-0.9h-4.6c-0.5,0-0.9,0.4-0.9,0.9v8.6H216.8z"/>
	<path class="st0" d="M249.7,140.5c1.7,0,3.2,1.4,3.2,3.2v14.8c0,1.7-1.5,3.2-3.2,3.2h-10.2v7.5h-7.4v-28.8H249.7z M245.1,155.7
		c0.2,0,0.4-0.2,0.4-0.4v-8.2c0-0.2-0.2-0.4-0.4-0.4h-5.6v9H245.1z"/>
	<path class="st0" d="M281.7,169.3h-7.4v-11.4h-7v11.4h-7.4v-28.8h7.4v11h7v-11h7.4V169.3z"/>
	<path class="st0" d="M297.3,169.3h-7.4v-28.8h7.4V169.3z"/>
	<path class="st0" d="M326.3,158.5v7.5c0,1.9-1.5,3.3-3.4,3.3h-14.4c-1.8,0-3.3-1.4-3.3-3.3v-22.2c0-1.7,1.4-3.2,3.3-3.2h14.4
		c1.8,0,3.4,1.5,3.4,3.2v7.4h-7.4v-4c0-0.3-0.2-0.5-0.4-0.5h-5.4c-0.3,0-0.5,0.2-0.5,0.5v15.5c0,0.3,0.2,0.4,0.5,0.4h5.4
		c0.2,0,0.4-0.2,0.4-0.4v-4.1H326.3z"/>
	<path class="st0" d="M359.1,140.5c3.2,0,5.8,2.6,5.8,5.8v17c0,3.3-2.7,5.9-5.8,5.9h-15.5v-28.8H359.1z M357.6,148.8
		c0-1.2-0.9-2.1-2.1-2.1h-4.4v16.4h4.4c1.2,0,2.1-0.9,2.1-2.1V148.8z"/>
	<path class="st0" d="M372.9,140.5h18.8v6.2h-11.4v5h9.9v6.1h-9.9v5.2h11.4v6.2h-18.8V140.5z"/>
	<path class="st0" d="M398.2,163.1H409c0.3,0,0.5-0.2,0.5-0.4v-4.2c0-0.2-0.2-0.4-0.5-0.4h-7.4c-2,0-3.4-1.4-3.4-3.4v-10.9
		c0-2,1.4-3.4,3.4-3.4h14.9v6.2h-10.4c-0.3,0-0.4,0.2-0.4,0.5v4.2c0,0.2,0.2,0.4,0.4,0.4h7.4c2,0,3.4,1.4,3.4,3.4v10.8
		c0,2-1.4,3.4-3.4,3.4h-15.2V163.1z"/>
	<path class="st0" d="M431.6,169.3h-7.4v-28.8h7.4V169.3z"/>
	<path class="st0" d="M449.9,151.6h13v6.1h-2.4v8.3c0,1.9-1.4,3.3-3.3,3.3h-14.4c-1.8,0-3.3-1.4-3.3-3.3v-22.2
		c0-1.7,1.5-3.2,3.3-3.2h17.8v6.2h-13.3c-0.2,0-0.4,0.2-0.4,0.5v15.4c0,0.3,0.2,0.4,0.4,0.4h6c0.3,0,0.5-0.2,0.5-0.4v-4.9h-3.9
		V151.6z"/>
	<path class="st0" d="M476.6,153.5v15.8h-6.8v-28.8h6.8l8.6,15.8v-15.8h6.8v28.8h-7L476.6,153.5z"/>
</g>
</svg>
