<?xml version="1.0" encoding="utf-8"?>
<!-- Generator: Adobe Illustrator 22.1.0, SVG Export Plug-In . SVG Version: 6.00 Build 0)  -->
<svg version="1.1" id="Layer_1" xmlns="http://www.w3.org/2000/svg" xmlns:xlink="http://www.w3.org/1999/xlink" x="0px" y="0px"
	 viewBox="0 0 60 60" style="enable-background:new 0 0 60 60;" xml:space="preserve">
<style type="text/css">
	.st0{fill:#032C34;}
	.st1{fill:#819795;}
	.st2{fill:#CC4D27;}
</style>
<g>
	<circle class="st0" cx="30" cy="30" r="30"/>
	<path class="st1" d="M34.6,42.3H15.4c-1.3,0-2.3,1-2.3,2.3c0,1.3,1,2.3,2.3,2.3h19.3c1.3,0,2.3-1,2.3-2.3
		C37,43.3,35.9,42.3,34.6,42.3z"/>
	<path class="st1" d="M15.4,39.6h5.5c1.3,0,2.3-1,2.3-2.3c0-1.3-1-2.3-2.3-2.3h-5.5c-1.3,0-2.3,1-2.3,2.3
		C13,38.6,14.1,39.6,15.4,39.6z"/>
	<path class="st1" d="M15.4,32.3h7.8c1.3,0,2.3-1,2.3-2.3c0-1.3-1-2.3-2.3-2.3h-7.8c-1.3,0-2.3,1-2.3,2.3
		C13,31.3,14.1,32.3,15.4,32.3z"/>
	<path class="st1" d="M15.4,25h4c1.3,0,2.3-1,2.3-2.3c0-1.3-1-2.3-2.3-2.3h-4c-1.3,0-2.3,1-2.3,2.3C13,24,14.1,25,15.4,25z"/>
	<path class="st1" d="M15.4,17.7c1.3,0,2.3-1,2.3-2.3c0-1.3-1-2.3-2.3-2.3s-2.3,1-2.3,2.3C13,16.7,14.1,17.7,15.4,17.7z"/>
	<path class="st2" d="M44.6,42.3h-3.2c-1.3,0-2.3,1-2.3,2.3c0,1.3,1,2.3,2.3,2.3h3.2c1.3,0,2.3-1,2.3-2.3
		C47,43.3,45.9,42.3,44.6,42.3z"/>
	<path class="st2" d="M44.6,35C44.6,35,44.6,35,44.6,35L44.6,35h-5.2h-0.4H27.5c-1.3,0-2.3,1-2.3,2.3c0,1.3,1,2.3,2.3,2.3h11.6h0.4
		h5.1v0c0,0,0.1,0,0.1,0c1.3,0,2.3-1,2.3-2.3C47,36,45.9,35,44.6,35z"/>
	<path class="st2" d="M44.6,20.4C44.6,20.4,44.6,20.4,44.6,20.4L44.6,20.4h-4.1c-1.3,0-2.3,1-2.3,2.3c0,1.3,1,2.3,2.3,2.3h4v0
		c0,0,0.1,0,0.1,0c1.3,0,2.3-1,2.3-2.3C47,21.4,45.9,20.4,44.6,20.4z"/>
	<path class="st2" d="M44.6,17.7c1.3,0,2.3-1,2.3-2.3c0-1.3-1-2.3-2.3-2.3c-1.3,0-2.3,1-2.3,2.3C42.3,16.7,43.4,17.7,44.6,17.7z"/>
	<path class="st2" d="M30,32.3c1.3,0,2.3-1,2.3-2.3c0-1.3-1-2.3-2.3-2.3s-2.3,1-2.3,2.3C27.6,31.3,28.7,32.3,30,32.3z"/>
	<path class="st2" d="M36.8,32.3h7.8c1.3,0,2.3-1,2.3-2.3c0-1.3-1-2.3-2.3-2.3h-7.8c-1.3,0-2.3,1-2.3,2.3
		C34.4,31.3,35.5,32.3,36.8,32.3z"/>
</g>
</svg>
