<?xml version="1.0" encoding="utf-8"?>
<!-- Generator: Adobe Illustrator 22.0.1, SVG Export Plug-In . SVG Version: 6.00 Build 0)  -->
<svg version="1.1" id="Layer_1" xmlns="http://www.w3.org/2000/svg" xmlns:xlink="http://www.w3.org/1999/xlink" x="0px" y="0px"
	 viewBox="0 0 2128.2 1782.3" style="enable-background:new 0 0 2128.2 1782.3;" xml:space="preserve">
<style type="text/css">
	.st0{fill:#00ABE5;}
	.st1{fill:#216495;}
	.st2{fill:#1093D2;}
	.st3{fill:#256CA0;}
	.st4{fill:#2E87C8;}
	.st5{fill:#FFFFFF;}
</style>
<g>
	<g>
		<g>
			<path class="st0" d="M723.8,497.8C723.8,222.9,876.2,0,1064.1,0C789.1,0,566.2,222.9,566.2,497.8s222.9,497.8,497.8,497.8
				C876.2,995.7,723.8,772.8,723.8,497.8z"/>
			<path class="st1" d="M1064.1,0c187.9,0,340.2,222.9,340.2,497.8S1252,995.7,1064.1,995.7c274.9,0,497.8-222.9,497.8-497.8
				S1339,0,1064.1,0z"/>
			<path class="st2" d="M877,497.8C877,222.9,960.8,0,1064.1,0l0,0C876.2,0,723.8,222.9,723.8,497.8s152.3,497.8,340.2,497.8l0,0
				C960.8,995.7,877,772.8,877,497.8z"/>
			<path class="st3" d="M1404.3,497.8C1404.3,222.9,1252,0,1064.1,0c103.3,0,187.1,222.9,187.1,497.8s-83.7,497.8-187.1,497.8
				C1252,995.7,1404.3,772.8,1404.3,497.8z"/>
			<path class="st4" d="M1251.1,497.8c0-274.9-83.7-497.8-187.1-497.8c0,0,0,0,0,0C960.8,0,877,222.9,877,497.8
				s83.7,497.8,187.1,497.8c0,0,0,0,0,0C1167.4,995.7,1251.1,772.8,1251.1,497.8z"/>
		</g>
		<path class="st5" d="M1065.1,484l-90.9-185.9c-2.4-4.9-7.8-8-13.8-8h-97.8c-8.3,0-15,5.9-15,13.3v389c0,7.3,6.7,13.3,15,13.3h81.5
			c8.3,0,15-5.9,15-13.3V470.4l76.2,152.8c2.4,4.8,7.8,7.9,13.8,7.9h27.7c6,0,11.5-3.2,13.8-8.1l75.6-156.9v226.2
			c0,7.3,6.7,13.3,15,13.3h84.3c8.3,0,15-5.9,15-13.3v-389c0-7.3-6.7-13.3-15-13.3h-103.1c-6.2,0-11.7,3.3-14,8.4L1065.1,484z"/>
	</g>
	<g>
		<path d="M142.3,1517.6c29,0,53.7,23.9,53.7,53.7v156.8c0,30.2-24.7,54.1-53.7,54.1h-117c-14,0-25.4-11.4-25.4-25.4V1543
			c0-14,11.4-25.4,25.4-25.4H142.3z M128.2,1593.7c0-11.4-7.8-19.2-19.2-19.2H68.2V1725H109c11.4,0,19.2-7.8,19.2-19.2V1593.7z"/>
		<path d="M294.3,1517.6h122.2c14,0,25.4,11.4,25.4,25.4v6.1c0,14-11.4,25.4-25.4,25.4h-79.7v46.3h65.6c14,0,25.4,11.4,25.4,25.4
			v5.7c0,14-11.4,25.4-25.4,25.4h-65.6v47.8h79.7c14,0,25.4,11.4,25.4,25.4v6.5c0,14-11.4,25.4-25.4,25.4H294.3
			c-14,0-25.4-11.4-25.4-25.4V1543C269,1529,280.3,1517.6,294.3,1517.6z"/>
		<path d="M502.2,1750.4c0-14,11.4-25.4,25.4-25.4h73.8c2.7,0,4.3-1.6,4.3-3.5v-38.4c0-2-1.6-3.5-4.3-3.5h-68.2
			c-17.1,0-31-13.9-31-31v-100c0-17.1,13.9-31,31-31h111.5c14,0,25.4,11.4,25.4,25.4v6.1c0,14-11.4,25.4-25.4,25.4h-70.3
			c-2.2,0-3.9,1.8-3.9,3.9v39.2c0,1.6,1.6,3.5,3.9,3.5h68.2c17.1,0,31,13.9,31,31v99.2c0,17.1-13.9,31-31,31h-115
			c-14,0-25.4-11.4-25.4-25.4V1750.4z"/>
		<path d="M784.3,1782.3h-17.1c-14,0-25.4-11.4-25.4-25.4V1543c0-14,11.4-25.4,25.4-25.4h17.1c14,0,25.4,11.4,25.4,25.4v213.9
			C809.6,1770.9,798.3,1782.3,784.3,1782.3z"/>
		<path d="M1003.2,1620h72.7c12.1,0,22,9.8,22,22v12.2c0,12.1-9.8,22-22,22l0,0v76.1c0,17.3-13.3,30.2-30.2,30.2H913.1
			c-16.9,0-30.6-12.9-30.6-30.2v-204.7c0-16.1,13.7-29.8,30.6-29.8h138.6c14,0,25.3,11.3,25.3,25.3v6.2c0,14-11.3,25.3-25.3,25.3
			h-97.4c-2,0-3.9,2-3.9,4.3v141.9c0,2.4,2,3.9,3.9,3.9h54.9c2.7,0,4.3-1.6,4.3-3.9V1676h-10.3c-14,0-25.3-11.3-25.3-25.3v-5.4
			C977.8,1631.3,989.2,1620,1003.2,1620z"/>
		<path d="M1223.7,1636.8v120.1c0,14-11.3,25.3-25.3,25.3h-12c-14,0-25.3-11.3-25.3-25.3v-214c0-14,11.3-25.3,25.3-25.3h22.3
			c9.3,0,17.8,5.1,22.3,13.3l72,132.6V1543c0-14,11.3-25.3,25.3-25.3h12c14,0,25.3,11.3,25.3,25.3v214c0,14-11.3,25.3-25.3,25.3
			h-24.1c-9.4,0-18-5.2-22.4-13.5L1223.7,1636.8z"/>
		<path d="M1702.5,1683.5c14,0,25.3,11.3,25.3,25.3v43.3c0,17.3-14.1,30.2-31,30.2H1564c-16.9,0-30.2-12.9-30.2-30.2v-204.7
			c0-16.1,13.3-29.8,30.2-29.8h132.9c16.9,0,31,13.7,31,29.8v42.9c0,14-11.3,25.3-25.3,25.3H1685c-14,0-25.3-11.3-25.3-25.3v-11.5
			c0-2.4-2-4.3-3.5-4.3h-49.8c-2.4,0-4.3,1.9-4.3,4.3v142.3c0,2.2,1.8,3.9,3.9,3.9h50.2c1.6,0,3.5-1.6,3.5-3.9v-12.3
			c0-14,11.3-25.3,25.3-25.3H1702.5z"/>
		<path d="M1957.2,1517.6c18.4,0,31,12.5,31,31v202.7c0,18.4-12.5,31-31,31h-136.1c-18.4,0-31-12.5-31-31v-202.7
			c0-18.4,12.6-31,31-31H1957.2z M1920,1579.2c0-2.4-2-4.3-4.3-4.3h-53.7c-1.6,0-3.5,2-3.5,4.3v142.3c0,2,2,3.5,3.5,3.5h53.7
			c2.4,0,4.3-1.6,4.3-3.5V1579.2z"/>
		<path d="M2102.8,1782.3h-22.7c-14,0-25.3-11.3-25.3-25.3v-21.1c0-14,11.3-25.3,25.3-25.3h22.7c14,0,25.3,11.3,25.3,25.3v21.1
			C2128.2,1771,2116.8,1782.3,2102.8,1782.3z"/>
	</g>
	<g>
		<path d="M88.7,1237.7v186.4c0,14-11.3,25.3-25.3,25.3h-38c-14,0-25.3-11.3-25.3-25.3v-323.4c0-14,11.3-25.3,25.3-25.3h55.5
			c10.1,0,19.3,6,23.3,15.3l68.8,159.3l62.9-158.6c3.8-9.7,13.2-16,23.6-16h59.4c14,0,25.3,11.3,25.3,25.3v323.4
			c0,14-11.3,25.3-25.3,25.3h-40.2c-14,0-25.3-11.3-25.3-25.3v-190.3l-56.6,133.1c-4,9.4-13.2,15.4-23.3,15.4H169
			c-10,0-19.1-5.9-23.2-15.1L88.7,1237.7z"/>
		<path d="M699.6,1449.4h-45.8c-14,0-25.3-11.3-25.3-25.3v-67.8h-84.8v67.8c0,14-11.3,25.3-25.3,25.3h-45.8
			c-14,0-25.3-11.3-25.3-25.3v-305c0-24.2,19.6-43.8,43.8-43.8h190.1c24.2,0,43.8,19.6,43.8,43.8v305
			C724.9,1438.1,713.6,1449.4,699.6,1449.4z M628.5,1275.4v-112.5c0-6.7-5.5-11.1-13.3-11.1h-59.9c-6.7,0-11.6,5-11.6,11.1v112.5
			H628.5z"/>
		<path d="M1059.1,1100.6v30.2c0,14-11.3,25.3-25.3,25.3h-59.5v267.9c0,14-11.3,25.3-25.3,25.3h-45.8c-14,0-25.3-11.3-25.3-25.3
			v-267.9h-59.5c-14,0-25.3-11.3-25.3-25.3v-30.2c0-14,11.3-25.3,25.3-25.3h215.3C1047.8,1075.3,1059.1,1086.6,1059.1,1100.6z"/>
		<path d="M1219.3,1243.8v180.3c0,14-11.3,25.3-25.3,25.3h-38.1c-14,0-25.3-11.3-25.3-25.3v-323.5c0-14,11.3-25.3,25.3-25.3h48.3
			c9.3,0,17.8,5.1,22.2,13.2l104.8,192.9v-180.9c0-14,11.3-25.3,25.3-25.3h38.1c14,0,25.3,11.3,25.3,25.3v323.5
			c0,14-11.3,25.3-25.3,25.3h-50.9c-9.4,0-18-5.2-22.4-13.4L1219.3,1243.8z"/>
		<path d="M1551.7,1075.3h193.7c14,0,25.4,11.4,25.4,25.4v29.6c0,14-11.4,25.4-25.4,25.4h-123.2v65.4h103.2
			c14,0,25.4,11.4,25.4,25.4v29c0,14-11.4,25.4-25.4,25.4h-103.2v67.6h123.2c14,0,25.4,11.4,25.4,25.4v30.1
			c0,14-11.4,25.4-25.4,25.4h-193.7c-14,0-25.4-11.4-25.4-25.4v-323.3C1526.3,1086.6,1537.6,1075.3,1551.7,1075.3z"/>
		<path d="M1940.3,1424v-84.4h-49.9c-22.7,0-42.1-20-42.1-44.3v-194.7c0-14,11.4-25.4,25.4-25.4h45.7c14,0,25.4,11.4,25.4,25.4v147
			c0,3,2.5,5.5,5.5,5.5h77.6c3.3,0,3.9-2.8,3.9-5.5v-147c0-14,11.4-25.4,25.4-25.4h45.7c14,0,25.4,11.4,25.4,25.4v194.7
			c0,24.4-19.4,44.3-42.1,44.3h-49.3v84.4c0,14-11.4,25.4-25.4,25.4h-45.7C1951.6,1449.4,1940.3,1438,1940.3,1424z"/>
	</g>
</g>
</svg>
