<?xml version="1.0" encoding="utf-8"?>
<!-- Generator: Adobe Illustrator 22.0.1, SVG Export Plug-In . SVG Version: 6.00 Build 0)  -->
<svg version="1.1" id="Layer_1" xmlns="http://www.w3.org/2000/svg" xmlns:xlink="http://www.w3.org/1999/xlink" x="0px" y="0px"
	 viewBox="0 0 1817 1214" style="enable-background:new 0 0 1817 1214;" xml:space="preserve">
<style type="text/css">
	.st0{fill:#F1F1F2;}
	.st1{fill:#FFFFFF;}
	.st2{fill:#231F20;}
</style>
<polygon points="1048.5,57.1 768.5,57.1 65.4,57.1 65.4,478.7 132.4,478.7 132.4,832.3 545.1,832.3 908.5,1122 1271.9,832.3 
	1684.6,832.3 1684.6,478.7 1751.6,478.7 1751.6,57.1 "/>
<polygon class="st0" points="533.7,865 99.7,865 99.7,511.4 32.7,511.4 32.7,24.4 1784.3,24.4 1784.3,511.4 1717.3,511.4 
	1717.3,865 1283.3,865 908.5,1163.9 "/>
<path d="M0-8.3v552.5h67v353.6h455.3l386.3,308l386.3-308H1750V544.1h67V-8.3H0z M1784.3,511.4h-67V865h-434l-374.8,298.9L533.7,865
	h-434V511.4h-67v-487h1751.6V511.4z"/>
<polygon points="1048.5,57.1 768.5,57.1 65.4,57.1 65.4,478.7 132.4,478.7 132.4,832.3 545.1,832.3 908.5,1122 1271.9,832.3 
	1684.6,832.3 1684.6,478.7 1751.6,478.7 1751.6,57.1 "/>
<g>
	<g>
		<path class="st1" d="M248.3,267.4v143.3h-60V157.4h66l51,118.2l46.9-118.2h69v253.3h-61.5V264.7l-42.8,100.5h-25.5L248.3,267.4z"
			/>
		<path class="st1" d="M678.9,410.7h-65.3v-63h-57.4v63H491V187.1c0-17.6,12-29.6,29.6-29.6h128.7c17.6,0,29.6,12,29.6,29.6V410.7z
			 M613.6,292.9v-76.2c0-4.5-3.7-7.5-9-7.5h-40.5c-4.5,0-7.9,3.4-7.9,7.5v76.2H613.6z"/>
		<path class="st1" d="M905.1,157.4v54.8h-57.4v198.5h-65.3V212.2H725v-54.8H905.1z"/>
		<path class="st1" d="M1013.5,271.5v139.2h-60V157.4h60l75.8,139.6V157.4h60v253.3h-61.9L1013.5,271.5z"/>
		<path class="st1" d="M1221.4,157.4h165.5v54.4h-100.6v44.3h87v54h-87v45.8h100.6v54.8h-165.5V157.4z"/>
		<path class="st1" d="M1501.6,410.7v-74.3h-33.8c-15.4,0-28.5-13.5-28.5-30v-149h65.3v116.7c0,1.9,2.3,3.8,4.1,3.8h52.2
			c2.3,0,2.6-1.9,2.6-3.8V157.4h65.3v149c0,16.5-13.1,30-28.5,30h-33.4v74.3H1501.6z"/>
	</g>
	<g>
		<path class="st1" d="M391.4,478.7c27.8,0,51.4,22.9,51.4,51.4v150.1c0,28.9-23.6,51.8-51.4,51.8H255.2V478.7H391.4z M377.9,551.5
			c0-10.9-7.5-18.4-18.4-18.4h-39v144.1h39c10.9,0,18.4-7.5,18.4-18.4V551.5z"/>
		<path class="st1" d="M512.5,478.7H678v54.4H577.4v44.3h87v54h-87v45.8H678V732H512.5V478.7z"/>
		<path class="st1" d="M735.7,677.2h94.9c2.6,0,4.1-1.5,4.1-3.4V637c0-1.9-1.5-3.4-4.1-3.4h-65.3c-17.6,0-29.6-12-29.6-29.6v-95.7
			c0-17.6,12-29.6,29.6-29.6h130.9v54.4h-91.5c-2.3,0-3.8,1.9-3.8,4.1v37.1c0,1.5,1.5,3.4,3.8,3.4h65.3c17.6,0,29.6,12,29.6,29.6
			v94.9c0,17.6-12,29.6-29.6,29.6H735.7V677.2z"/>
		<path class="st1" d="M1029.8,732h-64.9V478.7h64.9V732z"/>
		<path class="st1" d="M1190.8,576.6h114.8v53.7h-21v72.8c0,16.5-12.8,28.9-28.9,28.9h-126.8c-16.1,0-29.3-12.4-29.3-28.9V507.2
			c0-15.4,13.1-28.5,29.3-28.5h156.8v54.4h-117.4c-1.9,0-3.8,1.9-3.8,4.1v135.8c0,2.3,1.9,3.8,3.8,3.8h52.5c2.6,0,4.1-1.5,4.1-3.8
			v-42.8h-34.1V576.6z"/>
		<path class="st1" d="M1426,592.8V732h-60V478.7h60l75.8,139.6V478.7h60V732h-61.9L1426,592.8z"/>
	</g>
</g>
<g>
	<path class="st1" d="M860.2,882.5v32.6c0,8.2-6.7,14.4-14.7,14.4h-63.2c-8,0-14.4-6.2-14.4-14.4v-97.3c0-7.6,6.3-14.2,14.4-14.2
		h63.2c8,0,14.7,6.5,14.7,14.2v32.4h-32.4v-17.5c0-1.1-0.9-2.1-1.7-2.1h-23.7c-1.1,0-2.1,0.9-2.1,2.1v67.7c0,1.1,0.9,1.9,2.1,1.9
		h23.7c0.7,0,1.7-0.7,1.7-1.9v-17.9H860.2z"/>
	<path class="st1" d="M969.6,803.6c8.8,0,14.7,6,14.7,14.7v96.4c0,8.8-6,14.7-14.7,14.7H905c-8.8,0-14.7-6-14.7-14.7v-96.4
		c0-8.8,6-14.7,14.7-14.7H969.6z M951.9,832.9c0-1.1-0.9-2.1-2-2.1h-25.5c-0.7,0-1.7,0.9-1.7,2.1v67.7c0,0.9,0.9,1.7,1.7,1.7h25.5
		c1.1,0,2-0.7,2-1.7V832.9z"/>
	<path class="st1" d="M1050.9,929.5h-34.9v-34.1h34.9V929.5z"/>
</g>
<g>
	<g>
		<path class="st2" d="M223.8,923.9h46.3v15.2h-28.1v12.4h24.4v15.1h-24.4v12.8h28.1v15.3h-46.3V923.9z"/>
		<path class="st2" d="M286.2,979.4h26.6c0.7,0,1.2-0.4,1.2-0.9v-10.3c0-0.5-0.4-0.9-1.2-0.9h-18.3c-4.9,0-8.3-3.4-8.3-8.3v-26.8
			c0-4.9,3.4-8.3,8.3-8.3h36.6v15.2h-25.6c-0.6,0-1.1,0.5-1.1,1.2v10.4c0,0.4,0.4,0.9,1.1,0.9h18.3c4.9,0,8.3,3.4,8.3,8.3v26.6
			c0,4.9-3.4,8.3-8.3,8.3h-37.6V979.4z"/>
		<path class="st2" d="M394.2,923.9v15.3h-16.1v55.6h-18.3v-55.6h-16.1v-15.3H394.2z"/>
		<path class="st2" d="M418.4,994.8h-19.6v-19.2h19.6V994.8z"/>
	</g>
	<g>
		<path class="st2" d="M1356.6,964.9c-0.7,0-1.2,0.4-1.2,1.2v12.6h30.8v16.1h-49v-37.4c0-4.1,4.1-6.1,8.1-6.1h22.4
			c0.7,0,1.2-0.4,1.2-1.2V940c0-0.7-0.4-1.2-1.2-1.2h-28.9v-15h40.2c4,0,8.1,4,8.1,8.1v25c0,4-4.1,8-8.1,8H1356.6z"/>
		<path class="st2" d="M1457.4,931.9v54.8c0,4.6-3.6,8.1-8,8.1h-35.9c-4.3,0-8.1-3.5-8.1-8.1v-54.8c0-4.5,3.8-8,8.1-8h35.9
			C1453.8,923.9,1457.4,927.3,1457.4,931.9z M1437.9,979.6c0.7,0,1.2-0.4,1.2-1.2V940c0-0.7-0.4-1.2-1.2-1.2h-13.1
			c-0.7,0-1.2,0.4-1.2,1.2v38.4c0,0.7,0.4,1.2,1.2,1.2H1437.9z"/>
		<path class="st2" d="M1525.7,931.9v54.8c0,4.6-3.6,8.1-8,8.1h-35.9c-4.3,0-8.1-3.5-8.1-8.1v-54.8c0-4.5,3.8-8,8.1-8h35.9
			C1522.2,923.9,1525.7,927.3,1525.7,931.9z M1506.3,979.6c0.7,0,1.2-0.4,1.2-1.2V940c0-0.7-0.4-1.2-1.2-1.2h-13.1
			c-0.7,0-1.2,0.4-1.2,1.2v38.4c0,0.7,0.4,1.2,1.2,1.2H1506.3z"/>
		<path class="st2" d="M1573.8,979.7c0.7,0,1.2-0.4,1.2-1.2v-10.2h-25.6c-4,0-8-4.1-8-8.1v-28.5c0-4,4-8,8-8h35.8
			c6.1,0,8.1,6,8.1,10v52.8c0,4.1-2,8.1-8.1,8.1H1543v-15H1573.8z M1573.8,955.5c0.7,0,1.2-0.4,1.2-1.2V940c0-0.7-0.4-1.2-1.2-1.2
			h-13c-0.7,0-1.2,0.4-1.2,1.2v14.3c0,0.7,0.4,1.2,1.2,1.2H1573.8z"/>
	</g>
</g>
</svg>
