<?xml version="1.0" encoding="utf-8"?>
<!-- Generator: Adobe Illustrator 22.0.1, SVG Export Plug-In . SVG Version: 6.00 Build 0)  -->
<svg version="1.1" id="Layer_1" xmlns="http://www.w3.org/2000/svg" xmlns:xlink="http://www.w3.org/1999/xlink" x="0px" y="0px"
	 viewBox="0 0 1817 1214" style="enable-background:new 0 0 1817 1214;" xml:space="preserve">
<style type="text/css">
	.st0{fill:none;}
	.st1{fill:#FFFFFF;}
</style>
<polygon class="st0" points="1048.5,65.4 768.5,65.4 65.4,65.4 65.4,487 132.4,487 132.4,840.6 545.1,840.6 908.5,1130.3 
	1271.9,840.6 1684.6,840.6 1684.6,487 1751.6,487 1751.6,65.4 "/>
<g>
	<polygon class="st0" points="1717.3,519.7 1784.3,519.7 1784.3,519.7 1717.3,519.7 	"/>
	<polygon class="st0" points="908.5,1172.2 533.7,873.3 99.7,873.3 99.7,519.7 32.7,519.7 32.7,32.7 32.7,32.7 32.7,519.7 
		99.7,519.7 99.7,873.3 533.7,873.3 908.5,1172.2 1283.3,873.3 1717.3,873.3 1717.3,873.3 1283.3,873.3 	"/>
	<path class="st1" d="M32.7,32.7v487h67v353.6h434l374.8,298.9l374.8-298.9h434V519.7l0,0l0,0h67v-487H32.7z M1684.6,487v353.6
		h-412.7l-363.4,289.8L545.1,840.6H132.4V487h-67V65.4h703h280.1h703V487H1684.6z"/>
	<path class="st0" d="M0,0v552.5h67V906h455.3l386.3,308l386.3-308H1750V552.5h67V0H0z M1784.3,519.7L1784.3,519.7L1784.3,519.7h-67
		v353.6l0,0l0,0h-434l-374.8,298.9L533.7,873.3h-434V519.7h-67v-487l0,0l0,0h1751.6V519.7z"/>
	<rect x="1717.3" y="519.7" class="st1" width="0" height="353.6"/>
	<polygon class="st1" points="32.7,32.7 1784.3,32.7 1784.3,519.7 1784.3,519.7 1784.3,32.7 32.7,32.7 	"/>
	<polygon class="st1" points="316.9,373.6 359.7,273 359.7,419 421.2,419 421.2,165.7 352.2,165.7 305.3,283.9 254.3,165.7 
		188.2,165.7 188.2,419 248.3,419 248.3,275.7 291.4,373.6 	"/>
	<path class="st1" d="M649.3,165.7H520.6c-17.6,0-29.6,12-29.6,29.6V419h65.3v-63h57.4v63h65.3V195.4
		C678.9,177.7,666.9,165.7,649.3,165.7z M613.6,301.2h-57.4V225c0-4.1,3.4-7.5,7.9-7.5h40.5c5.3,0,9,3,9,7.5V301.2z"/>
	<polygon class="st1" points="782.4,419 847.7,419 847.7,220.5 905.1,220.5 905.1,165.7 725,165.7 725,220.5 782.4,220.5 	"/>
	<polygon class="st1" points="1149.4,165.7 1089.3,165.7 1089.3,305.3 1013.5,165.7 953.5,165.7 953.5,419 1013.5,419 1013.5,279.8 
		1087.4,419 1149.4,419 	"/>
	<polygon class="st1" points="1386.8,364.2 1286.3,364.2 1286.3,318.4 1373.3,318.4 1373.3,264.4 1286.3,264.4 1286.3,220.1 
		1386.8,220.1 1386.8,165.7 1221.4,165.7 1221.4,419 1386.8,419 	"/>
	<path class="st1" d="M1563.5,282.4c0,1.9-0.4,3.8-2.6,3.8h-52.2c-1.9,0-4.1-1.9-4.1-3.8V165.7h-65.3v149c0,16.5,13.1,30,28.5,30
		h33.8V419h65.3v-74.3h33.4c15.4,0,28.5-13.5,28.5-30v-149h-65.3V282.4z"/>
	<path class="st1" d="M391.4,487H255.2v253.3h136.2c27.8,0,51.4-22.9,51.4-51.8V538.4C442.8,509.9,419.1,487,391.4,487z
		 M377.9,667.1c0,10.9-7.5,18.4-18.4,18.4h-39V541.4h39c10.9,0,18.4,7.5,18.4,18.4V667.1z"/>
	<polygon class="st1" points="512.5,740.3 678,740.3 678,685.5 577.4,685.5 577.4,639.7 664.5,639.7 664.5,585.7 577.4,585.7 
		577.4,541.4 678,541.4 678,487 512.5,487 	"/>
	<path class="st1" d="M899.7,710.6v-94.9c0-17.6-12-29.6-29.6-29.6h-65.3c-2.3,0-3.8-1.9-3.8-3.4v-37.1c0-2.3,1.5-4.1,3.8-4.1h91.5
		V487H765.4c-17.6,0-29.6,12-29.6,29.6v95.7c0,17.6,12,29.6,29.6,29.6h65.3c2.6,0,4.1,1.5,4.1,3.4v36.8c0,1.9-1.5,3.4-4.1,3.4h-94.9
		v54.8H870C887.7,740.3,899.7,728.3,899.7,710.6z"/>
	<rect x="964.9" y="487" class="st1" width="64.9" height="253.3"/>
	<path class="st1" d="M1190.8,638.6h34.1v42.8c0,2.3-1.5,3.8-4.1,3.8h-52.5c-1.9,0-3.8-1.5-3.8-3.8V545.6c0-2.3,1.9-4.1,3.8-4.1
		h117.4V487h-156.8c-16.1,0-29.3,13.1-29.3,28.5v195.9c0,16.5,13.1,28.9,29.3,28.9h126.8c16.1,0,28.9-12.4,28.9-28.9v-72.8h21v-53.7
		h-114.8V638.6z"/>
	<polygon class="st1" points="1501.8,626.6 1426,487 1366,487 1366,740.3 1426,740.3 1426,601.1 1499.9,740.3 1561.8,740.3 
		1561.8,487 1501.8,487 	"/>
	<path class="st1" d="M845.5,812h-63.2c-8,0-14.4,6.5-14.4,14.2v97.3c0,8.2,6.3,14.3,14.4,14.3h63.2c8,0,14.7-6.2,14.7-14.3v-32.6
		h-32.4v17.9c0,1.1-0.9,1.9-1.7,1.9h-23.7c-1.1,0-2.1-0.7-2.1-1.9V841c0-1.1,0.9-2.1,2.1-2.1h23.7c0.7,0,1.7,0.9,1.7,2.1v17.5h32.4
		v-32.4C860.2,818.5,853.5,812,845.5,812z"/>
	<path class="st1" d="M969.6,812H905c-8.8,0-14.7,6-14.7,14.7V923c0,8.8,6,14.7,14.7,14.7h64.7c8.8,0,14.7-6,14.7-14.7v-96.4
		C984.4,817.9,978.4,812,969.6,812z M951.9,908.9c0,0.9-0.9,1.7-2.1,1.7h-25.5c-0.7,0-1.7-0.7-1.7-1.7v-67.7c0-1.1,0.9-2,1.7-2h25.5
		c1.1,0,2.1,0.9,2.1,2V908.9z"/>
	<rect x="1016.1" y="903.7" class="st1" width="34.9" height="34.1"/>
</g>
</svg>
