<?xml version="1.0" encoding="utf-8"?>
<!-- Generator: Adobe Illustrator 22.0.1, SVG Export Plug-In . SVG Version: 6.00 Build 0)  -->
<svg version="1.1" id="Layer_1" xmlns="http://www.w3.org/2000/svg" xmlns:xlink="http://www.w3.org/1999/xlink" x="0px" y="0px"
	 viewBox="0 0 1817 1214" style="enable-background:new 0 0 1817 1214;" xml:space="preserve">
<style type="text/css">
	.st0{fill:#F1F1F2;}
	.st1{fill:#2E86C7;}
	.st2{fill:#FFFFFF;}
	.st3{font-family:'DDCHardware-Regular';}
	.st4{font-size:186.3968px;}
</style>
<g>
	<polygon points="1048.5,65.4 768.5,65.4 65.4,65.4 65.4,487 132.4,487 132.4,840.6 545.1,840.6 908.5,1130.3 1271.9,840.6 
		1684.6,840.6 1684.6,487 1751.6,487 1751.6,65.4 	"/>
	<polygon class="st0" points="533.7,873.3 99.7,873.3 99.7,519.7 32.7,519.7 32.7,32.7 1784.3,32.7 1784.3,519.7 1717.3,519.7 
		1717.3,873.3 1283.3,873.3 908.5,1172.2 	"/>
	<polygon class="st1" points="522.2,906 67,906 67,552.5 0,552.5 0,0 1817,0 1817,552.5 1750,552.5 1750,906 1294.8,906 908.5,1214 
			"/>
	<polygon class="st0" points="533.7,873.3 99.7,873.3 99.7,519.7 32.7,519.7 32.7,32.7 1784.3,32.7 1784.3,519.7 1717.3,519.7 
		1717.3,873.3 1283.3,873.3 908.5,1172.2 	"/>
	<polygon class="st1" points="1048.5,65.4 768.5,65.4 65.4,65.4 65.4,487 132.4,487 132.4,840.6 545.1,840.6 908.5,1130.3 
		1271.9,840.6 1684.6,840.6 1684.6,487 1751.6,487 1751.6,65.4 	"/>
	<g>
		<g>
			<path class="st2" d="M248.3,275.7V419h-60V165.7h66l51,118.2l46.9-118.2h69V419h-61.5V273l-42.8,100.5h-25.5L248.3,275.7z"/>
			<path class="st2" d="M678.9,419h-65.3v-63h-57.4v63H491V195.4c0-17.6,12-29.6,29.6-29.6h128.7c17.6,0,29.6,12,29.6,29.6V419z
				 M613.6,301.2V225c0-4.5-3.7-7.5-9-7.5h-40.5c-4.5,0-7.9,3.4-7.9,7.5v76.2H613.6z"/>
			<path class="st2" d="M905.1,165.7v54.8h-57.4V419h-65.3V220.5H725v-54.8H905.1z"/>
			<path class="st2" d="M1013.5,279.8V419h-60V165.7h60l75.8,139.6V165.7h60V419h-61.9L1013.5,279.8z"/>
			<path class="st2" d="M1221.4,165.7h165.5v54.4h-100.6v44.3h87v54h-87v45.8h100.6V419h-165.5V165.7z"/>
			<path class="st2" d="M1501.6,419v-74.3h-33.8c-15.4,0-28.5-13.5-28.5-30v-149h65.3v116.7c0,1.9,2.3,3.8,4.1,3.8h52.2
				c2.3,0,2.6-1.9,2.6-3.8V165.7h65.3v149c0,16.5-13.1,30-28.5,30h-33.4V419H1501.6z"/>
		</g>
		<g>
			<path class="st2" d="M391.4,487c27.8,0,51.4,22.9,51.4,51.4v150.1c0,28.9-23.6,51.8-51.4,51.8H255.2V487H391.4z M377.9,559.8
				c0-10.9-7.5-18.4-18.4-18.4h-39v144.1h39c10.9,0,18.4-7.5,18.4-18.4V559.8z"/>
			<path class="st2" d="M512.5,487H678v54.4H577.4v44.3h87v54h-87v45.8H678v54.8H512.5V487z"/>
			<path class="st2" d="M735.7,685.5h94.9c2.6,0,4.1-1.5,4.1-3.4v-36.8c0-1.9-1.5-3.4-4.1-3.4h-65.3c-17.6,0-29.6-12-29.6-29.6
				v-95.7c0-17.6,12-29.6,29.6-29.6h130.9v54.4h-91.5c-2.3,0-3.8,1.9-3.8,4.1v37.1c0,1.5,1.5,3.4,3.8,3.4h65.3
				c17.6,0,29.6,12,29.6,29.6v94.9c0,17.6-12,29.6-29.6,29.6H735.7V685.5z"/>
			<path class="st2" d="M1029.8,740.3h-64.9V487h64.9V740.3z"/>
			<path class="st2" d="M1190.8,584.9h114.8v53.7h-21v72.8c0,16.5-12.8,28.9-28.9,28.9h-126.8c-16.1,0-29.3-12.4-29.3-28.9V515.5
				c0-15.4,13.1-28.5,29.3-28.5h156.8v54.4h-117.4c-1.9,0-3.8,1.9-3.8,4.1v135.8c0,2.3,1.9,3.8,3.8,3.8h52.5c2.6,0,4.1-1.5,4.1-3.8
				v-42.8h-34.1V584.9z"/>
			<path class="st2" d="M1426,601.1v139.2h-60V487h60l75.8,139.6V487h60v253.3h-61.9L1426,601.1z"/>
		</g>
	</g>
	<text transform="matrix(1 0 0 1 751.1903 937.7625)" class="st2 st3 st4">CO.</text>
</g>
</svg>
