<?xml version="1.0" encoding="utf-8"?>
<!-- Generator: Adobe Illustrator 22.0.1, SVG Export Plug-In . SVG Version: 6.00 Build 0)  -->
<svg version="1.1" id="Layer_1" xmlns="http://www.w3.org/2000/svg" xmlns:xlink="http://www.w3.org/1999/xlink" x="0px" y="0px"
	 viewBox="0 0 705.5 222.3" style="enable-background:new 0 0 705.5 222.3;" xml:space="preserve">
<style type="text/css">
	.st0{fill:#00ABE5;}
	.st1{fill:#1093D2;}
	.st2{fill:#216495;}
	.st3{fill:none;}
</style>
<g>
	<polygon class="st0" points="235.5,14.8 152.4,14.8 148.7,24.3 232.3,24.3 	"/>
	<polygon class="st0" points="133.8,62.4 127.1,79.5 120.3,62.4 108.5,32.3 24.4,32.3 34.2,62.4 43,89.5 49.7,110.4 65,158.5 
		80.2,206.2 173.9,206.2 189.1,158.5 192.3,148.4 204.4,110.4 211.1,89.5 216.9,71.7 219.9,62.4 229.7,32.3 145.6,32.3 	"/>
	<polygon class="st0" points="101.7,14.8 18.7,14.8 21.8,24.3 105.4,24.3 	"/>
	<polygon class="st1" points="30.8,94.5 17,52.2 13,39.8 13,206.2 45,206.2 50.4,189.3 55.7,172.7 45.2,139.8 	"/>
	<polygon class="st1" points="215.4,119.3 198.5,172.5 203.9,189.3 209.3,206.2 241.1,206.2 241.1,39.8 223.3,94.5 	"/>
	<polygon points="223.3,94.5 198.5,172.5 215.4,119.3 	"/>
	<polygon points="105.4,24.3 21.8,24.3 24.4,32.3 108.5,32.3 	"/>
	<polygon class="st2" points="13,39.8 55.7,172.7 52.3,183.3 13,64.8 	"/>
	<polygon class="st2" points="198.5,172.5 241.1,39.8 241.5,64.8 201.9,183.3 	"/>
	<polygon class="st3" points="33.9,61.6 120,61.6 115.5,50.1 30.2,50.1 	"/>
	<polygon class="st3" points="17,52.2 16.4,50.1 13,50.1 13,61.6 20.1,61.6 	"/>
	<polygon class="st3" points="70.5,175.6 75.6,191.9 178.5,191.9 183.7,175.6 	"/>
	<polygon class="st3" points="127.1,79.5 122.5,68 36,68 40,80.3 214.1,80.3 216.9,71.7 218.1,68 131.6,68 	"/>
	<polygon class="st3" points="50.4,189.3 54.8,175.6 13,175.6 13,191.9 49.6,191.9 	"/>
	<polygon class="st3" points="220.2,61.6 223.9,50.1 138.6,50.1 134.1,61.6 	"/>
	<polygon class="st3" points="33.8,103.7 13,103.7 13,117.6 38.2,117.6 	"/>
	<polygon class="st3" points="45.2,139.8 45.1,139.5 13,139.5 13,154.5 49.9,154.5 	"/>
	<polygon class="st3" points="55.7,172.7 51,157.7 13,157.7 13,173.2 55.5,173.2 	"/>
	<polygon class="st3" points="39.4,121.6 13,121.6 13,136.3 44.1,136.3 	"/>
	<polygon class="st3" points="30.8,94.5 28,85.9 13,85.9 13,99 32.2,99 	"/>
	<polygon class="st3" points="43,89.5 46,99 208.1,99 211.1,89.5 212.3,85.9 41.9,85.9 	"/>
	<polygon class="st3" points="22.2,68 13,68 13,80.3 26.2,80.3 	"/>
	<polygon class="st3" points="209.3,206.2 241.1,206.2 241.1,193.5 205.2,193.5 	"/>
	<polygon class="st3" points="80.2,206.2 173.9,206.2 178,193.5 76.1,193.5 	"/>
	<polygon class="st3" points="241.1,39.8 240.1,43 241.1,43 	"/>
	<polygon class="st3" points="13,206.2 45,206.2 49,193.5 13,193.5 	"/>
	<polygon class="st3" points="235.5,14.8 152.4,14.8 148.7,24.3 232.3,24.3 	"/>
	<polygon class="st3" points="229.7,32.3 145.6,32.3 141.4,43 226.3,43 	"/>
	<polygon class="st3" points="108.5,32.3 105.4,24.3 101.7,14.8 18.7,14.8 21.8,24.3 24.4,32.3 27.9,43 112.7,43 	"/>
	<polygon class="st3" points="13,39.8 13,43 14,43 	"/>
	<polygon class="st3" points="63.7,154.5 190.4,154.5 192.3,148.4 195.2,139.5 58.9,139.5 	"/>
	<polygon class="st3" points="57.9,136.3 196.2,136.3 200.9,121.6 53.3,121.6 	"/>
	<polygon class="st3" points="49.7,110.4 52,117.6 202.1,117.6 204.4,110.4 206.6,103.7 47.6,103.7 	"/>
	<polygon class="st3" points="65,158.5 69.7,173.2 184.4,173.2 189.1,158.5 189.4,157.7 64.8,157.7 	"/>
	<polygon class="st3" points="203.9,189.3 204.7,191.9 241.1,191.9 241.1,175.6 199.5,175.6 	"/>
	<polygon class="st3" points="198.5,172.5 198.7,173.2 241.1,173.2 241.1,157.7 203.2,157.7 	"/>
	<polygon class="st3" points="215.9,117.6 241.1,117.6 241.1,103.7 220.4,103.7 	"/>
	<polygon class="st3" points="204.2,154.5 241.1,154.5 241.1,139.5 209,139.5 	"/>
	<polygon class="st3" points="227.9,80.3 241.1,80.3 241.1,68 231.9,68 	"/>
	<polygon class="st3" points="210,136.3 241.1,136.3 241.1,121.6 214.7,121.6 	"/>
	<polygon class="st3" points="223.3,94.5 221.9,99 241.1,99 241.1,85.9 226.1,85.9 	"/>
	<polygon class="st3" points="234,61.6 241.1,61.6 241.1,50.1 237.8,50.1 	"/>
	<polygon points="232.3,24.3 148.7,24.3 145.6,32.3 229.7,32.3 	"/>
	<polygon points="14,43 13,43 13,50.1 16.4,50.1 	"/>
	<polygon points="115.5,50.1 112.7,43 27.9,43 30.2,50.1 	"/>
	<polygon points="241.1,50.1 241.1,43 240.1,43 237.8,50.1 	"/>
	<polygon points="223.9,50.1 226.3,43 141.4,43 138.6,50.1 	"/>
	<polygon points="127.2,43 126.9,43 127.1,43.3 	"/>
	<polygon points="20.1,61.6 13,61.6 13,68 22.2,68 	"/>
	<polygon points="131.6,68 218.1,68 219.9,62.4 220.2,61.6 134.1,61.6 133.8,62.4 	"/>
	<polygon points="231.9,68 241.1,68 241.1,61.6 234,61.6 	"/>
	<polygon points="36,68 122.5,68 120.3,62.4 120,61.6 33.9,61.6 34.2,62.4 	"/>
	<polygon points="41.9,85.9 212.3,85.9 214.1,80.3 40,80.3 	"/>
	<polygon points="226.1,85.9 241.1,85.9 241.1,80.3 227.9,80.3 	"/>
	<polygon points="26.2,80.3 13,80.3 13,85.9 28,85.9 	"/>
	<polygon points="32.2,99 13,99 13,103.7 33.8,103.7 	"/>
	<polygon points="220.4,103.7 241.1,103.7 241.1,99 221.9,99 	"/>
	<polygon points="47.6,103.7 206.6,103.7 208.1,99 46,99 	"/>
	<polygon points="214.7,121.6 241.1,121.6 241.1,117.6 215.9,117.6 	"/>
	<polygon points="38.2,117.6 13,117.6 13,121.6 39.4,121.6 	"/>
	<polygon points="53.3,121.6 200.9,121.6 202.1,117.6 52,117.6 	"/>
	<polygon points="209,139.5 241.1,139.5 241.1,136.3 210,136.3 	"/>
	<polygon points="58.9,139.5 195.2,139.5 196.2,136.3 57.9,136.3 	"/>
	<polygon points="44.1,136.3 13,136.3 13,139.5 45.1,139.5 	"/>
	<polygon points="49.9,154.5 13,154.5 13,157.7 51,157.7 	"/>
	<polygon points="64.8,157.7 189.4,157.7 190.4,154.5 63.7,154.5 	"/>
	<polygon points="203.2,157.7 241.1,157.7 241.1,154.5 204.2,154.5 	"/>
	<polygon points="70.5,175.6 183.7,175.6 184.4,173.2 69.7,173.2 	"/>
	<polygon points="55.5,173.2 13,173.2 13,175.6 54.8,175.6 	"/>
	<polygon points="199.5,175.6 241.1,175.6 241.1,173.2 198.7,173.2 	"/>
	<polygon points="205.2,193.5 241.1,193.5 241.1,191.9 204.7,191.9 	"/>
	<polygon points="75.6,191.9 76.1,193.5 178,193.5 178.5,191.9 	"/>
	<polygon points="13,191.9 13,193.5 49,193.5 49.6,191.9 	"/>
	<path d="M235.5,0h-83H144l-3.4,8.8l-6.1,15.5l-3.1,8L127.2,43l-0.1,0.3l-0.1-0.3l-4.2-10.7l-3.1-8l-6.1-15.5L110.1,0h-8.4h-83H0
		v221h40.2h13.8l4.7-14.8l3.8-11.8l8.6,26.6h9.1H85h84.4h4.6h9.1h0h0.1l8.5-26.6l8.6,26.6h13.8h40.1V0H235.5z M55.5,173.2l-0.8,2.4
		l-4.4,13.7l-0.8,2.5l-0.5,1.6L45,206.2H13v-12.7v-1.6v-16.3v-2.4v-15.5v-3.2v-15.1v-3.2v-14.7v-4v-13.9V99V85.9v-5.6V68v-6.4V50.1
		V43v-3.1l1,3.1l2.3,7.2l0.7,2.1l3.1,9.4l2.1,6.4l4,12.3l1.8,5.6l2.8,8.7l1.4,4.4l1.5,4.8l4.4,13.9l1.3,4l4.7,14.7l1,3.2l0.1,0.3
		l4.7,14.7l1,3.2l4.8,15L55.5,173.2z M195.2,139.5l-2.8,8.9l-2,6.1l-1,3.2l-0.2,0.7l-4.7,14.7l-0.8,2.4l-5.2,16.3l-0.5,1.6l-4,12.7
		H80.2l-4-12.7l-0.5-1.6l-5.2-16.3l-0.8-2.4L65,158.5l-0.2-0.7l-1-3.2l-4.8-15.1l-1-3.2l-4.7-14.7l-1.3-4l-2.3-7.2l-2.1-6.7L46,99
		l-3-9.5l-1.2-3.6L40,80.3L36,68l-1.8-5.6l-0.3-0.8l-3.7-11.5L27.9,43l-3.5-10.7l-2.6-8l-3.1-9.5h83l3.7,9.5l3.1,8l4.2,10.7l2.8,7.2
		l4.5,11.5l0.3,0.8l2.2,5.6l4.5,11.5l4.5-11.5l2.2-5.6l0.3-0.8l4.5-11.5l2.8-7.2l4.2-10.7l3.1-8l3.7-9.5h83l-3.1,9.5l-2.6,8
		L226.3,43l-2.3,7.2l-3.7,11.5l-0.3,0.8l-1.8,5.6l-1.2,3.6l-2.8,8.6l-1.8,5.6l-1.2,3.6l-3,9.5l-1.5,4.8l-2.1,6.7l-2.3,7.2l-1.3,4
		l-4.7,14.7L195.2,139.5z M241.1,43v7.2v11.5V68v12.3v5.6V99v4.8v13.9v4v14.7v3.2v15.1v3.2v15.5v2.4v16.3v1.6v12.7h-31.8l-4.1-12.7
		l-0.5-1.6l-0.8-2.6l-4.4-13.7l-0.8-2.4l-0.2-0.7l4.7-14.8l1-3.2l4.8-15.1l1-3.2l4.7-14.7l1.3-4l4.4-13.9l1.5-4.8l1.4-4.4l2.8-8.7
		l1.8-5.6l4-12.3l2.1-6.4l3.7-11.5l2.3-7.2l1-3.1V43z"/>
</g>
<g>
	<path d="M286.1,27.3v35.5h-14.9V0.1h16.3l12.6,29.2l11.6-29.2h17.1v62.7h-15.2V26.6l-10.6,24.9h-6.3L286.1,27.3z"/>
	<path d="M392.7,62.7h-16.2V47.2h-14.2v15.6h-16.2V7.4c0-4.4,3-7.3,7.3-7.3h31.8c4.4,0,7.3,3,7.3,7.3V62.7z M376.5,33.6V14.8
		c0-1.1-0.9-1.9-2.2-1.9h-10c-1.1,0-2,0.8-2,1.9v18.8H376.5z"/>
	<path d="M448.7,0.1v13.6h-14.2v49.1h-16.2V13.6h-14.2V0.1H448.7z"/>
	<path d="M475.5,28.3v34.4h-14.9V0.1h14.9l18.8,34.5V0.1h14.9v62.7h-15.3L475.5,28.3z"/>
	<path d="M526.9,0.1h40.9v13.5H543v11h21.5v13.4H543v11.3h24.9v13.6h-40.9V0.1z"/>
	<path d="M596.3,62.7V44.4h-8.4c-3.8,0-7.1-3.3-7.1-7.4V0.1H597V29c0,0.5,0.6,0.9,1,0.9h12.9c0.6,0,0.6-0.5,0.6-0.9V0.1h16.2v36.9
		c0,4.1-3.2,7.4-7.1,7.4h-8.3v18.4H596.3z"/>
</g>
<g>
	<path d="M305,79.9c6.9,0,12.7,5.7,12.7,12.7v37.1c0,7.1-5.8,12.8-12.7,12.8h-33.7V79.9H305z M301.6,97.9c0-2.7-1.9-4.5-4.5-4.5
		h-9.7V129h9.7c2.7,0,4.5-1.9,4.5-4.5V97.9z"/>
	<path d="M334.9,79.9h40.9v13.5H351v11h21.5v13.4H351V129h24.9v13.6h-40.9V79.9z"/>
	<path d="M390.2,129h23.5c0.7,0,1-0.4,1-0.8V119c0-0.5-0.4-0.8-1-0.8h-16.2c-4.4,0-7.3-3-7.3-7.3V87.2c0-4.4,3-7.3,7.3-7.3h32.4
		v13.5h-22.6c-0.6,0-0.9,0.5-0.9,1v9.2c0,0.4,0.4,0.8,0.9,0.8h16.2c4.4,0,7.3,3,7.3,7.3v23.5c0,4.4-3,7.3-7.3,7.3h-33.2V129z"/>
	<path d="M463,142.5h-16.1V79.9H463V142.5z"/>
	<path d="M502.8,104.1h28.4v13.3H526v18c0,4.1-3.2,7.1-7.1,7.1h-31.4c-4,0-7.2-3.1-7.2-7.1V86.9c0-3.8,3.2-7.1,7.2-7.1h38.8v13.5
		h-29.1c-0.5,0-0.9,0.5-0.9,1V128c0,0.6,0.5,0.9,0.9,0.9h13c0.6,0,1-0.4,1-0.9v-10.6h-8.4V104.1z"/>
	<path d="M561,108.1v34.4h-14.9V79.9H561l18.8,34.5V79.9h14.9v62.7h-15.3L561,108.1z"/>
</g>
<g>
	<path d="M316.7,198.9v16.2c0,4.1-3.3,7.1-7.3,7.1h-31.5c-4,0-7.1-3.1-7.1-7.1v-48.5c0-3.8,3.2-7.1,7.1-7.1h31.5
		c4,0,7.3,3.2,7.3,7.1v16.2h-16.2v-8.7c0-0.6-0.5-1-0.8-1h-11.8c-0.6,0-1,0.5-1,1v33.7c0,0.6,0.5,0.9,1,0.9h11.8
		c0.4,0,0.8-0.4,0.8-0.9v-8.9H316.7z"/>
	<path d="M371.2,159.7c4.4,0,7.3,3,7.3,7.3v48c0,4.4-3,7.3-7.3,7.3h-32.2c-4.4,0-7.3-3-7.3-7.3v-48c0-4.4,3-7.3,7.3-7.3H371.2z
		 M362.3,174.2c0-0.6-0.5-1-1-1h-12.7c-0.4,0-0.8,0.5-0.8,1v33.7c0,0.5,0.5,0.8,0.8,0.8h12.7c0.6,0,1-0.4,1-0.8V174.2z"/>
	<path d="M410.6,186.9v35.5h-14.9v-62.7h16.3l12.6,29.2l11.6-29.2h17.1v62.7h-15.2v-36.1l-10.6,24.9h-6.3L410.6,186.9z"/>
	<path d="M509.6,159.7c3.8,0,7.1,3.1,7.1,7.1v32.2c0,3.7-3.2,7.1-7.1,7.1h-22.2v16.3h-16.2v-62.7H509.6z M499.6,192.7
		c0.5,0,0.8-0.5,0.8-0.8V174c0-0.5-0.4-0.9-0.8-0.9h-12.3v19.6H499.6z"/>
	<path d="M577.7,222.3h-16.2v-15.6h-14.2v15.6h-16.2V167c0-4.4,3-7.3,7.3-7.3h31.8c4.4,0,7.3,3,7.3,7.3V222.3z M561.5,193.2v-18.8
		c0-1.1-0.9-1.9-2.2-1.9h-10c-1.1,0-2,0.8-2,1.9v18.8H561.5z"/>
	<path d="M609.8,187.9v34.4H595v-62.7h14.9l18.8,34.5v-34.5h14.9v62.7h-15.3L609.8,187.9z"/>
	<path d="M674,222.3v-18.4h-8.4c-3.8,0-7.1-3.3-7.1-7.4v-36.9h16.2v28.9c0,0.5,0.6,0.9,1,0.9h12.9c0.6,0,0.6-0.5,0.6-0.9v-28.9h16.2
		v36.9c0,4.1-3.2,7.4-7.1,7.4h-8.3v18.4H674z"/>
</g>
</svg>
