<?xml version="1.0" encoding="utf-8"?>
<!-- Generator: Adobe Illustrator 22.1.0, SVG Export Plug-In . SVG Version: 6.00 Build 0)  -->
<svg version="1.1" id="Layer_1" xmlns="http://www.w3.org/2000/svg" xmlns:xlink="http://www.w3.org/1999/xlink" x="0px" y="0px"
	 viewBox="0 0 470.8 196.3" style="enable-background:new 0 0 470.8 196.3;" xml:space="preserve">
<style type="text/css">
	.st0{fill:#022C34;}
	.st1{fill:#809694;}
	.st2{fill:#CB4D28;}
</style>
<g>
	<g>
		<path class="st0" d="M229.5,48.1v20.4H221v-36h9.4l7.3,16.8l6.7-16.8h9.8v36h-8.8V47.7L239.3,62h-3.6L229.5,48.1z"/>
		<path class="st0" d="M290.8,68.5h-9.3v-9h-8.2v9h-9.3V36.7c0-2.5,1.7-4.2,4.2-4.2h18.3c2.5,0,4.2,1.7,4.2,4.2V68.5z M281.6,51.7
			V40.9c0-0.6-0.5-1.1-1.3-1.1h-5.8c-0.6,0-1.1,0.5-1.1,1.1v10.8H281.6z"/>
		<path class="st0" d="M323.1,32.4v7.8h-8.2v28.2h-9.3V40.2h-8.2v-7.8H323.1z"/>
		<path class="st0" d="M338.5,48.7v19.8H330v-36h8.5l10.8,19.9V32.4h8.5v36H349L338.5,48.7z"/>
		<path class="st0" d="M368.1,32.4h23.5v7.7h-14.3v6.3h12.4v7.7h-12.4v6.5h14.3v7.8h-23.5V32.4z"/>
		<path class="st0" d="M408,68.5V57.9h-4.8c-2.2,0-4.1-1.9-4.1-4.3V32.4h9.3V49c0,0.3,0.3,0.5,0.6,0.5h7.4c0.3,0,0.4-0.3,0.4-0.5
			V32.4h9.3v21.2c0,2.3-1.9,4.3-4.1,4.3h-4.8v10.6H408z"/>
	</g>
	<g>
		<path class="st0" d="M240.4,80.1c4,0,7.3,3.3,7.3,7.3v21.4c0,4.1-3.4,7.4-7.3,7.4H221v-36H240.4z M238.5,90.5
			c0-1.5-1.1-2.6-2.6-2.6h-5.6v20.5h5.6c1.5,0,2.6-1.1,2.6-2.6V90.5z"/>
		<path class="st0" d="M257.6,80.1h23.5v7.7h-14.3v6.3h12.4v7.7h-12.4v6.5h14.3v7.8h-23.5V80.1z"/>
		<path class="st0" d="M289.4,108.4h13.5c0.4,0,0.6-0.2,0.6-0.5v-5.2c0-0.3-0.2-0.5-0.6-0.5h-9.3c-2.5,0-4.2-1.7-4.2-4.2V84.3
			c0-2.5,1.7-4.2,4.2-4.2h18.6v7.7h-13c-0.3,0-0.5,0.3-0.5,0.6v5.3c0,0.2,0.2,0.5,0.5,0.5h9.3c2.5,0,4.2,1.7,4.2,4.2v13.5
			c0,2.5-1.7,4.2-4.2,4.2h-19.1V108.4z"/>
		<path class="st0" d="M331.3,116.2h-9.2v-36h9.2V116.2z"/>
		<path class="st0" d="M354.2,94.1h16.3v7.6h-3V112c0,2.4-1.8,4.1-4.1,4.1h-18c-2.3,0-4.2-1.8-4.2-4.1V84.2c0-2.2,1.9-4.1,4.2-4.1
			h22.3v7.7H351c-0.3,0-0.5,0.3-0.5,0.6v19.3c0,0.3,0.3,0.5,0.5,0.5h7.5c0.4,0,0.6-0.2,0.6-0.5v-6.1h-4.9V94.1z"/>
		<path class="st0" d="M387.7,96.4v19.8h-8.5v-36h8.5l10.8,19.9V80.1h8.5v36h-8.8L387.7,96.4z"/>
	</g>
	<g>
		<path class="st0" d="M247.1,150.4v9.3c0,2.4-1.9,4.1-4.2,4.1h-18.1c-2.3,0-4.1-1.8-4.1-4.1v-27.9c0-2.2,1.8-4.1,4.1-4.1h18.1
			c2.3,0,4.2,1.9,4.2,4.1v9.3h-9.3v-5c0-0.3-0.3-0.6-0.5-0.6h-6.8c-0.3,0-0.6,0.3-0.6,0.6v19.4c0,0.3,0.3,0.5,0.6,0.5h6.8
			c0.2,0,0.5-0.2,0.5-0.5v-5.1H247.1z"/>
		<path class="st0" d="M278.5,127.8c2.5,0,4.2,1.7,4.2,4.2v27.6c0,2.5-1.7,4.2-4.2,4.2h-18.5c-2.5,0-4.2-1.7-4.2-4.2V132
			c0-2.5,1.7-4.2,4.2-4.2H278.5z M273.4,136.2c0-0.3-0.3-0.6-0.6-0.6h-7.3c-0.2,0-0.5,0.3-0.5,0.6v19.4c0,0.3,0.3,0.5,0.5,0.5h7.3
			c0.3,0,0.6-0.2,0.6-0.5V136.2z"/>
		<path class="st0" d="M301.2,143.5v20.4h-8.5v-36h9.4l7.3,16.8l6.7-16.8h9.8v36H317v-20.8l-6.1,14.3h-3.6L301.2,143.5z"/>
		<path class="st0" d="M358.1,127.8c2.2,0,4.1,1.8,4.1,4.1v18.5c0,2.1-1.9,4.1-4.1,4.1h-12.8v9.4H336v-36H358.1z M352.4,146.8
			c0.3,0,0.5-0.3,0.5-0.5v-10.2c0-0.3-0.2-0.5-0.5-0.5h-7v11.3H352.4z"/>
		<path class="st0" d="M397.3,163.8H388v-9h-8.2v9h-9.3V132c0-2.5,1.7-4.2,4.2-4.2h18.3c2.5,0,4.2,1.7,4.2,4.2V163.8z M388,147.1
			v-10.8c0-0.6-0.5-1.1-1.3-1.1H381c-0.6,0-1.1,0.5-1.1,1.1v10.8H388z"/>
		<path class="st0" d="M415.8,144v19.8h-8.5v-36h8.5l10.8,19.9v-19.9h8.5v36h-8.8L415.8,144z"/>
		<path class="st0" d="M452.7,163.8v-10.6h-4.8c-2.2,0-4.1-1.9-4.1-4.3v-21.2h9.3v16.6c0,0.3,0.3,0.5,0.6,0.5h7.4
			c0.3,0,0.4-0.3,0.4-0.5v-16.6h9.3V149c0,2.3-1.9,4.3-4.1,4.3H462v10.6H452.7z"/>
	</g>
</g>
<circle class="st0" cx="98.1" cy="98.1" r="98.1"/>
<path class="st1" d="M113.3,138.3H50.2c-4.2,0-7.7,3.4-7.7,7.7c0,4.2,3.4,7.7,7.7,7.7h63.1c4.2,0,7.7-3.4,7.7-7.7
	C121,141.7,117.6,138.3,113.3,138.3z"/>
<path class="st1" d="M50.2,129.7h17.9c4.2,0,7.7-3.4,7.7-7.7c0-4.2-3.4-7.7-7.7-7.7H50.2c-4.2,0-7.7,3.4-7.7,7.7
	C42.6,126.3,46,129.7,50.2,129.7z"/>
<path class="st1" d="M50.2,105.8h25.6c4.2,0,7.7-3.4,7.7-7.7c0-4.2-3.4-7.7-7.7-7.7H50.2c-4.2,0-7.7,3.4-7.7,7.7
	C42.6,102.4,46,105.8,50.2,105.8z"/>
<path class="st1" d="M50.2,81.9h13c4.2,0,7.7-3.4,7.7-7.7c0-4.2-3.4-7.7-7.7-7.7h-13c-4.2,0-7.7,3.4-7.7,7.7
	C42.6,78.5,46,81.9,50.2,81.9z"/>
<path class="st1" d="M50.2,58c4.2,0,7.7-3.4,7.7-7.7c0-4.2-3.4-7.7-7.7-7.7s-7.7,3.4-7.7,7.7C42.6,54.6,46,58,50.2,58z"/>
<path class="st2" d="M146.1,138.3h-10.5c-4.2,0-7.7,3.4-7.7,7.7c0,4.2,3.4,7.7,7.7,7.7h10.5c4.2,0,7.7-3.4,7.7-7.7
	C153.7,141.7,150.3,138.3,146.1,138.3z"/>
<path class="st2" d="M146.1,114.4c-0.1,0-0.2,0-0.3,0v0h-16.6h-1.3h-38c-4.2,0-7.7,3.4-7.7,7.7c0,4.2,3.4,7.7,7.7,7.7h38h1.3h16.6v0
	c0.1,0,0.2,0,0.3,0c4.2,0,7.7-3.4,7.7-7.7C153.7,117.8,150.3,114.4,146.1,114.4z"/>
<path class="st2" d="M146.1,66.6c-0.1,0-0.2,0-0.3,0v0h-13.2c-4.2,0-7.7,3.4-7.7,7.7c0,4.2,3.4,7.7,7.7,7.7h13.2v0
	c0.1,0,0.2,0,0.3,0c4.2,0,7.7-3.4,7.7-7.7C153.7,70,150.3,66.6,146.1,66.6z"/>
<path class="st2" d="M146.1,58c4.2,0,7.7-3.4,7.7-7.7c0-4.2-3.4-7.7-7.7-7.7c-4.2,0-7.7,3.4-7.7,7.7C138.4,54.6,141.8,58,146.1,58z"
	/>
<path class="st2" d="M98,105.8c4.2,0,7.7-3.4,7.7-7.7c0-4.2-3.4-7.7-7.7-7.7c-4.2,0-7.7,3.4-7.7,7.7C90.3,102.4,93.8,105.8,98,105.8
	z"/>
<path class="st2" d="M120.2,105.8h25.6c4.2,0,7.7-3.4,7.7-7.7c0-4.2-3.4-7.7-7.7-7.7h-25.6c-4.2,0-7.7,3.4-7.7,7.7
	C112.6,102.4,116,105.8,120.2,105.8z"/>
</svg>
