<?xml version="1.0" encoding="utf-8"?>
<!-- Generator: Adobe Illustrator 22.0.1, SVG Export Plug-In . SVG Version: 6.00 Build 0)  -->
<svg version="1.1" id="Layer_1" xmlns="http://www.w3.org/2000/svg" xmlns:xlink="http://www.w3.org/1999/xlink" x="0px" y="0px"
	 viewBox="0 0 378.3 496.8" style="enable-background:new 0 0 378.3 496.8;" xml:space="preserve">
<style type="text/css">
	.st0{fill:#00ABE5;}
	.st1{fill:#1093D2;}
	.st2{fill:#216495;}
	.st3{fill:none;}
</style>
<g>
	<g>
		<path d="M16,375.3v37.6H0.3v-66.5h17.3l13.4,31l12.3-31h18.1v66.5H45.3v-38.3L34.1,401h-6.7L16,375.3z"/>
		<path d="M129.1,412.9h-17.1v-16.5H96.9v16.5H79.7v-58.7c0-4.6,3.2-7.8,7.8-7.8h33.8c4.6,0,7.8,3.2,7.8,7.8V412.9z M111.9,382v-20
			c0-1.2-1-2-2.4-2H98.9c-1.2,0-2.1,0.9-2.1,2v20H111.9z"/>
		<path d="M188.4,346.4v14.4h-15.1v52.1h-17.1v-52.1h-15.1v-14.4H188.4z"/>
		<path d="M216.9,376.3v36.5h-15.8v-66.5h15.8l19.9,36.6v-36.6h15.8v66.5h-16.2L216.9,376.3z"/>
		<path d="M271.4,346.4h43.4v14.3h-26.4v11.6h22.8v14.2h-22.8v12h26.4v14.4h-43.4V346.4z"/>
		<path d="M344.9,412.9v-19.5h-8.9c-4,0-7.5-3.5-7.5-7.9v-39.1h17.1V377c0,0.5,0.6,1,1.1,1h13.7c0.6,0,0.7-0.5,0.7-1v-30.6h17.1
			v39.1c0,4.3-3.4,7.9-7.5,7.9h-8.8v19.5H344.9z"/>
	</g>
	<g>
		<path d="M53.6,430.3c7.3,0,13.5,6,13.5,13.5v39.4c0,7.6-6.2,13.6-13.5,13.6H17.9v-66.5H53.6z M50.1,449.4c0-2.9-2-4.8-4.8-4.8H35
			v37.8h10.2c2.9,0,4.8-2,4.8-4.8V449.4z"/>
		<path d="M85.4,430.3h43.4v14.3h-26.4v11.6h22.8v14.2h-22.8v12h26.4v14.4H85.4V430.3z"/>
		<path d="M144,482.4h24.9c0.7,0,1.1-0.4,1.1-0.9v-9.6c0-0.5-0.4-0.9-1.1-0.9h-17.1c-4.6,0-7.8-3.2-7.8-7.8v-25.1
			c0-4.6,3.2-7.8,7.8-7.8h34.4v14.3h-24c-0.6,0-1,0.5-1,1.1v9.7c0,0.4,0.4,0.9,1,0.9h17.1c4.6,0,7.8,3.2,7.8,7.8V489
			c0,4.6-3.2,7.8-7.8,7.8H144V482.4z"/>
		<path d="M221.1,496.8h-17v-66.5h17V496.8z"/>
		<path d="M263.4,456h30.1v14.1H288v19.1c0,4.3-3.3,7.6-7.6,7.6h-33.3c-4.2,0-7.7-3.2-7.7-7.6v-51.4c0-4,3.4-7.5,7.7-7.5h41.2v14.3
			h-30.8c-0.5,0-1,0.5-1,1.1v35.6c0,0.6,0.5,1,1,1h13.8c0.7,0,1.1-0.4,1.1-1v-11.2h-9V456z"/>
		<path d="M325.1,460.3v36.5h-15.8v-66.5h15.8L345,467v-36.6h15.8v66.5h-16.2L325.1,460.3z"/>
	</g>
	<g>
		<polygon class="st0" points="350.5,22 226.9,22 221.4,36.2 345.9,36.2 		"/>
		<polygon class="st0" points="199.1,92.9 189.2,118.4 179.2,92.9 161.6,48.1 36.3,48.1 50.9,92.9 64,133.2 74,164.4 96.8,235.9 
			119.4,306.9 258.9,306.9 281.5,235.9 286.3,221 304.3,164.4 314.3,133.2 322.9,106.7 327.4,92.9 342,48.1 216.7,48.1 		"/>
		<polygon class="st0" points="151.4,22 27.8,22 32.4,36.2 156.9,36.2 		"/>
		<polygon class="st1" points="45.9,140.7 25.4,77.8 19.3,59.3 19.3,306.9 66.9,306.9 75,281.8 82.9,257.1 67.4,208.1 		"/>
		<polygon class="st1" points="320.7,177.5 295.4,256.8 303.5,281.8 311.6,306.9 359,306.9 359,59.3 332.4,140.7 		"/>
		<polygon points="332.4,140.7 295.4,256.8 320.7,177.5 		"/>
		<polygon points="156.9,36.2 32.4,36.2 36.3,48.1 161.6,48.1 		"/>
		<polygon class="st2" points="19.3,59.3 82.9,257.1 77.9,272.9 19.3,96.5 		"/>
		<polygon class="st2" points="295.4,256.8 359,59.3 359.5,96.5 300.6,272.9 		"/>
		<polygon class="st3" points="50.5,91.7 178.7,91.7 172,74.6 45,74.6 		"/>
		<polygon class="st3" points="25.4,77.8 24.3,74.6 19.3,74.6 19.3,91.7 29.9,91.7 		"/>
		<polygon class="st3" points="104.9,261.4 112.6,285.6 265.7,285.6 273.4,261.4 		"/>
		<polygon class="st3" points="189.1,118.4 182.4,101.2 53.6,101.2 59.6,119.5 318.7,119.5 322.9,106.7 324.7,101.2 195.9,101.2 		
			"/>
		<polygon class="st3" points="75,281.8 81.5,261.4 19.3,261.4 19.3,285.6 73.8,285.6 		"/>
		<polygon class="st3" points="327.8,91.7 333.3,74.6 206.3,74.6 199.6,91.7 		"/>
		<polygon class="st3" points="50.3,154.4 19.3,154.4 19.3,175.1 56.8,175.1 		"/>
		<polygon class="st3" points="67.4,208.1 67.2,207.6 19.3,207.6 19.3,230.1 74.3,230.1 		"/>
		<polygon class="st3" points="82.9,257.1 75.9,234.8 19.3,234.8 19.3,257.9 82.7,257.9 		"/>
		<polygon class="st3" points="58.7,181 19.3,181 19.3,202.9 65.7,202.9 		"/>
		<polygon class="st3" points="45.9,140.7 41.7,127.8 19.3,127.8 19.3,147.3 48,147.3 		"/>
		<polygon class="st3" points="64,133.2 68.5,147.3 309.8,147.3 314.3,133.2 316,127.8 62.3,127.8 		"/>
		<polygon class="st3" points="33,101.2 19.3,101.2 19.3,119.5 39,119.5 		"/>
		<polygon class="st3" points="311.6,306.9 359,306.9 359,288 305.5,288 		"/>
		<polygon class="st3" points="119.4,306.9 258.9,306.9 265,288 113.4,288 		"/>
		<polygon class="st3" points="359,59.3 357.4,63.9 359,63.9 		"/>
		<polygon class="st3" points="19.3,306.9 66.9,306.9 73,288 19.3,288 		"/>
		<polygon class="st3" points="350.5,22 226.9,22 221.4,36.2 345.9,36.2 		"/>
		<polygon class="st3" points="342,48.1 216.7,48.1 210.5,63.9 336.8,63.9 		"/>
		<polygon class="st3" points="161.6,48.1 156.9,36.2 151.4,22 27.8,22 32.4,36.2 36.3,48.1 41.5,63.9 167.8,63.9 		"/>
		<polygon class="st3" points="19.3,59.3 19.3,63.9 20.9,63.9 		"/>
		<polygon class="st3" points="94.9,230.1 283.4,230.1 286.3,221 290.5,207.6 87.8,207.6 		"/>
		<polygon class="st3" points="86.2,202.9 292.1,202.9 299,181 79.3,181 		"/>
		<polygon class="st3" points="74,164.4 77.4,175.1 300.9,175.1 304.3,164.4 307.5,154.4 70.8,154.4 		"/>
		<polygon class="st3" points="96.8,235.9 103.7,257.9 274.6,257.9 281.5,235.9 281.9,234.8 96.4,234.8 		"/>
		<polygon class="st3" points="303.5,281.8 304.7,285.6 359,285.6 359,261.4 296.9,261.4 		"/>
		<polygon class="st3" points="295.4,256.8 295.8,257.9 359,257.9 359,234.8 302.4,234.8 		"/>
		<polygon class="st3" points="321.5,175.1 359,175.1 359,154.4 328,154.4 		"/>
		<polygon class="st3" points="304,230.1 359,230.1 359,207.6 311.1,207.6 		"/>
		<polygon class="st3" points="339.3,119.5 359,119.5 359,101.2 345.3,101.2 		"/>
		<polygon class="st3" points="312.6,202.9 359,202.9 359,181 319.6,181 		"/>
		<polygon class="st3" points="332.4,140.7 330.3,147.3 359,147.3 359,127.8 336.6,127.8 		"/>
		<polygon class="st3" points="348.4,91.7 359,91.7 359,74.6 354,74.6 		"/>
		<polygon points="345.9,36.2 221.4,36.2 216.7,48.1 342,48.1 		"/>
		<polygon points="20.9,63.9 19.3,63.9 19.3,74.6 24.3,74.6 		"/>
		<polygon points="172,74.6 167.8,63.9 41.5,63.9 45,74.6 		"/>
		<polygon points="359,74.6 359,63.9 357.4,63.9 354,74.6 		"/>
		<polygon points="333.3,74.6 336.8,63.9 210.5,63.9 206.3,74.6 		"/>
		<polygon points="189.3,63.9 189,63.9 189.1,64.4 		"/>
		<polygon points="29.9,91.7 19.3,91.7 19.3,101.2 33,101.2 		"/>
		<polygon points="195.9,101.2 324.7,101.2 327.4,92.9 327.8,91.7 199.6,91.7 199.1,92.9 		"/>
		<polygon points="345.3,101.2 359,101.2 359,91.7 348.4,91.7 		"/>
		<polygon points="53.6,101.2 182.4,101.2 179.2,92.9 178.7,91.7 50.5,91.7 50.9,92.9 		"/>
		<polygon points="62.3,127.8 316,127.8 318.7,119.5 59.6,119.5 		"/>
		<polygon points="336.6,127.8 359,127.8 359,119.5 339.3,119.5 		"/>
		<polygon points="39,119.5 19.3,119.5 19.3,127.8 41.7,127.8 		"/>
		<polygon points="48,147.3 19.3,147.3 19.3,154.4 50.3,154.4 		"/>
		<polygon points="328,154.4 359,154.4 359,147.3 330.3,147.3 		"/>
		<polygon points="70.8,154.4 307.5,154.4 309.8,147.3 68.5,147.3 		"/>
		<polygon points="319.6,181 359,181 359,175.1 321.5,175.1 		"/>
		<polygon points="56.8,175.1 19.3,175.1 19.3,181 58.7,181 		"/>
		<polygon points="79.3,181 299,181 300.9,175.1 77.4,175.1 		"/>
		<polygon points="311.1,207.6 359,207.6 359,202.9 312.6,202.9 		"/>
		<polygon points="87.8,207.6 290.5,207.6 292.1,202.9 86.2,202.9 		"/>
		<polygon points="65.7,202.9 19.3,202.9 19.3,207.6 67.2,207.6 		"/>
		<polygon points="74.3,230.1 19.3,230.1 19.3,234.8 75.9,234.8 		"/>
		<polygon points="96.4,234.8 281.9,234.8 283.4,230.1 94.9,230.1 		"/>
		<polygon points="302.4,234.8 359,234.8 359,230.1 304,230.1 		"/>
		<polygon points="104.9,261.4 273.4,261.4 274.6,257.9 103.7,257.9 		"/>
		<polygon points="82.7,257.9 19.3,257.9 19.3,261.4 81.5,261.4 		"/>
		<polygon points="296.9,261.4 359,261.4 359,257.9 295.8,257.9 		"/>
		<polygon points="305.5,288 359,288 359,285.6 304.7,285.6 		"/>
		<polygon points="112.6,285.6 113.4,288 265,288 265.7,285.6 		"/>
		<polygon points="19.3,285.6 19.3,288 73,288 73.8,285.6 		"/>
		<path d="M350.5,0H226.9h-12.5l-5.1,13l-9.1,23.1l-4.7,11.9l-6.2,15.9l-0.2,0.4l-0.2-0.4l-6.2-15.9l-4.7-11.9L169,13l-5.1-13h-12.5
			H27.8H0v328.9h59.9h20.6l7.1-22l5.6-17.5l12.7,39.5h13.5h7.1h125.6h6.8h13.6h0h0.2l12.7-39.5l12.7,39.5h20.6h59.6V0H350.5z
			 M82.7,257.9l-1.1,3.6L75,281.8l-1.2,3.8L73,288l-6.1,18.9H19.3V288v-2.4v-24.2v-3.6v-23v-4.8v-22.4v-4.8V181v-5.9v-20.7v-7.1
			v-19.5v-8.3v-18.3v-9.5V74.6V63.9v-4.7l1.5,4.7l3.5,10.7l1,3.1l4.6,14l3.1,9.5l6,18.3l2.7,8.3l4.2,12.9l2.1,6.6l2.3,7.1l6.6,20.7
			l1.9,5.9l7,21.8l1.5,4.8l0.2,0.5l7,21.9l1.5,4.8l7.1,22.3L82.7,257.9z M290.5,207.6l-4.2,13.3l-2.9,9.1l-1.5,4.8l-0.3,1.1l-7,21.9
			l-1.1,3.6l-7.7,24.2L265,288l-6,18.9H119.4l-6-18.9l-0.8-2.4l-7.7-24.2l-1.1-3.6l-7-21.9l-0.3-1.1l-1.5-4.8l-7.1-22.4l-1.5-4.8
			l-7-21.8l-1.9-5.9L74,164.4l-3.2-10l-2.3-7.1L64,133.2l-1.7-5.3l-2.7-8.3l-6-18.3l-2.7-8.3l-0.4-1.2L45,74.6l-3.5-10.7l-5.2-15.9
			l-3.9-11.9L27.8,22h123.6l5.5,14.2l4.7,11.9l6.2,15.9l4.2,10.7l6.7,17.1l0.5,1.2l3.3,8.3l6.7,17.2l6.7-17.2l3.3-8.3l0.5-1.2
			l6.7-17.1l4.2-10.7l6.2-15.9l4.7-11.9l5.5-14.2h123.6l-4.6,14.2L342,48.1l-5.2,15.9l-3.5,10.7l-5.6,17.1l-0.4,1.2l-2.7,8.3
			l-1.8,5.4l-4.2,12.9l-2.7,8.3l-1.7,5.3l-4.5,14.1l-2.3,7.1l-3.2,10l-3.4,10.7L299,181l-7,21.8L290.5,207.6z M359,63.9v10.7v17.1
			v9.5v18.3v8.3v19.5v7.1v20.7v5.9v21.8v4.8v22.4v4.8v23v3.6v24.2v2.4v18.9h-47.4l-6.1-18.9l-0.8-2.4l-1.2-3.8l-6.6-20.4l-1.1-3.6
			l-0.3-1l7-22l1.5-4.8l7.1-22.4l1.5-4.8l7-21.8l1.9-5.9l6.6-20.7l2.3-7.1l2.1-6.6l4.2-12.9l2.7-8.3l6-18.3l3.1-9.5l5.6-17.1
			l3.5-10.7l1.5-4.7V63.9z"/>
	</g>
</g>
</svg>
