<?xml version="1.0" encoding="utf-8"?>
<!-- Generator: Adobe Illustrator 22.1.0, SVG Export Plug-In . SVG Version: 6.00 Build 0)  -->
<svg version="1.1" id="Layer_1" xmlns="http://www.w3.org/2000/svg" xmlns:xlink="http://www.w3.org/1999/xlink" x="0px" y="0px"
	 viewBox="0 0 256 209" style="enable-background:new 0 0 256 209;" xml:space="preserve">
<style type="text/css">
	.st0{fill:#12100E;}
	.st1{fill:#FFFFFF;}
</style>
<g>
	<circle class="st0" cx="128" cy="104.5" r="104.5"/>
	<path id="Shape" class="st1" d="M77.6,73.5c0.2-1.6-0.5-3.2-1.7-4.3L63.6,54.3v-2.2h38.3l29.6,64.9l26-64.9H194v2.2l-10.5,10.1
		c-0.9,0.7-1.4,1.8-1.2,3v74.3c-0.2,1.1,0.3,2.3,1.2,3l10.3,10.1v2.2H142v-2.2l10.7-10.4c1-1,1-1.4,1-3v-60l-29.7,75.3h-4L85.5,81.4
		v50.5c-0.3,2.1,0.4,4.3,1.9,5.8l13.9,16.8v2.2H62v-2.2l13.9-16.8c1.5-1.5,2.1-3.7,1.8-5.8V73.5z"/>
</g>
</svg>
