<?xml version="1.0" encoding="utf-8"?>
<!-- Generator: Adobe Illustrator 21.1.0, SVG Export Plug-In . SVG Version: 6.00 Build 0)  -->
<svg version="1.1" id="Layer_1" xmlns="http://www.w3.org/2000/svg" xmlns:xlink="http://www.w3.org/1999/xlink" x="0px" y="0px"
	 viewBox="0 0 2564.2 2954.1" style="enable-background:new 0 0 2564.2 2954.1;" xml:space="preserve">
<style type="text/css">
	.st0{fill:none;}
	.st1{fill:#8F362D;}
	.st2{fill:#26495E;}
</style>
<g>
	<path class="st0" d="M1341,1933.9l-410.6,331.9h948.2c6-17.7,10.5-37.2,13.4-58.7c3.6-26.7,33.1-53.8,56.8-73.2
		c86-70.2,175.3-136.5,262-205.8c31.9-25.5,76.4-50.3,87.4-84.4c7.5-23.1,16.1-46,25.3-68.7h-786L1341,1933.9z"/>
	<path class="st0" d="M1341,1125.1l196.8,159.1h935.7c-1.4-21.7-4.4-43.8-9.3-66.4c-4.7-21.8,10.8-47.2,13.4-71.4
		c12.8-117.6,25.4-235.3,38-353h-1585L1341,1125.1z"/>
	<path class="st1" d="M659.2,1071.8c-2.8,0.3-5.6,0.6-8.4,0.9c3.8,0.5,7.6,1,11.4,1.5L659.2,1071.8z"/>
	<path class="st1" d="M650.8,1986.2c2.9,0.3,5.7,0.7,8.6,1l3.1-2.5C658.6,1985.3,654.7,1985.8,650.8,1986.2z"/>
	<path class="st1" d="M646.5,2631.4l-28.2,22.8c18.4,7.6,35.6,11.2,40.2,6.6c64-63.1,112.4-15.4,169.6,8.1
		c30,12.3,75.8,11.9,104.4-2.6c151.3-76.8,288.1-43.6,420.6,43c92.1,60.2,121.9,53.6,176.1-44.7c28.6-51.9,53.1-106.1,82.3-157.6
		c20.4-35.9,42.2-94.9,69.7-98.8c102.3-14.6,168.1-56.6,197.4-142.5h-779.8l-83,67L646.5,2631.4z"/>
	<path class="st1" d="M1706.1,1775h617.5c64.7-159.4,161.8-310.7,149.9-490.8h-774.7l307.2,248.3L1706.1,1775z"/>
	<path class="st1" d="M2564.2,338.1c-13-5.9-26-11.9-39-17.8c-155.4,88.1-319.3,164.3-463,268.5c-89.2,64.7-178.3,99.4-281.9,117.8
		c-92,16.4-181.7,47.8-274.1,59c-54,6.5-121.5,2.3-164.6-25.5c-62.6-40.4-94.4-149-196.5-60c-4.5,3.9-29.7-13.5-43.6-23.2
		c-51.3-36.2-100.4-75.9-153.3-109.7c-76.1-48.5-152.1-126.3-232.8-132.6c-33.3-2.6-66.7-4.6-100.1-6.1l31.1,25.2l369.7,298.8
		l75.5,61h1424C2531.9,641.6,2548,489.9,2564.2,338.1z"/>
	<path class="st2" d="M1537.8,1284.2L1341,1125.1L930.6,793.4L590.6,518.5l-141-114c-144.4-0.9-290.3,3.6-438.6,3.6
		c-1.2,12.6-4.4,30.7-5.4,49.8c-0.2,4.2-0.4,8.4-0.4,12.6c0,24.3,0.1,48.6,0.2,72.8c0.3,83.3,1,166.7,1.8,250
		c1.6,163.6,3.7,327.2,4.3,490.8c0.6,163.7-0.3,327.3-4.6,490.8c-1.6,61.3-3.7,122.6-6.4,183.9c-6,136.4,38.1,232.4,105.8,306.9
		c29.7,32.6,63.9,61.2,100.5,87.2c18.9,13.4,38.4,26.2,58.3,38.5c6,3.7,12.1,7.5,18.2,11.1c92.3,55.5,178,108.9,251.8,182.6
		l55.3-44.7l339.8-274.7l410.6-331.9l196.6-158.9l303.7-245.5L1537.8,1284.2z M692.1,2025.4c-273.4,0-495.7-222.4-495.7-495.7
		s222.4-495.7,495.7-495.7s495.7,222.4,495.7,495.7S965.4,2025.4,692.1,2025.4z"/>
	<path class="st1" d="M692.1,1187.3c-188.8,0-342.4,153.6-342.4,342.4c0,188.8,153.6,342.4,342.4,342.4s342.4-153.6,342.4-342.4
		C1034.4,1340.8,880.9,1187.3,692.1,1187.3z"/>
</g>
</svg>
