<?xml version="1.0" encoding="utf-8"?>
<!-- Generator: Adobe Illustrator 22.0.1, SVG Export Plug-In . SVG Version: 6.00 Build 0)  -->
<svg version="1.1" id="Layer_1" xmlns="http://www.w3.org/2000/svg" xmlns:xlink="http://www.w3.org/1999/xlink" x="0px" y="0px"
	 viewBox="0 0 300 250" style="enable-background:new 0 0 300 250;" xml:space="preserve">
<style type="text/css">
	.st0{fill:#FFFFFF;}
	.st1{fill:none;}
	.st2{fill:#8F362D;}
	.st3{fill:#26495E;}
</style>
<rect y="0" class="st0" width="300" height="250"/>
<g>
	<path class="st1" d="M154.8,157.6l-33.5,27.1h77.3c0.5-1.4,0.9-3,1.1-4.8c0.3-2.2,2.7-4.4,4.6-6c7-5.7,14.3-11.1,21.4-16.8
		c2.6-2.1,6.2-4.1,7.1-6.9c0.6-1.9,1.3-3.8,2.1-5.6h-64.1L154.8,157.6z"/>
	<path class="st1" d="M154.8,91.6l16.1,13h76.3c-0.1-1.8-0.4-3.6-0.8-5.4c-0.4-1.8,0.9-3.8,1.1-5.8c1-9.6,2.1-19.2,3.1-28.8H121.3
		L154.8,91.6z"/>
	<path class="st2" d="M99.2,87.3c-0.2,0-0.5,0-0.7,0.1c0.3,0,0.6,0.1,0.9,0.1L99.2,87.3z"/>
	<path class="st2" d="M98.5,161.9c0.2,0,0.5,0.1,0.7,0.1l0.3-0.2C99.1,161.8,98.8,161.8,98.5,161.9z"/>
	<path class="st2" d="M98.2,214.5l-2.3,1.9c1.5,0.6,2.9,0.9,3.3,0.5c5.2-5.1,9.2-1.3,13.8,0.7c2.4,1,6.2,1,8.5-0.2
		c12.3-6.3,23.5-3.6,34.3,3.5c7.5,4.9,9.9,4.4,14.4-3.6c2.3-4.2,4.3-8.7,6.7-12.9c1.7-2.9,3.4-7.7,5.7-8.1
		c8.3-1.2,13.7-4.6,16.1-11.6h-63.6l-6.8,5.5L98.2,214.5z"/>
	<path class="st2" d="M184.6,144.6h50.4c5.3-13,13.2-25.3,12.2-40H184l25.1,20.3L184.6,144.6z"/>
	<path class="st2" d="M254.6,27.5c-1.1-0.5-2.1-1-3.2-1.5c-12.7,7.2-26,13.4-37.8,21.9c-7.3,5.3-14.5,8.1-23,9.6
		c-7.5,1.3-14.8,3.9-22.4,4.8c-4.4,0.5-9.9,0.2-13.4-2.1c-5.1-3.3-7.7-12.2-16-4.9c-0.4,0.3-2.4-1.1-3.6-1.9
		c-4.2-3-8.2-6.2-12.5-8.9c-6.2-4-12.4-10.3-19-10.8c-2.7-0.2-5.4-0.4-8.2-0.5l2.5,2.1l30.2,24.4l6.2,5h116.1
		C251.9,52.2,253.3,39.8,254.6,27.5z"/>
	<path class="st3" d="M170.9,104.6l-16.1-13l-33.5-27.1L93.6,42.2l-11.5-9.3c-11.8-0.1-23.7,0.3-35.8,0.3c-0.1,1-0.4,2.5-0.4,4.1
		c0,0.3,0,0.7,0,1c0,2,0,4,0,5.9c0,6.8,0.1,13.6,0.1,20.4c0.1,13.3,0.3,26.7,0.4,40c0,13.4,0,26.7-0.4,40c-0.1,5-0.3,10-0.5,15
		c-0.5,11.1,3.1,19,8.6,25c2.4,2.7,5.2,5,8.2,7.1c1.5,1.1,3.1,2.1,4.8,3.1c0.5,0.3,1,0.6,1.5,0.9c7.5,4.5,14.5,8.9,20.5,14.9
		l4.5-3.6l27.7-22.4l33.5-27.1l16-13l24.8-20L170.9,104.6z M101.9,165.1c-22.3,0-40.4-18.1-40.4-40.4s18.1-40.4,40.4-40.4
		s40.4,18.1,40.4,40.4S124.2,165.1,101.9,165.1z"/>
	<path class="st2" d="M101.9,96.7c-15.4,0-27.9,12.5-27.9,27.9s12.5,27.9,27.9,27.9s27.9-12.5,27.9-27.9
		C129.8,109.2,117.3,96.7,101.9,96.7z"/>
</g>
</svg>
