<?xml version="1.0" encoding="utf-8"?>
<!-- Generator: Adobe Illustrator 22.0.1, SVG Export Plug-In . SVG Version: 6.00 Build 0)  -->
<svg version="1.1" id="Layer_1" xmlns="http://www.w3.org/2000/svg" xmlns:xlink="http://www.w3.org/1999/xlink" x="0px" y="0px"
	 viewBox="0 0 300 250" style="enable-background:new 0 0 300 250;" xml:space="preserve">
<style type="text/css">
	.st0{fill:#F26937;}
	.st1{fill:none;}
	.st2{fill:#8B5F35;}
</style>
<rect y="0" class="st0" width="300" height="250"/>
<g>
	<g>
		<path d="M78.1,220.9v-21.5h4.5c3.3,0,5.7,0.2,7.1,0.5c1.4,0.3,2.6,0.8,3.7,1.6c1.4,1,2.4,2.2,3.1,3.7c0.7,1.5,1.1,3.2,1.1,5.1
			c0,1.9-0.4,3.6-1.1,5.1c-0.7,1.5-1.7,2.7-3.1,3.7c-1,0.7-2.2,1.2-3.6,1.6c-1.3,0.3-3.4,0.5-6.2,0.5h-1H78.1z M83.9,216h1
			c2.3,0,4-0.5,5-1.4c1.1-0.9,1.6-2.5,1.6-4.5s-0.5-3.6-1.6-4.5c-1.1-1-2.7-1.4-5-1.4h-1V216z"/>
		<path d="M107.2,220.9v-21.5h13.2v4.7h-7.5v3.7h7v4.6h-7v3.6h7.5v4.8H107.2z"/>
		<path d="M131.3,213.9c0.9,1,1.7,1.7,2.6,2.2s1.7,0.7,2.5,0.7c0.8,0,1.4-0.2,1.9-0.6c0.5-0.4,0.8-1,0.8-1.6c0-0.7-0.2-1.3-0.7-1.7
			s-1.4-0.8-3-1.2c-2.1-0.6-3.6-1.3-4.5-2.2c-0.9-0.9-1.3-2.2-1.3-3.8c0-2.1,0.7-3.7,2.1-5c1.4-1.3,3.2-2,5.4-2
			c1.2,0,2.3,0.2,3.4,0.5c1.1,0.3,2.1,0.8,3,1.5l-1.8,4.2c-0.7-0.6-1.4-1-2.1-1.3c-0.7-0.3-1.4-0.4-2.1-0.4c-0.7,0-1.3,0.2-1.7,0.5
			s-0.7,0.8-0.7,1.3c0,0.5,0.2,1,0.6,1.3c0.4,0.3,1.1,0.6,2.2,0.9l0.3,0.1c2.4,0.6,4,1.4,4.7,2.1c0.5,0.5,0.9,1.2,1.2,1.9
			c0.3,0.7,0.4,1.6,0.4,2.5c0,2.3-0.8,4.1-2.3,5.5c-1.5,1.4-3.5,2.1-6,2.1c-1.5,0-2.9-0.3-4.1-0.8s-2.4-1.3-3.6-2.4L131.3,213.9z"/>
		<path d="M154,220.9v-21.5h5.9v21.5H154z"/>
		<path d="M181,212.9v-4.5h11.5c0,0.1,0,0.3,0,0.5s0,0.4,0,0.8c0,3.7-1,6.6-2.9,8.6c-2,2-4.7,3.1-8.3,3.1c-1.7,0-3.3-0.3-4.7-0.8
			c-1.4-0.5-2.6-1.3-3.6-2.4c-1-1-1.8-2.2-2.4-3.7s-0.8-2.9-0.8-4.4c0-1.6,0.3-3.1,0.8-4.4c0.5-1.3,1.4-2.6,2.5-3.6
			c1.1-1,2.3-1.8,3.7-2.4c1.4-0.5,2.9-0.8,4.5-0.8c2.1,0,4,0.4,5.6,1.3c1.6,0.8,3,2.1,4.1,3.7l-5.1,2.4c-0.6-0.8-1.3-1.5-2.1-1.9
			c-0.8-0.4-1.6-0.6-2.6-0.6c-1.8,0-3.1,0.6-4.2,1.8c-1,1.2-1.5,2.8-1.5,4.8c0,2.1,0.5,3.7,1.5,4.8c1,1.2,2.4,1.8,4.2,1.8
			c1.5,0,2.7-0.4,3.7-1.1c1-0.7,1.6-1.7,1.7-2.9H181z"/>
		<path d="M202.2,220.9v-21.5h5.7l8.1,11.1c0.2,0.2,0.4,0.7,0.8,1.4c0.4,0.7,0.8,1.5,1.2,2.4c-0.1-0.9-0.2-1.7-0.3-2.4
			s-0.1-1.3-0.1-1.9v-10.6h5.6v21.5h-5.6l-8.1-11.1c-0.2-0.2-0.4-0.7-0.8-1.4c-0.4-0.7-0.7-1.5-1.2-2.4c0.1,0.9,0.2,1.7,0.3,2.4
			c0.1,0.7,0.1,1.3,0.1,1.9v10.6H202.2z"/>
	</g>
	<path class="st1" d="M122.9,49.9c-2.4-1.1-2.8-0.8-2.8-0.8c-0.5,0.9,3,6.3,4.3,8.3l4,6.2l3.4-0.1c-0.1-0.3-0.2-0.6-0.4-0.9
		C128.7,56.1,127,51.8,122.9,49.9z"/>
	<path class="st1" d="M134.5,49.5c-3.2-5.2-7.5-7.7-13.4-10.1c-2.2-0.9-5.6-1.7-9.6-2.6c-5.8-1.3-12.8-2.9-17.9-5.5l-5.9,0
		c0,0,0.1,0,0.1,0.1c0.1,0.1,6.1,8.2,18,15.3c7.4,4.5,10.4,10.2,13.6,16.3c0.1,0.3,0.3,0.5,0.4,0.8l2.5,0c-0.5-0.9-1-1.9-1.5-2.8
		c-1.8-3.4-3.5-6.5-5.8-9.7c-2-2.7-5.5-5.4-8.3-7.5c-3.4-2.5-4.9-3.7-4.3-4.9c0.5-1,2-1.2,10.1,0.6c16.2,3.6,22,14.9,25.3,24l2.4,0
		c-0.4-1.1-0.9-2.3-1.3-3.4C136.8,54.8,135.2,50.7,134.5,49.5z"/>
	<path class="st1" d="M112.1,40.9c-5.5-1.2-7.5-1.4-8.3-1.3c0.6,0.7,2.3,2,3.7,3.1c2.9,2.2,6.5,4.9,8.6,7.8c2.4,3.2,4.1,6.4,5.9,9.9
		c0.6,1.1,1.2,2.3,1.8,3.4l2.7-0.1l-3.5-5.5c-3.8-6-5.3-8.7-4.1-10c0.7-0.8,2.1-0.7,4.5,0.4c4.7,2.1,6.6,6.9,9.1,13.6
		c0.2,0.5,0.4,0.9,0.5,1.4l3-0.1C132.9,54.9,127.3,44.3,112.1,40.9z"/>
	<path class="st1" d="M150,68.3c-1.8,1.1-1.7,4.7,0.3,10.1c5,13.2,10.3,21.7,14.9,23.9c0.8-1.5,1.5-3,2.1-4.5
		c-2.5,0.5-5.1-0.7-7.5-3.7c-4.5-5.6-7.3-15.9-5.3-19.3c0.3-0.5,0.9-1.1,2.1-1c3.5,0.2,10.6,6.1,14.7,12.9c0.2-0.7,0.4-1.4,0.6-2.1
		c-1.5-2.6-3.2-5-5.2-7.2C160.6,70.6,153,66.5,150,68.3z"/>
	<path class="st1" d="M147.2,52c-0.1,2.4,2.1,4.8,6.8,7.6c1.4,0.8,3.3,1.6,5.5,2.5c4.8,2,10.6,4.4,15.4,9c0.3-1.8,0.4-2.8,0.4-2.9
		c0-0.9-0.1-1.7-0.1-2.5c-7.9-1-19-7.6-22-11.7c-1.3-1.7-0.9-2.8-0.5-3.4c1.7-2.1,6.3-4.7,10.7-7.1c0.2-0.1,0.4-0.2,0.6-0.3
		c-0.8-0.7-1.6-1.3-2.5-2c-1.3,0.8-2.7,1.6-4.3,2.3C150.6,46.4,147.3,49.2,147.2,52z"/>
	<path class="st1" d="M153.6,51.5c-0.3,0.4,0.3,1.2,0.5,1.6c2.7,3.7,13.4,10,20.7,11.1c-0.2-1.8-0.6-3.5-1-5.2
		c-2.9,0.8-6.6-0.3-9.6-3c-3.5-3.2-3.3-5.6-2.8-6.7c0.7-1.7,2.7-2.9,5.4-3.2c-0.6-0.6-1.2-1.3-1.9-1.9c-0.4,0.2-0.7,0.4-1.1,0.6
		C159.8,47,155.1,49.6,153.6,51.5z"/>
	<path class="st1" d="M156.6,75.1c-0.6,0-0.7,0.2-0.8,0.3c-1.6,2.7,0.8,12.3,5.2,17.7c1.5,1.9,3.9,4,6.6,3.1
		c0.2-0.1,0.4-0.2,0.6-0.3c0.5-1.2,0.9-2.3,1.3-3.5c-0.6-2.9-3.5-6.8-6.4-9.2c-1.9-1.6-3-1.8-3.3-1.7c-0.7,0.3-0.8,1.7-0.2,3.6
		c1,3.3,3.7,6.6,5.9,6c0.5-0.1,0.8-0.3,0.9-0.5c0.1-0.8-2.2-2.9-4.4-4.3c-0.3-0.2-0.4-0.7-0.2-1c0.2-0.3,0.7-0.4,1-0.2
		c1.3,0.8,5.4,3.6,5.1,5.8c-0.1,0.6-0.5,1.3-1.9,1.7c-3.5,0.9-6.5-3.6-7.6-7c-0.9-2.8-0.5-4.8,1-5.3c1.4-0.5,3.3,0.8,4.8,2
		c2.2,1.9,5,5.1,6.3,8.1c0.2-0.6,0.4-1.3,0.6-1.9C166.8,81.3,159.5,75.2,156.6,75.1z"/>
	<path class="st1" d="M164.6,103.5C158,100.3,152.1,87,149,78.9c-3-7.8-1.5-10.7,0.3-11.8c4.1-2.6,12.7,2.8,18.6,9.2
		c1.7,1.8,3.2,3.9,4.6,6.2c1-3.8,1.6-7.2,2-9.7c-4.6-4.8-10.7-7.4-15.6-9.4c-2.2-0.9-4.2-1.7-5.7-2.6c-5.2-3-7.6-5.9-7.5-8.9
		c0.2-3.3,3.7-6.5,10.6-9.7c1.3-0.6,2.5-1.2,3.6-1.9c-1-0.6-2-1.2-3.1-1.8c-3.6,3.2-7.9,5-12.1,5c-2,0-4-0.4-5.9-1.2
		c-6.6-2.8-6.8-6.5-6-10.4c-2.3-0.2-4.2-0.3-5.4-0.3c-0.1,0.2-0.4,0.4-0.6,0.4c-0.1,0-0.2,0-0.3-0.1c-0.1-0.1-0.2-0.2-0.3-0.3
		c-0.3,0-0.4,0-0.4,0l-16.9-0.1c2.9,0.7,5.3,1.1,7.4,1.5c5.1,0.8,8.8,1.4,13.3,5.9c0.3,0.3,0.3,0.7,0,1c-0.1,0.1-0.3,0.2-0.5,0.2
		c-0.2,0-0.4-0.1-0.5-0.2c-4.1-4.1-7.5-4.7-12.5-5.5c-3.2-0.5-7.1-1.2-12.2-2.9l-6.9,0c4.5,1.7,10,3,14.6,4.1
		c4.1,0.9,7.6,1.7,9.8,2.7c5.9,2.4,10.6,5.2,14,10.7c0.8,1.3,2.3,5.2,4.5,10.8c0.5,1.4,1.1,2.9,1.7,4.5c1.9,1.3,3.1,3.1,3.7,5.5
		c0.3,1.4,0.4,2.9,0.3,4.5c5,12.2,11.4,25.8,17.3,32.1C163.6,105.3,164.1,104.4,164.6,103.5z"/>
	<path class="st1" d="M162.8,49.8c-0.6,1.4,0.3,3.2,2.4,5.1c2.6,2.4,5.8,3.4,8.2,2.7c-0.5-1.5-1-2.9-1.7-4.3
		c-0.5,0.2-1.2,0.4-1.9,0.4c-1.1-0.1-2-0.6-2.9-1.6c-0.3-0.3-0.2-0.8,0.1-1c0.3-0.3,0.8-0.2,1,0.1c0.6,0.7,1.2,1,1.8,1.1
		c0.4,0,0.8-0.1,1.1-0.2c-0.9-1.7-1.9-3.2-3.1-4.7C165.4,47.4,163.3,48.4,162.8,49.8z"/>
	<path class="st1" d="M139.5,40.9c5.2,2.2,11.2,0.9,16-3.2c-0.7-0.3-1.4-0.7-2.1-1c-0.4-0.2-0.9-0.4-1.3-0.5c-2.4,1.7-4.9,2.5-7,2.5
		c-0.5,0-1.1,0-1.5-0.1c-2.7-0.6-4.2-2.6-3.8-5.2c0-0.2,0-0.4,0.1-0.6c-1.9-0.3-3.8-0.6-5.4-0.8C133.7,35.7,133.8,38.5,139.5,40.9z"
		/>
	<path class="st1" d="M126,115.4l2,3c-0.2-1.6-0.5-3.1-0.8-4.7C126.7,114.5,126.3,115.1,126,115.4z"/>
	<path class="st1" d="M143.8,37.2c1.8,0.4,4.2-0.1,6.6-1.6c-0.6-0.2-1.1-0.4-1.7-0.6c-0.8,0.3-1.5,0.5-2.2,0.5
		c-0.7,0-1.3-0.1-1.9-0.4c-0.8-0.4-1.4-1-1.7-1.6c-0.6-0.1-1.2-0.3-1.8-0.4c0,0.2,0,0.4-0.1,0.5C140.9,35.5,141.8,36.8,143.8,37.2z"
		/>
	<path class="st1" d="M105,48c-12.1-7.3-18.1-15.4-18.4-15.7c-0.2-0.3-0.2-0.7,0.1-0.9l-2.2,0c0.1,0.4,0.2,0.9,0.3,1.3
		c0.1,0.4-0.2,0.8-0.6,0.8c0,0-0.1,0-0.1,0c-0.3,0-0.6-0.2-0.7-0.6c-0.1-0.5-0.2-1-0.4-1.6l-2.4,0c0.8,3.1,0.4,4.5,0.3,4.6
		c-0.1,0.2-0.2,0.3-0.4,0.4l0,1.4c2.2,0.5,4.8,1.4,8,3.1c0.2,0.1,15,8.5,26.3,23.1l3.2-0.1c0-0.1-0.1-0.1-0.1-0.2
		C114.8,57.6,112,52.2,105,48z"/>
	<path class="st1" d="M188.9,146.1l6.6,0.2c-1-0.6-2.4-1.9-4.1-3.9c-6.1-7.2-7.7-17.3-7.8-27h-2.5c0.2,10.6,2.8,17.5,5.6,24.7
		C187.5,142.1,188.2,144,188.9,146.1z"/>
	<path class="st1" d="M157,109.9c0.8,0.6,1.6,1.2,2.4,2c1.1-1.4,2.1-2.9,3-4.5c-5.6-5.7-11.4-17.3-16.9-30.5
		c-0.2,1.1-0.4,2.2-0.7,3.3c0.6,1.2,1.2,2.4,1.9,3.6c6.1,11.6,8.4,16.4,7.1,17.9c-0.2,0.2-0.5,0.4-1,0.4c-0.2,0-0.5-0.1-0.8-0.2
		c-3-1.1-7.2-4.9-11.8-9.8c-0.5,1.1-1,2.1-1.6,3.2c5.1,4.7,10.2,8.5,15.1,12.1C154.8,108.2,155.9,109.1,157,109.9z"/>
	<path class="st1" d="M187.4,146c-0.7-1.8-1.3-3.6-2-5.4c-2.8-7.4-5.6-14.5-5.7-25.2h-16.4c7,7,14.7,17.4,20.3,30.5L187.4,146z"/>
	<path class="st1" d="M192.5,141.5c3.4,4,4.3,3.9,4.3,3.9c0.1-0.1,0.8-1-1.3-8.5c-1.3-4.6-3.3-10.1-4.7-14.2c-0.5-1.4-1-2.7-1.3-3.7
		c-0.4-1.1-0.6-1.6-0.8-1.9c-0.6,2.2,0,10.9,3.2,16.1c0.2,0.3,0.1,0.8-0.2,1c-0.3,0.2-0.8,0.1-1-0.3c-3.5-5.9-4.2-16.1-3-18
		c0.1-0.2,0.2-0.3,0.3-0.3H185C185.2,124.8,186.7,134.6,192.5,141.5z"/>
	<path class="st1" d="M200.1,130.5c2.3,5.1,3.5,10.5,4.4,16.2l5.3,0.2c-6.4-11.8-13.5-34.5-13.8-35.5c0-0.1-2.3-7.2-4.4-21.5
		l0.4,15.8C195.7,122.3,200,130.3,200.1,130.5C200,130.4,200,130.4,200.1,130.5z"/>
	<path class="st1" d="M190.8,118.4c0.4,1,0.8,2.3,1.3,3.7c5.2,14.7,7.5,22.6,5.6,24.3l5.2,0.2c-0.9-5.5-2.1-10.7-4.2-15.5
		c-0.2-0.5-3.4-6.6-6.7-18.9l0.1,3.3h-3C189.7,115.8,190.3,116.7,190.8,118.4z"/>
	<g>
		<g>
			<path class="st2" d="M195.8,31c-2.5,0-4.5,2.1-4.5,4.5l-0.5,75.5c0,2.5-2,4.5-4.5,4.5h-26.6c-2.5,0-4.3-0.2-4.1-0.5
				c0.2-0.3,1.1-2.3,2-4.6l15.7-37.7c0.2-2.4-0.2-6.4-0.9-8.7c0,0-6.4-21-20.3-27.1c-11.1-4.8-23-5.2-26.4-5.2c-0.7,0-0.7,0-0.7,0
				c-0.2,0-2.4,0-4.9,0l-36.6-0.2c-2.5,0-4.5,2-4.5,4.4L78.9,141c0,2.5,2,4.5,4.5,4.5h22.2c2.5,0,4.5-2,4.5-4.5l0.1-72.6
				c0-2.5,2-4.5,4.5-4.6l20.5-0.4c2.5,0,4.5-0.1,4.5-0.1c0,0,1.6,1.3,3.5,2.9c0,0,0.5,0.4,1.1,3.2c3.2,13.9-16.9,42.3-16.9,42.3
				c-1.4,2-1.5,5.3-0.1,7.4l14.8,22.8c1.3,2.1,4.5,3.8,6.9,3.8l66.1,0.2c2.5,0,4.5-2,4.5-4.5l-0.2-106.2c0-2.5-2-4.5-4.5-4.4
				L195.8,31z"/>
		</g>
		<g>
			<path d="M221.6,35.2l0.2,106.2c0,1.8-0.7,3.5-2,4.7c-1.3,1.3-2.9,2-4.7,2c0,0,0,0,0,0l-66.1-0.2c-3.2,0-7-2.1-8.8-4.8l-14.8-22.8
				c-1.8-2.8-1.7-7.2,0.2-9.9c5.5-7.7,19.1-29.9,16.6-40.5c-0.3-1.3-0.5-1.9-0.7-2.2c-1.2-1-2.1-1.7-2.6-2.1c-0.7,0-2,0-3.7,0.1
				l-20.5,0.4c-1.2,0-2.3,1.1-2.3,2.3l-0.1,72.6c0,3.7-3,6.7-6.7,6.7H83.3c-1.8,0-3.5-0.7-4.7-2s-2-3-2-4.7l0.2-105.3
				c0-1.8,0.7-3.5,2-4.7c1.3-1.3,3-2,4.7-1.9l36.6,0.2c2.7,0,4.6,0,4.8,0l0.8,0c3.5,0,15.9,0.4,27.3,5.4
				c14.7,6.4,21.3,27.6,21.5,28.5c0.8,2.6,1.2,6.8,1,9.6l0,0.3l-0.1,0.3l-15.7,37.7c-0.3,0.8-0.6,1.4-0.8,2c0.3,0,0.5,0,0.8,0h26.6
				c1.2,0,2.3-1,2.3-2.2l0.5-75.5c0-3.7,3-6.7,6.7-6.7l19-0.2c0,0,0,0,0.1,0c1.8,0,3.4,0.7,4.7,1.9 M138.8,61.2
				c1.3,0,1.4,0.1,1.8,0.2c0.3,0.1,0.3,0.1,3.9,3.2c0.5,0.4,1.2,1.3,1.9,4.4c3.4,14.7-16.4,42.9-17.3,44.1c-0.9,1.3-0.9,3.6-0.1,4.9
				l14.8,22.8c0.9,1.4,3.3,2.7,5,2.7l66.1,0.2c0,0,0,0,0,0c0.6,0,1.1-0.2,1.6-0.7c0.4-0.4,0.7-1,0.7-1.6l-0.2-106.2
				c0-0.6-0.2-1.1-0.7-1.6c-0.4-0.4-1-0.6-1.5-0.6c0,0,0,0,0,0l-19,0.2c-1.2,0-2.3,1.1-2.3,2.3l-0.5,75.5c0,3.7-3,6.7-6.7,6.7h-26.6
				c-4.5,0-5.5-0.4-6.1-1.7l-0.6-1.3l0.8-1c0.2-0.4,0.9-2.1,1.7-4.1l15.6-37.5c0.1-2.2-0.2-5.6-0.8-7.5c-0.1-0.2-6.3-20.1-19.1-25.7
				c-10.7-4.7-22.3-5-25.5-5H125c-0.3,0-3.6,0-4.9,0l-36.6-0.2c0,0,0,0,0,0c-0.6,0-1.1,0.2-1.6,0.6c-0.4,0.4-0.7,1-0.7,1.6L81.1,141
				c0,0.6,0.2,1.2,0.7,1.6s1,0.7,1.6,0.7h22.2c1.2,0,2.2-1,2.2-2.2l0.1-72.6c0-3.7,3-6.7,6.7-6.8l20.5-0.4
				C136.9,61.3,138.1,61.2,138.8,61.2z M153.9,113.5C153.9,113.6,153.9,113.6,153.9,113.5L153.9,113.5z M141.3,67.7L141.3,67.7
				L141.3,67.7z"/>
		</g>
	</g>
	<path class="st1" d="M79.4,47.9l0.3,11.9c3.2,4.5,6.4,9.9,9.3,16.3c5.9,12.9,9.3,21.4,12.1,28.3c3,7.6,5.2,13,8.9,19.8
		c0.1,0.2,0.2,0.3,0.3,0.5l0-4.7c-3.2-7-5.9-13.4-7.3-18.3c-2.7-9.1-7.1-17.8-10.6-24.8C88,68.6,85.2,63,87.3,60.6
		c0.4-0.4,1.1-0.8,2.3-0.6c4.3,1,13.2,9.4,20.5,19.5l0-3.7C101.1,63.5,89.8,53.8,79.4,47.9z"/>
	<path class="st1" d="M86.5,42.1c-2.9-1.6-5.2-2.4-7.3-2.8l0,1.7c7.6,3.4,18,9.6,27.8,20.5c1.1,1.2,2.1,2.4,3,3.6l0-1.2l1.7,0
		C100.7,50.2,86.7,42.2,86.5,42.1z"/>
	<path class="st1" d="M121.5,49.9c-2.4-1.1-2.8-0.8-2.8-0.8c-0.5,0.9,3,6.3,4.3,8.3l4,6.2l3.4-0.1c-0.1-0.3-0.2-0.6-0.4-0.9
		C127.4,56.1,125.7,51.8,121.5,49.9z"/>
	<path class="st1" d="M79.3,42.6l0.1,3.6C89.7,52,101,61.3,110.1,73.5l0-6c-1.3-1.7-2.6-3.4-4.1-5C96.7,52,86.7,46,79.3,42.6z"/>
	<path class="st1" d="M133.1,49.5c-3.2-5.2-7.5-7.7-13.4-10.1c-2.2-0.9-5.6-1.7-9.6-2.6c-5.8-1.3-12.8-2.9-17.9-5.5l-5.9,0
		c0,0,0.1,0,0.1,0.1c0.1,0.1,6.1,8.2,18,15.3c7.4,4.5,10.4,10.2,13.6,16.3c0.1,0.3,0.3,0.5,0.4,0.8l2.5,0c-0.5-0.9-1-1.9-1.5-2.8
		c-1.8-3.4-3.5-6.5-5.8-9.7c-2-2.7-5.5-5.4-8.3-7.5c-3.4-2.5-4.9-3.7-4.3-4.9c0.5-1,2-1.2,10.1,0.6c16.2,3.6,22,14.9,25.3,24l2.4,0
		c-0.4-1.1-0.9-2.3-1.3-3.4C135.5,54.8,133.9,50.7,133.1,49.5z"/>
	<path class="st1" d="M110.8,40.9c-5.5-1.2-7.5-1.4-8.3-1.3c0.6,0.7,2.3,2,3.7,3.1c2.9,2.2,6.5,4.9,8.6,7.8c2.4,3.2,4.1,6.4,5.9,9.9
		c0.6,1.1,1.2,2.3,1.8,3.4l2.7-0.1l-3.5-5.5c-3.8-6-5.3-8.7-4.1-10c0.7-0.8,2.1-0.7,4.5,0.4c4.7,2.1,6.6,6.9,9.1,13.6
		c0.2,0.5,0.4,0.9,0.5,1.4l3-0.1C131.6,54.9,126,44.3,110.8,40.9z"/>
	<path class="st1" d="M148.7,68.3c-1.8,1.1-1.7,4.7,0.3,10.1c5,13.2,10.3,21.7,14.9,23.9c0.8-1.5,1.5-3,2.1-4.5
		c-2.5,0.5-5.1-0.7-7.5-3.7c-4.5-5.6-7.3-15.9-5.3-19.3c0.3-0.5,0.9-1.1,2.1-1c3.5,0.2,10.6,6.1,14.7,12.9c0.2-0.7,0.4-1.4,0.6-2.1
		c-1.5-2.6-3.2-5-5.2-7.2C159.3,70.6,151.6,66.5,148.7,68.3z"/>
	<path class="st1" d="M89.3,61.5c-0.3-0.1-0.8-0.1-1,0.1c-1.5,1.6,1.7,7.8,5.3,14.9c3.6,7,8,15.8,10.7,25c1.2,4.2,3.3,9.4,5.9,15.2
		l0-7c-1.2-4-2.1-7.8-2.9-11.2c-1-4.1-1.9-7.7-2.7-9.7c-3.2-7.6-7.6-16.6-10.7-18.9c-0.3-0.2-0.4-0.7-0.1-1c0.2-0.3,0.7-0.4,1-0.1
		c4.2,3.1,9.6,15.7,11.1,19.5c0.9,2.1,1.7,5.6,2.8,9.9c0.5,1.9,1,4,1.5,6.1l-0.1-16.9c-3.4-5.4-6.7-9.7-6.8-9.8
		c-0.2-0.3-0.2-0.8,0.1-1c0.3-0.2,0.8-0.2,1,0.1c0.2,0.3,2.8,3.5,5.6,7.9l0-2.5C102.7,71.3,93.2,62.3,89.3,61.5z M93.7,72.4
		c0.3-0.2,0.8-0.1,1,0.2c0.3,0.5,8.1,13.1,9.4,21.3c0.1,0.4-0.2,0.8-0.6,0.8c0,0-0.1,0-0.1,0c-0.3,0-0.7-0.2-0.7-0.6
		c-1.3-7.9-9.2-20.7-9.2-20.8C93.2,73.1,93.3,72.6,93.7,72.4z"/>
	<path class="st1" d="M145.8,52c-0.1,2.4,2.1,4.8,6.8,7.6c1.4,0.8,3.3,1.6,5.5,2.5c4.8,2,10.6,4.4,15.4,9c0.3-1.8,0.4-2.8,0.4-2.9
		c0-0.9-0.1-1.7-0.1-2.5c-7.9-1-19-7.6-22-11.7c-1.3-1.7-0.9-2.8-0.5-3.4c1.7-2.1,6.3-4.7,10.7-7.1c0.2-0.1,0.4-0.2,0.6-0.3
		c-0.8-0.7-1.6-1.3-2.5-2c-1.3,0.8-2.7,1.6-4.3,2.3C149.3,46.4,146,49.2,145.8,52z"/>
	<path class="st1" d="M80.7,104.7l0.2,10.1c0.2,0.5,0.4,0.9,0.6,1.4c1.3,3.6,0.9,6.4-0.4,9l0.1,4.2c2.7-3.7,4.2-6.1,4.2-6.1
		c0.2-0.3,0.7-0.4,1-0.2c0.3,0.2,0.4,0.7,0.2,1c0,0.1-2,3.1-5.4,7.7l0.1,3.4c1.8-1.8,3.9-3.1,6.1-3.7c5.8-1.5,8,3.3,11.5,13.1
		l4.7-0.3c-10.8-21.4-18.1-26.6-18.2-26.7c-0.3-0.2-0.4-0.7-0.2-1c0.2-0.3,0.7-0.4,1-0.2c0.4,0.3,7.9,5.6,19,27.8l4.4-0.2
		c-2.9-6.3-6.6-13-11.1-20.1C92.4,114.7,86.5,108.8,80.7,104.7z"/>
	<path class="st1" d="M80.6,103c6.2,4.2,12.6,10.4,19,20.2c4.4,6.7,7.9,13.1,10.7,19.2l0-6.4c-8.3-15.9-19.1-31.6-30-46.3L80.6,103z
		"/>
	<path class="st1" d="M152.2,51.5c-0.3,0.4,0.3,1.2,0.5,1.6c2.7,3.7,13.4,10,20.7,11.1c-0.2-1.8-0.6-3.5-1-5.2
		c-2.9,0.8-6.6-0.3-9.6-3c-3.5-3.2-3.3-5.6-2.8-6.7c0.7-1.7,2.7-2.9,5.4-3.2c-0.6-0.6-1.2-1.3-1.9-1.9c-0.4,0.2-0.7,0.4-1.1,0.6
		C158.4,47,153.8,49.6,152.2,51.5z"/>
	<path class="st1" d="M155.2,75.1c-0.6,0-0.7,0.2-0.8,0.3c-1.6,2.7,0.8,12.3,5.2,17.7c1.5,1.9,3.9,4,6.6,3.1
		c0.2-0.1,0.4-0.2,0.6-0.3c0.5-1.2,0.9-2.3,1.3-3.5c-0.6-2.9-3.5-6.8-6.4-9.2c-1.9-1.6-3-1.8-3.3-1.7c-0.7,0.3-0.8,1.7-0.2,3.6
		c1,3.3,3.7,6.6,5.9,6c0.5-0.1,0.8-0.3,0.9-0.5c0.1-0.8-2.2-2.9-4.4-4.3c-0.3-0.2-0.4-0.7-0.2-1c0.2-0.3,0.7-0.4,1-0.2
		c1.3,0.8,5.4,3.6,5.1,5.8c-0.1,0.6-0.5,1.3-1.9,1.7c-3.5,0.9-6.5-3.6-7.6-7c-0.9-2.8-0.5-4.8,1-5.3c1.4-0.5,3.3,0.8,4.8,2
		c2.2,1.9,5,5.1,6.3,8.1c0.2-0.6,0.4-1.3,0.6-1.9C165.5,81.3,158.1,75.2,155.2,75.1z"/>
	<path class="st1" d="M163.2,103.5c-6.6-3.2-12.5-16.5-15.6-24.7c-3-7.8-1.5-10.7,0.3-11.8c4.1-2.6,12.7,2.8,18.6,9.2
		c1.7,1.8,3.2,3.9,4.6,6.2c1-3.8,1.6-7.2,2-9.7c-4.6-4.8-10.7-7.4-15.6-9.4c-2.2-0.9-4.2-1.7-5.7-2.6c-5.2-3-7.6-5.9-7.5-8.9
		c0.2-3.3,3.7-6.5,10.6-9.7c1.3-0.6,2.5-1.2,3.6-1.9c-1-0.6-2-1.2-3.1-1.8c-3.6,3.2-7.9,5-12.1,5c-2,0-4-0.4-5.9-1.2
		c-6.6-2.8-6.8-6.5-6-10.4c-2.3-0.2-4.2-0.3-5.4-0.3c-0.1,0.2-0.4,0.4-0.6,0.4c-0.1,0-0.2,0-0.3-0.1c-0.1-0.1-0.2-0.2-0.3-0.3
		c-0.3,0-0.4,0-0.4,0l-16.9-0.1c2.9,0.7,5.3,1.1,7.4,1.5c5.1,0.8,8.8,1.4,13.3,5.9c0.3,0.3,0.3,0.7,0,1c-0.1,0.1-0.3,0.2-0.5,0.2
		c-0.2,0-0.4-0.1-0.5-0.2c-4.1-4.1-7.5-4.7-12.5-5.5c-3.2-0.5-7.1-1.2-12.2-2.9l-6.9,0c4.5,1.7,10,3,14.6,4.1
		c4.1,0.9,7.6,1.7,9.8,2.7c5.9,2.4,10.6,5.2,14,10.7c0.8,1.3,2.3,5.2,4.5,10.8c0.5,1.4,1.1,2.9,1.7,4.5c1.9,1.3,3.1,3.1,3.7,5.5
		c0.3,1.4,0.4,2.9,0.3,4.5c5,12.2,11.4,25.8,17.3,32.1C162.3,105.3,162.8,104.4,163.2,103.5z"/>
	<path class="st1" d="M161.4,49.8c-0.6,1.4,0.3,3.2,2.4,5.1c2.6,2.4,5.8,3.4,8.2,2.7c-0.5-1.5-1-2.9-1.7-4.3
		c-0.5,0.2-1.2,0.4-1.9,0.4c-1.1-0.1-2-0.6-2.9-1.6c-0.3-0.3-0.2-0.8,0.1-1c0.3-0.3,0.8-0.2,1,0.1c0.6,0.7,1.2,1,1.8,1.1
		c0.4,0,0.8-0.1,1.1-0.2c-0.9-1.7-1.9-3.2-3.1-4.7C164.1,47.4,162,48.4,161.4,49.8z"/>
	<path class="st1" d="M138.2,40.9c5.2,2.2,11.2,0.9,16-3.2c-0.7-0.3-1.4-0.7-2.1-1c-0.4-0.2-0.9-0.4-1.3-0.5c-2.4,1.7-4.9,2.5-7,2.5
		c-0.5,0-1.1,0-1.5-0.1c-2.7-0.6-4.2-2.6-3.8-5.2c0-0.2,0-0.4,0.1-0.6c-1.9-0.3-3.8-0.6-5.4-0.8C132.3,35.7,132.5,38.5,138.2,40.9z"
		/>
	<path class="st1" d="M90.2,92.1c-1.1-4.4-4.7-14.4-8.4-20.2c-0.5-0.8-1.2-1.8-1.9-2.8l0.1,6.1c3.5,5.4,7.3,11.5,9.7,16.1
		C89.9,91.6,90.1,91.8,90.2,92.1z"/>
	<path class="st1" d="M124.7,115.4l2,3c-0.2-1.6-0.5-3.1-0.8-4.7C125.4,114.5,125,115.1,124.7,115.4z"/>
	<path class="st1" d="M99.7,105c-2.8-6.8-6.2-15.3-12-28.2c-2.5-5.5-5.2-10.3-8-14.3l0.1,4.1c1.2,1.7,2.3,3.2,3.1,4.5
		c4.1,6.6,9.8,21.8,8.8,23.6c-0.2,0.3-0.4,0.4-0.8,0.4c-0.5,0-1-0.2-2.5-3.2c-2.1-4-5.3-9.2-8.4-14.1l0.1,4.1
		c1.8,2.4,3.6,4.8,5.3,7.1c6.9,9.2,12.8,17.1,15.5,21.4c0.2,0.3,0.1,0.8-0.2,1c-0.1,0.1-0.2,0.1-0.4,0.1c-0.2,0-0.5-0.1-0.6-0.3
		c-2.6-4.2-8.5-12.1-15.4-21.3c-1.4-1.9-2.7-3.7-4.1-5.4l0.1,2.7c10.8,14.6,21.5,30.1,30,45.8l0-5c-0.5-1-1-2-1.5-2.9
		C105,118.1,102.8,112.6,99.7,105z"/>
	<path class="st1" d="M142.5,37.2c1.8,0.4,4.2-0.1,6.6-1.6c-0.6-0.2-1.1-0.4-1.7-0.6c-0.8,0.3-1.5,0.5-2.2,0.5
		c-0.7,0-1.3-0.1-1.9-0.4c-0.8-0.4-1.4-1-1.7-1.6c-0.6-0.1-1.2-0.3-1.8-0.4c0,0.2,0,0.4-0.1,0.5C139.5,35.5,140.5,36.8,142.5,37.2z"
		/>
	<path class="st1" d="M86.4,138.9c-1.5-0.1-2.7,1.3-3.5,2.4c-0.5,0.8-1,1.8-1.4,2.9l0,1.3l10.7-0.6C89.7,140.1,87.7,139,86.4,138.9z
		"/>
	<path class="st1" d="M87.7,132.9c-2.3,0.6-4.5,2.1-6.4,4.2l0.1,4c0.1-0.2,0.2-0.3,0.3-0.5c1.7-2.7,3.5-3.2,4.7-3.1
		c2.5,0.1,5,2.6,7.3,7.4l3.6-0.2C93.9,134.8,92.1,131.7,87.7,132.9z"/>
	<path class="st1" d="M103.6,48c-12.1-7.3-18.1-15.4-18.4-15.7c-0.2-0.3-0.2-0.7,0.1-0.9l-2.2,0c0.1,0.4,0.2,0.9,0.3,1.3
		c0.1,0.4-0.2,0.8-0.6,0.8c0,0-0.1,0-0.1,0c-0.3,0-0.6-0.2-0.7-0.6c-0.1-0.5-0.2-1-0.4-1.6l-2.4,0c0.8,3.1,0.4,4.5,0.3,4.6
		c-0.1,0.2-0.2,0.3-0.4,0.4l0,1.4c2.2,0.5,4.8,1.4,8,3.1c0.2,0.1,15,8.5,26.3,23.1l3.2-0.1c0-0.1-0.1-0.1-0.1-0.2
		C113.5,57.6,110.7,52.2,103.6,48z"/>
	<path class="st1" d="M187.6,146.1l6.6,0.2c-1-0.6-2.4-1.9-4.1-3.9c-6.1-7.2-7.7-17.3-7.8-27h-2.5c0.2,10.6,2.8,17.5,5.6,24.7
		C186.1,142.1,186.9,144,187.6,146.1z"/>
	<path class="st1" d="M155.7,109.9c0.8,0.6,1.6,1.2,2.4,2c1.1-1.4,2.1-2.9,3-4.5c-5.6-5.7-11.4-17.3-16.9-30.5
		c-0.2,1.1-0.4,2.2-0.7,3.3c0.6,1.2,1.2,2.4,1.9,3.6c6.1,11.6,8.4,16.4,7.1,17.9c-0.2,0.2-0.5,0.4-1,0.4c-0.2,0-0.5-0.1-0.8-0.2
		c-3-1.1-7.2-4.9-11.8-9.8c-0.5,1.1-1,2.1-1.6,3.2c5.1,4.7,10.2,8.5,15.1,12.1C153.4,108.2,154.6,109.1,155.7,109.9z"/>
	<path class="st1" d="M186.1,146c-0.7-1.8-1.3-3.6-2-5.4c-2.8-7.4-5.6-14.5-5.7-25.2H162c7,7,14.7,17.4,20.3,30.5L186.1,146z"/>
	<path class="st1" d="M191.2,141.5c3.4,4,4.3,3.9,4.3,3.9c0.1-0.1,0.8-1-1.3-8.5c-1.3-4.6-3.3-10.1-4.7-14.2c-0.5-1.4-1-2.7-1.3-3.7
		c-0.4-1.1-0.6-1.6-0.8-1.9c-0.6,2.2,0,10.9,3.2,16.1c0.2,0.3,0.1,0.8-0.2,1c-0.3,0.2-0.8,0.1-1-0.3c-3.5-5.9-4.2-16.1-3-18
		c0.1-0.2,0.2-0.3,0.3-0.3h-2.9C183.8,124.8,185.4,134.6,191.2,141.5z"/>
	<path class="st1" d="M198.7,130.5c2.3,5.1,3.5,10.5,4.4,16.2l5.3,0.2c-6.4-11.8-13.5-34.5-13.8-35.5c0-0.1-2.3-7.2-4.4-21.5
		l0.4,15.8C194.4,122.3,198.6,130.3,198.7,130.5C198.7,130.4,198.7,130.4,198.7,130.5z"/>
	<path class="st1" d="M189.5,118.4c0.4,1,0.8,2.3,1.3,3.7c5.2,14.7,7.5,22.6,5.6,24.3l5.2,0.2c-0.9-5.5-2.1-10.7-4.2-15.5
		c-0.2-0.5-3.4-6.6-6.7-18.9l0.1,3.3h-3C188.4,115.8,188.9,116.7,189.5,118.4z"/>
	<path class="st1" d="M210.1,146.9l5.4,0.2c-14-11-18-41.9-18.2-43.7c-0.3-1.4-9.3-44.8-3.2-71.1l0.2-0.9l-5.5,0.1l1,42.1
		c2.1,24.8,6.1,37.1,6.1,37.3C196,111.1,203.6,135.4,210.1,146.9z"/>
	<path class="st1" d="M146.5,128.3c-3.2-3-6-5.7-8.1-7.9c-3.2-3.6-5.8-8-8.2-13.2c-1.2,1.8-2.3,3.5-3.2,4.8c0.6,3.1,1.1,6.1,1.5,9.1
		l6.6,9.8c1.1-2.2,2.6-3.4,4.5-3.7c3.2-0.5,7.2,2.1,10.8,7.3c1.5,2,2.8,5.7,4.5,10.3l8.4,0.3C157.3,138.5,151.4,132.9,146.5,128.3z"
		/>
	<path class="st1" d="M143,140.5C143,140.5,143,140.5,143,140.5c0,0-0.1,0.1-0.3,0.4c-0.1,0.3-0.1,0.8-0.1,1.3l1.5,2.2l1.8,0.1
		C144.3,141.3,143.3,140.5,143,140.5z"/>
	<path class="st1" d="M152.6,126.5c-8.4-5.8-14.5-12.7-14.7-16.9c-0.1-1.2,0.3-2.1,1.1-2.8c0.5-0.4,1.2-0.5,2.1-0.3
		c6.8,1.4,27,20.3,32.5,31.7c1.5,3.2,1.7,3.8,1,4.3c-0.8,0.5-1.4-0.1-5-4.5c-4.9-5.9-14.1-16.8-22.2-20.9c-0.4-0.2-0.5-0.6-0.3-1
		c0.2-0.4,0.6-0.5,1-0.3c8.3,4.2,17.2,14.8,22.6,21.2c0.6,0.7,1.2,1.5,1.8,2.1c-0.1-0.1-0.1-0.2-0.2-0.4
		c-5.7-11.9-25.5-29.6-31.5-30.9c-0.7-0.1-0.9,0-0.9,0c-0.5,0.4-0.7,0.9-0.6,1.6c0.2,3.6,6.2,10.4,14.1,15.8
		c5.2,3.6,12.6,12.4,18.5,20.2l8.7,0.3c-5.5-12.7-13.4-23.4-20.7-30.4h-4.6l0.8-0.9c0.4-0.5,0.8-1,1.2-1.5c-0.8-0.7-1.6-1.4-2.4-2
		c-1.1-0.8-2.2-1.7-3.4-2.5c-4.8-3.5-9.9-7.3-14.9-12c-1.8,3.3-3.7,6.5-5.4,9.2c2.5,5.4,5,10,8.3,13.6c2,2.2,4.8,4.8,8,7.8
		c5.2,4.8,11.5,10.8,17.8,18l4.8,0.2C164.3,137.9,157.4,129.8,152.6,126.5z"/>
	<path class="st1" d="M144.1,134.8c-1.2-0.2-2.6,0.9-4.4,2.6c-0.1,0.1-0.1,0.1-0.2,0.2l1.9,2.8c0.5-1.2,1.3-1.3,1.8-1.3
		c1.4,0.2,3,2.7,4.4,5.5l2.4,0.1c-0.6-1.7-1.1-3-1.6-4.1C146.8,137,145.4,135.1,144.1,134.8z"/>
	<path class="st1" d="M139.8,128.7c-1.5,0.2-2.8,1.5-3.8,3.7l2.6,4c2.1-2.1,3.8-3.3,5.6-2.9c1.9,0.4,3.5,2.3,5.4,6.6
		c0.5,1.2,1.1,2.8,1.8,4.7l1.8,0.1c-1.5-4.1-2.8-7.6-4.1-9.4C146,130.8,142.5,128.3,139.8,128.7z"/>
	<path class="st1" d="M151.2,100.6c0.1,0,0.2,0.1,0.2,0.1c0.3-1.6-4.3-10.4-7.3-16.2c-0.4-0.7-0.8-1.5-1.2-2.3
		c-0.9,2.8-2.1,5.7-3.4,8.6C144.2,95.7,148.3,99.5,151.2,100.6z"/>
	<path class="st1" d="M198.7,103.1C198.7,103.2,198.7,103.2,198.7,103.1c0.1,0.4,4.4,34.8,19.4,44.1l1.4,0.1l-0.4-17.1
		c-1.3,3.1-3.1,5.1-5.2,5.2c-0.1,0-0.1,0-0.2,0c-6.6,0-12.9-18.5-17.6-52.3c-3.5-25.3-2.4-41.5,3.3-45.5c1.6-1.2,3.5-1.3,5.5-0.3
		c4.6,2.3,9.6,10.3,12.4,21.3l-0.7-27.4l-1.1,0c0,0,0,0.1,0,0.1c1.5,9.3,1.5,10.1,0.5,10.5c-0.1,0.1-0.3,0.1-0.4,0.1
		c-0.6,0-1.2-0.7-2.2-2c-2.8-3.5-8.1-10-15.9-5.3c-0.3,0.2-0.8,0.1-1-0.2c-0.2-0.3-0.1-0.8,0.2-1c8.9-5.3,14.9,2.1,17.8,5.6
		c0.2,0.3,0.5,0.6,0.7,0.9c-0.1-1.8-0.7-5.6-1.2-8.3c0-0.1,0-0.2-0.1-0.3l-18.4,0.2l-0.3,1.2C189.4,58.9,198.6,102.7,198.7,103.1z"
		/>
	<path class="st1" d="M204.3,38.6c-1.5-0.8-2.9-0.7-4,0.1c-1.6,1.1-3.6,4.2-4.4,12.5c-0.7,7.8-0.2,18.5,1.7,31.7
		c5.3,38,11.9,51.3,16.3,51.1c2-0.1,3.9-3.2,5.2-7.9l-0.2-9c-1,8.3-2.6,10.2-4,10.5c-2,0.6-3.8-2.1-4.9-4.1
		c-4.7-8.5-2.4-12.4,0.2-17c2.7-4.7,5.8-9.9,3.2-21.9c-1.7-7.8-4.3-12-7.1-11.4c-3.7,0.7-7.3,9.2-6.3,14.5c0.2,1,0.4,2.2,0.6,3.5
		c0.9,5.4,2.6,15.4,5,15.6c0.6,0.1,2.4-0.7,5.4-8.8c3.3-7.9-0.1-11.9-1.3-13c-1.4-1.3-3.2-1.8-4.4-1.2c-0.9,0.4-1.2,1.5-1.1,3
		c0.3,2.4,0.4,4.5,0.5,6.2c0.1,1.6,0.2,3.5,0.4,3.9c0.2,0,0.6-0.3,1.8-1.5c3-3.2,3.2-4.8,3.1-5.4c-0.1-0.5-0.5-0.9-1.3-1.2
		c-1.2-0.4-2.1,0.3-2.4,0.9c-0.2,0.3-0.2,0.5-0.1,0.6c0.3,0.3,0.3,0.7,0.1,1c-0.3,0.3-0.7,0.3-1,0.1c-0.6-0.6-0.7-1.5-0.2-2.4
		c0.7-1.2,2.4-2.1,4.2-1.5c1.5,0.6,2,1.5,2.2,2.2c0.4,1.7-0.7,3.9-3.4,6.7c-1.3,1.4-2.4,2.2-3.3,1.9c-1.1-0.4-1.2-2.1-1.4-5.2
		c-0.1-1.7-0.2-3.8-0.5-6.1c-0.3-2.1,0.4-3.7,1.8-4.5c1.7-0.9,4.1-0.3,6,1.5c1.3,1.2,5.2,5.8,1.6,14.5c-2.6,6.9-4.7,9.9-6.9,9.7
		c-3.2-0.3-4.7-7.4-6.3-16.8c-0.2-1.2-0.4-2.4-0.6-3.4c-1.1-5.7,2.7-15.2,7.5-16.2c2.6-0.5,6.3,1.2,8.7,12.5
		c2.7,12.5-0.7,18.3-3.4,22.9c-2.6,4.5-4.6,7.8-0.2,15.6c1.9,3.5,3,3.5,3.3,3.4c1.2-0.3,3.5-4,3.9-26.9l-0.8-31.9
		C215.7,53,209.8,41.3,204.3,38.6z M199.7,72.2c-0.1,0-0.1,0-0.2,0c-0.3,0-0.6-0.2-0.7-0.5c-0.1-0.2-1.3-4.6-1.1-13.4
		c0-0.4,0.3-0.7,0.7-0.7c0.4,0,0.7,0.3,0.7,0.7c-0.2,8.6,1,12.9,1,13C200.3,71.6,200,72,199.7,72.2z M212.2,70.6
		C212.2,70.6,212.1,70.6,212.2,70.6c-0.2,0-10.8-1.5-11.1-13c-0.1-5.4,0.7-8.3,2.5-8.6c1.7-0.3,3.6,2.3,4.9,6.8
		c1.4,4.7,0.9,5.7,0.2,6.1c-0.8,0.5-1.8-0.3-2.1-0.6c-0.5-0.3-3.1-2.4-3.1-6.5c0-0.4,0.3-0.7,0.7-0.7c0.4,0,0.7,0.3,0.7,0.7
		c0,3.6,2.4,5.3,2.5,5.4c0,0,0.1,0.1,0.1,0.1c0.1,0.1,0.3,0.2,0.4,0.3c0-0.4,0-1.5-0.8-4.3c-1.3-4.5-2.8-5.8-3.3-5.8
		c-0.4,0.1-1.4,1.5-1.3,7.1c0.2,10.2,9.4,11.5,9.8,11.6c0.4,0.1,0.7,0.4,0.6,0.8C212.8,70.3,212.5,70.6,212.2,70.6z M217.3,85.8
		c0.4,8.2,0.5,16.2,0.3,22.1c-0.5,11.1-2,12.9-3.2,13.2c-0.1,0-0.3,0-0.4,0c-1.2,0-2.3-1.3-3.7-4.1c-1.4-2.5,0.9-8,2.2-9.5
		c0.5-0.6,1-0.8,1.5-0.6c0.8,0.3,0.7,1.4,0.7,1.9c-0.3,4.6-0.8,6.7-0.9,6.8c-0.1,0.4-0.5,0.6-0.9,0.5c-0.4-0.1-0.6-0.5-0.5-0.9
		c0,0,0.5-2.1,0.8-6.4c-0.5,0.8-1.2,2.3-1.7,3.9c-0.4,1.6-0.5,2.9-0.1,3.6c0,0,0,0,0,0.1c1.7,3.5,2.4,3.3,2.4,3.3
		c0.2,0,1.7-0.7,2.1-11.9c0.2-5.8,0.1-13.9-0.3-22C215,69.2,211,57,211,56.9c-1.1-3.3-4.6-12-8.1-13c-0.7-0.2-1.3-0.1-2,0.5
		c-0.3,0.2-0.8,0.2-1-0.1c-0.2-0.3-0.2-0.8,0.1-1c1-0.8,2.1-1.1,3.3-0.7c4.7,1.4,8.6,12.7,9,14C212.4,56.6,216.4,69,217.3,85.8z"/>
	<path d="M203.3,42.5c-1.1-0.3-2.3-0.1-3.3,0.7c-0.3,0.2-0.4,0.7-0.1,1c0.2,0.3,0.7,0.4,1,0.1c0.7-0.5,1.3-0.7,2-0.5
		c3.4,1,7,9.7,8.1,13c0,0.1,4,12.3,4.9,29c0.4,8.1,0.5,16.2,0.3,22c-0.5,11.2-2,11.9-2.1,11.9c0,0-0.8,0.2-2.4-3.3c0,0,0,0,0-0.1
		c-0.4-0.7-0.4-2,0.1-3.6c0.4-1.7,1.2-3.1,1.7-3.9c-0.3,4.3-0.8,6.4-0.8,6.4c-0.1,0.4,0.1,0.8,0.5,0.9c0.4,0.1,0.8-0.1,0.9-0.5
		c0-0.1,0.6-2.3,0.9-6.8c0-0.5,0.1-1.6-0.7-1.9c-0.5-0.2-1,0-1.5,0.6c-1.3,1.6-3.7,7-2.2,9.5c1.3,2.8,2.5,4.1,3.7,4.1
		c0.1,0,0.3,0,0.4,0c1.3-0.3,2.8-2.1,3.2-13.2c0.2-5.9,0.1-14-0.3-22.1c-0.9-16.9-4.9-29.2-4.9-29.4
		C211.9,55.2,208.1,43.9,203.3,42.5z"/>
	<path d="M91,95.1c0.3,0,0.6-0.2,0.8-0.4c1-1.8-4.7-17-8.8-23.6c-0.8-1.3-1.9-2.9-3.1-4.5l0.1,2.5c0.7,1,1.4,1.9,1.9,2.8
		c3.7,5.9,7.4,15.9,8.4,20.2c-0.1-0.2-0.3-0.5-0.4-0.8c-2.4-4.6-6.2-10.7-9.7-16.1l0.1,2.7c3.1,4.8,6.3,10,8.4,14.1
		C90,94.9,90.5,95.1,91,95.1z"/>
	<path d="M99.7,111.2c0.1,0.2,0.4,0.3,0.6,0.3c0.1,0,0.3,0,0.4-0.1c0.3-0.2,0.4-0.6,0.2-1c-2.6-4.3-8.6-12.2-15.5-21.4
		c-1.7-2.3-3.5-4.6-5.3-7.1l0.1,2.5c1.3,1.8,2.7,3.6,4.1,5.4C91.2,99,97.1,106.9,99.7,111.2z"/>
	<path d="M199.1,58.3c0-0.4-0.3-0.7-0.7-0.7c-0.4,0-0.7,0.3-0.7,0.7c-0.3,8.8,1,13.2,1.1,13.4c0.1,0.3,0.4,0.5,0.7,0.5
		c0.1,0,0.1,0,0.2,0c0.4-0.1,0.6-0.5,0.5-0.9C200.1,71.2,198.9,66.8,199.1,58.3z"/>
	<path d="M212.3,69.2c-0.4,0-9.5-1.3-9.8-11.6c-0.1-5.7,0.9-7.1,1.3-7.1c0.5-0.1,2,1.3,3.3,5.8c0.8,2.8,0.9,3.9,0.8,4.3
		c-0.1-0.1-0.3-0.2-0.4-0.3c0,0-0.1-0.1-0.1-0.1c-0.1-0.1-2.5-1.8-2.5-5.4c0-0.4-0.3-0.7-0.7-0.7c-0.4,0-0.7,0.3-0.7,0.7
		c0,4.1,2.6,6.2,3.1,6.5c0.3,0.3,1.3,1.1,2.1,0.6c0.7-0.4,1.2-1.4-0.2-6.1c-1.3-4.5-3.2-7-4.9-6.8c-1.8,0.3-2.6,3.2-2.5,8.6
		c0.3,11.5,10.9,12.9,11,13c0,0,0.1,0,0.1,0c0.4,0,0.7-0.3,0.7-0.6C212.9,69.6,212.7,69.2,212.3,69.2z"/>
	<path d="M93.4,73.4c0.1,0.1,8,12.9,9.2,20.8c0.1,0.4,0.4,0.6,0.7,0.6c0,0,0.1,0,0.1,0c0.4-0.1,0.7-0.4,0.6-0.8
		c-1.3-8.2-9.1-20.8-9.4-21.3c-0.2-0.3-0.6-0.4-1-0.2C93.3,72.6,93.2,73.1,93.4,73.4z"/>
	<path d="M103.5,76.6c-0.3,0.2-0.4,0.7-0.1,1c0.1,0.1,3.4,4.3,6.8,9.8l0-2.7c-2.9-4.4-5.4-7.7-5.6-7.9
		C104.2,76.4,103.8,76.3,103.5,76.6z"/>
	<path d="M143.2,139.1c-0.4-0.1-1.3,0-1.8,1.3l1.3,1.9c-0.1-0.6-0.1-1,0.1-1.3c0.1-0.3,0.2-0.4,0.2-0.4c0,0,0,0,0,0
		c0.3,0,1.3,0.8,3,4l1.6,0.1C146.2,141.8,144.6,139.3,143.2,139.1z"/>
	<path d="M143.4,35c0.6,0.3,1.2,0.4,1.9,0.4c0.7,0,1.4-0.1,2.2-0.5c-2-0.6-3.9-1.2-5.8-1.6C142,34.1,142.6,34.7,143.4,35z"/>
	<path d="M127.4,39.8c0.1,0.1,0.3,0.2,0.5,0.2c0.2,0,0.4-0.1,0.5-0.2c0.3-0.3,0.3-0.7,0-1c-4.5-4.4-8.2-5-13.3-5.9
		c-2.1-0.3-4.6-0.7-7.4-1.5l-5,0c5.1,1.8,9,2.4,12.2,2.9C120,35.2,123.3,35.7,127.4,39.8z"/>
	<path d="M134.4,48.8c-3.4-5.5-8.1-8.2-14-10.7c-2.3-0.9-5.8-1.7-9.8-2.7c-4.7-1.1-10.1-2.3-14.6-4.1l-3.6,0
		c5.1,2.5,12.1,4.1,17.9,5.5c4,0.9,7.4,1.7,9.6,2.6c5.9,2.4,10.1,4.9,13.4,10.1c0.7,1.1,2.3,5.3,4.3,10.5c0.4,1.1,0.9,2.3,1.3,3.4
		l0.7,0l0.1,0.1c0.3,0.2,0.6,0.3,0.9,0.5c-0.6-1.6-1.2-3.1-1.7-4.5C136.7,54,135.1,50,134.4,48.8z"/>
	<path d="M162.1,82c-1.3-1.1-3.2-2.3-4.4-1.8c-1.4,0.5-1.8,2.4-1,4.9c1,3.1,3.9,7.2,7.1,6.4c1.3-0.3,1.7-1,1.8-1.5
		c0.3-2-3.6-4.6-4.7-5.3c-0.3-0.2-0.7-0.1-0.9,0.2c-0.2,0.3-0.1,0.7,0.2,0.9c2.1,1.3,4.3,3.2,4.1,4c0,0.2-0.3,0.3-0.8,0.5
		c-2,0.5-4.5-2.5-5.5-5.5c-0.5-1.7-0.5-3,0.2-3.3c0.3-0.1,1.3,0.1,3.1,1.6c2.7,2.3,5.4,5.8,6,8.5c0.3-0.7,0.5-1.4,0.7-2
		C166.8,86.6,164.2,83.7,162.1,82z"/>
	<path d="M155.1,73.6c-1.1,0-1.7,0.5-2,1c-1.9,3.3,0.7,13.3,5,18.7c2.3,2.9,4.7,4.1,7.1,3.6c0.2-0.6,0.5-1.1,0.7-1.7
		c-0.2,0.1-0.3,0.2-0.5,0.2c-2.5,0.8-4.7-1.2-6.2-3c-4.1-5.2-6.4-14.5-4.9-17.1c0.1-0.1,0.2-0.3,0.8-0.3c2.7,0.1,9.7,6,13.4,12.8
		c0.2-0.6,0.4-1.2,0.5-1.8C165,79.5,158.4,73.8,155.1,73.6z"/>
	<path d="M161.8,106.1c-5.9-6.2-12.3-19.9-17.3-32.1c-0.1,0.9-0.2,1.9-0.3,2.9c5.5,13.1,11.3,24.8,16.9,30.5
		C161.3,107,161.6,106.5,161.8,106.1z"/>
	<path d="M147.9,67.1c-1.7,1.1-3.1,4-0.3,11.6c3,8,8.8,21.1,15.2,24.3c0.2-0.4,0.4-0.8,0.6-1.3c-4.4-2.1-9.6-10.5-14.5-23.5
		c-2-5.3-2.1-8.8-0.3-9.9c2.8-1.8,10.3,2.2,16.3,8.8c1.9,2.1,3.6,4.5,5,7.1c0.2-0.6,0.3-1.3,0.5-1.9c-1.4-2.3-2.9-4.3-4.5-6.1
		C160.2,69.8,151.9,64.5,147.9,67.1z"/>
	<path d="M125.3,31.8c0.1,0.1,0.2,0.1,0.3,0.1c0.2,0,0.5-0.1,0.6-0.4c-0.2,0-0.4,0-0.5,0c-0.3,0-0.5,0-0.7,0
		C125.1,31.7,125.2,31.8,125.3,31.8z"/>
	<path d="M104.4,46.7c-11.8-7.2-17.9-15.3-18-15.3c0,0,0,0-0.1-0.1l-1,0c-0.2,0.2-0.3,0.6-0.1,0.9c0.3,0.3,6.3,8.4,18.4,15.7
		c7,4.3,9.8,9.6,13.1,15.7c0,0.1,0.1,0.1,0.1,0.2l1.6,0c-0.1-0.3-0.3-0.5-0.4-0.8C114.8,57,111.8,51.2,104.4,46.7z"/>
	<path d="M111.1,39.5c-8.1-1.8-9.6-1.6-10.1-0.6c-0.5,1.2,1,2.3,4.3,4.9c2.8,2.2,6.3,4.8,8.3,7.5c2.3,3.1,4,6.3,5.8,9.7
		c0.5,0.9,1,1.8,1.5,2.8l1.6,0c-0.6-1.1-1.2-2.3-1.8-3.4c-1.8-3.4-3.5-6.6-5.9-9.9c-2.1-2.9-5.7-5.6-8.6-7.8
		c-1.4-1.1-3.1-2.4-3.7-3.1c0.8-0.1,2.8,0.1,8.3,1.3c15.2,3.3,20.8,13.9,24.1,22.6l1.5,0C133,54.4,127.3,43.1,111.1,39.5z"/>
	<path d="M150.7,101.9c0.3,0.1,0.6,0.2,0.8,0.2c0.5,0,0.8-0.2,1-0.4c1.3-1.5-1-6.3-7.1-17.9c-0.6-1.2-1.3-2.4-1.9-3.6
		c-0.2,0.7-0.4,1.3-0.6,2c0.4,0.8,0.8,1.5,1.2,2.3c3.1,5.8,7.7,14.6,7.3,16.2c-0.1,0-0.1,0-0.2-0.1c-2.8-1.1-7-4.9-11.7-9.9
		c-0.2,0.5-0.4,0.9-0.7,1.4C143.5,97,147.7,100.8,150.7,101.9z"/>
	<path d="M122.1,48.6c-2.4-1.1-3.8-1.2-4.5-0.4c-1.1,1.3,0.3,4,4.1,10l3.5,5.5l1.7,0l-4-6.2c-1.3-2-4.8-7.5-4.3-8.3
		c0,0,0.5-0.3,2.8,0.8c4.2,1.9,5.8,6.2,8.4,12.8c0.1,0.3,0.2,0.6,0.4,0.9l1.5,0c-0.2-0.5-0.4-1-0.5-1.4
		C128.7,55.5,126.8,50.7,122.1,48.6z"/>
	<path d="M153.4,125.3c-7.8-5.4-13.9-12.1-14.1-15.8c0-0.7,0.2-1.2,0.6-1.6c0,0,0.3-0.2,0.9,0c5.9,1.3,25.7,19.1,31.5,30.9
		c0.1,0.1,0.1,0.2,0.2,0.4c-0.5-0.6-1.2-1.4-1.8-2.1c-5.4-6.4-14.3-17-22.6-21.2c-0.4-0.2-0.8,0-1,0.3c-0.2,0.3,0,0.8,0.3,1
		c8,4.1,17.2,15,22.2,20.9c3.6,4.3,4.2,5,5,4.5c0.7-0.4,0.5-1.1-1-4.3c-5.5-11.4-25.7-30.3-32.5-31.7c-0.9-0.2-1.6-0.1-2.1,0.3
		c-0.8,0.7-1.2,1.6-1.1,2.8c0.2,4.2,6.2,11.1,14.7,16.9c4.8,3.3,11.7,11.5,17.4,19l1.9,0.1C165.9,137.7,158.6,128.9,153.4,125.3z"/>
	<path d="M166.8,51.2c-0.3-0.3-0.7-0.3-1-0.1c-0.3,0.3-0.3,0.7-0.1,1c0.8,1,1.8,1.5,2.9,1.6c0.7,0,1.4-0.1,1.9-0.4
		c-0.2-0.4-0.4-0.8-0.7-1.3c-0.3,0.1-0.7,0.3-1.1,0.2C168,52.2,167.3,51.9,166.8,51.2z"/>
	<path d="M151.1,50.6c-0.5,0.6-0.8,1.6,0.5,3.4c3,4.1,14.1,10.7,22,11.7c0-0.5-0.1-1-0.2-1.4c-7.3-1.1-18-7.4-20.7-11.1
		c-0.3-0.4-0.8-1.2-0.5-1.6c1.6-1.9,6.2-4.5,10.3-6.8c0.4-0.2,0.7-0.4,1.1-0.6c-0.4-0.3-0.7-0.7-1.1-1c-0.2,0.1-0.4,0.2-0.6,0.3
		C157.4,45.9,152.9,48.5,151.1,50.6z"/>
	<path d="M160.1,49.2c-0.5,1.1-0.7,3.6,2.8,6.7c3,2.7,6.7,3.8,9.6,3c-0.1-0.5-0.2-0.9-0.4-1.4c-2.4,0.7-5.6-0.3-8.2-2.7
		c-2.1-1.9-3-3.7-2.4-5.1c0.6-1.4,2.6-2.3,5.2-2.5c-0.4-0.5-0.8-0.9-1.2-1.3C162.8,46.3,160.8,47.5,160.1,49.2z"/>
	<path d="M194.2,146.3l2.2,0.1c1.9-1.7-0.4-9.6-5.6-24.3c-0.5-1.4-1-2.7-1.3-3.7c-0.6-1.7-1.1-2.6-1.6-3h-1.3
		c-0.1,0.1-0.2,0.2-0.3,0.3c-1.3,2-0.5,12.1,3,18c0.2,0.3,0.6,0.5,1,0.3c0.3-0.2,0.5-0.6,0.2-1c-3.1-5.3-3.7-14-3.2-16.1
		c0.2,0.3,0.5,0.9,0.8,1.9c0.4,1,0.8,2.3,1.3,3.7c1.4,4,3.4,9.6,4.7,14.2c2.2,7.5,1.4,8.5,1.3,8.5c0,0-0.9,0.2-4.3-3.9
		c-5.8-6.9-7.4-16.7-7.5-26h-1.4c0.1,9.6,1.7,19.8,7.8,27C191.8,144.4,193.1,145.7,194.2,146.3z"/>
	<path d="M154.8,111c0.8,0.6,1.6,1.3,2.4,2c0.3-0.4,0.6-0.8,0.9-1.1c-0.8-0.7-1.6-1.4-2.4-2c-1.1-0.8-2.2-1.7-3.4-2.5
		c-4.8-3.6-10-7.4-15.1-12.1c-0.2,0.4-0.5,0.9-0.7,1.3c5,4.7,10.1,8.4,14.9,12C152.6,109.4,153.7,110.2,154.8,111z"/>
	<path d="M86.5,137.5c-1.2-0.1-3,0.4-4.7,3.1c-0.1,0.2-0.2,0.3-0.3,0.5l0.1,3.2c0.4-1.1,0.9-2.1,1.4-2.9c0.7-1.2,1.9-2.5,3.5-2.4
		c1.3,0.1,3.3,1.2,5.9,6.1l1.6-0.1C91.4,140.1,89,137.6,86.5,137.5z"/>
	<path d="M79.4,46.2l0,1.7c10.4,5.9,21.7,15.6,30.7,28l0-2.4C101,61.3,89.7,52,79.4,46.2z"/>
	<path d="M89.6,60.1c-1.3-0.3-2,0.1-2.3,0.6c-2.1,2.4,0.7,8,5.1,16.5c3.5,7,8,15.7,10.6,24.8c1.4,4.9,4,11.3,7.3,18.3l0-3.5
		c-2.6-5.8-4.7-11.1-5.9-15.2c-2.7-9.2-7.2-18-10.7-25c-3.6-7.1-6.7-13.2-5.3-14.9c0.2-0.2,0.6-0.2,1-0.1
		c3.9,0.9,13.3,9.9,20.8,20.6l0-2.5C102.8,69.5,94,61,89.6,60.1z"/>
	<path d="M80.3,89.6c10.9,14.8,21.6,30.5,30,46.3l0-3.1c-8.5-15.7-19.2-31.2-30-45.8L80.3,89.6z"/>
	<path d="M139.6,127.3c-1.8,0.3-3.3,1.5-4.5,3.7l0.9,1.4c1-2.2,2.2-3.4,3.8-3.7c2.6-0.4,6.2,2.1,9.4,6.7c1.3,1.8,2.6,5.3,4.1,9.4
		l1.5,0.1c-1.6-4.6-3-8.3-4.5-10.3C146.8,129.5,142.8,126.8,139.6,127.3z"/>
	<path d="M144.4,133.4c-1.8-0.3-3.5,0.9-5.6,2.9l0.8,1.2c0-0.1,0.1-0.1,0.2-0.2c1.8-1.7,3.2-2.8,4.4-2.6c1.3,0.3,2.7,2.1,4.3,5.8
		c0.5,1,1,2.4,1.6,4.1l1.5,0.1c-0.7-1.9-1.3-3.5-1.8-4.7C147.8,135.8,146.2,133.8,144.4,133.4z"/>
	<path d="M79.3,41l0,1.6C86.7,46,96.7,52,106,62.5c1.5,1.6,2.8,3.3,4.1,5l0-2.4c-1-1.2-2-2.4-3-3.6C97.3,50.6,86.8,44.4,79.3,41z"/>
	<path d="M147.5,127.2c-3.2-3-6-5.6-8-7.8c-3.3-3.6-5.9-8.3-8.3-13.6c-0.3,0.5-0.6,1-0.9,1.4c2.4,5.1,5,9.6,8.2,13.2
		c2,2.2,4.8,4.9,8.1,7.9c4.9,4.6,10.8,10.2,16.8,16.9l2,0.1C159,138,152.6,132.1,147.5,127.2z"/>
	<path d="M80.6,103l0,1.7c5.8,4.1,11.8,10,17.8,19.2c4.5,7,8.2,13.7,11.1,20.1l0.8,0l0-1.6c-2.9-6-6.4-12.5-10.7-19.2
		C93.3,113.4,86.9,107.2,80.6,103z"/>
	<path d="M87.4,131.5c-2.2,0.6-4.2,1.9-6.1,3.7l0,1.9c1.9-2.1,4.1-3.6,6.4-4.2c4.4-1.1,6.1,2,9.7,11.8l1.5-0.1
		C95.4,134.8,93.2,130,87.4,131.5z"/>
	<path d="M86.1,116.5c-0.3-0.2-0.8-0.1-1,0.2c-0.2,0.3-0.1,0.8,0.2,1c0.1,0.1,7.5,5.3,18.2,26.7l1.6-0.1
		C94.1,122.1,86.5,116.7,86.1,116.5z"/>
	<path d="M144.4,51.9c-0.2,2.9,2.3,5.9,7.5,8.9c1.5,0.9,3.4,1.7,5.7,2.6c4.9,2,11,4.6,15.6,9.4c0.1-0.6,0.2-1.2,0.3-1.8
		c-4.7-4.5-10.6-7-15.4-9c-2.2-0.9-4.1-1.7-5.5-2.5c-4.7-2.7-6.9-5.2-6.8-7.6c0.1-2.7,3.4-5.6,9.8-8.5c1.6-0.7,3-1.5,4.3-2.3
		c-0.4-0.3-0.8-0.6-1.3-0.9c-1.1,0.7-2.3,1.3-3.6,1.9C148,45.4,144.6,48.5,144.4,51.9z"/>
	<path d="M79.5,36c0-0.1,0.5-1.6-0.3-4.6h-0.1l0.1,5.1C79.3,36.3,79.5,36.1,79.5,36z"/>
	<path d="M201.7,146.6l1.5,0.1c-0.9-5.7-2.1-11.1-4.4-16.2c0,0,0,0,0,0c-0.1-0.1-4.3-8.1-8.1-24.8l0.2,6.6
		c3.3,12.3,6.4,18.4,6.7,18.9C199.6,135.9,200.8,141.1,201.7,146.6z"/>
	<path d="M205,37.3c-2-1-3.9-0.9-5.5,0.3c-5.6,4.1-6.8,20.2-3.3,45.5c4.7,33.8,10.9,52.3,17.6,52.3c0.1,0,0.1,0,0.2,0
		c2.1-0.1,3.9-2.1,5.2-5.2l-0.1-4.1c-1.3,4.8-3.2,7.8-5.2,7.9c-4.4,0.2-11-13-16.3-51.1c-1.8-13.2-2.4-23.9-1.7-31.7
		c0.8-8.3,2.8-11.3,4.4-12.5c1.2-0.8,2.5-0.9,4-0.1c5.4,2.7,11.4,14.4,13.3,28.9l-0.2-8.9C214.6,47.6,209.6,39.6,205,37.3z"/>
	<path d="M105.9,88.2c-1.6-3.8-7-16.4-11.1-19.5c-0.3-0.2-0.8-0.2-1,0.1c-0.2,0.3-0.2,0.8,0.1,1c3.1,2.3,7.5,11.3,10.7,18.9
		c0.8,2,1.7,5.6,2.7,9.7c0.8,3.4,1.8,7.3,2.9,11.2l0-5.5c-0.6-2.1-1.1-4.2-1.5-6.1C107.6,93.7,106.8,90.3,105.9,88.2z"/>
	<path d="M208.4,146.8l1.7,0.1c-6.5-11.5-14-35.8-14.1-36c-0.1-0.2-4-12.5-6.1-37.3l0.4,16.2c2,14.3,4.3,21.4,4.4,21.5
		C194.9,112.4,201.9,135,208.4,146.8z"/>
	<path d="M87.2,40.9c-3.2-1.7-5.8-2.6-8-3.1l0,1.5c2,0.5,4.4,1.3,7.3,2.8c0.2,0.1,14.2,8.1,25.2,21.9l1.8,0
		C102.2,49.4,87.4,41,87.2,40.9z"/>
	<path d="M197.3,103.4c0.2,1.8,4.2,32.7,18.2,43.7l2.7,0.1c-15.1-9.3-19.4-43.6-19.4-44c0,0,0,0,0-0.1c-0.1-0.4-9.4-44.2-3.2-70.5
		l0.3-1.2l-1.5,0l-0.2,0.9C188,58.6,197,102,197.3,103.4z"/>
	<path d="M101.1,104.5c-2.8-6.8-6.2-15.4-12.1-28.3c-2.9-6.4-6.1-11.8-9.3-16.3l0.1,2.6c2.7,4.1,5.4,8.8,8,14.3
		c5.9,12.9,9.3,21.4,12,28.2c3.1,7.6,5.3,13.1,9,20c0.5,0.9,1,1.9,1.5,2.9l0-3.1c-0.1-0.2-0.2-0.3-0.3-0.5
		C106.3,117.5,104.1,112,101.1,104.5z"/>
	<path d="M215.4,39.8c-0.2-0.3-0.5-0.6-0.7-0.9c-2.9-3.6-8.8-11-17.8-5.6c-0.3,0.2-0.5,0.6-0.2,1c0.2,0.3,0.6,0.4,1,0.2
		c7.9-4.7,13.1,1.8,15.9,5.3c1,1.3,1.6,2,2.2,2c0.1,0,0.2,0,0.4-0.1c0.9-0.4,1-1.2-0.5-10.5c0,0,0-0.1,0-0.1l-1.5,0
		c0,0.1,0,0.2,0.1,0.3C214.7,34.2,215.3,38.1,215.4,39.8z"/>
	<path d="M81.5,116.2c-0.2-0.5-0.4-0.9-0.6-1.4l0.2,10.4C82.4,122.6,82.8,119.7,81.5,116.2z"/>
	<path d="M142.2,38.6c0.5,0.1,1,0.1,1.5,0.1c2.1,0,4.6-0.8,7-2.5c-0.6-0.2-1.1-0.4-1.7-0.6c-2.4,1.5-4.8,2-6.6,1.6
		c-2-0.4-3-1.7-2.7-3.6c0-0.2,0-0.4,0.1-0.5c-0.5-0.1-0.9-0.2-1.4-0.3c0,0.2,0,0.4-0.1,0.6C138,36,139.5,38,142.2,38.6z"/>
	<path d="M82.7,33.5c0,0,0.1,0,0.1,0c0.4-0.1,0.6-0.4,0.6-0.8c-0.1-0.4-0.2-0.9-0.3-1.3l-1.5,0c0.2,0.5,0.3,1.1,0.4,1.6
		C82.1,33.2,82.4,33.5,82.7,33.5z"/>
	<path d="M214.5,126.2c-0.3,0.1-1.3,0.1-3.3-3.4c-4.3-7.8-2.4-11,0.2-15.6c2.7-4.6,6.1-10.4,3.4-22.9c-2.4-11.3-6.1-13.1-8.7-12.5
		c-4.8,1-8.5,10.5-7.5,16.2c0.2,1,0.4,2.2,0.6,3.4c1.6,9.3,3,16.5,6.3,16.8c2.2,0.2,4.3-2.8,6.9-9.7c3.6-8.8-0.3-13.3-1.6-14.5
		c-1.9-1.7-4.3-2.3-6-1.5c-1.4,0.7-2.1,2.4-1.8,4.5c0.3,2.3,0.4,4.4,0.5,6.1c0.1,3.1,0.2,4.8,1.4,5.2c0.9,0.4,2-0.5,3.3-1.9
		c2.7-2.8,3.8-5,3.4-6.7c-0.2-0.7-0.7-1.6-2.2-2.2c-1.8-0.7-3.4,0.2-4.2,1.5c-0.5,0.9-0.5,1.9,0.2,2.4c0.3,0.3,0.8,0.2,1-0.1
		c0.3-0.3,0.2-0.7-0.1-1c-0.1-0.1,0-0.4,0.1-0.6c0.3-0.6,1.3-1.3,2.4-0.9c0.7,0.3,1.2,0.7,1.3,1.2c0.2,0.7,0,2.2-3.1,5.4
		c-1.1,1.2-1.6,1.5-1.8,1.5c-0.3-0.4-0.4-2.3-0.4-3.9c-0.1-1.7-0.2-3.8-0.5-6.2c-0.2-1.5,0.2-2.6,1.1-3c1.1-0.6,3-0.1,4.4,1.2
		c1.1,1,4.5,5,1.3,13c-3,8.1-4.8,8.9-5.4,8.8c-2.4-0.2-4.1-10.2-5-15.6c-0.2-1.3-0.4-2.4-0.6-3.5c-1-5.4,2.7-13.8,6.3-14.5
		c2.8-0.6,5.4,3.6,7.1,11.4c2.6,12-0.5,17.3-3.2,21.9c-2.7,4.6-5,8.5-0.2,17c1.1,2,2.9,4.7,4.9,4.1c1.4-0.4,3-2.3,4-10.5l-0.4-17.7
		C218,122.3,215.7,125.9,214.5,126.2z"/>
	<path d="M180.6,145.8l1.6,0.1c-5.5-13-13.2-23.5-20.3-30.5h-2.1C167.2,122.5,175.1,133.1,180.6,145.8z"/>
	<path d="M86.4,123.1c-0.3-0.2-0.8-0.1-1,0.2c0,0-1.6,2.4-4.2,6.1l0.1,2.4c3.4-4.6,5.3-7.7,5.4-7.7
		C86.8,123.7,86.7,123.3,86.4,123.1z"/>
	<path d="M125.9,113.7c0.3,1.6,0.5,3.2,0.8,4.7l1.8,2.8c-0.4-3-0.9-6.1-1.5-9.1C126.7,112.7,126.3,113.2,125.9,113.7z"/>
	<path d="M186.1,146l1.5,0.1c-0.7-2-1.5-4-2.2-5.9c-2.8-7.2-5.5-14.2-5.6-24.7h-1.4c0.1,10.8,2.9,17.9,5.7,25.2
		C184.7,142.4,185.4,144.2,186.1,146z"/>
	<path d="M137.7,42.2c1.9,0.8,3.9,1.2,5.9,1.2c4.2,0,8.5-1.7,12.1-5c-0.4-0.2-0.9-0.5-1.3-0.7c-4.8,4.1-10.9,5.4-16,3.2
		c-5.7-2.4-5.9-5.2-5.2-8.9c-0.5-0.1-1-0.1-1.4-0.1C130.9,35.8,131,39.4,137.7,42.2z"/>
	<path class="st1" d="M211.4,146.9l5.4,0.2c-14-11-18-41.9-18.2-43.7c-0.3-1.4-9.3-44.8-3.2-71.1l0.2-0.9l-5.5,0.1l1,42.1
		c2.1,24.8,6.1,37.1,6.1,37.3C197.4,111.1,204.9,135.4,211.4,146.9z"/>
	<path class="st1" d="M147.8,128.3c-3.2-3-6-5.7-8.1-7.9c-3.2-3.6-5.8-8-8.2-13.2c-1.2,1.8-2.3,3.5-3.2,4.8c0.6,3.1,1.1,6.1,1.5,9.1
		l6.6,9.8c1.1-2.2,2.6-3.4,4.5-3.7c3.2-0.5,7.2,2.1,10.8,7.3c1.5,2,2.8,5.7,4.5,10.3l8.4,0.3C158.7,138.5,152.7,132.9,147.8,128.3z"
		/>
	<path class="st1" d="M144.3,140.5C144.3,140.5,144.3,140.5,144.3,140.5c0,0-0.1,0.1-0.3,0.4c-0.1,0.3-0.1,0.8-0.1,1.3l1.5,2.2
		l1.8,0.1C145.6,141.3,144.6,140.5,144.3,140.5z"/>
	<path class="st1" d="M153.9,126.5c-8.4-5.8-14.5-12.7-14.7-16.9c-0.1-1.2,0.3-2.1,1.1-2.8c0.5-0.4,1.2-0.5,2.1-0.3
		c6.8,1.4,27,20.3,32.5,31.7c1.5,3.2,1.7,3.8,1,4.3c-0.8,0.5-1.4-0.1-5-4.5c-4.9-5.9-14.1-16.8-22.2-20.9c-0.4-0.2-0.5-0.6-0.3-1
		c0.2-0.4,0.6-0.5,1-0.3c8.3,4.2,17.2,14.8,22.6,21.2c0.6,0.7,1.2,1.5,1.8,2.1c-0.1-0.1-0.1-0.2-0.2-0.4
		c-5.7-11.9-25.5-29.6-31.5-30.9c-0.7-0.1-0.9,0-0.9,0c-0.5,0.4-0.7,0.9-0.6,1.6c0.2,3.6,6.2,10.4,14.1,15.8
		c5.2,3.6,12.6,12.4,18.5,20.2l8.7,0.3c-5.5-12.7-13.4-23.4-20.7-30.4h-4.6l0.8-0.9c0.4-0.5,0.8-1,1.2-1.5c-0.8-0.7-1.6-1.4-2.4-2
		c-1.1-0.8-2.2-1.7-3.4-2.5c-4.8-3.5-9.9-7.3-14.9-12c-1.8,3.3-3.7,6.5-5.4,9.2c2.5,5.4,5,10,8.3,13.6c2,2.2,4.8,4.8,8,7.8
		c5.2,4.8,11.5,10.8,17.8,18l4.8,0.2C165.6,137.9,158.8,129.8,153.9,126.5z"/>
	<path class="st1" d="M145.4,134.8c-1.2-0.2-2.6,0.9-4.4,2.6c-0.1,0.1-0.1,0.1-0.2,0.2l1.9,2.8c0.5-1.2,1.3-1.3,1.8-1.3
		c1.4,0.2,3,2.7,4.4,5.5l2.4,0.1c-0.6-1.7-1.1-3-1.6-4.1C148.1,137,146.7,135.1,145.4,134.8z"/>
	<path class="st1" d="M141.2,128.7c-1.5,0.2-2.8,1.5-3.8,3.7l2.6,4c2.1-2.1,3.8-3.3,5.6-2.9c1.9,0.4,3.5,2.3,5.4,6.6
		c0.5,1.2,1.1,2.8,1.8,4.7l1.8,0.1c-1.5-4.1-2.8-7.6-4.1-9.4C147.3,130.8,143.8,128.3,141.2,128.7z"/>
	<path class="st1" d="M152.5,100.6c0.1,0,0.2,0.1,0.2,0.1c0.3-1.6-4.3-10.4-7.3-16.2c-0.4-0.7-0.8-1.5-1.2-2.3
		c-0.9,2.8-2.1,5.7-3.4,8.6C145.5,95.7,149.7,99.5,152.5,100.6z"/>
	<path class="st1" d="M200.1,103.1C200.1,103.2,200.1,103.2,200.1,103.1c0.1,0.4,4.4,34.8,19.4,44.1l1.4,0.1l-0.4-17.1
		c-1.3,3.1-3.1,5.1-5.2,5.2c-0.1,0-0.1,0-0.2,0c-6.6,0-12.9-18.5-17.6-52.3c-3.5-25.3-2.4-41.5,3.3-45.5c1.6-1.2,3.5-1.3,5.5-0.3
		c4.6,2.3,9.6,10.3,12.4,21.3l-0.7-27.4l-1.1,0c0,0,0,0.1,0,0.1c1.5,9.3,1.5,10.1,0.5,10.5c-0.1,0.1-0.3,0.1-0.4,0.1
		c-0.6,0-1.2-0.7-2.2-2c-2.8-3.5-8.1-10-15.9-5.3c-0.3,0.2-0.8,0.1-1-0.2c-0.2-0.3-0.1-0.8,0.2-1c8.9-5.3,14.9,2.1,17.8,5.6
		c0.2,0.3,0.5,0.6,0.7,0.9c-0.1-1.8-0.7-5.6-1.2-8.3c0-0.1,0-0.2-0.1-0.3l-18.4,0.2l-0.3,1.2C190.7,58.9,200,102.7,200.1,103.1z"/>
	<path class="st1" d="M205.7,38.6c-1.5-0.8-2.9-0.7-4,0.1c-1.6,1.1-3.6,4.2-4.4,12.5c-0.7,7.8-0.2,18.5,1.7,31.7
		c5.3,38,11.9,51.3,16.3,51.1c2-0.1,3.9-3.2,5.2-7.9l-0.2-9c-1,8.3-2.6,10.2-4,10.5c-2,0.6-3.8-2.1-4.9-4.1
		c-4.7-8.5-2.4-12.4,0.2-17c2.7-4.7,5.8-9.9,3.2-21.9c-1.7-7.8-4.3-12-7.1-11.4c-3.7,0.7-7.3,9.2-6.3,14.5c0.2,1,0.4,2.2,0.6,3.5
		c0.9,5.4,2.6,15.4,5,15.6c0.6,0.1,2.4-0.7,5.4-8.8c3.3-7.9-0.1-11.9-1.3-13c-1.4-1.3-3.2-1.8-4.4-1.2c-0.9,0.4-1.2,1.5-1.1,3
		c0.3,2.4,0.4,4.5,0.5,6.2c0.1,1.6,0.2,3.5,0.4,3.9c0.2,0,0.6-0.3,1.8-1.5c3-3.2,3.2-4.8,3.1-5.4c-0.1-0.5-0.5-0.9-1.3-1.2
		c-1.2-0.4-2.1,0.3-2.4,0.9c-0.2,0.3-0.2,0.5-0.1,0.6c0.3,0.3,0.3,0.7,0.1,1c-0.3,0.3-0.7,0.3-1,0.1c-0.6-0.6-0.7-1.5-0.2-2.4
		c0.7-1.2,2.4-2.1,4.2-1.5c1.5,0.6,2,1.5,2.2,2.2c0.4,1.7-0.7,3.9-3.4,6.7c-1.3,1.4-2.4,2.2-3.3,1.9c-1.1-0.4-1.2-2.1-1.4-5.2
		c-0.1-1.7-0.2-3.8-0.5-6.1c-0.3-2.1,0.4-3.7,1.8-4.5c1.7-0.9,4.1-0.3,6,1.5c1.3,1.2,5.2,5.8,1.6,14.5c-2.6,6.9-4.7,9.9-6.9,9.7
		c-3.2-0.3-4.7-7.4-6.3-16.8c-0.2-1.2-0.4-2.4-0.6-3.4c-1.1-5.7,2.7-15.2,7.5-16.2c2.6-0.5,6.3,1.2,8.7,12.5
		c2.7,12.5-0.7,18.3-3.4,22.9c-2.6,4.5-4.6,7.8-0.2,15.6c1.9,3.5,3,3.5,3.3,3.4c1.2-0.3,3.5-4,3.9-26.9L219,67.5
		C217.1,53,211.1,41.3,205.7,38.6z M201,72.2c-0.1,0-0.1,0-0.2,0c-0.3,0-0.6-0.2-0.7-0.5c-0.1-0.2-1.3-4.6-1.1-13.4
		c0-0.4,0.3-0.7,0.7-0.7c0.4,0,0.7,0.3,0.7,0.7c-0.2,8.6,1,12.9,1,13C201.6,71.6,201.4,72,201,72.2z M213.5,70.6
		C213.5,70.6,213.5,70.6,213.5,70.6c-0.2,0-10.8-1.5-11.1-13c-0.1-5.4,0.7-8.3,2.5-8.6c1.7-0.3,3.6,2.3,4.9,6.8
		c1.4,4.7,0.9,5.7,0.2,6.1c-0.8,0.5-1.8-0.3-2.1-0.6c-0.5-0.3-3.1-2.4-3.1-6.5c0-0.4,0.3-0.7,0.7-0.7c0.4,0,0.7,0.3,0.7,0.7
		c0,3.6,2.4,5.3,2.5,5.4c0,0,0.1,0.1,0.1,0.1c0.1,0.1,0.3,0.2,0.4,0.3c0-0.4,0-1.5-0.8-4.3c-1.3-4.5-2.8-5.8-3.3-5.8
		c-0.4,0.1-1.4,1.5-1.3,7.1c0.2,10.2,9.4,11.5,9.8,11.6c0.4,0.1,0.7,0.4,0.6,0.8C214.2,70.3,213.9,70.6,213.5,70.6z M218.6,85.8
		c0.4,8.2,0.5,16.2,0.3,22.1c-0.5,11.1-2,12.9-3.2,13.2c-0.1,0-0.3,0-0.4,0c-1.2,0-2.3-1.3-3.7-4.1c-1.4-2.5,0.9-8,2.2-9.5
		c0.5-0.6,1-0.8,1.5-0.6c0.8,0.3,0.7,1.4,0.7,1.9c-0.3,4.6-0.8,6.7-0.9,6.8c-0.1,0.4-0.5,0.6-0.9,0.5c-0.4-0.1-0.6-0.5-0.5-0.9
		c0,0,0.5-2.1,0.8-6.4c-0.5,0.8-1.2,2.3-1.7,3.9c-0.4,1.6-0.5,2.9-0.1,3.6c0,0,0,0,0,0.1c1.7,3.5,2.4,3.3,2.4,3.3
		c0.2,0,1.7-0.7,2.1-11.9c0.2-5.8,0.1-13.9-0.3-22c-0.9-16.7-4.8-28.9-4.9-29c-1.1-3.3-4.6-12-8.1-13c-0.7-0.2-1.3-0.1-2,0.5
		c-0.3,0.2-0.8,0.2-1-0.1c-0.2-0.3-0.2-0.8,0.1-1c1-0.8,2.1-1.1,3.3-0.7c4.7,1.4,8.6,12.7,9,14C213.7,56.6,217.7,69,218.6,85.8z"/>
	<g>
		<path d="M78,192.5v-38.4h10.9c4.3,0,7.3,0.2,8.9,0.6c1.7,0.4,3.1,1.1,4.4,2c1.4,1,2.4,2.4,3.2,4c0.7,1.6,1.1,3.4,1.1,5.4
			c0,3-0.7,5.4-2.2,7.2c-1.5,1.9-3.6,3.1-6.4,3.7l10.5,15.5H96.6l-8.8-15v15H78z M87.8,172.2h1.9c2.3,0,3.9-0.4,4.9-1.2
			c1-0.8,1.6-2,1.6-3.6c0-1.9-0.5-3.3-1.5-4.1c-1-0.8-2.6-1.2-4.9-1.2h-2.1V172.2z"/>
		<path d="M151.7,173.4c0,2.8-0.5,5.3-1.5,7.8c-1,2.4-2.5,4.6-4.4,6.5c-2,1.9-4.2,3.3-6.7,4.4c-2.5,1-5.1,1.5-7.8,1.5
			c-2.7,0-5.4-0.5-7.9-1.5c-2.5-1-4.7-2.5-6.6-4.4c-2-1.9-3.5-4.1-4.5-6.5c-1-2.4-1.5-5-1.5-7.7c0-2.7,0.5-5.3,1.5-7.7
			c1-2.4,2.5-4.6,4.5-6.5c1.9-1.9,4.1-3.3,6.6-4.4c2.5-1,5.1-1.5,7.9-1.5c2.7,0,5.3,0.5,7.9,1.5c2.5,1,4.7,2.5,6.7,4.4
			c1.9,1.9,3.4,4,4.4,6.5C151.2,168,151.7,170.6,151.7,173.4z M131.3,184.6c2.9,0,5.3-1.1,7.2-3.2c1.9-2.1,2.8-4.8,2.8-8.1
			c0-3.2-1-5.9-2.9-8c-1.9-2.1-4.3-3.2-7.2-3.2c-2.9,0-5.3,1.1-7.2,3.2c-1.9,2.1-2.8,4.8-2.8,8.1c0,3.3,0.9,6,2.8,8.1
			C125.9,183.6,128.3,184.6,131.3,184.6z"/>
		<path d="M165.8,154.1h10.4V179c0,2.7-0.2,4.8-0.5,6.2c-0.3,1.4-0.9,2.7-1.7,3.9c-1.1,1.4-2.4,2.5-3.9,3.3
			c-1.6,0.7-3.3,1.1-5.2,1.1c-2.4,0-4.6-0.5-6.4-1.5c-1.9-1-3.5-2.6-4.8-4.6l6.4-5.8c0.2,1.1,0.5,2,1.1,2.6c0.6,0.6,1.3,0.9,2.2,0.9
			c1,0,1.7-0.6,2.1-1.7c0.4-1.1,0.6-3.8,0.6-8.3V154.1z"/>
		<path d="M223.4,173.4c0,2.8-0.5,5.3-1.5,7.8c-1,2.4-2.5,4.6-4.4,6.5c-2,1.9-4.2,3.3-6.7,4.4c-2.5,1-5.1,1.5-7.8,1.5
			c-2.7,0-5.4-0.5-7.9-1.5c-2.5-1-4.7-2.5-6.6-4.4c-2-1.9-3.5-4.1-4.5-6.5c-1-2.4-1.5-5-1.5-7.7c0-2.7,0.5-5.3,1.5-7.7
			c1-2.4,2.5-4.6,4.5-6.5c1.9-1.9,4.1-3.3,6.6-4.4c2.5-1,5.1-1.5,7.9-1.5c2.7,0,5.3,0.5,7.9,1.5c2.5,1,4.7,2.5,6.7,4.4
			c1.9,1.9,3.4,4,4.4,6.5C222.9,168,223.4,170.6,223.4,173.4z M202.9,184.6c2.9,0,5.3-1.1,7.2-3.2c1.9-2.1,2.8-4.8,2.8-8.1
			c0-3.2-1-5.9-2.9-8c-1.9-2.1-4.3-3.2-7.1-3.2c-2.9,0-5.3,1.1-7.2,3.2c-1.9,2.1-2.8,4.8-2.8,8.1c0,3.3,0.9,6,2.8,8.1
			C197.5,183.6,199.9,184.6,202.9,184.6z"/>
	</g>
</g>
</svg>
