<?xml version="1.0" encoding="utf-8"?>
<!-- Generator: Adobe Illustrator 21.0.2, SVG Export Plug-In . SVG Version: 6.00 Build 0)  -->
<svg version="1.1" id="Layer_1" xmlns="http://www.w3.org/2000/svg" xmlns:xlink="http://www.w3.org/1999/xlink" x="0px" y="0px"
	 viewBox="0 0 547.4 148.3" style="enable-background:new 0 0 547.4 148.3;" xml:space="preserve">
<style type="text/css">
	.st0{fill:#DC6630;}
</style>
<g>
	<path class="st0" d="M10.6,38.3H0.8V0h9.8V38.3z"/>
	<path class="st0" d="M35.3,38.3V0h23.6C62,0,64,2,64,4.8v8.5c0,2.6-1.7,5.1-5.2,6c3.5,0.9,5.5,3.2,5.5,5.8v8.3c0,3-2,4.9-5.1,4.9
		H35.3z M54.5,8.2c0-0.3-0.2-0.6-0.6-0.6h-8.8v7.9h8.8c0.4,0,0.6-0.3,0.6-0.6V8.2z M54.5,23.2c0-0.3-0.2-0.6-0.6-0.6h-8.8V31h8.8
		c0.4,0,0.6-0.3,0.6-0.6V23.2z"/>
	<path class="st0" d="M84.1,0v29.5c0,0.3,0.3,0.5,0.5,0.5h7.2c0.3,0,0.6-0.2,0.6-0.5V0h9.9v33.9c0,2.5-1.9,4.4-4.3,4.4H78.6
		c-2.3,0-4.4-1.9-4.4-4.4V0H84.1z"/>
	<path class="st0" d="M123,38.3h-9.8V0h9.8V38.3z"/>
	<path class="st0" d="M133.9,0h9.8v30h12.2v8.3h-22V0z"/>
	<path class="st0" d="M184.9,0c4.2,0,7.8,3.5,7.8,7.8v22.7c0,4.4-3.6,7.8-7.8,7.8h-20.6V0H184.9z M182.9,11c0-1.6-1.1-2.8-2.8-2.8
		h-5.9V30h5.9c1.6,0,2.8-1.1,2.8-2.8V11z"/>
	<path class="st0" d="M256.9,0l-7.2,38.3H241L235.1,17l-6.1,21.3h-8.5L213.3,0h9.6l3.3,24.1L231.4,0h8.1l4.9,23.4L248.1,0H256.9z"/>
	<path class="st0" d="M264.1,0h25v8.2h-15.2v6.7H287v8.2h-13.2V30h15.2v8.3h-25V0z"/>
	<path class="st0" d="M298.6,38.3V0h23.6c3.1,0,5.1,2,5.1,4.8v8.5c0,2.6-1.7,5.1-5.2,6c3.5,0.9,5.5,3.2,5.5,5.8v8.3
		c0,3-2,4.9-5.1,4.9H298.6z M317.8,8.2c0-0.3-0.2-0.6-0.6-0.6h-8.8v7.9h8.8c0.4,0,0.6-0.3,0.6-0.6V8.2z M317.8,23.2
		c0-0.3-0.2-0.6-0.6-0.6h-8.8V31h8.8c0.4,0,0.6-0.3,0.6-0.6V23.2z"/>
	<path class="st0" d="M336.8,30h14.4c0.4,0,0.6-0.2,0.6-0.5v-5.6c0-0.3-0.2-0.5-0.6-0.5h-9.9c-2.7,0-4.5-1.8-4.5-4.5V4.5
		c0-2.7,1.8-4.5,4.5-4.5h19.8v8.2h-13.8c-0.3,0-0.6,0.3-0.6,0.6v5.6c0,0.2,0.2,0.5,0.6,0.5h9.9c2.7,0,4.5,1.8,4.5,4.5v14.4
		c0,2.7-1.8,4.5-4.5,4.5h-20.3V30z"/>
	<path class="st0" d="M381.3,38.3h-9.8V0h9.8V38.3z"/>
	<path class="st0" d="M415.8,0v8.3h-8.7v30h-9.9v-30h-8.7V0H415.8z"/>
	<path class="st0" d="M423.1,0h25v8.2h-15.2v6.7h13.2v8.2h-13.2V30h15.2v8.3h-25V0z"/>
	<path class="st0" d="M456.9,30h14.4c0.4,0,0.6-0.2,0.6-0.5v-5.6c0-0.3-0.2-0.5-0.6-0.5h-9.9c-2.7,0-4.5-1.8-4.5-4.5V4.5
		c0-2.7,1.8-4.5,4.5-4.5h19.8v8.2h-13.8c-0.3,0-0.6,0.3-0.6,0.6v5.6c0,0.2,0.2,0.5,0.6,0.5h9.9c2.7,0,4.5,1.8,4.5,4.5v14.4
		c0,2.7-1.8,4.5-4.5,4.5h-20.3V30z"/>
	<path class="st0" d="M505,4.5c0-2.7,1.8-4.5,4.5-4.5h18.7c2.7,0,4.5,1.8,4.5,4.5v7.6h-9.4v-3c0-0.6-0.3-1-1-1h-6.9
		c-0.6,0-1,0.3-1,1v5.6c0,0.6,0.3,1,1,1h21v6.9h-3.5v11.3c0,2.7-1.8,4.5-4.5,4.5h-18.9c-2.7,0-4.5-1.8-4.5-4.5v-8.9
		c0-3.1,1.9-5.5,5-5.6c-3.1-0.1-5-2.4-5-5.4V4.5z M514.4,29.2c0,0.6,0.3,1,1,1h7.1c0.6,0,1-0.3,1-1v-6.6h-8.1c-0.6,0-1,0.3-1,1V29.2
		z"/>
	<path class="st0" d="M21.4,55c4.2,0,7.8,3.5,7.8,7.8v22.7c0,4.4-3.6,7.8-7.8,7.8H0.8V55H21.4z M19.3,66c0-1.6-1.1-2.8-2.8-2.8h-5.9
		V85h5.9c1.6,0,2.8-1.1,2.8-2.8V66z"/>
	<path class="st0" d="M39.7,55h25v8.2H49.5v6.7h13.2v8.2H49.5V85h15.2v8.3h-25V55z"/>
	<path class="st0" d="M73.5,85h14.4c0.4,0,0.6-0.2,0.6-0.5v-5.6c0-0.3-0.2-0.5-0.6-0.5h-9.9c-2.7,0-4.5-1.8-4.5-4.5V59.5
		c0-2.7,1.8-4.5,4.5-4.5h19.8v8.2H83.9c-0.3,0-0.6,0.3-0.6,0.6v5.6c0,0.2,0.2,0.5,0.6,0.5h9.9c2.7,0,4.5,1.8,4.5,4.5v14.4
		c0,2.7-1.8,4.5-4.5,4.5H73.5V85z"/>
	<path class="st0" d="M117.9,93.3h-9.8V55h9.8V93.3z"/>
	<path class="st0" d="M142.3,69.8h17.4v8.1h-3.2v11c0,2.5-1.9,4.4-4.4,4.4h-19.2c-2.4,0-4.4-1.9-4.4-4.4V59.3c0-2.3,2-4.3,4.4-4.3
		h23.7v8.2h-17.8c-0.3,0-0.6,0.3-0.6,0.6v20.5c0,0.3,0.3,0.6,0.6,0.6h7.9c0.4,0,0.6-0.2,0.6-0.6v-6.5h-5.2V69.8z"/>
	<path class="st0" d="M177.8,72.2v21h-9.1V55h9.1l11.5,21.1V55h9.1v38.3H189L177.8,72.2z"/>
	<path class="st0" d="M223.1,55h9.8v30h12.2v8.3h-22V55z"/>
	<path class="st0" d="M276.2,55c2.7,0,4.5,1.8,4.5,4.5v29.3c0,2.7-1.8,4.5-4.5,4.5h-19.7c-2.7,0-4.5-1.8-4.5-4.5V59.5
		c0-2.7,1.8-4.5,4.5-4.5H276.2z M270.8,63.9c0-0.3-0.3-0.6-0.6-0.6h-7.8c-0.2,0-0.5,0.3-0.5,0.6v20.6c0,0.3,0.3,0.5,0.5,0.5h7.8
		c0.3,0,0.6-0.2,0.6-0.5V63.9z"/>
	<path class="st0" d="M304.6,69.8H322v8.1h-3.2v11c0,2.5-1.9,4.4-4.4,4.4h-19.2c-2.4,0-4.4-1.9-4.4-4.4V59.3c0-2.3,2-4.3,4.4-4.3
		H319v8.2h-17.8c-0.3,0-0.6,0.3-0.6,0.6v20.5c0,0.3,0.3,0.6,0.6,0.6h7.9c0.4,0,0.6-0.2,0.6-0.6v-6.5h-5.2V69.8z"/>
	<path class="st0" d="M354.9,55c2.7,0,4.5,1.8,4.5,4.5v29.3c0,2.7-1.8,4.5-4.5,4.5h-19.7c-2.7,0-4.5-1.8-4.5-4.5V59.5
		c0-2.7,1.8-4.5,4.5-4.5H354.9z M349.6,63.9c0-0.3-0.3-0.6-0.6-0.6h-7.8c-0.2,0-0.5,0.3-0.5,0.6v20.6c0,0.3,0.3,0.5,0.5,0.5h7.8
		c0.3,0,0.6-0.2,0.6-0.5V63.9z"/>
	<path class="st0" d="M369.2,85h14.4c0.4,0,0.6-0.2,0.6-0.5v-5.6c0-0.3-0.2-0.5-0.6-0.5h-9.9c-2.7,0-4.5-1.8-4.5-4.5V59.5
		c0-2.7,1.8-4.5,4.5-4.5h19.8v8.2h-13.8c-0.3,0-0.6,0.3-0.6,0.6v5.6c0,0.2,0.2,0.5,0.6,0.5h9.9c2.7,0,4.5,1.8,4.5,4.5v14.4
		c0,2.7-1.8,4.5-4.5,4.5h-20.3V85z"/>
	<path class="st0" d="M417.6,55h24.3v8.2h-14.5v8.7h12.5v8.2h-12.5v13.2h-9.8V55z"/>
	<path class="st0" d="M474.4,55c2.7,0,4.5,1.8,4.5,4.5v29.3c0,2.7-1.8,4.5-4.5,4.5h-19.7c-2.7,0-4.5-1.8-4.5-4.5V59.5
		c0-2.7,1.8-4.5,4.5-4.5H474.4z M469,63.9c0-0.3-0.3-0.6-0.6-0.6h-7.8c-0.2,0-0.5,0.3-0.5,0.6v20.6c0,0.3,0.3,0.5,0.5,0.5h7.8
		c0.3,0,0.6-0.2,0.6-0.5V63.9z"/>
	<path class="st0" d="M513.4,55c2.3,0,4.3,1.9,4.3,4.3v17.5c0,2.3-2,4.3-4.3,4.3h-0.3l4.7,12.1h-9.6l-4.8-12.1h-4.2v12.1h-9.9V55
		H513.4z M507.9,63.8c0-0.3-0.3-0.6-0.5-0.6h-8.2v10.2h8.2c0.2,0,0.5-0.3,0.5-0.5V63.8z"/>
	<path class="st0" d="M0,140h14.4c0.4,0,0.6-0.2,0.6-0.5v-5.6c0-0.3-0.2-0.5-0.6-0.5H4.5c-2.7,0-4.5-1.8-4.5-4.5v-14.5
		c0-2.7,1.8-4.5,4.5-4.5h19.8v8.2H10.4c-0.3,0-0.6,0.3-0.6,0.6v5.6c0,0.2,0.2,0.5,0.6,0.5h9.9c2.7,0,4.5,1.8,4.5,4.5v14.4
		c0,2.7-1.8,4.5-4.5,4.5H0V140z"/>
	<path class="st0" d="M43.7,126.6v21.7h-9.1V110h10l7.7,17.9l7.1-17.9h10.4v38.3h-9.3v-22.1l-6.5,15.2h-3.9L43.7,126.6z"/>
	<path class="st0" d="M108.9,148.3H99v-9.5h-8.7v9.5h-9.9v-33.8c0-2.7,1.8-4.5,4.5-4.5h19.5c2.7,0,4.5,1.8,4.5,4.5V148.3z M99,130.5
		V119c0-0.7-0.6-1.1-1.4-1.1h-6.1c-0.7,0-1.2,0.5-1.2,1.1v11.5H99z"/>
	<path class="st0" d="M119.4,110h9.8v30h12.2v8.3h-22V110z"/>
	<path class="st0" d="M149.8,110h9.8v30h12.2v8.3h-22V110z"/>
	<path class="st0" d="M194,148.3V110h23.6c3.1,0,5.1,2,5.1,4.8v8.5c0,2.6-1.7,5.1-5.2,6c3.5,0.9,5.5,3.2,5.5,5.8v8.3
		c0,3-2,4.9-5.1,4.9H194z M213.2,118.2c0-0.3-0.2-0.6-0.6-0.6h-8.8v7.9h8.8c0.4,0,0.6-0.3,0.6-0.6V118.2z M213.2,133.2
		c0-0.3-0.2-0.6-0.6-0.6h-8.8v8.5h8.8c0.4,0,0.6-0.3,0.6-0.6V133.2z"/>
	<path class="st0" d="M242.9,110v29.5c0,0.3,0.3,0.5,0.5,0.5h7.2c0.3,0,0.6-0.2,0.6-0.5V110h9.9v33.9c0,2.5-1.9,4.4-4.3,4.4h-19.4
		c-2.3,0-4.4-1.9-4.4-4.4V110H242.9z"/>
	<path class="st0" d="M271.2,140h14.4c0.4,0,0.6-0.2,0.6-0.5v-5.6c0-0.3-0.2-0.5-0.6-0.5h-9.9c-2.7,0-4.5-1.8-4.5-4.5v-14.5
		c0-2.7,1.8-4.5,4.5-4.5h19.8v8.2h-13.8c-0.3,0-0.6,0.3-0.6,0.6v5.6c0,0.2,0.2,0.5,0.6,0.5h9.9c2.7,0,4.5,1.8,4.5,4.5v14.4
		c0,2.7-1.8,4.5-4.5,4.5h-20.3V140z"/>
	<path class="st0" d="M315.6,148.3h-9.8V110h9.8V148.3z"/>
	<path class="st0" d="M335.6,127.2v21h-9.1V110h9.1l11.5,21.1V110h9.1v38.3h-9.4L335.6,127.2z"/>
	<path class="st0" d="M367,110h25v8.2h-15.2v6.7H390v8.2h-13.2v6.9H392v8.3h-25V110z"/>
	<path class="st0" d="M400.8,140h14.4c0.4,0,0.6-0.2,0.6-0.5v-5.6c0-0.3-0.2-0.5-0.6-0.5h-9.9c-2.7,0-4.5-1.8-4.5-4.5v-14.5
		c0-2.7,1.8-4.5,4.5-4.5h19.8v8.2h-13.8c-0.3,0-0.6,0.3-0.6,0.6v5.6c0,0.2,0.2,0.5,0.6,0.5h9.9c2.7,0,4.5,1.8,4.5,4.5v14.4
		c0,2.7-1.8,4.5-4.5,4.5h-20.3V140z"/>
	<path class="st0" d="M434.6,140H449c0.4,0,0.6-0.2,0.6-0.5v-5.6c0-0.3-0.2-0.5-0.6-0.5h-9.9c-2.7,0-4.5-1.8-4.5-4.5v-14.5
		c0-2.7,1.8-4.5,4.5-4.5h19.8v8.2h-13.8c-0.3,0-0.6,0.3-0.6,0.6v5.6c0,0.2,0.2,0.5,0.6,0.5h9.9c2.7,0,4.5,1.8,4.5,4.5v14.4
		c0,2.7-1.8,4.5-4.5,4.5h-20.3V140z"/>
	<path class="st0" d="M469.3,110h25v8.2h-15.2v6.7h13.2v8.2h-13.2v6.9h15.2v8.3h-25V110z"/>
	<path class="st0" d="M503.1,140h14.4c0.4,0,0.6-0.2,0.6-0.5v-5.6c0-0.3-0.2-0.5-0.6-0.5h-9.9c-2.7,0-4.5-1.8-4.5-4.5v-14.5
		c0-2.7,1.8-4.5,4.5-4.5h19.8v8.2h-13.8c-0.3,0-0.6,0.3-0.6,0.6v5.6c0,0.2,0.2,0.5,0.6,0.5h9.9c2.7,0,4.5,1.8,4.5,4.5v14.4
		c0,2.7-1.8,4.5-4.5,4.5h-20.3V140z"/>
	<path class="st0" d="M547.4,148.3h-10.6v-10.4h10.6V148.3z"/>
</g>
</svg>
