<?xml version="1.0" encoding="utf-8"?>
<!-- Generator: Adobe Illustrator 21.0.2, SVG Export Plug-In . SVG Version: 6.00 Build 0)  -->
<svg version="1.1" id="Layer_1" xmlns="http://www.w3.org/2000/svg" xmlns:xlink="http://www.w3.org/1999/xlink" x="0px" y="0px"
	 viewBox="0 0 514.4 93.9" style="enable-background:new 0 0 514.4 93.9;" xml:space="preserve">
<style type="text/css">
	.st0{fill:#DC6630;}
</style>
<g>
	<path class="st0" d="M0,40.1h19.2c0.5,0,0.8-0.3,0.8-0.7V32c0-0.4-0.3-0.7-0.8-0.7H6c-3.6,0-6-2.4-6-6V6c0-3.6,2.4-6,6-6h26.4v11
		H13.9c-0.5,0-0.8,0.4-0.8,0.8v7.5c0,0.3,0.3,0.7,0.8,0.7h13.2c3.6,0,6,2.4,6,6v19.2c0,3.6-2.4,6-6,6H0V40.1z"/>
	<path class="st0" d="M46.3,0h33.4v11H59.4v8.9H77v10.9H59.4v9.2h20.3v11.1H46.3V0z"/>
	<path class="st0" d="M92.4,0h33.4v11h-20.3v8.9h17.6v10.9h-17.6v9.2h20.3v11.1H92.4V0z"/>
	<path class="st0" d="M169.1,22.2v28.9H157V0h13.3l10.3,23.9L190.1,0h13.9v51.1h-12.4V21.7L183,42h-5.2L169.1,22.2z"/>
	<path class="st0" d="M229.1,51.1v-15h-6.8c-3.1,0-5.8-2.7-5.8-6.1V0h13.2v23.6c0,0.4,0.5,0.8,0.8,0.8H241c0.5,0,0.5-0.4,0.5-0.8V0
		h13.2v30.1c0,3.3-2.7,6.1-5.8,6.1h-6.7v15H229.1z"/>
	<path class="st0" d="M338.8,0l-9.6,51.1h-11.6l-7.9-28.5l-8.1,28.5h-11.4L280.6,0h12.9l4.5,32.1L304.8,0h10.8l6.5,31.2L327,0H338.8
		z"/>
	<path class="st0" d="M378.7,0c3.6,0,6,2.4,6,6v39.2c0,3.6-2.4,6-6,6h-26.3c-3.6,0-6-2.4-6-6V6c0-3.6,2.4-6,6-6H378.7z M371.5,11.9
		c0-0.5-0.4-0.8-0.8-0.8h-10.4c-0.3,0-0.7,0.4-0.7,0.8v27.5c0,0.4,0.4,0.7,0.7,0.7h10.4c0.5,0,0.8-0.3,0.8-0.7V11.9z"/>
	<path class="st0" d="M430.9,0c3.1,0,5.8,2.5,5.8,5.8v23.4c0,3.1-2.7,5.8-5.8,5.8h-0.4l6.3,16.2h-12.9l-6.4-16.2H412v16.2h-13.2V0
		H430.9z M423.6,11.7c0-0.4-0.4-0.8-0.7-0.8H412v13.6h10.9c0.3,0,0.7-0.4,0.7-0.7V11.7z"/>
	<path class="st0" d="M477.6,51.1l-10-19.5l-4.2,6.7v12.8h-13.2V0h13.2v21.3L476.7,0h14.7l-14.8,22.2L492,51.1H477.6z"/>
	<path class="st0" d="M513.3,32.2h-12.7L499.5,0h14.9L513.3,32.2z M514,51.1h-14.2V37.7H514V51.1z"/>
</g>
<g>
	<path d="M183.1,69.7h5.6c0.2,0,0.2-0.1,0.2-0.2v-2.2c0-0.1-0.1-0.2-0.2-0.2h-3.9c-1,0-1.8-0.7-1.8-1.8v-5.7c0-1,0.7-1.8,1.8-1.8
		h7.8v3.2h-5.4c-0.1,0-0.2,0.1-0.2,0.2v2.2c0,0.1,0.1,0.2,0.2,0.2h3.9c1,0,1.8,0.7,1.8,1.8v5.6c0,1-0.7,1.8-1.8,1.8h-8V69.7z"/>
	<path d="M207.7,67.4v3.9c0,1-0.8,1.7-1.8,1.7h-7.6c-1,0-1.7-0.7-1.7-1.7V59.6c0-0.9,0.8-1.7,1.7-1.7h7.6c1,0,1.8,0.8,1.8,1.7v3.9
		h-3.9v-2.1c0-0.1-0.1-0.2-0.2-0.2h-2.8c-0.1,0-0.2,0.1-0.2,0.2v8.1c0,0.1,0.1,0.2,0.2,0.2h2.8c0.1,0,0.2-0.1,0.2-0.2v-2.1H207.7z"
		/>
	<path d="M220.8,57.9c0.9,0,1.7,0.7,1.7,1.7v6.9c0,0.9-0.8,1.7-1.7,1.7h-0.1l1.8,4.8h-3.8l-1.9-4.8h-1.6V73h-3.9v-15H220.8z
		 M218.6,61.4c0-0.1-0.1-0.2-0.2-0.2h-3.2v4h3.2c0.1,0,0.2-0.1,0.2-0.2V61.4z"/>
	<path d="M235.8,57.9c1,0,1.8,0.7,1.8,1.8v11.5c0,1-0.7,1.8-1.8,1.8h-7.7c-1,0-1.8-0.7-1.8-1.8V59.7c0-1,0.7-1.8,1.8-1.8H235.8z
		 M233.7,61.4c0-0.1-0.1-0.2-0.2-0.2h-3.1c-0.1,0-0.2,0.1-0.2,0.2v8.1c0,0.1,0.1,0.2,0.2,0.2h3.1c0.1,0,0.2-0.1,0.2-0.2V61.4z"/>
	<path d="M241.7,57.9h3.9v11.8h4.8V73h-8.6V57.9z"/>
	<path d="M253.7,57.9h3.9v11.8h4.8V73h-8.6V57.9z"/>
	<path d="M279.1,57.9c1.6,0,3.1,1.4,3.1,3.1v8.9c0,1.7-1.4,3.1-3.1,3.1H271v-15H279.1z M278.3,62.3c0-0.6-0.4-1.1-1.1-1.1h-2.3v8.6
		h2.3c0.6,0,1.1-0.4,1.1-1.1V62.3z"/>
	<path d="M295.7,57.9c1,0,1.8,0.7,1.8,1.8v11.5c0,1-0.7,1.8-1.8,1.8H288c-1,0-1.8-0.7-1.8-1.8V59.7c0-1,0.7-1.8,1.8-1.8H295.7z
		 M293.6,61.4c0-0.1-0.1-0.2-0.2-0.2h-3.1c-0.1,0-0.2,0.1-0.2,0.2v8.1c0,0.1,0.1,0.2,0.2,0.2h3.1c0.1,0,0.2-0.1,0.2-0.2V61.4z"/>
	<path d="M316.8,57.9L314,73h-3.4l-2.3-8.4l-2.4,8.4h-3.3l-2.9-15h3.8l1.3,9.4l2-9.4h3.2l1.9,9.2l1.4-9.2H316.8z"/>
	<path d="M323.2,64.7V73h-3.6v-15h3.6l4.5,8.3v-8.3h3.6v15h-3.7L323.2,64.7z"/>
</g>
<g>
	<g>
		<path d="M224.8,80.7h3.1l1.5,3.7l1.5-3.7h3l-3.2,6.1H228L224.8,80.7z M224.8,87.8h3.1l1.5,3.7l1.5-3.7h3l-3.2,6.1H228L224.8,87.8z
			"/>
	</g>
	<g>
		<path d="M280.6,80.7h3.1l1.5,3.7l1.5-3.7h3l-3.2,6.1h-2.6L280.6,80.7z M280.6,87.8h3.1l1.5,3.7l1.5-3.7h3l-3.2,6.1h-2.6
			L280.6,87.8z"/>
	</g>
</g>
</svg>
