<?xml version="1.0" encoding="utf-8"?>
<!-- Generator: Adobe Illustrator 22.1.0, SVG Export Plug-In . SVG Version: 6.00 Build 0)  -->
<svg version="1.1" id="Layer_1" xmlns="http://www.w3.org/2000/svg" xmlns:xlink="http://www.w3.org/1999/xlink" x="0px" y="0px"
	 viewBox="0 0 300 250" style="enable-background:new 0 0 300 250;" xml:space="preserve">
<style type="text/css">
	.st0{fill:#444D5F;}
	.st1{fill:#E6E7E8;}
	.st2{font-family:'DDCHardware-Regular';}
	.st3{font-size:32.1542px;}
	.st4{font-size:24.6035px;}
	.st5{fill:#F59220;}
	.st6{fill:#EF5A29;}
	.st7{fill:#FAAE41;}
	.st8{fill:#E76B40;}
	.st9{font-family:'DDCHardware-Compressed';}
	.st10{font-size:7.3219px;}
</style>
<rect class="st0" width="300" height="250"/>
<g>
	<text transform="matrix(1 0 0 1 29.7126 186.0129)" class="st1 st2 st3">UNION baptist</text>
	<text transform="matrix(1 0 0 1 99.762 208.802)" class="st1 st2 st4">church</text>
	<g>
		<polygon class="st5" points="163.3,139.7 198.1,104.9 198.1,98.2 		"/>
		<polygon class="st5" points="164.4,140.8 198.1,112.5 198.1,107.1 		"/>
		<polygon class="st6" points="167.1,144.7 198.1,130.2 198.1,126.8 		"/>
		<polygon class="st5" points="166.3,143.3 198.1,125 198.1,121.1 		"/>
		<polygon class="st5" points="165.4,142 198.1,119.1 198.1,114.6 		"/>
		<path class="st7" d="M156.4,135.7l26.8-73.6c-2.1-0.9-4.3-1.5-6.6-1.8L156.4,135.7z"/>
		<polygon class="st5" points="162,138.6 198.1,95.7 198.1,87.2 		"/>
		<path class="st7" d="M157.9,136.3l32.5-69.7c-1.7-1.5-3.6-2.8-5.7-3.8L157.9,136.3z"/>
		<path class="st7" d="M146.7,135.3l-16.3-92.4c-2.9,3.5-4.7,7.7-5.1,12.3l0,0.4L146.7,135.3z"/>
		<polygon class="st6" points="167.8,146.1 198.1,135.1 198.1,132 		"/>
		<path class="st7" d="M175.9,56.9l0-2.1c-0.4-4.3-2.1-8.3-4.7-11.6l-16.2,92L175.9,56.9z"/>
		<path class="st7" d="M142.2,136.9l-32.7-70.2c-1.8,1.6-3.4,3.5-4.6,5.6L142.2,136.9z"/>
		<path class="st7" d="M195.9,73.7c-1.1-2.2-2.5-4.2-4.2-6l-32.3,69.2L195.9,73.7z"/>
		<path class="st7" d="M151.7,33.7v101.2l8.7-99.4C157.7,34.5,154.8,33.9,151.7,33.7z"/>
		<polygon class="st6" points="168.3,147.6 198.1,139.6 198.1,136.8 		"/>
		<polygon class="st6" points="198.1,145.6 169,150.7 198.1,148.2 		"/>
		<path class="st5" d="M198.1,84.4v-1.3c0-2.7-0.5-5.2-1.4-7.6l-35.9,62.2L198.1,84.4z"/>
		<polygon class="st6" points="168.7,149.2 198.1,144 198.1,141.3 		"/>
		<path class="st7" d="M145.2,135.7l-20.2-75.5c-2.4,0.2-4.6,0.7-6.7,1.4L145.2,135.7z"/>
		<polygon class="st6" points="132.6,150.7 101.9,145.3 101.9,148 		"/>
		<polygon class="st6" points="132.9,149.2 101.9,140.9 101.9,143.7 		"/>
		<path class="st7" d="M149.8,134.9V33.7c-3.1,0.1-6,0.7-8.7,1.7L149.8,134.9z"/>
		<polygon class="st6" points="133.8,146.1 101.9,131.3 101.9,134.5 		"/>
		<polygon class="st6" points="132.4,152.3 101.9,149.6 101.9,152.3 		"/>
		<path class="st7" d="M153.3,135l16.5-93.3c-2.2-2.3-4.8-4.2-7.8-5.6L153.3,135z"/>
		<polygon class="st6" points="169.1,152.3 198.1,152.3 198.1,149.8 		"/>
		<polygon class="st8" points="154.5,152.9 154.4,152.6 154.4,152.3 154.3,152 154.2,151.8 154.1,151.5 153.9,151.2 153.7,151 
			153.5,150.7 153.3,150.5 153.1,150.3 152.8,150.1 152.6,150 152.3,149.9 152,149.7 151.7,149.7 151.4,149.6 151.1,149.6 
			150.5,149.6 150.2,149.6 149.9,149.7 149.6,149.7 149.3,149.9 149,150 148.8,150.1 148.5,150.3 148.3,150.5 148,150.7 147.9,151 
			147.7,151.2 147.5,151.5 147.4,151.8 147.3,152 147.2,152.3 147.2,152.6 147.1,152.9 147.1,153.1 154.5,153.1 		"/>
		<polygon class="st6" points="134.5,144.7 101.9,125.9 101.9,129.5 		"/>
		<polygon class="st6" points="133.3,147.6 101.9,136.2 101.9,139.2 		"/>
		<path class="st7" d="M143.7,136.3l-27-74.1c-2.2,0.9-4.2,2.1-6,3.5L143.7,136.3z"/>
		<path class="st5" d="M140.8,137.7L104,74c-1.2,2.5-1.9,5.3-2.1,8.2L140.8,137.7z"/>
		<polygon class="st5" points="135.3,143.3 101.9,120 101.9,124.1 		"/>
		<path class="st7" d="M148.3,135l-8.7-99c-3,1.3-5.6,3.2-7.8,5.4L148.3,135z"/>
		<polygon class="st5" points="139.5,138.6 101.9,84.9 101.9,93.8 		"/>
		<polygon class="st5" points="138.3,139.7 101.9,96.3 101.9,103.3 		"/>
		<polygon class="st5" points="136.2,142 101.9,113.3 101.9,118 		"/>
		<polygon class="st5" points="137.2,140.8 101.9,105.5 101.9,111.2 		"/>
	</g>
	<g>
		<g>
			<polygon class="st1" points="141.3,138.6 150.8,48.8 160.3,138.6 			"/>
			<path class="st0" d="M150.8,63.2l7.8,73.8h-7.8H143L150.8,63.2 M150.8,34.4l-3,28.5l-7.8,73.8l-0.4,3.3h3.4h7.8h7.8h3.4l-0.4-3.3
				l-7.8-73.8L150.8,34.4L150.8,34.4z"/>
		</g>
		<g>
			<polygon class="st1" points="150.8,154.8 136.3,161 138.8,138.8 162.8,138.8 165.2,161 			"/>
			<path class="st0" d="M161.4,140.3l2.1,18.2l-12.7-5.4l-12.7,5.4l2.1-18.2h10.6H161.4 M164.1,137.3h-2.7h-10.6h-10.6h-2.7
				l-0.3,2.7l-2.1,18.2l-0.6,5.2l4.8-2.1l11.5-4.9l11.5,4.9l4.8,2.1l-0.6-5.2l-2.1-18.2L164.1,137.3L164.1,137.3z"/>
		</g>
		<g>
			<polygon class="st1" points="137.3,141.9 137.3,137.1 142.7,135 158.9,135 164.2,137.1 164.2,141.9 			"/>
			<path class="st0" d="M158.6,136.5l4.1,1.6v2.2h-11.9h-11.9v-2.2l4.1-1.6h7.8H158.6 M159.2,133.5h-0.6h-7.8H143h-0.6l-0.5,0.2
				l-4.1,1.6l-1.9,0.8v2.1v2.2v3h3h11.9h11.9h3v-3v-2.2V136l-1.9-0.8l-4.1-1.6L159.2,133.5L159.2,133.5z"/>
		</g>
	</g>
	<text transform="matrix(1 0 0 1 32.2336 202.3684)" class="st1 st9 st10">est. 1942</text>
	<text transform="matrix(1 0 0 1 221.8069 202.3684)" class="st1 st9 st10">terre haute, in usa</text>
</g>
</svg>
