<?xml version="1.0" encoding="utf-8"?>
<!-- Generator: Adobe Illustrator 22.1.0, SVG Export Plug-In . SVG Version: 6.00 Build 0)  -->
<svg version="1.1" id="Layer_1" xmlns="http://www.w3.org/2000/svg" xmlns:xlink="http://www.w3.org/1999/xlink" x="0px" y="0px"
	 viewBox="0 0 300 250" style="enable-background:new 0 0 300 250;" xml:space="preserve">
<style type="text/css">
	.st0{fill:#444D5F;}
	.st1{enable-background:new    ;}
	.st2{fill:#E6E7E8;}
	.st3{fill:#F59220;}
	.st4{fill:#EF5A29;}
	.st5{fill:#FAAE41;}
	.st6{fill:#E76B40;}
</style>
<rect class="st0" width="300" height="250"/>
<g>
	<g class="st1">
		<path class="st2" d="M38.4,164.3V181c0,0.2,0.2,0.3,0.3,0.3h4.1c0.2,0,0.4-0.1,0.4-0.3v-16.7h5.6v19.2c0,1.4-1.1,2.5-2.4,2.5h-11
			c-1.3,0-2.5-1.1-2.5-2.5v-19.2H38.4z"/>
		<path class="st2" d="M60,174.1V186h-5.1v-21.7H60l6.5,12v-12h5.1V186h-5.3L60,174.1z"/>
		<path class="st2" d="M83.4,186h-5.6v-21.7h5.6V186z"/>
		<path class="st2" d="M103.1,164.3c1.5,0,2.5,1,2.5,2.5v16.6c0,1.5-1,2.5-2.5,2.5H91.9c-1.5,0-2.5-1-2.5-2.5v-16.6
			c0-1.5,1-2.5,2.5-2.5H103.1z M100,169.4c0-0.2-0.2-0.4-0.4-0.4h-4.4c-0.1,0-0.3,0.2-0.3,0.4V181c0,0.2,0.2,0.3,0.3,0.3h4.4
			c0.2,0,0.4-0.1,0.4-0.3V169.4z"/>
		<path class="st2" d="M116.8,174.1V186h-5.1v-21.7h5.1l6.5,12v-12h5.1V186h-5.3L116.8,174.1z"/>
		<path class="st2" d="M142.4,186v-21.7h13.4c1.8,0,2.9,1.1,2.9,2.7v4.8c0,1.5-1,2.9-3,3.4c2,0.5,3.1,1.8,3.1,3.3v4.7
			c0,1.7-1.1,2.8-2.9,2.8H142.4z M153.3,169c0-0.2-0.1-0.4-0.3-0.4h-5v4.5h5c0.2,0,0.3-0.2,0.3-0.4V169z M153.3,177.5
			c0-0.2-0.1-0.4-0.3-0.4h-5v4.8h5c0.2,0,0.3-0.2,0.3-0.3V177.5z"/>
		<path class="st2" d="M180.4,186h-5.6v-5.4h-4.9v5.4h-5.6v-19.2c0-1.5,1-2.5,2.5-2.5h11c1.5,0,2.5,1,2.5,2.5V186z M174.8,175.9
			v-6.5c0-0.4-0.3-0.6-0.8-0.6h-3.5c-0.4,0-0.7,0.3-0.7,0.6v6.5H174.8z"/>
		<path class="st2" d="M199.6,164.3c1.3,0,2.4,1.1,2.4,2.4v11.2c0,1.3-1.1,2.4-2.4,2.4H192v5.7h-5.6v-21.7H199.6z M196.2,175.8
			c0.2,0,0.3-0.2,0.3-0.3v-6.2c0-0.2-0.1-0.3-0.3-0.3H192v6.8H196.2z"/>
		<path class="st2" d="M220.7,164.3v4.7h-4.9v17h-5.6v-17h-4.9v-4.7H220.7z"/>
		<path class="st2" d="M230.4,186h-5.6v-21.7h5.6V186z"/>
		<path class="st2" d="M236.2,181.3h8.1c0.2,0,0.4-0.1,0.4-0.3v-3.2c0-0.2-0.1-0.3-0.4-0.3h-5.6c-1.5,0-2.5-1-2.5-2.5v-8.2
			c0-1.5,1-2.5,2.5-2.5h11.2v4.7h-7.8c-0.2,0-0.3,0.2-0.3,0.4v3.2c0,0.1,0.1,0.3,0.3,0.3h5.6c1.5,0,2.5,1,2.5,2.5v8.1
			c0,1.5-1,2.5-2.5,2.5h-11.5V181.3z"/>
		<path class="st2" d="M269.2,164.3v4.7h-4.9v17h-5.6v-17h-4.9v-4.7H269.2z"/>
	</g>
	<g class="st1">
		<path class="st2" d="M114.2,202.6v4.3c0,1.1-0.9,1.9-1.9,1.9h-8.3c-1.1,0-1.9-0.8-1.9-1.9v-12.8c0-1,0.8-1.9,1.9-1.9h8.3
			c1.1,0,1.9,0.9,1.9,1.9v4.3h-4.3V196c0-0.1-0.1-0.3-0.2-0.3h-3.1c-0.1,0-0.3,0.1-0.3,0.3v8.9c0,0.1,0.1,0.2,0.3,0.2h3.1
			c0.1,0,0.2-0.1,0.2-0.2v-2.4H114.2z"/>
		<path class="st2" d="M130.8,208.8h-4.3v-6.6h-4.1v6.6h-4.3v-16.6h4.3v6.3h4.1v-6.3h4.3V208.8z"/>
		<path class="st2" d="M139.8,192.2V205c0,0.1,0.1,0.2,0.2,0.2h3.1c0.1,0,0.3-0.1,0.3-0.2v-12.8h4.3v14.7c0,1.1-0.8,1.9-1.9,1.9
			h-8.4c-1,0-1.9-0.8-1.9-1.9v-14.7H139.8z"/>
		<path class="st2" d="M162.9,192.2c1,0,1.9,0.8,1.9,1.9v7.6c0,1-0.9,1.9-1.9,1.9h-0.1l2,5.3h-4.2l-2.1-5.3h-1.8v5.3h-4.3v-16.6
			H162.9z M160.5,196c0-0.1-0.1-0.2-0.2-0.2h-3.5v4.4h3.5c0.1,0,0.2-0.1,0.2-0.2V196z"/>
		<path class="st2" d="M181.2,202.6v4.3c0,1.1-0.9,1.9-1.9,1.9h-8.3c-1.1,0-1.9-0.8-1.9-1.9v-12.8c0-1,0.8-1.9,1.9-1.9h8.3
			c1.1,0,1.9,0.9,1.9,1.9v4.3h-4.3V196c0-0.1-0.1-0.3-0.2-0.3h-3.1c-0.1,0-0.3,0.1-0.3,0.3v8.9c0,0.1,0.1,0.2,0.3,0.2h3.1
			c0.1,0,0.2-0.1,0.2-0.2v-2.4H181.2z"/>
		<path class="st2" d="M197.9,208.8h-4.3v-6.6h-4.1v6.6h-4.3v-16.6h4.3v6.3h4.1v-6.3h4.3V208.8z"/>
	</g>
	<g>
		<polygon class="st3" points="163.3,139.7 198.1,104.9 198.1,98.2 		"/>
		<polygon class="st3" points="164.4,140.8 198.1,112.5 198.1,107.1 		"/>
		<polygon class="st4" points="167.1,144.7 198.1,130.2 198.1,126.8 		"/>
		<polygon class="st3" points="166.3,143.3 198.1,125 198.1,121.1 		"/>
		<polygon class="st3" points="165.4,142 198.1,119.1 198.1,114.6 		"/>
		<path class="st5" d="M156.4,135.7l26.8-73.6c-2.1-0.9-4.3-1.5-6.6-1.8L156.4,135.7z"/>
		<polygon class="st3" points="162,138.6 198.1,95.7 198.1,87.2 		"/>
		<path class="st5" d="M157.9,136.3l32.5-69.7c-1.7-1.5-3.6-2.8-5.7-3.8L157.9,136.3z"/>
		<path class="st5" d="M146.7,135.3l-16.3-92.4c-2.9,3.5-4.7,7.7-5.1,12.3v0.4L146.7,135.3z"/>
		<polygon class="st4" points="167.8,146.1 198.1,135.1 198.1,132 		"/>
		<path class="st5" d="M175.9,56.9v-2.1c-0.4-4.3-2.1-8.3-4.7-11.6l-16.2,92L175.9,56.9z"/>
		<path class="st5" d="M142.2,136.9l-32.7-70.2c-1.8,1.6-3.4,3.5-4.6,5.6L142.2,136.9z"/>
		<path class="st5" d="M195.9,73.7c-1.1-2.2-2.5-4.2-4.2-6l-32.3,69.2L195.9,73.7z"/>
		<path class="st5" d="M151.7,33.7v101.2l8.7-99.4C157.7,34.5,154.8,33.9,151.7,33.7z"/>
		<polygon class="st4" points="168.3,147.6 198.1,139.6 198.1,136.8 		"/>
		<polygon class="st4" points="198.1,145.6 169,150.7 198.1,148.2 		"/>
		<path class="st3" d="M198.1,84.4v-1.3c0-2.7-0.5-5.2-1.4-7.6l-35.9,62.2L198.1,84.4z"/>
		<polygon class="st4" points="168.7,149.2 198.1,144 198.1,141.3 		"/>
		<path class="st5" d="M145.2,135.7L125,60.2c-2.4,0.2-4.6,0.7-6.7,1.4L145.2,135.7z"/>
		<polygon class="st4" points="132.6,150.7 101.9,145.3 101.9,148 		"/>
		<polygon class="st4" points="132.9,149.2 101.9,140.9 101.9,143.7 		"/>
		<path class="st5" d="M149.8,134.9V33.7c-3.1,0.1-6,0.7-8.7,1.7L149.8,134.9z"/>
		<polygon class="st4" points="133.8,146.1 101.9,131.3 101.9,134.5 		"/>
		<polygon class="st4" points="132.4,152.3 101.9,149.6 101.9,152.3 		"/>
		<path class="st5" d="M153.3,135l16.5-93.3c-2.2-2.3-4.8-4.2-7.8-5.6L153.3,135z"/>
		<polygon class="st4" points="169.1,152.3 198.1,152.3 198.1,149.8 		"/>
		<polygon class="st6" points="154.5,152.9 154.4,152.6 154.4,152.3 154.3,152 154.2,151.8 154.1,151.5 153.9,151.2 153.7,151 
			153.5,150.7 153.3,150.5 153.1,150.3 152.8,150.1 152.6,150 152.3,149.9 152,149.7 151.7,149.7 151.4,149.6 151.1,149.6 
			150.5,149.6 150.2,149.6 149.9,149.7 149.6,149.7 149.3,149.9 149,150 148.8,150.1 148.5,150.3 148.3,150.5 148,150.7 147.9,151 
			147.7,151.2 147.5,151.5 147.4,151.8 147.3,152 147.2,152.3 147.2,152.6 147.1,152.9 147.1,153.1 154.5,153.1 		"/>
		<polygon class="st4" points="134.5,144.7 101.9,125.9 101.9,129.5 		"/>
		<polygon class="st4" points="133.3,147.6 101.9,136.2 101.9,139.2 		"/>
		<path class="st5" d="M143.7,136.3l-27-74.1c-2.2,0.9-4.2,2.1-6,3.5L143.7,136.3z"/>
		<path class="st3" d="M140.8,137.7L104,74c-1.2,2.5-1.9,5.3-2.1,8.2L140.8,137.7z"/>
		<polygon class="st3" points="135.3,143.3 101.9,120 101.9,124.1 		"/>
		<path class="st5" d="M148.3,135l-8.7-99c-3,1.3-5.6,3.2-7.8,5.4L148.3,135z"/>
		<polygon class="st3" points="139.5,138.6 101.9,84.9 101.9,93.8 		"/>
		<polygon class="st3" points="138.3,139.7 101.9,96.3 101.9,103.3 		"/>
		<polygon class="st3" points="136.2,142 101.9,113.3 101.9,118 		"/>
		<polygon class="st3" points="137.2,140.8 101.9,105.5 101.9,111.2 		"/>
	</g>
	<g>
		<g>
			<polygon class="st2" points="141.3,138.6 150.8,48.8 160.3,138.6 			"/>
			<path class="st0" d="M150.8,63.2l7.8,73.8h-7.8H143L150.8,63.2 M150.8,34.4l-3,28.5l-7.8,73.8l-0.4,3.3h3.4h7.8h7.8h3.4l-0.4-3.3
				l-7.8-73.8L150.8,34.4L150.8,34.4z"/>
		</g>
		<g>
			<polygon class="st2" points="150.8,154.8 136.3,161 138.8,138.8 162.8,138.8 165.2,161 			"/>
			<path class="st0" d="M161.4,140.3l2.1,18.2l-12.7-5.4l-12.7,5.4l2.1-18.2h10.6H161.4 M164.1,137.3h-2.7h-10.6h-10.6h-2.7
				l-0.3,2.7l-2.1,18.2l-0.6,5.2l4.8-2.1l11.5-4.9l11.5,4.9l4.8,2.1l-0.6-5.2l-2.1-18.2L164.1,137.3L164.1,137.3z"/>
		</g>
		<g>
			<polygon class="st2" points="137.3,141.9 137.3,137.1 142.7,135 158.9,135 164.2,137.1 164.2,141.9 			"/>
			<path class="st0" d="M158.6,136.5l4.1,1.6v2.2h-11.9h-11.9v-2.2l4.1-1.6h7.8H158.6 M159.2,133.5h-0.6h-7.8H143h-0.6l-0.5,0.2
				l-4.1,1.6l-1.9,0.8v2.1v2.2v3h3h11.9h11.9h3v-3v-2.2V136l-1.9-0.8l-4.1-1.6L159.2,133.5L159.2,133.5z"/>
		</g>
	</g>
	<g class="st1">
		<path class="st2" d="M32.7,197.4h1.8v0.7h-1v1.4h0.8v0.7h-0.8v1.4h1v0.7h-1.8V197.4z"/>
		<path class="st2" d="M35.2,201.6h1c0,0,0.1,0,0.1-0.1v-1.2c0,0,0-0.1-0.1-0.1h-0.5c-0.3,0-0.5-0.2-0.5-0.5v-1.8
			c0-0.3,0.2-0.5,0.5-0.5H37v0.7H36c0,0-0.1,0-0.1,0.1v1.2c0,0,0,0.1,0.1,0.1h0.5c0.3,0,0.5,0.2,0.5,0.5v1.9c0,0.3-0.2,0.5-0.5,0.5
			h-1.3V201.6z"/>
		<path class="st2" d="M38.9,198.1v4.2H38v-4.2h-0.6v-0.7h2.1v0.7H38.9z"/>
		<path class="st2" d="M40.6,202.4h-0.9v-1.1h0.9V202.4z"/>
		<path class="st2" d="M42.3,202.4v-0.7h0.9v-3.5l-0.7,0.2l-0.1-0.6l1-0.4h0.6v4.2h0.8v0.7H42.3z"/>
		<path class="st2" d="M46.9,201.7C46.9,201.7,47,201.7,46.9,201.7l0.1-1.1h-0.8c-0.4,0-0.6-0.2-0.6-0.6V198c0-0.4,0.2-0.6,0.6-0.6
			h1.1c0.4,0,0.6,0.2,0.6,0.6v3.8c0,0.4-0.2,0.6-0.6,0.6h-1.5v-0.7H46.9z M46.9,200C47,200,47,199.9,46.9,200l0.1-1.8
			c0-0.1,0-0.1-0.1-0.1h-0.5c-0.1,0-0.1,0-0.1,0.1v1.7c0,0.1,0,0.1,0.1,0.1H46.9z"/>
		<path class="st2" d="M51.1,201.2h-0.4v1.1h-0.8v-1.1h-1.3v-3.8h0.7v3.2h0.5v-3.2h0.8v3.2h0.4V201.2z"/>
		<path class="st2" d="M52.7,200.3C52.7,200.3,52.6,200.4,52.7,200.3l-0.1,1.4h1.2v0.7h-2.1v-2.3c0-0.4,0.2-0.6,0.6-0.6H53
			c0.1,0,0.1,0,0.1-0.1v-1.3c0-0.1,0-0.1-0.1-0.1h-1.1v-0.7h1.4c0.4,0,0.6,0.2,0.6,0.6v1.8c0,0.4-0.2,0.6-0.6,0.6H52.7z"/>
	</g>
	<g class="st1">
		<path class="st2" d="M223.4,198.1v4.2h-0.8v-4.2h-0.6v-0.7h2.1v0.7H223.4z"/>
		<path class="st2" d="M224.6,197.4h1.8v0.7h-1v1.4h0.8v0.7h-0.8v1.4h1v0.7h-1.8V197.4z"/>
		<path class="st2" d="M228.3,200.7h-0.3v1.6h-0.8v-4.9h1.7c0.4,0,0.6,0.2,0.6,0.6v2.1c0,0.3-0.1,0.5-0.4,0.6l0.4,1.7h-0.8
			L228.3,200.7z M228.7,198.2C228.7,198.2,228.7,198.1,228.7,198.2l-0.6-0.1v1.9h0.6c0,0,0.1,0,0.1-0.1V198.2z"/>
		<path class="st2" d="M231.5,200.7h-0.3v1.6h-0.8v-4.9h1.7c0.4,0,0.6,0.2,0.6,0.6v2.1c0,0.3-0.1,0.5-0.4,0.6l0.4,1.7h-0.8
			L231.5,200.7z M231.8,198.2C231.8,198.2,231.8,198.1,231.8,198.2l-0.6-0.1v1.9h0.6c0,0,0.1,0,0.1-0.1V198.2z"/>
		<path class="st2" d="M233.5,197.4h1.8v0.7h-1v1.4h0.8v0.7h-0.8v1.4h1v0.7h-1.8V197.4z"/>
		<path class="st2" d="M237.3,202.4v-4.9h0.8v2.2h0.7v-2.2h0.8v4.9h-0.8v-2.1h-0.7v2.1H237.3z"/>
		<path class="st2" d="M242.8,202.4H242v-1.4h-0.6v1.4h-0.8v-4.4c0-0.3,0.2-0.5,0.5-0.5h1.2c0.3,0,0.5,0.2,0.5,0.5V202.4z
			 M242,200.3v-2c0-0.1,0-0.1-0.1-0.1h-0.4c-0.1,0-0.1,0-0.1,0.1v2H242z"/>
		<path class="st2" d="M244.6,197.4v4.2c0,0,0,0.1,0,0.1h0.5c0,0,0,0,0-0.1v-4.2h0.8v4.3c0,0.4-0.2,0.6-0.6,0.6h-1
			c-0.4,0-0.6-0.2-0.6-0.6v-4.3H244.6z"/>
		<path class="st2" d="M248,198.1v4.2h-0.8v-4.2h-0.6v-0.7h2.1v0.7H248z"/>
		<path class="st2" d="M249.3,197.4h1.8v0.7h-1v1.4h0.8v0.7h-0.8v1.4h1v0.7h-1.8V197.4z"/>
		<path class="st2" d="M252.3,201.4h0.9l-0.7,2h-0.8L252.3,201.4z"/>
		<path class="st2" d="M256,202.4h-0.8v-4.9h0.8V202.4z"/>
		<path class="st2" d="M257.7,199.6v2.8H257v-4.9h0.7l0.9,3v-3h0.7v4.9h-0.7L257.7,199.6z"/>
		<path class="st2" d="M262.3,197.4v4.2c0,0,0,0.1,0,0.1h0.5c0,0,0,0,0-0.1v-4.2h0.8v4.3c0,0.4-0.2,0.6-0.6,0.6h-1
			c-0.4,0-0.6-0.2-0.6-0.6v-4.3H262.3z"/>
		<path class="st2" d="M264.5,201.6h1c0,0,0.1,0,0.1-0.1v-1.2c0,0,0-0.1-0.1-0.1H265c-0.3,0-0.5-0.2-0.5-0.5v-1.8
			c0-0.3,0.2-0.5,0.5-0.5h1.3v0.7h-0.9c0,0-0.1,0-0.1,0.1v1.2c0,0,0,0.1,0.1,0.1h0.5c0.3,0,0.5,0.2,0.5,0.5v1.9
			c0,0.3-0.2,0.5-0.5,0.5h-1.3V201.6z"/>
		<path class="st2" d="M269.3,202.4h-0.8v-1.4h-0.6v1.4h-0.8v-4.4c0-0.3,0.2-0.5,0.5-0.5h1.2c0.3,0,0.5,0.2,0.5,0.5V202.4z
			 M268.5,200.3v-2c0-0.1,0-0.1-0.1-0.1H268c-0.1,0-0.1,0-0.1,0.1v2H268.5z"/>
	</g>
</g>
</svg>
